<?xml version="1.0" encoding="UTF-8" standalone="no"?>
<!DOCTYPE svg PUBLIC "-//W3C//DTD SVG 1.1//EN"
 "http://www.w3.org/Graphics/SVG/1.1/DTD/svg11.dtd">
<!-- Generated by graphviz version 2.36.0 (20140111.2315)
 -->
<!-- Title: fbp Pages: 1 -->
<svg width="340pt" height="223pt"
 viewBox="0.00 0.00 340.00 223.00" xmlns="http://www.w3.org/2000/svg" xmlns:xlink="http://www.w3.org/1999/xlink">
<g id="graph0" class="graph" transform="scale(1 1) rotate(0) translate(4 219)">
<title>fbp</title>
<polygon fill="white" stroke="none" points="-4,4 -4,-219 336,-219 336,4 -4,4"/>
<!-- t1 -->
<g id="node1" class="node"><title>t1</title>
<polygon fill="#7f2fae" stroke="none" points="8,-65 8,-94 72,-94 72,-65 8,-65"/>
<polygon fill="none" stroke="#351348" points="8,-65 8,-94 72,-94 72,-65 8,-65"/>
<text text-anchor="start" x="11.5" y="-80.3" font-family="Helvetica,sans-Serif" font-size="14.00" fill="#ffffff">🕐 Timer</text>
<text text-anchor="start" x="30.5" y="-71.1" font-family="Helvetica,sans-Serif" font-size="8.00" fill="#ffffff">timer</text>
<polygon fill="#471a61" stroke="none" points="8,-48 8,-65 72,-65 72,-48 8,-48"/>
<polygon fill="none" stroke="#351348" points="8,-48 8,-65 72,-65 72,-48 8,-48"/>
<text text-anchor="start" x="36" y="-54" font-family="Helvetica,sans-Serif" font-size="10.00" fill="#ffffff">OUT ◉</text>
</g>
<!-- toggle -->
<g id="node3" class="node"><title>toggle</title>
<polygon fill="#184294" stroke="none" points="125,-65 125,-94 185,-94 185,-65 125,-65"/>
<polygon fill="none" stroke="#091b3e" points="125,-65 125,-94 185,-94 185,-65 125,-65"/>
<text text-anchor="start" x="136.5" y="-80.3" font-family="Helvetica,sans-Serif" font-size="14.00" fill="#ffffff">toggle</text>
<text text-anchor="start" x="128.5" y="-71.1" font-family="Helvetica,sans-Serif" font-size="8.00" fill="#ffffff">boolean/toggle</text>
<polygon fill="#12316f" stroke="none" points="125,-48 125,-65 185,-65 185,-48 125,-48"/>
<polygon fill="none" stroke="#091b3e" points="125,-48 125,-65 185,-65 185,-48 125,-48"/>
<text text-anchor="start" x="128" y="-54" font-family="Helvetica,sans-Serif" font-size="10.00" fill="#ffffff">◎ IN</text>
<polygon fill="#0d2453" stroke="none" points="125,-31 125,-48 185,-48 185,-31 125,-31"/>
<polygon fill="none" stroke="#091b3e" points="125,-31 125,-48 185,-48 185,-31 125,-31"/>
<text text-anchor="start" x="149" y="-37" font-family="Helvetica,sans-Serif" font-size="10.00" fill="#ffffff">OUT ◉</text>
</g>
<!-- t1&#45;&gt;toggle -->
<g id="edge1" class="edge"><title>t1:OUT:e&#45;&gt;toggle:IN:w</title>
<path fill="none" stroke="#77286e" stroke-width="2" d="M73,-56C94.25,-56 100.559,-56 119.941,-56"/>
<ellipse fill="#77286e" stroke="#77286e" stroke-width="2" cx="122" cy="-56" rx="2" ry="2"/>
</g>
<!-- t2 -->
<g id="node2" class="node"><title>t2</title>
<polygon fill="#7f2fae" stroke="none" points="8,-182 8,-211 72,-211 72,-182 8,-182"/>
<polygon fill="none" stroke="#351348" points="8,-182 8,-211 72,-211 72,-182 8,-182"/>
<text text-anchor="start" x="11.5" y="-197.3" font-family="Helvetica,sans-Serif" font-size="14.00" fill="#ffffff">🕐 Timer</text>
<text text-anchor="start" x="30.5" y="-188.1" font-family="Helvetica,sans-Serif" font-size="8.00" fill="#ffffff">timer</text>
<polygon fill="#471a61" stroke="none" points="8,-165 8,-182 72,-182 72,-165 8,-165"/>
<polygon fill="none" stroke="#351348" points="8,-165 8,-182 72,-182 72,-165 8,-165"/>
<text text-anchor="start" x="36" y="-171" font-family="Helvetica,sans-Serif" font-size="10.00" fill="#ffffff">OUT ◉</text>
</g>
<!-- acc -->
<g id="node4" class="node"><title>acc</title>
<polygon fill="#254878" stroke="none" points="124,-182 124,-211 186,-211 186,-182 124,-182"/>
<polygon fill="none" stroke="#0f1e32" points="124,-182 124,-211 186,-211 186,-182 124,-182"/>
<text text-anchor="start" x="144" y="-197.3" font-family="Helvetica,sans-Serif" font-size="14.00" fill="#ffffff">acc</text>
<text text-anchor="start" x="127.5" y="-188.1" font-family="Helvetica,sans-Serif" font-size="8.00" fill="#ffffff">int/accumulator</text>
<polygon fill="#1b365a" stroke="none" points="124,-165 124,-182 186,-182 186,-165 124,-165"/>
<polygon fill="none" stroke="#0f1e32" points="124,-165 124,-182 186,-182 186,-165 124,-165"/>
<text text-anchor="start" x="127" y="-171" font-family="Helvetica,sans-Serif" font-size="10.00" fill="#ffffff">◎ INC</text>
<polygon fill="#142843" stroke="none" points="124,-148 124,-165 186,-165 186,-148 124,-148"/>
<polygon fill="none" stroke="#0f1e32" points="124,-148 124,-165 186,-165 186,-148 124,-148"/>
<text text-anchor="start" x="150" y="-154" font-family="Helvetica,sans-Serif" font-size="10.00" fill="#ffffff">OUT ◉</text>
</g>
<!-- t2&#45;&gt;acc -->
<g id="edge4" class="edge"><title>t2:OUT:e&#45;&gt;acc:INC:w</title>
<path fill="none" stroke="#7c551b" stroke-width="2" d="M73,-173C93.6597,-173 99.9141,-173 118.548,-173"/>
<ellipse fill="#7c551b" stroke="#7c551b" stroke-width="2" cx="121" cy="-173" rx="2" ry="2"/>
</g>
<!-- led1 -->
<g id="node5" class="node"><title>led1</title>
<polygon fill="#c8f4ea" stroke="none" points="248,-93 248,-122 314,-122 314,-93 248,-93"/>
<polygon fill="none" stroke="#546662" points="248,-93 248,-122 314,-122 314,-93 248,-93"/>
<text text-anchor="start" x="268" y="-108.3" font-family="Helvetica,sans-Serif" font-size="14.00" fill="#000000">led1</text>
<text text-anchor="start" x="271.5" y="-99.1" font-family="Helvetica,sans-Serif" font-size="8.00" fill="#000000">Led1</text>
<polygon fill="#96b7af" stroke="none" points="248,-76 248,-93 314,-93 314,-76 248,-76"/>
<polygon fill="none" stroke="#546662" points="248,-76 248,-93 314,-93 314,-76 248,-76"/>
<text text-anchor="start" x="251" y="-82" font-family="Helvetica,sans-Serif" font-size="10.00" fill="#000000">◎ ENABLED</text>
</g>
<!-- toggle&#45;&gt;led1 -->
<g id="edge2" class="edge"><title>toggle:OUT:e&#45;&gt;led1:ENABLED:w</title>
<path fill="none" stroke="#8d140a" stroke-width="2" d="M186,-39C218.242,-39 213.784,-80.2159 242.873,-83.7579"/>
<ellipse fill="#8d140a" stroke="#8d140a" stroke-width="2" cx="245.003" cy="-83.8828" rx="2" ry="2"/>
</g>
<!-- c1 -->
<g id="node6" class="node"><title>c1</title>
<polygon fill="#471ca4" stroke="none" points="264,-21 264,-50 299,-50 299,-21 264,-21"/>
<polygon fill="none" stroke="#1d0b45" points="264,-21 264,-50 299,-50 299,-21 264,-21"/>
<text text-anchor="start" x="274" y="-36.3" font-family="Helvetica,sans-Serif" font-size="14.00" fill="#ffffff">c1</text>
<text text-anchor="start" x="267.5" y="-27.1" font-family="Helvetica,sans-Serif" font-size="8.00" fill="#ffffff">console</text>
<polygon fill="#35157b" stroke="none" points="264,-4 264,-21 299,-21 299,-4 264,-4"/>
<polygon fill="none" stroke="#1d0b45" points="264,-4 264,-21 299,-21 299,-4 264,-4"/>
<text text-anchor="start" x="267" y="-10" font-family="Helvetica,sans-Serif" font-size="10.00" fill="#ffffff">◎ IN</text>
</g>
<!-- toggle&#45;&gt;c1 -->
<g id="edge3" class="edge"><title>toggle:OUT:e&#45;&gt;c1:IN:w</title>
<path fill="none" stroke="#953bce" stroke-width="2" d="M186,-39C220.849,-39 226.337,-14.0682 258.892,-12.1204"/>
<ellipse fill="#953bce" stroke="#953bce" stroke-width="2" cx="261.001" cy="-12.0586" rx="2" ry="2"/>
</g>
<!-- led2 -->
<g id="node7" class="node"><title>led2</title>
<polygon fill="#40bcb0" stroke="none" points="238,-165 238,-194 324,-194 324,-165 238,-165"/>
<polygon fill="none" stroke="#1b4e4a" points="238,-165 238,-194 324,-194 324,-165 238,-165"/>
<text text-anchor="start" x="268" y="-180.3" font-family="Helvetica,sans-Serif" font-size="14.00" fill="#000000">led2</text>
<text text-anchor="start" x="271.5" y="-171.1" font-family="Helvetica,sans-Serif" font-size="8.00" fill="#000000">Led2</text>
<polygon fill="#308d84" stroke="none" points="238,-148 238,-165 324,-165 324,-148 238,-148"/>
<polygon fill="none" stroke="#1b4e4a" points="238,-148 238,-165 324,-165 324,-148 238,-148"/>
<text text-anchor="start" x="241" y="-154" font-family="Helvetica,sans-Serif" font-size="10.00" fill="#ffffff">◎ DUTY_CYCLE</text>
</g>
<!-- acc&#45;&gt;led2 -->
<g id="edge5" class="edge"><title>acc:OUT:e&#45;&gt;led2:DUTY_CYCLE:w</title>
<path fill="none" stroke="#fd6732" stroke-width="2" d="M187,-156C207.66,-156 213.914,-156 232.548,-156"/>
<ellipse fill="#fd6732" stroke="#fd6732" stroke-width="2" cx="235" cy="-156" rx="2" ry="2"/>
</g>
</g>
</svg>
