<?xml version="1.0" encoding="UTF-8" standalone="no"?>
<!DOCTYPE svg PUBLIC "-//W3C//DTD SVG 1.1//EN"
 "http://www.w3.org/Graphics/SVG/1.1/DTD/svg11.dtd">
<!-- Generated by graphviz version 2.36.0 (20140111.2315)
 -->
<!-- Title: fbp Pages: 1 -->
<svg width="524pt" height="167pt"
 viewBox="0.00 0.00 524.00 167.00" xmlns="http://www.w3.org/2000/svg" xmlns:xlink="http://www.w3.org/1999/xlink">
<g id="graph0" class="graph" transform="scale(1 1) rotate(0) translate(4 163)">
<title>fbp</title>
<polygon fill="white" stroke="none" points="-4,4 -4,-163 520,-163 520,4 -4,4"/>
<!-- #anon:31:1 -->
<g id="node1" class="node"><title>#anon:31:1</title>
<polygon fill="#7f2fae" stroke="none" points="8,-125 8,-147 48,-147 48,-125 8,-125"/>
<polygon fill="none" stroke="#351348" points="8,-125 8,-147 48,-147 48,-125 8,-125"/>
<text text-anchor="start" x="12.5" y="-132.3" font-family="Helvetica,sans-Serif" font-size="14.00" fill="#ffffff">timer</text>
<polygon fill="#471a61" stroke="none" points="8,-108 8,-125 48,-125 48,-108 8,-108"/>
<polygon fill="none" stroke="#351348" points="8,-108 8,-125 48,-125 48,-108 8,-108"/>
<text text-anchor="start" x="12" y="-114" font-family="Helvetica,sans-Serif" font-size="10.00" fill="#ffffff">OUT ◉</text>
</g>
<!-- #anon:31:33 -->
<g id="node2" class="node"><title>#anon:31:33</title>
<polygon fill="#184294" stroke="none" points="100,-125 100,-147 196,-147 196,-125 100,-125"/>
<polygon fill="none" stroke="#091b3e" points="100,-125 100,-147 196,-147 196,-125 100,-125"/>
<text text-anchor="start" x="103.5" y="-132.3" font-family="Helvetica,sans-Serif" font-size="14.00" fill="#ffffff">boolean/toggle</text>
<polygon fill="#12316f" stroke="none" points="100,-108 100,-125 196,-125 196,-108 100,-108"/>
<polygon fill="none" stroke="#091b3e" points="100,-108 100,-125 196,-125 196,-108 100,-108"/>
<text text-anchor="start" x="103" y="-114" font-family="Helvetica,sans-Serif" font-size="10.00" fill="#ffffff">◎ IN</text>
<polygon fill="#0d2453" stroke="none" points="100,-91 100,-108 196,-108 196,-91 100,-91"/>
<polygon fill="none" stroke="#091b3e" points="100,-91 100,-108 196,-108 196,-91 100,-91"/>
<text text-anchor="start" x="160" y="-97" font-family="Helvetica,sans-Serif" font-size="10.00" fill="#ffffff">OUT ◉</text>
</g>
<!-- #anon:31:1&#45;&gt;#anon:31:33 -->
<g id="edge1" class="edge"><title>#anon:31:1:OUT_OUT:e&#45;&gt;#anon:31:33:IN_IN:w</title>
<path fill="none" stroke="#014fd9" stroke-width="2" d="M49,-116C69.6597,-116 75.9141,-116 94.5481,-116"/>
<ellipse fill="#014fd9" stroke="#014fd9" stroke-width="2" cx="97" cy="-116" rx="2" ry="2"/>
</g>
<!-- filter -->
<g id="node3" class="node"><title>filter</title>
<polygon fill="#184294" stroke="none" points="249,-107 249,-136 302,-136 302,-107 249,-107"/>
<polygon fill="none" stroke="#091b3e" points="249,-107 249,-136 302,-136 302,-107 249,-107"/>
<text text-anchor="start" x="262.5" y="-122.3" font-family="Helvetica,sans-Serif" font-size="14.00" fill="#ffffff">filter</text>
<text text-anchor="start" x="252.5" y="-113.1" font-family="Helvetica,sans-Serif" font-size="8.00" fill="#ffffff">boolean/filter</text>
<polygon fill="#12316f" stroke="none" points="249,-90 249,-107 302,-107 302,-90 249,-90"/>
<polygon fill="none" stroke="#091b3e" points="249,-90 249,-107 302,-107 302,-90 249,-90"/>
<text text-anchor="start" x="252" y="-96" font-family="Helvetica,sans-Serif" font-size="10.00" fill="#ffffff">◎ IN</text>
<polygon fill="#0d2453" stroke="none" points="249,-73 249,-90 302,-90 302,-73 249,-73"/>
<polygon fill="none" stroke="#091b3e" points="249,-73 249,-90 302,-90 302,-73 249,-73"/>
<text text-anchor="start" x="259" y="-79" font-family="Helvetica,sans-Serif" font-size="10.00" fill="#ffffff">TRUE ◉</text>
<polygon fill="#0d2453" stroke="none" points="249,-56 249,-73 302,-73 302,-56 249,-56"/>
<polygon fill="none" stroke="#091b3e" points="249,-56 249,-73 302,-73 302,-56 249,-56"/>
<text text-anchor="start" x="256" y="-62" font-family="Helvetica,sans-Serif" font-size="10.00" fill="#ffffff">FALSE ◉</text>
</g>
<!-- #anon:31:33&#45;&gt;filter -->
<g id="edge2" class="edge"><title>#anon:31:33:OUT_OUT:e&#45;&gt;filter:IN_IN:w</title>
<path fill="none" stroke="#0b8fdc" stroke-width="2" d="M197,-99C218.25,-99 224.559,-99 243.941,-99"/>
<ellipse fill="#0b8fdc" stroke="#0b8fdc" stroke-width="2" cx="246" cy="-99" rx="2" ry="2"/>
</g>
<!-- c1 -->
<g id="node4" class="node"><title>c1</title>
<polygon fill="#849f84" stroke="none" points="355,-126 355,-155 402,-155 402,-126 355,-126"/>
<polygon fill="none" stroke="#374237" points="355,-126 355,-155 402,-155 402,-126 355,-126"/>
<text text-anchor="start" x="371" y="-141.3" font-family="Helvetica,sans-Serif" font-size="14.00" fill="#000000">c1</text>
<text text-anchor="start" x="358.5" y="-132.1" font-family="Helvetica,sans-Serif" font-size="8.00" fill="#000000">MyCounter</text>
<polygon fill="#637763" stroke="none" points="355,-109 355,-126 402,-126 402,-109 355,-109"/>
<polygon fill="none" stroke="#374237" points="355,-109 355,-126 402,-126 402,-109 355,-109"/>
<text text-anchor="start" x="358" y="-115" font-family="Helvetica,sans-Serif" font-size="10.00" fill="#ffffff">◎ IN</text>
<polygon fill="#4a594a" stroke="none" points="355,-92 355,-109 402,-109 402,-92 355,-92"/>
<polygon fill="none" stroke="#374237" points="355,-92 355,-109 402,-109 402,-92 355,-92"/>
<text text-anchor="start" x="366" y="-98" font-family="Helvetica,sans-Serif" font-size="10.00" fill="#ffffff">OUT ◉</text>
</g>
<!-- filter&#45;&gt;c1 -->
<g id="edge3" class="edge"><title>filter:OUT_TRUE:e&#45;&gt;c1:IN_IN:w</title>
<path fill="none" stroke="#c404c8" stroke-width="2" d="M303,-81C329.228,-81 326.65,-113.17 349.727,-116.689"/>
<ellipse fill="#c404c8" stroke="#c404c8" stroke-width="2" cx="352.005" cy="-116.855" rx="2" ry="2"/>
</g>
<!-- c2 -->
<g id="node6" class="node"><title>c2</title>
<polygon fill="#849f84" stroke="none" points="355,-37 355,-66 402,-66 402,-37 355,-37"/>
<polygon fill="none" stroke="#374237" points="355,-37 355,-66 402,-66 402,-37 355,-37"/>
<text text-anchor="start" x="371" y="-52.3" font-family="Helvetica,sans-Serif" font-size="14.00" fill="#000000">c2</text>
<text text-anchor="start" x="358.5" y="-43.1" font-family="Helvetica,sans-Serif" font-size="8.00" fill="#000000">MyCounter</text>
<polygon fill="#637763" stroke="none" points="355,-20 355,-37 402,-37 402,-20 355,-20"/>
<polygon fill="none" stroke="#374237" points="355,-20 355,-37 402,-37 402,-20 355,-20"/>
<text text-anchor="start" x="358" y="-26" font-family="Helvetica,sans-Serif" font-size="10.00" fill="#ffffff">◎ IN</text>
<polygon fill="#4a594a" stroke="none" points="355,-3 355,-20 402,-20 402,-3 355,-3"/>
<polygon fill="none" stroke="#374237" points="355,-3 355,-20 402,-20 402,-3 355,-3"/>
<text text-anchor="start" x="366" y="-9" font-family="Helvetica,sans-Serif" font-size="10.00" fill="#ffffff">OUT ◉</text>
</g>
<!-- filter&#45;&gt;c2 -->
<g id="edge5" class="edge"><title>filter:OUT_FALSE:e&#45;&gt;c2:IN_IN:w</title>
<path fill="none" stroke="#978fa2" stroke-width="2" d="M303,-64C329.228,-64 326.65,-31.8298 349.727,-28.3112"/>
<ellipse fill="#978fa2" stroke="#978fa2" stroke-width="2" cx="352.005" cy="-28.1453" rx="2" ry="2"/>
</g>
<!-- #anon:33:43 -->
<g id="node5" class="node"><title>#anon:33:43</title>
<polygon fill="#471ca4" stroke="none" points="454,-109 454,-131 508,-131 508,-109 454,-109"/>
<polygon fill="none" stroke="#1d0b45" points="454,-109 454,-131 508,-131 508,-109 454,-109"/>
<text text-anchor="start" x="457.5" y="-116.3" font-family="Helvetica,sans-Serif" font-size="14.00" fill="#ffffff">console</text>
<polygon fill="#35157b" stroke="none" points="454,-92 454,-109 508,-109 508,-92 454,-92"/>
<polygon fill="none" stroke="#1d0b45" points="454,-92 454,-109 508,-109 508,-92 454,-92"/>
<text text-anchor="start" x="457" y="-98" font-family="Helvetica,sans-Serif" font-size="10.00" fill="#ffffff">◎ IN</text>
</g>
<!-- c1&#45;&gt;#anon:33:43 -->
<g id="edge4" class="edge"><title>c1:OUT_OUT:e&#45;&gt;#anon:33:43:IN_IN:w</title>
<path fill="none" stroke="#1125f4" stroke-width="2" d="M403,-100C423.66,-100 429.914,-100 448.548,-100"/>
<ellipse fill="#1125f4" stroke="#1125f4" stroke-width="2" cx="451" cy="-100" rx="2" ry="2"/>
</g>
<!-- #anon:34:44 -->
<g id="node7" class="node"><title>#anon:34:44</title>
<polygon fill="#471ca4" stroke="none" points="454,-20 454,-42 508,-42 508,-20 454,-20"/>
<polygon fill="none" stroke="#1d0b45" points="454,-20 454,-42 508,-42 508,-20 454,-20"/>
<text text-anchor="start" x="457.5" y="-27.3" font-family="Helvetica,sans-Serif" font-size="14.00" fill="#ffffff">console</text>
<polygon fill="#35157b" stroke="none" points="454,-3 454,-20 508,-20 508,-3 454,-3"/>
<polygon fill="none" stroke="#1d0b45" points="454,-3 454,-20 508,-20 508,-3 454,-3"/>
<text text-anchor="start" x="457" y="-9" font-family="Helvetica,sans-Serif" font-size="10.00" fill="#ffffff">◎ IN</text>
</g>
<!-- c2&#45;&gt;#anon:34:44 -->
<g id="edge6" class="edge"><title>c2:OUT_OUT:e&#45;&gt;#anon:34:44:IN_IN:w</title>
<path fill="none" stroke="#5a1262" stroke-width="2" d="M403,-11C423.66,-11 429.914,-11 448.548,-11"/>
<ellipse fill="#5a1262" stroke="#5a1262" stroke-width="2" cx="451" cy="-11" rx="2" ry="2"/>
</g>
</g>
</svg>
