<?xml version="1.0" encoding="UTF-8" standalone="no"?>
<!DOCTYPE svg PUBLIC "-//W3C//DTD SVG 1.1//EN"
 "http://www.w3.org/Graphics/SVG/1.1/DTD/svg11.dtd">
<!-- Generated by graphviz version 2.36.0 (20140111.2315)
 -->
<!-- Title: fbp Pages: 1 -->
<svg width="336pt" height="368pt"
 viewBox="0.00 0.00 336.00 368.00" xmlns="http://www.w3.org/2000/svg" xmlns:xlink="http://www.w3.org/1999/xlink">
<g id="graph0" class="graph" transform="scale(1 1) rotate(0) translate(4 364)">
<title>fbp</title>
<polygon fill="white" stroke="none" points="-4,4 -4,-364 332,-364 332,4 -4,4"/>
<!-- key_a -->
<g id="node1" class="node"><title>key_a</title>
<polygon fill="#46b19c" stroke="none" points="9,-38 9,-67 80,-67 80,-38 9,-38"/>
<polygon fill="none" stroke="#1d4a41" points="9,-38 9,-67 80,-67 80,-38 9,-38"/>
<text text-anchor="start" x="26" y="-53.3" font-family="Helvetica,sans-Serif" font-size="14.00" fill="#000000">key_a</text>
<text text-anchor="start" x="12.5" y="-44.1" font-family="Helvetica,sans-Serif" font-size="8.00" fill="#000000">keyboard/boolean</text>
<polygon fill="#276357" stroke="none" points="9,-21 9,-38 80,-38 80,-21 9,-21"/>
<polygon fill="none" stroke="#1d4a41" points="9,-21 9,-38 80,-38 80,-21 9,-21"/>
<text text-anchor="start" x="44" y="-27" font-family="Helvetica,sans-Serif" font-size="10.00" fill="#ffffff">OUT ◉</text>
</g>
<!-- boolean -->
<g id="node3" class="node"><title>boolean</title>
<polygon fill="#22960c" stroke="none" points="133,-38 133,-67 210,-67 210,-38 133,-38"/>
<polygon fill="none" stroke="#0d3f04" points="133,-38 133,-67 210,-67 210,-38 133,-38"/>
<text text-anchor="start" x="147" y="-53.3" font-family="Helvetica,sans-Serif" font-size="14.00" fill="#ffffff">boolean</text>
<text text-anchor="start" x="136.5" y="-44.1" font-family="Helvetica,sans-Serif" font-size="8.00" fill="#ffffff">http&#45;server/boolean</text>
<polygon fill="#197009" stroke="none" points="133,-21 133,-38 210,-38 210,-21 133,-21"/>
<polygon fill="none" stroke="#0d3f04" points="133,-21 133,-38 210,-38 210,-21 133,-21"/>
<text text-anchor="start" x="136" y="-27" font-family="Helvetica,sans-Serif" font-size="10.00" fill="#ffffff">◎ IN</text>
<polygon fill="#125406" stroke="none" points="133,-4 133,-21 210,-21 210,-4 133,-4"/>
<polygon fill="none" stroke="#0d3f04" points="133,-4 133,-21 210,-21 210,-4 133,-4"/>
<text text-anchor="start" x="174" y="-10" font-family="Helvetica,sans-Serif" font-size="10.00" fill="#ffffff">OUT ◉</text>
</g>
<!-- key_a&#45;&gt;boolean -->
<g id="edge1" class="edge"><title>key_a:OUT_OUT:e&#45;&gt;boolean:IN_IN:w</title>
<path fill="none" stroke="#04afcc" stroke-width="2" d="M81,-29C102.25,-29 108.559,-29 127.941,-29"/>
<ellipse fill="#04afcc" stroke="#04afcc" stroke-width="2" cx="130" cy="-29" rx="2" ry="2"/>
</g>
<!-- key_s -->
<g id="node2" class="node"><title>key_s</title>
<polygon fill="#46b19c" stroke="none" points="9,-111 9,-140 80,-140 80,-111 9,-111"/>
<polygon fill="none" stroke="#1d4a41" points="9,-111 9,-140 80,-140 80,-111 9,-111"/>
<text text-anchor="start" x="26.5" y="-126.3" font-family="Helvetica,sans-Serif" font-size="14.00" fill="#000000">key_s</text>
<text text-anchor="start" x="12.5" y="-117.1" font-family="Helvetica,sans-Serif" font-size="8.00" fill="#000000">keyboard/boolean</text>
<polygon fill="#276357" stroke="none" points="9,-94 9,-111 80,-111 80,-94 9,-94"/>
<polygon fill="none" stroke="#1d4a41" points="9,-94 9,-111 80,-111 80,-94 9,-94"/>
<text text-anchor="start" x="44" y="-100" font-family="Helvetica,sans-Serif" font-size="10.00" fill="#ffffff">OUT ◉</text>
</g>
<!-- static -->
<g id="node11" class="node"><title>static</title>
<polygon fill="#22960c" stroke="none" points="138,-111 138,-140 205,-140 205,-111 138,-111"/>
<polygon fill="none" stroke="#0d3f04" points="138,-111 138,-140 205,-140 205,-111 138,-111"/>
<text text-anchor="start" x="155.5" y="-126.3" font-family="Helvetica,sans-Serif" font-size="14.00" fill="#ffffff">static</text>
<text text-anchor="start" x="141.5" y="-117.1" font-family="Helvetica,sans-Serif" font-size="8.00" fill="#ffffff">http&#45;server/static</text>
<polygon fill="#197009" stroke="none" points="138,-94 138,-111 205,-111 205,-94 138,-94"/>
<polygon fill="none" stroke="#0d3f04" points="138,-94 138,-111 205,-111 205,-94 138,-94"/>
<text text-anchor="start" x="141" y="-100" font-family="Helvetica,sans-Serif" font-size="10.00" fill="#ffffff">◎ ENABLED</text>
</g>
<!-- key_s&#45;&gt;static -->
<g id="edge6" class="edge"><title>key_s:OUT_OUT:e&#45;&gt;static:IN_ENABLED:w</title>
<path fill="none" stroke="#89594c" stroke-width="2" d="M81,-102C104.431,-102 111.318,-102 132.81,-102"/>
<ellipse fill="#89594c" stroke="#89594c" stroke-width="2" cx="135" cy="-102" rx="2" ry="2"/>
</g>
<!-- Boolean -->
<g id="node4" class="node"><title>Boolean</title>
<polygon fill="#471ca4" stroke="none" points="263,-21 263,-50 320,-50 320,-21 263,-21"/>
<polygon fill="none" stroke="#1d0b45" points="263,-21 263,-50 320,-50 320,-21 263,-21"/>
<text text-anchor="start" x="266.5" y="-36.3" font-family="Helvetica,sans-Serif" font-size="14.00" fill="#ffffff">Boolean</text>
<text text-anchor="start" x="277.5" y="-27.1" font-family="Helvetica,sans-Serif" font-size="8.00" fill="#ffffff">console</text>
<polygon fill="#35157b" stroke="none" points="263,-4 263,-21 320,-21 320,-4 263,-4"/>
<polygon fill="none" stroke="#1d0b45" points="263,-4 263,-21 320,-21 320,-4 263,-4"/>
<text text-anchor="start" x="266" y="-10" font-family="Helvetica,sans-Serif" font-size="10.00" fill="#ffffff">◎ IN</text>
</g>
<!-- boolean&#45;&gt;Boolean -->
<g id="edge2" class="edge"><title>boolean:OUT_OUT:e&#45;&gt;Boolean:IN_IN:w</title>
<path fill="none" stroke="#5d2dda" stroke-width="2" d="M211,-12C232.25,-12 238.559,-12 257.941,-12"/>
<ellipse fill="#5d2dda" stroke="#5d2dda" stroke-width="2" cx="260" cy="-12" rx="2" ry="2"/>
</g>
<!-- drange -->
<g id="node5" class="node"><title>drange</title>
<polygon fill="#22960c" stroke="none" points="12,-183 12,-212 76,-212 76,-183 12,-183"/>
<polygon fill="none" stroke="#0d3f04" points="12,-183 12,-212 76,-212 76,-183 12,-183"/>
<text text-anchor="start" x="22.5" y="-198.3" font-family="Helvetica,sans-Serif" font-size="14.00" fill="#ffffff">drange</text>
<text text-anchor="start" x="15.5" y="-189.1" font-family="Helvetica,sans-Serif" font-size="8.00" fill="#ffffff">http&#45;server/float</text>
<polygon fill="#125406" stroke="none" points="12,-166 12,-183 76,-183 76,-166 12,-166"/>
<polygon fill="none" stroke="#0d3f04" points="12,-166 12,-183 76,-183 76,-166 12,-166"/>
<text text-anchor="start" x="40" y="-172" font-family="Helvetica,sans-Serif" font-size="10.00" fill="#ffffff">OUT ◉</text>
</g>
<!-- Float -->
<g id="node6" class="node"><title>Float</title>
<polygon fill="#471ca4" stroke="none" points="152,-183 152,-212 190,-212 190,-183 152,-183"/>
<polygon fill="none" stroke="#1d0b45" points="152,-183 152,-212 190,-212 190,-183 152,-183"/>
<text text-anchor="start" x="155.5" y="-198.3" font-family="Helvetica,sans-Serif" font-size="14.00" fill="#ffffff">Float</text>
<text text-anchor="start" x="157" y="-189.1" font-family="Helvetica,sans-Serif" font-size="8.00" fill="#ffffff">console</text>
<polygon fill="#35157b" stroke="none" points="152,-166 152,-183 190,-183 190,-166 152,-166"/>
<polygon fill="none" stroke="#1d0b45" points="152,-166 152,-183 190,-183 190,-166 152,-166"/>
<text text-anchor="start" x="155" y="-172" font-family="Helvetica,sans-Serif" font-size="10.00" fill="#ffffff">◎ IN</text>
</g>
<!-- drange&#45;&gt;Float -->
<g id="edge3" class="edge"><title>drange:OUT_OUT:e&#45;&gt;Float:IN_IN:w</title>
<path fill="none" stroke="#b2b986" stroke-width="2" d="M77,-174C108.476,-174 117.359,-174 146.893,-174"/>
<ellipse fill="#b2b986" stroke="#b2b986" stroke-width="2" cx="149" cy="-174" rx="2" ry="2"/>
</g>
<!-- irange -->
<g id="node7" class="node"><title>irange</title>
<polygon fill="#22960c" stroke="none" points="16,-255 16,-284 73,-284 73,-255 16,-255"/>
<polygon fill="none" stroke="#0d3f04" points="16,-255 16,-284 73,-284 73,-255 16,-255"/>
<text text-anchor="start" x="25.5" y="-270.3" font-family="Helvetica,sans-Serif" font-size="14.00" fill="#ffffff">irange</text>
<text text-anchor="start" x="19.5" y="-261.1" font-family="Helvetica,sans-Serif" font-size="8.00" fill="#ffffff">http&#45;server/int</text>
<polygon fill="#125406" stroke="none" points="16,-238 16,-255 73,-255 73,-238 16,-238"/>
<polygon fill="none" stroke="#0d3f04" points="16,-238 16,-255 73,-255 73,-238 16,-238"/>
<text text-anchor="start" x="37" y="-244" font-family="Helvetica,sans-Serif" font-size="10.00" fill="#ffffff">OUT ◉</text>
</g>
<!-- Int -->
<g id="node8" class="node"><title>Int</title>
<polygon fill="#471ca4" stroke="none" points="154,-255 154,-284 189,-284 189,-255 154,-255"/>
<polygon fill="none" stroke="#1d0b45" points="154,-255 154,-284 189,-284 189,-255 154,-255"/>
<text text-anchor="start" x="163.5" y="-270.3" font-family="Helvetica,sans-Serif" font-size="14.00" fill="#ffffff">Int</text>
<text text-anchor="start" x="157.5" y="-261.1" font-family="Helvetica,sans-Serif" font-size="8.00" fill="#ffffff">console</text>
<polygon fill="#35157b" stroke="none" points="154,-238 154,-255 189,-255 189,-238 154,-238"/>
<polygon fill="none" stroke="#1d0b45" points="154,-238 154,-255 189,-255 189,-238 154,-238"/>
<text text-anchor="start" x="157" y="-244" font-family="Helvetica,sans-Serif" font-size="10.00" fill="#ffffff">◎ IN</text>
</g>
<!-- irange&#45;&gt;Int -->
<g id="edge4" class="edge"><title>irange:OUT_OUT:e&#45;&gt;Int:IN_IN:w</title>
<path fill="none" stroke="#56b608" stroke-width="2" d="M74,-246C107.602,-246 117.086,-246 148.616,-246"/>
<ellipse fill="#56b608" stroke="#56b608" stroke-width="2" cx="151" cy="-246" rx="2" ry="2"/>
</g>
<!-- string -->
<g id="node9" class="node"><title>string</title>
<polygon fill="#22960c" stroke="none" points="10,-327 10,-356 78,-356 78,-327 10,-327"/>
<polygon fill="none" stroke="#0d3f04" points="10,-327 10,-356 78,-356 78,-327 10,-327"/>
<text text-anchor="start" x="27" y="-342.3" font-family="Helvetica,sans-Serif" font-size="14.00" fill="#ffffff">string</text>
<text text-anchor="start" x="13.5" y="-333.1" font-family="Helvetica,sans-Serif" font-size="8.00" fill="#ffffff">http&#45;server/string</text>
<polygon fill="#125406" stroke="none" points="10,-310 10,-327 78,-327 78,-310 10,-310"/>
<polygon fill="none" stroke="#0d3f04" points="10,-310 10,-327 78,-327 78,-310 10,-310"/>
<text text-anchor="start" x="42" y="-316" font-family="Helvetica,sans-Serif" font-size="10.00" fill="#ffffff">OUT ◉</text>
</g>
<!-- String -->
<g id="node10" class="node"><title>String</title>
<polygon fill="#471ca4" stroke="none" points="150,-327 150,-356 193,-356 193,-327 150,-327"/>
<polygon fill="none" stroke="#1d0b45" points="150,-327 150,-356 193,-356 193,-327 150,-327"/>
<text text-anchor="start" x="153.5" y="-342.3" font-family="Helvetica,sans-Serif" font-size="14.00" fill="#ffffff">String</text>
<text text-anchor="start" x="157.5" y="-333.1" font-family="Helvetica,sans-Serif" font-size="8.00" fill="#ffffff">console</text>
<polygon fill="#35157b" stroke="none" points="150,-310 150,-327 193,-327 193,-310 150,-310"/>
<polygon fill="none" stroke="#1d0b45" points="150,-310 150,-327 193,-327 193,-310 150,-310"/>
<text text-anchor="start" x="153" y="-316" font-family="Helvetica,sans-Serif" font-size="10.00" fill="#ffffff">◎ IN</text>
</g>
<!-- string&#45;&gt;String -->
<g id="edge5" class="edge"><title>string:OUT_OUT:e&#45;&gt;String:IN_IN:w</title>
<path fill="none" stroke="#57631f" stroke-width="2" d="M79,-318C108.653,-318 117.108,-318 144.774,-318"/>
<ellipse fill="#57631f" stroke="#57631f" stroke-width="2" cx="147" cy="-318" rx="2" ry="2"/>
</g>
</g>
</svg>
