<?xml version="1.0" encoding="UTF-8" standalone="no"?>
<!DOCTYPE svg PUBLIC "-//W3C//DTD SVG 1.1//EN"
 "http://www.w3.org/Graphics/SVG/1.1/DTD/svg11.dtd">
<!-- Generated by graphviz version 2.36.0 (20140111.2315)
 -->
<!-- Title: fbp Pages: 1 -->
<svg width="332pt" height="79pt"
 viewBox="0.00 0.00 332.00 79.00" xmlns="http://www.w3.org/2000/svg" xmlns:xlink="http://www.w3.org/1999/xlink">
<g id="graph0" class="graph" transform="scale(1 1) rotate(0) translate(4 75)">
<title>fbp</title>
<polygon fill="white" stroke="none" points="-4,4 -4,-75 328,-75 328,4 -4,4"/>
<!-- keyboard -->
<g id="node1" class="node"><title>keyboard</title>
<polygon fill="#46b19c" stroke="none" points="9,-38 9,-67 80,-67 80,-38 9,-38"/>
<polygon fill="none" stroke="#1d4a41" points="9,-38 9,-67 80,-67 80,-38 9,-38"/>
<text text-anchor="start" x="16.5" y="-53.3" font-family="Helvetica,sans-Serif" font-size="14.00" fill="#000000">keyboard</text>
<text text-anchor="start" x="12.5" y="-44.1" font-family="Helvetica,sans-Serif" font-size="8.00" fill="#000000">keyboard/boolean</text>
<polygon fill="#276357" stroke="none" points="9,-21 9,-38 80,-38 80,-21 9,-21"/>
<polygon fill="none" stroke="#1d4a41" points="9,-21 9,-38 80,-38 80,-21 9,-21"/>
<text text-anchor="start" x="44" y="-27" font-family="Helvetica,sans-Serif" font-size="10.00" fill="#ffffff">OUT ◉</text>
</g>
<!-- boolean -->
<g id="node2" class="node"><title>boolean</title>
<polygon fill="#22960c" stroke="none" points="133,-38 133,-67 210,-67 210,-38 133,-38"/>
<polygon fill="none" stroke="#0d3f04" points="133,-38 133,-67 210,-67 210,-38 133,-38"/>
<text text-anchor="start" x="147" y="-53.3" font-family="Helvetica,sans-Serif" font-size="14.00" fill="#ffffff">boolean</text>
<text text-anchor="start" x="136.5" y="-44.1" font-family="Helvetica,sans-Serif" font-size="8.00" fill="#ffffff">http&#45;server/boolean</text>
<polygon fill="#197009" stroke="none" points="133,-21 133,-38 210,-38 210,-21 133,-21"/>
<polygon fill="none" stroke="#0d3f04" points="133,-21 133,-38 210,-38 210,-21 133,-21"/>
<text text-anchor="start" x="136" y="-27" font-family="Helvetica,sans-Serif" font-size="10.00" fill="#ffffff">◎ IN</text>
<polygon fill="#125406" stroke="none" points="133,-4 133,-21 210,-21 210,-4 133,-4"/>
<polygon fill="none" stroke="#0d3f04" points="133,-4 133,-21 210,-21 210,-4 133,-4"/>
<text text-anchor="start" x="174" y="-10" font-family="Helvetica,sans-Serif" font-size="10.00" fill="#ffffff">OUT ◉</text>
</g>
<!-- keyboard&#45;&gt;boolean -->
<g id="edge1" class="edge"><title>keyboard:OUT_OUT:e&#45;&gt;boolean:IN_IN:w</title>
<path fill="none" stroke="#d76dde" stroke-width="2" d="M81,-29C102.25,-29 108.559,-29 127.941,-29"/>
<ellipse fill="#d76dde" stroke="#d76dde" stroke-width="2" cx="130" cy="-29" rx="2" ry="2"/>
</g>
<!-- console -->
<g id="node3" class="node"><title>console</title>
<polygon fill="#471ca4" stroke="none" points="262,-21 262,-50 316,-50 316,-21 262,-21"/>
<polygon fill="none" stroke="#1d0b45" points="262,-21 262,-50 316,-50 316,-21 262,-21"/>
<text text-anchor="start" x="265.5" y="-36.3" font-family="Helvetica,sans-Serif" font-size="14.00" fill="#ffffff">console</text>
<text text-anchor="start" x="275" y="-27.1" font-family="Helvetica,sans-Serif" font-size="8.00" fill="#ffffff">console</text>
<polygon fill="#35157b" stroke="none" points="262,-4 262,-21 316,-21 316,-4 262,-4"/>
<polygon fill="none" stroke="#1d0b45" points="262,-4 262,-21 316,-21 316,-4 262,-4"/>
<text text-anchor="start" x="265" y="-10" font-family="Helvetica,sans-Serif" font-size="10.00" fill="#ffffff">◎ IN</text>
</g>
<!-- boolean&#45;&gt;console -->
<g id="edge2" class="edge"><title>boolean:OUT_OUT:e&#45;&gt;console:IN_IN:w</title>
<path fill="none" stroke="#c4aa0a" stroke-width="2" d="M211,-12C231.66,-12 237.914,-12 256.548,-12"/>
<ellipse fill="#c4aa0a" stroke="#c4aa0a" stroke-width="2" cx="259" cy="-12" rx="2" ry="2"/>
</g>
</g>
</svg>
