<?xml version="1.0" encoding="UTF-8" standalone="no"?>
<!DOCTYPE svg PUBLIC "-//W3C//DTD SVG 1.1//EN"
 "http://www.w3.org/Graphics/SVG/1.1/DTD/svg11.dtd">
<!-- Generated by graphviz version 2.36.0 (20140111.2315)
 -->
<!-- Title: fbp Pages: 1 -->
<svg width="178pt" height="134pt"
 viewBox="0.00 0.00 178.00 134.00" xmlns="http://www.w3.org/2000/svg" xmlns:xlink="http://www.w3.org/1999/xlink">
<g id="graph0" class="graph" transform="scale(1 1) rotate(0) translate(4 130)">
<title>fbp</title>
<polygon fill="white" stroke="none" points="-4,4 -4,-130 174,-130 174,4 -4,4"/>
<!-- irange -->
<g id="node1" class="node"><title>irange</title>
<polygon fill="#22960c" stroke="none" points="12,-21 12,-50 69,-50 69,-21 12,-21"/>
<polygon fill="none" stroke="#0d3f04" points="12,-21 12,-50 69,-50 69,-21 12,-21"/>
<text text-anchor="start" x="21.5" y="-36.3" font-family="Helvetica,sans-Serif" font-size="14.00" fill="#ffffff">irange</text>
<text text-anchor="start" x="15.5" y="-27.1" font-family="Helvetica,sans-Serif" font-size="8.00" fill="#ffffff">http&#45;server/int</text>
<polygon fill="#125406" stroke="none" points="12,-4 12,-21 69,-21 69,-4 12,-4"/>
<polygon fill="none" stroke="#0d3f04" points="12,-4 12,-21 69,-21 69,-4 12,-4"/>
<text text-anchor="start" x="33" y="-10" font-family="Helvetica,sans-Serif" font-size="10.00" fill="#ffffff">OUT ◉</text>
</g>
<!-- Int -->
<g id="node2" class="node"><title>Int</title>
<polygon fill="#471ca4" stroke="none" points="126,-21 126,-50 161,-50 161,-21 126,-21"/>
<polygon fill="none" stroke="#1d0b45" points="126,-21 126,-50 161,-50 161,-21 126,-21"/>
<text text-anchor="start" x="135.5" y="-36.3" font-family="Helvetica,sans-Serif" font-size="14.00" fill="#ffffff">Int</text>
<text text-anchor="start" x="129.5" y="-27.1" font-family="Helvetica,sans-Serif" font-size="8.00" fill="#ffffff">console</text>
<polygon fill="#35157b" stroke="none" points="126,-4 126,-21 161,-21 161,-4 126,-4"/>
<polygon fill="none" stroke="#1d0b45" points="126,-4 126,-21 161,-21 161,-4 126,-4"/>
<text text-anchor="start" x="129" y="-10" font-family="Helvetica,sans-Serif" font-size="10.00" fill="#ffffff">◎ IN</text>
</g>
<!-- irange&#45;&gt;Int -->
<g id="edge1" class="edge"><title>irange:OUT:e&#45;&gt;Int:IN:w</title>
<path fill="none" stroke="#5f4190" stroke-width="2" d="M70,-12C93.0122,-12 99.7765,-12 120.885,-12"/>
<ellipse fill="#5f4190" stroke="#5f4190" stroke-width="2" cx="123" cy="-12" rx="2" ry="2"/>
</g>
<!-- drange -->
<g id="node3" class="node"><title>drange</title>
<polygon fill="#22960c" stroke="none" points="8,-93 8,-122 72,-122 72,-93 8,-93"/>
<polygon fill="none" stroke="#0d3f04" points="8,-93 8,-122 72,-122 72,-93 8,-93"/>
<text text-anchor="start" x="18.5" y="-108.3" font-family="Helvetica,sans-Serif" font-size="14.00" fill="#ffffff">drange</text>
<text text-anchor="start" x="11.5" y="-99.1" font-family="Helvetica,sans-Serif" font-size="8.00" fill="#ffffff">http&#45;server/float</text>
<polygon fill="#125406" stroke="none" points="8,-76 8,-93 72,-93 72,-76 8,-76"/>
<polygon fill="none" stroke="#0d3f04" points="8,-76 8,-93 72,-93 72,-76 8,-76"/>
<text text-anchor="start" x="36" y="-82" font-family="Helvetica,sans-Serif" font-size="10.00" fill="#ffffff">OUT ◉</text>
</g>
<!-- Float -->
<g id="node4" class="node"><title>Float</title>
<polygon fill="#471ca4" stroke="none" points="124,-93 124,-122 162,-122 162,-93 124,-93"/>
<polygon fill="none" stroke="#1d0b45" points="124,-93 124,-122 162,-122 162,-93 124,-93"/>
<text text-anchor="start" x="127.5" y="-108.3" font-family="Helvetica,sans-Serif" font-size="14.00" fill="#ffffff">Float</text>
<text text-anchor="start" x="129" y="-99.1" font-family="Helvetica,sans-Serif" font-size="8.00" fill="#ffffff">console</text>
<polygon fill="#35157b" stroke="none" points="124,-76 124,-93 162,-93 162,-76 124,-76"/>
<polygon fill="none" stroke="#1d0b45" points="124,-76 124,-93 162,-93 162,-76 124,-76"/>
<text text-anchor="start" x="127" y="-82" font-family="Helvetica,sans-Serif" font-size="10.00" fill="#ffffff">◎ IN</text>
</g>
<!-- drange&#45;&gt;Float -->
<g id="edge2" class="edge"><title>drange:OUT:e&#45;&gt;Float:IN:w</title>
<path fill="none" stroke="#bb4e1e" stroke-width="2" d="M73,-84C93.6597,-84 99.9141,-84 118.548,-84"/>
<ellipse fill="#bb4e1e" stroke="#bb4e1e" stroke-width="2" cx="121" cy="-84" rx="2" ry="2"/>
</g>
</g>
</svg>
