<?xml version="1.0" encoding="UTF-8" standalone="no"?>
<!DOCTYPE svg PUBLIC "-//W3C//DTD SVG 1.1//EN"
 "http://www.w3.org/Graphics/SVG/1.1/DTD/svg11.dtd">
<!-- Generated by graphviz version 2.36.0 (20140111.2315)
 -->
<!-- Title: fbp Pages: 1 -->
<svg width="194pt" height="62pt"
 viewBox="0.00 0.00 194.00 62.00" xmlns="http://www.w3.org/2000/svg" xmlns:xlink="http://www.w3.org/1999/xlink">
<g id="graph0" class="graph" transform="scale(1 1) rotate(0) translate(4 58)">
<title>fbp</title>
<polygon fill="white" stroke="none" points="-4,4 -4,-58 190,-58 190,4 -4,4"/>
<!-- drange -->
<g id="node1" class="node"><title>drange</title>
<polygon fill="#22960c" stroke="none" points="8,-21 8,-50 72,-50 72,-21 8,-21"/>
<polygon fill="none" stroke="#0d3f04" points="8,-21 8,-50 72,-50 72,-21 8,-21"/>
<text text-anchor="start" x="18.5" y="-36.3" font-family="Helvetica,sans-Serif" font-size="14.00" fill="#ffffff">drange</text>
<text text-anchor="start" x="11.5" y="-27.1" font-family="Helvetica,sans-Serif" font-size="8.00" fill="#ffffff">http&#45;server/float</text>
<polygon fill="#125406" stroke="none" points="8,-4 8,-21 72,-21 72,-4 8,-4"/>
<polygon fill="none" stroke="#0d3f04" points="8,-4 8,-21 72,-21 72,-4 8,-4"/>
<text text-anchor="start" x="36" y="-10" font-family="Helvetica,sans-Serif" font-size="10.00" fill="#ffffff">OUT ◉</text>
</g>
<!-- console -->
<g id="node2" class="node"><title>console</title>
<polygon fill="#471ca4" stroke="none" points="124,-21 124,-50 178,-50 178,-21 124,-21"/>
<polygon fill="none" stroke="#1d0b45" points="124,-21 124,-50 178,-50 178,-21 124,-21"/>
<text text-anchor="start" x="127.5" y="-36.3" font-family="Helvetica,sans-Serif" font-size="14.00" fill="#ffffff">console</text>
<text text-anchor="start" x="137" y="-27.1" font-family="Helvetica,sans-Serif" font-size="8.00" fill="#ffffff">console</text>
<polygon fill="#35157b" stroke="none" points="124,-4 124,-21 178,-21 178,-4 124,-4"/>
<polygon fill="none" stroke="#1d0b45" points="124,-4 124,-21 178,-21 178,-4 124,-4"/>
<text text-anchor="start" x="127" y="-10" font-family="Helvetica,sans-Serif" font-size="10.00" fill="#ffffff">◎ IN</text>
</g>
<!-- drange&#45;&gt;console -->
<g id="edge1" class="edge"><title>drange:OUT_OUT:e&#45;&gt;console:IN_IN:w</title>
<path fill="none" stroke="#bc1c96" stroke-width="2" d="M73,-12C93.6597,-12 99.9141,-12 118.548,-12"/>
<ellipse fill="#bc1c96" stroke="#bc1c96" stroke-width="2" cx="121" cy="-12" rx="2" ry="2"/>
</g>
</g>
</svg>
