<?xml version="1.0" encoding="UTF-8" standalone="no"?>
<!DOCTYPE svg PUBLIC "-//W3C//DTD SVG 1.1//EN"
 "http://www.w3.org/Graphics/SVG/1.1/DTD/svg11.dtd">
<!-- Generated by graphviz version 2.36.0 (20140111.2315)
 -->
<!-- Title: fbp Pages: 1 -->
<svg width="188pt" height="62pt"
 viewBox="0.00 0.00 188.00 62.00" xmlns="http://www.w3.org/2000/svg" xmlns:xlink="http://www.w3.org/1999/xlink">
<g id="graph0" class="graph" transform="scale(1 1) rotate(0) translate(4 58)">
<title>fbp</title>
<polygon fill="white" stroke="none" points="-4,4 -4,-58 184,-58 184,4 -4,4"/>
<!-- irange -->
<g id="node1" class="node"><title>irange</title>
<polygon fill="#22960c" stroke="none" points="9,-21 9,-50 66,-50 66,-21 9,-21"/>
<polygon fill="none" stroke="#0d3f04" points="9,-21 9,-50 66,-50 66,-21 9,-21"/>
<text text-anchor="start" x="18.5" y="-36.3" font-family="Helvetica,sans-Serif" font-size="14.00" fill="#ffffff">irange</text>
<text text-anchor="start" x="12.5" y="-27.1" font-family="Helvetica,sans-Serif" font-size="8.00" fill="#ffffff">http&#45;server/int</text>
<polygon fill="#125406" stroke="none" points="9,-4 9,-21 66,-21 66,-4 9,-4"/>
<polygon fill="none" stroke="#0d3f04" points="9,-4 9,-21 66,-21 66,-4 9,-4"/>
<text text-anchor="start" x="30" y="-10" font-family="Helvetica,sans-Serif" font-size="10.00" fill="#ffffff">OUT ◉</text>
</g>
<!-- console -->
<g id="node2" class="node"><title>console</title>
<polygon fill="#471ca4" stroke="none" points="118,-21 118,-50 172,-50 172,-21 118,-21"/>
<polygon fill="none" stroke="#1d0b45" points="118,-21 118,-50 172,-50 172,-21 118,-21"/>
<text text-anchor="start" x="121.5" y="-36.3" font-family="Helvetica,sans-Serif" font-size="14.00" fill="#ffffff">console</text>
<text text-anchor="start" x="131" y="-27.1" font-family="Helvetica,sans-Serif" font-size="8.00" fill="#ffffff">console</text>
<polygon fill="#35157b" stroke="none" points="118,-4 118,-21 172,-21 172,-4 118,-4"/>
<polygon fill="none" stroke="#1d0b45" points="118,-4 118,-21 172,-21 172,-4 118,-4"/>
<text text-anchor="start" x="121" y="-10" font-family="Helvetica,sans-Serif" font-size="10.00" fill="#ffffff">◎ IN</text>
</g>
<!-- irange&#45;&gt;console -->
<g id="edge1" class="edge"><title>irange:OUT_OUT:e&#45;&gt;console:IN_IN:w</title>
<path fill="none" stroke="#5f4190" stroke-width="2" d="M67,-12C87.6597,-12 93.9141,-12 112.548,-12"/>
<ellipse fill="#5f4190" stroke="#5f4190" stroke-width="2" cx="115" cy="-12" rx="2" ry="2"/>
</g>
</g>
</svg>
