<?xml version="1.0" encoding="UTF-8" standalone="no"?>
<!DOCTYPE svg PUBLIC "-//W3C//DTD SVG 1.1//EN"
 "http://www.w3.org/Graphics/SVG/1.1/DTD/svg11.dtd">
<!-- Generated by graphviz version 2.36.0 (20140111.2315)
 -->
<!-- Title: fbp Pages: 1 -->
<svg width="216pt" height="62pt"
 viewBox="0.00 0.00 216.00 62.00" xmlns="http://www.w3.org/2000/svg" xmlns:xlink="http://www.w3.org/1999/xlink">
<g id="graph0" class="graph" transform="scale(1 1) rotate(0) translate(4 58)">
<title>fbp</title>
<polygon fill="white" stroke="none" points="-4,4 -4,-58 212,-58 212,4 -4,4"/>
<!-- keyboard -->
<g id="node1" class="node"><title>keyboard</title>
<polygon fill="#46b19c" stroke="none" points="9,-21 9,-50 80,-50 80,-21 9,-21"/>
<polygon fill="none" stroke="#1d4a41" points="9,-21 9,-50 80,-50 80,-21 9,-21"/>
<text text-anchor="start" x="16.5" y="-36.3" font-family="Helvetica,sans-Serif" font-size="14.00" fill="#000000">keyboard</text>
<text text-anchor="start" x="12.5" y="-27.1" font-family="Helvetica,sans-Serif" font-size="8.00" fill="#000000">keyboard/boolean</text>
<polygon fill="#276357" stroke="none" points="9,-4 9,-21 80,-21 80,-4 9,-4"/>
<polygon fill="none" stroke="#1d4a41" points="9,-4 9,-21 80,-21 80,-4 9,-4"/>
<text text-anchor="start" x="44" y="-10" font-family="Helvetica,sans-Serif" font-size="10.00" fill="#ffffff">OUT ◉</text>
</g>
<!-- static -->
<g id="node2" class="node"><title>static</title>
<polygon fill="#22960c" stroke="none" points="133,-21 133,-50 200,-50 200,-21 133,-21"/>
<polygon fill="none" stroke="#0d3f04" points="133,-21 133,-50 200,-50 200,-21 133,-21"/>
<text text-anchor="start" x="150.5" y="-36.3" font-family="Helvetica,sans-Serif" font-size="14.00" fill="#ffffff">static</text>
<text text-anchor="start" x="136.5" y="-27.1" font-family="Helvetica,sans-Serif" font-size="8.00" fill="#ffffff">http&#45;server/static</text>
<polygon fill="#197009" stroke="none" points="133,-4 133,-21 200,-21 200,-4 133,-4"/>
<polygon fill="none" stroke="#0d3f04" points="133,-4 133,-21 200,-21 200,-4 133,-4"/>
<text text-anchor="start" x="136" y="-10" font-family="Helvetica,sans-Serif" font-size="10.00" fill="#ffffff">◎ ENABLED</text>
</g>
<!-- keyboard&#45;&gt;static -->
<g id="edge1" class="edge"><title>keyboard:OUT:e&#45;&gt;static:ENABLED:w</title>
<path fill="none" stroke="#920c08" stroke-width="2" d="M81,-12C102.25,-12 108.559,-12 127.941,-12"/>
<ellipse fill="#920c08" stroke="#920c08" stroke-width="2" cx="130" cy="-12" rx="2" ry="2"/>
</g>
</g>
</svg>
