<?xml version="1.0" encoding="UTF-8" standalone="no"?>
<!DOCTYPE svg PUBLIC "-//W3C//DTD SVG 1.1//EN"
 "http://www.w3.org/Graphics/SVG/1.1/DTD/svg11.dtd">
<!-- Generated by graphviz version 2.36.0 (20140111.2315)
 -->
<!-- Title: fbp Pages: 1 -->
<svg width="884pt" height="447pt"
 viewBox="0.00 0.00 884.00 446.92" xmlns="http://www.w3.org/2000/svg" xmlns:xlink="http://www.w3.org/1999/xlink">
<g id="graph0" class="graph" transform="scale(1 1) rotate(0) translate(4 442.919)">
<title>fbp</title>
<polygon fill="white" stroke="none" points="-4,4 -4,-442.919 880,-442.919 880,4 -4,4"/>
<!-- base_servo -->
<g id="node1" class="node"><title>base_servo</title>
<polygon fill="#6ffdfa" stroke="none" points="782,-93 782,-122 868,-122 868,-93 782,-93"/>
<polygon fill="none" stroke="#2e6969" points="782,-93 782,-122 868,-122 868,-93 782,-93"/>
<text text-anchor="start" x="790" y="-108.3" font-family="Helvetica,sans-Serif" font-size="14.00" fill="#000000">base_servo</text>
<text text-anchor="start" x="805" y="-99.1" font-family="Helvetica,sans-Serif" font-size="8.00" fill="#000000">BaseServo</text>
<polygon fill="#53bdbb" stroke="none" points="782,-76 782,-93 868,-93 868,-76 782,-76"/>
<polygon fill="none" stroke="#2e6969" points="782,-76 782,-93 868,-93 868,-76 782,-76"/>
<text text-anchor="start" x="785" y="-82" font-family="Helvetica,sans-Serif" font-size="10.00" fill="#000000">◎ DUTY_CYCLE</text>
</g>
<!-- top_servo -->
<g id="node2" class="node"><title>top_servo</title>
<polygon fill="#94e150" stroke="none" points="782,-261 782,-290 868,-290 868,-261 782,-261"/>
<polygon fill="none" stroke="#3e5e21" points="782,-261 782,-290 868,-290 868,-261 782,-261"/>
<text text-anchor="start" x="795" y="-276.3" font-family="Helvetica,sans-Serif" font-size="14.00" fill="#000000">top_servo</text>
<text text-anchor="start" x="807" y="-267.1" font-family="Helvetica,sans-Serif" font-size="8.00" fill="#000000">TopServo</text>
<polygon fill="#6fa83c" stroke="none" points="782,-244 782,-261 868,-261 868,-244 782,-244"/>
<polygon fill="none" stroke="#3e5e21" points="782,-244 782,-261 868,-261 868,-244 782,-244"/>
<text text-anchor="start" x="785" y="-250" font-family="Helvetica,sans-Serif" font-size="10.00" fill="#000000">◎ DUTY_CYCLE</text>
</g>
<!-- button -->
<g id="node3" class="node"><title>button</title>
<polygon fill="#a9679e" stroke="none" points="9,-184 9,-213 54,-213 54,-184 9,-184"/>
<polygon fill="none" stroke="#462a42" points="9,-184 9,-213 54,-213 54,-184 9,-184"/>
<text text-anchor="start" x="12.5" y="-199.3" font-family="Helvetica,sans-Serif" font-size="14.00" fill="#000000">button</text>
<text text-anchor="start" x="19.5" y="-190.1" font-family="Helvetica,sans-Serif" font-size="8.00" fill="#000000">Button</text>
<polygon fill="#5e3958" stroke="none" points="9,-167 9,-184 54,-184 54,-167 9,-167"/>
<polygon fill="none" stroke="#462a42" points="9,-167 9,-184 54,-184 54,-167 9,-167"/>
<text text-anchor="start" x="18" y="-173" font-family="Helvetica,sans-Serif" font-size="10.00" fill="#ffffff">OUT ◉</text>
</g>
<!-- button_filter -->
<g id="node10" class="node"><title>button_filter</title>
<polygon fill="#184294" stroke="none" points="106,-184 106,-213 184,-213 184,-184 106,-184"/>
<polygon fill="none" stroke="#091b3e" points="106,-184 106,-213 184,-213 184,-184 106,-184"/>
<text text-anchor="start" x="109.5" y="-199.3" font-family="Helvetica,sans-Serif" font-size="14.00" fill="#ffffff">button_filter</text>
<text text-anchor="start" x="122" y="-190.1" font-family="Helvetica,sans-Serif" font-size="8.00" fill="#ffffff">boolean/filter</text>
<polygon fill="#12316f" stroke="none" points="106,-167 106,-184 184,-184 184,-167 106,-167"/>
<polygon fill="none" stroke="#091b3e" points="106,-167 106,-184 184,-184 184,-167 106,-167"/>
<text text-anchor="start" x="109" y="-173" font-family="Helvetica,sans-Serif" font-size="10.00" fill="#ffffff">◎ IN</text>
<polygon fill="#0d2453" stroke="none" points="106,-150 106,-167 184,-167 184,-150 106,-150"/>
<polygon fill="none" stroke="#091b3e" points="106,-150 106,-167 184,-167 184,-150 106,-150"/>
<text text-anchor="start" x="141" y="-156" font-family="Helvetica,sans-Serif" font-size="10.00" fill="#ffffff">TRUE ◉</text>
</g>
<!-- button&#45;&gt;button_filter -->
<g id="edge7" class="edge"><title>button:OUT:e&#45;&gt;button_filter:IN:w</title>
<path fill="none" stroke="#01b59a" stroke-width="2" d="M55,-175C75.6597,-175 81.9141,-175 100.548,-175"/>
<ellipse fill="#01b59a" stroke="#01b59a" stroke-width="2" cx="103" cy="-175" rx="2" ry="2"/>
</g>
<!-- led -->
<g id="node4" class="node"><title>led</title>
<polygon fill="#859d66" stroke="none" points="641,-21 641,-50 670,-50 670,-21 641,-21"/>
<polygon fill="none" stroke="#37412a" points="641,-21 641,-50 670,-50 670,-21 641,-21"/>
<text text-anchor="start" x="646" y="-36.3" font-family="Helvetica,sans-Serif" font-size="14.00" fill="#000000">led</text>
<text text-anchor="start" x="648.5" y="-27.1" font-family="Helvetica,sans-Serif" font-size="8.00" fill="#000000">Led</text>
<polygon fill="#63754c" stroke="none" points="641,-4 641,-21 670,-21 670,-4 641,-4"/>
<polygon fill="none" stroke="#37412a" points="641,-4 641,-21 670,-21 670,-4 641,-4"/>
<text text-anchor="start" x="644" y="-10" font-family="Helvetica,sans-Serif" font-size="10.00" fill="#ffffff">◎ IN</text>
</g>
<!-- timer_top_servo -->
<g id="node5" class="node"><title>timer_top_servo</title>
<polygon fill="#7f2fae" stroke="none" points="236,-312 236,-341 302,-341 302,-312 236,-312"/>
<polygon fill="none" stroke="#351348" points="236,-312 236,-341 302,-341 302,-312 236,-312"/>
<text text-anchor="start" x="240.5" y="-327.3" font-family="Helvetica,sans-Serif" font-size="14.00" fill="#ffffff">🕐 Timer</text>
<text text-anchor="start" x="259.5" y="-318.1" font-family="Helvetica,sans-Serif" font-size="8.00" fill="#ffffff">timer</text>
<polygon fill="#5f2382" stroke="none" points="236,-295 236,-312 302,-312 302,-295 236,-295"/>
<polygon fill="none" stroke="#351348" points="236,-295 236,-312 302,-312 302,-295 236,-295"/>
<text text-anchor="start" x="239" y="-301" font-family="Helvetica,sans-Serif" font-size="10.00" fill="#ffffff">◎ ENABLED</text>
<polygon fill="#471a61" stroke="none" points="236,-278 236,-295 302,-295 302,-278 236,-278"/>
<polygon fill="none" stroke="#351348" points="236,-278 236,-295 302,-295 302,-278 236,-278"/>
<text text-anchor="start" x="266" y="-284" font-family="Helvetica,sans-Serif" font-size="10.00" fill="#ffffff">OUT ◉</text>
</g>
<!-- #anon:65:27 -->
<g id="node11" class="node"><title>#anon:65:27</title>
<polygon fill="#bd648a" stroke="none" points="355,-295 355,-317 528,-317 528,-295 355,-295"/>
<polygon fill="none" stroke="#4e2a39" points="355,-295 355,-317 528,-317 528,-295 355,-295"/>
<text text-anchor="start" x="358.5" y="-302.3" font-family="Helvetica,sans-Serif" font-size="14.00" fill="#000000">converter/empty&#45;to&#45;boolean</text>
<polygon fill="#8d4b67" stroke="none" points="355,-278 355,-295 528,-295 528,-278 355,-278"/>
<polygon fill="none" stroke="#4e2a39" points="355,-278 355,-295 528,-295 528,-278 355,-278"/>
<text text-anchor="start" x="358" y="-284" font-family="Helvetica,sans-Serif" font-size="10.00" fill="#ffffff">◎ IN</text>
<polygon fill="#69384d" stroke="none" points="355,-261 355,-278 528,-278 528,-261 355,-261"/>
<polygon fill="none" stroke="#4e2a39" points="355,-261 355,-278 528,-278 528,-261 355,-261"/>
<text text-anchor="start" x="492" y="-267" font-family="Helvetica,sans-Serif" font-size="10.00" fill="#ffffff">OUT ◉</text>
</g>
<!-- timer_top_servo&#45;&gt;#anon:65:27 -->
<g id="edge12" class="edge"><title>timer_top_servo:OUT:e&#45;&gt;#anon:65:27:IN:w</title>
<path fill="none" stroke="#3ffb1a" stroke-width="2" d="M303,-286C324.25,-286 330.559,-286 349.941,-286"/>
<ellipse fill="#3ffb1a" stroke="#3ffb1a" stroke-width="2" cx="352" cy="-286" rx="2" ry="2"/>
</g>
<!-- #anon:66:27 -->
<g id="node12" class="node"><title>#anon:66:27</title>
<polygon fill="#bd648a" stroke="none" points="355,-377 355,-399 528,-399 528,-377 355,-377"/>
<polygon fill="none" stroke="#4e2a39" points="355,-377 355,-399 528,-399 528,-377 355,-377"/>
<text text-anchor="start" x="358.5" y="-384.3" font-family="Helvetica,sans-Serif" font-size="14.00" fill="#000000">converter/empty&#45;to&#45;boolean</text>
<polygon fill="#8d4b67" stroke="none" points="355,-360 355,-377 528,-377 528,-360 355,-360"/>
<polygon fill="none" stroke="#4e2a39" points="355,-360 355,-377 528,-377 528,-360 355,-360"/>
<text text-anchor="start" x="358" y="-366" font-family="Helvetica,sans-Serif" font-size="10.00" fill="#ffffff">◎ IN</text>
<polygon fill="#69384d" stroke="none" points="355,-343 355,-360 528,-360 528,-343 355,-343"/>
<polygon fill="none" stroke="#4e2a39" points="355,-343 355,-360 528,-360 528,-343 355,-343"/>
<text text-anchor="start" x="492" y="-349" font-family="Helvetica,sans-Serif" font-size="10.00" fill="#ffffff">OUT ◉</text>
</g>
<!-- timer_top_servo&#45;&gt;#anon:66:27 -->
<g id="edge14" class="edge"><title>timer_top_servo:OUT:e&#45;&gt;#anon:66:27:IN:w</title>
<path fill="none" stroke="#714514" stroke-width="2" d="M303,-286C344.409,-286 313.435,-362.336 349.755,-367.703"/>
<ellipse fill="#714514" stroke="#714514" stroke-width="2" cx="352.005" cy="-367.86" rx="2" ry="2"/>
</g>
<!-- timer_reset -->
<g id="node6" class="node"><title>timer_reset</title>
<polygon fill="#7f2fae" stroke="none" points="236,-167 236,-196 302,-196 302,-167 236,-167"/>
<polygon fill="none" stroke="#351348" points="236,-167 236,-196 302,-196 302,-167 236,-167"/>
<text text-anchor="start" x="240.5" y="-182.3" font-family="Helvetica,sans-Serif" font-size="14.00" fill="#ffffff">🕐 Timer</text>
<text text-anchor="start" x="259.5" y="-173.1" font-family="Helvetica,sans-Serif" font-size="8.00" fill="#ffffff">timer</text>
<polygon fill="#5f2382" stroke="none" points="236,-150 236,-167 302,-167 302,-150 236,-150"/>
<polygon fill="none" stroke="#351348" points="236,-150 236,-167 302,-167 302,-150 236,-150"/>
<text text-anchor="start" x="239" y="-156" font-family="Helvetica,sans-Serif" font-size="10.00" fill="#ffffff">◎ ENABLED</text>
<polygon fill="#471a61" stroke="none" points="236,-133 236,-150 302,-150 302,-133 236,-133"/>
<polygon fill="none" stroke="#351348" points="236,-133 236,-150 302,-150 302,-133 236,-133"/>
<text text-anchor="start" x="266" y="-139" font-family="Helvetica,sans-Serif" font-size="10.00" fill="#ffffff">OUT ◉</text>
</g>
<!-- reset_empty_to_false -->
<g id="node13" class="node"><title>reset_empty_to_false</title>
<polygon fill="#bd648a" stroke="none" points="373,-167 373,-196 510,-196 510,-167 373,-167"/>
<polygon fill="none" stroke="#4e2a39" points="373,-167 373,-196 510,-196 510,-167 373,-167"/>
<text text-anchor="start" x="376.5" y="-182.3" font-family="Helvetica,sans-Serif" font-size="14.00" fill="#000000">reset_empty_to_false</text>
<text text-anchor="start" x="391.5" y="-173.1" font-family="Helvetica,sans-Serif" font-size="8.00" fill="#000000">converter/empty&#45;to&#45;boolean</text>
<polygon fill="#8d4b67" stroke="none" points="373,-150 373,-167 510,-167 510,-150 373,-150"/>
<polygon fill="none" stroke="#4e2a39" points="373,-150 373,-167 510,-167 510,-150 373,-150"/>
<text text-anchor="start" x="376" y="-156" font-family="Helvetica,sans-Serif" font-size="10.00" fill="#ffffff">◎ IN</text>
<polygon fill="#69384d" stroke="none" points="373,-133 373,-150 510,-150 510,-133 373,-133"/>
<polygon fill="none" stroke="#4e2a39" points="373,-133 373,-150 510,-150 510,-133 373,-133"/>
<text text-anchor="start" x="474" y="-139" font-family="Helvetica,sans-Serif" font-size="10.00" fill="#ffffff">OUT ◉</text>
</g>
<!-- timer_reset&#45;&gt;reset_empty_to_false -->
<g id="edge16" class="edge"><title>timer_reset:OUT:e&#45;&gt;reset_empty_to_false:IN:w</title>
<path fill="none" stroke="#ad5042" stroke-width="2" d="M303,-141C333.103,-141 339.813,-156.444 367.723,-157.891"/>
<ellipse fill="#ad5042" stroke="#ad5042" stroke-width="2" cx="370.001" cy="-157.949" rx="2" ry="2"/>
</g>
<!-- duty_cycle_base_servo -->
<g id="node7" class="node"><title>duty_cycle_base_servo</title>
<polygon fill="#bd648a" stroke="none" points="581,-110 581,-139 730,-139 730,-110 581,-110"/>
<polygon fill="none" stroke="#4e2a39" points="581,-110 581,-139 730,-139 730,-110 581,-110"/>
<text text-anchor="start" x="584.5" y="-125.3" font-family="Helvetica,sans-Serif" font-size="14.00" fill="#000000">duty_cycle_base_servo</text>
<text text-anchor="start" x="612.5" y="-116.1" font-family="Helvetica,sans-Serif" font-size="8.00" fill="#000000">converter/boolean&#45;to&#45;int</text>
<polygon fill="#8d4b67" stroke="none" points="581,-93 581,-110 730,-110 730,-93 581,-93"/>
<polygon fill="none" stroke="#4e2a39" points="581,-93 581,-110 730,-110 730,-93 581,-93"/>
<text text-anchor="start" x="584" y="-99" font-family="Helvetica,sans-Serif" font-size="10.00" fill="#ffffff">◎ IN</text>
<polygon fill="#69384d" stroke="none" points="581,-76 581,-93 730,-93 730,-76 581,-76"/>
<polygon fill="none" stroke="#4e2a39" points="581,-76 581,-93 730,-93 730,-76 581,-76"/>
<text text-anchor="start" x="694" y="-82" font-family="Helvetica,sans-Serif" font-size="10.00" fill="#ffffff">OUT ◉</text>
</g>
<!-- duty_cycle_base_servo&#45;&gt;base_servo -->
<g id="edge1" class="edge"><title>duty_cycle_base_servo:OUT:e&#45;&gt;base_servo:DUTY_CYCLE:w</title>
<path fill="none" stroke="#f447f0" stroke-width="2" d="M731,-84C751.66,-84 757.914,-84 776.548,-84"/>
<ellipse fill="#f447f0" stroke="#f447f0" stroke-width="2" cx="779" cy="-84" rx="2" ry="2"/>
</g>
<!-- duty_cycle_top_servo -->
<g id="node8" class="node"><title>duty_cycle_top_servo</title>
<polygon fill="#bd648a" stroke="none" points="586,-278 586,-307 724,-307 724,-278 586,-278"/>
<polygon fill="none" stroke="#4e2a39" points="586,-278 586,-307 724,-307 724,-278 586,-278"/>
<text text-anchor="start" x="589.5" y="-293.3" font-family="Helvetica,sans-Serif" font-size="14.00" fill="#000000">duty_cycle_top_servo</text>
<text text-anchor="start" x="612" y="-284.1" font-family="Helvetica,sans-Serif" font-size="8.00" fill="#000000">converter/boolean&#45;to&#45;int</text>
<polygon fill="#8d4b67" stroke="none" points="586,-261 586,-278 724,-278 724,-261 586,-261"/>
<polygon fill="none" stroke="#4e2a39" points="586,-261 586,-278 724,-278 724,-261 586,-261"/>
<text text-anchor="start" x="589" y="-267" font-family="Helvetica,sans-Serif" font-size="10.00" fill="#ffffff">◎ IN</text>
<polygon fill="#69384d" stroke="none" points="586,-244 586,-261 724,-261 724,-244 586,-244"/>
<polygon fill="none" stroke="#4e2a39" points="586,-244 586,-261 724,-261 724,-244 586,-244"/>
<text text-anchor="start" x="688" y="-250" font-family="Helvetica,sans-Serif" font-size="10.00" fill="#ffffff">OUT ◉</text>
</g>
<!-- duty_cycle_top_servo&#45;&gt;top_servo -->
<g id="edge2" class="edge"><title>duty_cycle_top_servo:OUT:e&#45;&gt;top_servo:DUTY_CYCLE:w</title>
<path fill="none" stroke="#d74e68" stroke-width="2" d="M725,-252C748.431,-252 755.318,-252 776.81,-252"/>
<ellipse fill="#d74e68" stroke="#d74e68" stroke-width="2" cx="779" cy="-252" rx="2" ry="2"/>
</g>
<!-- false -->
<g id="node9" class="node"><title>false</title>
<polygon fill="#e8ea7a" stroke="none" points="111,-284 111,-313 179,-313 179,-284 111,-284"/>
<polygon fill="none" stroke="#616233" points="111,-284 111,-313 179,-313 179,-284 111,-284"/>
<text text-anchor="start" x="130.5" y="-299.3" font-family="Helvetica,sans-Serif" font-size="14.00" fill="#000000">false</text>
<text text-anchor="start" x="114.5" y="-290.1" font-family="Helvetica,sans-Serif" font-size="8.00" fill="#000000">constant/boolean</text>
<polygon fill="#828344" stroke="none" points="111,-267 111,-284 179,-284 179,-267 111,-267"/>
<polygon fill="none" stroke="#616233" points="111,-267 111,-284 179,-284 179,-267 111,-267"/>
<text text-anchor="start" x="143" y="-273" font-family="Helvetica,sans-Serif" font-size="10.00" fill="#ffffff">OUT ◉</text>
</g>
<!-- false&#45;&gt;timer_top_servo -->
<g id="edge4" class="edge"><title>false:OUT:e&#45;&gt;timer_top_servo:ENABLED:w</title>
<path fill="none" stroke="#1befd0" stroke-width="2" d="M180,-275C205.93,-275 207.473,-300.021 230.736,-302.758"/>
<ellipse fill="#1befd0" stroke="#1befd0" stroke-width="2" cx="233.003" cy="-302.887" rx="2" ry="2"/>
</g>
<!-- false&#45;&gt;timer_reset -->
<g id="edge3" class="edge"><title>false:OUT:e&#45;&gt;timer_reset:ENABLED:w</title>
<path fill="none" stroke="#5551de" stroke-width="2" d="M180,-275C236,-275 180.508,-163.866 230.846,-158.222"/>
<ellipse fill="#5551de" stroke="#5551de" stroke-width="2" cx="233.003" cy="-158.107" rx="2" ry="2"/>
</g>
<!-- false&#45;&gt;duty_cycle_base_servo -->
<g id="edge5" class="edge"><title>false:OUT:e&#45;&gt;duty_cycle_base_servo:IN:w</title>
<path fill="none" stroke="#691208" stroke-width="2" d="M180,-275C201.791,-275 206.612,-269.172 228,-265 245.07,-261.671 522.497,-219.961 536,-209 575.14,-177.226 530.732,-105.088 575.969,-101.167"/>
<ellipse fill="#691208" stroke="#691208" stroke-width="2" cx="578.002" cy="-101.083" rx="2" ry="2"/>
</g>
<!-- false&#45;&gt;duty_cycle_top_servo -->
<g id="edge6" class="edge"><title>false:OUT:e&#45;&gt;duty_cycle_top_servo:IN:w</title>
<path fill="none" stroke="#27ac06" stroke-width="2" d="M180,-275C221.084,-275 197.684,-326.272 228,-354 271.121,-393.439 289.081,-398.767 346,-412 428.251,-431.122 467.289,-461.088 536,-412 589.491,-373.785 520.888,-273.436 580.861,-269.142"/>
<ellipse fill="#27ac06" stroke="#27ac06" stroke-width="2" cx="583.001" cy="-269.069" rx="2" ry="2"/>
</g>
<!-- button_filter&#45;&gt;led -->
<g id="edge11" class="edge"><title>button_filter:TRUE:e&#45;&gt;led:IN:w</title>
<path fill="none" stroke="#204b76" stroke-width="2" d="M442,-101C536.782,-93.6262 543.343,-14.3723 635.818,-12.052"/>
<ellipse fill="#204b76" stroke="#204b76" stroke-width="2" cx="638" cy="-12.0249" rx="2" ry="2"/>
<path fill="none" stroke="#204b76" stroke-width="2" d="M185,-158C210.504,-158 204.575,-130.086 228,-120 314.888,-82.5898 345.685,-108.337 440,-101"/>
</g>
<!-- button_filter&#45;&gt;timer_top_servo -->
<g id="edge10" class="edge"><title>button_filter:TRUE:e&#45;&gt;timer_top_servo:ENABLED:w</title>
<path fill="none" stroke="#0fe7de" stroke-width="2" d="M185,-158C251.704,-158 170.47,-296.836 230.817,-302.802"/>
<ellipse fill="#0fe7de" stroke="#0fe7de" stroke-width="2" cx="233.002" cy="-302.905" rx="2" ry="2"/>
</g>
<!-- button_filter&#45;&gt;timer_reset -->
<g id="edge9" class="edge"><title>button_filter:TRUE:e&#45;&gt;timer_reset:ENABLED:w</title>
<path fill="none" stroke="#4159d0" stroke-width="2" d="M185,-158C205.66,-158 211.914,-158 230.548,-158"/>
<ellipse fill="#4159d0" stroke="#4159d0" stroke-width="2" cx="233" cy="-158" rx="2" ry="2"/>
</g>
<!-- button_filter&#45;&gt;duty_cycle_base_servo -->
<g id="edge8" class="edge"><title>button_filter:TRUE:e&#45;&gt;duty_cycle_base_servo:IN:w</title>
<path fill="none" stroke="#12b852" stroke-width="2" d="M442,-101C501.715,-96.3543 517.914,-100.782 575.762,-100.992"/>
<ellipse fill="#12b852" stroke="#12b852" stroke-width="2" cx="578" cy="-100.996" rx="2" ry="2"/>
</g>
<!-- #anon:65:27&#45;&gt;duty_cycle_top_servo -->
<g id="edge13" class="edge"><title>#anon:65:27:OUT:e&#45;&gt;duty_cycle_top_servo:IN:w</title>
<path fill="none" stroke="#73a778" stroke-width="2" d="M529,-269C552.431,-269 559.318,-269 580.81,-269"/>
<ellipse fill="#73a778" stroke="#73a778" stroke-width="2" cx="583" cy="-269" rx="2" ry="2"/>
</g>
<!-- #anon:66:27&#45;&gt;timer_top_servo -->
<g id="edge15" class="edge"><title>#anon:66:27:OUT:e&#45;&gt;timer_top_servo:ENABLED:w</title>
<path fill="none" stroke="#6715ba" stroke-width="2" d="M529,-351C534.352,-351 531.837,-342.73 528,-339 513.478,-324.883 363.566,-339.08 346,-329 320.822,-314.551 335.565,-288.252 310,-274.5 281.036,-258.92 259.66,-251.655 236,-274.5 228.022,-282.203 223.536,-298.246 231.03,-302.136"/>
<ellipse fill="#6715ba" stroke="#6715ba" stroke-width="2" cx="233.046" cy="-302.575" rx="2.00001" ry="2.00001"/>
</g>
<!-- reset_empty_to_false&#45;&gt;led -->
<g id="edge19" class="edge"><title>reset_empty_to_false:OUT:e&#45;&gt;led:IN:w</title>
<path fill="none" stroke="#81285c" stroke-width="2" d="M511,-141C527.031,-141 525.849,-127.408 536,-115 576.307,-65.7298 575.022,-14.2612 635.899,-12.0724"/>
<ellipse fill="#81285c" stroke="#81285c" stroke-width="2" cx="638" cy="-12.0353" rx="2" ry="2"/>
</g>
<!-- reset_empty_to_false&#45;&gt;timer_reset -->
<g id="edge20" class="edge"><title>reset_empty_to_false:OUT:e&#45;&gt;timer_reset:ENABLED:w</title>
<path fill="none" stroke="#1752d1" stroke-width="2" d="M511,-141C516.13,-141 513.782,-132.967 510,-129.5 498.78,-119.213 246.951,-118.927 236,-129.5 228.022,-137.203 223.536,-153.246 231.03,-157.136"/>
<ellipse fill="#1752d1" stroke="#1752d1" stroke-width="2" cx="233.046" cy="-157.575" rx="2.00001" ry="2.00001"/>
</g>
<!-- reset_empty_to_false&#45;&gt;duty_cycle_base_servo -->
<g id="edge17" class="edge"><title>reset_empty_to_false:OUT:e&#45;&gt;duty_cycle_base_servo:IN:w</title>
<path fill="none" stroke="#eb52fc" stroke-width="2" d="M511,-141C544.924,-141 544.647,-104.364 575.632,-101.215"/>
<ellipse fill="#eb52fc" stroke="#eb52fc" stroke-width="2" cx="578.002" cy="-101.098" rx="2" ry="2"/>
</g>
<!-- reset_empty_to_false&#45;&gt;duty_cycle_top_servo -->
<g id="edge18" class="edge"><title>reset_empty_to_false:OUT:e&#45;&gt;duty_cycle_top_servo:IN:w</title>
<path fill="none" stroke="#004957" stroke-width="2" d="M511,-141C575.3,-141 521.699,-263.559 580.933,-268.825"/>
<ellipse fill="#004957" stroke="#004957" stroke-width="2" cx="583.002" cy="-268.914" rx="2" ry="2"/>
</g>
</g>
</svg>
