<?xml version="1.0" encoding="UTF-8" standalone="no"?>
<!DOCTYPE svg PUBLIC "-//W3C//DTD SVG 1.1//EN"
 "http://www.w3.org/Graphics/SVG/1.1/DTD/svg11.dtd">
<!-- Generated by graphviz version 2.36.0 (20140111.2315)
 -->
<!-- Title: fbp Pages: 1 -->
<svg width="536pt" height="274pt"
 viewBox="0.00 0.00 536.00 274.00" xmlns="http://www.w3.org/2000/svg" xmlns:xlink="http://www.w3.org/1999/xlink">
<g id="graph0" class="graph" transform="scale(1 1) rotate(0) translate(4 270)">
<title>fbp</title>
<polygon fill="white" stroke="none" points="-4,4 -4,-270 532,-270 532,4 -4,4"/>
<!-- timer -->
<g id="node1" class="node"><title>timer</title>
<polygon fill="#7f2fae" stroke="none" points="8,-144 8,-173 72,-173 72,-144 8,-144"/>
<polygon fill="none" stroke="#351348" points="8,-144 8,-173 72,-173 72,-144 8,-144"/>
<text text-anchor="start" x="11.5" y="-159.3" font-family="Helvetica,sans-Serif" font-size="14.00" fill="#ffffff">🕐 Timer</text>
<text text-anchor="start" x="30.5" y="-150.1" font-family="Helvetica,sans-Serif" font-size="8.00" fill="#ffffff">timer</text>
<polygon fill="#471a61" stroke="none" points="8,-127 8,-144 72,-144 72,-127 8,-127"/>
<polygon fill="none" stroke="#351348" points="8,-127 8,-144 72,-144 72,-127 8,-127"/>
<text text-anchor="start" x="36" y="-133" font-family="Helvetica,sans-Serif" font-size="10.00" fill="#ffffff">OUT ◉</text>
</g>
<!-- red_wave -->
<g id="node6" class="node"><title>red_wave</title>
<polygon fill="#503fc2" stroke="none" points="124,-233 124,-262 248,-262 248,-233 124,-233"/>
<polygon fill="none" stroke="#211a51" points="124,-233 124,-262 248,-262 248,-233 124,-233"/>
<text text-anchor="start" x="156.5" y="-248.3" font-family="Helvetica,sans-Serif" font-size="14.00" fill="#ffffff">red_wave</text>
<text text-anchor="start" x="127.5" y="-239.1" font-family="Helvetica,sans-Serif" font-size="8.00" fill="#ffffff">float/wave&#45;generator&#45;trapezoidal</text>
<polygon fill="#3c2f91" stroke="none" points="124,-216 124,-233 248,-233 248,-216 124,-216"/>
<polygon fill="none" stroke="#211a51" points="124,-216 124,-233 248,-233 248,-216 124,-216"/>
<text text-anchor="start" x="127" y="-222" font-family="Helvetica,sans-Serif" font-size="10.00" fill="#ffffff">◎ TICK</text>
<polygon fill="#2d236c" stroke="none" points="124,-199 124,-216 248,-216 248,-199 124,-199"/>
<polygon fill="none" stroke="#211a51" points="124,-199 124,-216 248,-216 248,-199 124,-199"/>
<text text-anchor="start" x="212" y="-205" font-family="Helvetica,sans-Serif" font-size="10.00" fill="#ffffff">OUT ◉</text>
</g>
<!-- timer&#45;&gt;red_wave -->
<g id="edge3" class="edge"><title>timer:OUT_OUT:e&#45;&gt;red_wave:IN_TICK:w</title>
<path fill="none" stroke="#49a326" stroke-width="2" d="M73,-135C116.953,-135 80.0918,-218.524 118.994,-223.745"/>
<ellipse fill="#49a326" stroke="#49a326" stroke-width="2" cx="121.004" cy="-223.873" rx="2" ry="2"/>
</g>
<!-- green_wave -->
<g id="node7" class="node"><title>green_wave</title>
<polygon fill="#503fc2" stroke="none" points="124,-144 124,-173 248,-173 248,-144 124,-144"/>
<polygon fill="none" stroke="#211a51" points="124,-144 124,-173 248,-173 248,-144 124,-144"/>
<text text-anchor="start" x="149" y="-159.3" font-family="Helvetica,sans-Serif" font-size="14.00" fill="#ffffff">green_wave</text>
<text text-anchor="start" x="127.5" y="-150.1" font-family="Helvetica,sans-Serif" font-size="8.00" fill="#ffffff">float/wave&#45;generator&#45;trapezoidal</text>
<polygon fill="#3c2f91" stroke="none" points="124,-127 124,-144 248,-144 248,-127 124,-127"/>
<polygon fill="none" stroke="#211a51" points="124,-127 124,-144 248,-144 248,-127 124,-127"/>
<text text-anchor="start" x="127" y="-133" font-family="Helvetica,sans-Serif" font-size="10.00" fill="#ffffff">◎ TICK</text>
<polygon fill="#2d236c" stroke="none" points="124,-110 124,-127 248,-127 248,-110 124,-110"/>
<polygon fill="none" stroke="#211a51" points="124,-110 124,-127 248,-127 248,-110 124,-110"/>
<text text-anchor="start" x="212" y="-116" font-family="Helvetica,sans-Serif" font-size="10.00" fill="#ffffff">OUT ◉</text>
</g>
<!-- timer&#45;&gt;green_wave -->
<g id="edge5" class="edge"><title>timer:OUT_OUT:e&#45;&gt;green_wave:IN_TICK:w</title>
<path fill="none" stroke="#9a6134" stroke-width="2" d="M73,-135C93.6597,-135 99.9141,-135 118.548,-135"/>
<ellipse fill="#9a6134" stroke="#9a6134" stroke-width="2" cx="121" cy="-135" rx="2" ry="2"/>
</g>
<!-- blue_wave -->
<g id="node8" class="node"><title>blue_wave</title>
<polygon fill="#503fc2" stroke="none" points="124,-55 124,-84 248,-84 248,-55 124,-55"/>
<polygon fill="none" stroke="#211a51" points="124,-55 124,-84 248,-84 248,-55 124,-55"/>
<text text-anchor="start" x="153.5" y="-70.3" font-family="Helvetica,sans-Serif" font-size="14.00" fill="#ffffff">blue_wave</text>
<text text-anchor="start" x="127.5" y="-61.1" font-family="Helvetica,sans-Serif" font-size="8.00" fill="#ffffff">float/wave&#45;generator&#45;trapezoidal</text>
<polygon fill="#3c2f91" stroke="none" points="124,-38 124,-55 248,-55 248,-38 124,-38"/>
<polygon fill="none" stroke="#211a51" points="124,-38 124,-55 248,-55 248,-38 124,-38"/>
<text text-anchor="start" x="127" y="-44" font-family="Helvetica,sans-Serif" font-size="10.00" fill="#ffffff">◎ TICK</text>
<polygon fill="#2d236c" stroke="none" points="124,-21 124,-38 248,-38 248,-21 124,-21"/>
<polygon fill="none" stroke="#211a51" points="124,-21 124,-38 248,-38 248,-21 124,-21"/>
<text text-anchor="start" x="212" y="-27" font-family="Helvetica,sans-Serif" font-size="10.00" fill="#ffffff">OUT ◉</text>
</g>
<!-- timer&#45;&gt;blue_wave -->
<g id="edge7" class="edge"><title>timer:OUT_OUT:e&#45;&gt;blue_wave:IN_TICK:w</title>
<path fill="none" stroke="#717a9f" stroke-width="2" d="M73,-135C116.953,-135 80.0918,-51.4756 118.994,-46.2553"/>
<ellipse fill="#717a9f" stroke="#717a9f" stroke-width="2" cx="121.004" cy="-46.1272" rx="2" ry="2"/>
</g>
<!-- converter -->
<g id="node2" class="node"><title>converter</title>
<polygon fill="#bd648a" stroke="none" points="301,-144 301,-173 384,-173 384,-144 301,-144"/>
<polygon fill="none" stroke="#4e2a39" points="301,-144 301,-173 384,-173 384,-144 301,-144"/>
<text text-anchor="start" x="314" y="-159.3" font-family="Helvetica,sans-Serif" font-size="14.00" fill="#000000">converter</text>
<text text-anchor="start" x="304.5" y="-150.1" font-family="Helvetica,sans-Serif" font-size="8.00" fill="#000000">converter/float&#45;to&#45;rgb</text>
<polygon fill="#8d4b67" stroke="none" points="301,-127 301,-144 384,-144 384,-127 301,-127"/>
<polygon fill="none" stroke="#4e2a39" points="301,-127 301,-144 384,-144 384,-127 301,-127"/>
<text text-anchor="start" x="304" y="-133" font-family="Helvetica,sans-Serif" font-size="10.00" fill="#ffffff">◎ RED</text>
<polygon fill="#8d4b67" stroke="none" points="301,-110 301,-127 384,-127 384,-110 301,-110"/>
<polygon fill="none" stroke="#4e2a39" points="301,-110 301,-127 384,-127 384,-110 301,-110"/>
<text text-anchor="start" x="304" y="-116" font-family="Helvetica,sans-Serif" font-size="10.00" fill="#ffffff">◎ GREEN</text>
<polygon fill="#8d4b67" stroke="none" points="301,-93 301,-110 384,-110 384,-93 301,-93"/>
<polygon fill="none" stroke="#4e2a39" points="301,-93 301,-110 384,-110 384,-93 301,-93"/>
<text text-anchor="start" x="304" y="-99" font-family="Helvetica,sans-Serif" font-size="10.00" fill="#ffffff">◎ BLUE</text>
<polygon fill="#69384d" stroke="none" points="301,-76 301,-93 384,-93 384,-76 301,-76"/>
<polygon fill="none" stroke="#4e2a39" points="301,-76 301,-93 384,-93 384,-76 301,-76"/>
<text text-anchor="start" x="348" y="-82" font-family="Helvetica,sans-Serif" font-size="10.00" fill="#ffffff">OUT ◉</text>
</g>
<!-- lcd -->
<g id="node3" class="node"><title>lcd</title>
<polygon fill="#05c9ea" stroke="none" points="437,-110 437,-139 520,-139 520,-110 437,-110"/>
<polygon fill="none" stroke="#015462" points="437,-110 437,-139 520,-139 520,-110 437,-110"/>
<text text-anchor="start" x="469.5" y="-125.3" font-family="Helvetica,sans-Serif" font-size="14.00" fill="#000000">lcd</text>
<text text-anchor="start" x="461" y="-116.1" font-family="Helvetica,sans-Serif" font-size="8.00" fill="#000000">LCDChar</text>
<polygon fill="#0396af" stroke="none" points="437,-93 437,-110 520,-110 520,-93 437,-93"/>
<polygon fill="none" stroke="#015462" points="437,-93 437,-110 520,-110 520,-93 437,-93"/>
<text text-anchor="start" x="440" y="-99" font-family="Helvetica,sans-Serif" font-size="10.00" fill="#ffffff">◎ PUT_STRING</text>
<polygon fill="#0396af" stroke="none" points="437,-76 437,-93 520,-93 520,-76 437,-76"/>
<polygon fill="none" stroke="#015462" points="437,-76 437,-93 520,-93 520,-76 437,-76"/>
<text text-anchor="start" x="440" y="-82" font-family="Helvetica,sans-Serif" font-size="10.00" fill="#ffffff">◎ COLOR</text>
</g>
<!-- converter&#45;&gt;lcd -->
<g id="edge9" class="edge"><title>converter:OUT_OUT:e&#45;&gt;lcd:IN_COLOR:w</title>
<path fill="none" stroke="#1f7e8c" stroke-width="2" d="M385,-84C406.25,-84 412.559,-84 431.941,-84"/>
<ellipse fill="#1f7e8c" stroke="#1f7e8c" stroke-width="2" cx="434" cy="-84" rx="2" ry="2"/>
</g>
<!-- initial_string -->
<g id="node4" class="node"><title>initial_string</title>
<polygon fill="#e8ea7a" stroke="none" points="303,-217 303,-246 382,-246 382,-217 303,-217"/>
<polygon fill="none" stroke="#616233" points="303,-217 303,-246 382,-246 382,-217 303,-217"/>
<text text-anchor="start" x="306.5" y="-232.3" font-family="Helvetica,sans-Serif" font-size="14.00" fill="#000000">initial_string</text>
<text text-anchor="start" x="316.5" y="-223.1" font-family="Helvetica,sans-Serif" font-size="8.00" fill="#000000">constant/string</text>
<polygon fill="#828344" stroke="none" points="303,-200 303,-217 382,-217 382,-200 303,-200"/>
<polygon fill="none" stroke="#616233" points="303,-200 303,-217 382,-217 382,-200 303,-200"/>
<text text-anchor="start" x="346" y="-206" font-family="Helvetica,sans-Serif" font-size="10.00" fill="#ffffff">OUT ◉</text>
</g>
<!-- initial_string&#45;&gt;lcd -->
<g id="edge1" class="edge"><title>initial_string:OUT_OUT:e&#45;&gt;lcd:IN_PUT_STRING:w</title>
<path fill="none" stroke="#3a16d0" stroke-width="2" d="M383,-208C434.619,-208 385.757,-106.772 431.881,-101.236"/>
<ellipse fill="#3a16d0" stroke="#3a16d0" stroke-width="2" cx="434.003" cy="-101.114" rx="2" ry="2"/>
</g>
<!-- initial_color -->
<g id="node5" class="node"><title>initial_color</title>
<polygon fill="#e8ea7a" stroke="none" points="305,-21 305,-50 380,-50 380,-21 305,-21"/>
<polygon fill="none" stroke="#616233" points="305,-21 305,-50 380,-50 380,-21 305,-21"/>
<text text-anchor="start" x="308.5" y="-36.3" font-family="Helvetica,sans-Serif" font-size="14.00" fill="#000000">initial_color</text>
<text text-anchor="start" x="320" y="-27.1" font-family="Helvetica,sans-Serif" font-size="8.00" fill="#000000">constant/rgb</text>
<polygon fill="#828344" stroke="none" points="305,-4 305,-21 380,-21 380,-4 305,-4"/>
<polygon fill="none" stroke="#616233" points="305,-4 305,-21 380,-21 380,-4 305,-4"/>
<text text-anchor="start" x="344" y="-10" font-family="Helvetica,sans-Serif" font-size="10.00" fill="#ffffff">OUT ◉</text>
</g>
<!-- initial_color&#45;&gt;lcd -->
<g id="edge2" class="edge"><title>initial_color:OUT_OUT:e&#45;&gt;lcd:IN_COLOR:w</title>
<path fill="none" stroke="#4228a4" stroke-width="2" d="M381,-12C419.853,-12 397.446,-79.0265 431.991,-83.7393"/>
<ellipse fill="#4228a4" stroke="#4228a4" stroke-width="2" cx="434.004" cy="-83.8702" rx="2" ry="2"/>
</g>
<!-- red_wave&#45;&gt;converter -->
<g id="edge4" class="edge"><title>red_wave:OUT_OUT:e&#45;&gt;converter:IN_RED:w</title>
<path fill="none" stroke="#88680a" stroke-width="2" d="M249,-207C286.335,-207 263.134,-141.439 295.739,-136.317"/>
<ellipse fill="#88680a" stroke="#88680a" stroke-width="2" cx="298.005" cy="-136.148" rx="2" ry="2"/>
</g>
<!-- green_wave&#45;&gt;converter -->
<g id="edge6" class="edge"><title>green_wave:OUT_OUT:e&#45;&gt;converter:IN_GREEN:w</title>
<path fill="none" stroke="#518210" stroke-width="2" d="M249,-118C270.25,-118 276.559,-118 295.941,-118"/>
<ellipse fill="#518210" stroke="#518210" stroke-width="2" cx="298" cy="-118" rx="2" ry="2"/>
</g>
<!-- blue_wave&#45;&gt;converter -->
<g id="edge8" class="edge"><title>blue_wave:OUT_OUT:e&#45;&gt;converter:IN_BLUE:w</title>
<path fill="none" stroke="#df3bd8" stroke-width="2" d="M249,-29C286.683,-29 262.827,-95.4849 295.702,-100.679"/>
<ellipse fill="#df3bd8" stroke="#df3bd8" stroke-width="2" cx="298.006" cy="-100.851" rx="2" ry="2"/>
</g>
</g>
</svg>
