<?xml version="1.0" encoding="UTF-8" standalone="no"?>
<!DOCTYPE svg PUBLIC "-//W3C//DTD SVG 1.1//EN"
 "http://www.w3.org/Graphics/SVG/1.1/DTD/svg11.dtd">
<!-- Generated by graphviz version 2.36.0 (20140111.2315)
 -->
<!-- Title: fbp Pages: 1 -->
<svg width="806pt" height="474pt"
 viewBox="0.00 0.00 806.00 474.38" xmlns="http://www.w3.org/2000/svg" xmlns:xlink="http://www.w3.org/1999/xlink">
<g id="graph0" class="graph" transform="scale(1 1) rotate(0) translate(4 470.383)">
<title>fbp</title>
<polygon fill="white" stroke="none" points="-4,4 -4,-470.383 802,-470.383 802,4 -4,4"/>
<!-- false -->
<g id="node1" class="node"><title>false</title>
<polygon fill="#e8ea7a" stroke="none" points="8,-126.383 8,-155.383 76,-155.383 76,-126.383 8,-126.383"/>
<polygon fill="none" stroke="#616233" points="8,-126.383 8,-155.383 76,-155.383 76,-126.383 8,-126.383"/>
<text text-anchor="start" x="27.5" y="-141.683" font-family="Helvetica,sans-Serif" font-size="14.00" fill="#000000">false</text>
<text text-anchor="start" x="11.5" y="-132.483" font-family="Helvetica,sans-Serif" font-size="8.00" fill="#000000">constant/boolean</text>
<polygon fill="#828344" stroke="none" points="8,-109.383 8,-126.383 76,-126.383 76,-109.383 8,-109.383"/>
<polygon fill="none" stroke="#616233" points="8,-109.383 8,-126.383 76,-126.383 76,-109.383 8,-109.383"/>
<text text-anchor="start" x="40" y="-115.383" font-family="Helvetica,sans-Serif" font-size="10.00" fill="#ffffff">OUT ◉</text>
</g>
<!-- timer -->
<g id="node9" class="node"><title>timer</title>
<polygon fill="#7f2fae" stroke="none" points="128,-126.383 128,-155.383 194,-155.383 194,-126.383 128,-126.383"/>
<polygon fill="none" stroke="#351348" points="128,-126.383 128,-155.383 194,-155.383 194,-126.383 128,-126.383"/>
<text text-anchor="start" x="132.5" y="-141.683" font-family="Helvetica,sans-Serif" font-size="14.00" fill="#ffffff">🕐 Timer</text>
<text text-anchor="start" x="151.5" y="-132.483" font-family="Helvetica,sans-Serif" font-size="8.00" fill="#ffffff">timer</text>
<polygon fill="#5f2382" stroke="none" points="128,-109.383 128,-126.383 194,-126.383 194,-109.383 128,-109.383"/>
<polygon fill="none" stroke="#351348" points="128,-109.383 128,-126.383 194,-126.383 194,-109.383 128,-109.383"/>
<text text-anchor="start" x="131" y="-115.383" font-family="Helvetica,sans-Serif" font-size="10.00" fill="#ffffff">◎ ENABLED</text>
<polygon fill="#471a61" stroke="none" points="128,-92.3831 128,-109.383 194,-109.383 194,-92.3831 128,-92.3831"/>
<polygon fill="none" stroke="#351348" points="128,-92.3831 128,-109.383 194,-109.383 194,-92.3831 128,-92.3831"/>
<text text-anchor="start" x="158" y="-98.3831" font-family="Helvetica,sans-Serif" font-size="10.00" fill="#ffffff">OUT ◉</text>
</g>
<!-- false&#45;&gt;timer -->
<g id="edge2" class="edge"><title>false:OUT:e&#45;&gt;timer:ENABLED:w</title>
<path fill="none" stroke="#4465fe" stroke-width="2" d="M77,-117.383C97.6597,-117.383 103.914,-117.383 122.548,-117.383"/>
<ellipse fill="#4465fe" stroke="#4465fe" stroke-width="2" cx="125" cy="-117.383" rx="2" ry="2"/>
</g>
<!-- string -->
<g id="node2" class="node"><title>string</title>
<polygon fill="#e8ea7a" stroke="none" points="399,-433.383 399,-462.383 458,-462.383 458,-433.383 399,-433.383"/>
<polygon fill="none" stroke="#616233" points="399,-433.383 399,-462.383 458,-462.383 458,-433.383 399,-433.383"/>
<text text-anchor="start" x="411.5" y="-448.683" font-family="Helvetica,sans-Serif" font-size="14.00" fill="#000000">string</text>
<text text-anchor="start" x="402.5" y="-439.483" font-family="Helvetica,sans-Serif" font-size="8.00" fill="#000000">constant/string</text>
<polygon fill="#828344" stroke="none" points="399,-416.383 399,-433.383 458,-433.383 458,-416.383 399,-416.383"/>
<polygon fill="none" stroke="#616233" points="399,-416.383 399,-433.383 458,-433.383 458,-416.383 399,-416.383"/>
<text text-anchor="start" x="422" y="-422.383" font-family="Helvetica,sans-Serif" font-size="10.00" fill="#ffffff">OUT ◉</text>
</g>
<!-- lcd -->
<g id="node3" class="node"><title>lcd</title>
<polygon fill="#05c9ea" stroke="none" points="535,-315.383 535,-344.383 630,-344.383 630,-315.383 535,-315.383"/>
<polygon fill="none" stroke="#015462" points="535,-315.383 535,-344.383 630,-344.383 630,-315.383 535,-315.383"/>
<text text-anchor="start" x="573.5" y="-330.683" font-family="Helvetica,sans-Serif" font-size="14.00" fill="#000000">lcd</text>
<text text-anchor="start" x="565" y="-321.483" font-family="Helvetica,sans-Serif" font-size="8.00" fill="#000000">LCDChar</text>
<polygon fill="#0396af" stroke="none" points="535,-298.383 535,-315.383 630,-315.383 630,-298.383 535,-298.383"/>
<polygon fill="none" stroke="#015462" points="535,-298.383 535,-315.383 630,-315.383 630,-298.383 535,-298.383"/>
<text text-anchor="start" x="538" y="-304.383" font-family="Helvetica,sans-Serif" font-size="10.00" fill="#ffffff">◎ PUT_STRING</text>
<polygon fill="#0396af" stroke="none" points="535,-281.383 535,-298.383 630,-298.383 630,-281.383 535,-281.383"/>
<polygon fill="none" stroke="#015462" points="535,-281.383 535,-298.383 630,-298.383 630,-281.383 535,-281.383"/>
<text text-anchor="start" x="538" y="-287.383" font-family="Helvetica,sans-Serif" font-size="10.00" fill="#ffffff">◎ SCROLL_LEFT</text>
<polygon fill="#0396af" stroke="none" points="535,-264.383 535,-281.383 630,-281.383 630,-264.383 535,-264.383"/>
<polygon fill="none" stroke="#015462" points="535,-264.383 535,-281.383 630,-281.383 630,-264.383 535,-264.383"/>
<text text-anchor="start" x="538" y="-270.383" font-family="Helvetica,sans-Serif" font-size="10.00" fill="#ffffff">◎ SCROLL_RIGHT</text>
</g>
<!-- string&#45;&gt;lcd -->
<g id="edge1" class="edge"><title>string:OUT:e&#45;&gt;lcd:PUT_STRING:w</title>
<path fill="none" stroke="#a03844" stroke-width="2" d="M459,-424.383C475.895,-424.383 479.198,-415.373 490,-402.383 518.821,-367.723 489.426,-311.062 529.864,-307.554"/>
<ellipse fill="#a03844" stroke="#a03844" stroke-width="2" cx="532.002" cy="-307.466" rx="2" ry="2"/>
</g>
<!-- acc -->
<g id="node4" class="node"><title>acc</title>
<polygon fill="#254878" stroke="none" points="246,-199.383 246,-228.383 322,-228.383 322,-199.383 246,-199.383"/>
<polygon fill="none" stroke="#0f1e32" points="246,-199.383 246,-228.383 322,-228.383 322,-199.383 246,-199.383"/>
<text text-anchor="start" x="273" y="-214.683" font-family="Helvetica,sans-Serif" font-size="14.00" fill="#ffffff">acc</text>
<text text-anchor="start" x="256.5" y="-205.483" font-family="Helvetica,sans-Serif" font-size="8.00" fill="#ffffff">int/accumulator</text>
<polygon fill="#1b365a" stroke="none" points="246,-182.383 246,-199.383 322,-199.383 322,-182.383 246,-182.383"/>
<polygon fill="none" stroke="#0f1e32" points="246,-182.383 246,-199.383 322,-199.383 322,-182.383 246,-182.383"/>
<text text-anchor="start" x="249" y="-188.383" font-family="Helvetica,sans-Serif" font-size="10.00" fill="#ffffff">◎ INC</text>
<polygon fill="#142843" stroke="none" points="246,-165.383 246,-182.383 322,-182.383 322,-165.383 246,-165.383"/>
<polygon fill="none" stroke="#0f1e32" points="246,-165.383 246,-182.383 322,-182.383 322,-165.383 246,-165.383"/>
<text text-anchor="start" x="286" y="-171.383" font-family="Helvetica,sans-Serif" font-size="10.00" fill="#ffffff">OUT ◉</text>
<polygon fill="#142843" stroke="none" points="246,-148.383 246,-165.383 322,-165.383 322,-148.383 246,-148.383"/>
<polygon fill="none" stroke="#0f1e32" points="246,-148.383 246,-165.383 322,-165.383 322,-148.383 246,-148.383"/>
<text text-anchor="start" x="250" y="-154.383" font-family="Helvetica,sans-Serif" font-size="10.00" fill="#ffffff">OVERFLOW ◉</text>
</g>
<!-- 1st_loop_filter -->
<g id="node5" class="node"><title>1st_loop_filter</title>
<polygon fill="#254878" stroke="none" points="382,-360.383 382,-389.383 474,-389.383 474,-360.383 382,-360.383"/>
<polygon fill="none" stroke="#0f1e32" points="382,-360.383 382,-389.383 474,-389.383 474,-360.383 382,-360.383"/>
<text text-anchor="start" x="385.5" y="-375.683" font-family="Helvetica,sans-Serif" font-size="14.00" fill="#ffffff">1st_loop_filter</text>
<text text-anchor="start" x="415" y="-366.483" font-family="Helvetica,sans-Serif" font-size="8.00" fill="#ffffff">int/filter</text>
<polygon fill="#1b365a" stroke="none" points="382,-343.383 382,-360.383 474,-360.383 474,-343.383 382,-343.383"/>
<polygon fill="none" stroke="#0f1e32" points="382,-343.383 382,-360.383 474,-360.383 474,-343.383 382,-343.383"/>
<text text-anchor="start" x="385" y="-349.383" font-family="Helvetica,sans-Serif" font-size="10.00" fill="#ffffff">◎ IN</text>
<polygon fill="#142843" stroke="none" points="382,-326.383 382,-343.383 474,-343.383 474,-326.383 382,-326.383"/>
<polygon fill="none" stroke="#0f1e32" points="382,-326.383 382,-343.383 474,-343.383 474,-326.383 382,-326.383"/>
<text text-anchor="start" x="438" y="-332.383" font-family="Helvetica,sans-Serif" font-size="10.00" fill="#ffffff">OUT ◉</text>
</g>
<!-- acc&#45;&gt;1st_loop_filter -->
<g id="edge5" class="edge"><title>acc:OUT:e&#45;&gt;1st_loop_filter:IN:w</title>
<path fill="none" stroke="#f243c2" stroke-width="2" d="M323,-173.383C404.742,-173.383 301.547,-345.18 376.788,-351.22"/>
<ellipse fill="#f243c2" stroke="#f243c2" stroke-width="2" cx="379.001" cy="-351.306" rx="2" ry="2"/>
</g>
<!-- 2nd_loop_filter -->
<g id="node6" class="node"><title>2nd_loop_filter</title>
<polygon fill="#254878" stroke="none" points="380,-182.383 380,-211.383 476,-211.383 476,-182.383 380,-182.383"/>
<polygon fill="none" stroke="#0f1e32" points="380,-182.383 380,-211.383 476,-211.383 476,-182.383 380,-182.383"/>
<text text-anchor="start" x="383.5" y="-197.683" font-family="Helvetica,sans-Serif" font-size="14.00" fill="#ffffff">2nd_loop_filter</text>
<text text-anchor="start" x="415" y="-188.483" font-family="Helvetica,sans-Serif" font-size="8.00" fill="#ffffff">int/filter</text>
<polygon fill="#1b365a" stroke="none" points="380,-165.383 380,-182.383 476,-182.383 476,-165.383 380,-165.383"/>
<polygon fill="none" stroke="#0f1e32" points="380,-165.383 380,-182.383 476,-182.383 476,-165.383 380,-165.383"/>
<text text-anchor="start" x="383" y="-171.383" font-family="Helvetica,sans-Serif" font-size="10.00" fill="#ffffff">◎ IN</text>
<polygon fill="#142843" stroke="none" points="380,-148.383 380,-165.383 476,-165.383 476,-148.383 380,-148.383"/>
<polygon fill="none" stroke="#0f1e32" points="380,-148.383 380,-165.383 476,-165.383 476,-148.383 380,-148.383"/>
<text text-anchor="start" x="440" y="-154.383" font-family="Helvetica,sans-Serif" font-size="10.00" fill="#ffffff">OUT ◉</text>
</g>
<!-- acc&#45;&gt;2nd_loop_filter -->
<g id="edge7" class="edge"><title>acc:OUT:e&#45;&gt;2nd_loop_filter:IN:w</title>
<path fill="none" stroke="#195869" stroke-width="2" d="M323,-173.383C346.431,-173.383 353.318,-173.383 374.81,-173.383"/>
<ellipse fill="#195869" stroke="#195869" stroke-width="2" cx="377" cy="-173.383" rx="2" ry="2"/>
</g>
<!-- 3rd_loop_filter -->
<g id="node7" class="node"><title>3rd_loop_filter</title>
<polygon fill="#254878" stroke="none" points="382,-271.383 382,-300.383 475,-300.383 475,-271.383 382,-271.383"/>
<polygon fill="none" stroke="#0f1e32" points="382,-271.383 382,-300.383 475,-300.383 475,-271.383 382,-271.383"/>
<text text-anchor="start" x="385.5" y="-286.683" font-family="Helvetica,sans-Serif" font-size="14.00" fill="#ffffff">3rd_loop_filter</text>
<text text-anchor="start" x="415.5" y="-277.483" font-family="Helvetica,sans-Serif" font-size="8.00" fill="#ffffff">int/filter</text>
<polygon fill="#1b365a" stroke="none" points="382,-254.383 382,-271.383 475,-271.383 475,-254.383 382,-254.383"/>
<polygon fill="none" stroke="#0f1e32" points="382,-254.383 382,-271.383 475,-271.383 475,-254.383 382,-254.383"/>
<text text-anchor="start" x="385" y="-260.383" font-family="Helvetica,sans-Serif" font-size="10.00" fill="#ffffff">◎ IN</text>
<polygon fill="#142843" stroke="none" points="382,-237.383 382,-254.383 475,-254.383 475,-237.383 382,-237.383"/>
<polygon fill="none" stroke="#0f1e32" points="382,-237.383 382,-254.383 475,-254.383 475,-237.383 382,-237.383"/>
<text text-anchor="start" x="439" y="-243.383" font-family="Helvetica,sans-Serif" font-size="10.00" fill="#ffffff">OUT ◉</text>
</g>
<!-- acc&#45;&gt;3rd_loop_filter -->
<g id="edge9" class="edge"><title>acc:OUT:e&#45;&gt;3rd_loop_filter:IN:w</title>
<path fill="none" stroke="#6f3fde" stroke-width="2" d="M323,-173.383C368.738,-173.383 335.981,-256.907 376.814,-262.128"/>
<ellipse fill="#6f3fde" stroke="#6f3fde" stroke-width="2" cx="379.004" cy="-262.261" rx="2" ry="2"/>
</g>
<!-- loop_pause -->
<g id="node11" class="node"><title>loop_pause</title>
<polygon fill="#bd648a" stroke="none" points="375,-93.3831 375,-122.383 482,-122.383 482,-93.3831 375,-93.3831"/>
<polygon fill="none" stroke="#4e2a39" points="375,-93.3831 375,-122.383 482,-122.383 482,-93.3831 375,-93.3831"/>
<text text-anchor="start" x="393.5" y="-108.683" font-family="Helvetica,sans-Serif" font-size="14.00" fill="#000000">loop_pause</text>
<text text-anchor="start" x="378.5" y="-99.4831" font-family="Helvetica,sans-Serif" font-size="8.00" fill="#000000">converter/empty&#45;to&#45;boolean</text>
<polygon fill="#8d4b67" stroke="none" points="375,-76.3831 375,-93.3831 482,-93.3831 482,-76.3831 375,-76.3831"/>
<polygon fill="none" stroke="#4e2a39" points="375,-76.3831 375,-93.3831 482,-93.3831 482,-76.3831 375,-76.3831"/>
<text text-anchor="start" x="378" y="-82.3831" font-family="Helvetica,sans-Serif" font-size="10.00" fill="#ffffff">◎ IN</text>
<polygon fill="#69384d" stroke="none" points="375,-59.3831 375,-76.3831 482,-76.3831 482,-59.3831 375,-59.3831"/>
<polygon fill="none" stroke="#4e2a39" points="375,-59.3831 375,-76.3831 482,-76.3831 482,-59.3831 375,-59.3831"/>
<text text-anchor="start" x="446" y="-65.3831" font-family="Helvetica,sans-Serif" font-size="10.00" fill="#ffffff">OUT ◉</text>
</g>
<!-- acc&#45;&gt;loop_pause -->
<g id="edge11" class="edge"><title>acc:OVERFLOW:e&#45;&gt;loop_pause:IN:w</title>
<path fill="none" stroke="#1ace84" stroke-width="2" d="M323,-156.383C360.683,-156.383 336.827,-89.8982 369.702,-84.7041"/>
<ellipse fill="#1ace84" stroke="#1ace84" stroke-width="2" cx="372.006" cy="-84.5321" rx="2" ry="2"/>
</g>
<!-- 1st_loop_filter&#45;&gt;lcd -->
<g id="edge6" class="edge"><title>1st_loop_filter:OUT:e&#45;&gt;lcd:SCROLL_LEFT:w</title>
<path fill="none" stroke="#698784" stroke-width="2" d="M475,-334.383C506.562,-334.383 501.545,-293.167 529.964,-289.625"/>
<ellipse fill="#698784" stroke="#698784" stroke-width="2" cx="532.004" cy="-289.503" rx="2" ry="2"/>
</g>
<!-- 2nd_loop_filter&#45;&gt;lcd -->
<g id="edge8" class="edge"><title>2nd_loop_filter:OUT:e&#45;&gt;lcd:SCROLL_RIGHT:w</title>
<path fill="none" stroke="#753222" stroke-width="2" d="M477,-156.383C532.985,-156.383 479.422,-266.567 529.844,-272.163"/>
<ellipse fill="#753222" stroke="#753222" stroke-width="2" cx="532.003" cy="-272.277" rx="2" ry="2"/>
</g>
<!-- 3rd_loop_filter&#45;&gt;lcd -->
<g id="edge10" class="edge"><title>3rd_loop_filter:OUT:e&#45;&gt;lcd:SCROLL_LEFT:w</title>
<path fill="none" stroke="#f3a910" stroke-width="2" d="M476,-245.383C506.839,-245.383 502.187,-285.355 529.699,-289.102"/>
<ellipse fill="#f3a910" stroke="#f3a910" stroke-width="2" cx="532.004" cy="-289.253" rx="2" ry="2"/>
</g>
<!-- timer_delay -->
<g id="node8" class="node"><title>timer_delay</title>
<polygon fill="#7f2fae" stroke="none" points="549,-135.383 549,-164.383 615,-164.383 615,-135.383 549,-135.383"/>
<polygon fill="none" stroke="#351348" points="549,-135.383 549,-164.383 615,-164.383 615,-135.383 549,-135.383"/>
<text text-anchor="start" x="553.5" y="-150.683" font-family="Helvetica,sans-Serif" font-size="14.00" fill="#ffffff">🕐 Timer</text>
<text text-anchor="start" x="572.5" y="-141.483" font-family="Helvetica,sans-Serif" font-size="8.00" fill="#ffffff">timer</text>
<polygon fill="#5f2382" stroke="none" points="549,-118.383 549,-135.383 615,-135.383 615,-118.383 549,-118.383"/>
<polygon fill="none" stroke="#351348" points="549,-118.383 549,-135.383 615,-135.383 615,-118.383 549,-118.383"/>
<text text-anchor="start" x="552" y="-124.383" font-family="Helvetica,sans-Serif" font-size="10.00" fill="#ffffff">◎ ENABLED</text>
<polygon fill="#471a61" stroke="none" points="549,-101.383 549,-118.383 615,-118.383 615,-101.383 549,-101.383"/>
<polygon fill="none" stroke="#351348" points="549,-101.383 549,-118.383 615,-118.383 615,-101.383 549,-101.383"/>
<text text-anchor="start" x="579" y="-107.383" font-family="Helvetica,sans-Serif" font-size="10.00" fill="#ffffff">OUT ◉</text>
</g>
<!-- start_loop -->
<g id="node10" class="node"><title>start_loop</title>
<polygon fill="#bd648a" stroke="none" points="683,-65.3831 683,-94.3831 790,-94.3831 790,-65.3831 683,-65.3831"/>
<polygon fill="none" stroke="#4e2a39" points="683,-65.3831 683,-94.3831 790,-94.3831 790,-65.3831 683,-65.3831"/>
<text text-anchor="start" x="706.5" y="-80.6831" font-family="Helvetica,sans-Serif" font-size="14.00" fill="#000000">start_loop</text>
<text text-anchor="start" x="686.5" y="-71.4831" font-family="Helvetica,sans-Serif" font-size="8.00" fill="#000000">converter/empty&#45;to&#45;boolean</text>
<polygon fill="#8d4b67" stroke="none" points="683,-48.3831 683,-65.3831 790,-65.3831 790,-48.3831 683,-48.3831"/>
<polygon fill="none" stroke="#4e2a39" points="683,-48.3831 683,-65.3831 790,-65.3831 790,-48.3831 683,-48.3831"/>
<text text-anchor="start" x="686" y="-54.3831" font-family="Helvetica,sans-Serif" font-size="10.00" fill="#ffffff">◎ IN</text>
<polygon fill="#69384d" stroke="none" points="683,-31.3831 683,-48.3831 790,-48.3831 790,-31.3831 683,-31.3831"/>
<polygon fill="none" stroke="#4e2a39" points="683,-31.3831 683,-48.3831 790,-48.3831 790,-31.3831 683,-31.3831"/>
<text text-anchor="start" x="754" y="-37.3831" font-family="Helvetica,sans-Serif" font-size="10.00" fill="#ffffff">OUT ◉</text>
</g>
<!-- timer_delay&#45;&gt;start_loop -->
<g id="edge15" class="edge"><title>timer_delay:OUT:e&#45;&gt;start_loop:IN:w</title>
<path fill="none" stroke="#3b00d6" stroke-width="2" d="M616,-109.383C652.151,-109.383 645.03,-60.4428 677.8,-56.6194"/>
<ellipse fill="#3b00d6" stroke="#3b00d6" stroke-width="2" cx="680.003" cy="-56.4955" rx="2" ry="2"/>
</g>
<!-- timer&#45;&gt;acc -->
<g id="edge4" class="edge"><title>timer:OUT:e&#45;&gt;acc:INC:w</title>
<path fill="none" stroke="#0c2dc8" stroke-width="2" d="M195,-100.383C239.705,-100.383 201.41,-185.784 240.927,-191.122"/>
<ellipse fill="#0c2dc8" stroke="#0c2dc8" stroke-width="2" cx="243.004" cy="-191.255" rx="2" ry="2"/>
</g>
<!-- start_loop&#45;&gt;timer -->
<g id="edge3" class="edge"><title>start_loop:OUT:e&#45;&gt;timer:ENABLED:w</title>
<path fill="none" stroke="#3a7b3c" stroke-width="2" d="M427,-27.3831C291.33,-27.8235 215.558,14.7519 128,-88.8831 119.82,-98.5647 114.326,-117.383 127,-117.383"/>
<path fill="none" stroke="#3a7b3c" stroke-width="2" d="M791,-39.3831C796.13,-39.3831 793.529,-31.607 790,-27.8831 743.07,21.6411 706.06,-11.1727 638,-6.38306 588.345,-2.88867 575.495,-1.08668 526,-6.38306 483.511,-10.9297 473.687,-25.0333 433.033,-27.2103"/>
<ellipse fill="#3a7b3c" stroke="#3a7b3c" stroke-width="2" cx="430.998" cy="-27.2974" rx="2" ry="2"/>
</g>
<!-- loop_pause&#45;&gt;timer_delay -->
<g id="edge12" class="edge"><title>loop_pause:OUT:e&#45;&gt;timer_delay:ENABLED:w</title>
<path fill="none" stroke="#5c6547" stroke-width="2" d="M483,-67.3831C520.491,-67.3831 509.924,-121.864 543.66,-126.12"/>
<ellipse fill="#5c6547" stroke="#5c6547" stroke-width="2" cx="546.004" cy="-126.262" rx="2" ry="2"/>
</g>
<!-- #anon:67:22 -->
<g id="node12" class="node"><title>#anon:67:22</title>
<polygon fill="#184294" stroke="none" points="543,-53.3831 543,-75.3831 621,-75.3831 621,-53.3831 543,-53.3831"/>
<polygon fill="none" stroke="#091b3e" points="543,-53.3831 543,-75.3831 621,-75.3831 621,-53.3831 543,-53.3831"/>
<text text-anchor="start" x="546.5" y="-60.6831" font-family="Helvetica,sans-Serif" font-size="14.00" fill="#ffffff">boolean/not</text>
<polygon fill="#12316f" stroke="none" points="543,-36.3831 543,-53.3831 621,-53.3831 621,-36.3831 543,-36.3831"/>
<polygon fill="none" stroke="#091b3e" points="543,-36.3831 543,-53.3831 621,-53.3831 621,-36.3831 543,-36.3831"/>
<text text-anchor="start" x="546" y="-42.3831" font-family="Helvetica,sans-Serif" font-size="10.00" fill="#ffffff">◎ IN</text>
<polygon fill="#0d2453" stroke="none" points="543,-19.3831 543,-36.3831 621,-36.3831 621,-19.3831 543,-19.3831"/>
<polygon fill="none" stroke="#091b3e" points="543,-19.3831 543,-36.3831 621,-36.3831 621,-19.3831 543,-19.3831"/>
<text text-anchor="start" x="585" y="-25.3831" font-family="Helvetica,sans-Serif" font-size="10.00" fill="#ffffff">OUT ◉</text>
</g>
<!-- loop_pause&#45;&gt;#anon:67:22 -->
<g id="edge13" class="edge"><title>loop_pause:OUT:e&#45;&gt;#anon:67:22:IN:w</title>
<path fill="none" stroke="#94605e" stroke-width="2" d="M483,-67.3831C509.715,-67.3831 513.515,-46.6597 537.902,-44.555"/>
<ellipse fill="#94605e" stroke="#94605e" stroke-width="2" cx="540.002" cy="-44.4669" rx="2" ry="2"/>
</g>
<!-- #anon:67:22&#45;&gt;timer -->
<g id="edge14" class="edge"><title>#anon:67:22:OUT:e&#45;&gt;timer:ENABLED:w</title>
<path fill="none" stroke="#fe9a8e" stroke-width="2" d="M622,-27.3831C627.352,-27.3831 624.938,-19.0068 621,-15.3831 592.873,10.4976 573.162,-13.2299 535,-15.3831 489.05,-17.9757 477.079,-25.394 433.074,-27.2322"/>
<ellipse fill="#fe9a8e" stroke="#fe9a8e" stroke-width="2" cx="430.999" cy="-27.309" rx="2" ry="2"/>
</g>
</g>
</svg>
