<?xml version="1.0" encoding="UTF-8" standalone="no"?>
<!DOCTYPE svg PUBLIC "-//W3C//DTD SVG 1.1//EN"
 "http://www.w3.org/Graphics/SVG/1.1/DTD/svg11.dtd">
<!-- Generated by graphviz version 2.36.0 (20140111.2315)
 -->
<!-- Title: fbp Pages: 1 -->
<svg width="338pt" height="78pt"
 viewBox="0.00 0.00 338.00 78.00" xmlns="http://www.w3.org/2000/svg" xmlns:xlink="http://www.w3.org/1999/xlink">
<g id="graph0" class="graph" transform="scale(1 1) rotate(0) translate(4 74)">
<title>fbp</title>
<polygon fill="white" stroke="none" points="-4,4 -4,-74 334,-74 334,4 -4,4"/>
<!-- clock -->
<g id="node1" class="node"><title>clock</title>
<polygon fill="#7f2fae" stroke="none" points="8,-37 8,-66 72,-66 72,-37 8,-37"/>
<polygon fill="none" stroke="#351348" points="8,-37 8,-66 72,-66 72,-37 8,-37"/>
<text text-anchor="start" x="11.5" y="-52.3" font-family="Helvetica,sans-Serif" font-size="14.00" fill="#ffffff">🕐 Timer</text>
<text text-anchor="start" x="30.5" y="-43.1" font-family="Helvetica,sans-Serif" font-size="8.00" fill="#ffffff">timer</text>
<polygon fill="#471a61" stroke="none" points="8,-20 8,-37 72,-37 72,-20 8,-20"/>
<polygon fill="none" stroke="#351348" points="8,-20 8,-37 72,-37 72,-20 8,-20"/>
<text text-anchor="start" x="36" y="-26" font-family="Helvetica,sans-Serif" font-size="10.00" fill="#ffffff">OUT ◉</text>
</g>
<!-- ultrasonic -->
<g id="node2" class="node"><title>ultrasonic</title>
<polygon fill="#c7fbb0" stroke="none" points="124,-37 124,-66 216,-66 216,-37 124,-37"/>
<polygon fill="none" stroke="#53694a" points="124,-37 124,-66 216,-66 216,-37 124,-37"/>
<text text-anchor="start" x="141" y="-52.3" font-family="Helvetica,sans-Serif" font-size="14.00" fill="#000000">ultrasonic</text>
<text text-anchor="start" x="152" y="-43.1" font-family="Helvetica,sans-Serif" font-size="8.00" fill="#000000">Ultrasonic</text>
<polygon fill="#95bc84" stroke="none" points="124,-20 124,-37 216,-37 216,-20 124,-20"/>
<polygon fill="none" stroke="#53694a" points="124,-20 124,-37 216,-37 216,-20 124,-20"/>
<text text-anchor="start" x="127" y="-26" font-family="Helvetica,sans-Serif" font-size="10.00" fill="#000000">◎ TRIGGER</text>
<polygon fill="#6f8d63" stroke="none" points="124,-3 124,-20 216,-20 216,-3 124,-3"/>
<polygon fill="none" stroke="#53694a" points="124,-3 124,-20 216,-20 216,-3 124,-3"/>
<text text-anchor="start" x="128" y="-9" font-family="Helvetica,sans-Serif" font-size="10.00" fill="#ffffff">CENTIMETERS ◉</text>
</g>
<!-- clock&#45;&gt;ultrasonic -->
<g id="edge1" class="edge"><title>clock:OUT_OUT:e&#45;&gt;ultrasonic:IN_TRIGGER:w</title>
<path fill="none" stroke="#2342ea" stroke-width="2" d="M73,-28C93.6597,-28 99.9141,-28 118.548,-28"/>
<ellipse fill="#2342ea" stroke="#2342ea" stroke-width="2" cx="121" cy="-28" rx="2" ry="2"/>
</g>
<!-- #anon:31:30 -->
<g id="node3" class="node"><title>#anon:31:30</title>
<polygon fill="#471ca4" stroke="none" points="268,-20 268,-42 322,-42 322,-20 268,-20"/>
<polygon fill="none" stroke="#1d0b45" points="268,-20 268,-42 322,-42 322,-20 268,-20"/>
<text text-anchor="start" x="271.5" y="-27.3" font-family="Helvetica,sans-Serif" font-size="14.00" fill="#ffffff">console</text>
<polygon fill="#35157b" stroke="none" points="268,-3 268,-20 322,-20 322,-3 268,-3"/>
<polygon fill="none" stroke="#1d0b45" points="268,-3 268,-20 322,-20 322,-3 268,-3"/>
<text text-anchor="start" x="271" y="-9" font-family="Helvetica,sans-Serif" font-size="10.00" fill="#ffffff">◎ IN</text>
</g>
<!-- ultrasonic&#45;&gt;#anon:31:30 -->
<g id="edge2" class="edge"><title>ultrasonic:OUT_CENTIMETERS:e&#45;&gt;#anon:31:30:IN_IN:w</title>
<path fill="none" stroke="#7698b2" stroke-width="2" d="M217,-11C237.66,-11 243.914,-11 262.548,-11"/>
<ellipse fill="#7698b2" stroke="#7698b2" stroke-width="2" cx="265" cy="-11" rx="2" ry="2"/>
</g>
</g>
</svg>
