<?xml version="1.0" encoding="UTF-8" standalone="no"?>
<!DOCTYPE svg PUBLIC "-//W3C//DTD SVG 1.1//EN"
 "http://www.w3.org/Graphics/SVG/1.1/DTD/svg11.dtd">
<!-- Generated by graphviz version 2.36.0 (20140111.2315)
 -->
<!-- Title: fbp Pages: 1 -->
<svg width="360pt" height="119pt"
 viewBox="0.00 0.00 360.00 119.00" xmlns="http://www.w3.org/2000/svg" xmlns:xlink="http://www.w3.org/1999/xlink">
<g id="graph0" class="graph" transform="scale(1 1) rotate(0) translate(4 115)">
<title>fbp</title>
<polygon fill="white" stroke="none" points="-4,4 -4,-115 356,-115 356,4 -4,4"/>
<!-- monitor -->
<g id="node1" class="node"><title>monitor</title>
<polygon fill="#ba5c66" stroke="none" points="160,-52 160,-81 238,-81 238,-52 160,-52"/>
<polygon fill="none" stroke="#4e262a" points="160,-52 160,-81 238,-81 238,-52 160,-52"/>
<text text-anchor="start" x="176" y="-67.3" font-family="Helvetica,sans-Serif" font-size="14.00" fill="#ffffff">monitor</text>
<text text-anchor="start" x="163.5" y="-58.1" font-family="Helvetica,sans-Serif" font-size="8.00" fill="#ffffff">semaphore&#45;monitor</text>
<polygon fill="#8b454c" stroke="none" points="160,-35 160,-52 238,-52 238,-35 160,-35"/>
<polygon fill="none" stroke="#4e262a" points="160,-35 160,-52 238,-52 238,-35 160,-35"/>
<text text-anchor="start" x="163" y="-41" font-family="Helvetica,sans-Serif" font-size="10.00" fill="#ffffff">◎ UPDATE</text>
<polygon fill="#683339" stroke="none" points="160,-18 160,-35 238,-35 238,-18 160,-18"/>
<polygon fill="none" stroke="#4e262a" points="160,-18 160,-35 238,-35 238,-18 160,-18"/>
<text text-anchor="start" x="183" y="-24" font-family="Helvetica,sans-Serif" font-size="10.00" fill="#ffffff">STATUS ◉</text>
</g>
<!-- #anon:57:149 -->
<g id="node2" class="node"><title>#anon:57:149</title>
<polygon fill="#471ca4" stroke="none" points="290,-35 290,-57 344,-57 344,-35 290,-35"/>
<polygon fill="none" stroke="#1d0b45" points="290,-35 290,-57 344,-57 344,-35 290,-35"/>
<text text-anchor="start" x="293.5" y="-42.3" font-family="Helvetica,sans-Serif" font-size="14.00" fill="#ffffff">console</text>
<polygon fill="#35157b" stroke="none" points="290,-18 290,-35 344,-35 344,-18 290,-18"/>
<polygon fill="none" stroke="#1d0b45" points="290,-18 290,-35 344,-35 344,-18 290,-18"/>
<text text-anchor="start" x="293" y="-24" font-family="Helvetica,sans-Serif" font-size="10.00" fill="#ffffff">◎ IN</text>
</g>
<!-- monitor&#45;&gt;#anon:57:149 -->
<g id="edge1" class="edge"><title>monitor:STATUS:e&#45;&gt;#anon:57:149:IN:w</title>
<path fill="none" stroke="#5a6b18" stroke-width="2" d="M239,-26C259.66,-26 265.914,-26 284.548,-26"/>
<ellipse fill="#5a6b18" stroke="#5a6b18" stroke-width="2" cx="287" cy="-26" rx="2" ry="2"/>
</g>
<!-- #anon:59:1 -->
<g id="node3" class="node"><title>#anon:59:1</title>
<polygon fill="#e8ea7a" stroke="none" points="8,-85 8,-107 108,-107 108,-85 8,-85"/>
<polygon fill="none" stroke="#616233" points="8,-85 8,-107 108,-107 108,-85 8,-85"/>
<text text-anchor="start" x="11.5" y="-92.3" font-family="Helvetica,sans-Serif" font-size="14.00" fill="#000000">constant/empty</text>
<polygon fill="#828344" stroke="none" points="8,-68 8,-85 108,-85 108,-68 8,-68"/>
<polygon fill="none" stroke="#616233" points="8,-68 8,-85 108,-85 108,-68 8,-68"/>
<text text-anchor="start" x="72" y="-74" font-family="Helvetica,sans-Serif" font-size="10.00" fill="#ffffff">OUT ◉</text>
</g>
<!-- #anon:59:1&#45;&gt;monitor -->
<g id="edge2" class="edge"><title>#anon:59:1:OUT:e&#45;&gt;monitor:UPDATE:w</title>
<path fill="none" stroke="#c30abe" stroke-width="2" d="M109,-76C134.17,-76 132.64,-46.5107 154.89,-43.2853"/>
<ellipse fill="#c30abe" stroke="#c30abe" stroke-width="2" cx="157.005" cy="-43.1385" rx="2" ry="2"/>
</g>
<!-- #anon:60:1 -->
<g id="node4" class="node"><title>#anon:60:1</title>
<polygon fill="#7f2fae" stroke="none" points="38,-20 38,-42 78,-42 78,-20 38,-20"/>
<polygon fill="none" stroke="#351348" points="38,-20 38,-42 78,-42 78,-20 38,-20"/>
<text text-anchor="start" x="42.5" y="-27.3" font-family="Helvetica,sans-Serif" font-size="14.00" fill="#ffffff">timer</text>
<polygon fill="#471a61" stroke="none" points="38,-3 38,-20 78,-20 78,-3 38,-3"/>
<polygon fill="none" stroke="#351348" points="38,-3 38,-20 78,-20 78,-3 38,-3"/>
<text text-anchor="start" x="42" y="-9" font-family="Helvetica,sans-Serif" font-size="10.00" fill="#ffffff">OUT ◉</text>
</g>
<!-- #anon:60:1&#45;&gt;monitor -->
<g id="edge3" class="edge"><title>#anon:60:1:OUT:e&#45;&gt;monitor:UPDATE:w</title>
<path fill="none" stroke="#8e8284" stroke-width="2" d="M79,-11C115.799,-11 120.386,-40.5488 154.668,-42.8573"/>
<ellipse fill="#8e8284" stroke="#8e8284" stroke-width="2" cx="157.001" cy="-42.9341" rx="2" ry="2"/>
</g>
</g>
</svg>
