<?xml version="1.0" encoding="UTF-8" standalone="no"?>
<!DOCTYPE svg PUBLIC "-//W3C//DTD SVG 1.1//EN"
 "http://www.w3.org/Graphics/SVG/1.1/DTD/svg11.dtd">
<!-- Generated by graphviz version 2.36.0 (20140111.2315)
 -->
<!-- Title: fbp Pages: 1 -->
<svg width="226pt" height="95pt"
 viewBox="0.00 0.00 226.00 95.00" xmlns="http://www.w3.org/2000/svg" xmlns:xlink="http://www.w3.org/1999/xlink">
<g id="graph0" class="graph" transform="scale(1 1) rotate(0) translate(4 91)">
<title>fbp</title>
<polygon fill="white" stroke="none" points="-4,4 -4,-91 222,-91 222,4 -4,4"/>
<!-- get_svg -->
<g id="node1" class="node"><title>get_svg</title>
<polygon fill="#d07e6c" stroke="none" points="8,-54 8,-83 72,-83 72,-54 8,-54"/>
<polygon fill="none" stroke="#57342d" points="8,-54 8,-83 72,-83 72,-54 8,-54"/>
<text text-anchor="start" x="16" y="-69.3" font-family="Helvetica,sans-Serif" font-size="14.00" fill="#000000">get_svg</text>
<text text-anchor="start" x="11.5" y="-60.1" font-family="Helvetica,sans-Serif" font-size="8.00" fill="#000000">http&#45;client/string</text>
<polygon fill="#9c5e51" stroke="none" points="8,-37 8,-54 72,-54 72,-37 8,-37"/>
<polygon fill="none" stroke="#57342d" points="8,-37 8,-54 72,-54 72,-37 8,-37"/>
<text text-anchor="start" x="11" y="-43" font-family="Helvetica,sans-Serif" font-size="10.00" fill="#ffffff">◎ GET</text>
<polygon fill="#75463c" stroke="none" points="8,-20 8,-37 72,-37 72,-20 8,-20"/>
<polygon fill="none" stroke="#57342d" points="8,-20 8,-37 72,-37 72,-20 8,-20"/>
<text text-anchor="start" x="36" y="-26" font-family="Helvetica,sans-Serif" font-size="10.00" fill="#ffffff">OUT ◉</text>
</g>
<!-- check_status -->
<g id="node2" class="node"><title>check_status</title>
<polygon fill="#c1ee90" stroke="none" points="124,-37 124,-66 210,-66 210,-37 124,-37"/>
<polygon fill="none" stroke="#51633c" points="124,-37 124,-66 210,-66 210,-37 124,-37"/>
<text text-anchor="start" x="127.5" y="-52.3" font-family="Helvetica,sans-Serif" font-size="14.00" fill="#000000">check_status</text>
<text text-anchor="start" x="130" y="-43.1" font-family="Helvetica,sans-Serif" font-size="8.00" fill="#000000">string/regexp&#45;search</text>
<polygon fill="#90b26c" stroke="none" points="124,-20 124,-37 210,-37 210,-20 124,-20"/>
<polygon fill="none" stroke="#51633c" points="124,-20 124,-37 210,-37 210,-20 124,-20"/>
<text text-anchor="start" x="127" y="-26" font-family="Helvetica,sans-Serif" font-size="10.00" fill="#000000">◎ IN</text>
<polygon fill="#6c8551" stroke="none" points="124,-3 124,-20 210,-20 210,-3 124,-3"/>
<polygon fill="none" stroke="#51633c" points="124,-3 124,-20 210,-20 210,-3 124,-3"/>
<text text-anchor="start" x="174" y="-9" font-family="Helvetica,sans-Serif" font-size="10.00" fill="#ffffff">OUT ◉</text>
</g>
<!-- get_svg&#45;&gt;check_status -->
<g id="edge1" class="edge"><title>get_svg:OUT_OUT:e&#45;&gt;check_status:IN_IN:w</title>
<path fill="none" stroke="#7d786c" stroke-width="2" d="M73,-28C93.6597,-28 99.9141,-28 118.548,-28"/>
<ellipse fill="#7d786c" stroke="#7d786c" stroke-width="2" cx="121" cy="-28" rx="2" ry="2"/>
</g>
</g>
</svg>
