<?xml version="1.0" encoding="UTF-8" standalone="no"?>
<!DOCTYPE svg PUBLIC "-//W3C//DTD SVG 1.1//EN"
 "http://www.w3.org/Graphics/SVG/1.1/DTD/svg11.dtd">
<!-- Generated by graphviz version 2.36.0 (20140111.2315)
 -->
<!-- Title: fbp Pages: 1 -->
<svg width="302pt" height="78pt"
 viewBox="0.00 0.00 302.00 78.00" xmlns="http://www.w3.org/2000/svg" xmlns:xlink="http://www.w3.org/1999/xlink">
<g id="graph0" class="graph" transform="scale(1 1) rotate(0) translate(4 74)">
<title>fbp</title>
<polygon fill="white" stroke="none" points="-4,4 -4,-74 298,-74 298,4 -4,4"/>
<!-- gyro -->
<g id="node1" class="node"><title>gyro</title>
<polygon fill="#8e7fc8" stroke="none" points="124,-37 124,-66 180,-66 180,-37 124,-37"/>
<polygon fill="none" stroke="#3b3554" points="124,-37 124,-66 180,-66 180,-37 124,-37"/>
<text text-anchor="start" x="138.5" y="-52.3" font-family="Helvetica,sans-Serif" font-size="14.00" fill="#000000">gyro</text>
<text text-anchor="start" x="127.5" y="-43.1" font-family="Helvetica,sans-Serif" font-size="8.00" fill="#000000">MyGyroscope</text>
<polygon fill="#6a5f96" stroke="none" points="124,-20 124,-37 180,-37 180,-20 124,-20"/>
<polygon fill="none" stroke="#3b3554" points="124,-20 124,-37 180,-37 180,-20 124,-20"/>
<text text-anchor="start" x="127" y="-26" font-family="Helvetica,sans-Serif" font-size="10.00" fill="#ffffff">◎ TICK</text>
<polygon fill="#4f4770" stroke="none" points="124,-3 124,-20 180,-20 180,-3 124,-3"/>
<polygon fill="none" stroke="#3b3554" points="124,-3 124,-20 180,-20 180,-3 124,-3"/>
<text text-anchor="start" x="144" y="-9" font-family="Helvetica,sans-Serif" font-size="10.00" fill="#ffffff">OUT ◉</text>
</g>
<!-- #anon:27:34 -->
<g id="node3" class="node"><title>#anon:27:34</title>
<polygon fill="#471ca4" stroke="none" points="232,-20 232,-42 286,-42 286,-20 232,-20"/>
<polygon fill="none" stroke="#1d0b45" points="232,-20 232,-42 286,-42 286,-20 232,-20"/>
<text text-anchor="start" x="235.5" y="-27.3" font-family="Helvetica,sans-Serif" font-size="14.00" fill="#ffffff">console</text>
<polygon fill="#35157b" stroke="none" points="232,-3 232,-20 286,-20 286,-3 232,-3"/>
<polygon fill="none" stroke="#1d0b45" points="232,-3 232,-20 286,-20 286,-3 232,-3"/>
<text text-anchor="start" x="235" y="-9" font-family="Helvetica,sans-Serif" font-size="10.00" fill="#ffffff">◎ IN</text>
</g>
<!-- gyro&#45;&gt;#anon:27:34 -->
<g id="edge2" class="edge"><title>gyro:OUT_OUT:e&#45;&gt;#anon:27:34:IN_IN:w</title>
<path fill="none" stroke="#d5bb1c" stroke-width="2" d="M181,-11C201.66,-11 207.914,-11 226.548,-11"/>
<ellipse fill="#d5bb1c" stroke="#d5bb1c" stroke-width="2" cx="229" cy="-11" rx="2" ry="2"/>
</g>
<!-- timer -->
<g id="node2" class="node"><title>timer</title>
<polygon fill="#7f2fae" stroke="none" points="8,-37 8,-66 72,-66 72,-37 8,-37"/>
<polygon fill="none" stroke="#351348" points="8,-37 8,-66 72,-66 72,-37 8,-37"/>
<text text-anchor="start" x="11.5" y="-52.3" font-family="Helvetica,sans-Serif" font-size="14.00" fill="#ffffff">🕐 Timer</text>
<text text-anchor="start" x="30.5" y="-43.1" font-family="Helvetica,sans-Serif" font-size="8.00" fill="#ffffff">timer</text>
<polygon fill="#471a61" stroke="none" points="8,-20 8,-37 72,-37 72,-20 8,-20"/>
<polygon fill="none" stroke="#351348" points="8,-20 8,-37 72,-37 72,-20 8,-20"/>
<text text-anchor="start" x="36" y="-26" font-family="Helvetica,sans-Serif" font-size="10.00" fill="#ffffff">OUT ◉</text>
</g>
<!-- timer&#45;&gt;gyro -->
<g id="edge1" class="edge"><title>timer:OUT_OUT:e&#45;&gt;gyro:IN_TICK:w</title>
<path fill="none" stroke="#46585e" stroke-width="2" d="M73,-28C93.6597,-28 99.9141,-28 118.548,-28"/>
<ellipse fill="#46585e" stroke="#46585e" stroke-width="2" cx="121" cy="-28" rx="2" ry="2"/>
</g>
</g>
</svg>
