<?xml version="1.0" encoding="UTF-8" standalone="no"?>
<!DOCTYPE svg PUBLIC "-//W3C//DTD SVG 1.1//EN"
 "http://www.w3.org/Graphics/SVG/1.1/DTD/svg11.dtd">
<!-- Generated by graphviz version 2.36.0 (20140111.2315)
 -->
<!-- Title: fbp Pages: 1 -->
<svg width="400pt" height="318pt"
 viewBox="0.00 0.00 400.00 318.00" xmlns="http://www.w3.org/2000/svg" xmlns:xlink="http://www.w3.org/1999/xlink">
<g id="graph0" class="graph" transform="scale(1 1) rotate(0) translate(4 314)">
<title>fbp</title>
<polygon fill="white" stroke="none" points="-4,4 -4,-314 396,-314 396,4 -4,4"/>
<!-- BlobPath -->
<g id="node1" class="node"><title>BlobPath</title>
<polygon fill="#4e2e10" stroke="none" points="163,-21 163,-50 225,-50 225,-21 163,-21"/>
<polygon fill="none" stroke="#201206" points="163,-21 163,-50 225,-50 225,-21 163,-21"/>
<text text-anchor="start" x="166.5" y="-36.3" font-family="Helvetica,sans-Serif" font-size="14.00" fill="#ffffff">BlobPath</text>
<text text-anchor="start" x="178" y="-27.1" font-family="Helvetica,sans-Serif" font-size="8.00" fill="#ffffff">app/argv</text>
<polygon fill="#2b1909" stroke="none" points="163,-4 163,-21 225,-21 225,-4 163,-4"/>
<polygon fill="none" stroke="#201206" points="163,-4 163,-21 225,-21 225,-4 163,-4"/>
<text text-anchor="start" x="189" y="-10" font-family="Helvetica,sans-Serif" font-size="10.00" fill="#ffffff">OUT ◉</text>
</g>
<!-- Writer -->
<g id="node8" class="node"><title>Writer</title>
<polygon fill="#d4e0ba" stroke="none" points="309,-38 309,-67 355,-67 355,-38 309,-38"/>
<polygon fill="none" stroke="#595e4e" points="309,-38 309,-67 355,-67 355,-38 309,-38"/>
<text text-anchor="start" x="313.5" y="-53.3" font-family="Helvetica,sans-Serif" font-size="14.00" fill="#000000">Writer</text>
<text text-anchor="start" x="315.5" y="-44.1" font-family="Helvetica,sans-Serif" font-size="8.00" fill="#000000">file/writer</text>
<polygon fill="#9fa88b" stroke="none" points="309,-21 309,-38 355,-38 355,-21 309,-21"/>
<polygon fill="none" stroke="#595e4e" points="309,-21 309,-38 355,-38 355,-21 309,-21"/>
<text text-anchor="start" x="312" y="-27" font-family="Helvetica,sans-Serif" font-size="10.00" fill="#000000">◎ IN</text>
<polygon fill="#9fa88b" stroke="none" points="309,-4 309,-21 355,-21 355,-4 309,-4"/>
<polygon fill="none" stroke="#595e4e" points="309,-4 309,-21 355,-21 355,-4 309,-4"/>
<text text-anchor="start" x="312" y="-10" font-family="Helvetica,sans-Serif" font-size="10.00" fill="#000000">◎ PATH</text>
</g>
<!-- BlobPath&#45;&gt;Writer -->
<g id="edge6" class="edge"><title>BlobPath:OUT_OUT:e&#45;&gt;Writer:IN_PATH:w</title>
<path fill="none" stroke="#ad8ad4" stroke-width="2" d="M226,-12C261.021,-12 270.802,-12 303.851,-12"/>
<ellipse fill="#ad8ad4" stroke="#ad8ad4" stroke-width="2" cx="306" cy="-12" rx="2" ry="2"/>
</g>
<!-- get_string -->
<g id="node2" class="node"><title>get_string</title>
<polygon fill="#d07e6c" stroke="none" points="161,-261 161,-290 228,-290 228,-261 161,-261"/>
<polygon fill="none" stroke="#57342d" points="161,-261 161,-290 228,-290 228,-261 161,-261"/>
<text text-anchor="start" x="164.5" y="-276.3" font-family="Helvetica,sans-Serif" font-size="14.00" fill="#000000">get_string</text>
<text text-anchor="start" x="166" y="-267.1" font-family="Helvetica,sans-Serif" font-size="8.00" fill="#000000">http&#45;client/string</text>
<polygon fill="#9c5e51" stroke="none" points="161,-244 161,-261 228,-261 228,-244 161,-244"/>
<polygon fill="none" stroke="#57342d" points="161,-244 161,-261 228,-261 228,-244 161,-244"/>
<text text-anchor="start" x="164" y="-250" font-family="Helvetica,sans-Serif" font-size="10.00" fill="#ffffff">◎ GET</text>
<polygon fill="#75463c" stroke="none" points="161,-227 161,-244 228,-244 228,-227 161,-227"/>
<polygon fill="none" stroke="#57342d" points="161,-227 161,-244 228,-244 228,-227 161,-227"/>
<text text-anchor="start" x="192" y="-233" font-family="Helvetica,sans-Serif" font-size="10.00" fill="#ffffff">OUT ◉</text>
<polygon fill="#75463c" stroke="none" points="161,-210 161,-227 228,-227 228,-210 161,-210"/>
<polygon fill="none" stroke="#57342d" points="161,-210 161,-227 228,-227 228,-210 161,-210"/>
<text text-anchor="start" x="176" y="-216" font-family="Helvetica,sans-Serif" font-size="10.00" fill="#ffffff">ERROR ◉</text>
</g>
<!-- StringResponse -->
<g id="node3" class="node"><title>StringResponse</title>
<polygon fill="#471ca4" stroke="none" points="280,-277 280,-306 384,-306 384,-277 280,-277"/>
<polygon fill="none" stroke="#1d0b45" points="280,-277 280,-306 384,-306 384,-277 280,-277"/>
<text text-anchor="start" x="283.5" y="-292.3" font-family="Helvetica,sans-Serif" font-size="14.00" fill="#ffffff">StringResponse</text>
<text text-anchor="start" x="318" y="-283.1" font-family="Helvetica,sans-Serif" font-size="8.00" fill="#ffffff">console</text>
<polygon fill="#35157b" stroke="none" points="280,-260 280,-277 384,-277 384,-260 280,-260"/>
<polygon fill="none" stroke="#1d0b45" points="280,-260 280,-277 384,-277 384,-260 280,-260"/>
<text text-anchor="start" x="283" y="-266" font-family="Helvetica,sans-Serif" font-size="10.00" fill="#ffffff">◎ IN</text>
</g>
<!-- get_string&#45;&gt;StringResponse -->
<g id="edge1" class="edge"><title>get_string:OUT_OUT:e&#45;&gt;StringResponse:IN_IN:w</title>
<path fill="none" stroke="#94068a" stroke-width="2" d="M229,-235C254.17,-235 252.64,-264.489 274.89,-267.715"/>
<ellipse fill="#94068a" stroke="#94068a" stroke-width="2" cx="277.005" cy="-267.861" rx="2" ry="2"/>
</g>
<!-- ErrorString -->
<g id="node4" class="node"><title>ErrorString</title>
<polygon fill="#471ca4" stroke="none" points="296,-205 296,-234 369,-234 369,-205 296,-205"/>
<polygon fill="none" stroke="#1d0b45" points="296,-205 296,-234 369,-234 369,-205 296,-205"/>
<text text-anchor="start" x="299.5" y="-220.3" font-family="Helvetica,sans-Serif" font-size="14.00" fill="#ffffff">ErrorString</text>
<text text-anchor="start" x="318.5" y="-211.1" font-family="Helvetica,sans-Serif" font-size="8.00" fill="#ffffff">console</text>
<polygon fill="#35157b" stroke="none" points="296,-188 296,-205 369,-205 369,-188 296,-188"/>
<polygon fill="none" stroke="#1d0b45" points="296,-188 296,-205 369,-205 369,-188 296,-188"/>
<text text-anchor="start" x="299" y="-194" font-family="Helvetica,sans-Serif" font-size="10.00" fill="#ffffff">◎ IN</text>
</g>
<!-- get_string&#45;&gt;ErrorString -->
<g id="edge2" class="edge"><title>get_string:OUT_ERROR:e&#45;&gt;ErrorString:IN_IN:w</title>
<path fill="none" stroke="#5c972a" stroke-width="2" d="M229,-218C258.471,-218 263.631,-198.014 290.823,-196.14"/>
<ellipse fill="#5c972a" stroke="#5c972a" stroke-width="2" cx="293.001" cy="-196.067" rx="2" ry="2"/>
</g>
<!-- #anon:22:1 -->
<g id="node5" class="node"><title>#anon:22:1</title>
<polygon fill="#e8ea7a" stroke="none" points="11,-166 11,-188 106,-188 106,-166 11,-166"/>
<polygon fill="none" stroke="#616233" points="11,-166 11,-188 106,-188 106,-166 11,-166"/>
<text text-anchor="start" x="14.5" y="-173.3" font-family="Helvetica,sans-Serif" font-size="14.00" fill="#000000">constant/string</text>
<polygon fill="#828344" stroke="none" points="11,-149 11,-166 106,-166 106,-149 11,-149"/>
<polygon fill="none" stroke="#616233" points="11,-149 11,-166 106,-166 106,-149 11,-149"/>
<text text-anchor="start" x="70" y="-155" font-family="Helvetica,sans-Serif" font-size="10.00" fill="#ffffff">OUT ◉</text>
</g>
<!-- get_blob -->
<g id="node6" class="node"><title>get_blob</title>
<polygon fill="#d07e6c" stroke="none" points="165,-144 165,-173 224,-173 224,-144 165,-144"/>
<polygon fill="none" stroke="#57342d" points="165,-144 165,-173 224,-173 224,-144 165,-144"/>
<text text-anchor="start" x="168.5" y="-159.3" font-family="Helvetica,sans-Serif" font-size="14.00" fill="#000000">get_blob</text>
<text text-anchor="start" x="168.5" y="-150.1" font-family="Helvetica,sans-Serif" font-size="8.00" fill="#000000">http&#45;client/blob</text>
<polygon fill="#9c5e51" stroke="none" points="165,-127 165,-144 224,-144 224,-127 165,-127"/>
<polygon fill="none" stroke="#57342d" points="165,-127 165,-144 224,-144 224,-127 165,-127"/>
<text text-anchor="start" x="168" y="-133" font-family="Helvetica,sans-Serif" font-size="10.00" fill="#ffffff">◎ URL</text>
<polygon fill="#9c5e51" stroke="none" points="165,-110 165,-127 224,-127 224,-110 165,-110"/>
<polygon fill="none" stroke="#57342d" points="165,-110 165,-127 224,-127 224,-110 165,-110"/>
<text text-anchor="start" x="168" y="-116" font-family="Helvetica,sans-Serif" font-size="10.00" fill="#ffffff">◎ GET</text>
<polygon fill="#75463c" stroke="none" points="165,-93 165,-110 224,-110 224,-93 165,-93"/>
<polygon fill="none" stroke="#57342d" points="165,-93 165,-110 224,-110 224,-93 165,-93"/>
<text text-anchor="start" x="172" y="-99" font-family="Helvetica,sans-Serif" font-size="10.00" fill="#ffffff">ERROR ◉</text>
<polygon fill="#75463c" stroke="none" points="165,-76 165,-93 224,-93 224,-76 165,-76"/>
<polygon fill="none" stroke="#57342d" points="165,-76 165,-93 224,-93 224,-76 165,-76"/>
<text text-anchor="start" x="188" y="-82" font-family="Helvetica,sans-Serif" font-size="10.00" fill="#ffffff">OUT ◉</text>
</g>
<!-- #anon:22:1&#45;&gt;get_blob -->
<g id="edge3" class="edge"><title>#anon:22:1:OUT_OUT:e&#45;&gt;get_blob:IN_URL:w</title>
<path fill="none" stroke="#106c7e" stroke-width="2" d="M107,-157C132.521,-157 136.602,-138.234 159.778,-136.182"/>
<ellipse fill="#106c7e" stroke="#106c7e" stroke-width="2" cx="162.002" cy="-136.086" rx="2" ry="2"/>
</g>
<!-- ErrorBlob -->
<g id="node7" class="node"><title>ErrorBlob</title>
<polygon fill="#471ca4" stroke="none" points="300,-111 300,-140 365,-140 365,-111 300,-111"/>
<polygon fill="none" stroke="#1d0b45" points="300,-111 300,-140 365,-140 365,-111 300,-111"/>
<text text-anchor="start" x="303.5" y="-126.3" font-family="Helvetica,sans-Serif" font-size="14.00" fill="#ffffff">ErrorBlob</text>
<text text-anchor="start" x="318.5" y="-117.1" font-family="Helvetica,sans-Serif" font-size="8.00" fill="#ffffff">console</text>
<polygon fill="#35157b" stroke="none" points="300,-94 300,-111 365,-111 365,-94 300,-94"/>
<polygon fill="none" stroke="#1d0b45" points="300,-94 300,-111 365,-111 365,-94 300,-94"/>
<text text-anchor="start" x="303" y="-100" font-family="Helvetica,sans-Serif" font-size="10.00" fill="#ffffff">◎ IN</text>
</g>
<!-- get_blob&#45;&gt;ErrorBlob -->
<g id="edge4" class="edge"><title>get_blob:OUT_ERROR:e&#45;&gt;ErrorBlob:IN_IN:w</title>
<path fill="none" stroke="#bc8f18" stroke-width="2" d="M225,-101C256.479,-101 265.356,-101.916 294.893,-101.995"/>
<ellipse fill="#bc8f18" stroke="#bc8f18" stroke-width="2" cx="297" cy="-101.997" rx="2" ry="2"/>
</g>
<!-- get_blob&#45;&gt;Writer -->
<g id="edge5" class="edge"><title>get_blob:OUT_OUT:e&#45;&gt;Writer:IN_IN:w</title>
<path fill="none" stroke="#b03a3a" stroke-width="2" d="M225,-84C267.87,-84 264.043,-32.3838 303.994,-29.1578"/>
<ellipse fill="#b03a3a" stroke="#b03a3a" stroke-width="2" cx="306.002" cy="-29.0788" rx="2" ry="2"/>
</g>
<!-- #anon:30:1 -->
<g id="node9" class="node"><title>#anon:30:1</title>
<polygon fill="#e8ea7a" stroke="none" points="8,-262 8,-284 108,-284 108,-262 8,-262"/>
<polygon fill="none" stroke="#616233" points="8,-262 8,-284 108,-284 108,-262 8,-262"/>
<text text-anchor="start" x="11.5" y="-269.3" font-family="Helvetica,sans-Serif" font-size="14.00" fill="#000000">constant/empty</text>
<polygon fill="#828344" stroke="none" points="8,-245 8,-262 108,-262 108,-245 8,-245"/>
<polygon fill="none" stroke="#616233" points="8,-245 8,-262 108,-262 108,-245 8,-245"/>
<text text-anchor="start" x="72" y="-251" font-family="Helvetica,sans-Serif" font-size="10.00" fill="#ffffff">OUT ◉</text>
</g>
<!-- #anon:30:1&#45;&gt;get_string -->
<g id="edge7" class="edge"><title>#anon:30:1:OUT_OUT:e&#45;&gt;get_string:IN_GET:w</title>
<path fill="none" stroke="#3992e8" stroke-width="2" d="M109,-253C130.25,-253 136.559,-253 155.941,-253"/>
<ellipse fill="#3992e8" stroke="#3992e8" stroke-width="2" cx="158" cy="-253" rx="2" ry="2"/>
</g>
<!-- #anon:31:1 -->
<g id="node10" class="node"><title>#anon:31:1</title>
<polygon fill="#e8ea7a" stroke="none" points="8,-101 8,-123 108,-123 108,-101 8,-101"/>
<polygon fill="none" stroke="#616233" points="8,-101 8,-123 108,-123 108,-101 8,-101"/>
<text text-anchor="start" x="11.5" y="-108.3" font-family="Helvetica,sans-Serif" font-size="14.00" fill="#000000">constant/empty</text>
<polygon fill="#828344" stroke="none" points="8,-84 8,-101 108,-101 108,-84 8,-84"/>
<polygon fill="none" stroke="#616233" points="8,-84 8,-101 108,-101 108,-84 8,-84"/>
<text text-anchor="start" x="72" y="-90" font-family="Helvetica,sans-Serif" font-size="10.00" fill="#ffffff">OUT ◉</text>
</g>
<!-- #anon:31:1&#45;&gt;get_blob -->
<g id="edge8" class="edge"><title>#anon:31:1:OUT_OUT:e&#45;&gt;get_blob:IN_GET:w</title>
<path fill="none" stroke="#64b02e" stroke-width="2" d="M109,-92C134.56,-92 136.783,-115.234 159.79,-117.775"/>
<ellipse fill="#64b02e" stroke="#64b02e" stroke-width="2" cx="162.003" cy="-117.893" rx="2" ry="2"/>
</g>
</g>
</svg>
