<?xml version="1.0" encoding="UTF-8" standalone="no"?>
<!DOCTYPE svg PUBLIC "-//W3C//DTD SVG 1.1//EN"
 "http://www.w3.org/Graphics/SVG/1.1/DTD/svg11.dtd">
<!-- Generated by graphviz version 2.36.0 (20140111.2315)
 -->
<!-- Title: fbp Pages: 1 -->
<svg width="410pt" height="318pt"
 viewBox="0.00 0.00 410.00 318.00" xmlns="http://www.w3.org/2000/svg" xmlns:xlink="http://www.w3.org/1999/xlink">
<g id="graph0" class="graph" transform="scale(1 1) rotate(0) translate(4 314)">
<title>fbp</title>
<polygon fill="white" stroke="none" points="-4,4 -4,-314 406,-314 406,4 -4,4"/>
<!-- BlobPath -->
<g id="node1" class="node"><title>BlobPath</title>
<polygon fill="#4e2e10" stroke="none" points="168,-21 168,-50 230,-50 230,-21 168,-21"/>
<polygon fill="none" stroke="#201206" points="168,-21 168,-50 230,-50 230,-21 168,-21"/>
<text text-anchor="start" x="171.5" y="-36.3" font-family="Helvetica,sans-Serif" font-size="14.00" fill="#ffffff">BlobPath</text>
<text text-anchor="start" x="183" y="-27.1" font-family="Helvetica,sans-Serif" font-size="8.00" fill="#ffffff">app/argv</text>
<polygon fill="#2b1909" stroke="none" points="168,-4 168,-21 230,-21 230,-4 168,-4"/>
<polygon fill="none" stroke="#201206" points="168,-4 168,-21 230,-21 230,-4 168,-4"/>
<text text-anchor="start" x="194" y="-10" font-family="Helvetica,sans-Serif" font-size="10.00" fill="#ffffff">OUT ◉</text>
</g>
<!-- Writer -->
<g id="node8" class="node"><title>Writer</title>
<polygon fill="#d4e0ba" stroke="none" points="319,-38 319,-67 365,-67 365,-38 319,-38"/>
<polygon fill="none" stroke="#595e4e" points="319,-38 319,-67 365,-67 365,-38 319,-38"/>
<text text-anchor="start" x="323.5" y="-53.3" font-family="Helvetica,sans-Serif" font-size="14.00" fill="#000000">Writer</text>
<text text-anchor="start" x="325.5" y="-44.1" font-family="Helvetica,sans-Serif" font-size="8.00" fill="#000000">file/writer</text>
<polygon fill="#9fa88b" stroke="none" points="319,-21 319,-38 365,-38 365,-21 319,-21"/>
<polygon fill="none" stroke="#595e4e" points="319,-21 319,-38 365,-38 365,-21 319,-21"/>
<text text-anchor="start" x="322" y="-27" font-family="Helvetica,sans-Serif" font-size="10.00" fill="#000000">◎ IN</text>
<polygon fill="#9fa88b" stroke="none" points="319,-4 319,-21 365,-21 365,-4 319,-4"/>
<polygon fill="none" stroke="#595e4e" points="319,-4 319,-21 365,-21 365,-4 319,-4"/>
<text text-anchor="start" x="322" y="-10" font-family="Helvetica,sans-Serif" font-size="10.00" fill="#000000">◎ PATH</text>
</g>
<!-- BlobPath&#45;&gt;Writer -->
<g id="edge6" class="edge"><title>BlobPath:OUT:e&#45;&gt;Writer:PATH:w</title>
<path fill="none" stroke="#ad8ad4" stroke-width="2" d="M231,-12C268.156,-12 278.534,-12 313.598,-12"/>
<ellipse fill="#ad8ad4" stroke="#ad8ad4" stroke-width="2" cx="316" cy="-12" rx="2" ry="2"/>
</g>
<!-- get_string -->
<g id="node2" class="node"><title>get_string</title>
<polygon fill="#d07e6c" stroke="none" points="160,-261 160,-290 238,-290 238,-261 160,-261"/>
<polygon fill="none" stroke="#57342d" points="160,-261 160,-290 238,-290 238,-261 160,-261"/>
<text text-anchor="start" x="169" y="-276.3" font-family="Helvetica,sans-Serif" font-size="14.00" fill="#000000">get_string</text>
<text text-anchor="start" x="163.5" y="-267.1" font-family="Helvetica,sans-Serif" font-size="8.00" fill="#000000">http&#45;client/get&#45;string</text>
<polygon fill="#9c5e51" stroke="none" points="160,-244 160,-261 238,-261 238,-244 160,-244"/>
<polygon fill="none" stroke="#57342d" points="160,-244 160,-261 238,-261 238,-244 160,-244"/>
<text text-anchor="start" x="163" y="-250" font-family="Helvetica,sans-Serif" font-size="10.00" fill="#ffffff">◎ GET</text>
<polygon fill="#75463c" stroke="none" points="160,-227 160,-244 238,-244 238,-227 160,-227"/>
<polygon fill="none" stroke="#57342d" points="160,-227 160,-244 238,-244 238,-227 160,-227"/>
<text text-anchor="start" x="202" y="-233" font-family="Helvetica,sans-Serif" font-size="10.00" fill="#ffffff">OUT ◉</text>
<polygon fill="#75463c" stroke="none" points="160,-210 160,-227 238,-227 238,-210 160,-210"/>
<polygon fill="none" stroke="#57342d" points="160,-210 160,-227 238,-227 238,-210 160,-210"/>
<text text-anchor="start" x="186" y="-216" font-family="Helvetica,sans-Serif" font-size="10.00" fill="#ffffff">ERROR ◉</text>
</g>
<!-- StringResponse -->
<g id="node3" class="node"><title>StringResponse</title>
<polygon fill="#471ca4" stroke="none" points="290,-277 290,-306 394,-306 394,-277 290,-277"/>
<polygon fill="none" stroke="#1d0b45" points="290,-277 290,-306 394,-306 394,-277 290,-277"/>
<text text-anchor="start" x="293.5" y="-292.3" font-family="Helvetica,sans-Serif" font-size="14.00" fill="#ffffff">StringResponse</text>
<text text-anchor="start" x="328" y="-283.1" font-family="Helvetica,sans-Serif" font-size="8.00" fill="#ffffff">console</text>
<polygon fill="#35157b" stroke="none" points="290,-260 290,-277 394,-277 394,-260 290,-260"/>
<polygon fill="none" stroke="#1d0b45" points="290,-260 290,-277 394,-277 394,-260 290,-260"/>
<text text-anchor="start" x="293" y="-266" font-family="Helvetica,sans-Serif" font-size="10.00" fill="#ffffff">◎ IN</text>
</g>
<!-- get_string&#45;&gt;StringResponse -->
<g id="edge1" class="edge"><title>get_string:OUT:e&#45;&gt;StringResponse:IN:w</title>
<path fill="none" stroke="#404dc9" stroke-width="2" d="M239,-235C264.17,-235 262.64,-264.489 284.89,-267.715"/>
<ellipse fill="#404dc9" stroke="#404dc9" stroke-width="2" cx="287.005" cy="-267.861" rx="2" ry="2"/>
</g>
<!-- ErrorString -->
<g id="node4" class="node"><title>ErrorString</title>
<polygon fill="#471ca4" stroke="none" points="306,-205 306,-234 379,-234 379,-205 306,-205"/>
<polygon fill="none" stroke="#1d0b45" points="306,-205 306,-234 379,-234 379,-205 306,-205"/>
<text text-anchor="start" x="309.5" y="-220.3" font-family="Helvetica,sans-Serif" font-size="14.00" fill="#ffffff">ErrorString</text>
<text text-anchor="start" x="328.5" y="-211.1" font-family="Helvetica,sans-Serif" font-size="8.00" fill="#ffffff">console</text>
<polygon fill="#35157b" stroke="none" points="306,-188 306,-205 379,-205 379,-188 306,-188"/>
<polygon fill="none" stroke="#1d0b45" points="306,-188 306,-205 379,-205 379,-188 306,-188"/>
<text text-anchor="start" x="309" y="-194" font-family="Helvetica,sans-Serif" font-size="10.00" fill="#ffffff">◎ IN</text>
</g>
<!-- get_string&#45;&gt;ErrorString -->
<g id="edge2" class="edge"><title>get_string:ERROR:e&#45;&gt;ErrorString:IN:w</title>
<path fill="none" stroke="#3b928a" stroke-width="2" d="M239,-218C268.471,-218 273.631,-198.014 300.823,-196.14"/>
<ellipse fill="#3b928a" stroke="#3b928a" stroke-width="2" cx="303.001" cy="-196.067" rx="2" ry="2"/>
</g>
<!-- #anon:36:1 -->
<g id="node5" class="node"><title>#anon:36:1</title>
<polygon fill="#e8ea7a" stroke="none" points="11,-166 11,-188 106,-188 106,-166 11,-166"/>
<polygon fill="none" stroke="#616233" points="11,-166 11,-188 106,-188 106,-166 11,-166"/>
<text text-anchor="start" x="14.5" y="-173.3" font-family="Helvetica,sans-Serif" font-size="14.00" fill="#000000">constant/string</text>
<polygon fill="#828344" stroke="none" points="11,-149 11,-166 106,-166 106,-149 11,-149"/>
<polygon fill="none" stroke="#616233" points="11,-149 11,-166 106,-166 106,-149 11,-149"/>
<text text-anchor="start" x="70" y="-155" font-family="Helvetica,sans-Serif" font-size="10.00" fill="#ffffff">OUT ◉</text>
</g>
<!-- get_blob -->
<g id="node6" class="node"><title>get_blob</title>
<polygon fill="#d07e6c" stroke="none" points="162,-144 162,-173 236,-173 236,-144 162,-144"/>
<polygon fill="none" stroke="#57342d" points="162,-144 162,-173 236,-173 236,-144 162,-144"/>
<text text-anchor="start" x="173" y="-159.3" font-family="Helvetica,sans-Serif" font-size="14.00" fill="#000000">get_blob</text>
<text text-anchor="start" x="165.5" y="-150.1" font-family="Helvetica,sans-Serif" font-size="8.00" fill="#000000">http&#45;client/get&#45;blob</text>
<polygon fill="#9c5e51" stroke="none" points="162,-127 162,-144 236,-144 236,-127 162,-127"/>
<polygon fill="none" stroke="#57342d" points="162,-127 162,-144 236,-144 236,-127 162,-127"/>
<text text-anchor="start" x="165" y="-133" font-family="Helvetica,sans-Serif" font-size="10.00" fill="#ffffff">◎ URL</text>
<polygon fill="#9c5e51" stroke="none" points="162,-110 162,-127 236,-127 236,-110 162,-110"/>
<polygon fill="none" stroke="#57342d" points="162,-110 162,-127 236,-127 236,-110 162,-110"/>
<text text-anchor="start" x="165" y="-116" font-family="Helvetica,sans-Serif" font-size="10.00" fill="#ffffff">◎ GET</text>
<polygon fill="#75463c" stroke="none" points="162,-93 162,-110 236,-110 236,-93 162,-93"/>
<polygon fill="none" stroke="#57342d" points="162,-93 162,-110 236,-110 236,-93 162,-93"/>
<text text-anchor="start" x="184" y="-99" font-family="Helvetica,sans-Serif" font-size="10.00" fill="#ffffff">ERROR ◉</text>
<polygon fill="#75463c" stroke="none" points="162,-76 162,-93 236,-93 236,-76 162,-76"/>
<polygon fill="none" stroke="#57342d" points="162,-76 162,-93 236,-93 236,-76 162,-76"/>
<text text-anchor="start" x="200" y="-82" font-family="Helvetica,sans-Serif" font-size="10.00" fill="#ffffff">OUT ◉</text>
</g>
<!-- #anon:36:1&#45;&gt;get_blob -->
<g id="edge3" class="edge"><title>#anon:36:1:OUT:e&#45;&gt;get_blob:URL:w</title>
<path fill="none" stroke="#2bfa88" stroke-width="2" d="M107,-157C131.343,-157 134.906,-138.234 156.976,-136.182"/>
<ellipse fill="#2bfa88" stroke="#2bfa88" stroke-width="2" cx="159.002" cy="-136.09" rx="2" ry="2"/>
</g>
<!-- ErrorBlob -->
<g id="node7" class="node"><title>ErrorBlob</title>
<polygon fill="#471ca4" stroke="none" points="310,-111 310,-140 375,-140 375,-111 310,-111"/>
<polygon fill="none" stroke="#1d0b45" points="310,-111 310,-140 375,-140 375,-111 310,-111"/>
<text text-anchor="start" x="313.5" y="-126.3" font-family="Helvetica,sans-Serif" font-size="14.00" fill="#ffffff">ErrorBlob</text>
<text text-anchor="start" x="328.5" y="-117.1" font-family="Helvetica,sans-Serif" font-size="8.00" fill="#ffffff">console</text>
<polygon fill="#35157b" stroke="none" points="310,-94 310,-111 375,-111 375,-94 310,-94"/>
<polygon fill="none" stroke="#1d0b45" points="310,-94 310,-111 375,-111 375,-94 310,-94"/>
<text text-anchor="start" x="313" y="-100" font-family="Helvetica,sans-Serif" font-size="10.00" fill="#ffffff">◎ IN</text>
</g>
<!-- get_blob&#45;&gt;ErrorBlob -->
<g id="edge4" class="edge"><title>get_blob:ERROR:e&#45;&gt;ErrorBlob:IN:w</title>
<path fill="none" stroke="#471c53" stroke-width="2" d="M237,-101C267.503,-101 276.195,-101.908 304.653,-101.994"/>
<ellipse fill="#471c53" stroke="#471c53" stroke-width="2" cx="307" cy="-101.997" rx="2" ry="2"/>
</g>
<!-- get_blob&#45;&gt;Writer -->
<g id="edge5" class="edge"><title>get_blob:OUT:e&#45;&gt;Writer:IN:w</title>
<path fill="none" stroke="#af8c62" stroke-width="2" d="M237,-84C278.985,-84 274.848,-32.7992 313.59,-29.1992"/>
<ellipse fill="#af8c62" stroke="#af8c62" stroke-width="2" cx="316.002" cy="-29.0903" rx="2" ry="2"/>
</g>
<!-- #anon:44:1 -->
<g id="node9" class="node"><title>#anon:44:1</title>
<polygon fill="#e8ea7a" stroke="none" points="8,-262 8,-284 108,-284 108,-262 8,-262"/>
<polygon fill="none" stroke="#616233" points="8,-262 8,-284 108,-284 108,-262 8,-262"/>
<text text-anchor="start" x="11.5" y="-269.3" font-family="Helvetica,sans-Serif" font-size="14.00" fill="#000000">constant/empty</text>
<polygon fill="#828344" stroke="none" points="8,-245 8,-262 108,-262 108,-245 8,-245"/>
<polygon fill="none" stroke="#616233" points="8,-245 8,-262 108,-262 108,-245 8,-245"/>
<text text-anchor="start" x="72" y="-251" font-family="Helvetica,sans-Serif" font-size="10.00" fill="#ffffff">OUT ◉</text>
</g>
<!-- #anon:44:1&#45;&gt;get_string -->
<g id="edge7" class="edge"><title>#anon:44:1:OUT:e&#45;&gt;get_string:GET:w</title>
<path fill="none" stroke="#46089a" stroke-width="2" d="M109,-253C129.66,-253 135.914,-253 154.548,-253"/>
<ellipse fill="#46089a" stroke="#46089a" stroke-width="2" cx="157" cy="-253" rx="2" ry="2"/>
</g>
<!-- #anon:45:1 -->
<g id="node10" class="node"><title>#anon:45:1</title>
<polygon fill="#e8ea7a" stroke="none" points="8,-101 8,-123 108,-123 108,-101 8,-101"/>
<polygon fill="none" stroke="#616233" points="8,-101 8,-123 108,-123 108,-101 8,-101"/>
<text text-anchor="start" x="11.5" y="-108.3" font-family="Helvetica,sans-Serif" font-size="14.00" fill="#000000">constant/empty</text>
<polygon fill="#828344" stroke="none" points="8,-84 8,-101 108,-101 108,-84 8,-84"/>
<polygon fill="none" stroke="#616233" points="8,-84 8,-101 108,-101 108,-84 8,-84"/>
<text text-anchor="start" x="72" y="-90" font-family="Helvetica,sans-Serif" font-size="10.00" fill="#ffffff">OUT ◉</text>
</g>
<!-- #anon:45:1&#45;&gt;get_blob -->
<g id="edge8" class="edge"><title>#anon:45:1:OUT:e&#45;&gt;get_blob:GET:w</title>
<path fill="none" stroke="#bbba82" stroke-width="2" d="M109,-92C133.426,-92 135.049,-115.234 156.981,-117.775"/>
<ellipse fill="#bbba82" stroke="#bbba82" stroke-width="2" cx="159.003" cy="-117.888" rx="2" ry="2"/>
</g>
</g>
</svg>
