<?xml version="1.0" encoding="UTF-8" standalone="no"?>
<!DOCTYPE svg PUBLIC "-//W3C//DTD SVG 1.1//EN"
 "http://www.w3.org/Graphics/SVG/1.1/DTD/svg11.dtd">
<!-- Generated by graphviz version 2.36.0 (20140111.2315)
 -->
<!-- Title: fbp Pages: 1 -->
<svg width="692pt" height="378pt"
 viewBox="0.00 0.00 692.00 378.00" xmlns="http://www.w3.org/2000/svg" xmlns:xlink="http://www.w3.org/1999/xlink">
<g id="graph0" class="graph" transform="scale(1 1) rotate(0) translate(4 374.004)">
<title>fbp</title>
<polygon fill="white" stroke="none" points="-4,4 -4,-374.004 688,-374.004 688,4 -4,4"/>
<!-- timer -->
<g id="node1" class="node"><title>timer</title>
<polygon fill="#7f2fae" stroke="none" points="8,-157.004 8,-186.004 72,-186.004 72,-157.004 8,-157.004"/>
<polygon fill="none" stroke="#351348" points="8,-157.004 8,-186.004 72,-186.004 72,-157.004 8,-157.004"/>
<text text-anchor="start" x="11.5" y="-172.304" font-family="Helvetica,sans-Serif" font-size="14.00" fill="#ffffff">🕐 Timer</text>
<text text-anchor="start" x="30.5" y="-163.104" font-family="Helvetica,sans-Serif" font-size="8.00" fill="#ffffff">timer</text>
</g>
<!-- random -->
<g id="node2" class="node"><title>random</title>
<polygon fill="#90eede" stroke="none" points="13,-212.004 13,-241.004 67,-241.004 67,-212.004 13,-212.004"/>
<polygon fill="none" stroke="#3c635d" points="13,-212.004 13,-241.004 67,-241.004 67,-212.004 13,-212.004"/>
<text text-anchor="start" x="16.5" y="-227.304" font-family="Helvetica,sans-Serif" font-size="14.00" fill="#000000">random</text>
<text text-anchor="start" x="20.5" y="-218.104" font-family="Helvetica,sans-Serif" font-size="8.00" fill="#000000">random/int</text>
</g>
<!-- temp -->
<g id="node3" class="node"><title>temp</title>
<polygon fill="#254878" stroke="none" points="20,-285.004 20,-314.004 60,-314.004 60,-285.004 20,-285.004"/>
<polygon fill="none" stroke="#0f1e32" points="20,-285.004 20,-314.004 60,-314.004 60,-285.004 20,-285.004"/>
<text text-anchor="start" x="24.5" y="-300.304" font-family="Helvetica,sans-Serif" font-size="14.00" fill="#ffffff">temp</text>
<text text-anchor="start" x="26.5" y="-291.104" font-family="Helvetica,sans-Serif" font-size="8.00" fill="#ffffff">int/map</text>
<polygon fill="#142843" stroke="none" points="20,-268.004 20,-285.004 60,-285.004 60,-268.004 20,-268.004"/>
<polygon fill="none" stroke="#0f1e32" points="20,-268.004 20,-285.004 60,-285.004 60,-268.004 20,-268.004"/>
<text text-anchor="start" x="24" y="-274.004" font-family="Helvetica,sans-Serif" font-size="10.00" fill="#ffffff">OUT ◉</text>
</g>
<!-- led_map -->
<g id="node4" class="node"><title>led_map</title>
<polygon fill="#254878" stroke="none" points="124,-285.004 124,-314.004 184,-314.004 184,-285.004 124,-285.004"/>
<polygon fill="none" stroke="#0f1e32" points="124,-285.004 124,-314.004 184,-314.004 184,-285.004 124,-285.004"/>
<text text-anchor="start" x="127.5" y="-300.304" font-family="Helvetica,sans-Serif" font-size="14.00" fill="#ffffff">led_map</text>
<text text-anchor="start" x="140.5" y="-291.104" font-family="Helvetica,sans-Serif" font-size="8.00" fill="#ffffff">int/map</text>
<polygon fill="#1b365a" stroke="none" points="124,-268.004 124,-285.004 184,-285.004 184,-268.004 124,-268.004"/>
<polygon fill="none" stroke="#0f1e32" points="124,-268.004 124,-285.004 184,-285.004 184,-268.004 124,-268.004"/>
<text text-anchor="start" x="127" y="-274.004" font-family="Helvetica,sans-Serif" font-size="10.00" fill="#ffffff">◎ IN</text>
<polygon fill="#142843" stroke="none" points="124,-251.004 124,-268.004 184,-268.004 184,-251.004 124,-251.004"/>
<polygon fill="none" stroke="#0f1e32" points="124,-251.004 124,-268.004 184,-268.004 184,-251.004 124,-251.004"/>
<text text-anchor="start" x="148" y="-257.004" font-family="Helvetica,sans-Serif" font-size="10.00" fill="#ffffff">OUT ◉</text>
</g>
<!-- temp&#45;&gt;led_map -->
<g id="edge1" class="edge"><title>temp:OUT_OUT:e&#45;&gt;led_map:IN_IN:w</title>
<path fill="none" stroke="#a3812e" stroke-width="2" d="M61,-276.004C87.1562,-276.004 94.6915,-276.004 118.957,-276.004"/>
<ellipse fill="#a3812e" stroke="#a3812e" stroke-width="2" cx="121" cy="-276.004" rx="2" ry="2"/>
</g>
<!-- less -->
<g id="node5" class="node"><title>less</title>
<polygon fill="#254878" stroke="none" points="236,-228.004 236,-257.004 276,-257.004 276,-228.004 236,-228.004"/>
<polygon fill="none" stroke="#0f1e32" points="236,-228.004 236,-257.004 276,-257.004 276,-228.004 236,-228.004"/>
<text text-anchor="start" x="243.5" y="-243.304" font-family="Helvetica,sans-Serif" font-size="14.00" fill="#ffffff">less</text>
<text text-anchor="start" x="243.5" y="-234.104" font-family="Helvetica,sans-Serif" font-size="8.00" fill="#ffffff">int/less</text>
<polygon fill="#1b365a" stroke="none" points="236,-211.004 236,-228.004 276,-228.004 276,-211.004 236,-211.004"/>
<polygon fill="none" stroke="#0f1e32" points="236,-211.004 236,-228.004 276,-228.004 276,-211.004 236,-211.004"/>
<text text-anchor="start" x="239" y="-217.004" font-family="Helvetica,sans-Serif" font-size="10.00" fill="#ffffff">◎ IN</text>
<polygon fill="#142843" stroke="none" points="236,-194.004 236,-211.004 276,-211.004 276,-194.004 236,-194.004"/>
<polygon fill="none" stroke="#0f1e32" points="236,-194.004 236,-211.004 276,-211.004 276,-194.004 236,-194.004"/>
<text text-anchor="start" x="240" y="-200.004" font-family="Helvetica,sans-Serif" font-size="10.00" fill="#ffffff">OUT ◉</text>
</g>
<!-- led_map&#45;&gt;less -->
<g id="edge3" class="edge"><title>led_map:OUT_OUT:e&#45;&gt;less:IN_IN:w</title>
<path fill="none" stroke="#ce1568" stroke-width="2" d="M185,-259.004C212.013,-259.004 207.153,-222.963 230.929,-219.303"/>
<ellipse fill="#ce1568" stroke="#ce1568" stroke-width="2" cx="233.005" cy="-219.15" rx="2" ry="2"/>
</g>
<!-- counter -->
<g id="node6" class="node"><title>counter</title>
<polygon fill="#254878" stroke="none" points="333,-319.004 333,-348.004 409,-348.004 409,-319.004 333,-319.004"/>
<polygon fill="none" stroke="#0f1e32" points="333,-319.004 333,-348.004 409,-348.004 409,-319.004 333,-319.004"/>
<text text-anchor="start" x="348" y="-334.304" font-family="Helvetica,sans-Serif" font-size="14.00" fill="#ffffff">counter</text>
<text text-anchor="start" x="343.5" y="-325.104" font-family="Helvetica,sans-Serif" font-size="8.00" fill="#ffffff">int/accumulator</text>
<polygon fill="#1b365a" stroke="none" points="333,-302.004 333,-319.004 409,-319.004 409,-302.004 333,-302.004"/>
<polygon fill="none" stroke="#0f1e32" points="333,-302.004 333,-319.004 409,-319.004 409,-302.004 333,-302.004"/>
<text text-anchor="start" x="336" y="-308.004" font-family="Helvetica,sans-Serif" font-size="10.00" fill="#ffffff">◎ INC</text>
<polygon fill="#1b365a" stroke="none" points="333,-285.004 333,-302.004 409,-302.004 409,-285.004 333,-285.004"/>
<polygon fill="none" stroke="#0f1e32" points="333,-285.004 333,-302.004 409,-302.004 409,-285.004 333,-285.004"/>
<text text-anchor="start" x="336" y="-291.004" font-family="Helvetica,sans-Serif" font-size="10.00" fill="#ffffff">◎ RESET</text>
<polygon fill="#142843" stroke="none" points="333,-268.004 333,-285.004 409,-285.004 409,-268.004 333,-268.004"/>
<polygon fill="none" stroke="#0f1e32" points="333,-268.004 333,-285.004 409,-285.004 409,-268.004 333,-268.004"/>
<text text-anchor="start" x="373" y="-274.004" font-family="Helvetica,sans-Serif" font-size="10.00" fill="#ffffff">OUT ◉</text>
<polygon fill="#142843" stroke="none" points="333,-251.004 333,-268.004 409,-268.004 409,-251.004 333,-251.004"/>
<polygon fill="none" stroke="#0f1e32" points="333,-251.004 333,-268.004 409,-268.004 409,-251.004 333,-251.004"/>
<text text-anchor="start" x="337" y="-257.004" font-family="Helvetica,sans-Serif" font-size="10.00" fill="#ffffff">OVERFLOW ◉</text>
</g>
<!-- led_map&#45;&gt;counter -->
<g id="edge2" class="edge"><title>led_map:OUT_OUT:e&#45;&gt;counter:IN_INC:w</title>
<path fill="none" stroke="#a87ffc" stroke-width="2" d="M185,-259.004C218.297,-259.004 291.345,-307.021 327.747,-310.772"/>
<ellipse fill="#a87ffc" stroke="#a87ffc" stroke-width="2" cx="330.003" cy="-310.895" rx="2" ry="2"/>
</g>
<!-- less&#45;&gt;counter -->
<g id="edge13" class="edge"><title>less:OUT_OUT:e&#45;&gt;counter:IN_INC:w</title>
<path fill="none" stroke="#f97e9a" stroke-width="2" d="M277,-202.004C329.779,-202.004 280.584,-305.124 327.786,-310.764"/>
<ellipse fill="#f97e9a" stroke="#f97e9a" stroke-width="2" cx="330.003" cy="-310.89" rx="2" ry="2"/>
</g>
<!-- #anon:45:16 -->
<g id="node11" class="node"><title>#anon:45:16</title>
<polygon fill="#184294" stroke="none" points="329,-165.004 329,-187.004 414,-187.004 414,-165.004 329,-165.004"/>
<polygon fill="none" stroke="#091b3e" points="329,-165.004 329,-187.004 414,-187.004 414,-165.004 329,-165.004"/>
<text text-anchor="start" x="332.5" y="-172.304" font-family="Helvetica,sans-Serif" font-size="14.00" fill="#ffffff">boolean/filter</text>
<polygon fill="#12316f" stroke="none" points="329,-148.004 329,-165.004 414,-165.004 414,-148.004 329,-148.004"/>
<polygon fill="none" stroke="#091b3e" points="329,-148.004 329,-165.004 414,-165.004 414,-148.004 329,-148.004"/>
<text text-anchor="start" x="332" y="-154.004" font-family="Helvetica,sans-Serif" font-size="10.00" fill="#ffffff">◎ IN</text>
<polygon fill="#0d2453" stroke="none" points="329,-131.004 329,-148.004 414,-148.004 414,-131.004 329,-131.004"/>
<polygon fill="none" stroke="#091b3e" points="329,-131.004 329,-148.004 414,-148.004 414,-131.004 329,-131.004"/>
<text text-anchor="start" x="371" y="-137.004" font-family="Helvetica,sans-Serif" font-size="10.00" fill="#ffffff">TRUE ◉</text>
</g>
<!-- less&#45;&gt;#anon:45:16 -->
<g id="edge7" class="edge"><title>less:OUT_OUT:e&#45;&gt;#anon:45:16:IN_IN:w</title>
<path fill="none" stroke="#3d6f5e" stroke-width="2" d="M277,-202.004C306.094,-202.004 298.328,-160.215 323.967,-156.298"/>
<ellipse fill="#3d6f5e" stroke="#3d6f5e" stroke-width="2" cx="326.005" cy="-156.149" rx="2" ry="2"/>
</g>
<!-- #anon:46:16 -->
<g id="node12" class="node"><title>#anon:46:16</title>
<polygon fill="#184294" stroke="none" points="329,-83.0038 329,-105.004 414,-105.004 414,-83.0038 329,-83.0038"/>
<polygon fill="none" stroke="#091b3e" points="329,-83.0038 329,-105.004 414,-105.004 414,-83.0038 329,-83.0038"/>
<text text-anchor="start" x="332.5" y="-90.3038" font-family="Helvetica,sans-Serif" font-size="14.00" fill="#ffffff">boolean/filter</text>
<polygon fill="#12316f" stroke="none" points="329,-66.0038 329,-83.0038 414,-83.0038 414,-66.0038 329,-66.0038"/>
<polygon fill="none" stroke="#091b3e" points="329,-66.0038 329,-83.0038 414,-83.0038 414,-66.0038 329,-66.0038"/>
<text text-anchor="start" x="332" y="-72.0038" font-family="Helvetica,sans-Serif" font-size="10.00" fill="#ffffff">◎ IN</text>
<polygon fill="#0d2453" stroke="none" points="329,-49.0038 329,-66.0038 414,-66.0038 414,-49.0038 329,-49.0038"/>
<polygon fill="none" stroke="#091b3e" points="329,-49.0038 329,-66.0038 414,-66.0038 414,-49.0038 329,-49.0038"/>
<text text-anchor="start" x="368" y="-55.0038" font-family="Helvetica,sans-Serif" font-size="10.00" fill="#ffffff">FALSE ◉</text>
</g>
<!-- less&#45;&gt;#anon:46:16 -->
<g id="edge10" class="edge"><title>less:OUT_OUT:e&#45;&gt;#anon:46:16:IN_IN:w</title>
<path fill="none" stroke="#73d150" stroke-width="2" d="M277,-202.004C336.803,-202.004 270.039,-79.9335 323.909,-74.2114"/>
<ellipse fill="#73d150" stroke="#73d150" stroke-width="2" cx="326.003" cy="-74.1052" rx="2" ry="2"/>
</g>
<!-- counter&#45;&gt;counter -->
<g id="edge15" class="edge"><title>counter:OUT_OVERFLOW:e&#45;&gt;counter:IN_RESET:w</title>
<path fill="none" stroke="#28b4a2" stroke-width="2" d="M409,-259.004C437.5,-282.337 437.5,-370.004 371,-370.004 307.098,-370.004 304.601,-320.448 329.793,-295.872"/>
<ellipse fill="#28b4a2" stroke="#28b4a2" stroke-width="2" cx="331.509" cy="-294.337" rx="2.00002" ry="2.00002"/>
</g>
<!-- led_strip -->
<g id="node9" class="node"><title>led_strip</title>
<polygon fill="#48e6a0" stroke="none" points="609,-110.004 609,-139.004 676,-139.004 676,-110.004 609,-110.004"/>
<polygon fill="none" stroke="#1e6043" points="609,-110.004 609,-139.004 676,-139.004 676,-110.004 609,-110.004"/>
<text text-anchor="start" x="616.5" y="-125.304" font-family="Helvetica,sans-Serif" font-size="14.00" fill="#000000">led_strip</text>
<text text-anchor="start" x="612.5" y="-116.104" font-family="Helvetica,sans-Serif" font-size="8.00" fill="#000000">led&#45;strip/lpd8806</text>
<polygon fill="#36ac78" stroke="none" points="609,-93.0038 609,-110.004 676,-110.004 676,-93.0038 609,-93.0038"/>
<polygon fill="none" stroke="#1e6043" points="609,-93.0038 609,-110.004 676,-110.004 676,-93.0038 609,-93.0038"/>
<text text-anchor="start" x="612" y="-99.0038" font-family="Helvetica,sans-Serif" font-size="10.00" fill="#000000">◎ PIXEL</text>
<polygon fill="#36ac78" stroke="none" points="609,-76.0038 609,-93.0038 676,-93.0038 676,-76.0038 609,-76.0038"/>
<polygon fill="none" stroke="#1e6043" points="609,-76.0038 609,-93.0038 676,-93.0038 676,-76.0038 609,-76.0038"/>
<text text-anchor="start" x="612" y="-82.0038" font-family="Helvetica,sans-Serif" font-size="10.00" fill="#000000">◎ COLOR</text>
<polygon fill="#36ac78" stroke="none" points="609,-59.0038 609,-76.0038 676,-76.0038 676,-59.0038 609,-59.0038"/>
<polygon fill="none" stroke="#1e6043" points="609,-59.0038 609,-76.0038 676,-76.0038 676,-59.0038 609,-59.0038"/>
<text text-anchor="start" x="612" y="-65.0038" font-family="Helvetica,sans-Serif" font-size="10.00" fill="#000000">◎ FLUSH</text>
</g>
<!-- counter&#45;&gt;led_strip -->
<g id="edge6" class="edge"><title>counter:OUT_OUT:e&#45;&gt;led_strip:IN_PIXEL:w</title>
<path fill="none" stroke="#627a33" stroke-width="2" d="M410,-276.004C478.468,-276.004 510.089,-322.211 564,-280.004 627.038,-230.651 530.03,-106.472 603.87,-102.121"/>
<ellipse fill="#627a33" stroke="#627a33" stroke-width="2" cx="606.001" cy="-102.061" rx="2" ry="2"/>
</g>
<!-- counter&#45;&gt;led_strip -->
<g id="edge14" class="edge"><title>counter:OUT_OVERFLOW:e&#45;&gt;led_strip:IN_FLUSH:w</title>
<path fill="none" stroke="#4894c0" stroke-width="2" d="M410,-259.004C518.779,-259.004 373.913,-88.0132 458,-19.0038 494.417,10.8835 520.877,-0.0338684 564,-19.0038 589.145,-30.0651 580.123,-63.376 603.893,-66.7306"/>
<ellipse fill="#4894c0" stroke="#4894c0" stroke-width="2" cx="606.004" cy="-66.871" rx="2" ry="2"/>
</g>
<!-- #anon:42:19 -->
<g id="node10" class="node"><title>#anon:42:19</title>
<polygon fill="#254878" stroke="none" points="486,-245.004 486,-267.004 537,-267.004 537,-245.004 486,-245.004"/>
<polygon fill="none" stroke="#0f1e32" points="486,-245.004 486,-267.004 537,-267.004 537,-245.004 486,-245.004"/>
<text text-anchor="start" x="489.5" y="-252.304" font-family="Helvetica,sans-Serif" font-size="14.00" fill="#ffffff">int/filter</text>
<polygon fill="#1b365a" stroke="none" points="486,-228.004 486,-245.004 537,-245.004 537,-228.004 486,-228.004"/>
<polygon fill="none" stroke="#0f1e32" points="486,-228.004 486,-245.004 537,-245.004 537,-228.004 486,-228.004"/>
<text text-anchor="start" x="489" y="-234.004" font-family="Helvetica,sans-Serif" font-size="10.00" fill="#ffffff">◎ IN</text>
<polygon fill="#142843" stroke="none" points="486,-211.004 486,-228.004 537,-228.004 537,-211.004 486,-211.004"/>
<polygon fill="none" stroke="#0f1e32" points="486,-211.004 486,-228.004 537,-228.004 537,-211.004 486,-211.004"/>
<text text-anchor="start" x="501" y="-217.004" font-family="Helvetica,sans-Serif" font-size="10.00" fill="#ffffff">OUT ◉</text>
</g>
<!-- counter&#45;&gt;#anon:42:19 -->
<g id="edge4" class="edge"><title>counter:OUT_OUT:e&#45;&gt;#anon:42:19:IN_IN:w</title>
<path fill="none" stroke="#0853f1" stroke-width="2" d="M410,-276.004C446.302,-276.004 447.207,-239.068 480.744,-236.182"/>
<ellipse fill="#0853f1" stroke="#0853f1" stroke-width="2" cx="483.002" cy="-236.088" rx="2" ry="2"/>
</g>
<!-- blue -->
<g id="node7" class="node"><title>blue</title>
<polygon fill="#bd648a" stroke="none" points="466,-66.0038 466,-95.0038 556,-95.0038 556,-66.0038 466,-66.0038"/>
<polygon fill="none" stroke="#4e2a39" points="466,-66.0038 466,-95.0038 556,-95.0038 556,-66.0038 466,-66.0038"/>
<text text-anchor="start" x="498" y="-81.3038" font-family="Helvetica,sans-Serif" font-size="14.00" fill="#000000">blue</text>
<text text-anchor="start" x="469.5" y="-72.1038" font-family="Helvetica,sans-Serif" font-size="8.00" fill="#000000">converter/empty&#45;to&#45;rgb</text>
<polygon fill="#8d4b67" stroke="none" points="466,-49.0038 466,-66.0038 556,-66.0038 556,-49.0038 466,-49.0038"/>
<polygon fill="none" stroke="#4e2a39" points="466,-49.0038 466,-66.0038 556,-66.0038 556,-49.0038 466,-49.0038"/>
<text text-anchor="start" x="469" y="-55.0038" font-family="Helvetica,sans-Serif" font-size="10.00" fill="#ffffff">◎ IN</text>
<polygon fill="#69384d" stroke="none" points="466,-32.0038 466,-49.0038 556,-49.0038 556,-32.0038 466,-32.0038"/>
<polygon fill="none" stroke="#4e2a39" points="466,-32.0038 466,-49.0038 556,-49.0038 556,-32.0038 466,-32.0038"/>
<text text-anchor="start" x="520" y="-38.0038" font-family="Helvetica,sans-Serif" font-size="10.00" fill="#ffffff">OUT ◉</text>
</g>
<!-- blue&#45;&gt;led_strip -->
<g id="edge12" class="edge"><title>blue:OUT_OUT:e&#45;&gt;led_strip:IN_COLOR:w</title>
<path fill="none" stroke="#a19b2e" stroke-width="2" d="M557,-40.0038C585.416,-40.0038 578.865,-79.6485 603.729,-83.6749"/>
<ellipse fill="#a19b2e" stroke="#a19b2e" stroke-width="2" cx="606.006" cy="-83.8502" rx="2" ry="2"/>
</g>
<!-- red -->
<g id="node8" class="node"><title>red</title>
<polygon fill="#bd648a" stroke="none" points="466,-155.004 466,-184.004 556,-184.004 556,-155.004 466,-155.004"/>
<polygon fill="none" stroke="#4e2a39" points="466,-155.004 466,-184.004 556,-184.004 556,-155.004 466,-155.004"/>
<text text-anchor="start" x="501" y="-170.304" font-family="Helvetica,sans-Serif" font-size="14.00" fill="#000000">red</text>
<text text-anchor="start" x="469.5" y="-161.104" font-family="Helvetica,sans-Serif" font-size="8.00" fill="#000000">converter/empty&#45;to&#45;rgb</text>
<polygon fill="#8d4b67" stroke="none" points="466,-138.004 466,-155.004 556,-155.004 556,-138.004 466,-138.004"/>
<polygon fill="none" stroke="#4e2a39" points="466,-138.004 466,-155.004 556,-155.004 556,-138.004 466,-138.004"/>
<text text-anchor="start" x="469" y="-144.004" font-family="Helvetica,sans-Serif" font-size="10.00" fill="#ffffff">◎ IN</text>
<polygon fill="#69384d" stroke="none" points="466,-121.004 466,-138.004 556,-138.004 556,-121.004 466,-121.004"/>
<polygon fill="none" stroke="#4e2a39" points="466,-121.004 466,-138.004 556,-138.004 556,-121.004 466,-121.004"/>
<text text-anchor="start" x="520" y="-127.004" font-family="Helvetica,sans-Serif" font-size="10.00" fill="#ffffff">OUT ◉</text>
</g>
<!-- red&#45;&gt;led_strip -->
<g id="edge9" class="edge"><title>red:OUT_OUT:e&#45;&gt;led_strip:IN_COLOR:w</title>
<path fill="none" stroke="#ec8c64" stroke-width="2" d="M557,-129.004C585.812,-129.004 578.571,-88.1237 604.003,-84.2911"/>
<ellipse fill="#ec8c64" stroke="#ec8c64" stroke-width="2" cx="606.005" cy="-84.1472" rx="2" ry="2"/>
</g>
<!-- #anon:42:19&#45;&gt;less -->
<g id="edge5" class="edge"><title>#anon:42:19:OUT_OUT:e&#45;&gt;less:IN_IN:w</title>
<path fill="none" stroke="#090f5a" stroke-width="2" d="M538,-219.004C543.352,-219.004 540.879,-210.691 537,-207.004 528.257,-198.695 331.935,-201.748 320,-200.004 303.626,-197.611 300.41,-192.633 284,-190.504 262.844,-187.759 251.347,-175.686 236,-190.504 228.022,-198.207 223.536,-214.25 231.03,-218.14"/>
<ellipse fill="#090f5a" stroke="#090f5a" stroke-width="2" cx="233.046" cy="-218.579" rx="2.00001" ry="2.00001"/>
</g>
<!-- #anon:45:16&#45;&gt;red -->
<g id="edge8" class="edge"><title>#anon:45:16:OUT_TRUE:e&#45;&gt;red:IN_IN:w</title>
<path fill="none" stroke="#d151b2" stroke-width="2" d="M415,-139.004C436.037,-139.004 441.853,-145.156 460.987,-145.925"/>
<ellipse fill="#d151b2" stroke="#d151b2" stroke-width="2" cx="463" cy="-145.965" rx="2" ry="2"/>
</g>
<!-- #anon:46:16&#45;&gt;blue -->
<g id="edge11" class="edge"><title>#anon:46:16:OUT_FALSE:e&#45;&gt;blue:IN_IN:w</title>
<path fill="none" stroke="#7e7716" stroke-width="2" d="M415,-57.0038C435.66,-57.0038 441.914,-57.0038 460.548,-57.0038"/>
<ellipse fill="#7e7716" stroke="#7e7716" stroke-width="2" cx="463" cy="-57.0038" rx="2" ry="2"/>
</g>
</g>
</svg>
