<?xml version="1.0" encoding="UTF-8" standalone="no"?>
<!DOCTYPE svg PUBLIC "-//W3C//DTD SVG 1.1//EN"
 "http://www.w3.org/Graphics/SVG/1.1/DTD/svg11.dtd">
<!-- Generated by graphviz version 2.36.0 (20140111.2315)
 -->
<!-- Title: fbp Pages: 1 -->
<svg width="1366pt" height="533pt"
 viewBox="0.00 0.00 1366.00 533.00" xmlns="http://www.w3.org/2000/svg" xmlns:xlink="http://www.w3.org/1999/xlink">
<g id="graph0" class="graph" transform="scale(1 1) rotate(0) translate(4 529)">
<title>fbp</title>
<polygon fill="white" stroke="none" points="-4,4 -4,-529 1362,-529 1362,4 -4,4"/>
<!-- true -->
<g id="node1" class="node"><title>true</title>
<polygon fill="#e8ea7a" stroke="none" points="8,-284 8,-313 76,-313 76,-284 8,-284"/>
<polygon fill="none" stroke="#616233" points="8,-284 8,-313 76,-313 76,-284 8,-284"/>
<text text-anchor="start" x="30" y="-299.3" font-family="Helvetica,sans-Serif" font-size="14.00" fill="#000000">true</text>
<text text-anchor="start" x="11.5" y="-290.1" font-family="Helvetica,sans-Serif" font-size="8.00" fill="#000000">constant/boolean</text>
<polygon fill="#828344" stroke="none" points="8,-267 8,-284 76,-284 76,-267 8,-267"/>
<polygon fill="none" stroke="#616233" points="8,-267 8,-284 76,-284 76,-267 8,-267"/>
<text text-anchor="start" x="40" y="-273" font-family="Helvetica,sans-Serif" font-size="10.00" fill="#ffffff">OUT ◉</text>
</g>
<!-- timer_scroll -->
<g id="node8" class="node"><title>timer_scroll</title>
<polygon fill="#7f2fae" stroke="none" points="128,-283 128,-312 194,-312 194,-283 128,-283"/>
<polygon fill="none" stroke="#351348" points="128,-283 128,-312 194,-312 194,-283 128,-283"/>
<text text-anchor="start" x="132.5" y="-298.3" font-family="Helvetica,sans-Serif" font-size="14.00" fill="#ffffff">🕐 Timer</text>
<text text-anchor="start" x="151.5" y="-289.1" font-family="Helvetica,sans-Serif" font-size="8.00" fill="#ffffff">timer</text>
<polygon fill="#5f2382" stroke="none" points="128,-266 128,-283 194,-283 194,-266 128,-266"/>
<polygon fill="none" stroke="#351348" points="128,-266 128,-283 194,-283 194,-266 128,-266"/>
<text text-anchor="start" x="131" y="-272" font-family="Helvetica,sans-Serif" font-size="10.00" fill="#ffffff">◎ RESET</text>
<polygon fill="#5f2382" stroke="none" points="128,-249 128,-266 194,-266 194,-249 128,-249"/>
<polygon fill="none" stroke="#351348" points="128,-249 128,-266 194,-266 194,-249 128,-249"/>
<text text-anchor="start" x="131" y="-255" font-family="Helvetica,sans-Serif" font-size="10.00" fill="#ffffff">◎ ENABLED</text>
<polygon fill="#471a61" stroke="none" points="128,-232 128,-249 194,-249 194,-232 128,-232"/>
<polygon fill="none" stroke="#351348" points="128,-232 128,-249 194,-249 194,-232 128,-232"/>
<text text-anchor="start" x="158" y="-238" font-family="Helvetica,sans-Serif" font-size="10.00" fill="#ffffff">OUT ◉</text>
</g>
<!-- true&#45;&gt;timer_scroll -->
<g id="edge5" class="edge"><title>true:OUT:e&#45;&gt;timer_scroll:RESET:w</title>
<path fill="none" stroke="#9f6a42" stroke-width="2" d="M77,-275C97.6597,-275 103.914,-275 122.548,-275"/>
<ellipse fill="#9f6a42" stroke="#9f6a42" stroke-width="2" cx="125" cy="-275" rx="2" ry="2"/>
</g>
<!-- false -->
<g id="node2" class="node"><title>false</title>
<polygon fill="#e8ea7a" stroke="none" points="825,-360 825,-389 893,-389 893,-360 825,-360"/>
<polygon fill="none" stroke="#616233" points="825,-360 825,-389 893,-389 893,-360 825,-360"/>
<text text-anchor="start" x="844.5" y="-375.3" font-family="Helvetica,sans-Serif" font-size="14.00" fill="#000000">false</text>
<text text-anchor="start" x="828.5" y="-366.1" font-family="Helvetica,sans-Serif" font-size="8.00" fill="#000000">constant/boolean</text>
<polygon fill="#828344" stroke="none" points="825,-343 825,-360 893,-360 893,-343 825,-343"/>
<polygon fill="none" stroke="#616233" points="825,-343 825,-360 893,-360 893,-343 825,-343"/>
<text text-anchor="start" x="857" y="-349" font-family="Helvetica,sans-Serif" font-size="10.00" fill="#ffffff">OUT ◉</text>
</g>
<!-- timer_delay -->
<g id="node10" class="node"><title>timer_delay</title>
<polygon fill="#7f2fae" stroke="none" points="966,-354 966,-383 1032,-383 1032,-354 966,-354"/>
<polygon fill="none" stroke="#351348" points="966,-354 966,-383 1032,-383 1032,-354 966,-354"/>
<text text-anchor="start" x="970.5" y="-369.3" font-family="Helvetica,sans-Serif" font-size="14.00" fill="#ffffff">🕐 Timer</text>
<text text-anchor="start" x="989.5" y="-360.1" font-family="Helvetica,sans-Serif" font-size="8.00" fill="#ffffff">timer</text>
<polygon fill="#5f2382" stroke="none" points="966,-337 966,-354 1032,-354 1032,-337 966,-337"/>
<polygon fill="none" stroke="#351348" points="966,-337 966,-354 1032,-354 1032,-337 966,-337"/>
<text text-anchor="start" x="969" y="-343" font-family="Helvetica,sans-Serif" font-size="10.00" fill="#ffffff">◎ ENABLED</text>
<polygon fill="#5f2382" stroke="none" points="966,-320 966,-337 1032,-337 1032,-320 966,-320"/>
<polygon fill="none" stroke="#351348" points="966,-320 966,-337 1032,-337 1032,-320 966,-320"/>
<text text-anchor="start" x="969" y="-326" font-family="Helvetica,sans-Serif" font-size="10.00" fill="#ffffff">◎ RESET</text>
<polygon fill="#471a61" stroke="none" points="966,-303 966,-320 1032,-320 1032,-303 966,-303"/>
<polygon fill="none" stroke="#351348" points="966,-303 966,-320 1032,-320 1032,-303 966,-303"/>
<text text-anchor="start" x="996" y="-309" font-family="Helvetica,sans-Serif" font-size="10.00" fill="#ffffff">OUT ◉</text>
</g>
<!-- false&#45;&gt;timer_delay -->
<g id="edge6" class="edge"><title>false:OUT:e&#45;&gt;timer_delay:ENABLED:w</title>
<path fill="none" stroke="#47ccba" stroke-width="2" d="M894,-351C924.151,-351 932.589,-346.458 960.704,-346.032"/>
<ellipse fill="#47ccba" stroke="#47ccba" stroke-width="2" cx="963" cy="-346.015" rx="2" ry="2"/>
</g>
<!-- char_max -->
<g id="node3" class="node"><title>char_max</title>
<polygon fill="#e8ea7a" stroke="none" points="246,-160 246,-189 314,-189 314,-160 246,-160"/>
<polygon fill="none" stroke="#616233" points="246,-160 246,-189 314,-189 314,-160 246,-160"/>
<text text-anchor="start" x="249.5" y="-175.3" font-family="Helvetica,sans-Serif" font-size="14.00" fill="#000000">char_max</text>
<text text-anchor="start" x="259.5" y="-166.1" font-family="Helvetica,sans-Serif" font-size="8.00" fill="#000000">constant/int</text>
<polygon fill="#828344" stroke="none" points="246,-143 246,-160 314,-160 314,-143 246,-143"/>
<polygon fill="none" stroke="#616233" points="246,-143 246,-160 314,-160 314,-143 246,-143"/>
<text text-anchor="start" x="278" y="-149" font-family="Helvetica,sans-Serif" font-size="10.00" fill="#ffffff">OUT ◉</text>
</g>
<!-- comp_max -->
<g id="node11" class="node"><title>comp_max</title>
<polygon fill="#254878" stroke="none" points="367,-212 367,-241 442,-241 442,-212 367,-212"/>
<polygon fill="none" stroke="#0f1e32" points="367,-212 367,-241 442,-241 442,-212 367,-212"/>
<text text-anchor="start" x="370.5" y="-227.3" font-family="Helvetica,sans-Serif" font-size="14.00" fill="#ffffff">comp_max</text>
<text text-anchor="start" x="389" y="-218.1" font-family="Helvetica,sans-Serif" font-size="8.00" fill="#ffffff">int/equal</text>
<polygon fill="#1b365a" stroke="none" points="367,-195 367,-212 442,-212 442,-195 367,-195"/>
<polygon fill="none" stroke="#0f1e32" points="367,-195 367,-212 442,-212 442,-195 367,-195"/>
<text text-anchor="start" x="370" y="-201" font-family="Helvetica,sans-Serif" font-size="10.00" fill="#ffffff">◎ IN0</text>
<polygon fill="#1b365a" stroke="none" points="367,-178 367,-195 442,-195 442,-178 367,-178"/>
<polygon fill="none" stroke="#0f1e32" points="367,-178 367,-195 442,-195 442,-178 367,-178"/>
<text text-anchor="start" x="370" y="-184" font-family="Helvetica,sans-Serif" font-size="10.00" fill="#ffffff">◎ IN1</text>
<polygon fill="#142843" stroke="none" points="367,-161 367,-178 442,-178 442,-161 367,-161"/>
<polygon fill="none" stroke="#0f1e32" points="367,-161 367,-178 442,-178 442,-161 367,-161"/>
<text text-anchor="start" x="406" y="-167" font-family="Helvetica,sans-Serif" font-size="10.00" fill="#ffffff">OUT ◉</text>
</g>
<!-- char_max&#45;&gt;comp_max -->
<g id="edge8" class="edge"><title>char_max:OUT:e&#45;&gt;comp_max:IN1:w</title>
<path fill="none" stroke="#f9a51a" stroke-width="2" d="M315,-151C340.988,-151 338.85,-182.277 361.762,-185.697"/>
<ellipse fill="#f9a51a" stroke="#f9a51a" stroke-width="2" cx="364.005" cy="-185.858" rx="2" ry="2"/>
</g>
<!-- loops_switch -->
<g id="node4" class="node"><title>loops_switch</title>
<polygon fill="#184294" stroke="none" points="681,-173 681,-202 766,-202 766,-173 681,-173"/>
<polygon fill="none" stroke="#091b3e" points="681,-173 681,-202 766,-202 766,-173 681,-173"/>
<text text-anchor="start" x="684.5" y="-188.3" font-family="Helvetica,sans-Serif" font-size="14.00" fill="#ffffff">loops_switch</text>
<text text-anchor="start" x="697" y="-179.1" font-family="Helvetica,sans-Serif" font-size="8.00" fill="#ffffff">boolean/toggle</text>
<polygon fill="#12316f" stroke="none" points="681,-156 681,-173 766,-173 766,-156 681,-156"/>
<polygon fill="none" stroke="#091b3e" points="681,-156 681,-173 766,-173 766,-156 681,-156"/>
<text text-anchor="start" x="684" y="-162" font-family="Helvetica,sans-Serif" font-size="10.00" fill="#ffffff">◎ IN</text>
<polygon fill="#0d2453" stroke="none" points="681,-139 681,-156 766,-156 766,-139 681,-139"/>
<polygon fill="none" stroke="#091b3e" points="681,-139 681,-156 766,-156 766,-139 681,-139"/>
<text text-anchor="start" x="730" y="-145" font-family="Helvetica,sans-Serif" font-size="10.00" fill="#ffffff">OUT ◉</text>
</g>
<!-- end_of_loop -->
<g id="node13" class="node"><title>end_of_loop</title>
<polygon fill="#184294" stroke="none" points="818,-152 818,-181 900,-181 900,-152 818,-152"/>
<polygon fill="none" stroke="#091b3e" points="818,-152 818,-181 900,-181 900,-152 818,-152"/>
<text text-anchor="start" x="821.5" y="-167.3" font-family="Helvetica,sans-Serif" font-size="14.00" fill="#ffffff">end_of_loop</text>
<text text-anchor="start" x="836" y="-158.1" font-family="Helvetica,sans-Serif" font-size="8.00" fill="#ffffff">boolean/filter</text>
<polygon fill="#12316f" stroke="none" points="818,-135 818,-152 900,-152 900,-135 818,-135"/>
<polygon fill="none" stroke="#091b3e" points="818,-135 818,-152 900,-152 900,-135 818,-135"/>
<text text-anchor="start" x="821" y="-141" font-family="Helvetica,sans-Serif" font-size="10.00" fill="#ffffff">◎ IN</text>
<polygon fill="#0d2453" stroke="none" points="818,-118 818,-135 900,-135 900,-118 818,-118"/>
<polygon fill="none" stroke="#091b3e" points="818,-118 818,-135 900,-135 900,-118 818,-118"/>
<text text-anchor="start" x="857" y="-124" font-family="Helvetica,sans-Serif" font-size="10.00" fill="#ffffff">TRUE ◉</text>
<polygon fill="#0d2453" stroke="none" points="818,-101 818,-118 900,-118 900,-101 818,-101"/>
<polygon fill="none" stroke="#091b3e" points="818,-101 818,-118 900,-118 900,-101 818,-101"/>
<text text-anchor="start" x="854" y="-107" font-family="Helvetica,sans-Serif" font-size="10.00" fill="#ffffff">FALSE ◉</text>
</g>
<!-- loops_switch&#45;&gt;end_of_loop -->
<g id="edge11" class="edge"><title>loops_switch:OUT:e&#45;&gt;end_of_loop:IN:w</title>
<path fill="none" stroke="#cb9d46" stroke-width="2" d="M767,-147C787.697,-147 793.885,-144.407 812.541,-144.042"/>
<ellipse fill="#cb9d46" stroke="#cb9d46" stroke-width="2" cx="815" cy="-144.019" rx="2" ry="2"/>
</g>
<!-- initial_color -->
<g id="node5" class="node"><title>initial_color</title>
<polygon fill="#e8ea7a" stroke="none" points="1115,-492 1115,-521 1190,-521 1190,-492 1115,-492"/>
<polygon fill="none" stroke="#616233" points="1115,-492 1115,-521 1190,-521 1190,-492 1115,-492"/>
<text text-anchor="start" x="1118.5" y="-507.3" font-family="Helvetica,sans-Serif" font-size="14.00" fill="#000000">initial_color</text>
<text text-anchor="start" x="1130" y="-498.1" font-family="Helvetica,sans-Serif" font-size="8.00" fill="#000000">constant/rgb</text>
<polygon fill="#828344" stroke="none" points="1115,-475 1115,-492 1190,-492 1190,-475 1115,-475"/>
<polygon fill="none" stroke="#616233" points="1115,-475 1115,-492 1190,-492 1190,-475 1115,-475"/>
<text text-anchor="start" x="1154" y="-481" font-family="Helvetica,sans-Serif" font-size="10.00" fill="#ffffff">OUT ◉</text>
</g>
<!-- lcd -->
<g id="node6" class="node"><title>lcd</title>
<polygon fill="#05c9ea" stroke="none" points="1258,-309 1258,-338 1350,-338 1350,-309 1258,-309"/>
<polygon fill="none" stroke="#015462" points="1258,-309 1258,-338 1350,-338 1350,-309 1258,-309"/>
<text text-anchor="start" x="1295" y="-324.3" font-family="Helvetica,sans-Serif" font-size="14.00" fill="#000000">lcd</text>
<text text-anchor="start" x="1286.5" y="-315.1" font-family="Helvetica,sans-Serif" font-size="8.00" fill="#000000">LCDChar</text>
<polygon fill="#0396af" stroke="none" points="1258,-292 1258,-309 1350,-309 1350,-292 1258,-292"/>
<polygon fill="none" stroke="#015462" points="1258,-292 1258,-309 1350,-309 1350,-292 1258,-292"/>
<text text-anchor="start" x="1261" y="-298" font-family="Helvetica,sans-Serif" font-size="10.00" fill="#ffffff">◎ COLOR</text>
<polygon fill="#0396af" stroke="none" points="1258,-275 1258,-292 1350,-292 1350,-275 1258,-275"/>
<polygon fill="none" stroke="#015462" points="1258,-275 1258,-292 1350,-292 1350,-275 1258,-275"/>
<text text-anchor="start" x="1261" y="-281" font-family="Helvetica,sans-Serif" font-size="10.00" fill="#ffffff">◎ PUT_CHAR</text>
<polygon fill="#0396af" stroke="none" points="1258,-258 1258,-275 1350,-275 1350,-258 1258,-258"/>
<polygon fill="none" stroke="#015462" points="1258,-258 1258,-275 1350,-275 1350,-258 1258,-258"/>
<text text-anchor="start" x="1261" y="-264" font-family="Helvetica,sans-Serif" font-size="10.00" fill="#ffffff">◎ AUTO_SCROLL</text>
<polygon fill="#0396af" stroke="none" points="1258,-241 1258,-258 1350,-258 1350,-241 1258,-241"/>
<polygon fill="none" stroke="#015462" points="1258,-241 1258,-258 1350,-258 1350,-241 1258,-241"/>
<text text-anchor="start" x="1261" y="-247" font-family="Helvetica,sans-Serif" font-size="10.00" fill="#ffffff">◎ ROW</text>
<polygon fill="#0396af" stroke="none" points="1258,-224 1258,-241 1350,-241 1350,-224 1258,-224"/>
<polygon fill="none" stroke="#015462" points="1258,-224 1258,-241 1350,-241 1350,-224 1258,-224"/>
<text text-anchor="start" x="1261" y="-230" font-family="Helvetica,sans-Serif" font-size="10.00" fill="#ffffff">◎ COL</text>
<polygon fill="#0396af" stroke="none" points="1258,-207 1258,-224 1350,-224 1350,-207 1258,-207"/>
<polygon fill="none" stroke="#015462" points="1258,-207 1258,-224 1350,-224 1350,-207 1258,-207"/>
<text text-anchor="start" x="1261" y="-213" font-family="Helvetica,sans-Serif" font-size="10.00" fill="#ffffff">◎ CLEAR</text>
</g>
<!-- initial_color&#45;&gt;lcd -->
<g id="edge1" class="edge"><title>initial_color:OUT:e&#45;&gt;lcd:COLOR:w</title>
<path fill="none" stroke="#d32ab8" stroke-width="2" d="M1191,-483C1275.53,-483 1174.63,-307.342 1252.64,-301.167"/>
<ellipse fill="#d32ab8" stroke="#d32ab8" stroke-width="2" cx="1255" cy="-301.076" rx="2" ry="2"/>
</g>
<!-- acc -->
<g id="node7" class="node"><title>acc</title>
<polygon fill="#254878" stroke="none" points="249,-249 249,-278 311,-278 311,-249 249,-249"/>
<polygon fill="none" stroke="#0f1e32" points="249,-249 249,-278 311,-278 311,-249 249,-249"/>
<text text-anchor="start" x="269" y="-264.3" font-family="Helvetica,sans-Serif" font-size="14.00" fill="#ffffff">acc</text>
<text text-anchor="start" x="252.5" y="-255.1" font-family="Helvetica,sans-Serif" font-size="8.00" fill="#ffffff">int/accumulator</text>
<polygon fill="#1b365a" stroke="none" points="249,-232 249,-249 311,-249 311,-232 249,-232"/>
<polygon fill="none" stroke="#0f1e32" points="249,-232 249,-249 311,-249 311,-232 249,-232"/>
<text text-anchor="start" x="252" y="-238" font-family="Helvetica,sans-Serif" font-size="10.00" fill="#ffffff">◎ INC</text>
<polygon fill="#142843" stroke="none" points="249,-215 249,-232 311,-232 311,-215 249,-215"/>
<polygon fill="none" stroke="#0f1e32" points="249,-215 249,-232 311,-232 311,-215 249,-215"/>
<text text-anchor="start" x="275" y="-221" font-family="Helvetica,sans-Serif" font-size="10.00" fill="#ffffff">OUT ◉</text>
</g>
<!-- accumulator_to_char -->
<g id="node9" class="node"><title>accumulator_to_char</title>
<polygon fill="#bd648a" stroke="none" points="494,-420 494,-449 628,-449 628,-420 494,-420"/>
<polygon fill="none" stroke="#4e2a39" points="494,-420 494,-449 628,-449 628,-420 494,-420"/>
<text text-anchor="start" x="497.5" y="-435.3" font-family="Helvetica,sans-Serif" font-size="14.00" fill="#000000">accumulator_to_char</text>
<text text-anchor="start" x="524.5" y="-426.1" font-family="Helvetica,sans-Serif" font-size="8.00" fill="#000000">converter/int&#45;to&#45;byte</text>
<polygon fill="#8d4b67" stroke="none" points="494,-403 494,-420 628,-420 628,-403 494,-403"/>
<polygon fill="none" stroke="#4e2a39" points="494,-403 494,-420 628,-420 628,-403 494,-403"/>
<text text-anchor="start" x="497" y="-409" font-family="Helvetica,sans-Serif" font-size="10.00" fill="#ffffff">◎ IN</text>
<polygon fill="#69384d" stroke="none" points="494,-386 494,-403 628,-403 628,-386 494,-386"/>
<polygon fill="none" stroke="#4e2a39" points="494,-386 494,-403 628,-403 628,-386 494,-386"/>
<text text-anchor="start" x="592" y="-392" font-family="Helvetica,sans-Serif" font-size="10.00" fill="#ffffff">OUT ◉</text>
</g>
<!-- acc&#45;&gt;accumulator_to_char -->
<g id="edge3" class="edge"><title>acc:OUT:e&#45;&gt;accumulator_to_char:IN:w</title>
<path fill="none" stroke="#d84468" stroke-width="2" d="M312,-223C368.634,-223 431.963,-402.291 488.911,-410.695"/>
<ellipse fill="#d84468" stroke="#d84468" stroke-width="2" cx="491.006" cy="-410.851" rx="2" ry="2"/>
</g>
<!-- acc&#45;&gt;comp_max -->
<g id="edge7" class="edge"><title>acc:OUT:e&#45;&gt;comp_max:IN0:w</title>
<path fill="none" stroke="#957cba" stroke-width="2" d="M312,-223C335.952,-223 340.116,-206.161 361.749,-204.188"/>
<ellipse fill="#957cba" stroke="#957cba" stroke-width="2" cx="364.002" cy="-204.088" rx="2" ry="2"/>
</g>
<!-- timer_scroll&#45;&gt;acc -->
<g id="edge2" class="edge"><title>timer_scroll:OUT:e&#45;&gt;acc:INC:w</title>
<path fill="none" stroke="#03c534" stroke-width="2" d="M195,-240C217.083,-240 223.639,-240 243.782,-240"/>
<ellipse fill="#03c534" stroke="#03c534" stroke-width="2" cx="246" cy="-240" rx="2" ry="2"/>
</g>
<!-- accumulator_to_char&#45;&gt;lcd -->
<g id="edge4" class="edge"><title>accumulator_to_char:OUT:e&#45;&gt;lcd:PUT_CHAR:w</title>
<path fill="none" stroke="#3f108e" stroke-width="2" d="M629,-394C733.082,-394 753.918,-443 858,-443 858,-443 858,-443 1000,-443 1095.53,-443 1139.84,-483.213 1214,-423 1263.03,-383.194 1195.64,-288.573 1252.67,-284.16"/>
<ellipse fill="#3f108e" stroke="#3f108e" stroke-width="2" cx="1255" cy="-284.074" rx="2" ry="2"/>
</g>
<!-- timer_delay&#45;&gt;lcd -->
<g id="edge22" class="edge"><title>timer_delay:OUT:e&#45;&gt;lcd:CLEAR:w</title>
<path fill="none" stroke="#de662e" stroke-width="2" d="M1033,-311C1071.76,-311 1056.33,-264.194 1090,-245 1154.23,-208.384 1180.56,-214.73 1252.64,-214.992"/>
<ellipse fill="#de662e" stroke="#de662e" stroke-width="2" cx="1255" cy="-214.996" rx="2" ry="2"/>
</g>
<!-- timer_delay&#45;&gt;acc -->
<g id="edge21" class="edge"><title>timer_delay:OUT:e&#45;&gt;acc:INC:w</title>
<path fill="none" stroke="#4d4482" stroke-width="2" d="M403,-311C382.326,-307.637 373.716,-310.846 358,-297 326.661,-269.39 354.131,-234.089 319,-211.5 305.916,-203.087 260.191,-200.695 249,-211.5 239.882,-220.304 235.326,-240 248,-240"/>
<path fill="none" stroke="#4d4482" stroke-width="2" d="M1033,-311C1038.35,-311 1035.94,-302.624 1032,-299 1007.8,-276.731 990.887,-298.643 958,-299 713.619,-301.651 649.626,-341.49 409.268,-311.537"/>
<ellipse fill="#4d4482" stroke="#4d4482" stroke-width="2" cx="406.984" cy="-311.25" rx="2.00001" ry="2.00001"/>
</g>
<!-- timer_delay&#45;&gt;timer_scroll -->
<g id="edge23" class="edge"><title>timer_delay:OUT:e&#45;&gt;timer_scroll:RESET:w</title>
<path fill="none" stroke="#ce25dc" stroke-width="2" d="M403,-311C282.351,-291.375 215.507,-400.346 128,-315 115.269,-302.583 109.217,-275 127,-275"/>
</g>
<!-- unset_autoscroll -->
<g id="node16" class="node"><title>unset_autoscroll</title>
<polygon fill="#bd648a" stroke="none" points="1099,-292 1099,-321 1206,-321 1206,-292 1099,-292"/>
<polygon fill="none" stroke="#4e2a39" points="1099,-292 1099,-321 1206,-321 1206,-292 1099,-292"/>
<text text-anchor="start" x="1103" y="-307.3" font-family="Helvetica,sans-Serif" font-size="14.00" fill="#000000">unset_autoscroll</text>
<text text-anchor="start" x="1102.5" y="-298.1" font-family="Helvetica,sans-Serif" font-size="8.00" fill="#000000">converter/empty&#45;to&#45;boolean</text>
<polygon fill="#8d4b67" stroke="none" points="1099,-275 1099,-292 1206,-292 1206,-275 1099,-275"/>
<polygon fill="none" stroke="#4e2a39" points="1099,-275 1099,-292 1206,-292 1206,-275 1099,-275"/>
<text text-anchor="start" x="1102" y="-281" font-family="Helvetica,sans-Serif" font-size="10.00" fill="#ffffff">◎ IN</text>
<polygon fill="#69384d" stroke="none" points="1099,-258 1099,-275 1206,-275 1206,-258 1099,-258"/>
<polygon fill="none" stroke="#4e2a39" points="1099,-258 1099,-275 1206,-275 1206,-258 1099,-258"/>
<text text-anchor="start" x="1170" y="-264" font-family="Helvetica,sans-Serif" font-size="10.00" fill="#ffffff">OUT ◉</text>
</g>
<!-- timer_delay&#45;&gt;unset_autoscroll -->
<g id="edge19" class="edge"><title>timer_delay:OUT:e&#45;&gt;unset_autoscroll:IN:w</title>
<path fill="none" stroke="#aa3d72" stroke-width="2" d="M1033,-311C1062.98,-311 1066.28,-285.563 1093.76,-283.179"/>
<ellipse fill="#aa3d72" stroke="#aa3d72" stroke-width="2" cx="1096" cy="-283.084" rx="2" ry="2"/>
</g>
<!-- end_of_delay -->
<g id="node17" class="node"><title>end_of_delay</title>
<polygon fill="#bd648a" stroke="none" points="1099,-381 1099,-410 1206,-410 1206,-381 1099,-381"/>
<polygon fill="none" stroke="#4e2a39" points="1099,-381 1099,-410 1206,-410 1206,-381 1099,-381"/>
<text text-anchor="start" x="1111.5" y="-396.3" font-family="Helvetica,sans-Serif" font-size="14.00" fill="#000000">end_of_delay</text>
<text text-anchor="start" x="1102.5" y="-387.1" font-family="Helvetica,sans-Serif" font-size="8.00" fill="#000000">converter/empty&#45;to&#45;boolean</text>
<polygon fill="#8d4b67" stroke="none" points="1099,-364 1099,-381 1206,-381 1206,-364 1099,-364"/>
<polygon fill="none" stroke="#4e2a39" points="1099,-364 1099,-381 1206,-381 1206,-364 1099,-364"/>
<text text-anchor="start" x="1102" y="-370" font-family="Helvetica,sans-Serif" font-size="10.00" fill="#ffffff">◎ IN</text>
<polygon fill="#69384d" stroke="none" points="1099,-347 1099,-364 1206,-364 1206,-347 1099,-347"/>
<polygon fill="none" stroke="#4e2a39" points="1099,-347 1099,-364 1206,-364 1206,-347 1099,-347"/>
<text text-anchor="start" x="1170" y="-353" font-family="Helvetica,sans-Serif" font-size="10.00" fill="#ffffff">OUT ◉</text>
</g>
<!-- timer_delay&#45;&gt;end_of_delay -->
<g id="edge24" class="edge"><title>timer_delay:OUT:e&#45;&gt;end_of_delay:IN:w</title>
<path fill="none" stroke="#cd877c" stroke-width="2" d="M1033,-311C1071.07,-311 1059.41,-367.327 1093.6,-371.728"/>
<ellipse fill="#cd877c" stroke="#cd877c" stroke-width="2" cx="1096" cy="-371.877" rx="2" ry="2"/>
</g>
<!-- bool_to_pulse0 -->
<g id="node12" class="node"><title>bool_to_pulse0</title>
<polygon fill="#bd648a" stroke="none" points="508,-186 508,-215 615,-215 615,-186 508,-186"/>
<polygon fill="none" stroke="#4e2a39" points="508,-186 508,-215 615,-215 615,-186 508,-186"/>
<text text-anchor="start" x="515.5" y="-201.3" font-family="Helvetica,sans-Serif" font-size="14.00" fill="#000000">bool_to_pulse0</text>
<text text-anchor="start" x="511.5" y="-192.1" font-family="Helvetica,sans-Serif" font-size="8.00" fill="#000000">converter/boolean&#45;to&#45;empty</text>
<polygon fill="#8d4b67" stroke="none" points="508,-169 508,-186 615,-186 615,-169 508,-169"/>
<polygon fill="none" stroke="#4e2a39" points="508,-169 508,-186 615,-186 615,-169 508,-169"/>
<text text-anchor="start" x="511" y="-175" font-family="Helvetica,sans-Serif" font-size="10.00" fill="#ffffff">◎ PULSE_IF_TRUE</text>
<polygon fill="#69384d" stroke="none" points="508,-152 508,-169 615,-169 615,-152 508,-152"/>
<polygon fill="none" stroke="#4e2a39" points="508,-152 508,-169 615,-169 615,-152 508,-152"/>
<text text-anchor="start" x="579" y="-158" font-family="Helvetica,sans-Serif" font-size="10.00" fill="#ffffff">OUT ◉</text>
</g>
<!-- comp_max&#45;&gt;bool_to_pulse0 -->
<g id="edge9" class="edge"><title>comp_max:OUT:e&#45;&gt;bool_to_pulse0:PULSE_IF_TRUE:w</title>
<path fill="none" stroke="#774c95" stroke-width="2" d="M443,-169C470.21,-169 477.6,-176.208 502.797,-176.94"/>
<ellipse fill="#774c95" stroke="#774c95" stroke-width="2" cx="505" cy="-176.972" rx="2" ry="2"/>
</g>
<!-- bool_to_pulse0&#45;&gt;loops_switch -->
<g id="edge10" class="edge"><title>bool_to_pulse0:OUT:e&#45;&gt;loops_switch:IN:w</title>
<path fill="none" stroke="#b7a358" stroke-width="2" d="M616,-160C643.053,-160 650.734,-163.604 675.819,-163.97"/>
<ellipse fill="#b7a358" stroke="#b7a358" stroke-width="2" cx="678" cy="-163.986" rx="2" ry="2"/>
</g>
<!-- end_of_loop&#45;&gt;lcd -->
<g id="edge14" class="edge"><title>end_of_loop:TRUE:e&#45;&gt;lcd:AUTO_SCROLL:w</title>
<path fill="none" stroke="#81a44e" stroke-width="2" d="M901,-126C927.715,-126 920.131,-156.002 944,-168 1052.57,-222.574 1109.32,-149.3 1214,-211 1239.48,-226.017 1227.26,-262.372 1252.93,-265.748"/>
<ellipse fill="#81a44e" stroke="#81a44e" stroke-width="2" cx="1255" cy="-265.876" rx="2" ry="2"/>
</g>
<!-- end_of_loop&#45;&gt;timer_scroll -->
<g id="edge17" class="edge"><title>end_of_loop:FALSE:e&#45;&gt;timer_scroll:ENABLED:w</title>
<path fill="none" stroke="#3b38d2" stroke-width="2" d="M901,-109C906.352,-109 903.938,-100.624 900,-97 870.565,-69.9156 849.992,-96.194 810,-97 699.711,-99.2227 672.312,-107 562,-107 403,-107 403,-107 403,-107 328.958,-107 305.205,-98.923 238,-130 140.165,-175.241 107.449,-246.131 122.719,-255.876"/>
<ellipse fill="#3b38d2" stroke="#3b38d2" stroke-width="2" cx="125.066" cy="-256.492" rx="2.00001" ry="2.00001"/>
</g>
<!-- end_of_loop&#45;&gt;timer_delay -->
<g id="edge18" class="edge"><title>end_of_loop:FALSE:e&#45;&gt;timer_delay:RESET:w</title>
<path fill="none" stroke="#2389b8" stroke-width="2" d="M901,-109C1001.02,-109 867.346,-322.053 960.974,-327.878"/>
<ellipse fill="#2389b8" stroke="#2389b8" stroke-width="2" cx="963.001" cy="-327.94" rx="2" ry="2"/>
</g>
<!-- set_col -->
<g id="node14" class="node"><title>set_col</title>
<polygon fill="#bd648a" stroke="none" points="953,-37 953,-66 1046,-66 1046,-37 953,-37"/>
<polygon fill="none" stroke="#4e2a39" points="953,-37 953,-66 1046,-66 1046,-37 953,-37"/>
<text text-anchor="start" x="978" y="-52.3" font-family="Helvetica,sans-Serif" font-size="14.00" fill="#000000">set_col</text>
<text text-anchor="start" x="956.5" y="-43.1" font-family="Helvetica,sans-Serif" font-size="8.00" fill="#000000">converter/boolean&#45;to&#45;int</text>
<polygon fill="#8d4b67" stroke="none" points="953,-20 953,-37 1046,-37 1046,-20 953,-20"/>
<polygon fill="none" stroke="#4e2a39" points="953,-20 953,-37 1046,-37 1046,-20 953,-20"/>
<text text-anchor="start" x="956" y="-26" font-family="Helvetica,sans-Serif" font-size="10.00" fill="#ffffff">◎ IN</text>
<polygon fill="#69384d" stroke="none" points="953,-3 953,-20 1046,-20 1046,-3 953,-3"/>
<polygon fill="none" stroke="#4e2a39" points="953,-3 953,-20 1046,-20 1046,-3 953,-3"/>
<text text-anchor="start" x="1010" y="-9" font-family="Helvetica,sans-Serif" font-size="10.00" fill="#ffffff">OUT ◉</text>
</g>
<!-- end_of_loop&#45;&gt;set_col -->
<g id="edge12" class="edge"><title>end_of_loop:TRUE:e&#45;&gt;set_col:IN:w</title>
<path fill="none" stroke="#458808" stroke-width="2" d="M901,-126C948.662,-126 905.582,-33.6581 947.928,-28.2474"/>
<ellipse fill="#458808" stroke="#458808" stroke-width="2" cx="950.004" cy="-28.1213" rx="2" ry="2"/>
</g>
<!-- set_row -->
<g id="node15" class="node"><title>set_row</title>
<polygon fill="#bd648a" stroke="none" points="953,-126 953,-155 1046,-155 1046,-126 953,-126"/>
<polygon fill="none" stroke="#4e2a39" points="953,-126 953,-155 1046,-155 1046,-126 953,-126"/>
<text text-anchor="start" x="975.5" y="-141.3" font-family="Helvetica,sans-Serif" font-size="14.00" fill="#000000">set_row</text>
<text text-anchor="start" x="956.5" y="-132.1" font-family="Helvetica,sans-Serif" font-size="8.00" fill="#000000">converter/boolean&#45;to&#45;int</text>
<polygon fill="#8d4b67" stroke="none" points="953,-109 953,-126 1046,-126 1046,-109 953,-109"/>
<polygon fill="none" stroke="#4e2a39" points="953,-109 953,-126 1046,-126 1046,-109 953,-109"/>
<text text-anchor="start" x="956" y="-115" font-family="Helvetica,sans-Serif" font-size="10.00" fill="#ffffff">◎ IN</text>
<polygon fill="#69384d" stroke="none" points="953,-92 953,-109 1046,-109 1046,-92 953,-92"/>
<polygon fill="none" stroke="#4e2a39" points="953,-92 953,-109 1046,-109 1046,-92 953,-92"/>
<text text-anchor="start" x="1010" y="-98" font-family="Helvetica,sans-Serif" font-size="10.00" fill="#ffffff">OUT ◉</text>
</g>
<!-- end_of_loop&#45;&gt;set_row -->
<g id="edge13" class="edge"><title>end_of_loop:TRUE:e&#45;&gt;set_row:IN:w</title>
<path fill="none" stroke="#964a1a" stroke-width="2" d="M901,-126C922.578,-126 928.292,-118.09 947.887,-117.101"/>
<ellipse fill="#964a1a" stroke="#964a1a" stroke-width="2" cx="950.001" cy="-117.049" rx="2" ry="2"/>
</g>
<!-- set_col&#45;&gt;lcd -->
<g id="edge16" class="edge"><title>set_col:OUT:e&#45;&gt;lcd:COL:w</title>
<path fill="none" stroke="#73c580" stroke-width="2" d="M1047,-11C1131.1,-11 1159.94,-35.5668 1214,-100 1252.73,-146.162 1197.98,-228.049 1252.86,-231.862"/>
<ellipse fill="#73c580" stroke="#73c580" stroke-width="2" cx="1255" cy="-231.933" rx="2" ry="2"/>
</g>
<!-- set_row&#45;&gt;lcd -->
<g id="edge15" class="edge"><title>set_row:OUT:e&#45;&gt;lcd:ROW:w</title>
<path fill="none" stroke="#6f20da" stroke-width="2" d="M1047,-100C1128.18,-100 1153.7,-119.64 1214,-174 1241.42,-198.723 1220.37,-245.187 1252.78,-248.779"/>
<ellipse fill="#6f20da" stroke="#6f20da" stroke-width="2" cx="1255" cy="-248.895" rx="2" ry="2"/>
</g>
<!-- unset_autoscroll&#45;&gt;lcd -->
<g id="edge20" class="edge"><title>unset_autoscroll:OUT:e&#45;&gt;lcd:AUTO_SCROLL:w</title>
<path fill="none" stroke="#61d160" stroke-width="2" d="M1207,-266C1227.66,-266 1233.91,-266 1252.55,-266"/>
<ellipse fill="#61d160" stroke="#61d160" stroke-width="2" cx="1255" cy="-266" rx="2" ry="2"/>
</g>
<!-- end_of_delay&#45;&gt;timer_delay -->
<g id="edge25" class="edge"><title>end_of_delay:OUT:e&#45;&gt;timer_delay:ENABLED:w</title>
<path fill="none" stroke="#e8b40a" stroke-width="2" d="M1207,-355C1212.13,-355 1209.78,-346.967 1206,-343.5 1187,-326.08 1114.2,-334.606 1090,-343.5 1062.63,-353.562 1067.37,-375.938 1040,-386 1009.13,-397.347 989.545,-408.964 966,-386 954.363,-374.65 948.306,-350.629 960.932,-346.584"/>
<ellipse fill="#e8b40a" stroke="#e8b40a" stroke-width="2" cx="963.02" cy="-346.284" rx="2.00001" ry="2.00001"/>
</g>
</g>
</svg>
