<?xml version="1.0" encoding="UTF-8" standalone="no"?>
<!DOCTYPE svg PUBLIC "-//W3C//DTD SVG 1.1//EN"
 "http://www.w3.org/Graphics/SVG/1.1/DTD/svg11.dtd">
<!-- Generated by graphviz version 2.36.0 (20140111.2315)
 -->
<!-- Title: fbp Pages: 1 -->
<svg width="830pt" height="387pt"
 viewBox="0.00 0.00 830.00 387.33" xmlns="http://www.w3.org/2000/svg" xmlns:xlink="http://www.w3.org/1999/xlink">
<g id="graph0" class="graph" transform="scale(1 1) rotate(0) translate(4 383.335)">
<title>fbp</title>
<polygon fill="white" stroke="none" points="-4,4 -4,-383.335 826,-383.335 826,4 -4,4"/>
<!-- timer -->
<g id="node1" class="node"><title>timer</title>
<polygon fill="#7f2fae" stroke="none" points="8,-341 8,-370 72,-370 72,-341 8,-341"/>
<polygon fill="none" stroke="#351348" points="8,-341 8,-370 72,-370 72,-341 8,-341"/>
<text text-anchor="start" x="11.5" y="-356.3" font-family="Helvetica,sans-Serif" font-size="14.00" fill="#ffffff">🕐 Timer</text>
<text text-anchor="start" x="30.5" y="-347.1" font-family="Helvetica,sans-Serif" font-size="8.00" fill="#ffffff">timer</text>
<polygon fill="#471a61" stroke="none" points="8,-324 8,-341 72,-341 72,-324 8,-324"/>
<polygon fill="none" stroke="#351348" points="8,-324 8,-341 72,-341 72,-324 8,-324"/>
<text text-anchor="start" x="36" y="-330" font-family="Helvetica,sans-Serif" font-size="10.00" fill="#ffffff">OUT ◉</text>
</g>
<!-- chars -->
<g id="node3" class="node"><title>chars</title>
<polygon fill="#254878" stroke="none" points="125,-292 125,-321 201,-321 201,-292 125,-292"/>
<polygon fill="none" stroke="#0f1e32" points="125,-292 125,-321 201,-321 201,-292 125,-292"/>
<text text-anchor="start" x="146" y="-307.3" font-family="Helvetica,sans-Serif" font-size="14.00" fill="#ffffff">chars</text>
<text text-anchor="start" x="135.5" y="-298.1" font-family="Helvetica,sans-Serif" font-size="8.00" fill="#ffffff">int/accumulator</text>
<polygon fill="#1b365a" stroke="none" points="125,-275 125,-292 201,-292 201,-275 125,-275"/>
<polygon fill="none" stroke="#0f1e32" points="125,-275 125,-292 201,-292 201,-275 125,-275"/>
<text text-anchor="start" x="128" y="-281" font-family="Helvetica,sans-Serif" font-size="10.00" fill="#ffffff">◎ INC</text>
<polygon fill="#142843" stroke="none" points="125,-258 125,-275 201,-275 201,-258 125,-258"/>
<polygon fill="none" stroke="#0f1e32" points="125,-258 125,-275 201,-275 201,-258 125,-258"/>
<text text-anchor="start" x="165" y="-264" font-family="Helvetica,sans-Serif" font-size="10.00" fill="#ffffff">OUT ◉</text>
<polygon fill="#142843" stroke="none" points="125,-241 125,-258 201,-258 201,-241 125,-241"/>
<polygon fill="none" stroke="#0f1e32" points="125,-241 125,-258 201,-258 201,-241 125,-241"/>
<text text-anchor="start" x="129" y="-247" font-family="Helvetica,sans-Serif" font-size="10.00" fill="#ffffff">OVERFLOW ◉</text>
</g>
<!-- timer&#45;&gt;chars -->
<g id="edge7" class="edge"><title>timer:OUT:e&#45;&gt;chars:INC:w</title>
<path fill="none" stroke="#da59fa" stroke-width="2" d="M73,-332C102.668,-332 93.835,-288.395 119.893,-284.307"/>
<ellipse fill="#da59fa" stroke="#da59fa" stroke-width="2" cx="122.006" cy="-284.149" rx="2" ry="2"/>
</g>
<!-- curr_char -->
<g id="node7" class="node"><title>curr_char</title>
<polygon fill="#bd648a" stroke="none" points="407,-301 407,-330 505,-330 505,-301 407,-301"/>
<polygon fill="none" stroke="#4e2a39" points="407,-301 407,-330 505,-330 505,-301 407,-301"/>
<text text-anchor="start" x="427" y="-316.3" font-family="Helvetica,sans-Serif" font-size="14.00" fill="#000000">curr_char</text>
<text text-anchor="start" x="413" y="-307.1" font-family="Helvetica,sans-Serif" font-size="8.00" fill="#000000">converter/empty&#45;to&#45;byte</text>
<polygon fill="#8d4b67" stroke="none" points="407,-284 407,-301 505,-301 505,-284 407,-284"/>
<polygon fill="none" stroke="#4e2a39" points="407,-284 407,-301 505,-301 505,-284 407,-284"/>
<text text-anchor="start" x="410" y="-290" font-family="Helvetica,sans-Serif" font-size="10.00" fill="#ffffff">◎ OUTPUT_VALUE</text>
<polygon fill="#8d4b67" stroke="none" points="407,-267 407,-284 505,-284 505,-267 407,-267"/>
<polygon fill="none" stroke="#4e2a39" points="407,-267 407,-284 505,-284 505,-267 407,-267"/>
<text text-anchor="start" x="410" y="-273" font-family="Helvetica,sans-Serif" font-size="10.00" fill="#ffffff">◎ IN</text>
<polygon fill="#69384d" stroke="none" points="407,-250 407,-267 505,-267 505,-250 407,-250"/>
<polygon fill="none" stroke="#4e2a39" points="407,-250 407,-267 505,-267 505,-250 407,-250"/>
<text text-anchor="start" x="469" y="-256" font-family="Helvetica,sans-Serif" font-size="10.00" fill="#ffffff">OUT ◉</text>
</g>
<!-- timer&#45;&gt;curr_char -->
<g id="edge6" class="edge"><title>timer:OUT:e&#45;&gt;curr_char:IN:w</title>
<path fill="none" stroke="#3da8f0" stroke-width="2" d="M73,-332C193.248,-332 234.547,-414.977 342,-361 383.328,-340.24 359.832,-278.749 401.999,-275.164"/>
<ellipse fill="#3da8f0" stroke="#3da8f0" stroke-width="2" cx="404.002" cy="-275.082" rx="2" ry="2"/>
</g>
<!-- lcd -->
<g id="node2" class="node"><title>lcd</title>
<polygon fill="#05c9ea" stroke="none" points="716,-141 716,-170 814,-170 814,-141 716,-141"/>
<polygon fill="none" stroke="#015462" points="716,-141 716,-170 814,-170 814,-141 716,-141"/>
<text text-anchor="start" x="756" y="-156.3" font-family="Helvetica,sans-Serif" font-size="14.00" fill="#000000">lcd</text>
<text text-anchor="start" x="747.5" y="-147.1" font-family="Helvetica,sans-Serif" font-size="8.00" fill="#000000">LCDChar</text>
<polygon fill="#0396af" stroke="none" points="716,-124 716,-141 814,-141 814,-124 716,-124"/>
<polygon fill="none" stroke="#015462" points="716,-124 716,-141 814,-141 814,-124 716,-124"/>
<text text-anchor="start" x="719" y="-130" font-family="Helvetica,sans-Serif" font-size="10.00" fill="#ffffff">◎ PUT_CHAR</text>
<polygon fill="#0396af" stroke="none" points="716,-107 716,-124 814,-124 814,-107 716,-107"/>
<polygon fill="none" stroke="#015462" points="716,-107 716,-124 814,-124 814,-107 716,-107"/>
<text text-anchor="start" x="719" y="-113" font-family="Helvetica,sans-Serif" font-size="10.00" fill="#ffffff">◎ LEFT_TO_RIGHT</text>
<polygon fill="#0396af" stroke="none" points="716,-90 716,-107 814,-107 814,-90 716,-90"/>
<polygon fill="none" stroke="#015462" points="716,-90 716,-107 814,-107 814,-90 716,-90"/>
<text text-anchor="start" x="719" y="-96" font-family="Helvetica,sans-Serif" font-size="10.00" fill="#ffffff">◎ COL</text>
</g>
<!-- to_byte -->
<g id="node4" class="node"><title>to_byte</title>
<polygon fill="#bd648a" stroke="none" points="254,-319 254,-348 334,-348 334,-319 254,-319"/>
<polygon fill="none" stroke="#4e2a39" points="254,-319 254,-348 334,-348 334,-319 254,-319"/>
<text text-anchor="start" x="271.5" y="-334.3" font-family="Helvetica,sans-Serif" font-size="14.00" fill="#000000">to_byte</text>
<text text-anchor="start" x="257.5" y="-325.1" font-family="Helvetica,sans-Serif" font-size="8.00" fill="#000000">converter/int&#45;to&#45;byte</text>
<polygon fill="#8d4b67" stroke="none" points="254,-302 254,-319 334,-319 334,-302 254,-302"/>
<polygon fill="none" stroke="#4e2a39" points="254,-302 254,-319 334,-319 334,-302 254,-302"/>
<text text-anchor="start" x="257" y="-308" font-family="Helvetica,sans-Serif" font-size="10.00" fill="#ffffff">◎ IN</text>
<polygon fill="#69384d" stroke="none" points="254,-285 254,-302 334,-302 334,-285 254,-285"/>
<polygon fill="none" stroke="#4e2a39" points="254,-285 254,-302 334,-302 334,-285 254,-285"/>
<text text-anchor="start" x="298" y="-291" font-family="Helvetica,sans-Serif" font-size="10.00" fill="#ffffff">OUT ◉</text>
</g>
<!-- chars&#45;&gt;to_byte -->
<g id="edge1" class="edge"><title>chars:OUT:e&#45;&gt;to_byte:IN:w</title>
<path fill="none" stroke="#c26378" stroke-width="2" d="M202,-266C230.416,-266 223.865,-305.645 248.729,-309.671"/>
<ellipse fill="#c26378" stroke="#c26378" stroke-width="2" cx="251.006" cy="-309.846" rx="2" ry="2"/>
</g>
<!-- comp_m -->
<g id="node5" class="node"><title>comp_m</title>
<polygon fill="#254878" stroke="none" points="264,-230 264,-259 325,-259 325,-230 264,-230"/>
<polygon fill="none" stroke="#0f1e32" points="264,-230 264,-259 325,-259 325,-230 264,-230"/>
<text text-anchor="start" x="267.5" y="-245.3" font-family="Helvetica,sans-Serif" font-size="14.00" fill="#ffffff">comp_m</text>
<text text-anchor="start" x="279" y="-236.1" font-family="Helvetica,sans-Serif" font-size="8.00" fill="#ffffff">int/equal</text>
<polygon fill="#1b365a" stroke="none" points="264,-213 264,-230 325,-230 325,-213 264,-213"/>
<polygon fill="none" stroke="#0f1e32" points="264,-213 264,-230 325,-230 325,-213 264,-213"/>
<text text-anchor="start" x="267" y="-219" font-family="Helvetica,sans-Serif" font-size="10.00" fill="#ffffff">◎ IN0</text>
<polygon fill="#1b365a" stroke="none" points="264,-196 264,-213 325,-213 325,-196 264,-196"/>
<polygon fill="none" stroke="#0f1e32" points="264,-196 264,-213 325,-213 325,-196 264,-196"/>
<text text-anchor="start" x="267" y="-202" font-family="Helvetica,sans-Serif" font-size="10.00" fill="#ffffff">◎ IN1</text>
<polygon fill="#142843" stroke="none" points="264,-179 264,-196 325,-196 325,-179 264,-179"/>
<polygon fill="none" stroke="#0f1e32" points="264,-179 264,-196 325,-196 325,-179 264,-179"/>
<text text-anchor="start" x="289" y="-185" font-family="Helvetica,sans-Serif" font-size="10.00" fill="#ffffff">OUT ◉</text>
</g>
<!-- chars&#45;&gt;comp_m -->
<g id="edge2" class="edge"><title>chars:OUT:e&#45;&gt;comp_m:IN0:w</title>
<path fill="none" stroke="#8325aa" stroke-width="2" d="M202,-266C233.992,-266 230.003,-225.7 258.902,-222.237"/>
<ellipse fill="#8325aa" stroke="#8325aa" stroke-width="2" cx="261.003" cy="-222.115" rx="2" ry="2"/>
</g>
<!-- comp_s -->
<g id="node10" class="node"><title>comp_s</title>
<polygon fill="#254878" stroke="none" points="266,-124 266,-153 322,-153 322,-124 266,-124"/>
<polygon fill="none" stroke="#0f1e32" points="266,-124 266,-153 322,-153 322,-124 266,-124"/>
<text text-anchor="start" x="269.5" y="-139.3" font-family="Helvetica,sans-Serif" font-size="14.00" fill="#ffffff">comp_s</text>
<text text-anchor="start" x="278.5" y="-130.1" font-family="Helvetica,sans-Serif" font-size="8.00" fill="#ffffff">int/equal</text>
<polygon fill="#1b365a" stroke="none" points="266,-107 266,-124 322,-124 322,-107 266,-107"/>
<polygon fill="none" stroke="#0f1e32" points="266,-107 266,-124 322,-124 322,-107 266,-107"/>
<text text-anchor="start" x="269" y="-113" font-family="Helvetica,sans-Serif" font-size="10.00" fill="#ffffff">◎ IN0</text>
<polygon fill="#1b365a" stroke="none" points="266,-90 266,-107 322,-107 322,-90 266,-90"/>
<polygon fill="none" stroke="#0f1e32" points="266,-90 266,-107 322,-107 322,-90 266,-90"/>
<text text-anchor="start" x="269" y="-96" font-family="Helvetica,sans-Serif" font-size="10.00" fill="#ffffff">◎ IN1</text>
<polygon fill="#142843" stroke="none" points="266,-73 266,-90 322,-90 322,-73 266,-73"/>
<polygon fill="none" stroke="#0f1e32" points="266,-73 266,-90 322,-90 322,-73 266,-73"/>
<text text-anchor="start" x="286" y="-79" font-family="Helvetica,sans-Serif" font-size="10.00" fill="#ffffff">OUT ◉</text>
</g>
<!-- chars&#45;&gt;comp_s -->
<g id="edge11" class="edge"><title>chars:OUT:e&#45;&gt;comp_s:IN0:w</title>
<path fill="none" stroke="#0adbb6" stroke-width="2" d="M202,-266C272.896,-266 195.821,-121.802 260.937,-116.169"/>
<ellipse fill="#0adbb6" stroke="#0adbb6" stroke-width="2" cx="263.002" cy="-116.083" rx="2" ry="2"/>
</g>
<!-- #anon:65:22 -->
<g id="node13" class="node"><title>#anon:65:22</title>
<polygon fill="#bd648a" stroke="none" points="386,-38 386,-60 526,-60 526,-38 386,-38"/>
<polygon fill="none" stroke="#4e2a39" points="386,-38 386,-60 526,-60 526,-38 386,-38"/>
<text text-anchor="start" x="389.5" y="-45.3" font-family="Helvetica,sans-Serif" font-size="14.00" fill="#000000">converter/empty&#45;to&#45;int</text>
<polygon fill="#8d4b67" stroke="none" points="386,-21 386,-38 526,-38 526,-21 386,-21"/>
<polygon fill="none" stroke="#4e2a39" points="386,-21 386,-38 526,-38 526,-21 386,-21"/>
<text text-anchor="start" x="389" y="-27" font-family="Helvetica,sans-Serif" font-size="10.00" fill="#ffffff">◎ IN</text>
<polygon fill="#69384d" stroke="none" points="386,-4 386,-21 526,-21 526,-4 386,-4"/>
<polygon fill="none" stroke="#4e2a39" points="386,-4 386,-21 526,-21 526,-4 386,-4"/>
<text text-anchor="start" x="490" y="-10" font-family="Helvetica,sans-Serif" font-size="10.00" fill="#ffffff">OUT ◉</text>
</g>
<!-- chars&#45;&gt;#anon:65:22 -->
<g id="edge15" class="edge"><title>chars:OVERFLOW:e&#45;&gt;#anon:65:22:IN:w</title>
<path fill="none" stroke="#915cfa" stroke-width="2" d="M202,-249C288.246,-249 185.232,-121.202 246,-60 289.639,-16.0495 320.362,-28.4292 380.965,-28.9815"/>
<ellipse fill="#915cfa" stroke="#915cfa" stroke-width="2" cx="383" cy="-28.9908" rx="2" ry="2"/>
</g>
<!-- to_byte&#45;&gt;curr_char -->
<g id="edge4" class="edge"><title>to_byte:OUT:e&#45;&gt;curr_char:OUTPUT_VALUE:w</title>
<path fill="none" stroke="#618efc" stroke-width="2" d="M335,-293C365.076,-293 373.653,-293 401.714,-293"/>
<ellipse fill="#618efc" stroke="#618efc" stroke-width="2" cx="404" cy="-293" rx="2" ry="2"/>
</g>
<!-- #anon:58:18 -->
<g id="node8" class="node"><title>#anon:58:18</title>
<polygon fill="#184294" stroke="none" points="414,-197 414,-219 499,-219 499,-197 414,-197"/>
<polygon fill="none" stroke="#091b3e" points="414,-197 414,-219 499,-219 499,-197 414,-197"/>
<text text-anchor="start" x="417.5" y="-204.3" font-family="Helvetica,sans-Serif" font-size="14.00" fill="#ffffff">boolean/filter</text>
<polygon fill="#12316f" stroke="none" points="414,-180 414,-197 499,-197 499,-180 414,-180"/>
<polygon fill="none" stroke="#091b3e" points="414,-180 414,-197 499,-197 499,-180 414,-180"/>
<text text-anchor="start" x="417" y="-186" font-family="Helvetica,sans-Serif" font-size="10.00" fill="#ffffff">◎ IN</text>
<polygon fill="#0d2453" stroke="none" points="414,-163 414,-180 499,-180 499,-163 414,-163"/>
<polygon fill="none" stroke="#091b3e" points="414,-163 414,-180 499,-180 499,-163 414,-163"/>
<text text-anchor="start" x="456" y="-169" font-family="Helvetica,sans-Serif" font-size="10.00" fill="#ffffff">TRUE ◉</text>
</g>
<!-- comp_m&#45;&gt;#anon:58:18 -->
<g id="edge8" class="edge"><title>comp_m:OUT:e&#45;&gt;#anon:58:18:IN:w</title>
<path fill="none" stroke="#9aabaa" stroke-width="2" d="M326,-187C363.159,-187 373.532,-187.923 408.598,-187.996"/>
<ellipse fill="#9aabaa" stroke="#9aabaa" stroke-width="2" cx="411" cy="-187.998" rx="2" ry="2"/>
</g>
<!-- #anon:50:1 -->
<g id="node6" class="node"><title>#anon:50:1</title>
<polygon fill="#e8ea7a" stroke="none" points="125,-192 125,-214 202,-214 202,-192 125,-192"/>
<polygon fill="none" stroke="#616233" points="125,-192 125,-214 202,-214 202,-192 125,-192"/>
<text text-anchor="start" x="128.5" y="-199.3" font-family="Helvetica,sans-Serif" font-size="14.00" fill="#000000">constant/int</text>
<polygon fill="#828344" stroke="none" points="125,-175 125,-192 202,-192 202,-175 125,-175"/>
<polygon fill="none" stroke="#616233" points="125,-175 125,-192 202,-192 202,-175 125,-175"/>
<text text-anchor="start" x="166" y="-181" font-family="Helvetica,sans-Serif" font-size="10.00" fill="#ffffff">OUT ◉</text>
</g>
<!-- #anon:50:1&#45;&gt;comp_m -->
<g id="edge3" class="edge"><title>#anon:50:1:OUT:e&#45;&gt;comp_m:IN1:w</title>
<path fill="none" stroke="#38c5d4" stroke-width="2" d="M203,-183C229.818,-183 234.328,-201.921 258.881,-203.843"/>
<ellipse fill="#38c5d4" stroke="#38c5d4" stroke-width="2" cx="261.001" cy="-203.924" rx="2" ry="2"/>
</g>
<!-- curr_char&#45;&gt;lcd -->
<g id="edge5" class="edge"><title>curr_char:OUT:e&#45;&gt;lcd:PUT_CHAR:w</title>
<path fill="none" stroke="#ef4ea6" stroke-width="2" d="M506,-258C581.995,-258 612.429,-264.186 672,-217 703.721,-191.874 675.217,-137.036 710.844,-133.211"/>
<ellipse fill="#ef4ea6" stroke="#ef4ea6" stroke-width="2" cx="713.003" cy="-133.101" rx="2" ry="2"/>
</g>
<!-- #anon:58:47 -->
<g id="node9" class="node"><title>#anon:58:47</title>
<polygon fill="#184294" stroke="none" points="582,-182 582,-204 660,-204 660,-182 582,-182"/>
<polygon fill="none" stroke="#091b3e" points="582,-182 582,-204 660,-204 660,-182 582,-182"/>
<text text-anchor="start" x="585.5" y="-189.3" font-family="Helvetica,sans-Serif" font-size="14.00" fill="#ffffff">boolean/not</text>
<polygon fill="#12316f" stroke="none" points="582,-165 582,-182 660,-182 660,-165 582,-165"/>
<polygon fill="none" stroke="#091b3e" points="582,-165 582,-182 660,-182 660,-165 582,-165"/>
<text text-anchor="start" x="585" y="-171" font-family="Helvetica,sans-Serif" font-size="10.00" fill="#ffffff">◎ IN</text>
<polygon fill="#0d2453" stroke="none" points="582,-148 582,-165 660,-165 660,-148 582,-148"/>
<polygon fill="none" stroke="#091b3e" points="582,-148 582,-165 660,-165 660,-148 582,-148"/>
<text text-anchor="start" x="624" y="-154" font-family="Helvetica,sans-Serif" font-size="10.00" fill="#ffffff">OUT ◉</text>
</g>
<!-- #anon:58:18&#45;&gt;#anon:58:47 -->
<g id="edge9" class="edge"><title>#anon:58:18:TRUE:e&#45;&gt;#anon:58:47:IN:w</title>
<path fill="none" stroke="#264ad5" stroke-width="2" d="M500,-171C534.604,-171 544.246,-172.847 576.9,-172.991"/>
<ellipse fill="#264ad5" stroke="#264ad5" stroke-width="2" cx="579" cy="-172.996" rx="2" ry="2"/>
</g>
<!-- #anon:58:47&#45;&gt;lcd -->
<g id="edge10" class="edge"><title>#anon:58:47:OUT:e&#45;&gt;lcd:LEFT_TO_RIGHT:w</title>
<path fill="none" stroke="#aa43b2" stroke-width="2" d="M661,-156C689.721,-156 685.374,-118.754 710.995,-115.262"/>
<ellipse fill="#aa43b2" stroke="#aa43b2" stroke-width="2" cx="713.004" cy="-115.131" rx="2" ry="2"/>
</g>
<!-- #anon:63:18 -->
<g id="node12" class="node"><title>#anon:63:18</title>
<polygon fill="#184294" stroke="none" points="579,-100 579,-122 664,-122 664,-100 579,-100"/>
<polygon fill="none" stroke="#091b3e" points="579,-100 579,-122 664,-122 664,-100 579,-100"/>
<text text-anchor="start" x="582.5" y="-107.3" font-family="Helvetica,sans-Serif" font-size="14.00" fill="#ffffff">boolean/filter</text>
<polygon fill="#12316f" stroke="none" points="579,-83 579,-100 664,-100 664,-83 579,-83"/>
<polygon fill="none" stroke="#091b3e" points="579,-83 579,-100 664,-100 664,-83 579,-83"/>
<text text-anchor="start" x="582" y="-89" font-family="Helvetica,sans-Serif" font-size="10.00" fill="#ffffff">◎ IN</text>
<polygon fill="#0d2453" stroke="none" points="579,-66 579,-83 664,-83 664,-66 579,-66"/>
<polygon fill="none" stroke="#091b3e" points="579,-66 579,-83 664,-83 664,-66 579,-66"/>
<text text-anchor="start" x="621" y="-72" font-family="Helvetica,sans-Serif" font-size="10.00" fill="#ffffff">TRUE ◉</text>
</g>
<!-- comp_s&#45;&gt;#anon:63:18 -->
<g id="edge13" class="edge"><title>comp_s:OUT:e&#45;&gt;#anon:63:18:IN:w</title>
<path fill="none" stroke="#c453d0" stroke-width="2" d="M323,-81C434.981,-81 463.851,-90.7477 573.721,-90.9952"/>
<ellipse fill="#c453d0" stroke="#c453d0" stroke-width="2" cx="576" cy="-90.9977" rx="2" ry="2"/>
</g>
<!-- #anon:61:1 -->
<g id="node11" class="node"><title>#anon:61:1</title>
<polygon fill="#e8ea7a" stroke="none" points="125,-107 125,-129 202,-129 202,-107 125,-107"/>
<polygon fill="none" stroke="#616233" points="125,-107 125,-129 202,-129 202,-107 125,-107"/>
<text text-anchor="start" x="128.5" y="-114.3" font-family="Helvetica,sans-Serif" font-size="14.00" fill="#000000">constant/int</text>
<polygon fill="#828344" stroke="none" points="125,-90 125,-107 202,-107 202,-90 125,-90"/>
<polygon fill="none" stroke="#616233" points="125,-90 125,-107 202,-107 202,-90 125,-90"/>
<text text-anchor="start" x="166" y="-96" font-family="Helvetica,sans-Serif" font-size="10.00" fill="#ffffff">OUT ◉</text>
</g>
<!-- #anon:61:1&#45;&gt;comp_s -->
<g id="edge12" class="edge"><title>#anon:61:1:OUT:e&#45;&gt;comp_s:IN1:w</title>
<path fill="none" stroke="#b2ad34" stroke-width="2" d="M203,-98C229.156,-98 236.691,-98 260.957,-98"/>
<ellipse fill="#b2ad34" stroke="#b2ad34" stroke-width="2" cx="263" cy="-98" rx="2" ry="2"/>
</g>
<!-- #anon:63:18&#45;&gt;lcd -->
<g id="edge14" class="edge"><title>#anon:63:18:TRUE:e&#45;&gt;lcd:LEFT_TO_RIGHT:w</title>
<path fill="none" stroke="#9d01bc" stroke-width="2" d="M665,-74C692.279,-74 686.928,-110.942 710.893,-114.694"/>
<ellipse fill="#9d01bc" stroke="#9d01bc" stroke-width="2" cx="713.006" cy="-114.851" rx="2" ry="2"/>
</g>
<!-- #anon:65:22&#45;&gt;lcd -->
<g id="edge16" class="edge"><title>#anon:65:22:OUT:e&#45;&gt;lcd:COL:w</title>
<path fill="none" stroke="#766f07" stroke-width="2" d="M527,-12C593.971,-12 614.622,-18.4619 672,-53 694.404,-66.486 688.156,-94.6877 710.774,-97.732"/>
<ellipse fill="#766f07" stroke="#766f07" stroke-width="2" cx="713.004" cy="-97.8734" rx="2" ry="2"/>
</g>
</g>
</svg>
