<?xml version="1.0" encoding="UTF-8" standalone="no"?>
<!DOCTYPE svg PUBLIC "-//W3C//DTD SVG 1.1//EN"
 "http://www.w3.org/Graphics/SVG/1.1/DTD/svg11.dtd">
<!-- Generated by graphviz version 2.36.0 (20140111.2315)
 -->
<!-- Title: fbp Pages: 1 -->
<svg width="222pt" height="62pt"
 viewBox="0.00 0.00 222.00 62.00" xmlns="http://www.w3.org/2000/svg" xmlns:xlink="http://www.w3.org/1999/xlink">
<g id="graph0" class="graph" transform="scale(1 1) rotate(0) translate(4 58)">
<title>fbp</title>
<polygon fill="white" stroke="none" points="-4,4 -4,-58 218,-58 218,4 -4,4"/>
<!-- light -->
<g id="node1" class="node"><title>light</title>
<polygon fill="#fec4a8" stroke="none" points="9,-21 9,-50 86,-50 86,-21 9,-21"/>
<polygon fill="none" stroke="#6a5246" points="9,-21 9,-50 86,-50 86,-21 9,-21"/>
<text text-anchor="start" x="35" y="-36.3" font-family="Helvetica,sans-Serif" font-size="14.00" fill="#000000">light</text>
<text text-anchor="start" x="38.5" y="-27.1" font-family="Helvetica,sans-Serif" font-size="8.00" fill="#000000">Light</text>
<polygon fill="#8e6e5e" stroke="none" points="9,-4 9,-21 86,-21 86,-4 9,-4"/>
<polygon fill="none" stroke="#6a5246" points="9,-4 9,-21 86,-21 86,-4 9,-4"/>
<text text-anchor="start" x="13" y="-10" font-family="Helvetica,sans-Serif" font-size="10.00" fill="#ffffff">OUT_STATE ◉</text>
</g>
<!-- LightState -->
<g id="node2" class="node"><title>LightState</title>
<polygon fill="#471ca4" stroke="none" points="138,-21 138,-50 206,-50 206,-21 138,-21"/>
<polygon fill="none" stroke="#1d0b45" points="138,-21 138,-50 206,-50 206,-21 138,-21"/>
<text text-anchor="start" x="141.5" y="-36.3" font-family="Helvetica,sans-Serif" font-size="14.00" fill="#ffffff">LightState</text>
<text text-anchor="start" x="158" y="-27.1" font-family="Helvetica,sans-Serif" font-size="8.00" fill="#ffffff">console</text>
<polygon fill="#35157b" stroke="none" points="138,-4 138,-21 206,-21 206,-4 138,-4"/>
<polygon fill="none" stroke="#1d0b45" points="138,-4 138,-21 206,-21 206,-4 138,-4"/>
<text text-anchor="start" x="141" y="-10" font-family="Helvetica,sans-Serif" font-size="10.00" fill="#ffffff">◎ IN</text>
</g>
<!-- light&#45;&gt;LightState -->
<g id="edge1" class="edge"><title>light:OUT_STATE:e&#45;&gt;LightState:IN:w</title>
<path fill="none" stroke="#4586cc" stroke-width="2" d="M87,-12C107.66,-12 113.914,-12 132.548,-12"/>
<ellipse fill="#4586cc" stroke="#4586cc" stroke-width="2" cx="135" cy="-12" rx="2" ry="2"/>
</g>
</g>
</svg>
