<?xml version="1.0" encoding="UTF-8" standalone="no"?>
<!DOCTYPE svg PUBLIC "-//W3C//DTD SVG 1.1//EN"
 "http://www.w3.org/Graphics/SVG/1.1/DTD/svg11.dtd">
<!-- Generated by graphviz version 2.36.0 (20140111.2315)
 -->
<!-- Title: fbp Pages: 1 -->
<svg width="352pt" height="79pt"
 viewBox="0.00 0.00 352.00 79.00" xmlns="http://www.w3.org/2000/svg" xmlns:xlink="http://www.w3.org/1999/xlink">
<g id="graph0" class="graph" transform="scale(1 1) rotate(0) translate(4 75)">
<title>fbp</title>
<polygon fill="white" stroke="none" points="-4,4 -4,-75 348,-75 348,4 -4,4"/>
<!-- light -->
<g id="node1" class="node"><title>light</title>
<polygon fill="#066c96" stroke="none" points="157,-38 157,-67 216,-67 216,-38 157,-38"/>
<polygon fill="none" stroke="#022d3f" points="157,-38 157,-67 216,-67 216,-38 157,-38"/>
<text text-anchor="start" x="174" y="-53.3" font-family="Helvetica,sans-Serif" font-size="14.00" fill="#ffffff">light</text>
<text text-anchor="start" x="160.5" y="-44.1" font-family="Helvetica,sans-Serif" font-size="8.00" fill="#ffffff">oic/server&#45;light</text>
<polygon fill="#045170" stroke="none" points="157,-21 157,-38 216,-38 216,-21 157,-21"/>
<polygon fill="none" stroke="#022d3f" points="157,-21 157,-38 216,-38 216,-21 157,-21"/>
<text text-anchor="start" x="160" y="-27" font-family="Helvetica,sans-Serif" font-size="10.00" fill="#ffffff">◎ NAME</text>
<polygon fill="#033c54" stroke="none" points="157,-4 157,-21 216,-21 216,-4 157,-4"/>
<polygon fill="none" stroke="#022d3f" points="157,-4 157,-21 216,-21 216,-4 157,-4"/>
<text text-anchor="start" x="169" y="-10" font-family="Helvetica,sans-Serif" font-size="10.00" fill="#ffffff">STATE ◉</text>
</g>
<!-- LightState -->
<g id="node2" class="node"><title>LightState</title>
<polygon fill="#471ca4" stroke="none" points="268,-21 268,-50 336,-50 336,-21 268,-21"/>
<polygon fill="none" stroke="#1d0b45" points="268,-21 268,-50 336,-50 336,-21 268,-21"/>
<text text-anchor="start" x="271.5" y="-36.3" font-family="Helvetica,sans-Serif" font-size="14.00" fill="#ffffff">LightState</text>
<text text-anchor="start" x="288" y="-27.1" font-family="Helvetica,sans-Serif" font-size="8.00" fill="#ffffff">console</text>
<polygon fill="#35157b" stroke="none" points="268,-4 268,-21 336,-21 336,-4 268,-4"/>
<polygon fill="none" stroke="#1d0b45" points="268,-4 268,-21 336,-21 336,-4 268,-4"/>
<text text-anchor="start" x="271" y="-10" font-family="Helvetica,sans-Serif" font-size="10.00" fill="#ffffff">◎ IN</text>
</g>
<!-- light&#45;&gt;LightState -->
<g id="edge1" class="edge"><title>light:OUT_STATE:e&#45;&gt;LightState:IN_IN:w</title>
<path fill="none" stroke="#00e788" stroke-width="2" d="M217,-12C237.66,-12 243.914,-12 262.548,-12"/>
<ellipse fill="#00e788" stroke="#00e788" stroke-width="2" cx="265" cy="-12" rx="2" ry="2"/>
</g>
<!-- #anon:26:1 -->
<g id="node3" class="node"><title>#anon:26:1</title>
<polygon fill="#e8ea7a" stroke="none" points="9,-38 9,-60 104,-60 104,-38 9,-38"/>
<polygon fill="none" stroke="#616233" points="9,-38 9,-60 104,-60 104,-38 9,-38"/>
<text text-anchor="start" x="12.5" y="-45.3" font-family="Helvetica,sans-Serif" font-size="14.00" fill="#000000">constant/string</text>
<polygon fill="#828344" stroke="none" points="9,-21 9,-38 104,-38 104,-21 9,-21"/>
<polygon fill="none" stroke="#616233" points="9,-21 9,-38 104,-38 104,-21 9,-21"/>
<text text-anchor="start" x="68" y="-27" font-family="Helvetica,sans-Serif" font-size="10.00" fill="#ffffff">OUT ◉</text>
</g>
<!-- #anon:26:1&#45;&gt;light -->
<g id="edge2" class="edge"><title>#anon:26:1:OUT_OUT:e&#45;&gt;light:IN_NAME:w</title>
<path fill="none" stroke="#6a8c6a" stroke-width="2" d="M105,-29C126.25,-29 132.559,-29 151.941,-29"/>
<ellipse fill="#6a8c6a" stroke="#6a8c6a" stroke-width="2" cx="154" cy="-29" rx="2" ry="2"/>
</g>
</g>
</svg>
