<?xml version="1.0" encoding="UTF-8" standalone="no"?>
<!DOCTYPE svg PUBLIC "-//W3C//DTD SVG 1.1//EN"
 "http://www.w3.org/Graphics/SVG/1.1/DTD/svg11.dtd">
<!-- Generated by graphviz version 2.36.0 (20140111.2315)
 -->
<!-- Title: fbp Pages: 1 -->
<svg width="584pt" height="170pt"
 viewBox="0.00 0.00 584.00 170.46" xmlns="http://www.w3.org/2000/svg" xmlns:xlink="http://www.w3.org/1999/xlink">
<g id="graph0" class="graph" transform="scale(1 1) rotate(0) translate(4 166.464)">
<title>fbp</title>
<polygon fill="white" stroke="none" points="-4,4 -4,-166.464 580,-166.464 580,4 -4,4"/>
<!-- btn1 -->
<g id="node1" class="node"><title>btn1</title>
<polygon fill="#bd4270" stroke="none" points="8,-129.464 8,-158.464 48,-158.464 48,-129.464 8,-129.464"/>
<polygon fill="none" stroke="#4e1b2f" points="8,-129.464 8,-158.464 48,-158.464 48,-129.464 8,-129.464"/>
<text text-anchor="start" x="14.5" y="-144.764" font-family="Helvetica,sans-Serif" font-size="14.00" fill="#ffffff">btn1</text>
<text text-anchor="start" x="14" y="-135.564" font-family="Helvetica,sans-Serif" font-size="8.00" fill="#ffffff">Button1</text>
<polygon fill="#69243f" stroke="none" points="8,-112.464 8,-129.464 48,-129.464 48,-112.464 8,-112.464"/>
<polygon fill="none" stroke="#4e1b2f" points="8,-112.464 8,-129.464 48,-129.464 48,-112.464 8,-112.464"/>
<text text-anchor="start" x="12" y="-118.464" font-family="Helvetica,sans-Serif" font-size="10.00" fill="#ffffff">OUT ◉</text>
</g>
<!-- #anon:36:16 -->
<g id="node6" class="node"><title>#anon:36:16</title>
<polygon fill="#184294" stroke="none" points="101,-129.464 101,-151.464 186,-151.464 186,-129.464 101,-129.464"/>
<polygon fill="none" stroke="#091b3e" points="101,-129.464 101,-151.464 186,-151.464 186,-129.464 101,-129.464"/>
<text text-anchor="start" x="104.5" y="-136.764" font-family="Helvetica,sans-Serif" font-size="14.00" fill="#ffffff">boolean/filter</text>
<polygon fill="#12316f" stroke="none" points="101,-112.464 101,-129.464 186,-129.464 186,-112.464 101,-112.464"/>
<polygon fill="none" stroke="#091b3e" points="101,-112.464 101,-129.464 186,-129.464 186,-112.464 101,-112.464"/>
<text text-anchor="start" x="104" y="-118.464" font-family="Helvetica,sans-Serif" font-size="10.00" fill="#ffffff">◎ IN</text>
<polygon fill="#0d2453" stroke="none" points="101,-95.4644 101,-112.464 186,-112.464 186,-95.4644 101,-95.4644"/>
<polygon fill="none" stroke="#091b3e" points="101,-95.4644 101,-112.464 186,-112.464 186,-95.4644 101,-95.4644"/>
<text text-anchor="start" x="143" y="-101.464" font-family="Helvetica,sans-Serif" font-size="10.00" fill="#ffffff">TRUE ◉</text>
</g>
<!-- btn1&#45;&gt;#anon:36:16 -->
<g id="edge3" class="edge"><title>btn1:OUT_OUT:e&#45;&gt;#anon:36:16:IN_IN:w</title>
<path fill="none" stroke="#1e1cce" stroke-width="2" d="M49,-120.464C70.25,-120.464 76.5586,-120.464 95.9409,-120.464"/>
<ellipse fill="#1e1cce" stroke="#1e1cce" stroke-width="2" cx="98" cy="-120.464" rx="2" ry="2"/>
</g>
<!-- btn2 -->
<g id="node2" class="node"><title>btn2</title>
<polygon fill="#350a2a" stroke="none" points="8,-47.4644 8,-76.4644 48,-76.4644 48,-47.4644 8,-47.4644"/>
<polygon fill="none" stroke="#150311" points="8,-47.4644 8,-76.4644 48,-76.4644 48,-47.4644 8,-47.4644"/>
<text text-anchor="start" x="14.5" y="-62.7644" font-family="Helvetica,sans-Serif" font-size="14.00" fill="#ffffff">btn2</text>
<text text-anchor="start" x="14" y="-53.5644" font-family="Helvetica,sans-Serif" font-size="8.00" fill="#ffffff">Button2</text>
<polygon fill="#1d0517" stroke="none" points="8,-30.4644 8,-47.4644 48,-47.4644 48,-30.4644 8,-30.4644"/>
<polygon fill="none" stroke="#150311" points="8,-30.4644 8,-47.4644 48,-47.4644 48,-30.4644 8,-30.4644"/>
<text text-anchor="start" x="12" y="-36.4644" font-family="Helvetica,sans-Serif" font-size="10.00" fill="#ffffff">OUT ◉</text>
</g>
<!-- #anon:37:16 -->
<g id="node7" class="node"><title>#anon:37:16</title>
<polygon fill="#184294" stroke="none" points="101,-47.4644 101,-69.4644 186,-69.4644 186,-47.4644 101,-47.4644"/>
<polygon fill="none" stroke="#091b3e" points="101,-47.4644 101,-69.4644 186,-69.4644 186,-47.4644 101,-47.4644"/>
<text text-anchor="start" x="104.5" y="-54.7644" font-family="Helvetica,sans-Serif" font-size="14.00" fill="#ffffff">boolean/filter</text>
<polygon fill="#12316f" stroke="none" points="101,-30.4644 101,-47.4644 186,-47.4644 186,-30.4644 101,-30.4644"/>
<polygon fill="none" stroke="#091b3e" points="101,-30.4644 101,-47.4644 186,-47.4644 186,-30.4644 101,-30.4644"/>
<text text-anchor="start" x="104" y="-36.4644" font-family="Helvetica,sans-Serif" font-size="10.00" fill="#ffffff">◎ IN</text>
<polygon fill="#0d2453" stroke="none" points="101,-13.4644 101,-30.4644 186,-30.4644 186,-13.4644 101,-13.4644"/>
<polygon fill="none" stroke="#091b3e" points="101,-13.4644 101,-30.4644 186,-30.4644 186,-13.4644 101,-13.4644"/>
<text text-anchor="start" x="143" y="-19.4644" font-family="Helvetica,sans-Serif" font-size="10.00" fill="#ffffff">TRUE ◉</text>
</g>
<!-- btn2&#45;&gt;#anon:37:16 -->
<g id="edge5" class="edge"><title>btn2:OUT_OUT:e&#45;&gt;#anon:37:16:IN_IN:w</title>
<path fill="none" stroke="#fe0880" stroke-width="2" d="M49,-38.4644C70.25,-38.4644 76.5586,-38.4644 95.9409,-38.4644"/>
<ellipse fill="#fe0880" stroke="#fe0880" stroke-width="2" cx="98" cy="-38.4645" rx="2" ry="2"/>
</g>
<!-- accumulator -->
<g id="node3" class="node"><title>accumulator</title>
<polygon fill="#254878" stroke="none" points="238,-96.4644 238,-125.464 320,-125.464 320,-96.4644 238,-96.4644"/>
<polygon fill="none" stroke="#0f1e32" points="238,-96.4644 238,-125.464 320,-125.464 320,-96.4644 238,-96.4644"/>
<text text-anchor="start" x="241.5" y="-111.764" font-family="Helvetica,sans-Serif" font-size="14.00" fill="#ffffff">accumulator</text>
<text text-anchor="start" x="251.5" y="-102.564" font-family="Helvetica,sans-Serif" font-size="8.00" fill="#ffffff">int/accumulator</text>
<polygon fill="#1b365a" stroke="none" points="238,-79.4644 238,-96.4644 320,-96.4644 320,-79.4644 238,-79.4644"/>
<polygon fill="none" stroke="#0f1e32" points="238,-79.4644 238,-96.4644 320,-96.4644 320,-79.4644 238,-79.4644"/>
<text text-anchor="start" x="241" y="-85.4644" font-family="Helvetica,sans-Serif" font-size="10.00" fill="#ffffff">◎ SET</text>
<polygon fill="#1b365a" stroke="none" points="238,-62.4644 238,-79.4644 320,-79.4644 320,-62.4644 238,-62.4644"/>
<polygon fill="none" stroke="#0f1e32" points="238,-62.4644 238,-79.4644 320,-79.4644 320,-62.4644 238,-62.4644"/>
<text text-anchor="start" x="241" y="-68.4644" font-family="Helvetica,sans-Serif" font-size="10.00" fill="#ffffff">◎ INC</text>
<polygon fill="#1b365a" stroke="none" points="238,-45.4644 238,-62.4644 320,-62.4644 320,-45.4644 238,-45.4644"/>
<polygon fill="none" stroke="#0f1e32" points="238,-45.4644 238,-62.4644 320,-62.4644 320,-45.4644 238,-45.4644"/>
<text text-anchor="start" x="241" y="-51.4644" font-family="Helvetica,sans-Serif" font-size="10.00" fill="#ffffff">◎ DEC</text>
<polygon fill="#142843" stroke="none" points="238,-28.4644 238,-45.4644 320,-45.4644 320,-28.4644 238,-28.4644"/>
<polygon fill="none" stroke="#0f1e32" points="238,-28.4644 238,-45.4644 320,-45.4644 320,-28.4644 238,-28.4644"/>
<text text-anchor="start" x="284" y="-34.4644" font-family="Helvetica,sans-Serif" font-size="10.00" fill="#ffffff">OUT ◉</text>
</g>
<!-- persistence -->
<g id="node5" class="node"><title>persistence</title>
<polygon fill="#496902" stroke="none" points="373,-79.4644 373,-108.464 450,-108.464 450,-79.4644 373,-79.4644"/>
<polygon fill="none" stroke="#1e2b00" points="373,-79.4644 373,-108.464 450,-108.464 450,-79.4644 373,-79.4644"/>
<text text-anchor="start" x="376.5" y="-94.7644" font-family="Helvetica,sans-Serif" font-size="14.00" fill="#ffffff">persistence</text>
<text text-anchor="start" x="385.5" y="-85.5644" font-family="Helvetica,sans-Serif" font-size="8.00" fill="#ffffff">persistence/int</text>
<polygon fill="#364e01" stroke="none" points="373,-62.4644 373,-79.4644 450,-79.4644 450,-62.4644 373,-62.4644"/>
<polygon fill="none" stroke="#1e2b00" points="373,-62.4644 373,-79.4644 450,-79.4644 450,-62.4644 373,-62.4644"/>
<text text-anchor="start" x="376" y="-68.4644" font-family="Helvetica,sans-Serif" font-size="10.00" fill="#ffffff">◎ IN</text>
<polygon fill="#283a00" stroke="none" points="373,-45.4644 373,-62.4644 450,-62.4644 450,-45.4644 373,-45.4644"/>
<polygon fill="none" stroke="#1e2b00" points="373,-45.4644 373,-62.4644 450,-62.4644 450,-45.4644 373,-45.4644"/>
<text text-anchor="start" x="414" y="-51.4644" font-family="Helvetica,sans-Serif" font-size="10.00" fill="#ffffff">OUT ◉</text>
</g>
<!-- accumulator&#45;&gt;persistence -->
<g id="edge7" class="edge"><title>accumulator:OUT_OUT:e&#45;&gt;persistence:IN_IN:w</title>
<path fill="none" stroke="#c29288" stroke-width="2" d="M321,-36.4644C346.752,-36.4644 345.047,-66.8474 367.796,-70.1705"/>
<ellipse fill="#c29288" stroke="#c29288" stroke-width="2" cx="370.005" cy="-70.3249" rx="2" ry="2"/>
</g>
<!-- seg -->
<g id="node4" class="node"><title>seg</title>
<polygon fill="#928e54" stroke="none" points="502,-62.4644 502,-91.4644 568,-91.4644 568,-62.4644 502,-62.4644"/>
<polygon fill="none" stroke="#3c3b23" points="502,-62.4644 502,-91.4644 568,-91.4644 568,-62.4644 502,-62.4644"/>
<text text-anchor="start" x="524" y="-77.7644" font-family="Helvetica,sans-Serif" font-size="14.00" fill="#000000">seg</text>
<text text-anchor="start" x="505.5" y="-68.5644" font-family="Helvetica,sans-Serif" font-size="8.00" fill="#000000">SevenSegments</text>
<polygon fill="#6d6a3f" stroke="none" points="502,-45.4644 502,-62.4644 568,-62.4644 568,-45.4644 502,-45.4644"/>
<polygon fill="none" stroke="#3c3b23" points="502,-45.4644 502,-62.4644 568,-62.4644 568,-45.4644 502,-45.4644"/>
<text text-anchor="start" x="505" y="-51.4644" font-family="Helvetica,sans-Serif" font-size="10.00" fill="#ffffff">◎ VALUE</text>
</g>
<!-- persistence&#45;&gt;accumulator -->
<g id="edge1" class="edge"><title>persistence:OUT_OUT:e&#45;&gt;accumulator:IN_SET:w</title>
<path fill="none" stroke="#8ea6a4" stroke-width="2" d="M451,-53.4644C468.074,-53.4644 512.502,57.5171 364,-41.9644 329.063,-65.3687 362.937,-106.06 328,-129.464 294.768,-151.727 266.627,-157.402 238,-129.464 226.076,-117.828 219.886,-93.2085 232.83,-89.063"/>
<ellipse fill="#8ea6a4" stroke="#8ea6a4" stroke-width="2" cx="235.02" cy="-88.7487" rx="2.00001" ry="2.00001"/>
</g>
<!-- persistence&#45;&gt;seg -->
<g id="edge2" class="edge"><title>persistence:OUT_OUT:e&#45;&gt;seg:IN_VALUE:w</title>
<path fill="none" stroke="#124c2e" stroke-width="2" d="M451,-53.4644C471.66,-53.4644 477.914,-53.4644 496.548,-53.4644"/>
<ellipse fill="#124c2e" stroke="#124c2e" stroke-width="2" cx="499" cy="-53.4645" rx="2" ry="2"/>
</g>
<!-- #anon:36:16&#45;&gt;accumulator -->
<g id="edge4" class="edge"><title>#anon:36:16:OUT_TRUE:e&#45;&gt;accumulator:IN_INC:w</title>
<path fill="none" stroke="#70cad4" stroke-width="2" d="M187,-103.464C212.17,-103.464 210.64,-73.9751 232.89,-70.7497"/>
<ellipse fill="#70cad4" stroke="#70cad4" stroke-width="2" cx="235.005" cy="-70.603" rx="2" ry="2"/>
</g>
<!-- #anon:37:16&#45;&gt;accumulator -->
<g id="edge6" class="edge"><title>#anon:37:16:OUT_TRUE:e&#45;&gt;accumulator:IN_DEC:w</title>
<path fill="none" stroke="#1e74ba" stroke-width="2" d="M187,-21.4644C211.941,-21.4644 210.832,-50.0601 232.923,-53.1878"/>
<ellipse fill="#1e74ba" stroke="#1e74ba" stroke-width="2" cx="235.005" cy="-53.329" rx="2" ry="2"/>
</g>
</g>
</svg>
