<?xml version="1.0" encoding="UTF-8" standalone="no"?>
<!DOCTYPE svg PUBLIC "-//W3C//DTD SVG 1.1//EN"
 "http://www.w3.org/Graphics/SVG/1.1/DTD/svg11.dtd">
<!-- Generated by graphviz version 2.36.0 (20140111.2315)
 -->
<!-- Title: fbp Pages: 1 -->
<svg width="584pt" height="180pt"
 viewBox="0.00 0.00 584.00 180.00" xmlns="http://www.w3.org/2000/svg" xmlns:xlink="http://www.w3.org/1999/xlink">
<g id="graph0" class="graph" transform="scale(1 1) rotate(0) translate(4 176)">
<title>fbp</title>
<polygon fill="white" stroke="none" points="-4,4 -4,-176 580,-176 580,4 -4,4"/>
<!-- btn1 -->
<g id="node1" class="node"><title>btn1</title>
<polygon fill="#bd4270" stroke="none" points="8,-139 8,-168 48,-168 48,-139 8,-139"/>
<polygon fill="none" stroke="#4e1b2f" points="8,-139 8,-168 48,-168 48,-139 8,-139"/>
<text text-anchor="start" x="14.5" y="-154.3" font-family="Helvetica,sans-Serif" font-size="14.00" fill="#ffffff">btn1</text>
<text text-anchor="start" x="14" y="-145.1" font-family="Helvetica,sans-Serif" font-size="8.00" fill="#ffffff">Button1</text>
<polygon fill="#69243f" stroke="none" points="8,-122 8,-139 48,-139 48,-122 8,-122"/>
<polygon fill="none" stroke="#4e1b2f" points="8,-122 8,-139 48,-139 48,-122 8,-122"/>
<text text-anchor="start" x="12" y="-128" font-family="Helvetica,sans-Serif" font-size="10.00" fill="#ffffff">OUT ◉</text>
</g>
<!-- #anon:42:16 -->
<g id="node6" class="node"><title>#anon:42:16</title>
<polygon fill="#184294" stroke="none" points="101,-139 101,-161 186,-161 186,-139 101,-139"/>
<polygon fill="none" stroke="#091b3e" points="101,-139 101,-161 186,-161 186,-139 101,-139"/>
<text text-anchor="start" x="104.5" y="-146.3" font-family="Helvetica,sans-Serif" font-size="14.00" fill="#ffffff">boolean/filter</text>
<polygon fill="#12316f" stroke="none" points="101,-122 101,-139 186,-139 186,-122 101,-122"/>
<polygon fill="none" stroke="#091b3e" points="101,-122 101,-139 186,-139 186,-122 101,-122"/>
<text text-anchor="start" x="104" y="-128" font-family="Helvetica,sans-Serif" font-size="10.00" fill="#ffffff">◎ IN</text>
<polygon fill="#0d2453" stroke="none" points="101,-105 101,-122 186,-122 186,-105 101,-105"/>
<polygon fill="none" stroke="#091b3e" points="101,-105 101,-122 186,-122 186,-105 101,-105"/>
<text text-anchor="start" x="143" y="-111" font-family="Helvetica,sans-Serif" font-size="10.00" fill="#ffffff">TRUE ◉</text>
</g>
<!-- btn1&#45;&gt;#anon:42:16 -->
<g id="edge3" class="edge"><title>btn1:OUT_OUT:e&#45;&gt;#anon:42:16:IN_IN:w</title>
<path fill="none" stroke="#1e1cce" stroke-width="2" d="M49,-130C70.25,-130 76.5586,-130 95.9409,-130"/>
<ellipse fill="#1e1cce" stroke="#1e1cce" stroke-width="2" cx="98" cy="-130" rx="2" ry="2"/>
</g>
<!-- btn2 -->
<g id="node2" class="node"><title>btn2</title>
<polygon fill="#350a2a" stroke="none" points="8,-57 8,-86 48,-86 48,-57 8,-57"/>
<polygon fill="none" stroke="#150311" points="8,-57 8,-86 48,-86 48,-57 8,-57"/>
<text text-anchor="start" x="14.5" y="-72.3" font-family="Helvetica,sans-Serif" font-size="14.00" fill="#ffffff">btn2</text>
<text text-anchor="start" x="14" y="-63.1" font-family="Helvetica,sans-Serif" font-size="8.00" fill="#ffffff">Button2</text>
<polygon fill="#1d0517" stroke="none" points="8,-40 8,-57 48,-57 48,-40 8,-40"/>
<polygon fill="none" stroke="#150311" points="8,-40 8,-57 48,-57 48,-40 8,-40"/>
<text text-anchor="start" x="12" y="-46" font-family="Helvetica,sans-Serif" font-size="10.00" fill="#ffffff">OUT ◉</text>
</g>
<!-- #anon:43:16 -->
<g id="node7" class="node"><title>#anon:43:16</title>
<polygon fill="#184294" stroke="none" points="101,-57 101,-79 186,-79 186,-57 101,-57"/>
<polygon fill="none" stroke="#091b3e" points="101,-57 101,-79 186,-79 186,-57 101,-57"/>
<text text-anchor="start" x="104.5" y="-64.3" font-family="Helvetica,sans-Serif" font-size="14.00" fill="#ffffff">boolean/filter</text>
<polygon fill="#12316f" stroke="none" points="101,-40 101,-57 186,-57 186,-40 101,-40"/>
<polygon fill="none" stroke="#091b3e" points="101,-40 101,-57 186,-57 186,-40 101,-40"/>
<text text-anchor="start" x="104" y="-46" font-family="Helvetica,sans-Serif" font-size="10.00" fill="#ffffff">◎ IN</text>
<polygon fill="#0d2453" stroke="none" points="101,-23 101,-40 186,-40 186,-23 101,-23"/>
<polygon fill="none" stroke="#091b3e" points="101,-23 101,-40 186,-40 186,-23 101,-23"/>
<text text-anchor="start" x="143" y="-29" font-family="Helvetica,sans-Serif" font-size="10.00" fill="#ffffff">TRUE ◉</text>
</g>
<!-- btn2&#45;&gt;#anon:43:16 -->
<g id="edge5" class="edge"><title>btn2:OUT_OUT:e&#45;&gt;#anon:43:16:IN_IN:w</title>
<path fill="none" stroke="#fe0880" stroke-width="2" d="M49,-48C70.25,-48 76.5586,-48 95.9409,-48"/>
<ellipse fill="#fe0880" stroke="#fe0880" stroke-width="2" cx="98" cy="-48" rx="2" ry="2"/>
</g>
<!-- accumulator -->
<g id="node3" class="node"><title>accumulator</title>
<polygon fill="#254878" stroke="none" points="238,-106 238,-135 320,-135 320,-106 238,-106"/>
<polygon fill="none" stroke="#0f1e32" points="238,-106 238,-135 320,-135 320,-106 238,-106"/>
<text text-anchor="start" x="241.5" y="-121.3" font-family="Helvetica,sans-Serif" font-size="14.00" fill="#ffffff">accumulator</text>
<text text-anchor="start" x="251.5" y="-112.1" font-family="Helvetica,sans-Serif" font-size="8.00" fill="#ffffff">int/accumulator</text>
<polygon fill="#1b365a" stroke="none" points="238,-89 238,-106 320,-106 320,-89 238,-89"/>
<polygon fill="none" stroke="#0f1e32" points="238,-89 238,-106 320,-106 320,-89 238,-89"/>
<text text-anchor="start" x="241" y="-95" font-family="Helvetica,sans-Serif" font-size="10.00" fill="#ffffff">◎ SET</text>
<polygon fill="#1b365a" stroke="none" points="238,-72 238,-89 320,-89 320,-72 238,-72"/>
<polygon fill="none" stroke="#0f1e32" points="238,-72 238,-89 320,-89 320,-72 238,-72"/>
<text text-anchor="start" x="241" y="-78" font-family="Helvetica,sans-Serif" font-size="10.00" fill="#ffffff">◎ INC</text>
<polygon fill="#1b365a" stroke="none" points="238,-55 238,-72 320,-72 320,-55 238,-55"/>
<polygon fill="none" stroke="#0f1e32" points="238,-55 238,-72 320,-72 320,-55 238,-55"/>
<text text-anchor="start" x="241" y="-61" font-family="Helvetica,sans-Serif" font-size="10.00" fill="#ffffff">◎ DEC</text>
<polygon fill="#1b365a" stroke="none" points="238,-38 238,-55 320,-55 320,-38 238,-38"/>
<polygon fill="none" stroke="#0f1e32" points="238,-38 238,-55 320,-55 320,-38 238,-38"/>
<text text-anchor="start" x="241" y="-44" font-family="Helvetica,sans-Serif" font-size="10.00" fill="#ffffff">◎ RESET</text>
<polygon fill="#142843" stroke="none" points="238,-21 238,-38 320,-38 320,-21 238,-21"/>
<polygon fill="none" stroke="#0f1e32" points="238,-21 238,-38 320,-38 320,-21 238,-21"/>
<text text-anchor="start" x="284" y="-27" font-family="Helvetica,sans-Serif" font-size="10.00" fill="#ffffff">OUT ◉</text>
<polygon fill="#142843" stroke="none" points="238,-4 238,-21 320,-21 320,-4 238,-4"/>
<polygon fill="none" stroke="#0f1e32" points="238,-4 238,-21 320,-21 320,-4 238,-4"/>
<text text-anchor="start" x="268" y="-10" font-family="Helvetica,sans-Serif" font-size="10.00" fill="#ffffff">ERROR ◉</text>
</g>
<!-- accumulator&#45;&gt;accumulator -->
<g id="edge8" class="edge"><title>accumulator:OUT_ERROR:e&#45;&gt;accumulator:IN_RESET:w</title>
<path fill="none" stroke="#d7920c" stroke-width="2" d="M320,-12C353,-41 353,-157 279,-157 207.312,-157 205.072,-80.0449 235.004,-48.8699"/>
<ellipse fill="#d7920c" stroke="#d7920c" stroke-width="2" cx="236.556" cy="-47.3836" rx="2.00002" ry="2.00002"/>
</g>
<!-- persistence -->
<g id="node5" class="node"><title>persistence</title>
<polygon fill="#496902" stroke="none" points="373,-81 373,-110 450,-110 450,-81 373,-81"/>
<polygon fill="none" stroke="#1e2b00" points="373,-81 373,-110 450,-110 450,-81 373,-81"/>
<text text-anchor="start" x="376.5" y="-96.3" font-family="Helvetica,sans-Serif" font-size="14.00" fill="#ffffff">persistence</text>
<text text-anchor="start" x="385.5" y="-87.1" font-family="Helvetica,sans-Serif" font-size="8.00" fill="#ffffff">persistence/int</text>
<polygon fill="#364e01" stroke="none" points="373,-64 373,-81 450,-81 450,-64 373,-64"/>
<polygon fill="none" stroke="#1e2b00" points="373,-64 373,-81 450,-81 450,-64 373,-64"/>
<text text-anchor="start" x="376" y="-70" font-family="Helvetica,sans-Serif" font-size="10.00" fill="#ffffff">◎ IN</text>
<polygon fill="#283a00" stroke="none" points="373,-47 373,-64 450,-64 450,-47 373,-47"/>
<polygon fill="none" stroke="#1e2b00" points="373,-47 373,-64 450,-64 450,-47 373,-47"/>
<text text-anchor="start" x="414" y="-53" font-family="Helvetica,sans-Serif" font-size="10.00" fill="#ffffff">OUT ◉</text>
</g>
<!-- accumulator&#45;&gt;persistence -->
<g id="edge7" class="edge"><title>accumulator:OUT_OUT:e&#45;&gt;persistence:IN_IN:w</title>
<path fill="none" stroke="#c29288" stroke-width="2" d="M321,-29C349.143,-29 343.097,-67.7437 367.767,-71.6786"/>
<ellipse fill="#c29288" stroke="#c29288" stroke-width="2" cx="370.006" cy="-71.8485" rx="2" ry="2"/>
</g>
<!-- seg -->
<g id="node4" class="node"><title>seg</title>
<polygon fill="#928e54" stroke="none" points="502,-64 502,-93 568,-93 568,-64 502,-64"/>
<polygon fill="none" stroke="#3c3b23" points="502,-64 502,-93 568,-93 568,-64 502,-64"/>
<text text-anchor="start" x="524" y="-79.3" font-family="Helvetica,sans-Serif" font-size="14.00" fill="#000000">seg</text>
<text text-anchor="start" x="505.5" y="-70.1" font-family="Helvetica,sans-Serif" font-size="8.00" fill="#000000">SevenSegments</text>
<polygon fill="#6d6a3f" stroke="none" points="502,-47 502,-64 568,-64 568,-47 502,-47"/>
<polygon fill="none" stroke="#3c3b23" points="502,-47 502,-64 568,-64 568,-47 502,-47"/>
<text text-anchor="start" x="505" y="-53" font-family="Helvetica,sans-Serif" font-size="10.00" fill="#ffffff">◎ VALUE</text>
</g>
<!-- persistence&#45;&gt;accumulator -->
<g id="edge1" class="edge"><title>persistence:OUT_OUT:e&#45;&gt;accumulator:IN_SET:w</title>
<path fill="none" stroke="#8ea6a4" stroke-width="2" d="M451,-55C467.445,-55 507.816,55.9816 364,-43.5 326.695,-69.3048 365.305,-113.195 328,-139 295.103,-161.756 266.627,-166.937 238,-139 226.076,-127.363 219.886,-102.744 232.83,-98.5985"/>
<ellipse fill="#8ea6a4" stroke="#8ea6a4" stroke-width="2" cx="235.02" cy="-98.2842" rx="2.00001" ry="2.00001"/>
</g>
<!-- persistence&#45;&gt;seg -->
<g id="edge2" class="edge"><title>persistence:OUT_OUT:e&#45;&gt;seg:IN_VALUE:w</title>
<path fill="none" stroke="#124c2e" stroke-width="2" d="M451,-55C471.66,-55 477.914,-55 496.548,-55"/>
<ellipse fill="#124c2e" stroke="#124c2e" stroke-width="2" cx="499" cy="-55" rx="2" ry="2"/>
</g>
<!-- #anon:42:16&#45;&gt;accumulator -->
<g id="edge4" class="edge"><title>#anon:42:16:OUT_TRUE:e&#45;&gt;accumulator:IN_INC:w</title>
<path fill="none" stroke="#70cad4" stroke-width="2" d="M187,-113C211.941,-113 210.832,-84.4043 232.923,-81.2766"/>
<ellipse fill="#70cad4" stroke="#70cad4" stroke-width="2" cx="235.005" cy="-81.1355" rx="2" ry="2"/>
</g>
<!-- #anon:43:16&#45;&gt;accumulator -->
<g id="edge6" class="edge"><title>#anon:43:16:OUT_TRUE:e&#45;&gt;accumulator:IN_DEC:w</title>
<path fill="none" stroke="#1e74ba" stroke-width="2" d="M187,-31C211.941,-31 210.832,-59.5957 232.923,-62.7234"/>
<ellipse fill="#1e74ba" stroke="#1e74ba" stroke-width="2" cx="235.005" cy="-62.8645" rx="2" ry="2"/>
</g>
</g>
</svg>
