<?xml version="1.0" encoding="UTF-8" standalone="no"?>
<!DOCTYPE svg PUBLIC "-//W3C//DTD SVG 1.1//EN"
 "http://www.w3.org/Graphics/SVG/1.1/DTD/svg11.dtd">
<!-- Generated by graphviz version 2.36.0 (20140111.2315)
 -->
<!-- Title: fbp Pages: 1 -->
<svg width="522pt" height="668pt"
 viewBox="0.00 0.00 522.00 668.00" xmlns="http://www.w3.org/2000/svg" xmlns:xlink="http://www.w3.org/1999/xlink">
<g id="graph0" class="graph" transform="scale(1 1) rotate(0) translate(4 664)">
<title>fbp</title>
<polygon fill="white" stroke="none" points="-4,4 -4,-664 518,-664 518,4 -4,4"/>
<!-- Led -->
<g id="node1" class="node"><title>Led</title>
<polygon fill="#928e54" stroke="none" points="431,-225 431,-254 506,-254 506,-225 431,-225"/>
<polygon fill="none" stroke="#3c3b23" points="431,-225 431,-254 506,-254 506,-225 431,-225"/>
<text text-anchor="start" x="457" y="-240.3" font-family="Helvetica,sans-Serif" font-size="14.00" fill="#000000">Led</text>
<text text-anchor="start" x="439" y="-231.1" font-family="Helvetica,sans-Serif" font-size="8.00" fill="#000000">SevenSegments</text>
<polygon fill="#6d6a3f" stroke="none" points="431,-208 431,-225 506,-225 506,-208 431,-208"/>
<polygon fill="none" stroke="#3c3b23" points="431,-208 431,-225 506,-225 506,-208 431,-208"/>
<text text-anchor="start" x="434" y="-214" font-family="Helvetica,sans-Serif" font-size="10.00" fill="#ffffff">◎ SEGMENTS</text>
</g>
<!-- Timer -->
<g id="node2" class="node"><title>Timer</title>
<polygon fill="#7f2fae" stroke="none" points="24,-502 24,-531 88,-531 88,-502 24,-502"/>
<polygon fill="none" stroke="#351348" points="24,-502 24,-531 88,-531 88,-502 24,-502"/>
<text text-anchor="start" x="27.5" y="-517.3" font-family="Helvetica,sans-Serif" font-size="14.00" fill="#ffffff">🕐 Timer</text>
<text text-anchor="start" x="46.5" y="-508.1" font-family="Helvetica,sans-Serif" font-size="8.00" fill="#ffffff">timer</text>
<polygon fill="#471a61" stroke="none" points="24,-485 24,-502 88,-502 88,-485 24,-485"/>
<polygon fill="none" stroke="#351348" points="24,-485 24,-502 88,-502 88,-485 24,-485"/>
<text text-anchor="start" x="52" y="-491" font-family="Helvetica,sans-Serif" font-size="10.00" fill="#ffffff">OUT ◉</text>
</g>
<!-- Index -->
<g id="node4" class="node"><title>Index</title>
<polygon fill="#254878" stroke="none" points="179,-627 179,-656 241,-656 241,-627 179,-627"/>
<polygon fill="none" stroke="#0f1e32" points="179,-627 179,-656 241,-656 241,-627 179,-627"/>
<text text-anchor="start" x="193" y="-642.3" font-family="Helvetica,sans-Serif" font-size="14.00" fill="#ffffff">Index</text>
<text text-anchor="start" x="182.5" y="-633.1" font-family="Helvetica,sans-Serif" font-size="8.00" fill="#ffffff">int/accumulator</text>
<polygon fill="#1b365a" stroke="none" points="179,-610 179,-627 241,-627 241,-610 179,-610"/>
<polygon fill="none" stroke="#0f1e32" points="179,-610 179,-627 241,-627 241,-610 179,-610"/>
<text text-anchor="start" x="182" y="-616" font-family="Helvetica,sans-Serif" font-size="10.00" fill="#ffffff">◎ INC</text>
<polygon fill="#142843" stroke="none" points="179,-593 179,-610 241,-610 241,-593 179,-593"/>
<polygon fill="none" stroke="#0f1e32" points="179,-593 179,-610 241,-610 241,-593 179,-593"/>
<text text-anchor="start" x="205" y="-599" font-family="Helvetica,sans-Serif" font-size="10.00" fill="#ffffff">OUT ◉</text>
</g>
<!-- Timer&#45;&gt;Index -->
<g id="edge1" class="edge"><title>Timer:OUT:e&#45;&gt;Index:INC:w</title>
<path fill="none" stroke="#7c551b" stroke-width="2" d="M89,-493C155.733,-493 111.785,-612.687 173.762,-617.829"/>
<ellipse fill="#7c551b" stroke="#7c551b" stroke-width="2" cx="176.002" cy="-617.92" rx="2" ry="2"/>
</g>
<!-- True -->
<g id="node5" class="node"><title>True</title>
<polygon fill="#bd648a" stroke="none" points="157,-538 157,-567 264,-567 264,-538 157,-538"/>
<polygon fill="none" stroke="#4e2a39" points="157,-538 157,-567 264,-567 264,-538 157,-538"/>
<text text-anchor="start" x="196.5" y="-553.3" font-family="Helvetica,sans-Serif" font-size="14.00" fill="#000000">True</text>
<text text-anchor="start" x="160.5" y="-544.1" font-family="Helvetica,sans-Serif" font-size="8.00" fill="#000000">converter/empty&#45;to&#45;boolean</text>
<polygon fill="#8d4b67" stroke="none" points="157,-521 157,-538 264,-538 264,-521 157,-521"/>
<polygon fill="none" stroke="#4e2a39" points="157,-521 157,-538 264,-538 264,-521 157,-521"/>
<text text-anchor="start" x="160" y="-527" font-family="Helvetica,sans-Serif" font-size="10.00" fill="#ffffff">◎ IN</text>
</g>
<!-- Timer&#45;&gt;True -->
<g id="edge5" class="edge"><title>Timer:OUT:e&#45;&gt;True:IN:w</title>
<path fill="none" stroke="#64b540" stroke-width="2" d="M89,-493C121.352,-493 122.185,-525.973 151.828,-528.806"/>
<ellipse fill="#64b540" stroke="#64b540" stroke-width="2" cx="154.002" cy="-528.907" rx="2" ry="2"/>
</g>
<!-- False -->
<g id="node6" class="node"><title>False</title>
<polygon fill="#bd648a" stroke="none" points="157,-466 157,-495 264,-495 264,-466 157,-466"/>
<polygon fill="none" stroke="#4e2a39" points="157,-466 157,-495 264,-495 264,-466 157,-466"/>
<text text-anchor="start" x="193.5" y="-481.3" font-family="Helvetica,sans-Serif" font-size="14.00" fill="#000000">False</text>
<text text-anchor="start" x="160.5" y="-472.1" font-family="Helvetica,sans-Serif" font-size="8.00" fill="#000000">converter/empty&#45;to&#45;boolean</text>
<polygon fill="#8d4b67" stroke="none" points="157,-449 157,-466 264,-466 264,-449 157,-449"/>
<polygon fill="none" stroke="#4e2a39" points="157,-449 157,-466 264,-466 264,-449 157,-449"/>
<text text-anchor="start" x="160" y="-455" font-family="Helvetica,sans-Serif" font-size="10.00" fill="#ffffff">◎ IN</text>
</g>
<!-- Timer&#45;&gt;False -->
<g id="edge6" class="edge"><title>Timer:OUT:e&#45;&gt;False:IN:w</title>
<path fill="none" stroke="#2a0b4e" stroke-width="2" d="M89,-493C121.352,-493 122.185,-460.027 151.828,-457.194"/>
<ellipse fill="#2a0b4e" stroke="#2a0b4e" stroke-width="2" cx="154.002" cy="-457.093" rx="2" ry="2"/>
</g>
<!-- ByteOff -->
<g id="node7" class="node"><title>ByteOff</title>
<polygon fill="#bd648a" stroke="none" points="164,-393 164,-422 257,-422 257,-393 164,-393"/>
<polygon fill="none" stroke="#4e2a39" points="164,-393 164,-422 257,-422 257,-393 164,-393"/>
<text text-anchor="start" x="187.5" y="-408.3" font-family="Helvetica,sans-Serif" font-size="14.00" fill="#000000">ByteOff</text>
<text text-anchor="start" x="167.5" y="-399.1" font-family="Helvetica,sans-Serif" font-size="8.00" fill="#000000">converter/empty&#45;to&#45;byte</text>
<polygon fill="#8d4b67" stroke="none" points="164,-376 164,-393 257,-393 257,-376 164,-376"/>
<polygon fill="none" stroke="#4e2a39" points="164,-376 164,-393 257,-393 257,-376 164,-376"/>
<text text-anchor="start" x="167" y="-382" font-family="Helvetica,sans-Serif" font-size="10.00" fill="#ffffff">◎ IN</text>
<polygon fill="#69384d" stroke="none" points="164,-359 164,-376 257,-376 257,-359 164,-359"/>
<polygon fill="none" stroke="#4e2a39" points="164,-359 164,-376 257,-376 257,-359 164,-359"/>
<text text-anchor="start" x="221" y="-365" font-family="Helvetica,sans-Serif" font-size="10.00" fill="#ffffff">OUT ◉</text>
</g>
<!-- Timer&#45;&gt;ByteOff -->
<g id="edge4" class="edge"><title>Timer:OUT:e&#45;&gt;ByteOff:IN:w</title>
<path fill="none" stroke="#70bfba" stroke-width="2" d="M89,-493C146.067,-493 106.57,-389.465 158.733,-384.207"/>
<ellipse fill="#70bfba" stroke="#70bfba" stroke-width="2" cx="161.002" cy="-384.097" rx="2" ry="2"/>
</g>
<!-- Switcher -->
<g id="node3" class="node"><title>Switcher</title>
<polygon fill="#f849d2" stroke="none" points="316,-259 316,-288 378,-288 378,-259 316,-259"/>
<polygon fill="none" stroke="#681e57" points="316,-259 316,-288 378,-288 378,-259 316,-259"/>
<text text-anchor="start" x="321" y="-274.3" font-family="Helvetica,sans-Serif" font-size="14.00" fill="#000000">Switcher</text>
<text text-anchor="start" x="323.5" y="-265.1" font-family="Helvetica,sans-Serif" font-size="8.00" fill="#000000">switcher/byte</text>
<polygon fill="#ba369d" stroke="none" points="316,-242 316,-259 378,-259 378,-242 316,-242"/>
<polygon fill="none" stroke="#681e57" points="316,-242 316,-259 378,-259 378,-242 316,-242"/>
<text text-anchor="start" x="319" y="-248" font-family="Helvetica,sans-Serif" font-size="10.00" fill="#ffffff">◎ IN_PORT</text>
<polygon fill="#ba369d" stroke="none" points="316,-225 316,-242 378,-242 378,-225 316,-225"/>
<polygon fill="none" stroke="#681e57" points="316,-225 316,-242 378,-242 378,-225 316,-225"/>
<text text-anchor="start" x="319" y="-231" font-family="Helvetica,sans-Serif" font-size="10.00" fill="#ffffff">◎ IN</text>
<polygon fill="#8b2875" stroke="none" points="316,-208 316,-225 378,-225 378,-208 316,-208"/>
<polygon fill="none" stroke="#681e57" points="316,-208 316,-225 378,-225 378,-208 316,-208"/>
<text text-anchor="start" x="342" y="-214" font-family="Helvetica,sans-Serif" font-size="10.00" fill="#ffffff">OUT ◉</text>
</g>
<!-- Switcher&#45;&gt;Led -->
<g id="edge3" class="edge"><title>Switcher:OUT:e&#45;&gt;Led:SEGMENTS:w</title>
<path fill="none" stroke="#0d45b0" stroke-width="2" d="M379,-216C400.25,-216 406.559,-216 425.941,-216"/>
<ellipse fill="#0d45b0" stroke="#0d45b0" stroke-width="2" cx="428" cy="-216" rx="2" ry="2"/>
</g>
<!-- Index&#45;&gt;Switcher -->
<g id="edge2" class="edge"><title>Index:OUT:e&#45;&gt;Switcher:IN_PORT:w</title>
<path fill="none" stroke="#d716e8" stroke-width="2" d="M242,-601C258.275,-601 263.562,-593.917 272,-580 309.479,-518.181 243.92,-261.311 310.841,-251.301"/>
<ellipse fill="#d716e8" stroke="#d716e8" stroke-width="2" cx="313.005" cy="-251.144" rx="2" ry="2"/>
</g>
<!-- ByteOff&#45;&gt;Switcher -->
<g id="edge7" class="edge"><title>ByteOff:OUT:e&#45;&gt;Switcher:IN:w</title>
<path fill="none" stroke="#7187b0" stroke-width="2" d="M258,-367C321.203,-367 253.601,-239.208 310.672,-233.217"/>
<ellipse fill="#7187b0" stroke="#7187b0" stroke-width="2" cx="313.003" cy="-233.1" rx="2" ry="2"/>
</g>
<!-- ByteP -->
<g id="node8" class="node"><title>ByteP</title>
<polygon fill="#e3ef4e" stroke="none" points="168,-304 168,-333 252,-333 252,-304 168,-304"/>
<polygon fill="none" stroke="#5f6420" points="168,-304 168,-333 252,-333 252,-304 168,-304"/>
<text text-anchor="start" x="191.5" y="-319.3" font-family="Helvetica,sans-Serif" font-size="14.00" fill="#000000">ByteP</text>
<text text-anchor="start" x="171.5" y="-310.1" font-family="Helvetica,sans-Serif" font-size="8.00" fill="#000000">led&#45;7seg/char&#45;to&#45;byte</text>
<polygon fill="#aab33a" stroke="none" points="168,-287 168,-304 252,-304 252,-287 168,-287"/>
<polygon fill="none" stroke="#5f6420" points="168,-287 168,-304 252,-304 252,-287 168,-287"/>
<text text-anchor="start" x="171" y="-293" font-family="Helvetica,sans-Serif" font-size="10.00" fill="#000000">◎ IN</text>
<polygon fill="#7f862b" stroke="none" points="168,-270 168,-287 252,-287 252,-270 168,-270"/>
<polygon fill="none" stroke="#5f6420" points="168,-270 168,-287 252,-287 252,-270 168,-270"/>
<text text-anchor="start" x="216" y="-276" font-family="Helvetica,sans-Serif" font-size="10.00" fill="#ffffff">OUT ◉</text>
</g>
<!-- ByteP&#45;&gt;Switcher -->
<g id="edge9" class="edge"><title>ByteP:OUT:e&#45;&gt;Switcher:IN:w</title>
<path fill="none" stroke="#08a26e" stroke-width="2" d="M253,-278C285.586,-278 281.401,-236.784 310.827,-233.242"/>
<ellipse fill="#08a26e" stroke="#08a26e" stroke-width="2" cx="313.003" cy="-233.116" rx="2" ry="2"/>
</g>
<!-- ByteL -->
<g id="node9" class="node"><title>ByteL</title>
<polygon fill="#e3ef4e" stroke="none" points="168,-215 168,-244 252,-244 252,-215 168,-215"/>
<polygon fill="none" stroke="#5f6420" points="168,-215 168,-244 252,-244 252,-215 168,-215"/>
<text text-anchor="start" x="192.5" y="-230.3" font-family="Helvetica,sans-Serif" font-size="14.00" fill="#000000">ByteL</text>
<text text-anchor="start" x="171.5" y="-221.1" font-family="Helvetica,sans-Serif" font-size="8.00" fill="#000000">led&#45;7seg/char&#45;to&#45;byte</text>
<polygon fill="#aab33a" stroke="none" points="168,-198 168,-215 252,-215 252,-198 168,-198"/>
<polygon fill="none" stroke="#5f6420" points="168,-198 168,-215 252,-215 252,-198 168,-198"/>
<text text-anchor="start" x="171" y="-204" font-family="Helvetica,sans-Serif" font-size="10.00" fill="#000000">◎ IN</text>
<polygon fill="#7f862b" stroke="none" points="168,-181 168,-198 252,-198 252,-181 168,-181"/>
<polygon fill="none" stroke="#5f6420" points="168,-181 168,-198 252,-198 252,-181 168,-181"/>
<text text-anchor="start" x="216" y="-187" font-family="Helvetica,sans-Serif" font-size="10.00" fill="#ffffff">OUT ◉</text>
</g>
<!-- ByteL&#45;&gt;Switcher -->
<g id="edge11" class="edge"><title>ByteL:OUT:e&#45;&gt;Switcher:IN:w</title>
<path fill="none" stroke="#0b3492" stroke-width="2" d="M253,-189C285.338,-189 281.617,-229.3 310.856,-232.763"/>
<ellipse fill="#0b3492" stroke="#0b3492" stroke-width="2" cx="313.003" cy="-232.886" rx="2" ry="2"/>
</g>
<!-- ByteA -->
<g id="node10" class="node"><title>ByteA</title>
<polygon fill="#e3ef4e" stroke="none" points="168,-126 168,-155 252,-155 252,-126 168,-126"/>
<polygon fill="none" stroke="#5f6420" points="168,-126 168,-155 252,-155 252,-126 168,-126"/>
<text text-anchor="start" x="191.5" y="-141.3" font-family="Helvetica,sans-Serif" font-size="14.00" fill="#000000">ByteA</text>
<text text-anchor="start" x="171.5" y="-132.1" font-family="Helvetica,sans-Serif" font-size="8.00" fill="#000000">led&#45;7seg/char&#45;to&#45;byte</text>
<polygon fill="#aab33a" stroke="none" points="168,-109 168,-126 252,-126 252,-109 168,-109"/>
<polygon fill="none" stroke="#5f6420" points="168,-109 168,-126 252,-126 252,-109 168,-109"/>
<text text-anchor="start" x="171" y="-115" font-family="Helvetica,sans-Serif" font-size="10.00" fill="#000000">◎ IN</text>
<polygon fill="#7f862b" stroke="none" points="168,-92 168,-109 252,-109 252,-92 168,-92"/>
<polygon fill="none" stroke="#5f6420" points="168,-92 168,-109 252,-109 252,-92 168,-92"/>
<text text-anchor="start" x="216" y="-98" font-family="Helvetica,sans-Serif" font-size="10.00" fill="#ffffff">OUT ◉</text>
</g>
<!-- ByteA&#45;&gt;Switcher -->
<g id="edge13" class="edge"><title>ByteA:OUT:e&#45;&gt;Switcher:IN:w</title>
<path fill="none" stroke="#4623d8" stroke-width="2" d="M253,-100C316.817,-100 252.661,-227.347 310.979,-232.818"/>
<ellipse fill="#4623d8" stroke="#4623d8" stroke-width="2" cx="313.002" cy="-232.91" rx="2" ry="2"/>
</g>
<!-- ByteY -->
<g id="node11" class="node"><title>ByteY</title>
<polygon fill="#e3ef4e" stroke="none" points="168,-37 168,-66 252,-66 252,-37 168,-37"/>
<polygon fill="none" stroke="#5f6420" points="168,-37 168,-66 252,-66 252,-37 168,-37"/>
<text text-anchor="start" x="191.5" y="-52.3" font-family="Helvetica,sans-Serif" font-size="14.00" fill="#000000">ByteY</text>
<text text-anchor="start" x="171.5" y="-43.1" font-family="Helvetica,sans-Serif" font-size="8.00" fill="#000000">led&#45;7seg/char&#45;to&#45;byte</text>
<polygon fill="#aab33a" stroke="none" points="168,-20 168,-37 252,-37 252,-20 168,-20"/>
<polygon fill="none" stroke="#5f6420" points="168,-20 168,-37 252,-37 252,-20 168,-20"/>
<text text-anchor="start" x="171" y="-26" font-family="Helvetica,sans-Serif" font-size="10.00" fill="#000000">◎ IN</text>
<polygon fill="#7f862b" stroke="none" points="168,-3 168,-20 252,-20 252,-3 168,-3"/>
<polygon fill="none" stroke="#5f6420" points="168,-3 168,-20 252,-20 252,-3 168,-3"/>
<text text-anchor="start" x="216" y="-9" font-family="Helvetica,sans-Serif" font-size="10.00" fill="#ffffff">OUT ◉</text>
</g>
<!-- ByteY&#45;&gt;Switcher -->
<g id="edge15" class="edge"><title>ByteY:OUT:e&#45;&gt;Switcher:IN:w</title>
<path fill="none" stroke="#911a06" stroke-width="2" d="M253,-11C354.042,-11 216.419,-226.971 310.935,-232.877"/>
<ellipse fill="#911a06" stroke="#911a06" stroke-width="2" cx="313.001" cy="-232.939" rx="2" ry="2"/>
</g>
<!-- #anon:56:1 -->
<g id="node12" class="node"><title>#anon:56:1</title>
<polygon fill="#e8ea7a" stroke="none" points="9,-304 9,-326 104,-326 104,-304 9,-304"/>
<polygon fill="none" stroke="#616233" points="9,-304 9,-326 104,-326 104,-304 9,-304"/>
<text text-anchor="start" x="12.5" y="-311.3" font-family="Helvetica,sans-Serif" font-size="14.00" fill="#000000">constant/string</text>
<polygon fill="#828344" stroke="none" points="9,-287 9,-304 104,-304 104,-287 9,-287"/>
<polygon fill="none" stroke="#616233" points="9,-287 9,-304 104,-304 104,-287 9,-287"/>
<text text-anchor="start" x="68" y="-293" font-family="Helvetica,sans-Serif" font-size="10.00" fill="#ffffff">OUT ◉</text>
</g>
<!-- #anon:56:1&#45;&gt;ByteP -->
<g id="edge8" class="edge"><title>#anon:56:1:OUT:e&#45;&gt;ByteP:IN:w</title>
<path fill="none" stroke="#4c6cbc" stroke-width="2" d="M105,-295C131.156,-295 138.691,-295 162.957,-295"/>
<ellipse fill="#4c6cbc" stroke="#4c6cbc" stroke-width="2" cx="165" cy="-295" rx="2" ry="2"/>
</g>
<!-- #anon:58:1 -->
<g id="node13" class="node"><title>#anon:58:1</title>
<polygon fill="#e8ea7a" stroke="none" points="9,-215 9,-237 104,-237 104,-215 9,-215"/>
<polygon fill="none" stroke="#616233" points="9,-215 9,-237 104,-237 104,-215 9,-215"/>
<text text-anchor="start" x="12.5" y="-222.3" font-family="Helvetica,sans-Serif" font-size="14.00" fill="#000000">constant/string</text>
<polygon fill="#828344" stroke="none" points="9,-198 9,-215 104,-215 104,-198 9,-198"/>
<polygon fill="none" stroke="#616233" points="9,-198 9,-215 104,-215 104,-198 9,-198"/>
<text text-anchor="start" x="68" y="-204" font-family="Helvetica,sans-Serif" font-size="10.00" fill="#ffffff">OUT ◉</text>
</g>
<!-- #anon:58:1&#45;&gt;ByteL -->
<g id="edge10" class="edge"><title>#anon:58:1:OUT:e&#45;&gt;ByteL:IN:w</title>
<path fill="none" stroke="#c3b27c" stroke-width="2" d="M105,-206C131.156,-206 138.691,-206 162.957,-206"/>
<ellipse fill="#c3b27c" stroke="#c3b27c" stroke-width="2" cx="165" cy="-206" rx="2" ry="2"/>
</g>
<!-- #anon:60:1 -->
<g id="node14" class="node"><title>#anon:60:1</title>
<polygon fill="#e8ea7a" stroke="none" points="9,-126 9,-148 104,-148 104,-126 9,-126"/>
<polygon fill="none" stroke="#616233" points="9,-126 9,-148 104,-148 104,-126 9,-126"/>
<text text-anchor="start" x="12.5" y="-133.3" font-family="Helvetica,sans-Serif" font-size="14.00" fill="#000000">constant/string</text>
<polygon fill="#828344" stroke="none" points="9,-109 9,-126 104,-126 104,-109 9,-109"/>
<polygon fill="none" stroke="#616233" points="9,-109 9,-126 104,-126 104,-109 9,-109"/>
<text text-anchor="start" x="68" y="-115" font-family="Helvetica,sans-Serif" font-size="10.00" fill="#ffffff">OUT ◉</text>
</g>
<!-- #anon:60:1&#45;&gt;ByteA -->
<g id="edge12" class="edge"><title>#anon:60:1:OUT:e&#45;&gt;ByteA:IN:w</title>
<path fill="none" stroke="#c01b38" stroke-width="2" d="M105,-117C131.156,-117 138.691,-117 162.957,-117"/>
<ellipse fill="#c01b38" stroke="#c01b38" stroke-width="2" cx="165" cy="-117" rx="2" ry="2"/>
</g>
<!-- #anon:62:1 -->
<g id="node15" class="node"><title>#anon:62:1</title>
<polygon fill="#e8ea7a" stroke="none" points="9,-37 9,-59 104,-59 104,-37 9,-37"/>
<polygon fill="none" stroke="#616233" points="9,-37 9,-59 104,-59 104,-37 9,-37"/>
<text text-anchor="start" x="12.5" y="-44.3" font-family="Helvetica,sans-Serif" font-size="14.00" fill="#000000">constant/string</text>
<polygon fill="#828344" stroke="none" points="9,-20 9,-37 104,-37 104,-20 9,-20"/>
<polygon fill="none" stroke="#616233" points="9,-20 9,-37 104,-37 104,-20 9,-20"/>
<text text-anchor="start" x="68" y="-26" font-family="Helvetica,sans-Serif" font-size="10.00" fill="#ffffff">OUT ◉</text>
</g>
<!-- #anon:62:1&#45;&gt;ByteY -->
<g id="edge14" class="edge"><title>#anon:62:1:OUT:e&#45;&gt;ByteY:IN:w</title>
<path fill="none" stroke="#614551" stroke-width="2" d="M105,-28C131.156,-28 138.691,-28 162.957,-28"/>
<ellipse fill="#614551" stroke="#614551" stroke-width="2" cx="165" cy="-28" rx="2" ry="2"/>
</g>
</g>
</svg>
