<?xml version="1.0" encoding="UTF-8" standalone="no"?>
<!DOCTYPE svg PUBLIC "-//W3C//DTD SVG 1.1//EN"
 "http://www.w3.org/Graphics/SVG/1.1/DTD/svg11.dtd">
<!-- Generated by graphviz version 2.36.0 (20140111.2315)
 -->
<!-- Title: fbp Pages: 1 -->
<svg width="498pt" height="507pt"
 viewBox="0.00 0.00 498.00 507.00" xmlns="http://www.w3.org/2000/svg" xmlns:xlink="http://www.w3.org/1999/xlink">
<g id="graph0" class="graph" transform="scale(1 1) rotate(0) translate(4 503)">
<title>fbp</title>
<polygon fill="white" stroke="none" points="-4,4 -4,-503 494,-503 494,4 -4,4"/>
<!-- Led -->
<g id="node1" class="node"><title>Led</title>
<polygon fill="#928e54" stroke="none" points="407,-225 407,-254 482,-254 482,-225 407,-225"/>
<polygon fill="none" stroke="#3c3b23" points="407,-225 407,-254 482,-254 482,-225 407,-225"/>
<text text-anchor="start" x="433" y="-240.3" font-family="Helvetica,sans-Serif" font-size="14.00" fill="#000000">Led</text>
<text text-anchor="start" x="415" y="-231.1" font-family="Helvetica,sans-Serif" font-size="8.00" fill="#000000">SevenSegments</text>
<polygon fill="#6d6a3f" stroke="none" points="407,-208 407,-225 482,-225 482,-208 407,-208"/>
<polygon fill="none" stroke="#3c3b23" points="407,-208 407,-225 482,-225 482,-208 407,-208"/>
<text text-anchor="start" x="410" y="-214" font-family="Helvetica,sans-Serif" font-size="10.00" fill="#ffffff">◎ SEGMENTS</text>
</g>
<!-- Timer -->
<g id="node2" class="node"><title>Timer</title>
<polygon fill="#7f2fae" stroke="none" points="24,-466 24,-495 88,-495 88,-466 24,-466"/>
<polygon fill="none" stroke="#351348" points="24,-466 24,-495 88,-495 88,-466 24,-466"/>
<text text-anchor="start" x="27.5" y="-481.3" font-family="Helvetica,sans-Serif" font-size="14.00" fill="#ffffff">🕐 Timer</text>
<text text-anchor="start" x="46.5" y="-472.1" font-family="Helvetica,sans-Serif" font-size="8.00" fill="#ffffff">timer</text>
<polygon fill="#471a61" stroke="none" points="24,-449 24,-466 88,-466 88,-449 24,-449"/>
<polygon fill="none" stroke="#351348" points="24,-449 24,-466 88,-466 88,-449 24,-449"/>
<text text-anchor="start" x="52" y="-455" font-family="Helvetica,sans-Serif" font-size="10.00" fill="#ffffff">OUT ◉</text>
</g>
<!-- Index -->
<g id="node4" class="node"><title>Index</title>
<polygon fill="#254878" stroke="none" points="167,-466 167,-495 229,-495 229,-466 167,-466"/>
<polygon fill="none" stroke="#0f1e32" points="167,-466 167,-495 229,-495 229,-466 167,-466"/>
<text text-anchor="start" x="181" y="-481.3" font-family="Helvetica,sans-Serif" font-size="14.00" fill="#ffffff">Index</text>
<text text-anchor="start" x="170.5" y="-472.1" font-family="Helvetica,sans-Serif" font-size="8.00" fill="#ffffff">int/accumulator</text>
<polygon fill="#1b365a" stroke="none" points="167,-449 167,-466 229,-466 229,-449 167,-449"/>
<polygon fill="none" stroke="#0f1e32" points="167,-449 167,-466 229,-466 229,-449 167,-449"/>
<text text-anchor="start" x="170" y="-455" font-family="Helvetica,sans-Serif" font-size="10.00" fill="#ffffff">◎ INC</text>
<polygon fill="#142843" stroke="none" points="167,-432 167,-449 229,-449 229,-432 167,-432"/>
<polygon fill="none" stroke="#0f1e32" points="167,-432 167,-449 229,-449 229,-432 167,-432"/>
<text text-anchor="start" x="193" y="-438" font-family="Helvetica,sans-Serif" font-size="10.00" fill="#ffffff">OUT ◉</text>
</g>
<!-- Timer&#45;&gt;Index -->
<g id="edge1" class="edge"><title>Timer:OUT_OUT:e&#45;&gt;Index:IN_INC:w</title>
<path fill="none" stroke="#7c551b" stroke-width="2" d="M89,-457C121.752,-457 130.995,-457 161.727,-457"/>
<ellipse fill="#7c551b" stroke="#7c551b" stroke-width="2" cx="164" cy="-457" rx="2" ry="2"/>
</g>
<!-- Switcher -->
<g id="node3" class="node"><title>Switcher</title>
<polygon fill="#f849d2" stroke="none" points="292,-259 292,-288 354,-288 354,-259 292,-259"/>
<polygon fill="none" stroke="#681e57" points="292,-259 292,-288 354,-288 354,-259 292,-259"/>
<text text-anchor="start" x="297" y="-274.3" font-family="Helvetica,sans-Serif" font-size="14.00" fill="#000000">Switcher</text>
<text text-anchor="start" x="299.5" y="-265.1" font-family="Helvetica,sans-Serif" font-size="8.00" fill="#000000">switcher/byte</text>
<polygon fill="#ba369d" stroke="none" points="292,-242 292,-259 354,-259 354,-242 292,-242"/>
<polygon fill="none" stroke="#681e57" points="292,-242 292,-259 354,-259 354,-242 292,-242"/>
<text text-anchor="start" x="295" y="-248" font-family="Helvetica,sans-Serif" font-size="10.00" fill="#ffffff">◎ IN_PORT</text>
<polygon fill="#ba369d" stroke="none" points="292,-225 292,-242 354,-242 354,-225 292,-225"/>
<polygon fill="none" stroke="#681e57" points="292,-225 292,-242 354,-242 354,-225 292,-225"/>
<text text-anchor="start" x="295" y="-231" font-family="Helvetica,sans-Serif" font-size="10.00" fill="#ffffff">◎ IN</text>
<polygon fill="#8b2875" stroke="none" points="292,-208 292,-225 354,-225 354,-208 292,-208"/>
<polygon fill="none" stroke="#681e57" points="292,-208 292,-225 354,-225 354,-208 292,-208"/>
<text text-anchor="start" x="318" y="-214" font-family="Helvetica,sans-Serif" font-size="10.00" fill="#ffffff">OUT ◉</text>
</g>
<!-- Switcher&#45;&gt;Led -->
<g id="edge3" class="edge"><title>Switcher:OUT_OUT:e&#45;&gt;Led:IN_SEGMENTS:w</title>
<path fill="none" stroke="#0d45b0" stroke-width="2" d="M355,-216C376.25,-216 382.559,-216 401.941,-216"/>
<ellipse fill="#0d45b0" stroke="#0d45b0" stroke-width="2" cx="404" cy="-216" rx="2" ry="2"/>
</g>
<!-- Index&#45;&gt;Switcher -->
<g id="edge2" class="edge"><title>Index:OUT_OUT:e&#45;&gt;Switcher:IN_IN_PORT:w</title>
<path fill="none" stroke="#d716e8" stroke-width="2" d="M230,-440C316.715,-440 206.732,-257.586 286.532,-251.173"/>
<ellipse fill="#d716e8" stroke="#d716e8" stroke-width="2" cx="289.002" cy="-251.077" rx="2" ry="2"/>
</g>
<!-- ByteOff -->
<g id="node5" class="node"><title>ByteOff</title>
<polygon fill="#e8ea7a" stroke="none" points="171,-377 171,-406 226,-406 226,-377 171,-377"/>
<polygon fill="none" stroke="#616233" points="171,-377 171,-406 226,-406 226,-377 171,-377"/>
<text text-anchor="start" x="175.5" y="-392.3" font-family="Helvetica,sans-Serif" font-size="14.00" fill="#000000">ByteOff</text>
<text text-anchor="start" x="174.5" y="-383.1" font-family="Helvetica,sans-Serif" font-size="8.00" fill="#000000">constant/byte</text>
<polygon fill="#828344" stroke="none" points="171,-360 171,-377 226,-377 226,-360 171,-360"/>
<polygon fill="none" stroke="#616233" points="171,-360 171,-377 226,-377 226,-360 171,-360"/>
<text text-anchor="start" x="190" y="-366" font-family="Helvetica,sans-Serif" font-size="10.00" fill="#ffffff">OUT ◉</text>
</g>
<!-- ByteOff&#45;&gt;Switcher -->
<g id="edge4" class="edge"><title>ByteOff:OUT_OUT:e&#45;&gt;Switcher:IN_IN:w</title>
<path fill="none" stroke="#406a90" stroke-width="2" d="M227,-368C291.974,-368 227.493,-238.738 286.905,-233.184"/>
<ellipse fill="#406a90" stroke="#406a90" stroke-width="2" cx="289.002" cy="-233.09" rx="2" ry="2"/>
</g>
<!-- ByteP -->
<g id="node6" class="node"><title>ByteP</title>
<polygon fill="#e3ef4e" stroke="none" points="156,-304 156,-333 240,-333 240,-304 156,-304"/>
<polygon fill="none" stroke="#5f6420" points="156,-304 156,-333 240,-333 240,-304 156,-304"/>
<text text-anchor="start" x="179.5" y="-319.3" font-family="Helvetica,sans-Serif" font-size="14.00" fill="#000000">ByteP</text>
<text text-anchor="start" x="159.5" y="-310.1" font-family="Helvetica,sans-Serif" font-size="8.00" fill="#000000">led&#45;7seg/char&#45;to&#45;byte</text>
<polygon fill="#aab33a" stroke="none" points="156,-287 156,-304 240,-304 240,-287 156,-287"/>
<polygon fill="none" stroke="#5f6420" points="156,-287 156,-304 240,-304 240,-287 156,-287"/>
<text text-anchor="start" x="159" y="-293" font-family="Helvetica,sans-Serif" font-size="10.00" fill="#000000">◎ IN</text>
<polygon fill="#7f862b" stroke="none" points="156,-270 156,-287 240,-287 240,-270 156,-270"/>
<polygon fill="none" stroke="#5f6420" points="156,-270 156,-287 240,-287 240,-270 156,-270"/>
<text text-anchor="start" x="204" y="-276" font-family="Helvetica,sans-Serif" font-size="10.00" fill="#ffffff">OUT ◉</text>
</g>
<!-- ByteP&#45;&gt;Switcher -->
<g id="edge6" class="edge"><title>ByteP:OUT_OUT:e&#45;&gt;Switcher:IN_IN:w</title>
<path fill="none" stroke="#928cfa" stroke-width="2" d="M241,-278C269.379,-278 261.995,-237.454 286.742,-233.336"/>
<ellipse fill="#928cfa" stroke="#928cfa" stroke-width="2" cx="289.006" cy="-233.158" rx="2" ry="2"/>
</g>
<!-- ByteL -->
<g id="node7" class="node"><title>ByteL</title>
<polygon fill="#e3ef4e" stroke="none" points="156,-215 156,-244 240,-244 240,-215 156,-215"/>
<polygon fill="none" stroke="#5f6420" points="156,-215 156,-244 240,-244 240,-215 156,-215"/>
<text text-anchor="start" x="180.5" y="-230.3" font-family="Helvetica,sans-Serif" font-size="14.00" fill="#000000">ByteL</text>
<text text-anchor="start" x="159.5" y="-221.1" font-family="Helvetica,sans-Serif" font-size="8.00" fill="#000000">led&#45;7seg/char&#45;to&#45;byte</text>
<polygon fill="#aab33a" stroke="none" points="156,-198 156,-215 240,-215 240,-198 156,-198"/>
<polygon fill="none" stroke="#5f6420" points="156,-198 156,-215 240,-215 240,-198 156,-198"/>
<text text-anchor="start" x="159" y="-204" font-family="Helvetica,sans-Serif" font-size="10.00" fill="#000000">◎ IN</text>
<polygon fill="#7f862b" stroke="none" points="156,-181 156,-198 240,-198 240,-181 156,-181"/>
<polygon fill="none" stroke="#5f6420" points="156,-181 156,-198 240,-198 240,-181 156,-181"/>
<text text-anchor="start" x="204" y="-187" font-family="Helvetica,sans-Serif" font-size="10.00" fill="#ffffff">OUT ◉</text>
</g>
<!-- ByteL&#45;&gt;Switcher -->
<g id="edge8" class="edge"><title>ByteL:OUT_OUT:e&#45;&gt;Switcher:IN_IN:w</title>
<path fill="none" stroke="#45b524" stroke-width="2" d="M241,-189C269.098,-189 262.233,-228.645 286.78,-232.671"/>
<ellipse fill="#45b524" stroke="#45b524" stroke-width="2" cx="289.006" cy="-232.845" rx="2" ry="2"/>
</g>
<!-- ByteA -->
<g id="node8" class="node"><title>ByteA</title>
<polygon fill="#e3ef4e" stroke="none" points="156,-126 156,-155 240,-155 240,-126 156,-126"/>
<polygon fill="none" stroke="#5f6420" points="156,-126 156,-155 240,-155 240,-126 156,-126"/>
<text text-anchor="start" x="179.5" y="-141.3" font-family="Helvetica,sans-Serif" font-size="14.00" fill="#000000">ByteA</text>
<text text-anchor="start" x="159.5" y="-132.1" font-family="Helvetica,sans-Serif" font-size="8.00" fill="#000000">led&#45;7seg/char&#45;to&#45;byte</text>
<polygon fill="#aab33a" stroke="none" points="156,-109 156,-126 240,-126 240,-109 156,-109"/>
<polygon fill="none" stroke="#5f6420" points="156,-109 156,-126 240,-126 240,-109 156,-109"/>
<text text-anchor="start" x="159" y="-115" font-family="Helvetica,sans-Serif" font-size="10.00" fill="#000000">◎ IN</text>
<polygon fill="#7f862b" stroke="none" points="156,-92 156,-109 240,-109 240,-92 156,-92"/>
<polygon fill="none" stroke="#5f6420" points="156,-92 156,-109 240,-109 240,-92 156,-92"/>
<text text-anchor="start" x="204" y="-98" font-family="Helvetica,sans-Serif" font-size="10.00" fill="#ffffff">OUT ◉</text>
</g>
<!-- ByteA&#45;&gt;Switcher -->
<g id="edge10" class="edge"><title>ByteA:OUT_OUT:e&#45;&gt;Switcher:IN_IN:w</title>
<path fill="none" stroke="#08a26e" stroke-width="2" d="M241,-100C302.67,-100 231.35,-226.839 286.786,-232.784"/>
<ellipse fill="#08a26e" stroke="#08a26e" stroke-width="2" cx="289.003" cy="-232.898" rx="2" ry="2"/>
</g>
<!-- ByteY -->
<g id="node9" class="node"><title>ByteY</title>
<polygon fill="#e3ef4e" stroke="none" points="156,-37 156,-66 240,-66 240,-37 156,-37"/>
<polygon fill="none" stroke="#5f6420" points="156,-37 156,-66 240,-66 240,-37 156,-37"/>
<text text-anchor="start" x="179.5" y="-52.3" font-family="Helvetica,sans-Serif" font-size="14.00" fill="#000000">ByteY</text>
<text text-anchor="start" x="159.5" y="-43.1" font-family="Helvetica,sans-Serif" font-size="8.00" fill="#000000">led&#45;7seg/char&#45;to&#45;byte</text>
<polygon fill="#aab33a" stroke="none" points="156,-20 156,-37 240,-37 240,-20 156,-20"/>
<polygon fill="none" stroke="#5f6420" points="156,-20 156,-37 240,-37 240,-20 156,-20"/>
<text text-anchor="start" x="159" y="-26" font-family="Helvetica,sans-Serif" font-size="10.00" fill="#000000">◎ IN</text>
<polygon fill="#7f862b" stroke="none" points="156,-3 156,-20 240,-20 240,-3 156,-3"/>
<polygon fill="none" stroke="#5f6420" points="156,-3 156,-20 240,-20 240,-3 156,-3"/>
<text text-anchor="start" x="204" y="-9" font-family="Helvetica,sans-Serif" font-size="10.00" fill="#ffffff">OUT ◉</text>
</g>
<!-- ByteY&#45;&gt;Switcher -->
<g id="edge12" class="edge"><title>ByteY:OUT_OUT:e&#45;&gt;Switcher:IN_IN:w</title>
<path fill="none" stroke="#0b3492" stroke-width="2" d="M241,-11C340.755,-11 193.978,-226.971 286.993,-232.877"/>
<ellipse fill="#0b3492" stroke="#0b3492" stroke-width="2" cx="289.001" cy="-232.938" rx="2" ry="2"/>
</g>
<!-- #anon:36:1 -->
<g id="node10" class="node"><title>#anon:36:1</title>
<polygon fill="#e8ea7a" stroke="none" points="9,-304 9,-326 104,-326 104,-304 9,-304"/>
<polygon fill="none" stroke="#616233" points="9,-304 9,-326 104,-326 104,-304 9,-304"/>
<text text-anchor="start" x="12.5" y="-311.3" font-family="Helvetica,sans-Serif" font-size="14.00" fill="#000000">constant/string</text>
<polygon fill="#828344" stroke="none" points="9,-287 9,-304 104,-304 104,-287 9,-287"/>
<polygon fill="none" stroke="#616233" points="9,-287 9,-304 104,-304 104,-287 9,-287"/>
<text text-anchor="start" x="68" y="-293" font-family="Helvetica,sans-Serif" font-size="10.00" fill="#ffffff">OUT ◉</text>
</g>
<!-- #anon:36:1&#45;&gt;ByteP -->
<g id="edge5" class="edge"><title>#anon:36:1:OUT_OUT:e&#45;&gt;ByteP:IN_IN:w</title>
<path fill="none" stroke="#4b3e34" stroke-width="2" d="M105,-295C125.66,-295 131.914,-295 150.548,-295"/>
<ellipse fill="#4b3e34" stroke="#4b3e34" stroke-width="2" cx="153" cy="-295" rx="2" ry="2"/>
</g>
<!-- #anon:38:1 -->
<g id="node11" class="node"><title>#anon:38:1</title>
<polygon fill="#e8ea7a" stroke="none" points="9,-215 9,-237 104,-237 104,-215 9,-215"/>
<polygon fill="none" stroke="#616233" points="9,-215 9,-237 104,-237 104,-215 9,-215"/>
<text text-anchor="start" x="12.5" y="-222.3" font-family="Helvetica,sans-Serif" font-size="14.00" fill="#000000">constant/string</text>
<polygon fill="#828344" stroke="none" points="9,-198 9,-215 104,-215 104,-198 9,-198"/>
<polygon fill="none" stroke="#616233" points="9,-198 9,-215 104,-215 104,-198 9,-198"/>
<text text-anchor="start" x="68" y="-204" font-family="Helvetica,sans-Serif" font-size="10.00" fill="#ffffff">OUT ◉</text>
</g>
<!-- #anon:38:1&#45;&gt;ByteL -->
<g id="edge7" class="edge"><title>#anon:38:1:OUT_OUT:e&#45;&gt;ByteL:IN_IN:w</title>
<path fill="none" stroke="#4fc5f8" stroke-width="2" d="M105,-206C125.66,-206 131.914,-206 150.548,-206"/>
<ellipse fill="#4fc5f8" stroke="#4fc5f8" stroke-width="2" cx="153" cy="-206" rx="2" ry="2"/>
</g>
<!-- #anon:40:1 -->
<g id="node12" class="node"><title>#anon:40:1</title>
<polygon fill="#e8ea7a" stroke="none" points="9,-126 9,-148 104,-148 104,-126 9,-126"/>
<polygon fill="none" stroke="#616233" points="9,-126 9,-148 104,-148 104,-126 9,-126"/>
<text text-anchor="start" x="12.5" y="-133.3" font-family="Helvetica,sans-Serif" font-size="14.00" fill="#000000">constant/string</text>
<polygon fill="#828344" stroke="none" points="9,-109 9,-126 104,-126 104,-109 9,-109"/>
<polygon fill="none" stroke="#616233" points="9,-109 9,-126 104,-126 104,-109 9,-109"/>
<text text-anchor="start" x="68" y="-115" font-family="Helvetica,sans-Serif" font-size="10.00" fill="#ffffff">OUT ◉</text>
</g>
<!-- #anon:40:1&#45;&gt;ByteA -->
<g id="edge9" class="edge"><title>#anon:40:1:OUT_OUT:e&#45;&gt;ByteA:IN_IN:w</title>
<path fill="none" stroke="#4c6cbc" stroke-width="2" d="M105,-117C125.66,-117 131.914,-117 150.548,-117"/>
<ellipse fill="#4c6cbc" stroke="#4c6cbc" stroke-width="2" cx="153" cy="-117" rx="2" ry="2"/>
</g>
<!-- #anon:42:1 -->
<g id="node13" class="node"><title>#anon:42:1</title>
<polygon fill="#e8ea7a" stroke="none" points="9,-37 9,-59 104,-59 104,-37 9,-37"/>
<polygon fill="none" stroke="#616233" points="9,-37 9,-59 104,-59 104,-37 9,-37"/>
<text text-anchor="start" x="12.5" y="-44.3" font-family="Helvetica,sans-Serif" font-size="14.00" fill="#000000">constant/string</text>
<polygon fill="#828344" stroke="none" points="9,-20 9,-37 104,-37 104,-20 9,-20"/>
<polygon fill="none" stroke="#616233" points="9,-20 9,-37 104,-37 104,-20 9,-20"/>
<text text-anchor="start" x="68" y="-26" font-family="Helvetica,sans-Serif" font-size="10.00" fill="#ffffff">OUT ◉</text>
</g>
<!-- #anon:42:1&#45;&gt;ByteY -->
<g id="edge11" class="edge"><title>#anon:42:1:OUT_OUT:e&#45;&gt;ByteY:IN_IN:w</title>
<path fill="none" stroke="#c3b27c" stroke-width="2" d="M105,-28C125.66,-28 131.914,-28 150.548,-28"/>
<ellipse fill="#c3b27c" stroke="#c3b27c" stroke-width="2" cx="153" cy="-28" rx="2" ry="2"/>
</g>
</g>
</svg>
