<?xml version="1.0" encoding="UTF-8" standalone="no"?>
<!DOCTYPE svg PUBLIC "-//W3C//DTD SVG 1.1//EN"
 "http://www.w3.org/Graphics/SVG/1.1/DTD/svg11.dtd">
<!-- Generated by graphviz version 2.36.0 (20140111.2315)
 -->
<!-- Title: fbp Pages: 1 -->
<svg width="250pt" height="62pt"
 viewBox="0.00 0.00 250.00 62.00" xmlns="http://www.w3.org/2000/svg" xmlns:xlink="http://www.w3.org/1999/xlink">
<g id="graph0" class="graph" transform="scale(1 1) rotate(0) translate(4 58)">
<title>fbp</title>
<polygon fill="white" stroke="none" points="-4,4 -4,-58 246,-58 246,4 -4,4"/>
<!-- lever -->
<g id="node1" class="node"><title>lever</title>
<polygon fill="#4efd34" stroke="none" points="8,-21 8,-50 72,-50 72,-21 8,-21"/>
<polygon fill="none" stroke="#206915" points="8,-21 8,-50 72,-50 72,-21 8,-21"/>
<text text-anchor="start" x="25" y="-36.3" font-family="Helvetica,sans-Serif" font-size="14.00" fill="#000000">lever</text>
<text text-anchor="start" x="11.5" y="-27.1" font-family="Helvetica,sans-Serif" font-size="8.00" fill="#000000">SegmentsLever</text>
<polygon fill="#2b8d1d" stroke="none" points="8,-4 8,-21 72,-21 72,-4 8,-4"/>
<polygon fill="none" stroke="#206915" points="8,-4 8,-21 72,-21 72,-4 8,-4"/>
<text text-anchor="start" x="36" y="-10" font-family="Helvetica,sans-Serif" font-size="10.00" fill="#ffffff">OUT ◉</text>
</g>
<!-- seven_segments -->
<g id="node2" class="node"><title>seven_segments</title>
<polygon fill="#928e54" stroke="none" points="124,-21 124,-50 234,-50 234,-21 124,-21"/>
<polygon fill="none" stroke="#3c3b23" points="124,-21 124,-50 234,-50 234,-21 124,-21"/>
<text text-anchor="start" x="127.5" y="-36.3" font-family="Helvetica,sans-Serif" font-size="14.00" fill="#000000">seven_segments</text>
<text text-anchor="start" x="149.5" y="-27.1" font-family="Helvetica,sans-Serif" font-size="8.00" fill="#000000">SevenSegments</text>
<polygon fill="#6d6a3f" stroke="none" points="124,-4 124,-21 234,-21 234,-4 124,-4"/>
<polygon fill="none" stroke="#3c3b23" points="124,-4 124,-21 234,-21 234,-4 124,-4"/>
<text text-anchor="start" x="127" y="-10" font-family="Helvetica,sans-Serif" font-size="10.00" fill="#ffffff">◎ VALUE</text>
</g>
<!-- lever&#45;&gt;seven_segments -->
<g id="edge1" class="edge"><title>lever:OUT:e&#45;&gt;seven_segments:VALUE:w</title>
<path fill="none" stroke="#3e501e" stroke-width="2" d="M73,-12C93.6597,-12 99.9141,-12 118.548,-12"/>
<ellipse fill="#3e501e" stroke="#3e501e" stroke-width="2" cx="121" cy="-12" rx="2" ry="2"/>
</g>
</g>
</svg>
