<?xml version="1.0" encoding="UTF-8" standalone="no"?>
<!DOCTYPE svg PUBLIC "-//W3C//DTD SVG 1.1//EN"
 "http://www.w3.org/Graphics/SVG/1.1/DTD/svg11.dtd">
<!-- Generated by graphviz version 2.36.0 (20140111.2315)
 -->
<!-- Title: fbp Pages: 1 -->
<svg width="190pt" height="134pt"
 viewBox="0.00 0.00 190.00 134.00" xmlns="http://www.w3.org/2000/svg" xmlns:xlink="http://www.w3.org/1999/xlink">
<g id="graph0" class="graph" transform="scale(1 1) rotate(0) translate(4 130)">
<title>fbp</title>
<polygon fill="white" stroke="none" points="-4,4 -4,-130 186,-130 186,4 -4,4"/>
<!-- lever -->
<g id="node1" class="node"><title>lever</title>
<polygon fill="#7365a8" stroke="none" points="9,-57 9,-86 50,-86 50,-57 9,-57"/>
<polygon fill="none" stroke="#302a46" points="9,-57 9,-86 50,-86 50,-57 9,-57"/>
<text text-anchor="start" x="14.5" y="-72.3" font-family="Helvetica,sans-Serif" font-size="14.00" fill="#ffffff">lever</text>
<text text-anchor="start" x="12.5" y="-63.1" font-family="Helvetica,sans-Serif" font-size="8.00" fill="#ffffff">LedLever</text>
<polygon fill="#40385e" stroke="none" points="9,-40 9,-57 50,-57 50,-40 9,-40"/>
<polygon fill="none" stroke="#302a46" points="9,-40 9,-57 50,-57 50,-40 9,-40"/>
<text text-anchor="start" x="14" y="-46" font-family="Helvetica,sans-Serif" font-size="10.00" fill="#ffffff">OUT ◉</text>
</g>
<!-- led1 -->
<g id="node2" class="node"><title>led1</title>
<polygon fill="#c8f4ea" stroke="none" points="102,-93 102,-122 174,-122 174,-93 102,-93"/>
<polygon fill="none" stroke="#546662" points="102,-93 102,-122 174,-122 174,-93 102,-93"/>
<text text-anchor="start" x="125" y="-108.3" font-family="Helvetica,sans-Serif" font-size="14.00" fill="#000000">led1</text>
<text text-anchor="start" x="128.5" y="-99.1" font-family="Helvetica,sans-Serif" font-size="8.00" fill="#000000">Led1</text>
<polygon fill="#96b7af" stroke="none" points="102,-76 102,-93 174,-93 174,-76 102,-76"/>
<polygon fill="none" stroke="#546662" points="102,-76 102,-93 174,-93 174,-76 102,-76"/>
<text text-anchor="start" x="105" y="-82" font-family="Helvetica,sans-Serif" font-size="10.00" fill="#000000">◎ INTENSITY</text>
</g>
<!-- lever&#45;&gt;led1 -->
<g id="edge1" class="edge"><title>lever:OUT_OUT:e&#45;&gt;led1:IN_INTENSITY:w</title>
<path fill="none" stroke="#441b0b" stroke-width="2" d="M51,-48C76.8855,-48 74.0422,-80.1702 96.7854,-83.6888"/>
<ellipse fill="#441b0b" stroke="#441b0b" stroke-width="2" cx="99.0054" cy="-83.8527" rx="2" ry="2"/>
</g>
<!-- led2 -->
<g id="node3" class="node"><title>led2</title>
<polygon fill="#40bcb0" stroke="none" points="102,-21 102,-50 174,-50 174,-21 102,-21"/>
<polygon fill="none" stroke="#1b4e4a" points="102,-21 102,-50 174,-50 174,-21 102,-21"/>
<text text-anchor="start" x="125" y="-36.3" font-family="Helvetica,sans-Serif" font-size="14.00" fill="#000000">led2</text>
<text text-anchor="start" x="128.5" y="-27.1" font-family="Helvetica,sans-Serif" font-size="8.00" fill="#000000">Led2</text>
<polygon fill="#308d84" stroke="none" points="102,-4 102,-21 174,-21 174,-4 102,-4"/>
<polygon fill="none" stroke="#1b4e4a" points="102,-4 102,-21 174,-21 174,-4 102,-4"/>
<text text-anchor="start" x="105" y="-10" font-family="Helvetica,sans-Serif" font-size="10.00" fill="#ffffff">◎ INTENSITY</text>
</g>
<!-- lever&#45;&gt;led2 -->
<g id="edge2" class="edge"><title>lever:OUT_OUT:e&#45;&gt;led2:IN_INTENSITY:w</title>
<path fill="none" stroke="#a99bb4" stroke-width="2" d="M51,-48C76.8855,-48 74.0422,-15.8298 96.7854,-12.3112"/>
<ellipse fill="#a99bb4" stroke="#a99bb4" stroke-width="2" cx="99.0054" cy="-12.1473" rx="2" ry="2"/>
</g>
</g>
</svg>
