<?xml version="1.0" encoding="UTF-8" standalone="no"?>
<!DOCTYPE svg PUBLIC "-//W3C//DTD SVG 1.1//EN"
 "http://www.w3.org/Graphics/SVG/1.1/DTD/svg11.dtd">
<!-- Generated by graphviz version 2.36.0 (20140111.2315)
 -->
<!-- Title: fbp Pages: 1 -->
<svg width="342pt" height="79pt"
 viewBox="0.00 0.00 342.00 79.00" xmlns="http://www.w3.org/2000/svg" xmlns:xlink="http://www.w3.org/1999/xlink">
<g id="graph0" class="graph" transform="scale(1 1) rotate(0) translate(4 75)">
<title>fbp</title>
<polygon fill="white" stroke="none" points="-4,4 -4,-75 338,-75 338,4 -4,4"/>
<!-- accumulator -->
<g id="node1" class="node"><title>accumulator</title>
<polygon fill="#254878" stroke="none" points="126,-38 126,-67 208,-67 208,-38 126,-38"/>
<polygon fill="none" stroke="#0f1e32" points="126,-38 126,-67 208,-67 208,-38 126,-38"/>
<text text-anchor="start" x="129.5" y="-53.3" font-family="Helvetica,sans-Serif" font-size="14.00" fill="#ffffff">accumulator</text>
<text text-anchor="start" x="139.5" y="-44.1" font-family="Helvetica,sans-Serif" font-size="8.00" fill="#ffffff">int/accumulator</text>
<polygon fill="#1b365a" stroke="none" points="126,-21 126,-38 208,-38 208,-21 126,-21"/>
<polygon fill="none" stroke="#0f1e32" points="126,-21 126,-38 208,-38 208,-21 126,-21"/>
<text text-anchor="start" x="129" y="-27" font-family="Helvetica,sans-Serif" font-size="10.00" fill="#ffffff">◎ INC</text>
<polygon fill="#142843" stroke="none" points="126,-4 126,-21 208,-21 208,-4 126,-4"/>
<polygon fill="none" stroke="#0f1e32" points="126,-4 126,-21 208,-21 208,-4 126,-4"/>
<text text-anchor="start" x="172" y="-10" font-family="Helvetica,sans-Serif" font-size="10.00" fill="#ffffff">OUT ◉</text>
</g>
<!-- seg -->
<g id="node3" class="node"><title>seg</title>
<polygon fill="#928e54" stroke="none" points="260,-21 260,-50 326,-50 326,-21 260,-21"/>
<polygon fill="none" stroke="#3c3b23" points="260,-21 260,-50 326,-50 326,-21 260,-21"/>
<text text-anchor="start" x="282" y="-36.3" font-family="Helvetica,sans-Serif" font-size="14.00" fill="#000000">seg</text>
<text text-anchor="start" x="263.5" y="-27.1" font-family="Helvetica,sans-Serif" font-size="8.00" fill="#000000">SevenSegments</text>
<polygon fill="#6d6a3f" stroke="none" points="260,-4 260,-21 326,-21 326,-4 260,-4"/>
<polygon fill="none" stroke="#3c3b23" points="260,-4 260,-21 326,-21 326,-4 260,-4"/>
<text text-anchor="start" x="263" y="-10" font-family="Helvetica,sans-Serif" font-size="10.00" fill="#ffffff">◎ VALUE</text>
</g>
<!-- accumulator&#45;&gt;seg -->
<g id="edge2" class="edge"><title>accumulator:OUT_OUT:e&#45;&gt;seg:IN_VALUE:w</title>
<path fill="none" stroke="#c22a4e" stroke-width="2" d="M209,-12C229.66,-12 235.914,-12 254.548,-12"/>
<ellipse fill="#c22a4e" stroke="#c22a4e" stroke-width="2" cx="257" cy="-12" rx="2" ry="2"/>
</g>
<!-- timer -->
<g id="node2" class="node"><title>timer</title>
<polygon fill="#3eba14" stroke="none" points="8,-38 8,-67 74,-67 74,-38 8,-38"/>
<polygon fill="none" stroke="#194e08" points="8,-38 8,-67 74,-67 74,-38 8,-38"/>
<text text-anchor="start" x="25.5" y="-53.3" font-family="Helvetica,sans-Serif" font-size="14.00" fill="#000000">timer</text>
<text text-anchor="start" x="11.5" y="-44.1" font-family="Helvetica,sans-Serif" font-size="8.00" fill="#000000">wallclock/second</text>
<polygon fill="#22680b" stroke="none" points="8,-21 8,-38 74,-38 74,-21 8,-21"/>
<polygon fill="none" stroke="#194e08" points="8,-21 8,-38 74,-38 74,-21 8,-21"/>
<text text-anchor="start" x="38" y="-27" font-family="Helvetica,sans-Serif" font-size="10.00" fill="#ffffff">OUT ◉</text>
</g>
<!-- timer&#45;&gt;accumulator -->
<g id="edge1" class="edge"><title>timer:OUT_OUT:e&#45;&gt;accumulator:IN_INC:w</title>
<path fill="none" stroke="#fa819c" stroke-width="2" d="M75,-29C95.6597,-29 101.914,-29 120.548,-29"/>
<ellipse fill="#fa819c" stroke="#fa819c" stroke-width="2" cx="123" cy="-29" rx="2" ry="2"/>
</g>
</g>
</svg>
