<?xml version="1.0" encoding="UTF-8" standalone="no"?>
<!DOCTYPE svg PUBLIC "-//W3C//DTD SVG 1.1//EN"
 "http://www.w3.org/Graphics/SVG/1.1/DTD/svg11.dtd">
<!-- Generated by graphviz version 2.36.0 (20140111.2315)
 -->
<!-- Title: fbp Pages: 1 -->
<svg width="600pt" height="129pt"
 viewBox="0.00 0.00 600.00 129.00" xmlns="http://www.w3.org/2000/svg" xmlns:xlink="http://www.w3.org/1999/xlink">
<g id="graph0" class="graph" transform="scale(1 1) rotate(0) translate(4 125)">
<title>fbp</title>
<polygon fill="white" stroke="none" points="-4,4 -4,-125 596,-125 596,4 -4,4"/>
<!-- accumulator -->
<g id="node1" class="node"><title>accumulator</title>
<polygon fill="#254878" stroke="none" points="126,-88 126,-117 208,-117 208,-88 126,-88"/>
<polygon fill="none" stroke="#0f1e32" points="126,-88 126,-117 208,-117 208,-88 126,-88"/>
<text text-anchor="start" x="129.5" y="-103.3" font-family="Helvetica,sans-Serif" font-size="14.00" fill="#ffffff">accumulator</text>
<text text-anchor="start" x="139.5" y="-94.1" font-family="Helvetica,sans-Serif" font-size="8.00" fill="#ffffff">int/accumulator</text>
<polygon fill="#1b365a" stroke="none" points="126,-71 126,-88 208,-88 208,-71 126,-71"/>
<polygon fill="none" stroke="#0f1e32" points="126,-71 126,-88 208,-88 208,-71 126,-71"/>
<text text-anchor="start" x="129" y="-77" font-family="Helvetica,sans-Serif" font-size="10.00" fill="#ffffff">◎ INC</text>
<polygon fill="#142843" stroke="none" points="126,-54 126,-71 208,-71 208,-54 126,-54"/>
<polygon fill="none" stroke="#0f1e32" points="126,-54 126,-71 208,-71 208,-54 126,-54"/>
<text text-anchor="start" x="172" y="-60" font-family="Helvetica,sans-Serif" font-size="10.00" fill="#ffffff">OUT ◉</text>
</g>
<!-- int_to_byte -->
<g id="node3" class="node"><title>int_to_byte</title>
<polygon fill="#bd648a" stroke="none" points="260,-71 260,-100 340,-100 340,-71 260,-71"/>
<polygon fill="none" stroke="#4e2a39" points="260,-71 260,-100 340,-100 340,-71 260,-71"/>
<text text-anchor="start" x="266.5" y="-86.3" font-family="Helvetica,sans-Serif" font-size="14.00" fill="#000000">int_to_byte</text>
<text text-anchor="start" x="263.5" y="-77.1" font-family="Helvetica,sans-Serif" font-size="8.00" fill="#000000">converter/int&#45;to&#45;byte</text>
<polygon fill="#8d4b67" stroke="none" points="260,-54 260,-71 340,-71 340,-54 260,-54"/>
<polygon fill="none" stroke="#4e2a39" points="260,-54 260,-71 340,-71 340,-54 260,-54"/>
<text text-anchor="start" x="263" y="-60" font-family="Helvetica,sans-Serif" font-size="10.00" fill="#ffffff">◎ IN</text>
<polygon fill="#69384d" stroke="none" points="260,-37 260,-54 340,-54 340,-37 260,-37"/>
<polygon fill="none" stroke="#4e2a39" points="260,-37 260,-54 340,-54 340,-37 260,-37"/>
<text text-anchor="start" x="304" y="-43" font-family="Helvetica,sans-Serif" font-size="10.00" fill="#ffffff">OUT ◉</text>
</g>
<!-- accumulator&#45;&gt;int_to_byte -->
<g id="edge2" class="edge"><title>accumulator:OUT:e&#45;&gt;int_to_byte:IN:w</title>
<path fill="none" stroke="#16f3e2" stroke-width="2" d="M209,-62C229.66,-62 235.914,-62 254.548,-62"/>
<ellipse fill="#16f3e2" stroke="#16f3e2" stroke-width="2" cx="257" cy="-62" rx="2" ry="2"/>
</g>
<!-- timer -->
<g id="node2" class="node"><title>timer</title>
<polygon fill="#3eba14" stroke="none" points="8,-88 8,-117 74,-117 74,-88 8,-88"/>
<polygon fill="none" stroke="#194e08" points="8,-88 8,-117 74,-117 74,-88 8,-88"/>
<text text-anchor="start" x="25.5" y="-103.3" font-family="Helvetica,sans-Serif" font-size="14.00" fill="#000000">timer</text>
<text text-anchor="start" x="11.5" y="-94.1" font-family="Helvetica,sans-Serif" font-size="8.00" fill="#000000">wallclock/second</text>
<polygon fill="#22680b" stroke="none" points="8,-71 8,-88 74,-88 74,-71 8,-71"/>
<polygon fill="none" stroke="#194e08" points="8,-71 8,-88 74,-88 74,-71 8,-71"/>
<text text-anchor="start" x="38" y="-77" font-family="Helvetica,sans-Serif" font-size="10.00" fill="#ffffff">OUT ◉</text>
</g>
<!-- timer&#45;&gt;accumulator -->
<g id="edge1" class="edge"><title>timer:OUT:e&#45;&gt;accumulator:INC:w</title>
<path fill="none" stroke="#fa819c" stroke-width="2" d="M75,-79C95.6597,-79 101.914,-79 120.548,-79"/>
<ellipse fill="#fa819c" stroke="#fa819c" stroke-width="2" cx="123" cy="-79" rx="2" ry="2"/>
</g>
<!-- byte_to_bits -->
<g id="node4" class="node"><title>byte_to_bits</title>
<polygon fill="#bd648a" stroke="none" points="393,-54 393,-83 476,-83 476,-54 393,-54"/>
<polygon fill="none" stroke="#4e2a39" points="393,-54 393,-83 476,-83 476,-54 393,-54"/>
<text text-anchor="start" x="398" y="-69.3" font-family="Helvetica,sans-Serif" font-size="14.00" fill="#000000">byte_to_bits</text>
<text text-anchor="start" x="396.5" y="-60.1" font-family="Helvetica,sans-Serif" font-size="8.00" fill="#000000">converter/byte&#45;to&#45;bits</text>
<polygon fill="#8d4b67" stroke="none" points="393,-37 393,-54 476,-54 476,-37 393,-37"/>
<polygon fill="none" stroke="#4e2a39" points="393,-37 393,-54 476,-54 476,-37 393,-37"/>
<text text-anchor="start" x="396" y="-43" font-family="Helvetica,sans-Serif" font-size="10.00" fill="#ffffff">◎ IN</text>
<polygon fill="#69384d" stroke="none" points="393,-20 393,-37 476,-37 476,-20 393,-20"/>
<polygon fill="none" stroke="#4e2a39" points="393,-20 393,-37 476,-37 476,-20 393,-20"/>
<text text-anchor="start" x="440" y="-26" font-family="Helvetica,sans-Serif" font-size="10.00" fill="#ffffff">OUT ◉</text>
</g>
<!-- int_to_byte&#45;&gt;byte_to_bits -->
<g id="edge3" class="edge"><title>int_to_byte:OUT:e&#45;&gt;byte_to_bits:IN:w</title>
<path fill="none" stroke="#6a512e" stroke-width="2" d="M341,-45C362.25,-45 368.559,-45 387.941,-45"/>
<ellipse fill="#6a512e" stroke="#6a512e" stroke-width="2" cx="390" cy="-45" rx="2" ry="2"/>
</g>
<!-- led -->
<g id="node5" class="node"><title>led</title>
<polygon fill="#9d38ea" stroke="none" points="529,-54 529,-83 584,-83 584,-54 529,-54"/>
<polygon fill="none" stroke="#411762" points="529,-54 529,-83 584,-83 584,-54 529,-54"/>
<text text-anchor="start" x="547" y="-69.3" font-family="Helvetica,sans-Serif" font-size="14.00" fill="#ffffff">led</text>
<text text-anchor="start" x="541" y="-60.1" font-family="Helvetica,sans-Serif" font-size="8.00" fill="#ffffff">RGBLed</text>
<polygon fill="#752aaf" stroke="none" points="529,-37 529,-54 584,-54 584,-37 529,-37"/>
<polygon fill="none" stroke="#411762" points="529,-37 529,-54 584,-54 584,-37 529,-37"/>
<text text-anchor="start" x="532" y="-43" font-family="Helvetica,sans-Serif" font-size="10.00" fill="#ffffff">◎ RED</text>
<polygon fill="#752aaf" stroke="none" points="529,-20 529,-37 584,-37 584,-20 529,-20"/>
<polygon fill="none" stroke="#411762" points="529,-20 529,-37 584,-37 584,-20 529,-20"/>
<text text-anchor="start" x="532" y="-26" font-family="Helvetica,sans-Serif" font-size="10.00" fill="#ffffff">◎ GREEN</text>
<polygon fill="#752aaf" stroke="none" points="529,-3 529,-20 584,-20 584,-3 529,-3"/>
<polygon fill="none" stroke="#411762" points="529,-3 529,-20 584,-20 584,-3 529,-3"/>
<text text-anchor="start" x="532" y="-9" font-family="Helvetica,sans-Serif" font-size="10.00" fill="#ffffff">◎ BLUE</text>
</g>
<!-- byte_to_bits&#45;&gt;led -->
<g id="edge4" class="edge"><title>byte_to_bits:OUT:e&#45;&gt;led:RED:w</title>
<path fill="none" stroke="#5e2a8c" stroke-width="2" d="M477,-28C499.629,-28 503.548,-43.9524 523.984,-45.8218"/>
<ellipse fill="#5e2a8c" stroke="#5e2a8c" stroke-width="2" cx="526.002" cy="-45.9113" rx="2" ry="2"/>
</g>
<!-- byte_to_bits&#45;&gt;led -->
<g id="edge5" class="edge"><title>byte_to_bits:OUT:e&#45;&gt;led:GREEN:w</title>
<path fill="none" stroke="#377b16" stroke-width="2" d="M477,-28C498.25,-28 504.559,-28 523.941,-28"/>
<ellipse fill="#377b16" stroke="#377b16" stroke-width="2" cx="526" cy="-28" rx="2" ry="2"/>
</g>
<!-- byte_to_bits&#45;&gt;led -->
<g id="edge6" class="edge"><title>byte_to_bits:OUT:e&#45;&gt;led:BLUE:w</title>
<path fill="none" stroke="#397dc2" stroke-width="2" d="M477,-28C499.399,-28 503.625,-13.0586 523.752,-11.1909"/>
<ellipse fill="#397dc2" stroke="#397dc2" stroke-width="2" cx="526.002" cy="-11.0898" rx="2" ry="2"/>
</g>
</g>
</svg>
