<?xml version="1.0" encoding="UTF-8" standalone="no"?>
<!DOCTYPE svg PUBLIC "-//W3C//DTD SVG 1.1//EN"
 "http://www.w3.org/Graphics/SVG/1.1/DTD/svg11.dtd">
<!-- Generated by graphviz version 2.36.0 (20140111.2315)
 -->
<!-- Title: fbp Pages: 1 -->
<svg width="172pt" height="312pt"
 viewBox="0.00 0.00 172.00 312.00" xmlns="http://www.w3.org/2000/svg" xmlns:xlink="http://www.w3.org/1999/xlink">
<g id="graph0" class="graph" transform="scale(1 1) rotate(0) translate(4 308)">
<title>fbp</title>
<polygon fill="white" stroke="none" points="-4,4 -4,-308 168,-308 168,4 -4,4"/>
<!-- btn1 -->
<g id="node1" class="node"><title>btn1</title>
<polygon fill="#bd4270" stroke="none" points="8,-231 8,-260 48,-260 48,-231 8,-231"/>
<polygon fill="none" stroke="#4e1b2f" points="8,-231 8,-260 48,-260 48,-231 8,-231"/>
<text text-anchor="start" x="14.5" y="-246.3" font-family="Helvetica,sans-Serif" font-size="14.00" fill="#ffffff">btn1</text>
<text text-anchor="start" x="14" y="-237.1" font-family="Helvetica,sans-Serif" font-size="8.00" fill="#ffffff">Button1</text>
<polygon fill="#69243f" stroke="none" points="8,-214 8,-231 48,-231 48,-214 8,-214"/>
<polygon fill="none" stroke="#4e1b2f" points="8,-214 8,-231 48,-231 48,-214 8,-214"/>
<text text-anchor="start" x="12" y="-220" font-family="Helvetica,sans-Serif" font-size="10.00" fill="#ffffff">OUT ◉</text>
</g>
<!-- led -->
<g id="node2" class="node"><title>led</title>
<polygon fill="#9d38ea" stroke="none" points="101,-199 101,-228 156,-228 156,-199 101,-199"/>
<polygon fill="none" stroke="#411762" points="101,-199 101,-228 156,-228 156,-199 101,-199"/>
<text text-anchor="start" x="119" y="-214.3" font-family="Helvetica,sans-Serif" font-size="14.00" fill="#ffffff">led</text>
<text text-anchor="start" x="113" y="-205.1" font-family="Helvetica,sans-Serif" font-size="8.00" fill="#ffffff">RGBLed</text>
<polygon fill="#752aaf" stroke="none" points="101,-182 101,-199 156,-199 156,-182 101,-182"/>
<polygon fill="none" stroke="#411762" points="101,-182 101,-199 156,-199 156,-182 101,-182"/>
<text text-anchor="start" x="104" y="-188" font-family="Helvetica,sans-Serif" font-size="10.00" fill="#ffffff">◎ RED</text>
<polygon fill="#752aaf" stroke="none" points="101,-165 101,-182 156,-182 156,-165 101,-165"/>
<polygon fill="none" stroke="#411762" points="101,-165 101,-182 156,-182 156,-165 101,-165"/>
<text text-anchor="start" x="104" y="-171" font-family="Helvetica,sans-Serif" font-size="10.00" fill="#ffffff">◎ GREEN</text>
<polygon fill="#752aaf" stroke="none" points="101,-148 101,-165 156,-165 156,-148 101,-148"/>
<polygon fill="none" stroke="#411762" points="101,-148 101,-165 156,-165 156,-148 101,-148"/>
<text text-anchor="start" x="104" y="-154" font-family="Helvetica,sans-Serif" font-size="10.00" fill="#ffffff">◎ BLUE</text>
</g>
<!-- btn1&#45;&gt;led -->
<g id="edge1" class="edge"><title>btn1:OUT_OUT:e&#45;&gt;led:IN_RED:w</title>
<path fill="none" stroke="#9f2fa0" stroke-width="2" d="M49,-222C74.0749,-222 73.6133,-194.298 95.8952,-191.268"/>
<ellipse fill="#9f2fa0" stroke="#9f2fa0" stroke-width="2" cx="98.0042" cy="-191.13" rx="2" ry="2"/>
</g>
<!-- log -->
<g id="node3" class="node"><title>log</title>
<polygon fill="#471ca4" stroke="none" points="111,-271 111,-300 146,-300 146,-271 111,-271"/>
<polygon fill="none" stroke="#1d0b45" points="111,-271 111,-300 146,-300 146,-271 111,-271"/>
<text text-anchor="start" x="119" y="-286.3" font-family="Helvetica,sans-Serif" font-size="14.00" fill="#ffffff">log</text>
<text text-anchor="start" x="114.5" y="-277.1" font-family="Helvetica,sans-Serif" font-size="8.00" fill="#ffffff">console</text>
<polygon fill="#35157b" stroke="none" points="111,-254 111,-271 146,-271 146,-254 111,-254"/>
<polygon fill="none" stroke="#1d0b45" points="111,-254 111,-271 146,-271 146,-254 111,-254"/>
<text text-anchor="start" x="114" y="-260" font-family="Helvetica,sans-Serif" font-size="10.00" fill="#ffffff">◎ IN</text>
</g>
<!-- btn1&#45;&gt;log -->
<g id="edge2" class="edge"><title>btn1:OUT_OUT:e&#45;&gt;log:IN_IN:w</title>
<path fill="none" stroke="#28f5c4" stroke-width="2" d="M49,-222C79.9004,-222 77.8603,-258.338 105.672,-261.745"/>
<ellipse fill="#28f5c4" stroke="#28f5c4" stroke-width="2" cx="108.003" cy="-261.882" rx="2" ry="2"/>
</g>
<!-- btn2 -->
<g id="node4" class="node"><title>btn2</title>
<polygon fill="#350a2a" stroke="none" points="8,-150 8,-179 48,-179 48,-150 8,-150"/>
<polygon fill="none" stroke="#150311" points="8,-150 8,-179 48,-179 48,-150 8,-150"/>
<text text-anchor="start" x="14.5" y="-165.3" font-family="Helvetica,sans-Serif" font-size="14.00" fill="#ffffff">btn2</text>
<text text-anchor="start" x="14" y="-156.1" font-family="Helvetica,sans-Serif" font-size="8.00" fill="#ffffff">Button2</text>
<polygon fill="#1d0517" stroke="none" points="8,-133 8,-150 48,-150 48,-133 8,-133"/>
<polygon fill="none" stroke="#150311" points="8,-133 8,-150 48,-150 48,-133 8,-133"/>
<text text-anchor="start" x="12" y="-139" font-family="Helvetica,sans-Serif" font-size="10.00" fill="#ffffff">OUT ◉</text>
</g>
<!-- btn2&#45;&gt;led -->
<g id="edge3" class="edge"><title>btn2:OUT_OUT:e&#45;&gt;led:IN_GREEN:w</title>
<path fill="none" stroke="#397e82" stroke-width="2" d="M49,-141C74.2957,-141 73.4288,-169.596 95.8629,-172.723"/>
<ellipse fill="#397e82" stroke="#397e82" stroke-width="2" cx="98.0045" cy="-172.867" rx="2" ry="2"/>
</g>
<!-- log2 -->
<g id="node5" class="node"><title>log2</title>
<polygon fill="#471ca4" stroke="none" points="111,-93 111,-122 146,-122 146,-93 111,-93"/>
<polygon fill="none" stroke="#1d0b45" points="111,-93 111,-122 146,-122 146,-93 111,-93"/>
<text text-anchor="start" x="115.5" y="-108.3" font-family="Helvetica,sans-Serif" font-size="14.00" fill="#ffffff">log2</text>
<text text-anchor="start" x="114.5" y="-99.1" font-family="Helvetica,sans-Serif" font-size="8.00" fill="#ffffff">console</text>
<polygon fill="#35157b" stroke="none" points="111,-76 111,-93 146,-93 146,-76 111,-76"/>
<polygon fill="none" stroke="#1d0b45" points="111,-76 111,-93 146,-93 146,-76 111,-76"/>
<text text-anchor="start" x="114" y="-82" font-family="Helvetica,sans-Serif" font-size="10.00" fill="#ffffff">◎ IN</text>
</g>
<!-- btn2&#45;&gt;log2 -->
<g id="edge4" class="edge"><title>btn2:OUT_OUT:e&#45;&gt;log2:IN_IN:w</title>
<path fill="none" stroke="#bb9700" stroke-width="2" d="M49,-141C84.6557,-141 73.8502,-88.3661 105.876,-84.2541"/>
<ellipse fill="#bb9700" stroke="#bb9700" stroke-width="2" cx="108.004" cy="-84.1231" rx="2" ry="2"/>
</g>
<!-- btn3 -->
<g id="node6" class="node"><title>btn3</title>
<polygon fill="#4d321c" stroke="none" points="8,-61 8,-90 48,-90 48,-61 8,-61"/>
<polygon fill="none" stroke="#1f140b" points="8,-61 8,-90 48,-90 48,-61 8,-61"/>
<text text-anchor="start" x="14.5" y="-76.3" font-family="Helvetica,sans-Serif" font-size="14.00" fill="#ffffff">btn3</text>
<text text-anchor="start" x="14" y="-67.1" font-family="Helvetica,sans-Serif" font-size="8.00" fill="#ffffff">Button3</text>
<polygon fill="#2a1b0f" stroke="none" points="8,-44 8,-61 48,-61 48,-44 8,-44"/>
<polygon fill="none" stroke="#1f140b" points="8,-44 8,-61 48,-61 48,-44 8,-44"/>
<text text-anchor="start" x="12" y="-50" font-family="Helvetica,sans-Serif" font-size="10.00" fill="#ffffff">OUT ◉</text>
</g>
<!-- btn3&#45;&gt;led -->
<g id="edge5" class="edge"><title>btn3:OUT_OUT:e&#45;&gt;led:IN_BLUE:w</title>
<path fill="none" stroke="#5247d6" stroke-width="2" d="M49,-52C99.0731,-52 51.2835,-150.39 96.0048,-155.771"/>
<ellipse fill="#5247d6" stroke="#5247d6" stroke-width="2" cx="98.0033" cy="-155.885" rx="2" ry="2"/>
</g>
<!-- log3 -->
<g id="node7" class="node"><title>log3</title>
<polygon fill="#471ca4" stroke="none" points="111,-21 111,-50 146,-50 146,-21 111,-21"/>
<polygon fill="none" stroke="#1d0b45" points="111,-21 111,-50 146,-50 146,-21 111,-21"/>
<text text-anchor="start" x="115.5" y="-36.3" font-family="Helvetica,sans-Serif" font-size="14.00" fill="#ffffff">log3</text>
<text text-anchor="start" x="114.5" y="-27.1" font-family="Helvetica,sans-Serif" font-size="8.00" fill="#ffffff">console</text>
<polygon fill="#35157b" stroke="none" points="111,-4 111,-21 146,-21 146,-4 111,-4"/>
<polygon fill="none" stroke="#1d0b45" points="111,-4 111,-21 146,-21 146,-4 111,-4"/>
<text text-anchor="start" x="114" y="-10" font-family="Helvetica,sans-Serif" font-size="10.00" fill="#ffffff">◎ IN</text>
</g>
<!-- btn3&#45;&gt;log3 -->
<g id="edge6" class="edge"><title>btn3:OUT_OUT:e&#45;&gt;log3:IN_IN:w</title>
<path fill="none" stroke="#51ea7c" stroke-width="2" d="M49,-52C79.9004,-52 77.8603,-15.6621 105.672,-12.2554"/>
<ellipse fill="#51ea7c" stroke="#51ea7c" stroke-width="2" cx="108.003" cy="-12.1179" rx="2" ry="2"/>
</g>
</g>
</svg>
