<?xml version="1.0" encoding="UTF-8" standalone="no"?>
<!DOCTYPE svg PUBLIC "-//W3C//DTD SVG 1.1//EN"
 "http://www.w3.org/Graphics/SVG/1.1/DTD/svg11.dtd">
<!-- Generated by graphviz version 2.36.0 (20140111.2315)
 -->
<!-- Title: fbp Pages: 1 -->
<svg width="210pt" height="62pt"
 viewBox="0.00 0.00 210.00 62.00" xmlns="http://www.w3.org/2000/svg" xmlns:xlink="http://www.w3.org/1999/xlink">
<g id="graph0" class="graph" transform="scale(1 1) rotate(0) translate(4 58)">
<title>fbp</title>
<polygon fill="white" stroke="none" points="-4,4 -4,-58 206,-58 206,4 -4,4"/>
<!-- init_val -->
<g id="node1" class="node"><title>init_val</title>
<polygon fill="#e8ea7a" stroke="none" points="8,-21 8,-50 76,-50 76,-21 8,-21"/>
<polygon fill="none" stroke="#616233" points="8,-21 8,-50 76,-50 76,-21 8,-21"/>
<text text-anchor="start" x="20.5" y="-36.3" font-family="Helvetica,sans-Serif" font-size="14.00" fill="#000000">init_val</text>
<text text-anchor="start" x="11.5" y="-27.1" font-family="Helvetica,sans-Serif" font-size="8.00" fill="#000000">constant/boolean</text>
<polygon fill="#828344" stroke="none" points="8,-4 8,-21 76,-21 76,-4 8,-4"/>
<polygon fill="none" stroke="#616233" points="8,-4 8,-21 76,-21 76,-4 8,-4"/>
<text text-anchor="start" x="40" y="-10" font-family="Helvetica,sans-Serif" font-size="10.00" fill="#ffffff">OUT ◉</text>
</g>
<!-- buzzer -->
<g id="node2" class="node"><title>buzzer</title>
<polygon fill="#ffe194" stroke="none" points="128,-21 128,-50 194,-50 194,-21 128,-21"/>
<polygon fill="none" stroke="#6b5e3e" points="128,-21 128,-50 194,-50 194,-21 128,-21"/>
<text text-anchor="start" x="140.5" y="-36.3" font-family="Helvetica,sans-Serif" font-size="14.00" fill="#000000">buzzer</text>
<text text-anchor="start" x="148.5" y="-27.1" font-family="Helvetica,sans-Serif" font-size="8.00" fill="#000000">Buzzer</text>
<polygon fill="#bfa86f" stroke="none" points="128,-4 128,-21 194,-21 194,-4 128,-4"/>
<polygon fill="none" stroke="#6b5e3e" points="128,-4 128,-21 194,-21 194,-4 128,-4"/>
<text text-anchor="start" x="131" y="-10" font-family="Helvetica,sans-Serif" font-size="10.00" fill="#000000">◎ ENABLED</text>
</g>
<!-- init_val&#45;&gt;buzzer -->
<g id="edge1" class="edge"><title>init_val:OUT_OUT:e&#45;&gt;buzzer:IN_ENABLED:w</title>
<path fill="none" stroke="#bc5684" stroke-width="2" d="M77,-12C97.6597,-12 103.914,-12 122.548,-12"/>
<ellipse fill="#bc5684" stroke="#bc5684" stroke-width="2" cx="125" cy="-12" rx="2" ry="2"/>
</g>
</g>
</svg>
