<?xml version="1.0" encoding="UTF-8" standalone="no"?>
<!DOCTYPE svg PUBLIC "-//W3C//DTD SVG 1.1//EN"
 "http://www.w3.org/Graphics/SVG/1.1/DTD/svg11.dtd">
<!-- Generated by graphviz version 2.36.0 (20140111.2315)
 -->
<!-- Title: fbp Pages: 1 -->
<svg width="342pt" height="79pt"
 viewBox="0.00 0.00 342.00 79.00" xmlns="http://www.w3.org/2000/svg" xmlns:xlink="http://www.w3.org/1999/xlink">
<g id="graph0" class="graph" transform="scale(1 1) rotate(0) translate(4 75)">
<title>fbp</title>
<polygon fill="white" stroke="none" points="-4,4 -4,-75 338,-75 338,4 -4,4"/>
<!-- lightSensor -->
<g id="node1" class="node"><title>lightSensor</title>
<polygon fill="#67d9f4" stroke="none" points="9,-38 9,-67 84,-67 84,-38 9,-38"/>
<polygon fill="none" stroke="#2a5a66" points="9,-38 9,-67 84,-67 84,-38 9,-38"/>
<text text-anchor="start" x="12.5" y="-53.3" font-family="Helvetica,sans-Serif" font-size="14.00" fill="#000000">lightSensor</text>
<text text-anchor="start" x="25" y="-44.1" font-family="Helvetica,sans-Serif" font-size="8.00" fill="#000000">LightSensor</text>
<polygon fill="#397989" stroke="none" points="9,-21 9,-38 84,-38 84,-21 9,-21"/>
<polygon fill="none" stroke="#2a5a66" points="9,-21 9,-38 84,-38 84,-21 9,-21"/>
<text text-anchor="start" x="50" y="-27" font-family="Helvetica,sans-Serif" font-size="10.00" fill="#ffffff">LUX ◉</text>
</g>
<!-- analogToBool -->
<g id="node2" class="node"><title>analogToBool</title>
<polygon fill="#bd648a" stroke="none" points="136,-38 136,-67 236,-67 236,-38 136,-38"/>
<polygon fill="none" stroke="#4e2a39" points="136,-38 136,-67 236,-67 236,-38 136,-38"/>
<text text-anchor="start" x="144" y="-53.3" font-family="Helvetica,sans-Serif" font-size="14.00" fill="#000000">analogToBool</text>
<text text-anchor="start" x="139.5" y="-44.1" font-family="Helvetica,sans-Serif" font-size="8.00" fill="#000000">converter/float&#45;to&#45;boolean</text>
<polygon fill="#8d4b67" stroke="none" points="136,-21 136,-38 236,-38 236,-21 136,-21"/>
<polygon fill="none" stroke="#4e2a39" points="136,-21 136,-38 236,-38 236,-21 136,-21"/>
<text text-anchor="start" x="139" y="-27" font-family="Helvetica,sans-Serif" font-size="10.00" fill="#ffffff">◎ IN</text>
<polygon fill="#69384d" stroke="none" points="136,-4 136,-21 236,-21 236,-4 136,-4"/>
<polygon fill="none" stroke="#4e2a39" points="136,-4 136,-21 236,-21 236,-4 136,-4"/>
<text text-anchor="start" x="200" y="-10" font-family="Helvetica,sans-Serif" font-size="10.00" fill="#ffffff">OUT ◉</text>
</g>
<!-- lightSensor&#45;&gt;analogToBool -->
<g id="edge1" class="edge"><title>lightSensor:LUX:e&#45;&gt;analogToBool:IN:w</title>
<path fill="none" stroke="#6b05ba" stroke-width="2" d="M85,-29C105.66,-29 111.914,-29 130.548,-29"/>
<ellipse fill="#6b05ba" stroke="#6b05ba" stroke-width="2" cx="133" cy="-29" rx="2" ry="2"/>
</g>
<!-- led -->
<g id="node3" class="node"><title>led</title>
<polygon fill="#ca1178" stroke="none" points="293,-21 293,-50 322,-50 322,-21 293,-21"/>
<polygon fill="none" stroke="#540632" points="293,-21 293,-50 322,-50 322,-21 293,-21"/>
<text text-anchor="start" x="298" y="-36.3" font-family="Helvetica,sans-Serif" font-size="14.00" fill="#ffffff">led</text>
<text text-anchor="start" x="299.5" y="-27.1" font-family="Helvetica,sans-Serif" font-size="8.00" fill="#ffffff">LED</text>
<polygon fill="#970c5a" stroke="none" points="293,-4 293,-21 322,-21 322,-4 293,-4"/>
<polygon fill="none" stroke="#540632" points="293,-4 293,-21 322,-21 322,-4 293,-4"/>
<text text-anchor="start" x="296" y="-10" font-family="Helvetica,sans-Serif" font-size="10.00" fill="#ffffff">◎ IN</text>
</g>
<!-- analogToBool&#45;&gt;led -->
<g id="edge2" class="edge"><title>analogToBool:OUT:e&#45;&gt;led:IN:w</title>
<path fill="none" stroke="#63d856" stroke-width="2" d="M237,-12C260.012,-12 266.776,-12 287.885,-12"/>
<ellipse fill="#63d856" stroke="#63d856" stroke-width="2" cx="290" cy="-12" rx="2" ry="2"/>
</g>
</g>
</svg>
