<?xml version="1.0" encoding="UTF-8" standalone="no"?>
<!DOCTYPE svg PUBLIC "-//W3C//DTD SVG 1.1//EN"
 "http://www.w3.org/Graphics/SVG/1.1/DTD/svg11.dtd">
<!-- Generated by graphviz version 2.36.0 (20140111.2315)
 -->
<!-- Title: fbp Pages: 1 -->
<svg width="160pt" height="62pt"
 viewBox="0.00 0.00 160.00 62.00" xmlns="http://www.w3.org/2000/svg" xmlns:xlink="http://www.w3.org/1999/xlink">
<g id="graph0" class="graph" transform="scale(1 1) rotate(0) translate(4 58)">
<title>fbp</title>
<polygon fill="white" stroke="none" points="-4,4 -4,-58 156,-58 156,4 -4,4"/>
<!-- button -->
<g id="node1" class="node"><title>button</title>
<polygon fill="#a9679e" stroke="none" points="9,-21 9,-50 54,-50 54,-21 9,-21"/>
<polygon fill="none" stroke="#462a42" points="9,-21 9,-50 54,-50 54,-21 9,-21"/>
<text text-anchor="start" x="12.5" y="-36.3" font-family="Helvetica,sans-Serif" font-size="14.00" fill="#000000">button</text>
<text text-anchor="start" x="19.5" y="-27.1" font-family="Helvetica,sans-Serif" font-size="8.00" fill="#000000">Button</text>
<polygon fill="#5e3958" stroke="none" points="9,-4 9,-21 54,-21 54,-4 9,-4"/>
<polygon fill="none" stroke="#462a42" points="9,-4 9,-21 54,-21 54,-4 9,-4"/>
<text text-anchor="start" x="18" y="-10" font-family="Helvetica,sans-Serif" font-size="10.00" fill="#ffffff">OUT ◉</text>
</g>
<!-- led -->
<g id="node2" class="node"><title>led</title>
<polygon fill="#ca1178" stroke="none" points="111,-21 111,-50 140,-50 140,-21 111,-21"/>
<polygon fill="none" stroke="#540632" points="111,-21 111,-50 140,-50 140,-21 111,-21"/>
<text text-anchor="start" x="116" y="-36.3" font-family="Helvetica,sans-Serif" font-size="14.00" fill="#ffffff">led</text>
<text text-anchor="start" x="117.5" y="-27.1" font-family="Helvetica,sans-Serif" font-size="8.00" fill="#ffffff">LED</text>
<polygon fill="#970c5a" stroke="none" points="111,-4 111,-21 140,-21 140,-4 111,-4"/>
<polygon fill="none" stroke="#540632" points="111,-4 111,-21 140,-21 140,-4 111,-4"/>
<text text-anchor="start" x="114" y="-10" font-family="Helvetica,sans-Serif" font-size="10.00" fill="#ffffff">◎ IN</text>
</g>
<!-- button&#45;&gt;led -->
<g id="edge1" class="edge"><title>button:OUT:e&#45;&gt;led:IN:w</title>
<path fill="none" stroke="#269580" stroke-width="2" d="M55,-12C78.0122,-12 84.7765,-12 105.885,-12"/>
<ellipse fill="#269580" stroke="#269580" stroke-width="2" cx="108" cy="-12" rx="2" ry="2"/>
</g>
</g>
</svg>
