<?xml version="1.0" encoding="UTF-8" standalone="no"?>
<!DOCTYPE svg PUBLIC "-//W3C//DTD SVG 1.1//EN"
 "http://www.w3.org/Graphics/SVG/1.1/DTD/svg11.dtd">
<!-- Generated by graphviz version 2.36.0 (20140111.2315)
 -->
<!-- Title: fbp Pages: 1 -->
<svg width="352pt" height="151pt"
 viewBox="0.00 0.00 352.00 151.00" xmlns="http://www.w3.org/2000/svg" xmlns:xlink="http://www.w3.org/1999/xlink">
<g id="graph0" class="graph" transform="scale(1 1) rotate(0) translate(4 147)">
<title>fbp</title>
<polygon fill="white" stroke="none" points="-4,4 -4,-147 348,-147 348,4 -4,4"/>
<!-- sensor -->
<g id="node1" class="node"><title>sensor</title>
<polygon fill="#1a642a" stroke="none" points="9,-110 9,-139 86,-139 86,-110 9,-110"/>
<polygon fill="none" stroke="#0a2a11" points="9,-110 9,-139 86,-139 86,-110 9,-110"/>
<text text-anchor="start" x="27" y="-125.3" font-family="Helvetica,sans-Serif" font-size="14.00" fill="#ffffff">sensor</text>
<text text-anchor="start" x="12.5" y="-116.1" font-family="Helvetica,sans-Serif" font-size="8.00" fill="#ffffff">RotaryAngleSensor</text>
<polygon fill="#0e3817" stroke="none" points="9,-93 9,-110 86,-110 86,-93 9,-93"/>
<polygon fill="none" stroke="#0a2a11" points="9,-93 9,-110 86,-110 86,-93 9,-93"/>
<text text-anchor="start" x="49" y="-99" font-family="Helvetica,sans-Serif" font-size="10.00" fill="#ffffff">DEG ◉</text>
</g>
<!-- converter -->
<g id="node2" class="node"><title>converter</title>
<polygon fill="#bd648a" stroke="none" points="139,-110 139,-139 230,-139 230,-110 139,-110"/>
<polygon fill="none" stroke="#4e2a39" points="139,-110 139,-139 230,-139 230,-110 139,-110"/>
<text text-anchor="start" x="156" y="-125.3" font-family="Helvetica,sans-Serif" font-size="14.00" fill="#000000">converter</text>
<text text-anchor="start" x="142.5" y="-116.1" font-family="Helvetica,sans-Serif" font-size="8.00" fill="#000000">converter/float&#45;to&#45;string</text>
<polygon fill="#8d4b67" stroke="none" points="139,-93 139,-110 230,-110 230,-93 139,-93"/>
<polygon fill="none" stroke="#4e2a39" points="139,-93 139,-110 230,-110 230,-93 139,-93"/>
<text text-anchor="start" x="142" y="-99" font-family="Helvetica,sans-Serif" font-size="10.00" fill="#ffffff">◎ IN</text>
<polygon fill="#69384d" stroke="none" points="139,-76 139,-93 230,-93 230,-76 139,-76"/>
<polygon fill="none" stroke="#4e2a39" points="139,-76 139,-93 230,-93 230,-76 139,-76"/>
<text text-anchor="start" x="194" y="-82" font-family="Helvetica,sans-Serif" font-size="10.00" fill="#ffffff">OUT ◉</text>
</g>
<!-- sensor&#45;&gt;converter -->
<g id="edge1" class="edge"><title>sensor:DEG:e&#45;&gt;converter:IN:w</title>
<path fill="none" stroke="#199688" stroke-width="2" d="M87,-101C108.25,-101 114.559,-101 133.941,-101"/>
<ellipse fill="#199688" stroke="#199688" stroke-width="2" cx="136" cy="-101" rx="2" ry="2"/>
</g>
<!-- screen -->
<g id="node3" class="node"><title>screen</title>
<polygon fill="#72d2de" stroke="none" points="282,-65 282,-94 336,-94 336,-65 282,-65"/>
<polygon fill="none" stroke="#2f575d" points="282,-65 282,-94 336,-94 336,-65 282,-65"/>
<text text-anchor="start" x="288.5" y="-80.3" font-family="Helvetica,sans-Serif" font-size="14.00" fill="#000000">screen</text>
<text text-anchor="start" x="290" y="-71.1" font-family="Helvetica,sans-Serif" font-size="8.00" fill="#000000">LCDString</text>
<polygon fill="#559da6" stroke="none" points="282,-48 282,-65 336,-65 336,-48 282,-48"/>
<polygon fill="none" stroke="#2f575d" points="282,-48 282,-65 336,-65 336,-48 282,-48"/>
<text text-anchor="start" x="285" y="-54" font-family="Helvetica,sans-Serif" font-size="10.00" fill="#000000">◎ IN</text>
<polygon fill="#559da6" stroke="none" points="282,-31 282,-48 336,-48 336,-31 282,-31"/>
<polygon fill="none" stroke="#2f575d" points="282,-31 282,-48 336,-48 336,-31 282,-31"/>
<text text-anchor="start" x="285" y="-37" font-family="Helvetica,sans-Serif" font-size="10.00" fill="#000000">◎ COLOR</text>
</g>
<!-- converter&#45;&gt;screen -->
<g id="edge2" class="edge"><title>converter:OUT:e&#45;&gt;screen:IN:w</title>
<path fill="none" stroke="#f411c2" stroke-width="2" d="M231,-84C254.977,-84 255.55,-59.1851 276.784,-56.2771"/>
<ellipse fill="#f411c2" stroke="#f411c2" stroke-width="2" cx="279.004" cy="-56.1312" rx="2" ry="2"/>
</g>
<!-- initial_color -->
<g id="node4" class="node"><title>initial_color</title>
<polygon fill="#e8ea7a" stroke="none" points="147,-21 147,-50 222,-50 222,-21 147,-21"/>
<polygon fill="none" stroke="#616233" points="147,-21 147,-50 222,-50 222,-21 147,-21"/>
<text text-anchor="start" x="150.5" y="-36.3" font-family="Helvetica,sans-Serif" font-size="14.00" fill="#000000">initial_color</text>
<text text-anchor="start" x="162" y="-27.1" font-family="Helvetica,sans-Serif" font-size="8.00" fill="#000000">constant/rgb</text>
<polygon fill="#828344" stroke="none" points="147,-4 147,-21 222,-21 222,-4 147,-4"/>
<polygon fill="none" stroke="#616233" points="147,-4 147,-21 222,-21 222,-4 147,-4"/>
<text text-anchor="start" x="186" y="-10" font-family="Helvetica,sans-Serif" font-size="10.00" fill="#ffffff">OUT ◉</text>
</g>
<!-- initial_color&#45;&gt;screen -->
<g id="edge3" class="edge"><title>initial_color:OUT:e&#45;&gt;screen:COLOR:w</title>
<path fill="none" stroke="#7cee30" stroke-width="2" d="M223,-12C249.99,-12 252.381,-36.3274 276.872,-38.7982"/>
<ellipse fill="#7cee30" stroke="#7cee30" stroke-width="2" cx="279.002" cy="-38.9023" rx="2" ry="2"/>
</g>
</g>
</svg>
