<?xml version="1.0" encoding="UTF-8" standalone="no"?>
<!DOCTYPE svg PUBLIC "-//W3C//DTD SVG 1.1//EN"
 "http://www.w3.org/Graphics/SVG/1.1/DTD/svg11.dtd">
<!-- Generated by graphviz version 2.36.0 (20140111.2315)
 -->
<!-- Title: fbp Pages: 1 -->
<svg width="760pt" height="151pt"
 viewBox="0.00 0.00 760.00 151.00" xmlns="http://www.w3.org/2000/svg" xmlns:xlink="http://www.w3.org/1999/xlink">
<g id="graph0" class="graph" transform="scale(1 1) rotate(0) translate(4 147)">
<title>fbp</title>
<polygon fill="white" stroke="none" points="-4,4 -4,-147 756,-147 756,4 -4,4"/>
<!-- const_celsius_symbol -->
<g id="node1" class="node"><title>const_celsius_symbol</title>
<polygon fill="#e8ea7a" stroke="none" points="378,-110 378,-139 518,-139 518,-110 378,-110"/>
<polygon fill="none" stroke="#616233" points="378,-110 378,-139 518,-139 518,-110 378,-110"/>
<text text-anchor="start" x="381.5" y="-125.3" font-family="Helvetica,sans-Serif" font-size="14.00" fill="#000000">const_celsius_symbol</text>
<text text-anchor="start" x="422" y="-116.1" font-family="Helvetica,sans-Serif" font-size="8.00" fill="#000000">constant/string</text>
<polygon fill="#828344" stroke="none" points="378,-93 378,-110 518,-110 518,-93 378,-93"/>
<polygon fill="none" stroke="#616233" points="378,-93 378,-110 518,-110 518,-93 378,-93"/>
<text text-anchor="start" x="482" y="-99" font-family="Helvetica,sans-Serif" font-size="10.00" fill="#ffffff">OUT ◉</text>
</g>
<!-- concat -->
<g id="node5" class="node"><title>concat</title>
<polygon fill="#c1ee90" stroke="none" points="571,-65 571,-94 644,-94 644,-65 571,-65"/>
<polygon fill="none" stroke="#51633c" points="571,-65 571,-94 644,-94 644,-65 571,-65"/>
<text text-anchor="start" x="587.5" y="-80.3" font-family="Helvetica,sans-Serif" font-size="14.00" fill="#000000">concat</text>
<text text-anchor="start" x="574.5" y="-71.1" font-family="Helvetica,sans-Serif" font-size="8.00" fill="#000000">string/concatenate</text>
<polygon fill="#90b26c" stroke="none" points="571,-48 571,-65 644,-65 644,-48 571,-48"/>
<polygon fill="none" stroke="#51633c" points="571,-48 571,-65 644,-65 644,-48 571,-48"/>
<text text-anchor="start" x="574" y="-54" font-family="Helvetica,sans-Serif" font-size="10.00" fill="#000000">◎ IN</text>
<polygon fill="#6c8551" stroke="none" points="571,-31 571,-48 644,-48 644,-31 571,-31"/>
<polygon fill="none" stroke="#51633c" points="571,-31 571,-48 644,-48 644,-31 571,-31"/>
<text text-anchor="start" x="608" y="-37" font-family="Helvetica,sans-Serif" font-size="10.00" fill="#ffffff">OUT ◉</text>
</g>
<!-- const_celsius_symbol&#45;&gt;concat -->
<g id="edge4" class="edge"><title>const_celsius_symbol:OUT:e&#45;&gt;concat:IN:w</title>
<path fill="none" stroke="#d49384" stroke-width="2" d="M519,-101C547.812,-101 540.571,-60.1199 566.003,-56.2874"/>
<ellipse fill="#d49384" stroke="#d49384" stroke-width="2" cx="568.005" cy="-56.1434" rx="2" ry="2"/>
</g>
<!-- temperatureSensor -->
<g id="node2" class="node"><title>temperatureSensor</title>
<polygon fill="#539d5a" stroke="none" points="8,-54 8,-83 132,-83 132,-54 8,-54"/>
<polygon fill="none" stroke="#224125" points="8,-54 8,-83 132,-83 132,-54 8,-54"/>
<text text-anchor="start" x="11.5" y="-69.3" font-family="Helvetica,sans-Serif" font-size="14.00" fill="#ffffff">temperatureSensor</text>
<text text-anchor="start" x="33.5" y="-60.1" font-family="Helvetica,sans-Serif" font-size="8.00" fill="#ffffff">TemperatureSensor</text>
<polygon fill="#2e5732" stroke="none" points="8,-37 8,-54 132,-54 132,-37 8,-37"/>
<polygon fill="none" stroke="#224125" points="8,-37 8,-54 132,-54 132,-37 8,-37"/>
<text text-anchor="start" x="81" y="-43" font-family="Helvetica,sans-Serif" font-size="10.00" fill="#ffffff">KELVIN ◉</text>
</g>
<!-- #anon:40:55 -->
<g id="node3" class="node"><title>#anon:40:55</title>
<polygon fill="#8b33f6" stroke="none" points="185,-54 185,-76 326,-76 326,-54 185,-54"/>
<polygon fill="none" stroke="#3a1567" points="185,-54 185,-76 326,-76 326,-54 185,-54"/>
<text text-anchor="start" x="188.5" y="-61.3" font-family="Helvetica,sans-Serif" font-size="14.00" fill="#ffffff">temperature/converter</text>
<polygon fill="#6826b8" stroke="none" points="185,-37 185,-54 326,-54 326,-37 185,-37"/>
<polygon fill="none" stroke="#3a1567" points="185,-37 185,-54 326,-54 326,-37 185,-37"/>
<text text-anchor="start" x="188" y="-43" font-family="Helvetica,sans-Serif" font-size="10.00" fill="#ffffff">◎ KELVIN</text>
<polygon fill="#4e1c8a" stroke="none" points="185,-20 185,-37 326,-37 326,-20 185,-20"/>
<polygon fill="none" stroke="#3a1567" points="185,-20 185,-37 326,-37 326,-20 185,-20"/>
<text text-anchor="start" x="268" y="-26" font-family="Helvetica,sans-Serif" font-size="10.00" fill="#ffffff">CELSIUS ◉</text>
</g>
<!-- temperatureSensor&#45;&gt;#anon:40:55 -->
<g id="edge1" class="edge"><title>temperatureSensor:KELVIN:e&#45;&gt;#anon:40:55:KELVIN:w</title>
<path fill="none" stroke="#919952" stroke-width="2" d="M133,-45C154.25,-45 160.559,-45 179.941,-45"/>
<ellipse fill="#919952" stroke="#919952" stroke-width="2" cx="182" cy="-45" rx="2" ry="2"/>
</g>
<!-- converter -->
<g id="node4" class="node"><title>converter</title>
<polygon fill="#bd648a" stroke="none" points="403,-37 403,-66 494,-66 494,-37 403,-37"/>
<polygon fill="none" stroke="#4e2a39" points="403,-37 403,-66 494,-66 494,-37 403,-37"/>
<text text-anchor="start" x="420" y="-52.3" font-family="Helvetica,sans-Serif" font-size="14.00" fill="#000000">converter</text>
<text text-anchor="start" x="406.5" y="-43.1" font-family="Helvetica,sans-Serif" font-size="8.00" fill="#000000">converter/float&#45;to&#45;string</text>
<polygon fill="#8d4b67" stroke="none" points="403,-20 403,-37 494,-37 494,-20 403,-20"/>
<polygon fill="none" stroke="#4e2a39" points="403,-20 403,-37 494,-37 494,-20 403,-20"/>
<text text-anchor="start" x="406" y="-26" font-family="Helvetica,sans-Serif" font-size="10.00" fill="#ffffff">◎ IN</text>
<polygon fill="#69384d" stroke="none" points="403,-3 403,-20 494,-20 494,-3 403,-3"/>
<polygon fill="none" stroke="#4e2a39" points="403,-3 403,-20 494,-20 494,-3 403,-3"/>
<text text-anchor="start" x="458" y="-9" font-family="Helvetica,sans-Serif" font-size="10.00" fill="#ffffff">OUT ◉</text>
</g>
<!-- #anon:40:55&#45;&gt;converter -->
<g id="edge2" class="edge"><title>#anon:40:55:CELSIUS:e&#45;&gt;converter:IN:w</title>
<path fill="none" stroke="#ea7b0e" stroke-width="2" d="M327,-28C358.901,-28 367.904,-28 397.838,-28"/>
<ellipse fill="#ea7b0e" stroke="#ea7b0e" stroke-width="2" cx="400" cy="-28" rx="2" ry="2"/>
</g>
<!-- converter&#45;&gt;concat -->
<g id="edge3" class="edge"><title>converter:OUT:e&#45;&gt;concat:IN:w</title>
<path fill="none" stroke="#e771f8" stroke-width="2" d="M495,-11C532.355,-11 531.278,-52.553 565.63,-55.7994"/>
<ellipse fill="#e771f8" stroke="#e771f8" stroke-width="2" cx="568.002" cy="-55.9082" rx="2" ry="2"/>
</g>
<!-- screen -->
<g id="node6" class="node"><title>screen</title>
<polygon fill="#72d2de" stroke="none" points="696,-48 696,-77 744,-77 744,-48 696,-48"/>
<polygon fill="none" stroke="#2f575d" points="696,-48 696,-77 744,-77 744,-48 696,-48"/>
<text text-anchor="start" x="699.5" y="-63.3" font-family="Helvetica,sans-Serif" font-size="14.00" fill="#000000">screen</text>
<text text-anchor="start" x="701" y="-54.1" font-family="Helvetica,sans-Serif" font-size="8.00" fill="#000000">LCDString</text>
<polygon fill="#559da6" stroke="none" points="696,-31 696,-48 744,-48 744,-31 696,-31"/>
<polygon fill="none" stroke="#2f575d" points="696,-31 696,-48 744,-48 744,-31 696,-31"/>
<text text-anchor="start" x="699" y="-37" font-family="Helvetica,sans-Serif" font-size="10.00" fill="#000000">◎ IN</text>
</g>
<!-- concat&#45;&gt;screen -->
<g id="edge5" class="edge"><title>concat:OUT:e&#45;&gt;screen:IN:w</title>
<path fill="none" stroke="#8ac586" stroke-width="2" d="M645,-39C665.66,-39 671.914,-39 690.548,-39"/>
<ellipse fill="#8ac586" stroke="#8ac586" stroke-width="2" cx="693" cy="-39" rx="2" ry="2"/>
</g>
</g>
</svg>
