<?xml version="1.0" encoding="UTF-8" standalone="no"?>
<!DOCTYPE svg PUBLIC "-//W3C//DTD SVG 1.1//EN"
 "http://www.w3.org/Graphics/SVG/1.1/DTD/svg11.dtd">
<!-- Generated by graphviz version 2.36.0 (20140111.2315)
 -->
<!-- Title: fbp Pages: 1 -->
<svg width="836pt" height="366pt"
 viewBox="0.00 0.00 836.00 366.00" xmlns="http://www.w3.org/2000/svg" xmlns:xlink="http://www.w3.org/1999/xlink">
<g id="graph0" class="graph" transform="scale(1 1) rotate(0) translate(4 362)">
<title>fbp</title>
<polygon fill="white" stroke="none" points="-4,4 -4,-362 832,-362 832,4 -4,4"/>
<!-- param_appid -->
<g id="node1" class="node"><title>param_appid</title>
<polygon fill="#10d080" stroke="none" points="164,-326 164,-355 251,-355 251,-326 164,-326"/>
<polygon fill="none" stroke="#065736" points="164,-326 164,-355 251,-355 251,-326 164,-326"/>
<text text-anchor="start" x="167.5" y="-341.3" font-family="Helvetica,sans-Serif" font-size="14.00" fill="#000000">param_appid</text>
<text text-anchor="start" x="190" y="-332.1" font-family="Helvetica,sans-Serif" font-size="8.00" fill="#000000">UrlParam</text>
<polygon fill="#0c9c60" stroke="none" points="164,-309 164,-326 251,-326 251,-309 164,-309"/>
<polygon fill="none" stroke="#065736" points="164,-309 164,-326 251,-326 251,-309 164,-309"/>
<text text-anchor="start" x="167" y="-315" font-family="Helvetica,sans-Serif" font-size="10.00" fill="#ffffff">◎ VALUE</text>
<polygon fill="#0c9c60" stroke="none" points="164,-292 164,-309 251,-309 251,-292 164,-292"/>
<polygon fill="none" stroke="#065736" points="164,-292 164,-309 251,-309 251,-292 164,-292"/>
<text text-anchor="start" x="167" y="-298" font-family="Helvetica,sans-Serif" font-size="10.00" fill="#ffffff">◎ KEY</text>
<polygon fill="#097548" stroke="none" points="164,-275 164,-292 251,-292 251,-275 164,-275"/>
<polygon fill="none" stroke="#065736" points="164,-275 164,-292 251,-292 251,-275 164,-275"/>
<text text-anchor="start" x="215" y="-281" font-family="Helvetica,sans-Serif" font-size="10.00" fill="#ffffff">OUT ◉</text>
</g>
<!-- url -->
<g id="node6" class="node"><title>url</title>
<polygon fill="#d07e6c" stroke="none" points="311,-203 311,-232 390,-232 390,-203 311,-203"/>
<polygon fill="none" stroke="#57342d" points="311,-203 311,-232 390,-232 390,-203 311,-203"/>
<text text-anchor="start" x="342.5" y="-218.3" font-family="Helvetica,sans-Serif" font-size="14.00" fill="#000000">url</text>
<text text-anchor="start" x="314.5" y="-209.1" font-family="Helvetica,sans-Serif" font-size="8.00" fill="#000000">http&#45;client/create&#45;url</text>
<polygon fill="#9c5e51" stroke="none" points="311,-186 311,-203 390,-203 390,-186 311,-186"/>
<polygon fill="none" stroke="#57342d" points="311,-186 311,-203 390,-203 390,-186 311,-186"/>
<text text-anchor="start" x="314" y="-192" font-family="Helvetica,sans-Serif" font-size="10.00" fill="#ffffff">◎ PARAM</text>
<polygon fill="#9c5e51" stroke="none" points="311,-169 311,-186 390,-186 390,-169 311,-169"/>
<polygon fill="none" stroke="#57342d" points="311,-169 311,-186 390,-186 390,-169 311,-169"/>
<text text-anchor="start" x="314" y="-175" font-family="Helvetica,sans-Serif" font-size="10.00" fill="#ffffff">◎ CREATE</text>
<polygon fill="#75463c" stroke="none" points="311,-152 311,-169 390,-169 390,-152 311,-152"/>
<polygon fill="none" stroke="#57342d" points="311,-152 311,-169 390,-169 390,-152 311,-152"/>
<text text-anchor="start" x="354" y="-158" font-family="Helvetica,sans-Serif" font-size="10.00" fill="#ffffff">OUT ◉</text>
</g>
<!-- param_appid&#45;&gt;url -->
<g id="edge1" class="edge"><title>param_appid:OUT_OUT:e&#45;&gt;url:IN_PARAM:w</title>
<path fill="none" stroke="#516cfb" stroke-width="2" d="M252,-283C297.378,-283 265.308,-200.414 305.845,-195.252"/>
<ellipse fill="#516cfb" stroke="#516cfb" stroke-width="2" cx="308.004" cy="-195.121" rx="2" ry="2"/>
</g>
<!-- param_location -->
<g id="node2" class="node"><title>param_location</title>
<polygon fill="#10d080" stroke="none" points="157,-220 157,-249 258,-249 258,-220 157,-220"/>
<polygon fill="none" stroke="#065736" points="157,-220 157,-249 258,-249 258,-220 157,-220"/>
<text text-anchor="start" x="160.5" y="-235.3" font-family="Helvetica,sans-Serif" font-size="14.00" fill="#000000">param_location</text>
<text text-anchor="start" x="190" y="-226.1" font-family="Helvetica,sans-Serif" font-size="8.00" fill="#000000">UrlParam</text>
<polygon fill="#0c9c60" stroke="none" points="157,-203 157,-220 258,-220 258,-203 157,-203"/>
<polygon fill="none" stroke="#065736" points="157,-203 157,-220 258,-220 258,-203 157,-203"/>
<text text-anchor="start" x="160" y="-209" font-family="Helvetica,sans-Serif" font-size="10.00" fill="#ffffff">◎ VALUE</text>
<polygon fill="#0c9c60" stroke="none" points="157,-186 157,-203 258,-203 258,-186 157,-186"/>
<polygon fill="none" stroke="#065736" points="157,-186 157,-203 258,-203 258,-186 157,-186"/>
<text text-anchor="start" x="160" y="-192" font-family="Helvetica,sans-Serif" font-size="10.00" fill="#ffffff">◎ KEY</text>
<polygon fill="#097548" stroke="none" points="157,-169 157,-186 258,-186 258,-169 157,-169"/>
<polygon fill="none" stroke="#065736" points="157,-169 157,-186 258,-186 258,-169 157,-169"/>
<text text-anchor="start" x="222" y="-175" font-family="Helvetica,sans-Serif" font-size="10.00" fill="#ffffff">OUT ◉</text>
</g>
<!-- param_location&#45;&gt;url -->
<g id="edge2" class="edge"><title>param_location:OUT_OUT:e&#45;&gt;url:IN_PARAM:w</title>
<path fill="none" stroke="#b9de14" stroke-width="2" d="M259,-177C281.629,-177 285.548,-192.952 305.984,-194.822"/>
<ellipse fill="#b9de14" stroke="#b9de14" stroke-width="2" cx="308.002" cy="-194.911" rx="2" ry="2"/>
</g>
<!-- param_location&#45;&gt;url -->
<g id="edge3" class="edge"><title>param_location:OUT_OUT:e&#45;&gt;url:IN_CREATE:w</title>
<path fill="none" stroke="#7cc194" stroke-width="2" d="M259,-177C280.25,-177 286.559,-177 305.941,-177"/>
<ellipse fill="#7cc194" stroke="#7cc194" stroke-width="2" cx="308" cy="-177" rx="2" ry="2"/>
</g>
<!-- temp -->
<g id="node3" class="node"><title>temp</title>
<polygon fill="#8b33f6" stroke="none" points="732,-215 732,-244 820,-244 820,-215 732,-215"/>
<polygon fill="none" stroke="#3a1567" points="732,-215 732,-244 820,-244 820,-215 732,-215"/>
<text text-anchor="start" x="760.5" y="-230.3" font-family="Helvetica,sans-Serif" font-size="14.00" fill="#ffffff">temp</text>
<text text-anchor="start" x="735.5" y="-221.1" font-family="Helvetica,sans-Serif" font-size="8.00" fill="#ffffff">temperature/converter</text>
<polygon fill="#6826b8" stroke="none" points="732,-198 732,-215 820,-215 820,-198 732,-198"/>
<polygon fill="none" stroke="#3a1567" points="732,-198 732,-215 820,-215 820,-198 732,-198"/>
<text text-anchor="start" x="735" y="-204" font-family="Helvetica,sans-Serif" font-size="10.00" fill="#ffffff">◎ KELVIN</text>
<polygon fill="#4e1c8a" stroke="none" points="732,-181 732,-198 820,-198 820,-181 732,-181"/>
<polygon fill="none" stroke="#3a1567" points="732,-181 732,-198 820,-198 820,-181 732,-181"/>
<text text-anchor="start" x="762" y="-187" font-family="Helvetica,sans-Serif" font-size="10.00" fill="#ffffff">CELSIUS ◉</text>
</g>
<!-- temp_low -->
<g id="node4" class="node"><title>temp_low</title>
<polygon fill="#8b33f6" stroke="none" points="732,-126 732,-155 820,-155 820,-126 732,-126"/>
<polygon fill="none" stroke="#3a1567" points="732,-126 732,-155 820,-155 820,-126 732,-126"/>
<text text-anchor="start" x="746.5" y="-141.3" font-family="Helvetica,sans-Serif" font-size="14.00" fill="#ffffff">temp_low</text>
<text text-anchor="start" x="735.5" y="-132.1" font-family="Helvetica,sans-Serif" font-size="8.00" fill="#ffffff">temperature/converter</text>
<polygon fill="#6826b8" stroke="none" points="732,-109 732,-126 820,-126 820,-109 732,-109"/>
<polygon fill="none" stroke="#3a1567" points="732,-109 732,-126 820,-126 820,-109 732,-109"/>
<text text-anchor="start" x="735" y="-115" font-family="Helvetica,sans-Serif" font-size="10.00" fill="#ffffff">◎ KELVIN</text>
<polygon fill="#4e1c8a" stroke="none" points="732,-92 732,-109 820,-109 820,-92 732,-92"/>
<polygon fill="none" stroke="#3a1567" points="732,-92 732,-109 820,-109 820,-92 732,-92"/>
<text text-anchor="start" x="762" y="-98" font-family="Helvetica,sans-Serif" font-size="10.00" fill="#ffffff">CELSIUS ◉</text>
</g>
<!-- temp_high -->
<g id="node5" class="node"><title>temp_high</title>
<polygon fill="#8b33f6" stroke="none" points="732,-37 732,-66 820,-66 820,-37 732,-37"/>
<polygon fill="none" stroke="#3a1567" points="732,-37 732,-66 820,-66 820,-37 732,-37"/>
<text text-anchor="start" x="744" y="-52.3" font-family="Helvetica,sans-Serif" font-size="14.00" fill="#ffffff">temp_high</text>
<text text-anchor="start" x="735.5" y="-43.1" font-family="Helvetica,sans-Serif" font-size="8.00" fill="#ffffff">temperature/converter</text>
<polygon fill="#6826b8" stroke="none" points="732,-20 732,-37 820,-37 820,-20 732,-20"/>
<polygon fill="none" stroke="#3a1567" points="732,-20 732,-37 820,-37 820,-20 732,-20"/>
<text text-anchor="start" x="735" y="-26" font-family="Helvetica,sans-Serif" font-size="10.00" fill="#ffffff">◎ KELVIN</text>
<polygon fill="#4e1c8a" stroke="none" points="732,-3 732,-20 820,-20 820,-3 732,-3"/>
<polygon fill="none" stroke="#3a1567" points="732,-3 732,-20 820,-20 820,-3 732,-3"/>
<text text-anchor="start" x="762" y="-9" font-family="Helvetica,sans-Serif" font-size="10.00" fill="#ffffff">CELSIUS ◉</text>
</g>
<!-- result -->
<g id="node9" class="node"><title>result</title>
<polygon fill="#d07e6c" stroke="none" points="443,-177 443,-206 502,-206 502,-177 443,-177"/>
<polygon fill="none" stroke="#57342d" points="443,-177 443,-206 502,-206 502,-177 443,-177"/>
<text text-anchor="start" x="455.5" y="-192.3" font-family="Helvetica,sans-Serif" font-size="14.00" fill="#000000">result</text>
<text text-anchor="start" x="446.5" y="-183.1" font-family="Helvetica,sans-Serif" font-size="8.00" fill="#000000">http&#45;client/json</text>
<polygon fill="#9c5e51" stroke="none" points="443,-160 443,-177 502,-177 502,-160 443,-160"/>
<polygon fill="none" stroke="#57342d" points="443,-160 443,-177 502,-177 502,-160 443,-160"/>
<text text-anchor="start" x="446" y="-166" font-family="Helvetica,sans-Serif" font-size="10.00" fill="#ffffff">◎ URL</text>
<polygon fill="#9c5e51" stroke="none" points="443,-143 443,-160 502,-160 502,-143 443,-143"/>
<polygon fill="none" stroke="#57342d" points="443,-143 443,-160 502,-160 502,-143 443,-143"/>
<text text-anchor="start" x="446" y="-149" font-family="Helvetica,sans-Serif" font-size="10.00" fill="#ffffff">◎ GET</text>
<polygon fill="#75463c" stroke="none" points="443,-126 443,-143 502,-143 502,-126 443,-126"/>
<polygon fill="none" stroke="#57342d" points="443,-126 443,-143 502,-143 502,-126 443,-126"/>
<text text-anchor="start" x="447" y="-132" font-family="Helvetica,sans-Serif" font-size="10.00" fill="#ffffff">OBJECT ◉</text>
</g>
<!-- url&#45;&gt;result -->
<g id="edge6" class="edge"><title>url:OUT_OUT:e&#45;&gt;result:IN_URL:w</title>
<path fill="none" stroke="#929dc4" stroke-width="2" d="M391,-160C412.578,-160 418.292,-167.91 437.887,-168.899"/>
<ellipse fill="#929dc4" stroke="#929dc4" stroke-width="2" cx="440.001" cy="-168.951" rx="2" ry="2"/>
</g>
<!-- url&#45;&gt;result -->
<g id="edge7" class="edge"><title>url:OUT_OUT:e&#45;&gt;result:IN_GET:w</title>
<path fill="none" stroke="#2e61ee" stroke-width="2" d="M391,-160C412.578,-160 418.292,-152.09 437.887,-151.101"/>
<ellipse fill="#2e61ee" stroke="#2e61ee" stroke-width="2" cx="440.001" cy="-151.049" rx="2" ry="2"/>
</g>
<!-- #anon:31:1 -->
<g id="node7" class="node"><title>#anon:31:1</title>
<polygon fill="#e8ea7a" stroke="none" points="9,-309 9,-331 104,-331 104,-309 9,-309"/>
<polygon fill="none" stroke="#616233" points="9,-309 9,-331 104,-331 104,-309 9,-309"/>
<text text-anchor="start" x="12.5" y="-316.3" font-family="Helvetica,sans-Serif" font-size="14.00" fill="#000000">constant/string</text>
<polygon fill="#828344" stroke="none" points="9,-292 9,-309 104,-309 104,-292 9,-292"/>
<polygon fill="none" stroke="#616233" points="9,-292 9,-309 104,-309 104,-292 9,-292"/>
<text text-anchor="start" x="68" y="-298" font-family="Helvetica,sans-Serif" font-size="10.00" fill="#ffffff">OUT ◉</text>
</g>
<!-- #anon:31:1&#45;&gt;param_appid -->
<g id="edge4" class="edge"><title>#anon:31:1:OUT_OUT:e&#45;&gt;param_appid:IN_KEY:w</title>
<path fill="none" stroke="#67d660" stroke-width="2" d="M105,-300C129.368,-300 136.46,-300 158.938,-300"/>
<ellipse fill="#67d660" stroke="#67d660" stroke-width="2" cx="161" cy="-300" rx="2" ry="2"/>
</g>
<!-- #anon:32:1 -->
<g id="node8" class="node"><title>#anon:32:1</title>
<polygon fill="#e8ea7a" stroke="none" points="9,-203 9,-225 104,-225 104,-203 9,-203"/>
<polygon fill="none" stroke="#616233" points="9,-203 9,-225 104,-225 104,-203 9,-203"/>
<text text-anchor="start" x="12.5" y="-210.3" font-family="Helvetica,sans-Serif" font-size="14.00" fill="#000000">constant/string</text>
<polygon fill="#828344" stroke="none" points="9,-186 9,-203 104,-203 104,-186 9,-186"/>
<polygon fill="none" stroke="#616233" points="9,-186 9,-203 104,-203 104,-186 9,-186"/>
<text text-anchor="start" x="68" y="-192" font-family="Helvetica,sans-Serif" font-size="10.00" fill="#ffffff">OUT ◉</text>
</g>
<!-- #anon:32:1&#45;&gt;param_location -->
<g id="edge5" class="edge"><title>#anon:32:1:OUT_OUT:e&#45;&gt;param_location:IN_KEY:w</title>
<path fill="none" stroke="#647f24" stroke-width="2" d="M105,-194C126.25,-194 132.559,-194 151.941,-194"/>
<ellipse fill="#647f24" stroke="#647f24" stroke-width="2" cx="154" cy="-194" rx="2" ry="2"/>
</g>
<!-- #anon:39:21 -->
<g id="node10" class="node"><title>#anon:39:21</title>
<polygon fill="#dd6abe" stroke="none" points="554,-228 554,-250 680,-250 680,-228 554,-228"/>
<polygon fill="none" stroke="#5c2c4f" points="554,-228 554,-250 680,-250 680,-228 554,-228"/>
<text text-anchor="start" x="557.5" y="-235.3" font-family="Helvetica,sans-Serif" font-size="14.00" fill="#000000">json/object&#45;get&#45;path</text>
<polygon fill="#a54f8e" stroke="none" points="554,-211 554,-228 680,-228 680,-211 554,-211"/>
<polygon fill="none" stroke="#5c2c4f" points="554,-211 554,-228 680,-228 680,-211 554,-211"/>
<text text-anchor="start" x="557" y="-217" font-family="Helvetica,sans-Serif" font-size="10.00" fill="#ffffff">◎ IN</text>
<polygon fill="#7b3b6a" stroke="none" points="554,-194 554,-211 680,-211 680,-194 554,-194"/>
<polygon fill="none" stroke="#5c2c4f" points="554,-194 554,-211 680,-211 680,-194 554,-194"/>
<text text-anchor="start" x="634" y="-200" font-family="Helvetica,sans-Serif" font-size="10.00" fill="#ffffff">FLOAT ◉</text>
</g>
<!-- result&#45;&gt;#anon:39:21 -->
<g id="edge8" class="edge"><title>result:OUT_OBJECT:e&#45;&gt;#anon:39:21:IN_IN:w</title>
<path fill="none" stroke="#bc53be" stroke-width="2" d="M503,-134C545.288,-134 511.718,-213.128 548.672,-218.692"/>
<ellipse fill="#bc53be" stroke="#bc53be" stroke-width="2" cx="551.005" cy="-218.858" rx="2" ry="2"/>
</g>
<!-- #anon:40:21 -->
<g id="node11" class="node"><title>#anon:40:21</title>
<polygon fill="#dd6abe" stroke="none" points="554,-143 554,-165 680,-165 680,-143 554,-143"/>
<polygon fill="none" stroke="#5c2c4f" points="554,-143 554,-165 680,-165 680,-143 554,-143"/>
<text text-anchor="start" x="557.5" y="-150.3" font-family="Helvetica,sans-Serif" font-size="14.00" fill="#000000">json/object&#45;get&#45;path</text>
<polygon fill="#a54f8e" stroke="none" points="554,-126 554,-143 680,-143 680,-126 554,-126"/>
<polygon fill="none" stroke="#5c2c4f" points="554,-126 554,-143 680,-143 680,-126 554,-126"/>
<text text-anchor="start" x="557" y="-132" font-family="Helvetica,sans-Serif" font-size="10.00" fill="#ffffff">◎ IN</text>
<polygon fill="#7b3b6a" stroke="none" points="554,-109 554,-126 680,-126 680,-109 554,-109"/>
<polygon fill="none" stroke="#5c2c4f" points="554,-109 554,-126 680,-126 680,-109 554,-109"/>
<text text-anchor="start" x="634" y="-115" font-family="Helvetica,sans-Serif" font-size="10.00" fill="#ffffff">FLOAT ◉</text>
</g>
<!-- result&#45;&gt;#anon:40:21 -->
<g id="edge10" class="edge"><title>result:OUT_OBJECT:e&#45;&gt;#anon:40:21:IN_IN:w</title>
<path fill="none" stroke="#6f91ac" stroke-width="2" d="M503,-134C523.66,-134 529.914,-134 548.548,-134"/>
<ellipse fill="#6f91ac" stroke="#6f91ac" stroke-width="2" cx="551" cy="-134" rx="2" ry="2"/>
</g>
<!-- #anon:41:21 -->
<g id="node12" class="node"><title>#anon:41:21</title>
<polygon fill="#dd6abe" stroke="none" points="554,-57 554,-79 680,-79 680,-57 554,-57"/>
<polygon fill="none" stroke="#5c2c4f" points="554,-57 554,-79 680,-79 680,-57 554,-57"/>
<text text-anchor="start" x="557.5" y="-64.3" font-family="Helvetica,sans-Serif" font-size="14.00" fill="#000000">json/object&#45;get&#45;path</text>
<polygon fill="#a54f8e" stroke="none" points="554,-40 554,-57 680,-57 680,-40 554,-40"/>
<polygon fill="none" stroke="#5c2c4f" points="554,-40 554,-57 680,-57 680,-40 554,-40"/>
<text text-anchor="start" x="557" y="-46" font-family="Helvetica,sans-Serif" font-size="10.00" fill="#ffffff">◎ IN</text>
<polygon fill="#7b3b6a" stroke="none" points="554,-23 554,-40 680,-40 680,-23 554,-23"/>
<polygon fill="none" stroke="#5c2c4f" points="554,-23 554,-40 680,-40 680,-23 554,-23"/>
<text text-anchor="start" x="634" y="-29" font-family="Helvetica,sans-Serif" font-size="10.00" fill="#ffffff">FLOAT ◉</text>
</g>
<!-- result&#45;&gt;#anon:41:21 -->
<g id="edge12" class="edge"><title>result:OUT_OBJECT:e&#45;&gt;#anon:41:21:IN_IN:w</title>
<path fill="none" stroke="#212fa2" stroke-width="2" d="M503,-134C545.658,-134 511.387,-53.9406 548.636,-48.3114"/>
<ellipse fill="#212fa2" stroke="#212fa2" stroke-width="2" cx="551.005" cy="-48.1424" rx="2" ry="2"/>
</g>
<!-- #anon:39:21&#45;&gt;temp -->
<g id="edge9" class="edge"><title>#anon:39:21:OUT_FLOAT:e&#45;&gt;temp:IN_KELVIN:w</title>
<path fill="none" stroke="#3e1940" stroke-width="2" d="M681,-202C701.726,-202 707.862,-205.457 726.536,-205.943"/>
<ellipse fill="#3e1940" stroke="#3e1940" stroke-width="2" cx="729" cy="-205.975" rx="2" ry="2"/>
</g>
<!-- #anon:40:21&#45;&gt;temp_low -->
<g id="edge11" class="edge"><title>#anon:40:21:OUT_FLOAT:e&#45;&gt;temp_low:IN_KELVIN:w</title>
<path fill="none" stroke="#a79e90" stroke-width="2" d="M681,-117C701.66,-117 707.914,-117 726.548,-117"/>
<ellipse fill="#a79e90" stroke="#a79e90" stroke-width="2" cx="729" cy="-117" rx="2" ry="2"/>
</g>
<!-- #anon:41:21&#45;&gt;temp_high -->
<g id="edge13" class="edge"><title>#anon:41:21:OUT_FLOAT:e&#45;&gt;temp_high:IN_KELVIN:w</title>
<path fill="none" stroke="#7b8bc6" stroke-width="2" d="M681,-31C701.697,-31 707.885,-28.407 726.541,-28.0424"/>
<ellipse fill="#7b8bc6" stroke="#7b8bc6" stroke-width="2" cx="729" cy="-28.0191" rx="2" ry="2"/>
</g>
</g>
</svg>
