<?xml version="1.0" encoding="UTF-8" standalone="no"?>
<!DOCTYPE svg PUBLIC "-//W3C//DTD SVG 1.1//EN"
 "http://www.w3.org/Graphics/SVG/1.1/DTD/svg11.dtd">
<!-- Generated by graphviz version 2.36.0 (20140111.2315)
 -->
<!-- Title: fbp Pages: 1 -->
<svg width="252pt" height="451pt"
 viewBox="0.00 0.00 252.00 451.00" xmlns="http://www.w3.org/2000/svg" xmlns:xlink="http://www.w3.org/1999/xlink">
<g id="graph0" class="graph" transform="scale(1 1) rotate(0) translate(4 447)">
<title>fbp</title>
<polygon fill="white" stroke="none" points="-4,4 -4,-447 248,-447 248,4 -4,4"/>
<!-- temp_avg -->
<g id="node1" class="node"><title>temp_avg</title>
<polygon fill="#bd648a" stroke="none" points="11,-410 11,-439 102,-439 102,-410 11,-410"/>
<polygon fill="none" stroke="#4e2a39" points="11,-410 11,-439 102,-439 102,-410 11,-410"/>
<text text-anchor="start" x="26" y="-425.3" font-family="Helvetica,sans-Serif" font-size="14.00" fill="#000000">temp_avg</text>
<text text-anchor="start" x="14.5" y="-416.1" font-family="Helvetica,sans-Serif" font-size="8.00" fill="#000000">converter/float&#45;to&#45;string</text>
<polygon fill="#8d4b67" stroke="none" points="11,-393 11,-410 102,-410 102,-393 11,-393"/>
<polygon fill="none" stroke="#4e2a39" points="11,-393 11,-410 102,-410 102,-393 11,-393"/>
<text text-anchor="start" x="14" y="-399" font-family="Helvetica,sans-Serif" font-size="10.00" fill="#ffffff">◎ IN</text>
<polygon fill="#69384d" stroke="none" points="11,-376 11,-393 102,-393 102,-376 11,-376"/>
<polygon fill="none" stroke="#4e2a39" points="11,-376 11,-393 102,-393 102,-376 11,-376"/>
<text text-anchor="start" x="66" y="-382" font-family="Helvetica,sans-Serif" font-size="10.00" fill="#ffffff">OUT ◉</text>
</g>
<!-- temp_string -->
<g id="node4" class="node"><title>temp_string</title>
<polygon fill="#c1ee90" stroke="none" points="157,-182 157,-211 236,-211 236,-182 157,-182"/>
<polygon fill="none" stroke="#51633c" points="157,-182 157,-211 236,-211 236,-182 157,-182"/>
<text text-anchor="start" x="160.5" y="-197.3" font-family="Helvetica,sans-Serif" font-size="14.00" fill="#000000">temp_string</text>
<text text-anchor="start" x="163.5" y="-188.1" font-family="Helvetica,sans-Serif" font-size="8.00" fill="#000000">string/concatenate</text>
<polygon fill="#90b26c" stroke="none" points="157,-165 157,-182 236,-182 236,-165 157,-165"/>
<polygon fill="none" stroke="#51633c" points="157,-165 157,-182 236,-182 236,-165 157,-165"/>
<text text-anchor="start" x="160" y="-171" font-family="Helvetica,sans-Serif" font-size="10.00" fill="#000000">◎ IN</text>
<polygon fill="#6c8551" stroke="none" points="157,-148 157,-165 236,-165 236,-148 157,-148"/>
<polygon fill="none" stroke="#51633c" points="157,-148 157,-165 236,-165 236,-148 157,-148"/>
<text text-anchor="start" x="200" y="-154" font-family="Helvetica,sans-Serif" font-size="10.00" fill="#ffffff">OUT ◉</text>
</g>
<!-- temp_avg&#45;&gt;temp_string -->
<g id="edge4" class="edge"><title>temp_avg:OUT_OUT:e&#45;&gt;temp_string:IN_IN:w</title>
<path fill="none" stroke="#a14a3a" stroke-width="2" d="M103,-384C198.275,-384 63.371,-179.136 151.902,-173.135"/>
<ellipse fill="#a14a3a" stroke="#a14a3a" stroke-width="2" cx="154.001" cy="-173.066" rx="2" ry="2"/>
</g>
<!-- temp_low -->
<g id="node2" class="node"><title>temp_low</title>
<polygon fill="#bd648a" stroke="none" points="11,-321 11,-350 102,-350 102,-321 11,-321"/>
<polygon fill="none" stroke="#4e2a39" points="11,-321 11,-350 102,-350 102,-321 11,-321"/>
<text text-anchor="start" x="27" y="-336.3" font-family="Helvetica,sans-Serif" font-size="14.00" fill="#000000">temp_low</text>
<text text-anchor="start" x="14.5" y="-327.1" font-family="Helvetica,sans-Serif" font-size="8.00" fill="#000000">converter/float&#45;to&#45;string</text>
<polygon fill="#8d4b67" stroke="none" points="11,-304 11,-321 102,-321 102,-304 11,-304"/>
<polygon fill="none" stroke="#4e2a39" points="11,-304 11,-321 102,-321 102,-304 11,-304"/>
<text text-anchor="start" x="14" y="-310" font-family="Helvetica,sans-Serif" font-size="10.00" fill="#ffffff">◎ IN</text>
<polygon fill="#69384d" stroke="none" points="11,-287 11,-304 102,-304 102,-287 11,-287"/>
<polygon fill="none" stroke="#4e2a39" points="11,-287 11,-304 102,-304 102,-287 11,-287"/>
<text text-anchor="start" x="66" y="-293" font-family="Helvetica,sans-Serif" font-size="10.00" fill="#ffffff">OUT ◉</text>
</g>
<!-- temp_low&#45;&gt;temp_string -->
<g id="edge5" class="edge"><title>temp_low:OUT_OUT:e&#45;&gt;temp_string:IN_IN:w</title>
<path fill="none" stroke="#ec5d70" stroke-width="2" d="M103,-295C160.617,-295 100.115,-179.117 151.733,-173.232"/>
<ellipse fill="#ec5d70" stroke="#ec5d70" stroke-width="2" cx="154.003" cy="-173.109" rx="2" ry="2"/>
</g>
<!-- temp_high -->
<g id="node3" class="node"><title>temp_high</title>
<polygon fill="#bd648a" stroke="none" points="11,-232 11,-261 102,-261 102,-232 11,-232"/>
<polygon fill="none" stroke="#4e2a39" points="11,-232 11,-261 102,-261 102,-232 11,-232"/>
<text text-anchor="start" x="24.5" y="-247.3" font-family="Helvetica,sans-Serif" font-size="14.00" fill="#000000">temp_high</text>
<text text-anchor="start" x="14.5" y="-238.1" font-family="Helvetica,sans-Serif" font-size="8.00" fill="#000000">converter/float&#45;to&#45;string</text>
<polygon fill="#8d4b67" stroke="none" points="11,-215 11,-232 102,-232 102,-215 11,-215"/>
<polygon fill="none" stroke="#4e2a39" points="11,-215 11,-232 102,-232 102,-215 11,-215"/>
<text text-anchor="start" x="14" y="-221" font-family="Helvetica,sans-Serif" font-size="10.00" fill="#ffffff">◎ IN</text>
<polygon fill="#69384d" stroke="none" points="11,-198 11,-215 102,-215 102,-198 11,-198"/>
<polygon fill="none" stroke="#4e2a39" points="11,-198 11,-215 102,-215 102,-198 11,-198"/>
<text text-anchor="start" x="66" y="-204" font-family="Helvetica,sans-Serif" font-size="10.00" fill="#ffffff">OUT ◉</text>
</g>
<!-- temp_high&#45;&gt;temp_string -->
<g id="edge6" class="edge"><title>temp_high:OUT_OUT:e&#45;&gt;temp_string:IN_IN:w</title>
<path fill="none" stroke="#3b64ae" stroke-width="2" d="M103,-206C129.339,-206 128.427,-176.266 151.999,-173.247"/>
<ellipse fill="#3b64ae" stroke="#3b64ae" stroke-width="2" cx="154.004" cy="-173.123" rx="2" ry="2"/>
</g>
<!-- #anon:23:1 -->
<g id="node5" class="node"><title>#anon:23:1</title>
<polygon fill="#e8ea7a" stroke="none" points="9,-150 9,-172 104,-172 104,-150 9,-150"/>
<polygon fill="none" stroke="#616233" points="9,-150 9,-172 104,-172 104,-150 9,-150"/>
<text text-anchor="start" x="12.5" y="-157.3" font-family="Helvetica,sans-Serif" font-size="14.00" fill="#000000">constant/string</text>
<polygon fill="#828344" stroke="none" points="9,-133 9,-150 104,-150 104,-133 9,-133"/>
<polygon fill="none" stroke="#616233" points="9,-133 9,-150 104,-150 104,-133 9,-133"/>
<text text-anchor="start" x="68" y="-139" font-family="Helvetica,sans-Serif" font-size="10.00" fill="#ffffff">OUT ◉</text>
</g>
<!-- #anon:23:1&#45;&gt;temp_string -->
<g id="edge1" class="edge"><title>#anon:23:1:OUT_OUT:e&#45;&gt;temp_string:IN_IN:w</title>
<path fill="none" stroke="#09f486" stroke-width="2" d="M105,-141C130.296,-141 129.429,-169.596 151.863,-172.723"/>
<ellipse fill="#09f486" stroke="#09f486" stroke-width="2" cx="154.004" cy="-172.867" rx="2" ry="2"/>
</g>
<!-- #anon:24:1 -->
<g id="node6" class="node"><title>#anon:24:1</title>
<polygon fill="#e8ea7a" stroke="none" points="9,-85 9,-107 104,-107 104,-85 9,-85"/>
<polygon fill="none" stroke="#616233" points="9,-85 9,-107 104,-107 104,-85 9,-85"/>
<text text-anchor="start" x="12.5" y="-92.3" font-family="Helvetica,sans-Serif" font-size="14.00" fill="#000000">constant/string</text>
<polygon fill="#828344" stroke="none" points="9,-68 9,-85 104,-85 104,-68 9,-68"/>
<polygon fill="none" stroke="#616233" points="9,-68 9,-85 104,-85 104,-68 9,-68"/>
<text text-anchor="start" x="68" y="-74" font-family="Helvetica,sans-Serif" font-size="10.00" fill="#ffffff">OUT ◉</text>
</g>
<!-- #anon:24:1&#45;&gt;temp_string -->
<g id="edge2" class="edge"><title>#anon:24:1:OUT_OUT:e&#45;&gt;temp_string:IN_IN:w</title>
<path fill="none" stroke="#44e3cc" stroke-width="2" d="M105,-76C152.28,-76 109.931,-167.4 151.959,-172.755"/>
<ellipse fill="#44e3cc" stroke="#44e3cc" stroke-width="2" cx="154.004" cy="-172.879" rx="2" ry="2"/>
</g>
<!-- #anon:25:1 -->
<g id="node7" class="node"><title>#anon:25:1</title>
<polygon fill="#e8ea7a" stroke="none" points="9,-20 9,-42 104,-42 104,-20 9,-20"/>
<polygon fill="none" stroke="#616233" points="9,-20 9,-42 104,-42 104,-20 9,-20"/>
<text text-anchor="start" x="12.5" y="-27.3" font-family="Helvetica,sans-Serif" font-size="14.00" fill="#000000">constant/string</text>
<polygon fill="#828344" stroke="none" points="9,-3 9,-20 104,-20 104,-3 9,-3"/>
<polygon fill="none" stroke="#616233" points="9,-3 9,-20 104,-20 104,-3 9,-3"/>
<text text-anchor="start" x="68" y="-9" font-family="Helvetica,sans-Serif" font-size="10.00" fill="#ffffff">OUT ◉</text>
</g>
<!-- #anon:25:1&#45;&gt;temp_string -->
<g id="edge3" class="edge"><title>#anon:25:1:OUT_OUT:e&#45;&gt;temp_string:IN_IN:w</title>
<path fill="none" stroke="#93da12" stroke-width="2" d="M105,-11C179.009,-11 84.3544,-166.734 151.775,-172.817"/>
<ellipse fill="#93da12" stroke="#93da12" stroke-width="2" cx="154.002" cy="-172.913" rx="2" ry="2"/>
</g>
</g>
</svg>
