<?xml version="1.0" encoding="UTF-8" standalone="no"?>
<!DOCTYPE svg PUBLIC "-//W3C//DTD SVG 1.1//EN"
 "http://www.w3.org/Graphics/SVG/1.1/DTD/svg11.dtd">
<!-- Generated by graphviz version 2.36.0 (20140111.2315)
 -->
<!-- Title: fbp Pages: 1 -->
<svg width="1002pt" height="583pt"
 viewBox="0.00 0.00 1002.00 583.00" xmlns="http://www.w3.org/2000/svg" xmlns:xlink="http://www.w3.org/1999/xlink">
<g id="graph0" class="graph" transform="scale(1 1) rotate(0) translate(4 579)">
<title>fbp</title>
<polygon fill="white" stroke="none" points="-4,4 -4,-579 998,-579 998,4 -4,4"/>
<!-- openweather_appid -->
<g id="node1" class="node"><title>openweather_appid</title>
<polygon fill="#4e2e10" stroke="none" points="316,-526 316,-555 442,-555 442,-526 316,-526"/>
<polygon fill="none" stroke="#201206" points="316,-526 316,-555 442,-555 442,-526 316,-526"/>
<text text-anchor="start" x="319.5" y="-541.3" font-family="Helvetica,sans-Serif" font-size="14.00" fill="#ffffff">openweather_appid</text>
<text text-anchor="start" x="363" y="-532.1" font-family="Helvetica,sans-Serif" font-size="8.00" fill="#ffffff">app/argv</text>
<polygon fill="#2b1909" stroke="none" points="316,-509 316,-526 442,-526 442,-509 316,-509"/>
<polygon fill="none" stroke="#201206" points="316,-509 316,-526 442,-526 442,-509 316,-509"/>
<text text-anchor="start" x="406" y="-515" font-family="Helvetica,sans-Serif" font-size="10.00" fill="#ffffff">OUT ◉</text>
</g>
<!-- open_weather -->
<g id="node10" class="node"><title>open_weather</title>
<polygon fill="#801650" stroke="none" points="503,-542 503,-571 596,-571 596,-542 503,-542"/>
<polygon fill="none" stroke="#360921" points="503,-542 503,-571 596,-571 596,-542 503,-542"/>
<text text-anchor="start" x="506.5" y="-557.3" font-family="Helvetica,sans-Serif" font-size="14.00" fill="#ffffff">open_weather</text>
<text text-anchor="start" x="524" y="-548.1" font-family="Helvetica,sans-Serif" font-size="8.00" fill="#ffffff">OpenWeather</text>
<polygon fill="#60103c" stroke="none" points="503,-525 503,-542 596,-542 596,-525 503,-525"/>
<polygon fill="none" stroke="#360921" points="503,-525 503,-542 596,-542 596,-525 503,-525"/>
<text text-anchor="start" x="506" y="-531" font-family="Helvetica,sans-Serif" font-size="10.00" fill="#ffffff">◎ LOCATION</text>
<polygon fill="#60103c" stroke="none" points="503,-508 503,-525 596,-525 596,-508 503,-508"/>
<polygon fill="none" stroke="#360921" points="503,-508 503,-525 596,-525 596,-508 503,-508"/>
<text text-anchor="start" x="506" y="-514" font-family="Helvetica,sans-Serif" font-size="10.00" fill="#ffffff">◎ APPID</text>
<polygon fill="#480c2d" stroke="none" points="503,-491 503,-508 596,-508 596,-491 503,-491"/>
<polygon fill="none" stroke="#360921" points="503,-491 503,-508 596,-508 596,-491 503,-491"/>
<text text-anchor="start" x="527" y="-497" font-family="Helvetica,sans-Serif" font-size="10.00" fill="#ffffff">TEMP_AVG ◉</text>
<polygon fill="#480c2d" stroke="none" points="503,-474 503,-491 596,-491 596,-474 503,-474"/>
<polygon fill="none" stroke="#360921" points="503,-474 503,-491 596,-491 596,-474 503,-474"/>
<text text-anchor="start" x="526" y="-480" font-family="Helvetica,sans-Serif" font-size="10.00" fill="#ffffff">TEMP_LOW ◉</text>
<polygon fill="#480c2d" stroke="none" points="503,-457 503,-474 596,-474 596,-457 503,-457"/>
<polygon fill="none" stroke="#360921" points="503,-457 503,-474 596,-474 596,-457 503,-457"/>
<text text-anchor="start" x="523" y="-463" font-family="Helvetica,sans-Serif" font-size="10.00" fill="#ffffff">TEMP_HIGH ◉</text>
</g>
<!-- openweather_appid&#45;&gt;open_weather -->
<g id="edge7" class="edge"><title>openweather_appid:OUT_OUT:e&#45;&gt;open_weather:IN_APPID:w</title>
<path fill="none" stroke="#6a5b51" stroke-width="2" d="M443,-517C467.788,-517 475.002,-517 497.868,-517"/>
<ellipse fill="#6a5b51" stroke="#6a5b51" stroke-width="2" cx="500" cy="-517" rx="2" ry="2"/>
</g>
<!-- temboo_username -->
<g id="node2" class="node"><title>temboo_username</title>
<polygon fill="#4e2e10" stroke="none" points="318,-179 318,-208 440,-208 440,-179 318,-179"/>
<polygon fill="none" stroke="#201206" points="318,-179 318,-208 440,-208 440,-179 318,-179"/>
<text text-anchor="start" x="321.5" y="-194.3" font-family="Helvetica,sans-Serif" font-size="14.00" fill="#ffffff">temboo_username</text>
<text text-anchor="start" x="363" y="-185.1" font-family="Helvetica,sans-Serif" font-size="8.00" fill="#ffffff">app/argv</text>
<polygon fill="#2b1909" stroke="none" points="318,-162 318,-179 440,-179 440,-162 318,-162"/>
<polygon fill="none" stroke="#201206" points="318,-162 318,-179 440,-179 440,-162 318,-162"/>
<text text-anchor="start" x="404" y="-168" font-family="Helvetica,sans-Serif" font-size="10.00" fill="#ffffff">OUT ◉</text>
</g>
<!-- temboo_weather -->
<g id="node16" class="node"><title>temboo_weather</title>
<polygon fill="#1be9f2" stroke="none" points="495,-140 495,-169 604,-169 604,-140 495,-140"/>
<polygon fill="none" stroke="#0b6165" points="495,-140 495,-169 604,-169 604,-140 495,-140"/>
<text text-anchor="start" x="498.5" y="-155.3" font-family="Helvetica,sans-Serif" font-size="14.00" fill="#000000">temboo_weather</text>
<text text-anchor="start" x="519" y="-146.1" font-family="Helvetica,sans-Serif" font-size="8.00" fill="#000000">TembooWeather</text>
<polygon fill="#14aeb5" stroke="none" points="495,-123 495,-140 604,-140 604,-123 495,-123"/>
<polygon fill="none" stroke="#0b6165" points="495,-123 495,-140 604,-140 604,-123 495,-123"/>
<text text-anchor="start" x="498" y="-129" font-family="Helvetica,sans-Serif" font-size="10.00" fill="#000000">◎ LOCATION</text>
<polygon fill="#14aeb5" stroke="none" points="495,-106 495,-123 604,-123 604,-106 495,-106"/>
<polygon fill="none" stroke="#0b6165" points="495,-106 495,-123 604,-123 604,-106 495,-106"/>
<text text-anchor="start" x="498" y="-112" font-family="Helvetica,sans-Serif" font-size="10.00" fill="#000000">◎ USERNAME</text>
<polygon fill="#14aeb5" stroke="none" points="495,-89 495,-106 604,-106 604,-89 495,-89"/>
<polygon fill="none" stroke="#0b6165" points="495,-89 495,-106 604,-106 604,-89 495,-89"/>
<text text-anchor="start" x="498" y="-95" font-family="Helvetica,sans-Serif" font-size="10.00" fill="#000000">◎ APP_NAME</text>
<polygon fill="#14aeb5" stroke="none" points="495,-72 495,-89 604,-89 604,-72 495,-72"/>
<polygon fill="none" stroke="#0b6165" points="495,-72 495,-89 604,-89 604,-72 495,-72"/>
<text text-anchor="start" x="498" y="-78" font-family="Helvetica,sans-Serif" font-size="10.00" fill="#000000">◎ APPID</text>
<polygon fill="#0f8287" stroke="none" points="495,-55 495,-72 604,-72 604,-55 495,-55"/>
<polygon fill="none" stroke="#0b6165" points="495,-55 495,-72 604,-72 604,-55 495,-55"/>
<text text-anchor="start" x="535" y="-61" font-family="Helvetica,sans-Serif" font-size="10.00" fill="#ffffff">TEMP_AVG ◉</text>
<polygon fill="#0f8287" stroke="none" points="495,-38 495,-55 604,-55 604,-38 495,-38"/>
<polygon fill="none" stroke="#0b6165" points="495,-38 495,-55 604,-55 604,-38 495,-38"/>
<text text-anchor="start" x="534" y="-44" font-family="Helvetica,sans-Serif" font-size="10.00" fill="#ffffff">TEMP_LOW ◉</text>
<polygon fill="#0f8287" stroke="none" points="495,-21 495,-38 604,-38 604,-21 495,-21"/>
<polygon fill="none" stroke="#0b6165" points="495,-21 495,-38 604,-38 604,-21 495,-21"/>
<text text-anchor="start" x="531" y="-27" font-family="Helvetica,sans-Serif" font-size="10.00" fill="#ffffff">TEMP_HIGH ◉</text>
</g>
<!-- temboo_username&#45;&gt;temboo_weather -->
<g id="edge18" class="edge"><title>temboo_username:OUT_OUT:e&#45;&gt;temboo_weather:IN_USERNAME:w</title>
<path fill="none" stroke="#6e17d8" stroke-width="2" d="M441,-170C473.488,-170 461.243,-119.625 489.887,-115.296"/>
<ellipse fill="#6e17d8" stroke="#6e17d8" stroke-width="2" cx="492.005" cy="-115.144" rx="2" ry="2"/>
</g>
<!-- temboo_appname -->
<g id="node3" class="node"><title>temboo_appname</title>
<polygon fill="#4e2e10" stroke="none" points="320,-107 320,-136 438,-136 438,-107 320,-107"/>
<polygon fill="none" stroke="#201206" points="320,-107 320,-136 438,-136 438,-107 320,-107"/>
<text text-anchor="start" x="323.5" y="-122.3" font-family="Helvetica,sans-Serif" font-size="14.00" fill="#ffffff">temboo_appname</text>
<text text-anchor="start" x="363" y="-113.1" font-family="Helvetica,sans-Serif" font-size="8.00" fill="#ffffff">app/argv</text>
<polygon fill="#2b1909" stroke="none" points="320,-90 320,-107 438,-107 438,-90 320,-90"/>
<polygon fill="none" stroke="#201206" points="320,-90 320,-107 438,-107 438,-90 320,-90"/>
<text text-anchor="start" x="402" y="-96" font-family="Helvetica,sans-Serif" font-size="10.00" fill="#ffffff">OUT ◉</text>
</g>
<!-- temboo_appname&#45;&gt;temboo_weather -->
<g id="edge19" class="edge"><title>temboo_appname:OUT_OUT:e&#45;&gt;temboo_weather:IN_APP_NAME:w</title>
<path fill="none" stroke="#2b4802" stroke-width="2" d="M439,-98C462.012,-98 468.776,-98 489.885,-98"/>
<ellipse fill="#2b4802" stroke="#2b4802" stroke-width="2" cx="492" cy="-98" rx="2" ry="2"/>
</g>
<!-- temboo_appid -->
<g id="node4" class="node"><title>temboo_appid</title>
<polygon fill="#4e2e10" stroke="none" points="332,-35 332,-64 426,-64 426,-35 332,-35"/>
<polygon fill="none" stroke="#201206" points="332,-35 332,-64 426,-64 426,-35 332,-35"/>
<text text-anchor="start" x="335.5" y="-50.3" font-family="Helvetica,sans-Serif" font-size="14.00" fill="#ffffff">temboo_appid</text>
<text text-anchor="start" x="363" y="-41.1" font-family="Helvetica,sans-Serif" font-size="8.00" fill="#ffffff">app/argv</text>
<polygon fill="#2b1909" stroke="none" points="332,-18 332,-35 426,-35 426,-18 332,-18"/>
<polygon fill="none" stroke="#201206" points="332,-18 332,-35 426,-35 426,-18 332,-18"/>
<text text-anchor="start" x="390" y="-24" font-family="Helvetica,sans-Serif" font-size="10.00" fill="#ffffff">OUT ◉</text>
</g>
<!-- temboo_appid&#45;&gt;temboo_weather -->
<g id="edge20" class="edge"><title>temboo_appid:OUT_OUT:e&#45;&gt;temboo_weather:IN_APPID:w</title>
<path fill="none" stroke="#a194cc" stroke-width="2" d="M427,-26C463.752,-26 456.423,-75.8636 489.731,-79.7592"/>
<ellipse fill="#a194cc" stroke="#a194cc" stroke-width="2" cx="492.003" cy="-79.8873" rx="2" ry="2"/>
</g>
<!-- #anon:29:1 -->
<g id="node5" class="node"><title>#anon:29:1</title>
<polygon fill="#e8ea7a" stroke="none" points="8,-379 8,-401 108,-401 108,-379 8,-379"/>
<polygon fill="none" stroke="#616233" points="8,-379 8,-401 108,-401 108,-379 8,-379"/>
<text text-anchor="start" x="11.5" y="-386.3" font-family="Helvetica,sans-Serif" font-size="14.00" fill="#000000">constant/empty</text>
<polygon fill="#828344" stroke="none" points="8,-362 8,-379 108,-379 108,-362 8,-362"/>
<polygon fill="none" stroke="#616233" points="8,-362 8,-379 108,-379 108,-362 8,-362"/>
<text text-anchor="start" x="72" y="-368" font-family="Helvetica,sans-Serif" font-size="10.00" fill="#ffffff">OUT ◉</text>
</g>
<!-- location_get -->
<g id="node6" class="node"><title>location_get</title>
<polygon fill="#a962f4" stroke="none" points="160,-378 160,-407 264,-407 264,-378 160,-378"/>
<polygon fill="none" stroke="#462866" points="160,-378 160,-407 264,-407 264,-378 160,-378"/>
<text text-anchor="start" x="175.5" y="-393.3" font-family="Helvetica,sans-Serif" font-size="14.00" fill="#000000">location_get</text>
<text text-anchor="start" x="180" y="-384.1" font-family="Helvetica,sans-Serif" font-size="8.00" fill="#000000">location/freegeoip</text>
<polygon fill="#7e49b7" stroke="none" points="160,-361 160,-378 264,-378 264,-361 160,-361"/>
<polygon fill="none" stroke="#462866" points="160,-361 160,-378 264,-378 264,-361 160,-361"/>
<text text-anchor="start" x="163" y="-367" font-family="Helvetica,sans-Serif" font-size="10.00" fill="#ffffff">◎ IN</text>
<polygon fill="#5e3689" stroke="none" points="160,-344 160,-361 264,-361 264,-344 160,-344"/>
<polygon fill="none" stroke="#462866" points="160,-344 160,-361 264,-361 264,-344 160,-344"/>
<text text-anchor="start" x="191" y="-350" font-family="Helvetica,sans-Serif" font-size="10.00" fill="#ffffff">CITY_NAME ◉</text>
<polygon fill="#5e3689" stroke="none" points="160,-327 160,-344 264,-344 264,-327 160,-327"/>
<polygon fill="none" stroke="#462866" points="160,-327 160,-344 264,-344 264,-327 160,-327"/>
<text text-anchor="start" x="164" y="-333" font-family="Helvetica,sans-Serif" font-size="10.00" fill="#ffffff">COUNTRY_CODE ◉</text>
</g>
<!-- #anon:29:1&#45;&gt;location_get -->
<g id="edge1" class="edge"><title>#anon:29:1:OUT_OUT:e&#45;&gt;location_get:IN_IN:w</title>
<path fill="none" stroke="#4fafbe" stroke-width="2" d="M109,-370C129.66,-370 135.914,-370 154.548,-370"/>
<ellipse fill="#4fafbe" stroke="#4fafbe" stroke-width="2" cx="157" cy="-370" rx="2" ry="2"/>
</g>
<!-- location -->
<g id="node7" class="node"><title>location</title>
<polygon fill="#c1ee90" stroke="none" points="343,-353 343,-382 416,-382 416,-353 343,-353"/>
<polygon fill="none" stroke="#51633c" points="343,-353 343,-382 416,-382 416,-353 343,-353"/>
<text text-anchor="start" x="356" y="-368.3" font-family="Helvetica,sans-Serif" font-size="14.00" fill="#000000">location</text>
<text text-anchor="start" x="346.5" y="-359.1" font-family="Helvetica,sans-Serif" font-size="8.00" fill="#000000">string/concatenate</text>
<polygon fill="#90b26c" stroke="none" points="343,-336 343,-353 416,-353 416,-336 343,-336"/>
<polygon fill="none" stroke="#51633c" points="343,-336 343,-353 416,-353 416,-336 343,-336"/>
<text text-anchor="start" x="346" y="-342" font-family="Helvetica,sans-Serif" font-size="10.00" fill="#000000">◎ IN</text>
<polygon fill="#6c8551" stroke="none" points="343,-319 343,-336 416,-336 416,-319 343,-319"/>
<polygon fill="none" stroke="#51633c" points="343,-319 343,-336 416,-336 416,-319 343,-319"/>
<text text-anchor="start" x="380" y="-325" font-family="Helvetica,sans-Serif" font-size="10.00" fill="#ffffff">OUT ◉</text>
</g>
<!-- location_get&#45;&gt;location -->
<g id="edge2" class="edge"><title>location_get:OUT_CITY_NAME:e&#45;&gt;location:IN_IN:w</title>
<path fill="none" stroke="#4b657d" stroke-width="2" d="M265,-352C297.928,-352 306.842,-344.673 337.706,-344.043"/>
<ellipse fill="#4b657d" stroke="#4b657d" stroke-width="2" cx="340" cy="-344.02" rx="2" ry="2"/>
</g>
<!-- location_get&#45;&gt;location -->
<g id="edge3" class="edge"><title>location_get:OUT_COUNTRY_CODE:e&#45;&gt;location:IN_IN:w</title>
<path fill="none" stroke="#8b32a0" stroke-width="2" d="M265,-335C297.975,-335 306.801,-343.243 337.7,-343.952"/>
<ellipse fill="#8b32a0" stroke="#8b32a0" stroke-width="2" cx="340" cy="-343.977" rx="2" ry="2"/>
</g>
<!-- #anon:32:20 -->
<g id="node8" class="node"><title>#anon:32:20</title>
<polygon fill="#471ca4" stroke="none" points="522,-408 522,-430 576,-430 576,-408 522,-408"/>
<polygon fill="none" stroke="#1d0b45" points="522,-408 522,-430 576,-430 576,-408 522,-408"/>
<text text-anchor="start" x="525.5" y="-415.3" font-family="Helvetica,sans-Serif" font-size="14.00" fill="#ffffff">console</text>
<polygon fill="#35157b" stroke="none" points="522,-391 522,-408 576,-408 576,-391 522,-391"/>
<polygon fill="none" stroke="#1d0b45" points="522,-391 522,-408 576,-408 576,-391 522,-391"/>
<text text-anchor="start" x="525" y="-397" font-family="Helvetica,sans-Serif" font-size="10.00" fill="#ffffff">◎ IN</text>
</g>
<!-- location&#45;&gt;#anon:32:20 -->
<g id="edge4" class="edge"><title>location:OUT_OUT:e&#45;&gt;#anon:32:20:IN_IN:w</title>
<path fill="none" stroke="#a8c0ce" stroke-width="2" d="M417,-327C471.791,-327 465.168,-395.39 516.841,-398.863"/>
<ellipse fill="#a8c0ce" stroke="#a8c0ce" stroke-width="2" cx="519.001" cy="-398.934" rx="2" ry="2"/>
</g>
<!-- Location -->
<g id="node9" class="node"><title>Location</title>
<polygon fill="#471ca4" stroke="none" points="520,-336 520,-365 579,-365 579,-336 520,-336"/>
<polygon fill="none" stroke="#1d0b45" points="520,-336 520,-365 579,-365 579,-336 520,-336"/>
<text text-anchor="start" x="523.5" y="-351.3" font-family="Helvetica,sans-Serif" font-size="14.00" fill="#ffffff">Location</text>
<text text-anchor="start" x="535.5" y="-342.1" font-family="Helvetica,sans-Serif" font-size="8.00" fill="#ffffff">console</text>
<polygon fill="#35157b" stroke="none" points="520,-319 520,-336 579,-336 579,-319 520,-319"/>
<polygon fill="none" stroke="#1d0b45" points="520,-319 520,-336 579,-336 579,-319 520,-319"/>
<text text-anchor="start" x="523" y="-325" font-family="Helvetica,sans-Serif" font-size="10.00" fill="#ffffff">◎ IN</text>
</g>
<!-- location&#45;&gt;Location -->
<g id="edge5" class="edge"><title>location:OUT_OUT:e&#45;&gt;Location:IN_IN:w</title>
<path fill="none" stroke="#bc42ce" stroke-width="2" d="M417,-327C460.917,-327 472.925,-327 514.848,-327"/>
<ellipse fill="#bc42ce" stroke="#bc42ce" stroke-width="2" cx="517" cy="-327" rx="2" ry="2"/>
</g>
<!-- location&#45;&gt;open_weather -->
<g id="edge6" class="edge"><title>location:OUT_OUT:e&#45;&gt;open_weather:IN_LOCATION:w</title>
<path fill="none" stroke="#785382" stroke-width="2" d="M417,-327C514.997,-327 405.837,-527.98 497.765,-533.868"/>
<ellipse fill="#785382" stroke="#785382" stroke-width="2" cx="500.001" cy="-533.938" rx="2" ry="2"/>
</g>
<!-- yahoo_weather -->
<g id="node13" class="node"><title>yahoo_weather</title>
<polygon fill="#727864" stroke="none" points="499,-263 499,-292 599,-292 599,-263 499,-263"/>
<polygon fill="none" stroke="#2f322a" points="499,-263 499,-292 599,-292 599,-263 499,-263"/>
<text text-anchor="start" x="502.5" y="-278.3" font-family="Helvetica,sans-Serif" font-size="14.00" fill="#ffffff">yahoo_weather</text>
<text text-anchor="start" x="521.5" y="-269.1" font-family="Helvetica,sans-Serif" font-size="8.00" fill="#ffffff">YahooWeather</text>
<polygon fill="#555a4b" stroke="none" points="499,-246 499,-263 599,-263 599,-246 499,-246"/>
<polygon fill="none" stroke="#2f322a" points="499,-246 499,-263 599,-263 599,-246 499,-246"/>
<text text-anchor="start" x="502" y="-252" font-family="Helvetica,sans-Serif" font-size="10.00" fill="#ffffff">◎ LOCATION</text>
<polygon fill="#3f4338" stroke="none" points="499,-229 499,-246 599,-246 599,-229 499,-229"/>
<polygon fill="none" stroke="#2f322a" points="499,-229 499,-246 599,-246 599,-229 499,-229"/>
<text text-anchor="start" x="530" y="-235" font-family="Helvetica,sans-Serif" font-size="10.00" fill="#ffffff">TEMP_AVG ◉</text>
<polygon fill="#3f4338" stroke="none" points="499,-212 499,-229 599,-229 599,-212 499,-212"/>
<polygon fill="none" stroke="#2f322a" points="499,-212 499,-229 599,-229 599,-212 499,-212"/>
<text text-anchor="start" x="529" y="-218" font-family="Helvetica,sans-Serif" font-size="10.00" fill="#ffffff">TEMP_LOW ◉</text>
<polygon fill="#3f4338" stroke="none" points="499,-195 499,-212 599,-212 599,-195 499,-195"/>
<polygon fill="none" stroke="#2f322a" points="499,-195 499,-212 599,-212 599,-195 499,-195"/>
<text text-anchor="start" x="526" y="-201" font-family="Helvetica,sans-Serif" font-size="10.00" fill="#ffffff">TEMP_HIGH ◉</text>
</g>
<!-- location&#45;&gt;yahoo_weather -->
<g id="edge12" class="edge"><title>location:OUT_OUT:e&#45;&gt;yahoo_weather:IN_LOCATION:w</title>
<path fill="none" stroke="#6a4d76" stroke-width="2" d="M417,-327C463.755,-327 450.678,-259.157 493.927,-255.182"/>
<ellipse fill="#6a4d76" stroke="#6a4d76" stroke-width="2" cx="496.002" cy="-255.089" rx="2" ry="2"/>
</g>
<!-- location&#45;&gt;temboo_weather -->
<g id="edge17" class="edge"><title>location:OUT_OUT:e&#45;&gt;temboo_weather:IN_LOCATION:w</title>
<path fill="none" stroke="#52408b" stroke-width="2" d="M417,-327C508.723,-327 404.189,-138.046 489.779,-132.141"/>
<ellipse fill="#52408b" stroke="#52408b" stroke-width="2" cx="492.001" cy="-132.067" rx="2" ry="2"/>
</g>
<!-- open_weather_display -->
<g id="node11" class="node"><title>open_weather_display</title>
<polygon fill="#9f803c" stroke="none" points="664,-508 664,-537 807,-537 807,-508 664,-508"/>
<polygon fill="none" stroke="#423618" points="664,-508 664,-537 807,-537 807,-508 664,-508"/>
<text text-anchor="start" x="667.5" y="-523.3" font-family="Helvetica,sans-Serif" font-size="14.00" fill="#000000">open_weather_display</text>
<text text-anchor="start" x="712" y="-514.1" font-family="Helvetica,sans-Serif" font-size="8.00" fill="#000000">TempDisplay</text>
<polygon fill="#77602d" stroke="none" points="664,-491 664,-508 807,-508 807,-491 664,-491"/>
<polygon fill="none" stroke="#423618" points="664,-491 664,-508 807,-508 807,-491 664,-491"/>
<text text-anchor="start" x="667" y="-497" font-family="Helvetica,sans-Serif" font-size="10.00" fill="#ffffff">◎ TEMP_AVG</text>
<polygon fill="#77602d" stroke="none" points="664,-474 664,-491 807,-491 807,-474 664,-474"/>
<polygon fill="none" stroke="#423618" points="664,-474 664,-491 807,-491 807,-474 664,-474"/>
<text text-anchor="start" x="667" y="-480" font-family="Helvetica,sans-Serif" font-size="10.00" fill="#ffffff">◎ TEMP_LOW</text>
<polygon fill="#77602d" stroke="none" points="664,-457 664,-474 807,-474 807,-457 664,-457"/>
<polygon fill="none" stroke="#423618" points="664,-457 664,-474 807,-474 807,-457 664,-457"/>
<text text-anchor="start" x="667" y="-463" font-family="Helvetica,sans-Serif" font-size="10.00" fill="#ffffff">◎ TEMP_HIGH</text>
<polygon fill="#594821" stroke="none" points="664,-440 664,-457 807,-457 807,-440 664,-440"/>
<polygon fill="none" stroke="#423618" points="664,-440 664,-457 807,-457 807,-440 664,-440"/>
<text text-anchor="start" x="771" y="-446" font-family="Helvetica,sans-Serif" font-size="10.00" fill="#ffffff">OUT ◉</text>
</g>
<!-- open_weather&#45;&gt;open_weather_display -->
<g id="edge8" class="edge"><title>open_weather:OUT_TEMP_AVG:e&#45;&gt;open_weather_display:IN_TEMP_AVG:w</title>
<path fill="none" stroke="#4fac14" stroke-width="2" d="M597,-499C624.847,-499 632.862,-499.901 658.695,-499.993"/>
<ellipse fill="#4fac14" stroke="#4fac14" stroke-width="2" cx="661" cy="-499.996" rx="2" ry="2"/>
</g>
<!-- open_weather&#45;&gt;open_weather_display -->
<g id="edge9" class="edge"><title>open_weather:OUT_TEMP_LOW:e&#45;&gt;open_weather_display:IN_TEMP_LOW:w</title>
<path fill="none" stroke="#76692b" stroke-width="2" d="M597,-482C624.844,-482 632.865,-482 658.696,-482"/>
<ellipse fill="#76692b" stroke="#76692b" stroke-width="2" cx="661" cy="-482" rx="2" ry="2"/>
</g>
<!-- open_weather&#45;&gt;open_weather_display -->
<g id="edge10" class="edge"><title>open_weather:OUT_TEMP_HIGH:e&#45;&gt;open_weather_display:IN_TEMP_HIGH:w</title>
<path fill="none" stroke="#a8ad1c" stroke-width="2" d="M597,-465C624.844,-465 632.865,-465 658.696,-465"/>
<ellipse fill="#a8ad1c" stroke="#a8ad1c" stroke-width="2" cx="661" cy="-465" rx="2" ry="2"/>
</g>
<!-- OpenWeatherMap -->
<g id="node12" class="node"><title>OpenWeatherMap</title>
<polygon fill="#471ca4" stroke="none" points="866,-457 866,-486 986,-486 986,-457 866,-457"/>
<polygon fill="none" stroke="#1d0b45" points="866,-457 866,-486 986,-486 986,-457 866,-457"/>
<text text-anchor="start" x="869.5" y="-472.3" font-family="Helvetica,sans-Serif" font-size="14.00" fill="#ffffff">OpenWeatherMap</text>
<text text-anchor="start" x="912" y="-463.1" font-family="Helvetica,sans-Serif" font-size="8.00" fill="#ffffff">console</text>
<polygon fill="#35157b" stroke="none" points="866,-440 866,-457 986,-457 986,-440 866,-440"/>
<polygon fill="none" stroke="#1d0b45" points="866,-440 866,-457 986,-457 986,-440 866,-440"/>
<text text-anchor="start" x="869" y="-446" font-family="Helvetica,sans-Serif" font-size="10.00" fill="#ffffff">◎ IN</text>
</g>
<!-- open_weather_display&#45;&gt;OpenWeatherMap -->
<g id="edge11" class="edge"><title>open_weather_display:OUT_OUT:e&#45;&gt;OpenWeatherMap:IN_IN:w</title>
<path fill="none" stroke="#4cd3d6" stroke-width="2" d="M808,-448C831.849,-448 838.859,-448 860.735,-448"/>
<ellipse fill="#4cd3d6" stroke="#4cd3d6" stroke-width="2" cx="863" cy="-448" rx="2" ry="2"/>
</g>
<!-- yahoo_weather_display -->
<g id="node14" class="node"><title>yahoo_weather_display</title>
<polygon fill="#9f803c" stroke="none" points="661,-246 661,-275 810,-275 810,-246 661,-246"/>
<polygon fill="none" stroke="#423618" points="661,-246 661,-275 810,-275 810,-246 661,-246"/>
<text text-anchor="start" x="664.5" y="-261.3" font-family="Helvetica,sans-Serif" font-size="14.00" fill="#000000">yahoo_weather_display</text>
<text text-anchor="start" x="712" y="-252.1" font-family="Helvetica,sans-Serif" font-size="8.00" fill="#000000">TempDisplay</text>
<polygon fill="#77602d" stroke="none" points="661,-229 661,-246 810,-246 810,-229 661,-229"/>
<polygon fill="none" stroke="#423618" points="661,-229 661,-246 810,-246 810,-229 661,-229"/>
<text text-anchor="start" x="664" y="-235" font-family="Helvetica,sans-Serif" font-size="10.00" fill="#ffffff">◎ TEMP_AVG</text>
<polygon fill="#77602d" stroke="none" points="661,-212 661,-229 810,-229 810,-212 661,-212"/>
<polygon fill="none" stroke="#423618" points="661,-212 661,-229 810,-229 810,-212 661,-212"/>
<text text-anchor="start" x="664" y="-218" font-family="Helvetica,sans-Serif" font-size="10.00" fill="#ffffff">◎ TEMP_LOW</text>
<polygon fill="#77602d" stroke="none" points="661,-195 661,-212 810,-212 810,-195 661,-195"/>
<polygon fill="none" stroke="#423618" points="661,-195 661,-212 810,-212 810,-195 661,-195"/>
<text text-anchor="start" x="664" y="-201" font-family="Helvetica,sans-Serif" font-size="10.00" fill="#ffffff">◎ TEMP_HIGH</text>
<polygon fill="#594821" stroke="none" points="661,-178 661,-195 810,-195 810,-178 661,-178"/>
<polygon fill="none" stroke="#423618" points="661,-178 661,-195 810,-195 810,-178 661,-178"/>
<text text-anchor="start" x="774" y="-184" font-family="Helvetica,sans-Serif" font-size="10.00" fill="#ffffff">OUT ◉</text>
</g>
<!-- yahoo_weather&#45;&gt;yahoo_weather_display -->
<g id="edge13" class="edge"><title>yahoo_weather:OUT_TEMP_AVG:e&#45;&gt;yahoo_weather_display:IN_TEMP_AVG:w</title>
<path fill="none" stroke="#24a400" stroke-width="2" d="M600,-237C625.212,-237 632.541,-237.894 655.797,-237.991"/>
<ellipse fill="#24a400" stroke="#24a400" stroke-width="2" cx="658" cy="-237.996" rx="2" ry="2"/>
</g>
<!-- yahoo_weather&#45;&gt;yahoo_weather_display -->
<g id="edge14" class="edge"><title>yahoo_weather:OUT_TEMP_LOW:e&#45;&gt;yahoo_weather_display:IN_TEMP_LOW:w</title>
<path fill="none" stroke="#ff9980" stroke-width="2" d="M600,-220C625.208,-220 632.544,-220 655.798,-220"/>
<ellipse fill="#ff9980" stroke="#ff9980" stroke-width="2" cx="658" cy="-220" rx="2" ry="2"/>
</g>
<!-- yahoo_weather&#45;&gt;yahoo_weather_display -->
<g id="edge15" class="edge"><title>yahoo_weather:OUT_TEMP_HIGH:e&#45;&gt;yahoo_weather_display:IN_TEMP_HIGH:w</title>
<path fill="none" stroke="#896bc8" stroke-width="2" d="M600,-203C625.208,-203 632.544,-203 655.798,-203"/>
<ellipse fill="#896bc8" stroke="#896bc8" stroke-width="2" cx="658" cy="-203" rx="2" ry="2"/>
</g>
<!-- YahooWeather -->
<g id="node15" class="node"><title>YahooWeather</title>
<polygon fill="#471ca4" stroke="none" points="877,-195 877,-224 975,-224 975,-195 877,-195"/>
<polygon fill="none" stroke="#1d0b45" points="877,-195 877,-224 975,-224 975,-195 877,-195"/>
<text text-anchor="start" x="880.5" y="-210.3" font-family="Helvetica,sans-Serif" font-size="14.00" fill="#ffffff">YahooWeather</text>
<text text-anchor="start" x="912" y="-201.1" font-family="Helvetica,sans-Serif" font-size="8.00" fill="#ffffff">console</text>
<polygon fill="#35157b" stroke="none" points="877,-178 877,-195 975,-195 975,-178 877,-178"/>
<polygon fill="none" stroke="#1d0b45" points="877,-178 877,-195 975,-195 975,-178 877,-178"/>
<text text-anchor="start" x="880" y="-184" font-family="Helvetica,sans-Serif" font-size="10.00" fill="#ffffff">◎ IN</text>
</g>
<!-- yahoo_weather_display&#45;&gt;YahooWeather -->
<g id="edge16" class="edge"><title>yahoo_weather_display:OUT_OUT:e&#45;&gt;YahooWeather:IN_IN:w</title>
<path fill="none" stroke="#7e54b3" stroke-width="2" d="M811,-186C838.422,-186 846.322,-186 871.761,-186"/>
<ellipse fill="#7e54b3" stroke="#7e54b3" stroke-width="2" cx="874" cy="-186" rx="2" ry="2"/>
</g>
<!-- temboo_weather_display -->
<g id="node17" class="node"><title>temboo_weather_display</title>
<polygon fill="#9f803c" stroke="none" points="656,-72 656,-101 814,-101 814,-72 656,-72"/>
<polygon fill="none" stroke="#423618" points="656,-72 656,-101 814,-101 814,-72 656,-72"/>
<text text-anchor="start" x="659.5" y="-87.3" font-family="Helvetica,sans-Serif" font-size="14.00" fill="#000000">temboo_weather_display</text>
<text text-anchor="start" x="711.5" y="-78.1" font-family="Helvetica,sans-Serif" font-size="8.00" fill="#000000">TempDisplay</text>
<polygon fill="#77602d" stroke="none" points="656,-55 656,-72 814,-72 814,-55 656,-55"/>
<polygon fill="none" stroke="#423618" points="656,-55 656,-72 814,-72 814,-55 656,-55"/>
<text text-anchor="start" x="659" y="-61" font-family="Helvetica,sans-Serif" font-size="10.00" fill="#ffffff">◎ TEMP_AVG</text>
<polygon fill="#77602d" stroke="none" points="656,-38 656,-55 814,-55 814,-38 656,-38"/>
<polygon fill="none" stroke="#423618" points="656,-38 656,-55 814,-55 814,-38 656,-38"/>
<text text-anchor="start" x="659" y="-44" font-family="Helvetica,sans-Serif" font-size="10.00" fill="#ffffff">◎ TEMP_LOW</text>
<polygon fill="#77602d" stroke="none" points="656,-21 656,-38 814,-38 814,-21 656,-21"/>
<polygon fill="none" stroke="#423618" points="656,-21 656,-38 814,-38 814,-21 656,-21"/>
<text text-anchor="start" x="659" y="-27" font-family="Helvetica,sans-Serif" font-size="10.00" fill="#ffffff">◎ TEMP_HIGH</text>
<polygon fill="#594821" stroke="none" points="656,-4 656,-21 814,-21 814,-4 656,-4"/>
<polygon fill="none" stroke="#423618" points="656,-4 656,-21 814,-21 814,-4 656,-4"/>
<text text-anchor="start" x="778" y="-10" font-family="Helvetica,sans-Serif" font-size="10.00" fill="#ffffff">OUT ◉</text>
</g>
<!-- temboo_weather&#45;&gt;temboo_weather_display -->
<g id="edge21" class="edge"><title>temboo_weather:OUT_TEMP_AVG:e&#45;&gt;temboo_weather_display:IN_TEMP_AVG:w</title>
<path fill="none" stroke="#1246e0" stroke-width="2" d="M605,-63C625.664,-63 631.911,-63.8643 650.547,-63.9859"/>
<ellipse fill="#1246e0" stroke="#1246e0" stroke-width="2" cx="653" cy="-63.9936" rx="2" ry="2"/>
</g>
<!-- temboo_weather&#45;&gt;temboo_weather_display -->
<g id="edge22" class="edge"><title>temboo_weather:OUT_TEMP_LOW:e&#45;&gt;temboo_weather_display:IN_TEMP_LOW:w</title>
<path fill="none" stroke="#38cee8" stroke-width="2" d="M605,-46C625.66,-46 631.914,-46 650.548,-46"/>
<ellipse fill="#38cee8" stroke="#38cee8" stroke-width="2" cx="653" cy="-46" rx="2" ry="2"/>
</g>
<!-- temboo_weather&#45;&gt;temboo_weather_display -->
<g id="edge23" class="edge"><title>temboo_weather:OUT_TEMP_HIGH:e&#45;&gt;temboo_weather_display:IN_TEMP_HIGH:w</title>
<path fill="none" stroke="#50596f" stroke-width="2" d="M605,-29C625.66,-29 631.914,-29 650.548,-29"/>
<ellipse fill="#50596f" stroke="#50596f" stroke-width="2" cx="653" cy="-29" rx="2" ry="2"/>
</g>
<!-- TembooWeather -->
<g id="node18" class="node"><title>TembooWeather</title>
<polygon fill="#471ca4" stroke="none" points="871,-21 871,-50 981,-50 981,-21 871,-21"/>
<polygon fill="none" stroke="#1d0b45" points="871,-21 871,-50 981,-50 981,-21 871,-21"/>
<text text-anchor="start" x="874.5" y="-36.3" font-family="Helvetica,sans-Serif" font-size="14.00" fill="#ffffff">TembooWeather</text>
<text text-anchor="start" x="912" y="-27.1" font-family="Helvetica,sans-Serif" font-size="8.00" fill="#ffffff">console</text>
<polygon fill="#35157b" stroke="none" points="871,-4 871,-21 981,-21 981,-4 871,-4"/>
<polygon fill="none" stroke="#1d0b45" points="871,-4 871,-21 981,-21 981,-4 871,-4"/>
<text text-anchor="start" x="874" y="-10" font-family="Helvetica,sans-Serif" font-size="10.00" fill="#ffffff">◎ IN</text>
</g>
<!-- temboo_weather_display&#45;&gt;TembooWeather -->
<g id="edge24" class="edge"><title>temboo_weather_display:OUT_OUT:e&#45;&gt;TembooWeather:IN_IN:w</title>
<path fill="none" stroke="#6c5f3e" stroke-width="2" d="M815,-12C838.012,-12 844.776,-12 865.885,-12"/>
<ellipse fill="#6c5f3e" stroke="#6c5f3e" stroke-width="2" cx="868" cy="-12" rx="2" ry="2"/>
</g>
</g>
</svg>
