<?xml version="1.0" encoding="UTF-8" standalone="no"?>
<!DOCTYPE svg PUBLIC "-//W3C//DTD SVG 1.1//EN"
 "http://www.w3.org/Graphics/SVG/1.1/DTD/svg11.dtd">
<!-- Generated by graphviz version 2.36.0 (20140111.2315)
 -->
<!-- Title: fbp Pages: 1 -->
<svg width="1312pt" height="436pt"
 viewBox="0.00 0.00 1312.00 436.00" xmlns="http://www.w3.org/2000/svg" xmlns:xlink="http://www.w3.org/1999/xlink">
<g id="graph0" class="graph" transform="scale(1 1) rotate(0) translate(4 432)">
<title>fbp</title>
<polygon fill="white" stroke="none" points="-4,4 -4,-432 1308,-432 1308,4 -4,4"/>
<!-- location_query -->
<g id="node1" class="node"><title>location_query</title>
<polygon fill="#c1ee90" stroke="none" points="157,-189 157,-218 252,-218 252,-189 157,-189"/>
<polygon fill="none" stroke="#51633c" points="157,-189 157,-218 252,-218 252,-189 157,-189"/>
<text text-anchor="start" x="160.5" y="-204.3" font-family="Helvetica,sans-Serif" font-size="14.00" fill="#000000">location_query</text>
<text text-anchor="start" x="171.5" y="-195.1" font-family="Helvetica,sans-Serif" font-size="8.00" fill="#000000">string/concatenate</text>
<polygon fill="#90b26c" stroke="none" points="157,-172 157,-189 252,-189 252,-172 157,-172"/>
<polygon fill="none" stroke="#51633c" points="157,-172 157,-189 252,-189 252,-172 157,-172"/>
<text text-anchor="start" x="160" y="-178" font-family="Helvetica,sans-Serif" font-size="10.00" fill="#000000">◎ IN</text>
<polygon fill="#6c8551" stroke="none" points="157,-155 157,-172 252,-172 252,-155 157,-155"/>
<polygon fill="none" stroke="#51633c" points="157,-155 157,-172 252,-172 252,-155 157,-155"/>
<text text-anchor="start" x="216" y="-161" font-family="Helvetica,sans-Serif" font-size="10.00" fill="#ffffff">OUT ◉</text>
</g>
<!-- location_param -->
<g id="node12" class="node"><title>location_param</title>
<polygon fill="#10d080" stroke="none" points="305,-254 305,-283 406,-283 406,-254 305,-254"/>
<polygon fill="none" stroke="#065736" points="305,-254 305,-283 406,-283 406,-254 305,-254"/>
<text text-anchor="start" x="308.5" y="-269.3" font-family="Helvetica,sans-Serif" font-size="14.00" fill="#000000">location_param</text>
<text text-anchor="start" x="338" y="-260.1" font-family="Helvetica,sans-Serif" font-size="8.00" fill="#000000">UrlParam</text>
<polygon fill="#0c9c60" stroke="none" points="305,-237 305,-254 406,-254 406,-237 305,-237"/>
<polygon fill="none" stroke="#065736" points="305,-237 305,-254 406,-254 406,-237 305,-237"/>
<text text-anchor="start" x="308" y="-243" font-family="Helvetica,sans-Serif" font-size="10.00" fill="#ffffff">◎ KEY</text>
<polygon fill="#0c9c60" stroke="none" points="305,-220 305,-237 406,-237 406,-220 305,-220"/>
<polygon fill="none" stroke="#065736" points="305,-220 305,-237 406,-237 406,-220 305,-220"/>
<text text-anchor="start" x="308" y="-226" font-family="Helvetica,sans-Serif" font-size="10.00" fill="#ffffff">◎ VALUE</text>
<polygon fill="#097548" stroke="none" points="305,-203 305,-220 406,-220 406,-203 305,-203"/>
<polygon fill="none" stroke="#065736" points="305,-203 305,-220 406,-220 406,-203 305,-203"/>
<text text-anchor="start" x="370" y="-209" font-family="Helvetica,sans-Serif" font-size="10.00" fill="#ffffff">OUT ◉</text>
</g>
<!-- location_query&#45;&gt;location_param -->
<g id="edge7" class="edge"><title>location_query:OUT_OUT:e&#45;&gt;location_param:IN_VALUE:w</title>
<path fill="none" stroke="#507403" stroke-width="2" d="M253,-163C288.285,-163 268.943,-223.021 299.961,-227.71"/>
<ellipse fill="#507403" stroke="#507403" stroke-width="2" cx="302.005" cy="-227.857" rx="2" ry="2"/>
</g>
<!-- temp_avg -->
<g id="node2" class="node"><title>temp_avg</title>
<polygon fill="#8b33f6" stroke="none" points="1208,-215 1208,-244 1296,-244 1296,-215 1208,-215"/>
<polygon fill="none" stroke="#3a1567" points="1208,-215 1208,-244 1296,-244 1296,-215 1208,-215"/>
<text text-anchor="start" x="1221.5" y="-230.3" font-family="Helvetica,sans-Serif" font-size="14.00" fill="#ffffff">temp_avg</text>
<text text-anchor="start" x="1211.5" y="-221.1" font-family="Helvetica,sans-Serif" font-size="8.00" fill="#ffffff">temperature/converter</text>
<polygon fill="#6826b8" stroke="none" points="1208,-198 1208,-215 1296,-215 1296,-198 1208,-198"/>
<polygon fill="none" stroke="#3a1567" points="1208,-198 1208,-215 1296,-215 1296,-198 1208,-198"/>
<text text-anchor="start" x="1211" y="-204" font-family="Helvetica,sans-Serif" font-size="10.00" fill="#ffffff">◎ FAHRENHEIT</text>
<polygon fill="#4e1c8a" stroke="none" points="1208,-181 1208,-198 1296,-198 1296,-181 1208,-181"/>
<polygon fill="none" stroke="#3a1567" points="1208,-181 1208,-198 1296,-198 1296,-181 1208,-181"/>
<text text-anchor="start" x="1238" y="-187" font-family="Helvetica,sans-Serif" font-size="10.00" fill="#ffffff">CELSIUS ◉</text>
</g>
<!-- temp_low -->
<g id="node3" class="node"><title>temp_low</title>
<polygon fill="#8b33f6" stroke="none" points="1208,-126 1208,-155 1296,-155 1296,-126 1208,-126"/>
<polygon fill="none" stroke="#3a1567" points="1208,-126 1208,-155 1296,-155 1296,-126 1208,-126"/>
<text text-anchor="start" x="1222.5" y="-141.3" font-family="Helvetica,sans-Serif" font-size="14.00" fill="#ffffff">temp_low</text>
<text text-anchor="start" x="1211.5" y="-132.1" font-family="Helvetica,sans-Serif" font-size="8.00" fill="#ffffff">temperature/converter</text>
<polygon fill="#6826b8" stroke="none" points="1208,-109 1208,-126 1296,-126 1296,-109 1208,-109"/>
<polygon fill="none" stroke="#3a1567" points="1208,-109 1208,-126 1296,-126 1296,-109 1208,-109"/>
<text text-anchor="start" x="1211" y="-115" font-family="Helvetica,sans-Serif" font-size="10.00" fill="#ffffff">◎ FAHRENHEIT</text>
<polygon fill="#4e1c8a" stroke="none" points="1208,-92 1208,-109 1296,-109 1296,-92 1208,-92"/>
<polygon fill="none" stroke="#3a1567" points="1208,-92 1208,-109 1296,-109 1296,-92 1208,-92"/>
<text text-anchor="start" x="1238" y="-98" font-family="Helvetica,sans-Serif" font-size="10.00" fill="#ffffff">CELSIUS ◉</text>
</g>
<!-- temp_high -->
<g id="node4" class="node"><title>temp_high</title>
<polygon fill="#8b33f6" stroke="none" points="1208,-37 1208,-66 1296,-66 1296,-37 1208,-37"/>
<polygon fill="none" stroke="#3a1567" points="1208,-37 1208,-66 1296,-66 1296,-37 1208,-37"/>
<text text-anchor="start" x="1220" y="-52.3" font-family="Helvetica,sans-Serif" font-size="14.00" fill="#ffffff">temp_high</text>
<text text-anchor="start" x="1211.5" y="-43.1" font-family="Helvetica,sans-Serif" font-size="8.00" fill="#ffffff">temperature/converter</text>
<polygon fill="#6826b8" stroke="none" points="1208,-20 1208,-37 1296,-37 1296,-20 1208,-20"/>
<polygon fill="none" stroke="#3a1567" points="1208,-20 1208,-37 1296,-37 1296,-20 1208,-20"/>
<text text-anchor="start" x="1211" y="-26" font-family="Helvetica,sans-Serif" font-size="10.00" fill="#ffffff">◎ FAHRENHEIT</text>
<polygon fill="#4e1c8a" stroke="none" points="1208,-3 1208,-20 1296,-20 1296,-3 1208,-3"/>
<polygon fill="none" stroke="#3a1567" points="1208,-3 1208,-20 1296,-20 1296,-3 1208,-3"/>
<text text-anchor="start" x="1238" y="-9" font-family="Helvetica,sans-Serif" font-size="10.00" fill="#ffffff">CELSIUS ◉</text>
</g>
<!-- url -->
<g id="node5" class="node"><title>url</title>
<polygon fill="#d07e6c" stroke="none" points="459,-237 459,-266 538,-266 538,-237 459,-237"/>
<polygon fill="none" stroke="#57342d" points="459,-237 459,-266 538,-266 538,-237 459,-237"/>
<text text-anchor="start" x="490.5" y="-252.3" font-family="Helvetica,sans-Serif" font-size="14.00" fill="#000000">url</text>
<text text-anchor="start" x="462.5" y="-243.1" font-family="Helvetica,sans-Serif" font-size="8.00" fill="#000000">http&#45;client/create&#45;url</text>
<polygon fill="#9c5e51" stroke="none" points="459,-220 459,-237 538,-237 538,-220 459,-220"/>
<polygon fill="none" stroke="#57342d" points="459,-220 459,-237 538,-237 538,-220 459,-220"/>
<text text-anchor="start" x="462" y="-226" font-family="Helvetica,sans-Serif" font-size="10.00" fill="#ffffff">◎ PARAM</text>
<polygon fill="#9c5e51" stroke="none" points="459,-203 459,-220 538,-220 538,-203 459,-203"/>
<polygon fill="none" stroke="#57342d" points="459,-203 459,-220 538,-220 538,-203 459,-203"/>
<text text-anchor="start" x="462" y="-209" font-family="Helvetica,sans-Serif" font-size="10.00" fill="#ffffff">◎ CREATE</text>
<polygon fill="#75463c" stroke="none" points="459,-186 459,-203 538,-203 538,-186 459,-186"/>
<polygon fill="none" stroke="#57342d" points="459,-186 459,-203 538,-203 538,-186 459,-186"/>
<text text-anchor="start" x="502" y="-192" font-family="Helvetica,sans-Serif" font-size="10.00" fill="#ffffff">OUT ◉</text>
</g>
<!-- get_json -->
<g id="node13" class="node"><title>get_json</title>
<polygon fill="#d07e6c" stroke="none" points="591,-211 591,-240 650,-240 650,-211 591,-211"/>
<polygon fill="none" stroke="#57342d" points="591,-211 591,-240 650,-240 650,-211 591,-211"/>
<text text-anchor="start" x="594.5" y="-226.3" font-family="Helvetica,sans-Serif" font-size="14.00" fill="#000000">get_json</text>
<text text-anchor="start" x="594.5" y="-217.1" font-family="Helvetica,sans-Serif" font-size="8.00" fill="#000000">http&#45;client/json</text>
<polygon fill="#9c5e51" stroke="none" points="591,-194 591,-211 650,-211 650,-194 591,-194"/>
<polygon fill="none" stroke="#57342d" points="591,-194 591,-211 650,-211 650,-194 591,-194"/>
<text text-anchor="start" x="594" y="-200" font-family="Helvetica,sans-Serif" font-size="10.00" fill="#ffffff">◎ URL</text>
<polygon fill="#9c5e51" stroke="none" points="591,-177 591,-194 650,-194 650,-177 591,-177"/>
<polygon fill="none" stroke="#57342d" points="591,-177 591,-194 650,-194 650,-177 591,-177"/>
<text text-anchor="start" x="594" y="-183" font-family="Helvetica,sans-Serif" font-size="10.00" fill="#ffffff">◎ GET</text>
<polygon fill="#75463c" stroke="none" points="591,-160 591,-177 650,-177 650,-160 591,-160"/>
<polygon fill="none" stroke="#57342d" points="591,-160 591,-177 650,-177 650,-160 591,-160"/>
<text text-anchor="start" x="595" y="-166" font-family="Helvetica,sans-Serif" font-size="10.00" fill="#ffffff">OBJECT ◉</text>
</g>
<!-- url&#45;&gt;get_json -->
<g id="edge10" class="edge"><title>url:OUT_OUT:e&#45;&gt;get_json:IN_URL:w</title>
<path fill="none" stroke="#9d4a80" stroke-width="2" d="M539,-194C560.578,-194 566.292,-201.91 585.887,-202.899"/>
<ellipse fill="#9d4a80" stroke="#9d4a80" stroke-width="2" cx="588.001" cy="-202.951" rx="2" ry="2"/>
</g>
<!-- url&#45;&gt;get_json -->
<g id="edge11" class="edge"><title>url:OUT_OUT:e&#45;&gt;get_json:IN_GET:w</title>
<path fill="none" stroke="#21b6aa" stroke-width="2" d="M539,-194C560.578,-194 566.292,-186.09 585.887,-185.101"/>
<ellipse fill="#21b6aa" stroke="#21b6aa" stroke-width="2" cx="588.001" cy="-185.049" rx="2" ry="2"/>
</g>
<!-- #anon:28:1 -->
<g id="node6" class="node"><title>#anon:28:1</title>
<polygon fill="#e8ea7a" stroke="none" points="9,-222 9,-244 104,-244 104,-222 9,-222"/>
<polygon fill="none" stroke="#616233" points="9,-222 9,-244 104,-244 104,-222 9,-222"/>
<text text-anchor="start" x="12.5" y="-229.3" font-family="Helvetica,sans-Serif" font-size="14.00" fill="#000000">constant/string</text>
<polygon fill="#828344" stroke="none" points="9,-205 9,-222 104,-222 104,-205 9,-205"/>
<polygon fill="none" stroke="#616233" points="9,-205 9,-222 104,-222 104,-205 9,-205"/>
<text text-anchor="start" x="68" y="-211" font-family="Helvetica,sans-Serif" font-size="10.00" fill="#ffffff">OUT ◉</text>
</g>
<!-- #anon:28:1&#45;&gt;location_query -->
<g id="edge1" class="edge"><title>#anon:28:1:OUT_OUT:e&#45;&gt;location_query:IN_IN:w</title>
<path fill="none" stroke="#9721de" stroke-width="2" d="M105,-213C130.521,-213 129.24,-183.511 151.83,-180.285"/>
<ellipse fill="#9721de" stroke="#9721de" stroke-width="2" cx="154.005" cy="-180.137" rx="2" ry="2"/>
</g>
<!-- #anon:29:1 -->
<g id="node7" class="node"><title>#anon:29:1</title>
<polygon fill="#e8ea7a" stroke="none" points="9,-157 9,-179 104,-179 104,-157 9,-157"/>
<polygon fill="none" stroke="#616233" points="9,-157 9,-179 104,-179 104,-157 9,-157"/>
<text text-anchor="start" x="12.5" y="-164.3" font-family="Helvetica,sans-Serif" font-size="14.00" fill="#000000">constant/string</text>
<polygon fill="#828344" stroke="none" points="9,-140 9,-157 104,-157 104,-140 9,-140"/>
<polygon fill="none" stroke="#616233" points="9,-140 9,-157 104,-157 104,-140 9,-140"/>
<text text-anchor="start" x="68" y="-146" font-family="Helvetica,sans-Serif" font-size="10.00" fill="#ffffff">OUT ◉</text>
</g>
<!-- #anon:29:1&#45;&gt;location_query -->
<g id="edge2" class="edge"><title>#anon:29:1:OUT_OUT:e&#45;&gt;location_query:IN_IN:w</title>
<path fill="none" stroke="#401800" stroke-width="2" d="M105,-148C130.296,-148 129.429,-176.596 151.863,-179.723"/>
<ellipse fill="#401800" stroke="#401800" stroke-width="2" cx="154.004" cy="-179.867" rx="2" ry="2"/>
</g>
<!-- #anon:31:1 -->
<g id="node8" class="node"><title>#anon:31:1</title>
<polygon fill="#e8ea7a" stroke="none" points="157,-402 157,-424 252,-424 252,-402 157,-402"/>
<polygon fill="none" stroke="#616233" points="157,-402 157,-424 252,-424 252,-402 157,-402"/>
<text text-anchor="start" x="160.5" y="-409.3" font-family="Helvetica,sans-Serif" font-size="14.00" fill="#000000">constant/string</text>
<polygon fill="#828344" stroke="none" points="157,-385 157,-402 252,-402 252,-385 157,-385"/>
<polygon fill="none" stroke="#616233" points="157,-385 157,-402 252,-402 252,-385 157,-385"/>
<text text-anchor="start" x="216" y="-391" font-family="Helvetica,sans-Serif" font-size="10.00" fill="#ffffff">OUT ◉</text>
</g>
<!-- format_param -->
<g id="node9" class="node"><title>format_param</title>
<polygon fill="#10d080" stroke="none" points="309,-360 309,-389 402,-389 402,-360 309,-360"/>
<polygon fill="none" stroke="#065736" points="309,-360 309,-389 402,-389 402,-360 309,-360"/>
<text text-anchor="start" x="312.5" y="-375.3" font-family="Helvetica,sans-Serif" font-size="14.00" fill="#000000">format_param</text>
<text text-anchor="start" x="338" y="-366.1" font-family="Helvetica,sans-Serif" font-size="8.00" fill="#000000">UrlParam</text>
<polygon fill="#0c9c60" stroke="none" points="309,-343 309,-360 402,-360 402,-343 309,-343"/>
<polygon fill="none" stroke="#065736" points="309,-343 309,-360 402,-360 402,-343 309,-343"/>
<text text-anchor="start" x="312" y="-349" font-family="Helvetica,sans-Serif" font-size="10.00" fill="#ffffff">◎ KEY</text>
<polygon fill="#0c9c60" stroke="none" points="309,-326 309,-343 402,-343 402,-326 309,-326"/>
<polygon fill="none" stroke="#065736" points="309,-326 309,-343 402,-343 402,-326 309,-326"/>
<text text-anchor="start" x="312" y="-332" font-family="Helvetica,sans-Serif" font-size="10.00" fill="#ffffff">◎ VALUE</text>
<polygon fill="#097548" stroke="none" points="309,-309 309,-326 402,-326 402,-309 309,-309"/>
<polygon fill="none" stroke="#065736" points="309,-309 309,-326 402,-326 402,-309 309,-309"/>
<text text-anchor="start" x="366" y="-315" font-family="Helvetica,sans-Serif" font-size="10.00" fill="#ffffff">OUT ◉</text>
</g>
<!-- #anon:31:1&#45;&gt;format_param -->
<g id="edge3" class="edge"><title>#anon:31:1:OUT_OUT:e&#45;&gt;format_param:IN_KEY:w</title>
<path fill="none" stroke="#af4136" stroke-width="2" d="M253,-393C282.06,-393 277.991,-355.754 303.945,-352.262"/>
<ellipse fill="#af4136" stroke="#af4136" stroke-width="2" cx="306.004" cy="-352.129" rx="2" ry="2"/>
</g>
<!-- format_param&#45;&gt;url -->
<g id="edge5" class="edge"><title>format_param:OUT_OUT:e&#45;&gt;url:IN_PARAM:w</title>
<path fill="none" stroke="#22bd6c" stroke-width="2" d="M403,-317C447.68,-317 414.125,-234.414 453.915,-229.252"/>
<ellipse fill="#22bd6c" stroke="#22bd6c" stroke-width="2" cx="456.004" cy="-229.123" rx="2" ry="2"/>
</g>
<!-- #anon:32:1 -->
<g id="node10" class="node"><title>#anon:32:1</title>
<polygon fill="#e8ea7a" stroke="none" points="157,-337 157,-359 252,-359 252,-337 157,-337"/>
<polygon fill="none" stroke="#616233" points="157,-337 157,-359 252,-359 252,-337 157,-337"/>
<text text-anchor="start" x="160.5" y="-344.3" font-family="Helvetica,sans-Serif" font-size="14.00" fill="#000000">constant/string</text>
<polygon fill="#828344" stroke="none" points="157,-320 157,-337 252,-337 252,-320 157,-320"/>
<polygon fill="none" stroke="#616233" points="157,-320 157,-337 252,-337 252,-320 157,-320"/>
<text text-anchor="start" x="216" y="-326" font-family="Helvetica,sans-Serif" font-size="10.00" fill="#ffffff">OUT ◉</text>
</g>
<!-- #anon:32:1&#45;&gt;format_param -->
<g id="edge4" class="edge"><title>#anon:32:1:OUT_OUT:e&#45;&gt;format_param:IN_VALUE:w</title>
<path fill="none" stroke="#0ff0e8" stroke-width="2" d="M253,-328C276.149,-328 282.664,-333.317 303.863,-333.941"/>
<ellipse fill="#0ff0e8" stroke="#0ff0e8" stroke-width="2" cx="306" cy="-333.971" rx="2" ry="2"/>
</g>
<!-- #anon:34:1 -->
<g id="node11" class="node"><title>#anon:34:1</title>
<polygon fill="#e8ea7a" stroke="none" points="157,-261 157,-283 252,-283 252,-261 157,-261"/>
<polygon fill="none" stroke="#616233" points="157,-261 157,-283 252,-283 252,-261 157,-261"/>
<text text-anchor="start" x="160.5" y="-268.3" font-family="Helvetica,sans-Serif" font-size="14.00" fill="#000000">constant/string</text>
<polygon fill="#828344" stroke="none" points="157,-244 157,-261 252,-261 252,-244 157,-244"/>
<polygon fill="none" stroke="#616233" points="157,-244 157,-261 252,-261 252,-244 157,-244"/>
<text text-anchor="start" x="216" y="-250" font-family="Helvetica,sans-Serif" font-size="10.00" fill="#ffffff">OUT ◉</text>
</g>
<!-- #anon:34:1&#45;&gt;location_param -->
<g id="edge6" class="edge"><title>#anon:34:1:OUT_OUT:e&#45;&gt;location_param:IN_KEY:w</title>
<path fill="none" stroke="#e53b4c" stroke-width="2" d="M253,-252C274.397,-252 280.44,-246.727 299.917,-246.067"/>
<ellipse fill="#e53b4c" stroke="#e53b4c" stroke-width="2" cx="302" cy="-246.033" rx="2" ry="2"/>
</g>
<!-- location_param&#45;&gt;url -->
<g id="edge8" class="edge"><title>location_param:OUT_OUT:e&#45;&gt;url:IN_PARAM:w</title>
<path fill="none" stroke="#f584b2" stroke-width="2" d="M407,-211C429.629,-211 433.548,-226.952 453.984,-228.822"/>
<ellipse fill="#f584b2" stroke="#f584b2" stroke-width="2" cx="456.002" cy="-228.911" rx="2" ry="2"/>
</g>
<!-- location_param&#45;&gt;url -->
<g id="edge9" class="edge"><title>location_param:OUT_OUT:e&#45;&gt;url:IN_CREATE:w</title>
<path fill="none" stroke="#309b32" stroke-width="2" d="M407,-211C428.25,-211 434.559,-211 453.941,-211"/>
<ellipse fill="#309b32" stroke="#309b32" stroke-width="2" cx="456" cy="-211" rx="2" ry="2"/>
</g>
<!-- result -->
<g id="node14" class="node"><title>result</title>
<polygon fill="#dd6abe" stroke="none" points="702,-177 702,-206 780,-206 780,-177 702,-177"/>
<polygon fill="none" stroke="#5c2c4f" points="702,-177 702,-206 780,-206 780,-177 702,-177"/>
<text text-anchor="start" x="724" y="-192.3" font-family="Helvetica,sans-Serif" font-size="14.00" fill="#000000">result</text>
<text text-anchor="start" x="705.5" y="-183.1" font-family="Helvetica,sans-Serif" font-size="8.00" fill="#000000">json/object&#45;get&#45;path</text>
<polygon fill="#a54f8e" stroke="none" points="702,-160 702,-177 780,-177 780,-160 702,-160"/>
<polygon fill="none" stroke="#5c2c4f" points="702,-160 702,-177 780,-177 780,-160 702,-160"/>
<text text-anchor="start" x="705" y="-166" font-family="Helvetica,sans-Serif" font-size="10.00" fill="#ffffff">◎ IN</text>
<polygon fill="#7b3b6a" stroke="none" points="702,-143 702,-160 780,-160 780,-143 702,-143"/>
<polygon fill="none" stroke="#5c2c4f" points="702,-143 702,-160 780,-160 780,-143 702,-143"/>
<text text-anchor="start" x="725" y="-149" font-family="Helvetica,sans-Serif" font-size="10.00" fill="#ffffff">OBJECT ◉</text>
</g>
<!-- get_json&#45;&gt;result -->
<g id="edge12" class="edge"><title>get_json:OUT_OBJECT:e&#45;&gt;result:IN_IN:w</title>
<path fill="none" stroke="#17530b" stroke-width="2" d="M651,-168C671.66,-168 677.914,-168 696.548,-168"/>
<ellipse fill="#17530b" stroke="#17530b" stroke-width="2" cx="699" cy="-168" rx="2" ry="2"/>
</g>
<!-- #anon:46:21 -->
<g id="node15" class="node"><title>#anon:46:21</title>
<polygon fill="#dd6abe" stroke="none" points="832,-245 832,-267 958,-267 958,-245 832,-245"/>
<polygon fill="none" stroke="#5c2c4f" points="832,-245 832,-267 958,-267 958,-245 832,-245"/>
<text text-anchor="start" x="835.5" y="-252.3" font-family="Helvetica,sans-Serif" font-size="14.00" fill="#000000">json/object&#45;get&#45;path</text>
<polygon fill="#a54f8e" stroke="none" points="832,-228 832,-245 958,-245 958,-228 832,-228"/>
<polygon fill="none" stroke="#5c2c4f" points="832,-228 832,-245 958,-245 958,-228 832,-228"/>
<text text-anchor="start" x="835" y="-234" font-family="Helvetica,sans-Serif" font-size="10.00" fill="#ffffff">◎ IN</text>
<polygon fill="#7b3b6a" stroke="none" points="832,-211 832,-228 958,-228 958,-211 832,-211"/>
<polygon fill="none" stroke="#5c2c4f" points="832,-211 832,-228 958,-228 958,-211 832,-211"/>
<text text-anchor="start" x="905" y="-217" font-family="Helvetica,sans-Serif" font-size="10.00" fill="#ffffff">STRING ◉</text>
</g>
<!-- result&#45;&gt;#anon:46:21 -->
<g id="edge13" class="edge"><title>result:OUT_OBJECT:e&#45;&gt;#anon:46:21:IN_IN:w</title>
<path fill="none" stroke="#710df4" stroke-width="2" d="M781,-151C823.288,-151 789.718,-230.128 826.672,-235.692"/>
<ellipse fill="#710df4" stroke="#710df4" stroke-width="2" cx="829.005" cy="-235.858" rx="2" ry="2"/>
</g>
<!-- #anon:47:21 -->
<g id="node17" class="node"><title>#anon:47:21</title>
<polygon fill="#dd6abe" stroke="none" points="832,-160 832,-182 958,-182 958,-160 832,-160"/>
<polygon fill="none" stroke="#5c2c4f" points="832,-160 832,-182 958,-182 958,-160 832,-160"/>
<text text-anchor="start" x="835.5" y="-167.3" font-family="Helvetica,sans-Serif" font-size="14.00" fill="#000000">json/object&#45;get&#45;path</text>
<polygon fill="#a54f8e" stroke="none" points="832,-143 832,-160 958,-160 958,-143 832,-143"/>
<polygon fill="none" stroke="#5c2c4f" points="832,-143 832,-160 958,-160 958,-143 832,-143"/>
<text text-anchor="start" x="835" y="-149" font-family="Helvetica,sans-Serif" font-size="10.00" fill="#ffffff">◎ IN</text>
<polygon fill="#7b3b6a" stroke="none" points="832,-126 832,-143 958,-143 958,-126 832,-126"/>
<polygon fill="none" stroke="#5c2c4f" points="832,-126 832,-143 958,-143 958,-126 832,-126"/>
<text text-anchor="start" x="905" y="-132" font-family="Helvetica,sans-Serif" font-size="10.00" fill="#ffffff">STRING ◉</text>
</g>
<!-- result&#45;&gt;#anon:47:21 -->
<g id="edge16" class="edge"><title>result:OUT_OBJECT:e&#45;&gt;#anon:47:21:IN_IN:w</title>
<path fill="none" stroke="#5809f4" stroke-width="2" d="M781,-151C801.66,-151 807.914,-151 826.548,-151"/>
<ellipse fill="#5809f4" stroke="#5809f4" stroke-width="2" cx="829" cy="-151" rx="2" ry="2"/>
</g>
<!-- #anon:48:21 -->
<g id="node19" class="node"><title>#anon:48:21</title>
<polygon fill="#dd6abe" stroke="none" points="832,-76 832,-98 958,-98 958,-76 832,-76"/>
<polygon fill="none" stroke="#5c2c4f" points="832,-76 832,-98 958,-98 958,-76 832,-76"/>
<text text-anchor="start" x="835.5" y="-83.3" font-family="Helvetica,sans-Serif" font-size="14.00" fill="#000000">json/object&#45;get&#45;path</text>
<polygon fill="#a54f8e" stroke="none" points="832,-59 832,-76 958,-76 958,-59 832,-59"/>
<polygon fill="none" stroke="#5c2c4f" points="832,-59 832,-76 958,-76 958,-59 832,-59"/>
<text text-anchor="start" x="835" y="-65" font-family="Helvetica,sans-Serif" font-size="10.00" fill="#ffffff">◎ IN</text>
<polygon fill="#7b3b6a" stroke="none" points="832,-42 832,-59 958,-59 958,-42 832,-42"/>
<polygon fill="none" stroke="#5c2c4f" points="832,-42 832,-59 958,-59 958,-42 832,-42"/>
<text text-anchor="start" x="905" y="-48" font-family="Helvetica,sans-Serif" font-size="10.00" fill="#ffffff">STRING ◉</text>
</g>
<!-- result&#45;&gt;#anon:48:21 -->
<g id="edge19" class="edge"><title>result:OUT_OBJECT:e&#45;&gt;#anon:48:21:IN_IN:w</title>
<path fill="none" stroke="#c575e8" stroke-width="2" d="M781,-151C822.919,-151 790.048,-72.8024 826.709,-67.3042"/>
<ellipse fill="#c575e8" stroke="#c575e8" stroke-width="2" cx="829.005" cy="-67.1414" rx="2" ry="2"/>
</g>
<!-- #anon:46:82 -->
<g id="node16" class="node"><title>#anon:46:82</title>
<polygon fill="#bd648a" stroke="none" points="1010,-228 1010,-250 1156,-250 1156,-228 1010,-228"/>
<polygon fill="none" stroke="#4e2a39" points="1010,-228 1010,-250 1156,-250 1156,-228 1010,-228"/>
<text text-anchor="start" x="1013.5" y="-235.3" font-family="Helvetica,sans-Serif" font-size="14.00" fill="#000000">converter/string&#45;to&#45;float</text>
<polygon fill="#8d4b67" stroke="none" points="1010,-211 1010,-228 1156,-228 1156,-211 1010,-211"/>
<polygon fill="none" stroke="#4e2a39" points="1010,-211 1010,-228 1156,-228 1156,-211 1010,-211"/>
<text text-anchor="start" x="1013" y="-217" font-family="Helvetica,sans-Serif" font-size="10.00" fill="#ffffff">◎ IN</text>
<polygon fill="#69384d" stroke="none" points="1010,-194 1010,-211 1156,-211 1156,-194 1010,-194"/>
<polygon fill="none" stroke="#4e2a39" points="1010,-194 1010,-211 1156,-211 1156,-194 1010,-194"/>
<text text-anchor="start" x="1120" y="-200" font-family="Helvetica,sans-Serif" font-size="10.00" fill="#ffffff">OUT ◉</text>
</g>
<!-- #anon:46:21&#45;&gt;#anon:46:82 -->
<g id="edge14" class="edge"><title>#anon:46:21:OUT_STRING:e&#45;&gt;#anon:46:82:IN_IN:w</title>
<path fill="none" stroke="#d088fe" stroke-width="2" d="M959,-219C979.66,-219 985.914,-219 1004.55,-219"/>
<ellipse fill="#d088fe" stroke="#d088fe" stroke-width="2" cx="1007" cy="-219" rx="2" ry="2"/>
</g>
<!-- #anon:46:82&#45;&gt;temp_avg -->
<g id="edge15" class="edge"><title>#anon:46:82:OUT_OUT:e&#45;&gt;temp_avg:IN_FAHRENHEIT:w</title>
<path fill="none" stroke="#1340da" stroke-width="2" d="M1157,-202C1177.73,-202 1183.86,-205.457 1202.54,-205.943"/>
<ellipse fill="#1340da" stroke="#1340da" stroke-width="2" cx="1205" cy="-205.975" rx="2" ry="2"/>
</g>
<!-- #anon:47:83 -->
<g id="node18" class="node"><title>#anon:47:83</title>
<polygon fill="#bd648a" stroke="none" points="1010,-143 1010,-165 1156,-165 1156,-143 1010,-143"/>
<polygon fill="none" stroke="#4e2a39" points="1010,-143 1010,-165 1156,-165 1156,-143 1010,-143"/>
<text text-anchor="start" x="1013.5" y="-150.3" font-family="Helvetica,sans-Serif" font-size="14.00" fill="#000000">converter/string&#45;to&#45;float</text>
<polygon fill="#8d4b67" stroke="none" points="1010,-126 1010,-143 1156,-143 1156,-126 1010,-126"/>
<polygon fill="none" stroke="#4e2a39" points="1010,-126 1010,-143 1156,-143 1156,-126 1010,-126"/>
<text text-anchor="start" x="1013" y="-132" font-family="Helvetica,sans-Serif" font-size="10.00" fill="#ffffff">◎ IN</text>
<polygon fill="#69384d" stroke="none" points="1010,-109 1010,-126 1156,-126 1156,-109 1010,-109"/>
<polygon fill="none" stroke="#4e2a39" points="1010,-109 1010,-126 1156,-126 1156,-109 1010,-109"/>
<text text-anchor="start" x="1120" y="-115" font-family="Helvetica,sans-Serif" font-size="10.00" fill="#ffffff">OUT ◉</text>
</g>
<!-- #anon:47:21&#45;&gt;#anon:47:83 -->
<g id="edge17" class="edge"><title>#anon:47:21:OUT_STRING:e&#45;&gt;#anon:47:83:IN_IN:w</title>
<path fill="none" stroke="#fea106" stroke-width="2" d="M959,-134C979.66,-134 985.914,-134 1004.55,-134"/>
<ellipse fill="#fea106" stroke="#fea106" stroke-width="2" cx="1007" cy="-134" rx="2" ry="2"/>
</g>
<!-- #anon:47:83&#45;&gt;temp_low -->
<g id="edge18" class="edge"><title>#anon:47:83:OUT_OUT:e&#45;&gt;temp_low:IN_FAHRENHEIT:w</title>
<path fill="none" stroke="#c7af30" stroke-width="2" d="M1157,-117C1177.66,-117 1183.91,-117 1202.55,-117"/>
<ellipse fill="#c7af30" stroke="#c7af30" stroke-width="2" cx="1205" cy="-117" rx="2" ry="2"/>
</g>
<!-- #anon:48:84 -->
<g id="node20" class="node"><title>#anon:48:84</title>
<polygon fill="#bd648a" stroke="none" points="1010,-56 1010,-78 1156,-78 1156,-56 1010,-56"/>
<polygon fill="none" stroke="#4e2a39" points="1010,-56 1010,-78 1156,-78 1156,-56 1010,-56"/>
<text text-anchor="start" x="1013.5" y="-63.3" font-family="Helvetica,sans-Serif" font-size="14.00" fill="#000000">converter/string&#45;to&#45;float</text>
<polygon fill="#8d4b67" stroke="none" points="1010,-39 1010,-56 1156,-56 1156,-39 1010,-39"/>
<polygon fill="none" stroke="#4e2a39" points="1010,-39 1010,-56 1156,-56 1156,-39 1010,-39"/>
<text text-anchor="start" x="1013" y="-45" font-family="Helvetica,sans-Serif" font-size="10.00" fill="#ffffff">◎ IN</text>
<polygon fill="#69384d" stroke="none" points="1010,-22 1010,-39 1156,-39 1156,-22 1010,-22"/>
<polygon fill="none" stroke="#4e2a39" points="1010,-22 1010,-39 1156,-39 1156,-22 1010,-22"/>
<text text-anchor="start" x="1120" y="-28" font-family="Helvetica,sans-Serif" font-size="10.00" fill="#ffffff">OUT ◉</text>
</g>
<!-- #anon:48:21&#45;&gt;#anon:48:84 -->
<g id="edge20" class="edge"><title>#anon:48:21:OUT_STRING:e&#45;&gt;#anon:48:84:IN_IN:w</title>
<path fill="none" stroke="#5c562b" stroke-width="2" d="M959,-50C979.697,-50 985.885,-47.407 1004.54,-47.0424"/>
<ellipse fill="#5c562b" stroke="#5c562b" stroke-width="2" cx="1007" cy="-47.0191" rx="2" ry="2"/>
</g>
<!-- #anon:48:84&#45;&gt;temp_high -->
<g id="edge21" class="edge"><title>#anon:48:84:OUT_OUT:e&#45;&gt;temp_high:IN_FAHRENHEIT:w</title>
<path fill="none" stroke="#133faa" stroke-width="2" d="M1157,-30C1177.68,-30 1183.9,-28.2714 1202.55,-28.0283"/>
<ellipse fill="#133faa" stroke="#133faa" stroke-width="2" cx="1205" cy="-28.0127" rx="2" ry="2"/>
</g>
</g>
</svg>
