<?xml version="1.0" encoding="UTF-8" standalone="no"?>
<!DOCTYPE svg PUBLIC "-//W3C//DTD SVG 1.1//EN"
 "http://www.w3.org/Graphics/SVG/1.1/DTD/svg11.dtd">
<!-- Generated by graphviz version 2.36.0 (20140111.2315)
 -->
<!-- Title: fbp Pages: 1 -->
<svg width="424pt" height="178pt"
 viewBox="0.00 0.00 424.00 177.72" xmlns="http://www.w3.org/2000/svg" xmlns:xlink="http://www.w3.org/1999/xlink">
<g id="graph0" class="graph" transform="scale(1 1) rotate(0) translate(4 173.717)">
<title>fbp</title>
<polygon fill="white" stroke="none" points="-4,4 -4,-173.717 420,-173.717 420,4 -4,4"/>
<!-- one -->
<g id="node1" class="node"><title>one</title>
<polygon fill="#e8ea7a" stroke="none" points="8,-136.717 8,-165.717 56,-165.717 56,-136.717 8,-136.717"/>
<polygon fill="none" stroke="#616233" points="8,-136.717 8,-165.717 56,-165.717 56,-136.717 8,-136.717"/>
<text text-anchor="start" x="20.5" y="-152.017" font-family="Helvetica,sans-Serif" font-size="14.00" fill="#000000">one</text>
<text text-anchor="start" x="11.5" y="-142.817" font-family="Helvetica,sans-Serif" font-size="8.00" fill="#000000">constant/int</text>
<polygon fill="#828344" stroke="none" points="8,-119.717 8,-136.717 56,-136.717 56,-119.717 8,-119.717"/>
<polygon fill="none" stroke="#616233" points="8,-119.717 8,-136.717 56,-136.717 56,-119.717 8,-119.717"/>
<text text-anchor="start" x="20" y="-125.717" font-family="Helvetica,sans-Serif" font-size="10.00" fill="#ffffff">OUT ◉</text>
</g>
<!-- sum1 -->
<g id="node3" class="node"><title>sum1</title>
<polygon fill="#254878" stroke="none" points="109,-79.7174 109,-108.717 178,-108.717 178,-79.7174 109,-79.7174"/>
<polygon fill="none" stroke="#0f1e32" points="109,-79.7174 109,-108.717 178,-108.717 178,-79.7174 109,-79.7174"/>
<text text-anchor="start" x="126.5" y="-95.0174" font-family="Helvetica,sans-Serif" font-size="14.00" fill="#ffffff">sum1</text>
<text text-anchor="start" x="124" y="-85.8174" font-family="Helvetica,sans-Serif" font-size="8.00" fill="#ffffff">int/addition</text>
<polygon fill="#1b365a" stroke="none" points="109,-62.7174 109,-79.7174 178,-79.7174 178,-62.7174 109,-62.7174"/>
<polygon fill="none" stroke="#0f1e32" points="109,-62.7174 109,-79.7174 178,-79.7174 178,-62.7174 109,-62.7174"/>
<text text-anchor="start" x="112" y="-68.7174" font-family="Helvetica,sans-Serif" font-size="10.00" fill="#ffffff">◎ OPERAND</text>
<polygon fill="#142843" stroke="none" points="109,-45.7174 109,-62.7174 178,-62.7174 178,-45.7174 109,-45.7174"/>
<polygon fill="none" stroke="#0f1e32" points="109,-45.7174 109,-62.7174 178,-62.7174 178,-45.7174 109,-45.7174"/>
<text text-anchor="start" x="142" y="-51.7174" font-family="Helvetica,sans-Serif" font-size="10.00" fill="#ffffff">OUT ◉</text>
</g>
<!-- one&#45;&gt;sum1 -->
<g id="edge2" class="edge"><title>one:OUT:e&#45;&gt;sum1:OPERAND:w</title>
<path fill="none" stroke="#e05842" stroke-width="2" d="M57,-127.717C89.5328,-127.717 75.3722,-75.5106 103.892,-71.0241"/>
<ellipse fill="#e05842" stroke="#e05842" stroke-width="2" cx="106.006" cy="-70.8664" rx="2" ry="2"/>
</g>
<!-- fib -->
<g id="node5" class="node"><title>fib</title>
<polygon fill="#471ca4" stroke="none" points="363,-121.717 363,-150.717 398,-150.717 398,-121.717 363,-121.717"/>
<polygon fill="none" stroke="#1d0b45" points="363,-121.717 363,-150.717 398,-150.717 398,-121.717 363,-121.717"/>
<text text-anchor="start" x="373" y="-137.017" font-family="Helvetica,sans-Serif" font-size="14.00" fill="#ffffff">fib</text>
<text text-anchor="start" x="366.5" y="-127.817" font-family="Helvetica,sans-Serif" font-size="8.00" fill="#ffffff">console</text>
<polygon fill="#35157b" stroke="none" points="363,-104.717 363,-121.717 398,-121.717 398,-104.717 363,-104.717"/>
<polygon fill="none" stroke="#1d0b45" points="363,-104.717 363,-121.717 398,-121.717 398,-104.717 363,-104.717"/>
<text text-anchor="start" x="366" y="-110.717" font-family="Helvetica,sans-Serif" font-size="10.00" fill="#ffffff">◎ IN</text>
</g>
<!-- one&#45;&gt;fib -->
<g id="edge7" class="edge"><title>one:OUT:e&#45;&gt;fib:IN:w</title>
<path fill="none" stroke="#18747d" stroke-width="2" d="M57,-127.717C168.599,-127.717 196.828,-130.468 308,-120.717 330.753,-118.722 337.022,-113.394 357.92,-112.776"/>
<ellipse fill="#18747d" stroke="#18747d" stroke-width="2" cx="360" cy="-112.746" rx="2" ry="2"/>
</g>
<!-- zero -->
<g id="node2" class="node"><title>zero</title>
<polygon fill="#e8ea7a" stroke="none" points="8,-50.7174 8,-79.7174 56,-79.7174 56,-50.7174 8,-50.7174"/>
<polygon fill="none" stroke="#616233" points="8,-50.7174 8,-79.7174 56,-79.7174 56,-50.7174 8,-50.7174"/>
<text text-anchor="start" x="18.5" y="-66.0174" font-family="Helvetica,sans-Serif" font-size="14.00" fill="#000000">zero</text>
<text text-anchor="start" x="11.5" y="-56.8174" font-family="Helvetica,sans-Serif" font-size="8.00" fill="#000000">constant/int</text>
<polygon fill="#828344" stroke="none" points="8,-33.7174 8,-50.7174 56,-50.7174 56,-33.7174 8,-33.7174"/>
<polygon fill="none" stroke="#616233" points="8,-33.7174 8,-50.7174 56,-50.7174 56,-33.7174 8,-33.7174"/>
<text text-anchor="start" x="20" y="-39.7174" font-family="Helvetica,sans-Serif" font-size="10.00" fill="#ffffff">OUT ◉</text>
</g>
<!-- zero&#45;&gt;sum1 -->
<g id="edge1" class="edge"><title>zero:OUT:e&#45;&gt;sum1:OPERAND:w</title>
<path fill="none" stroke="#ad4f08" stroke-width="2" d="M57,-41.7174C81.6489,-41.7174 81.9694,-67.6323 103.957,-70.4667"/>
<ellipse fill="#ad4f08" stroke="#ad4f08" stroke-width="2" cx="106.004" cy="-70.5936" rx="2" ry="2"/>
</g>
<!-- sum2 -->
<g id="node4" class="node"><title>sum2</title>
<polygon fill="#254878" stroke="none" points="231,-61.7174 231,-90.7174 300,-90.7174 300,-61.7174 231,-61.7174"/>
<polygon fill="none" stroke="#0f1e32" points="231,-61.7174 231,-90.7174 300,-90.7174 300,-61.7174 231,-61.7174"/>
<text text-anchor="start" x="248.5" y="-77.0174" font-family="Helvetica,sans-Serif" font-size="14.00" fill="#ffffff">sum2</text>
<text text-anchor="start" x="246" y="-67.8174" font-family="Helvetica,sans-Serif" font-size="8.00" fill="#ffffff">int/addition</text>
<polygon fill="#1b365a" stroke="none" points="231,-44.7174 231,-61.7174 300,-61.7174 300,-44.7174 231,-44.7174"/>
<polygon fill="none" stroke="#0f1e32" points="231,-44.7174 231,-61.7174 300,-61.7174 300,-44.7174 231,-44.7174"/>
<text text-anchor="start" x="234" y="-50.7174" font-family="Helvetica,sans-Serif" font-size="10.00" fill="#ffffff">◎ OPERAND</text>
<polygon fill="#142843" stroke="none" points="231,-27.7174 231,-44.7174 300,-44.7174 300,-27.7174 231,-27.7174"/>
<polygon fill="none" stroke="#0f1e32" points="231,-27.7174 231,-44.7174 300,-44.7174 300,-27.7174 231,-27.7174"/>
<text text-anchor="start" x="264" y="-33.7174" font-family="Helvetica,sans-Serif" font-size="10.00" fill="#ffffff">OUT ◉</text>
<polygon fill="#142843" stroke="none" points="231,-10.7174 231,-27.7174 300,-27.7174 300,-10.7174 231,-10.7174"/>
<polygon fill="none" stroke="#0f1e32" points="231,-10.7174 231,-27.7174 300,-27.7174 300,-10.7174 231,-10.7174"/>
<text text-anchor="start" x="248" y="-16.7174" font-family="Helvetica,sans-Serif" font-size="10.00" fill="#ffffff">ERROR ◉</text>
</g>
<!-- zero&#45;&gt;sum2 -->
<g id="edge4" class="edge"><title>zero:OUT:e&#45;&gt;sum2:OPERAND:w</title>
<path fill="none" stroke="#4654a3" stroke-width="2" d="M57,-41.7174C76.5252,-41.7174 80.5786,-34.7281 100,-32.7174 138.019,-28.7813 148.721,-24.2774 186,-32.7174 205.648,-37.1658 208.064,-51.4937 225.719,-53.4865"/>
<ellipse fill="#4654a3" stroke="#4654a3" stroke-width="2" cx="228.003" cy="-53.6097" rx="2" ry="2"/>
</g>
<!-- sum1&#45;&gt;sum2 -->
<g id="edge3" class="edge"><title>sum1:OUT:e&#45;&gt;sum2:OPERAND:w</title>
<path fill="none" stroke="#f75450" stroke-width="2" d="M179,-53.7174C200.25,-53.7174 206.559,-53.7174 225.941,-53.7174"/>
<ellipse fill="#f75450" stroke="#f75450" stroke-width="2" cx="228" cy="-53.7175" rx="2" ry="2"/>
</g>
<!-- sum2&#45;&gt;sum1 -->
<g id="edge5" class="edge"><title>sum2:OUT:e&#45;&gt;sum1:OPERAND:w</title>
<path fill="none" stroke="#5158b1" stroke-width="2" d="M301,-35.7174C331.245,-35.7174 317.064,17.9162 222,-6.71742 204.282,-11.3086 203.176,-20.3919 186,-26.7174 153.242,-38.7816 131.585,-15.5992 109,-42.2174 101.825,-50.6738 96.7367,-66.1518 104.068,-69.8892"/>
<ellipse fill="#5158b1" stroke="#5158b1" stroke-width="2" cx="106.043" cy="-70.3052" rx="2.00001" ry="2.00001"/>
</g>
<!-- sum2&#45;&gt;sum2 -->
<g id="edge6" class="edge"><title>sum2:OUT:e&#45;&gt;sum2:OPERAND:w</title>
<path fill="none" stroke="#ba431a" stroke-width="2" d="M300,-35.7174C328.5,-56.0507 328.5,-111.717 265.5,-111.717 204.961,-111.717 202.596,-76.936 227.793,-56.1763"/>
<ellipse fill="#ba431a" stroke="#ba431a" stroke-width="2" cx="229.413" cy="-54.9343" rx="2.00002" ry="2.00002"/>
</g>
<!-- sum2&#45;&gt;fib -->
<g id="edge8" class="edge"><title>sum2:OUT:e&#45;&gt;fib:IN:w</title>
<path fill="none" stroke="#76386a" stroke-width="2" d="M301,-35.7174C343.125,-35.7174 320.104,-107.399 357.649,-112.439"/>
<ellipse fill="#76386a" stroke="#76386a" stroke-width="2" cx="360.004" cy="-112.589" rx="2" ry="2"/>
</g>
<!-- #anon:110:20 -->
<g id="node6" class="node"><title>#anon:110:20</title>
<polygon fill="#4e2e10" stroke="none" points="352,-27.7174 352,-49.7174 408,-49.7174 408,-27.7174 352,-27.7174"/>
<polygon fill="none" stroke="#201206" points="352,-27.7174 352,-49.7174 408,-49.7174 408,-27.7174 352,-27.7174"/>
<text text-anchor="start" x="355.5" y="-35.0174" font-family="Helvetica,sans-Serif" font-size="14.00" fill="#ffffff">app/quit</text>
<polygon fill="#3a220c" stroke="none" points="352,-10.7174 352,-27.7174 408,-27.7174 408,-10.7174 352,-10.7174"/>
<polygon fill="none" stroke="#201206" points="352,-10.7174 352,-27.7174 408,-27.7174 408,-10.7174 352,-10.7174"/>
<text text-anchor="start" x="355" y="-16.7174" font-family="Helvetica,sans-Serif" font-size="10.00" fill="#ffffff">◎ QUIT</text>
</g>
<!-- sum2&#45;&gt;#anon:110:20 -->
<g id="edge9" class="edge"><title>sum2:ERROR:e&#45;&gt;#anon:110:20:QUIT:w</title>
<path fill="none" stroke="#2e8108" stroke-width="2" d="M301,-18.7174C321.66,-18.7174 327.914,-18.7174 346.548,-18.7174"/>
<ellipse fill="#2e8108" stroke="#2e8108" stroke-width="2" cx="349" cy="-18.7175" rx="2" ry="2"/>
</g>
</g>
</svg>
