<?xml version="1.0" encoding="UTF-8" standalone="no"?>
<!DOCTYPE svg PUBLIC "-//W3C//DTD SVG 1.1//EN"
 "http://www.w3.org/Graphics/SVG/1.1/DTD/svg11.dtd">
<!-- Generated by graphviz version 2.36.0 (20140111.2315)
 -->
<!-- Title: fbp Pages: 1 -->
<svg width="482pt" height="152pt"
 viewBox="0.00 0.00 482.00 152.00" xmlns="http://www.w3.org/2000/svg" xmlns:xlink="http://www.w3.org/1999/xlink">
<g id="graph0" class="graph" transform="scale(1 1) rotate(0) translate(4 148)">
<title>fbp</title>
<polygon fill="white" stroke="none" points="-4,4 -4,-148 478,-148 478,4 -4,4"/>
<!-- timer -->
<g id="node1" class="node"><title>timer</title>
<polygon fill="#7f2fae" stroke="none" points="8,-91 8,-120 72,-120 72,-91 8,-91"/>
<polygon fill="none" stroke="#351348" points="8,-91 8,-120 72,-120 72,-91 8,-91"/>
<text text-anchor="start" x="11.5" y="-106.3" font-family="Helvetica,sans-Serif" font-size="14.00" fill="#ffffff">🕐 Timer</text>
<text text-anchor="start" x="30.5" y="-97.1" font-family="Helvetica,sans-Serif" font-size="8.00" fill="#ffffff">timer</text>
<polygon fill="#471a61" stroke="none" points="8,-74 8,-91 72,-91 72,-74 8,-74"/>
<polygon fill="none" stroke="#351348" points="8,-74 8,-91 72,-91 72,-74 8,-74"/>
<text text-anchor="start" x="36" y="-80" font-family="Helvetica,sans-Serif" font-size="10.00" fill="#ffffff">OUT ◉</text>
</g>
<!-- toggle -->
<g id="node2" class="node"><title>toggle</title>
<polygon fill="#184294" stroke="none" points="124,-91 124,-120 184,-120 184,-91 124,-91"/>
<polygon fill="none" stroke="#091b3e" points="124,-91 124,-120 184,-120 184,-91 124,-91"/>
<text text-anchor="start" x="135.5" y="-106.3" font-family="Helvetica,sans-Serif" font-size="14.00" fill="#ffffff">toggle</text>
<text text-anchor="start" x="127.5" y="-97.1" font-family="Helvetica,sans-Serif" font-size="8.00" fill="#ffffff">boolean/toggle</text>
<polygon fill="#12316f" stroke="none" points="124,-74 124,-91 184,-91 184,-74 124,-74"/>
<polygon fill="none" stroke="#091b3e" points="124,-74 124,-91 184,-91 184,-74 124,-74"/>
<text text-anchor="start" x="127" y="-80" font-family="Helvetica,sans-Serif" font-size="10.00" fill="#ffffff">◎ IN</text>
<polygon fill="#0d2453" stroke="none" points="124,-57 124,-74 184,-74 184,-57 124,-57"/>
<polygon fill="none" stroke="#091b3e" points="124,-57 124,-74 184,-74 184,-57 124,-57"/>
<text text-anchor="start" x="148" y="-63" font-family="Helvetica,sans-Serif" font-size="10.00" fill="#ffffff">OUT ◉</text>
</g>
<!-- timer&#45;&gt;toggle -->
<g id="edge1" class="edge"><title>timer:OUT:e&#45;&gt;toggle:IN:w</title>
<path fill="none" stroke="#014fd9" stroke-width="2" d="M73,-82C93.6597,-82 99.9141,-82 118.548,-82"/>
<ellipse fill="#014fd9" stroke="#014fd9" stroke-width="2" cx="121" cy="-82" rx="2" ry="2"/>
</g>
<!-- console_toggle -->
<g id="node3" class="node"><title>console_toggle</title>
<polygon fill="#471ca4" stroke="none" points="236,-111 236,-140 334,-140 334,-111 236,-111"/>
<polygon fill="none" stroke="#1d0b45" points="236,-111 236,-140 334,-140 334,-111 236,-111"/>
<text text-anchor="start" x="239.5" y="-126.3" font-family="Helvetica,sans-Serif" font-size="14.00" fill="#ffffff">console_toggle</text>
<text text-anchor="start" x="271" y="-117.1" font-family="Helvetica,sans-Serif" font-size="8.00" fill="#ffffff">console</text>
<polygon fill="#35157b" stroke="none" points="236,-94 236,-111 334,-111 334,-94 236,-94"/>
<polygon fill="none" stroke="#1d0b45" points="236,-94 236,-111 334,-111 334,-94 236,-94"/>
<text text-anchor="start" x="239" y="-100" font-family="Helvetica,sans-Serif" font-size="10.00" fill="#ffffff">◎ IN</text>
</g>
<!-- toggle&#45;&gt;console_toggle -->
<g id="edge2" class="edge"><title>toggle:OUT:e&#45;&gt;console_toggle:IN:w</title>
<path fill="none" stroke="#d3000c" stroke-width="2" d="M185,-65C211.133,-65 207.835,-98.0638 230.749,-101.68"/>
<ellipse fill="#d3000c" stroke="#d3000c" stroke-width="2" cx="233.006" cy="-101.85" rx="2" ry="2"/>
</g>
<!-- not -->
<g id="node4" class="node"><title>not</title>
<polygon fill="#184294" stroke="none" points="260,-38 260,-67 310,-67 310,-38 260,-38"/>
<polygon fill="none" stroke="#091b3e" points="260,-38 260,-67 310,-67 310,-38 260,-38"/>
<text text-anchor="start" x="268" y="-53.3" font-family="Helvetica,sans-Serif" font-size="14.00" fill="#ffffff">¬ Not</text>
<text text-anchor="start" x="263.5" y="-44.1" font-family="Helvetica,sans-Serif" font-size="8.00" fill="#ffffff">boolean/not</text>
<polygon fill="#12316f" stroke="none" points="260,-21 260,-38 310,-38 310,-21 260,-21"/>
<polygon fill="none" stroke="#091b3e" points="260,-21 260,-38 310,-38 310,-21 260,-21"/>
<text text-anchor="start" x="263" y="-27" font-family="Helvetica,sans-Serif" font-size="10.00" fill="#ffffff">◎ IN</text>
<polygon fill="#0d2453" stroke="none" points="260,-4 260,-21 310,-21 310,-4 260,-4"/>
<polygon fill="none" stroke="#091b3e" points="260,-4 260,-21 310,-21 310,-4 260,-4"/>
<text text-anchor="start" x="274" y="-10" font-family="Helvetica,sans-Serif" font-size="10.00" fill="#ffffff">OUT ◉</text>
</g>
<!-- toggle&#45;&gt;not -->
<g id="edge3" class="edge"><title>toggle:OUT:e&#45;&gt;not:IN:w</title>
<path fill="none" stroke="#d4a8be" stroke-width="2" d="M185,-65C220.146,-65 222.305,-31.7576 254.873,-29.1605"/>
<ellipse fill="#d4a8be" stroke="#d4a8be" stroke-width="2" cx="257.002" cy="-29.0778" rx="2" ry="2"/>
</g>
<!-- console_not -->
<g id="node5" class="node"><title>console_not</title>
<polygon fill="#471ca4" stroke="none" points="386,-21 386,-50 466,-50 466,-21 386,-21"/>
<polygon fill="none" stroke="#1d0b45" points="386,-21 386,-50 466,-50 466,-21 386,-21"/>
<text text-anchor="start" x="389.5" y="-36.3" font-family="Helvetica,sans-Serif" font-size="14.00" fill="#ffffff">console_not</text>
<text text-anchor="start" x="412" y="-27.1" font-family="Helvetica,sans-Serif" font-size="8.00" fill="#ffffff">console</text>
<polygon fill="#35157b" stroke="none" points="386,-4 386,-21 466,-21 466,-4 386,-4"/>
<polygon fill="none" stroke="#1d0b45" points="386,-4 386,-21 466,-21 466,-4 386,-4"/>
<text text-anchor="start" x="389" y="-10" font-family="Helvetica,sans-Serif" font-size="10.00" fill="#ffffff">◎ IN</text>
</g>
<!-- not&#45;&gt;console_not -->
<g id="edge4" class="edge"><title>not:OUT:e&#45;&gt;console_not:IN:w</title>
<path fill="none" stroke="#7ec460" stroke-width="2" d="M311,-12C342.476,-12 351.359,-12 380.893,-12"/>
<ellipse fill="#7ec460" stroke="#7ec460" stroke-width="2" cx="383" cy="-12" rx="2" ry="2"/>
</g>
</g>
</svg>
