<?xml version="1.0" encoding="UTF-8" standalone="no"?>
<!DOCTYPE svg PUBLIC "-//W3C//DTD SVG 1.1//EN"
 "http://www.w3.org/Graphics/SVG/1.1/DTD/svg11.dtd">
<!-- Generated by graphviz version 2.36.0 (20140111.2315)
 -->
<!-- Title: fbp Pages: 1 -->
<svg width="782pt" height="483pt"
 viewBox="0.00 0.00 782.00 483.00" xmlns="http://www.w3.org/2000/svg" xmlns:xlink="http://www.w3.org/1999/xlink">
<g id="graph0" class="graph" transform="scale(1 1) rotate(0) translate(4 479)">
<title>fbp</title>
<polygon fill="white" stroke="none" points="-4,4 -4,-479 778,-479 778,4 -4,4"/>
<!-- power_value -->
<g id="node1" class="node"><title>power_value</title>
<polygon fill="#254878" stroke="none" points="412,-100 412,-129 496,-129 496,-100 412,-100"/>
<polygon fill="none" stroke="#0f1e32" points="412,-100 412,-129 496,-129 496,-100 412,-100"/>
<text text-anchor="start" x="415.5" y="-115.3" font-family="Helvetica,sans-Serif" font-size="14.00" fill="#ffffff">power_value</text>
<text text-anchor="start" x="426.5" y="-106.1" font-family="Helvetica,sans-Serif" font-size="8.00" fill="#ffffff">int/accumulator</text>
<polygon fill="#1b365a" stroke="none" points="412,-83 412,-100 496,-100 496,-83 412,-83"/>
<polygon fill="none" stroke="#0f1e32" points="412,-83 412,-100 496,-100 496,-83 412,-83"/>
<text text-anchor="start" x="415" y="-89" font-family="Helvetica,sans-Serif" font-size="10.00" fill="#ffffff">◎ SET</text>
<polygon fill="#1b365a" stroke="none" points="412,-66 412,-83 496,-83 496,-66 412,-66"/>
<polygon fill="none" stroke="#0f1e32" points="412,-66 412,-83 496,-83 496,-66 412,-66"/>
<text text-anchor="start" x="415" y="-72" font-family="Helvetica,sans-Serif" font-size="10.00" fill="#ffffff">◎ INC</text>
<polygon fill="#1b365a" stroke="none" points="412,-49 412,-66 496,-66 496,-49 412,-49"/>
<polygon fill="none" stroke="#0f1e32" points="412,-49 412,-66 496,-66 496,-49 412,-49"/>
<text text-anchor="start" x="415" y="-55" font-family="Helvetica,sans-Serif" font-size="10.00" fill="#ffffff">◎ DEC</text>
<polygon fill="#142843" stroke="none" points="412,-32 412,-49 496,-49 496,-32 412,-32"/>
<polygon fill="none" stroke="#0f1e32" points="412,-32 412,-49 496,-49 496,-32 412,-32"/>
<text text-anchor="start" x="460" y="-38" font-family="Helvetica,sans-Serif" font-size="10.00" fill="#ffffff">OUT ◉</text>
</g>
<!-- #anon:61:23 -->
<g id="node12" class="node"><title>#anon:61:23</title>
<polygon fill="#471ca4" stroke="none" points="586,-49 586,-71 640,-71 640,-49 586,-49"/>
<polygon fill="none" stroke="#1d0b45" points="586,-49 586,-71 640,-71 640,-49 586,-49"/>
<text text-anchor="start" x="589.5" y="-56.3" font-family="Helvetica,sans-Serif" font-size="14.00" fill="#ffffff">console</text>
<polygon fill="#35157b" stroke="none" points="586,-32 586,-49 640,-49 640,-32 586,-32"/>
<polygon fill="none" stroke="#1d0b45" points="586,-32 586,-49 640,-49 640,-32 586,-32"/>
<text text-anchor="start" x="589" y="-38" font-family="Helvetica,sans-Serif" font-size="10.00" fill="#ffffff">◎ IN</text>
</g>
<!-- power_value&#45;&gt;#anon:61:23 -->
<g id="edge7" class="edge"><title>power_value:OUT_OUT:e&#45;&gt;#anon:61:23:IN_IN:w</title>
<path fill="none" stroke="#2f2358" stroke-width="2" d="M497,-40C534.736,-40 545.165,-40 580.981,-40"/>
<ellipse fill="#2f2358" stroke="#2f2358" stroke-width="2" cx="583" cy="-40" rx="2" ry="2"/>
</g>
<!-- state_value -->
<g id="node2" class="node"><title>state_value</title>
<polygon fill="#bd648a" stroke="none" points="567,-199 567,-228 660,-228 660,-199 567,-199"/>
<polygon fill="none" stroke="#4e2a39" points="567,-199 567,-228 660,-228 660,-199 567,-199"/>
<text text-anchor="start" x="578.5" y="-214.3" font-family="Helvetica,sans-Serif" font-size="14.00" fill="#000000">state_value</text>
<text text-anchor="start" x="570.5" y="-205.1" font-family="Helvetica,sans-Serif" font-size="8.00" fill="#000000">converter/int&#45;to&#45;boolean</text>
<polygon fill="#8d4b67" stroke="none" points="567,-182 567,-199 660,-199 660,-182 567,-182"/>
<polygon fill="none" stroke="#4e2a39" points="567,-182 567,-199 660,-199 660,-182 567,-182"/>
<text text-anchor="start" x="570" y="-188" font-family="Helvetica,sans-Serif" font-size="10.00" fill="#ffffff">◎ IN</text>
<polygon fill="#69384d" stroke="none" points="567,-165 567,-182 660,-182 660,-165 567,-165"/>
<polygon fill="none" stroke="#4e2a39" points="567,-165 567,-182 660,-182 660,-165 567,-165"/>
<text text-anchor="start" x="624" y="-171" font-family="Helvetica,sans-Serif" font-size="10.00" fill="#ffffff">OUT ◉</text>
</g>
<!-- #anon:79:23 -->
<g id="node16" class="node"><title>#anon:79:23</title>
<polygon fill="#471ca4" stroke="none" points="712,-182 712,-204 766,-204 766,-182 712,-182"/>
<polygon fill="none" stroke="#1d0b45" points="712,-182 712,-204 766,-204 766,-182 712,-182"/>
<text text-anchor="start" x="715.5" y="-189.3" font-family="Helvetica,sans-Serif" font-size="14.00" fill="#ffffff">console</text>
<polygon fill="#35157b" stroke="none" points="712,-165 712,-182 766,-182 766,-165 712,-165"/>
<polygon fill="none" stroke="#1d0b45" points="712,-165 712,-182 766,-182 766,-165 712,-165"/>
<text text-anchor="start" x="715" y="-171" font-family="Helvetica,sans-Serif" font-size="10.00" fill="#ffffff">◎ IN</text>
</g>
<!-- state_value&#45;&gt;#anon:79:23 -->
<g id="edge12" class="edge"><title>state_value:OUT_OUT:e&#45;&gt;#anon:79:23:IN_IN:w</title>
<path fill="none" stroke="#9a8852" stroke-width="2" d="M661,-173C681.66,-173 687.914,-173 706.548,-173"/>
<ellipse fill="#9a8852" stroke="#9a8852" stroke-width="2" cx="709" cy="-173" rx="2" ry="2"/>
</g>
<!-- state_value_from_boolean -->
<g id="node3" class="node"><title>state_value_from_boolean</title>
<polygon fill="#bd648a" stroke="none" points="172,-214 172,-243 339,-243 339,-214 172,-214"/>
<polygon fill="none" stroke="#4e2a39" points="172,-214 172,-243 339,-243 339,-214 172,-214"/>
<text text-anchor="start" x="175.5" y="-229.3" font-family="Helvetica,sans-Serif" font-size="14.00" fill="#000000">state_value_from_boolean</text>
<text text-anchor="start" x="212.5" y="-220.1" font-family="Helvetica,sans-Serif" font-size="8.00" fill="#000000">converter/boolean&#45;to&#45;int</text>
<polygon fill="#8d4b67" stroke="none" points="172,-197 172,-214 339,-214 339,-197 172,-197"/>
<polygon fill="none" stroke="#4e2a39" points="172,-197 172,-214 339,-214 339,-197 172,-197"/>
<text text-anchor="start" x="175" y="-203" font-family="Helvetica,sans-Serif" font-size="10.00" fill="#ffffff">◎ IN</text>
<polygon fill="#69384d" stroke="none" points="172,-180 172,-197 339,-197 339,-180 172,-180"/>
<polygon fill="none" stroke="#4e2a39" points="172,-180 172,-197 339,-197 339,-180 172,-180"/>
<text text-anchor="start" x="303" y="-186" font-family="Helvetica,sans-Serif" font-size="10.00" fill="#ffffff">OUT ◉</text>
</g>
<!-- state_value_as_int -->
<g id="node13" class="node"><title>state_value_as_int</title>
<polygon fill="#254878" stroke="none" points="394,-233 394,-262 514,-262 514,-233 394,-233"/>
<polygon fill="none" stroke="#0f1e32" points="394,-233 394,-262 514,-262 514,-233 394,-233"/>
<text text-anchor="start" x="397.5" y="-248.3" font-family="Helvetica,sans-Serif" font-size="14.00" fill="#ffffff">state_value_as_int</text>
<text text-anchor="start" x="426.5" y="-239.1" font-family="Helvetica,sans-Serif" font-size="8.00" fill="#ffffff">int/accumulator</text>
<polygon fill="#1b365a" stroke="none" points="394,-216 394,-233 514,-233 514,-216 394,-216"/>
<polygon fill="none" stroke="#0f1e32" points="394,-216 394,-233 514,-233 514,-216 394,-216"/>
<text text-anchor="start" x="397" y="-222" font-family="Helvetica,sans-Serif" font-size="10.00" fill="#ffffff">◎ INC</text>
<polygon fill="#1b365a" stroke="none" points="394,-199 394,-216 514,-216 514,-199 394,-199"/>
<polygon fill="none" stroke="#0f1e32" points="394,-199 394,-216 514,-216 514,-199 394,-199"/>
<text text-anchor="start" x="397" y="-205" font-family="Helvetica,sans-Serif" font-size="10.00" fill="#ffffff">◎ SET</text>
<polygon fill="#142843" stroke="none" points="394,-182 394,-199 514,-199 514,-182 394,-182"/>
<polygon fill="none" stroke="#0f1e32" points="394,-182 394,-199 514,-199 514,-182 394,-182"/>
<text text-anchor="start" x="478" y="-188" font-family="Helvetica,sans-Serif" font-size="10.00" fill="#ffffff">OUT ◉</text>
</g>
<!-- state_value_from_boolean&#45;&gt;state_value_as_int -->
<g id="edge10" class="edge"><title>state_value_from_boolean:OUT_OUT:e&#45;&gt;state_value_as_int:IN_SET:w</title>
<path fill="none" stroke="#cc07d8" stroke-width="2" d="M340,-188C363.557,-188 367.555,-204.839 388.82,-206.812"/>
<ellipse fill="#cc07d8" stroke="#cc07d8" stroke-width="2" cx="391.002" cy="-206.91" rx="2" ry="2"/>
</g>
<!-- #anon:41:1 -->
<g id="node4" class="node"><title>#anon:41:1</title>
<polygon fill="#f5f920" stroke="none" points="9,-376 9,-398 116,-398 116,-376 9,-376"/>
<polygon fill="none" stroke="#66680d" points="9,-376 9,-398 116,-398 116,-376 9,-376"/>
<text text-anchor="start" x="12.5" y="-383.3" font-family="Helvetica,sans-Serif" font-size="14.00" fill="#000000">StartupMessage</text>
<polygon fill="#898b12" stroke="none" points="9,-359 9,-376 116,-376 116,-359 9,-359"/>
<polygon fill="none" stroke="#66680d" points="9,-359 9,-376 116,-376 116,-359 9,-359"/>
<text text-anchor="start" x="80" y="-365" font-family="Helvetica,sans-Serif" font-size="10.00" fill="#ffffff">OUT ◉</text>
</g>
<!-- #anon:41:29 -->
<g id="node5" class="node"><title>#anon:41:29</title>
<polygon fill="#471ca4" stroke="none" points="228,-376 228,-398 282,-398 282,-376 228,-376"/>
<polygon fill="none" stroke="#1d0b45" points="228,-376 228,-398 282,-398 282,-376 228,-376"/>
<text text-anchor="start" x="231.5" y="-383.3" font-family="Helvetica,sans-Serif" font-size="14.00" fill="#ffffff">console</text>
<polygon fill="#35157b" stroke="none" points="228,-359 228,-376 282,-376 282,-359 228,-359"/>
<polygon fill="none" stroke="#1d0b45" points="228,-359 228,-376 282,-376 282,-359 228,-359"/>
<text text-anchor="start" x="231" y="-365" font-family="Helvetica,sans-Serif" font-size="10.00" fill="#ffffff">◎ IN</text>
</g>
<!-- #anon:41:1&#45;&gt;#anon:41:29 -->
<g id="edge1" class="edge"><title>#anon:41:1:OUT_OUT:e&#45;&gt;#anon:41:29:IN_IN:w</title>
<path fill="none" stroke="#df831c" stroke-width="2" d="M117,-367C164.457,-367 177.363,-367 222.796,-367"/>
<ellipse fill="#df831c" stroke="#df831c" stroke-width="2" cx="225" cy="-367" rx="2" ry="2"/>
</g>
<!-- quit_button -->
<g id="node6" class="node"><title>quit_button</title>
<polygon fill="#bc6c64" stroke="none" points="25,-442 25,-471 99,-471 99,-442 25,-442"/>
<polygon fill="none" stroke="#4e2d2a" points="25,-442 25,-471 99,-471 99,-442 25,-442"/>
<text text-anchor="start" x="28.5" y="-457.3" font-family="Helvetica,sans-Serif" font-size="14.00" fill="#000000">quit_button</text>
<text text-anchor="start" x="43" y="-448.1" font-family="Helvetica,sans-Serif" font-size="8.00" fill="#000000">QuitButton</text>
<polygon fill="#693c38" stroke="none" points="25,-425 25,-442 99,-442 99,-425 25,-425"/>
<polygon fill="none" stroke="#4e2d2a" points="25,-425 25,-442 99,-442 99,-425 25,-425"/>
<text text-anchor="start" x="63" y="-431" font-family="Helvetica,sans-Serif" font-size="10.00" fill="#ffffff">OUT ◉</text>
</g>
<!-- #anon:44:37 -->
<g id="node7" class="node"><title>#anon:44:37</title>
<polygon fill="#4e2e10" stroke="none" points="227,-442 227,-464 283,-464 283,-442 227,-442"/>
<polygon fill="none" stroke="#201206" points="227,-442 227,-464 283,-464 283,-442 227,-442"/>
<text text-anchor="start" x="230.5" y="-449.3" font-family="Helvetica,sans-Serif" font-size="14.00" fill="#ffffff">app/quit</text>
<polygon fill="#3a220c" stroke="none" points="227,-425 227,-442 283,-442 283,-425 227,-425"/>
<polygon fill="none" stroke="#201206" points="227,-425 227,-442 283,-442 283,-425 227,-425"/>
<text text-anchor="start" x="230" y="-431" font-family="Helvetica,sans-Serif" font-size="10.00" fill="#ffffff">◎ QUIT</text>
</g>
<!-- quit_button&#45;&gt;#anon:44:37 -->
<g id="edge2" class="edge"><title>quit_button:OUT_OUT:e&#45;&gt;#anon:44:37:IN_QUIT:w</title>
<path fill="none" stroke="#4878b4" stroke-width="2" d="M100,-433C154.578,-433 169.262,-433 221.814,-433"/>
<ellipse fill="#4878b4" stroke="#4878b4" stroke-width="2" cx="224" cy="-433" rx="2" ry="2"/>
</g>
<!-- increase_button -->
<g id="node8" class="node"><title>increase_button</title>
<polygon fill="#18bb4e" stroke="none" points="10,-120 10,-149 114,-149 114,-120 10,-120"/>
<polygon fill="none" stroke="#094e20" points="10,-120 10,-149 114,-149 114,-120 10,-120"/>
<text text-anchor="start" x="13.5" y="-135.3" font-family="Helvetica,sans-Serif" font-size="14.00" fill="#ffffff">increase_button</text>
<text text-anchor="start" x="34.5" y="-126.1" font-family="Helvetica,sans-Serif" font-size="8.00" fill="#ffffff">IncreaseButton</text>
<polygon fill="#0d692b" stroke="none" points="10,-103 10,-120 114,-120 114,-103 10,-103"/>
<polygon fill="none" stroke="#094e20" points="10,-103 10,-120 114,-120 114,-103 10,-103"/>
<text text-anchor="start" x="78" y="-109" font-family="Helvetica,sans-Serif" font-size="10.00" fill="#ffffff">OUT ◉</text>
</g>
<!-- #anon:58:38 -->
<g id="node10" class="node"><title>#anon:58:38</title>
<polygon fill="#bd648a" stroke="none" points="169,-120 169,-142 342,-142 342,-120 169,-120"/>
<polygon fill="none" stroke="#4e2a39" points="169,-120 169,-142 342,-142 342,-120 169,-120"/>
<text text-anchor="start" x="172.5" y="-127.3" font-family="Helvetica,sans-Serif" font-size="14.00" fill="#000000">converter/boolean&#45;to&#45;empty</text>
<polygon fill="#8d4b67" stroke="none" points="169,-103 169,-120 342,-120 342,-103 169,-103"/>
<polygon fill="none" stroke="#4e2a39" points="169,-103 169,-120 342,-120 342,-103 169,-103"/>
<text text-anchor="start" x="172" y="-109" font-family="Helvetica,sans-Serif" font-size="10.00" fill="#ffffff">◎ PULSE_IF_TRUE</text>
<polygon fill="#69384d" stroke="none" points="169,-86 169,-103 342,-103 342,-86 169,-86"/>
<polygon fill="none" stroke="#4e2a39" points="169,-86 169,-103 342,-103 342,-86 169,-86"/>
<text text-anchor="start" x="306" y="-92" font-family="Helvetica,sans-Serif" font-size="10.00" fill="#ffffff">OUT ◉</text>
</g>
<!-- increase_button&#45;&gt;#anon:58:38 -->
<g id="edge3" class="edge"><title>increase_button:OUT_OUT:e&#45;&gt;#anon:58:38:IN_PULSE_IF_TRUE:w</title>
<path fill="none" stroke="#8a815a" stroke-width="2" d="M115,-111C137.083,-111 143.639,-111 163.782,-111"/>
<ellipse fill="#8a815a" stroke="#8a815a" stroke-width="2" cx="166" cy="-111" rx="2" ry="2"/>
</g>
<!-- decrease_button -->
<g id="node9" class="node"><title>decrease_button</title>
<polygon fill="#82c9c6" stroke="none" points="8,-38 8,-67 116,-67 116,-38 8,-38"/>
<polygon fill="none" stroke="#365453" points="8,-38 8,-67 116,-67 116,-38 8,-38"/>
<text text-anchor="start" x="11.5" y="-53.3" font-family="Helvetica,sans-Serif" font-size="14.00" fill="#000000">decrease_button</text>
<text text-anchor="start" x="33" y="-44.1" font-family="Helvetica,sans-Serif" font-size="8.00" fill="#000000">DecreaseButton</text>
<polygon fill="#48706f" stroke="none" points="8,-21 8,-38 116,-38 116,-21 8,-21"/>
<polygon fill="none" stroke="#365453" points="8,-21 8,-38 116,-38 116,-21 8,-21"/>
<text text-anchor="start" x="80" y="-27" font-family="Helvetica,sans-Serif" font-size="10.00" fill="#ffffff">OUT ◉</text>
</g>
<!-- #anon:59:38 -->
<g id="node11" class="node"><title>#anon:59:38</title>
<polygon fill="#bd648a" stroke="none" points="169,-38 169,-60 342,-60 342,-38 169,-38"/>
<polygon fill="none" stroke="#4e2a39" points="169,-38 169,-60 342,-60 342,-38 169,-38"/>
<text text-anchor="start" x="172.5" y="-45.3" font-family="Helvetica,sans-Serif" font-size="14.00" fill="#000000">converter/boolean&#45;to&#45;empty</text>
<polygon fill="#8d4b67" stroke="none" points="169,-21 169,-38 342,-38 342,-21 169,-21"/>
<polygon fill="none" stroke="#4e2a39" points="169,-21 169,-38 342,-38 342,-21 169,-21"/>
<text text-anchor="start" x="172" y="-27" font-family="Helvetica,sans-Serif" font-size="10.00" fill="#ffffff">◎ PULSE_IF_TRUE</text>
<polygon fill="#69384d" stroke="none" points="169,-4 169,-21 342,-21 342,-4 169,-4"/>
<polygon fill="none" stroke="#4e2a39" points="169,-4 169,-21 342,-21 342,-4 169,-4"/>
<text text-anchor="start" x="306" y="-10" font-family="Helvetica,sans-Serif" font-size="10.00" fill="#ffffff">OUT ◉</text>
</g>
<!-- decrease_button&#45;&gt;#anon:59:38 -->
<g id="edge5" class="edge"><title>decrease_button:OUT_OUT:e&#45;&gt;#anon:59:38:IN_PULSE_IF_TRUE:w</title>
<path fill="none" stroke="#4b942e" stroke-width="2" d="M117,-29C138.25,-29 144.559,-29 163.941,-29"/>
<ellipse fill="#4b942e" stroke="#4b942e" stroke-width="2" cx="166" cy="-29" rx="2" ry="2"/>
</g>
<!-- #anon:58:38&#45;&gt;power_value -->
<g id="edge4" class="edge"><title>#anon:58:38:OUT_OUT:e&#45;&gt;power_value:IN_INC:w</title>
<path fill="none" stroke="#5c6959" stroke-width="2" d="M343,-94C373.026,-94 378.971,-75.8311 406.739,-74.1277"/>
<ellipse fill="#5c6959" stroke="#5c6959" stroke-width="2" cx="409.001" cy="-74.06" rx="2" ry="2"/>
</g>
<!-- #anon:59:38&#45;&gt;power_value -->
<g id="edge6" class="edge"><title>#anon:59:38:OUT_OUT:e&#45;&gt;power_value:IN_DEC:w</title>
<path fill="none" stroke="#977292" stroke-width="2" d="M343,-12C377.825,-12 375.047,-53.553 406.935,-56.7994"/>
<ellipse fill="#977292" stroke="#977292" stroke-width="2" cx="409.002" cy="-56.9014" rx="2" ry="2"/>
</g>
<!-- state_value_as_int&#45;&gt;state_value -->
<g id="edge11" class="edge"><title>state_value_as_int:OUT_OUT:e&#45;&gt;state_value:IN_IN:w</title>
<path fill="none" stroke="#011fb4" stroke-width="2" d="M515,-190C536.25,-190 542.559,-190 561.941,-190"/>
<ellipse fill="#011fb4" stroke="#011fb4" stroke-width="2" cx="564" cy="-190" rx="2" ry="2"/>
</g>
<!-- state_button -->
<g id="node14" class="node"><title>state_button</title>
<polygon fill="#76a53a" stroke="none" points="21,-304 21,-333 103,-333 103,-304 21,-304"/>
<polygon fill="none" stroke="#314518" points="21,-304 21,-333 103,-333 103,-304 21,-304"/>
<text text-anchor="start" x="24.5" y="-319.3" font-family="Helvetica,sans-Serif" font-size="14.00" fill="#000000">state_button</text>
<text text-anchor="start" x="40.5" y="-310.1" font-family="Helvetica,sans-Serif" font-size="8.00" fill="#000000">StateButton</text>
<polygon fill="#425c20" stroke="none" points="21,-287 21,-304 103,-304 103,-287 21,-287"/>
<polygon fill="none" stroke="#314518" points="21,-287 21,-304 103,-304 103,-287 21,-287"/>
<text text-anchor="start" x="67" y="-293" font-family="Helvetica,sans-Serif" font-size="10.00" fill="#ffffff">OUT ◉</text>
</g>
<!-- #anon:71:35 -->
<g id="node15" class="node"><title>#anon:71:35</title>
<polygon fill="#bd648a" stroke="none" points="169,-304 169,-326 342,-326 342,-304 169,-304"/>
<polygon fill="none" stroke="#4e2a39" points="169,-304 169,-326 342,-326 342,-304 169,-304"/>
<text text-anchor="start" x="172.5" y="-311.3" font-family="Helvetica,sans-Serif" font-size="14.00" fill="#000000">converter/boolean&#45;to&#45;empty</text>
<polygon fill="#8d4b67" stroke="none" points="169,-287 169,-304 342,-304 342,-287 169,-287"/>
<polygon fill="none" stroke="#4e2a39" points="169,-287 169,-304 342,-304 342,-287 169,-287"/>
<text text-anchor="start" x="172" y="-293" font-family="Helvetica,sans-Serif" font-size="10.00" fill="#ffffff">◎ PULSE_IF_TRUE</text>
<polygon fill="#69384d" stroke="none" points="169,-270 169,-287 342,-287 342,-270 169,-270"/>
<polygon fill="none" stroke="#4e2a39" points="169,-270 169,-287 342,-287 342,-270 169,-270"/>
<text text-anchor="start" x="306" y="-276" font-family="Helvetica,sans-Serif" font-size="10.00" fill="#ffffff">OUT ◉</text>
</g>
<!-- state_button&#45;&gt;#anon:71:35 -->
<g id="edge8" class="edge"><title>state_button:OUT_OUT:e&#45;&gt;#anon:71:35:IN_PULSE_IF_TRUE:w</title>
<path fill="none" stroke="#3ad4f2" stroke-width="2" d="M104,-295C131,-295 138.778,-295 163.826,-295"/>
<ellipse fill="#3ad4f2" stroke="#3ad4f2" stroke-width="2" cx="166" cy="-295" rx="2" ry="2"/>
</g>
<!-- #anon:71:35&#45;&gt;state_value_as_int -->
<g id="edge9" class="edge"><title>#anon:71:35:OUT_OUT:e&#45;&gt;state_value_as_int:IN_INC:w</title>
<path fill="none" stroke="#a5d02e" stroke-width="2" d="M343,-278C373.866,-278 361.897,-229.852 388.747,-225.338"/>
<ellipse fill="#a5d02e" stroke="#a5d02e" stroke-width="2" cx="391.006" cy="-225.159" rx="2" ry="2"/>
</g>
</g>
</svg>
