<?xml version="1.0" encoding="UTF-8" standalone="no"?>
<!DOCTYPE svg PUBLIC "-//W3C//DTD SVG 1.1//EN"
 "http://www.w3.org/Graphics/SVG/1.1/DTD/svg11.dtd">
<!-- Generated by graphviz version 2.36.0 (20140111.2315)
 -->
<!-- Title: fbp Pages: 1 -->
<svg width="1252pt" height="485pt"
 viewBox="0.00 0.00 1252.00 485.00" xmlns="http://www.w3.org/2000/svg" xmlns:xlink="http://www.w3.org/1999/xlink">
<g id="graph0" class="graph" transform="scale(1 1) rotate(0) translate(4 481)">
<title>fbp</title>
<polygon fill="white" stroke="none" points="-4,4 -4,-481 1248,-481 1248,4 -4,4"/>
<!-- cmdline_arguments -->
<g id="node1" class="node"><title>cmdline_arguments</title>
<polygon fill="#4e2e10" stroke="none" points="139,-365 139,-394 266,-394 266,-365 139,-365"/>
<polygon fill="none" stroke="#201206" points="139,-365 139,-394 266,-394 266,-365 139,-365"/>
<text text-anchor="start" x="142.5" y="-380.3" font-family="Helvetica,sans-Serif" font-size="14.00" fill="#ffffff">cmdline_arguments</text>
<text text-anchor="start" x="177" y="-371.1" font-family="Helvetica,sans-Serif" font-size="8.00" fill="#ffffff">app/argc&#45;argv</text>
<polygon fill="#3a220c" stroke="none" points="139,-348 139,-365 266,-365 266,-348 139,-348"/>
<polygon fill="none" stroke="#201206" points="139,-348 139,-365 266,-365 266,-348 139,-348"/>
<text text-anchor="start" x="142" y="-354" font-family="Helvetica,sans-Serif" font-size="10.00" fill="#ffffff">◎ IN</text>
<polygon fill="#2b1909" stroke="none" points="139,-331 139,-348 266,-348 266,-331 139,-331"/>
<polygon fill="none" stroke="#201206" points="139,-331 139,-348 266,-348 266,-331 139,-331"/>
<text text-anchor="start" x="214" y="-337" font-family="Helvetica,sans-Serif" font-size="10.00" fill="#ffffff">ERROR ◉</text>
<polygon fill="#2b1909" stroke="none" points="139,-314 139,-331 266,-331 266,-314 139,-314"/>
<polygon fill="none" stroke="#201206" points="139,-314 139,-331 266,-331 266,-314 139,-314"/>
<text text-anchor="start" x="230" y="-320" font-family="Helvetica,sans-Serif" font-size="10.00" fill="#ffffff">OUT ◉</text>
</g>
<!-- cmdline_usage -->
<g id="node2" class="node"><title>cmdline_usage</title>
<polygon fill="#bd648a" stroke="none" points="319,-348 319,-377 418,-377 418,-348 319,-348"/>
<polygon fill="none" stroke="#4e2a39" points="319,-348 319,-377 418,-377 418,-348 319,-348"/>
<text text-anchor="start" x="322.5" y="-363.3" font-family="Helvetica,sans-Serif" font-size="14.00" fill="#000000">cmdline_usage</text>
<text text-anchor="start" x="323" y="-354.1" font-family="Helvetica,sans-Serif" font-size="8.00" fill="#000000">converter/empty&#45;to&#45;string</text>
<polygon fill="#8d4b67" stroke="none" points="319,-331 319,-348 418,-348 418,-331 319,-331"/>
<polygon fill="none" stroke="#4e2a39" points="319,-331 319,-348 418,-348 418,-331 319,-331"/>
<text text-anchor="start" x="322" y="-337" font-family="Helvetica,sans-Serif" font-size="10.00" fill="#ffffff">◎ IN</text>
<polygon fill="#69384d" stroke="none" points="319,-314 319,-331 418,-331 418,-314 319,-314"/>
<polygon fill="none" stroke="#4e2a39" points="319,-314 319,-331 418,-331 418,-314 319,-314"/>
<text text-anchor="start" x="382" y="-320" font-family="Helvetica,sans-Serif" font-size="10.00" fill="#ffffff">OUT ◉</text>
</g>
<!-- cmdline_arguments&#45;&gt;cmdline_usage -->
<g id="edge1" class="edge"><title>cmdline_arguments:OUT_ERROR:e&#45;&gt;cmdline_usage:IN_IN:w</title>
<path fill="none" stroke="#d666ac" stroke-width="2" d="M267,-339C288.25,-339 294.559,-339 313.941,-339"/>
<ellipse fill="#d666ac" stroke="#d666ac" stroke-width="2" cx="316" cy="-339" rx="2" ry="2"/>
</g>
<!-- state_url -->
<g id="node7" class="node"><title>state_url</title>
<polygon fill="#c1ee90" stroke="none" points="332,-174 332,-203 405,-203 405,-174 332,-174"/>
<polygon fill="none" stroke="#51633c" points="332,-174 332,-203 405,-203 405,-174 332,-174"/>
<text text-anchor="start" x="342.5" y="-189.3" font-family="Helvetica,sans-Serif" font-size="14.00" fill="#000000">state_url</text>
<text text-anchor="start" x="335.5" y="-180.1" font-family="Helvetica,sans-Serif" font-size="8.00" fill="#000000">string/concatenate</text>
<polygon fill="#90b26c" stroke="none" points="332,-157 332,-174 405,-174 405,-157 332,-157"/>
<polygon fill="none" stroke="#51633c" points="332,-157 332,-174 405,-174 405,-157 332,-157"/>
<text text-anchor="start" x="335" y="-163" font-family="Helvetica,sans-Serif" font-size="10.00" fill="#000000">◎ IN</text>
<polygon fill="#6c8551" stroke="none" points="332,-140 332,-157 405,-157 405,-140 332,-140"/>
<polygon fill="none" stroke="#51633c" points="332,-140 332,-157 405,-157 405,-140 332,-140"/>
<text text-anchor="start" x="369" y="-146" font-family="Helvetica,sans-Serif" font-size="10.00" fill="#ffffff">OUT ◉</text>
</g>
<!-- cmdline_arguments&#45;&gt;state_url -->
<g id="edge6" class="edge"><title>cmdline_arguments:OUT_OUT:e&#45;&gt;state_url:IN_IN:w</title>
<path fill="none" stroke="#20a08a" stroke-width="2" d="M267,-322C340.881,-322 258.972,-171.073 326.768,-165.177"/>
<ellipse fill="#20a08a" stroke="#20a08a" stroke-width="2" cx="329.002" cy="-165.084" rx="2" ry="2"/>
</g>
<!-- power_url -->
<g id="node9" class="node"><title>power_url</title>
<polygon fill="#c1ee90" stroke="none" points="332,-443 332,-472 405,-472 405,-443 332,-443"/>
<polygon fill="none" stroke="#51633c" points="332,-443 332,-472 405,-472 405,-443 332,-443"/>
<text text-anchor="start" x="338.5" y="-458.3" font-family="Helvetica,sans-Serif" font-size="14.00" fill="#000000">power_url</text>
<text text-anchor="start" x="335.5" y="-449.1" font-family="Helvetica,sans-Serif" font-size="8.00" fill="#000000">string/concatenate</text>
<polygon fill="#90b26c" stroke="none" points="332,-426 332,-443 405,-443 405,-426 332,-426"/>
<polygon fill="none" stroke="#51633c" points="332,-426 332,-443 405,-443 405,-426 332,-426"/>
<text text-anchor="start" x="335" y="-432" font-family="Helvetica,sans-Serif" font-size="10.00" fill="#000000">◎ IN</text>
<polygon fill="#6c8551" stroke="none" points="332,-409 332,-426 405,-426 405,-409 332,-409"/>
<polygon fill="none" stroke="#51633c" points="332,-409 332,-426 405,-426 405,-409 332,-409"/>
<text text-anchor="start" x="369" y="-415" font-family="Helvetica,sans-Serif" font-size="10.00" fill="#ffffff">OUT ◉</text>
</g>
<!-- cmdline_arguments&#45;&gt;power_url -->
<g id="edge8" class="edge"><title>cmdline_arguments:OUT_OUT:e&#45;&gt;power_url:IN_IN:w</title>
<path fill="none" stroke="#7a9c84" stroke-width="2" d="M267,-322C322.876,-322 276.172,-428.385 326.838,-433.787"/>
<ellipse fill="#7a9c84" stroke="#7a9c84" stroke-width="2" cx="329.003" cy="-433.898" rx="2" ry="2"/>
</g>
<!-- #anon:29:161 -->
<g id="node3" class="node"><title>#anon:29:161</title>
<polygon fill="#471ca4" stroke="none" points="513,-286 513,-308 567,-308 567,-286 513,-286"/>
<polygon fill="none" stroke="#1d0b45" points="513,-286 513,-308 567,-308 567,-286 513,-286"/>
<text text-anchor="start" x="516.5" y="-293.3" font-family="Helvetica,sans-Serif" font-size="14.00" fill="#ffffff">console</text>
<polygon fill="#35157b" stroke="none" points="513,-269 513,-286 567,-286 567,-269 513,-269"/>
<polygon fill="none" stroke="#1d0b45" points="513,-269 513,-286 567,-286 567,-269 513,-269"/>
<text text-anchor="start" x="516" y="-275" font-family="Helvetica,sans-Serif" font-size="10.00" fill="#ffffff">◎ IN</text>
</g>
<!-- cmdline_usage&#45;&gt;#anon:29:161 -->
<g id="edge2" class="edge"><title>cmdline_usage:OUT_OUT:e&#45;&gt;#anon:29:161:IN_IN:w</title>
<path fill="none" stroke="#3b5f37" stroke-width="2" d="M419,-322C463.483,-322 465.966,-279.769 507.824,-277.129"/>
<ellipse fill="#3b5f37" stroke="#3b5f37" stroke-width="2" cx="510.001" cy="-277.062" rx="2" ry="2"/>
</g>
<!-- #anon:30:25 -->
<g id="node4" class="node"><title>#anon:30:25</title>
<polygon fill="#bd648a" stroke="none" points="470,-369 470,-391 610,-391 610,-369 470,-369"/>
<polygon fill="none" stroke="#4e2a39" points="470,-369 470,-391 610,-391 610,-369 470,-369"/>
<text text-anchor="start" x="473.5" y="-376.3" font-family="Helvetica,sans-Serif" font-size="14.00" fill="#000000">converter/empty&#45;to&#45;int</text>
<polygon fill="#8d4b67" stroke="none" points="470,-352 470,-369 610,-369 610,-352 470,-352"/>
<polygon fill="none" stroke="#4e2a39" points="470,-352 470,-369 610,-369 610,-352 470,-352"/>
<text text-anchor="start" x="473" y="-358" font-family="Helvetica,sans-Serif" font-size="10.00" fill="#ffffff">◎ IN</text>
<polygon fill="#69384d" stroke="none" points="470,-335 470,-352 610,-352 610,-335 470,-335"/>
<polygon fill="none" stroke="#4e2a39" points="470,-335 470,-352 610,-352 610,-335 470,-335"/>
<text text-anchor="start" x="574" y="-341" font-family="Helvetica,sans-Serif" font-size="10.00" fill="#ffffff">OUT ◉</text>
</g>
<!-- cmdline_usage&#45;&gt;#anon:30:25 -->
<g id="edge3" class="edge"><title>cmdline_usage:OUT_OUT:e&#45;&gt;#anon:30:25:IN_IN:w</title>
<path fill="none" stroke="#4a5acd" stroke-width="2" d="M419,-322C445.494,-322 441.593,-356.239 465,-359.716"/>
<ellipse fill="#4a5acd" stroke="#4a5acd" stroke-width="2" cx="467.005" cy="-359.858" rx="2" ry="2"/>
</g>
<!-- #anon:30:78 -->
<g id="node5" class="node"><title>#anon:30:78</title>
<polygon fill="#4e2e10" stroke="none" points="666,-352 666,-374 722,-374 722,-352 666,-352"/>
<polygon fill="none" stroke="#201206" points="666,-352 666,-374 722,-374 722,-352 666,-352"/>
<text text-anchor="start" x="669.5" y="-359.3" font-family="Helvetica,sans-Serif" font-size="14.00" fill="#ffffff">app/quit</text>
<polygon fill="#3a220c" stroke="none" points="666,-335 666,-352 722,-352 722,-335 666,-335"/>
<polygon fill="none" stroke="#201206" points="666,-335 666,-352 722,-352 722,-335 666,-335"/>
<text text-anchor="start" x="669" y="-341" font-family="Helvetica,sans-Serif" font-size="10.00" fill="#ffffff">◎ CODE</text>
</g>
<!-- #anon:30:25&#45;&gt;#anon:30:78 -->
<g id="edge4" class="edge"><title>#anon:30:25:OUT_OUT:e&#45;&gt;#anon:30:78:IN_CODE:w</title>
<path fill="none" stroke="#1d49e5" stroke-width="2" d="M611,-343C633.594,-343 640.235,-343 660.959,-343"/>
<ellipse fill="#1d49e5" stroke="#1d49e5" stroke-width="2" cx="663" cy="-343" rx="2" ry="2"/>
</g>
<!-- #anon:33:1 -->
<g id="node6" class="node"><title>#anon:33:1</title>
<polygon fill="#e8ea7a" stroke="none" points="9,-366 9,-388 86,-388 86,-366 9,-366"/>
<polygon fill="none" stroke="#616233" points="9,-366 9,-388 86,-388 86,-366 9,-366"/>
<text text-anchor="start" x="12.5" y="-373.3" font-family="Helvetica,sans-Serif" font-size="14.00" fill="#000000">constant/int</text>
<polygon fill="#828344" stroke="none" points="9,-349 9,-366 86,-366 86,-349 9,-349"/>
<polygon fill="none" stroke="#616233" points="9,-349 9,-366 86,-366 86,-349 9,-349"/>
<text text-anchor="start" x="50" y="-355" font-family="Helvetica,sans-Serif" font-size="10.00" fill="#ffffff">OUT ◉</text>
</g>
<!-- #anon:33:1&#45;&gt;cmdline_arguments -->
<g id="edge5" class="edge"><title>#anon:33:1:OUT_OUT:e&#45;&gt;cmdline_arguments:IN_IN:w</title>
<path fill="none" stroke="#d11fd0" stroke-width="2" d="M87,-357C108.25,-357 114.559,-357 133.941,-357"/>
<ellipse fill="#d11fd0" stroke="#d11fd0" stroke-width="2" cx="136" cy="-357" rx="2" ry="2"/>
</g>
<!-- http_state -->
<g id="node17" class="node"><title>http_state</title>
<polygon fill="#d07e6c" stroke="none" points="504,-157 504,-186 577,-186 577,-157 504,-157"/>
<polygon fill="none" stroke="#57342d" points="504,-157 504,-186 577,-186 577,-157 504,-157"/>
<text text-anchor="start" x="510.5" y="-172.3" font-family="Helvetica,sans-Serif" font-size="14.00" fill="#000000">http_state</text>
<text text-anchor="start" x="507.5" y="-163.1" font-family="Helvetica,sans-Serif" font-size="8.00" fill="#000000">http&#45;client/boolean</text>
<polygon fill="#9c5e51" stroke="none" points="504,-140 504,-157 577,-157 577,-140 504,-140"/>
<polygon fill="none" stroke="#57342d" points="504,-140 504,-157 577,-157 577,-140 504,-140"/>
<text text-anchor="start" x="507" y="-146" font-family="Helvetica,sans-Serif" font-size="10.00" fill="#ffffff">◎ URL</text>
<polygon fill="#9c5e51" stroke="none" points="504,-123 504,-140 577,-140 577,-123 504,-123"/>
<polygon fill="none" stroke="#57342d" points="504,-123 504,-140 577,-140 577,-123 504,-123"/>
<text text-anchor="start" x="507" y="-129" font-family="Helvetica,sans-Serif" font-size="10.00" fill="#ffffff">◎ GET</text>
<polygon fill="#9c5e51" stroke="none" points="504,-106 504,-123 577,-123 577,-106 504,-106"/>
<polygon fill="none" stroke="#57342d" points="504,-106 504,-123 577,-123 577,-106 504,-106"/>
<text text-anchor="start" x="507" y="-112" font-family="Helvetica,sans-Serif" font-size="10.00" fill="#ffffff">◎ POST</text>
<polygon fill="#75463c" stroke="none" points="504,-89 504,-106 577,-106 577,-89 504,-89"/>
<polygon fill="none" stroke="#57342d" points="504,-89 504,-106 577,-106 577,-89 504,-89"/>
<text text-anchor="start" x="525" y="-95" font-family="Helvetica,sans-Serif" font-size="10.00" fill="#ffffff">ERROR ◉</text>
<polygon fill="#75463c" stroke="none" points="504,-72 504,-89 577,-89 577,-72 504,-72"/>
<polygon fill="none" stroke="#57342d" points="504,-72 504,-89 577,-89 577,-72 504,-72"/>
<text text-anchor="start" x="541" y="-78" font-family="Helvetica,sans-Serif" font-size="10.00" fill="#ffffff">OUT ◉</text>
</g>
<!-- state_url&#45;&gt;http_state -->
<g id="edge19" class="edge"><title>state_url:OUT_OUT:e&#45;&gt;http_state:IN_URL:w</title>
<path fill="none" stroke="#7195f6" stroke-width="2" d="M406,-148C447.598,-148 459.089,-148.931 498.57,-148.996"/>
<ellipse fill="#7195f6" stroke="#7195f6" stroke-width="2" cx="501" cy="-148.998" rx="2" ry="2"/>
</g>
<!-- #anon:37:1 -->
<g id="node8" class="node"><title>#anon:37:1</title>
<polygon fill="#e8ea7a" stroke="none" points="155,-174 155,-196 250,-196 250,-174 155,-174"/>
<polygon fill="none" stroke="#616233" points="155,-174 155,-196 250,-196 250,-174 155,-174"/>
<text text-anchor="start" x="158.5" y="-181.3" font-family="Helvetica,sans-Serif" font-size="14.00" fill="#000000">constant/string</text>
<polygon fill="#828344" stroke="none" points="155,-157 155,-174 250,-174 250,-157 155,-157"/>
<polygon fill="none" stroke="#616233" points="155,-157 155,-174 250,-174 250,-157 155,-157"/>
<text text-anchor="start" x="214" y="-163" font-family="Helvetica,sans-Serif" font-size="10.00" fill="#ffffff">OUT ◉</text>
</g>
<!-- #anon:37:1&#45;&gt;state_url -->
<g id="edge7" class="edge"><title>#anon:37:1:OUT_OUT:e&#45;&gt;state_url:IN_IN:w</title>
<path fill="none" stroke="#d2b358" stroke-width="2" d="M251,-165C285.167,-165 294.709,-165 326.952,-165"/>
<ellipse fill="#d2b358" stroke="#d2b358" stroke-width="2" cx="329" cy="-165" rx="2" ry="2"/>
</g>
<!-- http_power -->
<g id="node14" class="node"><title>http_power</title>
<polygon fill="#d07e6c" stroke="none" points="820,-244 820,-273 894,-273 894,-244 820,-244"/>
<polygon fill="none" stroke="#57342d" points="820,-244 820,-273 894,-273 894,-244 820,-244"/>
<text text-anchor="start" x="823.5" y="-259.3" font-family="Helvetica,sans-Serif" font-size="14.00" fill="#000000">http_power</text>
<text text-anchor="start" x="834" y="-250.1" font-family="Helvetica,sans-Serif" font-size="8.00" fill="#000000">http&#45;client/int</text>
<polygon fill="#9c5e51" stroke="none" points="820,-227 820,-244 894,-244 894,-227 820,-227"/>
<polygon fill="none" stroke="#57342d" points="820,-227 820,-244 894,-244 894,-227 820,-227"/>
<text text-anchor="start" x="823" y="-233" font-family="Helvetica,sans-Serif" font-size="10.00" fill="#ffffff">◎ URL</text>
<polygon fill="#9c5e51" stroke="none" points="820,-210 820,-227 894,-227 894,-210 820,-210"/>
<polygon fill="none" stroke="#57342d" points="820,-210 820,-227 894,-227 894,-210 820,-210"/>
<text text-anchor="start" x="823" y="-216" font-family="Helvetica,sans-Serif" font-size="10.00" fill="#ffffff">◎ GET</text>
<polygon fill="#9c5e51" stroke="none" points="820,-193 820,-210 894,-210 894,-193 820,-193"/>
<polygon fill="none" stroke="#57342d" points="820,-193 820,-210 894,-210 894,-193 820,-193"/>
<text text-anchor="start" x="823" y="-199" font-family="Helvetica,sans-Serif" font-size="10.00" fill="#ffffff">◎ POST</text>
<polygon fill="#75463c" stroke="none" points="820,-176 820,-193 894,-193 894,-176 820,-176"/>
<polygon fill="none" stroke="#57342d" points="820,-176 820,-193 894,-193 894,-176 820,-176"/>
<text text-anchor="start" x="842" y="-182" font-family="Helvetica,sans-Serif" font-size="10.00" fill="#ffffff">ERROR ◉</text>
<polygon fill="#75463c" stroke="none" points="820,-159 820,-176 894,-176 894,-159 820,-159"/>
<polygon fill="none" stroke="#57342d" points="820,-159 820,-176 894,-176 894,-159 820,-159"/>
<text text-anchor="start" x="858" y="-165" font-family="Helvetica,sans-Serif" font-size="10.00" fill="#ffffff">OUT ◉</text>
</g>
<!-- power_url&#45;&gt;http_power -->
<g id="edge12" class="edge"><title>power_url:OUT_OUT:e&#45;&gt;http_power:IN_URL:w</title>
<path fill="none" stroke="#2256e5" stroke-width="2" d="M406,-417C552.386,-417 613.332,-469.874 734,-387 796.243,-344.252 744.109,-240.171 814.637,-236.122"/>
<ellipse fill="#2256e5" stroke="#2256e5" stroke-width="2" cx="817.001" cy="-236.056" rx="2" ry="2"/>
</g>
<!-- #anon:41:1 -->
<g id="node10" class="node"><title>#anon:41:1</title>
<polygon fill="#e8ea7a" stroke="none" points="155,-443 155,-465 250,-465 250,-443 155,-443"/>
<polygon fill="none" stroke="#616233" points="155,-443 155,-465 250,-465 250,-443 155,-443"/>
<text text-anchor="start" x="158.5" y="-450.3" font-family="Helvetica,sans-Serif" font-size="14.00" fill="#000000">constant/string</text>
<polygon fill="#828344" stroke="none" points="155,-426 155,-443 250,-443 250,-426 155,-426"/>
<polygon fill="none" stroke="#616233" points="155,-426 155,-443 250,-443 250,-426 155,-426"/>
<text text-anchor="start" x="214" y="-432" font-family="Helvetica,sans-Serif" font-size="10.00" fill="#ffffff">OUT ◉</text>
</g>
<!-- #anon:41:1&#45;&gt;power_url -->
<g id="edge9" class="edge"><title>#anon:41:1:OUT_OUT:e&#45;&gt;power_url:IN_IN:w</title>
<path fill="none" stroke="#c60ee0" stroke-width="2" d="M251,-434C285.167,-434 294.709,-434 326.952,-434"/>
<ellipse fill="#c60ee0" stroke="#c60ee0" stroke-width="2" cx="329" cy="-434" rx="2" ry="2"/>
</g>
<!-- controller -->
<g id="node11" class="node"><title>controller</title>
<polygon fill="#197112" stroke="none" points="663,-175 663,-204 726,-204 726,-175 663,-175"/>
<polygon fill="none" stroke="#092f06" points="663,-175 663,-204 726,-204 726,-175 663,-175"/>
<text text-anchor="start" x="666.5" y="-190.3" font-family="Helvetica,sans-Serif" font-size="14.00" fill="#ffffff">controller</text>
<text text-anchor="start" x="677.5" y="-181.1" font-family="Helvetica,sans-Serif" font-size="8.00" fill="#ffffff">controller</text>
<polygon fill="#12540d" stroke="none" points="663,-158 663,-175 726,-175 726,-158 663,-158"/>
<polygon fill="none" stroke="#092f06" points="663,-158 663,-175 726,-175 726,-158 663,-158"/>
<text text-anchor="start" x="666" y="-164" font-family="Helvetica,sans-Serif" font-size="10.00" fill="#ffffff">◎ POWER</text>
<polygon fill="#12540d" stroke="none" points="663,-141 663,-158 726,-158 726,-141 663,-141"/>
<polygon fill="none" stroke="#092f06" points="663,-141 663,-158 726,-158 726,-141 663,-141"/>
<text text-anchor="start" x="666" y="-147" font-family="Helvetica,sans-Serif" font-size="10.00" fill="#ffffff">◎ STATE</text>
<polygon fill="#0d3f09" stroke="none" points="663,-124 663,-141 726,-141 726,-124 663,-124"/>
<polygon fill="none" stroke="#092f06" points="663,-124 663,-141 726,-141 726,-124 663,-124"/>
<text text-anchor="start" x="673" y="-130" font-family="Helvetica,sans-Serif" font-size="10.00" fill="#ffffff">POWER ◉</text>
<polygon fill="#0d3f09" stroke="none" points="663,-107 663,-124 726,-124 726,-107 663,-107"/>
<polygon fill="none" stroke="#092f06" points="663,-107 663,-124 726,-124 726,-107 663,-107"/>
<text text-anchor="start" x="679" y="-113" font-family="Helvetica,sans-Serif" font-size="10.00" fill="#ffffff">STATE ◉</text>
</g>
<!-- controller&#45;&gt;http_power -->
<g id="edge16" class="edge"><title>controller:OUT_POWER:e&#45;&gt;http_power:IN_POST:w</title>
<path fill="none" stroke="#30b0ca" stroke-width="2" d="M727,-132C776.714,-132 768.402,-197.278 814.942,-200.848"/>
<ellipse fill="#30b0ca" stroke="#30b0ca" stroke-width="2" cx="817.001" cy="-200.925" rx="2" ry="2"/>
</g>
<!-- controller&#45;&gt;http_state -->
<g id="edge23" class="edge"><title>controller:OUT_STATE:e&#45;&gt;http_state:IN_POST:w</title>
<path fill="none" stroke="#05a146" stroke-width="2" d="M727,-115C732.13,-115 729.393,-107.348 726,-103.5 704.349,-78.9504 685.739,-96.0057 654,-88 623.041,-80.1909 616.612,-72.489 585,-68 549.358,-62.9386 529.731,-42.8223 504,-68 490.526,-81.1845 483.666,-109.153 498.697,-113.443"/>
<ellipse fill="#05a146" stroke="#05a146" stroke-width="2" cx="501.017" cy="-113.743" rx="2.00001" ry="2.00001"/>
</g>
<!-- note -->
<g id="node12" class="node"><title>note</title>
<polygon fill="#471ca4" stroke="none" points="1200,-122 1200,-151 1235,-151 1235,-122 1200,-122"/>
<polygon fill="none" stroke="#1d0b45" points="1200,-122 1200,-151 1235,-151 1235,-122 1200,-122"/>
<text text-anchor="start" x="1204" y="-137.3" font-family="Helvetica,sans-Serif" font-size="14.00" fill="#ffffff">note</text>
<text text-anchor="start" x="1203.5" y="-128.1" font-family="Helvetica,sans-Serif" font-size="8.00" fill="#ffffff">console</text>
<polygon fill="#35157b" stroke="none" points="1200,-105 1200,-122 1235,-122 1235,-105 1200,-105"/>
<polygon fill="none" stroke="#1d0b45" points="1200,-105 1200,-122 1235,-122 1235,-105 1200,-105"/>
<text text-anchor="start" x="1203" y="-111" font-family="Helvetica,sans-Serif" font-size="10.00" fill="#ffffff">◎ IN</text>
</g>
<!-- trigger_get -->
<g id="node13" class="node"><title>trigger_get</title>
<polygon fill="#7f2fae" stroke="none" points="336,-247 336,-276 400,-276 400,-247 336,-247"/>
<polygon fill="none" stroke="#351348" points="336,-247 336,-276 400,-276 400,-247 336,-247"/>
<text text-anchor="start" x="339.5" y="-262.3" font-family="Helvetica,sans-Serif" font-size="14.00" fill="#ffffff">🕐 Timer</text>
<text text-anchor="start" x="358.5" y="-253.1" font-family="Helvetica,sans-Serif" font-size="8.00" fill="#ffffff">timer</text>
<polygon fill="#471a61" stroke="none" points="336,-230 336,-247 400,-247 400,-230 336,-230"/>
<polygon fill="none" stroke="#351348" points="336,-230 336,-247 400,-247 400,-230 336,-230"/>
<text text-anchor="start" x="364" y="-236" font-family="Helvetica,sans-Serif" font-size="10.00" fill="#ffffff">OUT ◉</text>
</g>
<!-- trigger_get&#45;&gt;http_power -->
<g id="edge13" class="edge"><title>trigger_get:OUT_OUT:e&#45;&gt;http_power:IN_GET:w</title>
<path fill="none" stroke="#c21b82" stroke-width="2" d="M401,-238C585.608,-238 632.348,-219.277 814.936,-219.003"/>
<ellipse fill="#c21b82" stroke="#c21b82" stroke-width="2" cx="817" cy="-219.002" rx="2" ry="2"/>
</g>
<!-- trigger_get&#45;&gt;http_state -->
<g id="edge20" class="edge"><title>trigger_get:OUT_OUT:e&#45;&gt;http_state:IN_GET:w</title>
<path fill="none" stroke="#53282a" stroke-width="2" d="M401,-238C464.976,-238 438.812,-136.506 498.915,-132.145"/>
<ellipse fill="#53282a" stroke="#53282a" stroke-width="2" cx="501.001" cy="-132.071" rx="2" ry="2"/>
</g>
<!-- http_power&#45;&gt;controller -->
<g id="edge14" class="edge"><title>http_power:OUT_OUT:e&#45;&gt;controller:IN_POWER:w</title>
<path fill="none" stroke="#6a7fb2" stroke-width="2" d="M895,-167C914.701,-167 956.781,-110.466 812,-155 771.94,-167.322 774.06,-195.678 734,-208 703.839,-217.277 685.584,-230.039 663,-208 651.076,-196.363 644.886,-171.744 657.83,-167.599"/>
<ellipse fill="#6a7fb2" stroke="#6a7fb2" stroke-width="2" cx="660.02" cy="-167.284" rx="2.00001" ry="2.00001"/>
</g>
<!-- #anon:54:24 -->
<g id="node15" class="node"><title>#anon:54:24</title>
<polygon fill="#bd648a" stroke="none" points="988,-193 988,-215 1146,-215 1146,-193 988,-193"/>
<polygon fill="none" stroke="#4e2a39" points="988,-193 988,-215 1146,-215 1146,-193 988,-193"/>
<text text-anchor="start" x="991.5" y="-200.3" font-family="Helvetica,sans-Serif" font-size="14.00" fill="#000000">converter/empty&#45;to&#45;string</text>
<polygon fill="#8d4b67" stroke="none" points="988,-176 988,-193 1146,-193 1146,-176 988,-176"/>
<polygon fill="none" stroke="#4e2a39" points="988,-176 988,-193 1146,-193 1146,-176 988,-176"/>
<text text-anchor="start" x="991" y="-182" font-family="Helvetica,sans-Serif" font-size="10.00" fill="#ffffff">◎ IN</text>
<polygon fill="#69384d" stroke="none" points="988,-159 988,-176 1146,-176 1146,-159 988,-159"/>
<polygon fill="none" stroke="#4e2a39" points="988,-159 988,-176 1146,-176 1146,-159 988,-159"/>
<text text-anchor="start" x="1110" y="-165" font-family="Helvetica,sans-Serif" font-size="10.00" fill="#ffffff">OUT ◉</text>
</g>
<!-- http_power&#45;&gt;#anon:54:24 -->
<g id="edge10" class="edge"><title>http_power:OUT_ERROR:e&#45;&gt;#anon:54:24:IN_IN:w</title>
<path fill="none" stroke="#e295b2" stroke-width="2" d="M895,-184C934.451,-184 945.354,-184 982.799,-184"/>
<ellipse fill="#e295b2" stroke="#e295b2" stroke-width="2" cx="985" cy="-184" rx="2" ry="2"/>
</g>
<!-- #anon:60:22 -->
<g id="node16" class="node"><title>#anon:60:22</title>
<polygon fill="#471ca4" stroke="none" points="1040,-110 1040,-132 1094,-132 1094,-110 1040,-110"/>
<polygon fill="none" stroke="#1d0b45" points="1040,-110 1040,-132 1094,-132 1094,-110 1040,-110"/>
<text text-anchor="start" x="1043.5" y="-117.3" font-family="Helvetica,sans-Serif" font-size="14.00" fill="#ffffff">console</text>
<polygon fill="#35157b" stroke="none" points="1040,-93 1040,-110 1094,-110 1094,-93 1040,-93"/>
<polygon fill="none" stroke="#1d0b45" points="1040,-93 1040,-110 1094,-110 1094,-93 1040,-93"/>
<text text-anchor="start" x="1043" y="-99" font-family="Helvetica,sans-Serif" font-size="10.00" fill="#ffffff">◎ IN</text>
</g>
<!-- http_power&#45;&gt;#anon:60:22 -->
<g id="edge15" class="edge"><title>http_power:OUT_OUT:e&#45;&gt;#anon:60:22:IN_IN:w</title>
<path fill="none" stroke="#b82d26" stroke-width="2" d="M895,-167C964.027,-167 968.448,-103.553 1034.95,-101.075"/>
<ellipse fill="#b82d26" stroke="#b82d26" stroke-width="2" cx="1037" cy="-101.037" rx="2" ry="2"/>
</g>
<!-- #anon:54:24&#45;&gt;note -->
<g id="edge11" class="edge"><title>#anon:54:24:OUT_OUT:e&#45;&gt;note:IN_IN:w</title>
<path fill="none" stroke="#56527c" stroke-width="2" d="M1147,-167C1178.89,-167 1166.85,-117.541 1194.96,-113.291"/>
<ellipse fill="#56527c" stroke="#56527c" stroke-width="2" cx="1197.01" cy="-113.144" rx="2" ry="2"/>
</g>
<!-- http_state&#45;&gt;controller -->
<g id="edge21" class="edge"><title>http_state:OUT_OUT:e&#45;&gt;controller:IN_STATE:w</title>
<path fill="none" stroke="#097fa4" stroke-width="2" d="M578,-80C624.898,-80 614.374,-145.016 657.908,-148.826"/>
<ellipse fill="#097fa4" stroke="#097fa4" stroke-width="2" cx="660.002" cy="-148.915" rx="2" ry="2"/>
</g>
<!-- #anon:67:24 -->
<g id="node18" class="node"><title>#anon:67:24</title>
<polygon fill="#bd648a" stroke="none" points="778,-85 778,-107 936,-107 936,-85 778,-85"/>
<polygon fill="none" stroke="#4e2a39" points="778,-85 778,-107 936,-107 936,-85 778,-85"/>
<text text-anchor="start" x="781.5" y="-92.3" font-family="Helvetica,sans-Serif" font-size="14.00" fill="#000000">converter/empty&#45;to&#45;string</text>
<polygon fill="#8d4b67" stroke="none" points="778,-68 778,-85 936,-85 936,-68 778,-68"/>
<polygon fill="none" stroke="#4e2a39" points="778,-68 778,-85 936,-85 936,-68 778,-68"/>
<text text-anchor="start" x="781" y="-74" font-family="Helvetica,sans-Serif" font-size="10.00" fill="#ffffff">◎ IN</text>
<polygon fill="#69384d" stroke="none" points="778,-51 778,-68 936,-68 936,-51 778,-51"/>
<polygon fill="none" stroke="#4e2a39" points="778,-51 778,-68 936,-68 936,-51 778,-51"/>
<text text-anchor="start" x="900" y="-57" font-family="Helvetica,sans-Serif" font-size="10.00" fill="#ffffff">OUT ◉</text>
</g>
<!-- http_state&#45;&gt;#anon:67:24 -->
<g id="edge17" class="edge"><title>http_state:OUT_ERROR:e&#45;&gt;#anon:67:24:IN_IN:w</title>
<path fill="none" stroke="#9e3f8e" stroke-width="2" d="M578,-97C665.546,-97 687.388,-76.6511 772.88,-76.0152"/>
<ellipse fill="#9e3f8e" stroke="#9e3f8e" stroke-width="2" cx="775" cy="-76.0074" rx="2" ry="2"/>
</g>
<!-- #anon:73:22 -->
<g id="node19" class="node"><title>#anon:73:22</title>
<polygon fill="#471ca4" stroke="none" points="667,-20 667,-42 721,-42 721,-20 667,-20"/>
<polygon fill="none" stroke="#1d0b45" points="667,-20 667,-42 721,-42 721,-20 667,-20"/>
<text text-anchor="start" x="670.5" y="-27.3" font-family="Helvetica,sans-Serif" font-size="14.00" fill="#ffffff">console</text>
<polygon fill="#35157b" stroke="none" points="667,-3 667,-20 721,-20 721,-3 667,-3"/>
<polygon fill="none" stroke="#1d0b45" points="667,-3 667,-20 721,-20 721,-3 667,-3"/>
<text text-anchor="start" x="670" y="-9" font-family="Helvetica,sans-Serif" font-size="10.00" fill="#ffffff">◎ IN</text>
</g>
<!-- http_state&#45;&gt;#anon:73:22 -->
<g id="edge22" class="edge"><title>http_state:OUT_OUT:e&#45;&gt;#anon:73:22:IN_IN:w</title>
<path fill="none" stroke="#4b4291" stroke-width="2" d="M578,-80C626.244,-80 616.915,-14.9837 661.786,-11.1742"/>
<ellipse fill="#4b4291" stroke="#4b4291" stroke-width="2" cx="664.002" cy="-11.0827" rx="2" ry="2"/>
</g>
<!-- #anon:67:24&#45;&gt;note -->
<g id="edge18" class="edge"><title>#anon:67:24:OUT_OUT:e&#45;&gt;note:IN_IN:w</title>
<path fill="none" stroke="#1c68ce" stroke-width="2" d="M937,-59C1033.9,-59 1063.47,-45.4486 1154,-80 1175.81,-88.3257 1174.46,-110.222 1194.92,-112.759"/>
<ellipse fill="#1c68ce" stroke="#1c68ce" stroke-width="2" cx="1197" cy="-112.882" rx="2" ry="2"/>
</g>
</g>
</svg>
