<?xml version="1.0" encoding="UTF-8" standalone="no"?>
<!DOCTYPE svg PUBLIC "-//W3C//DTD SVG 1.1//EN"
 "http://www.w3.org/Graphics/SVG/1.1/DTD/svg11.dtd">
<!-- Generated by graphviz version 2.36.0 (20140111.2315)
 -->
<!-- Title: fbp Pages: 1 -->
<svg width="734pt" height="390pt"
 viewBox="0.00 0.00 734.00 390.00" xmlns="http://www.w3.org/2000/svg" xmlns:xlink="http://www.w3.org/1999/xlink">
<g id="graph0" class="graph" transform="scale(1 1) rotate(0) translate(4 386)">
<title>fbp</title>
<polygon fill="white" stroke="none" points="-4,4 -4,-386 730,-386 730,4 -4,4"/>
<!-- cmdline_arguments -->
<g id="node1" class="node"><title>cmdline_arguments</title>
<polygon fill="#4e2e10" stroke="none" points="139,-263 139,-292 266,-292 266,-263 139,-263"/>
<polygon fill="none" stroke="#201206" points="139,-263 139,-292 266,-292 266,-263 139,-263"/>
<text text-anchor="start" x="142.5" y="-278.3" font-family="Helvetica,sans-Serif" font-size="14.00" fill="#ffffff">cmdline_arguments</text>
<text text-anchor="start" x="177" y="-269.1" font-family="Helvetica,sans-Serif" font-size="8.00" fill="#ffffff">app/argc&#45;argv</text>
<polygon fill="#3a220c" stroke="none" points="139,-246 139,-263 266,-263 266,-246 139,-246"/>
<polygon fill="none" stroke="#201206" points="139,-246 139,-263 266,-263 266,-246 139,-246"/>
<text text-anchor="start" x="142" y="-252" font-family="Helvetica,sans-Serif" font-size="10.00" fill="#ffffff">◎ IN</text>
<polygon fill="#2b1909" stroke="none" points="139,-229 139,-246 266,-246 266,-229 139,-229"/>
<polygon fill="none" stroke="#201206" points="139,-229 139,-246 266,-246 266,-229 139,-229"/>
<text text-anchor="start" x="214" y="-235" font-family="Helvetica,sans-Serif" font-size="10.00" fill="#ffffff">ERROR ◉</text>
<polygon fill="#2b1909" stroke="none" points="139,-212 139,-229 266,-229 266,-212 139,-212"/>
<polygon fill="none" stroke="#201206" points="139,-212 139,-229 266,-229 266,-212 139,-212"/>
<text text-anchor="start" x="230" y="-218" font-family="Helvetica,sans-Serif" font-size="10.00" fill="#ffffff">OUT ◉</text>
</g>
<!-- cmdline_usage -->
<g id="node2" class="node"><title>cmdline_usage</title>
<polygon fill="#bd648a" stroke="none" points="319,-290 319,-319 418,-319 418,-290 319,-290"/>
<polygon fill="none" stroke="#4e2a39" points="319,-290 319,-319 418,-319 418,-290 319,-290"/>
<text text-anchor="start" x="322.5" y="-305.3" font-family="Helvetica,sans-Serif" font-size="14.00" fill="#000000">cmdline_usage</text>
<text text-anchor="start" x="323" y="-296.1" font-family="Helvetica,sans-Serif" font-size="8.00" fill="#000000">converter/empty&#45;to&#45;string</text>
<polygon fill="#8d4b67" stroke="none" points="319,-273 319,-290 418,-290 418,-273 319,-273"/>
<polygon fill="none" stroke="#4e2a39" points="319,-273 319,-290 418,-290 418,-273 319,-273"/>
<text text-anchor="start" x="322" y="-279" font-family="Helvetica,sans-Serif" font-size="10.00" fill="#ffffff">◎ IN</text>
<polygon fill="#69384d" stroke="none" points="319,-256 319,-273 418,-273 418,-256 319,-256"/>
<polygon fill="none" stroke="#4e2a39" points="319,-256 319,-273 418,-273 418,-256 319,-256"/>
<text text-anchor="start" x="382" y="-262" font-family="Helvetica,sans-Serif" font-size="10.00" fill="#ffffff">OUT ◉</text>
</g>
<!-- cmdline_arguments&#45;&gt;cmdline_usage -->
<g id="edge1" class="edge"><title>cmdline_arguments:OUT_ERROR:e&#45;&gt;cmdline_usage:IN_IN:w</title>
<path fill="none" stroke="#d666ac" stroke-width="2" d="M267,-237C295.416,-237 288.865,-276.645 313.729,-280.671"/>
<ellipse fill="#d666ac" stroke="#d666ac" stroke-width="2" cx="316.006" cy="-280.846" rx="2" ry="2"/>
</g>
<!-- oic -->
<g id="node9" class="node"><title>oic</title>
<polygon fill="#066c96" stroke="none" points="332,-184 332,-213 405,-213 405,-184 332,-184"/>
<polygon fill="none" stroke="#022d3f" points="332,-184 332,-213 405,-213 405,-184 332,-184"/>
<text text-anchor="start" x="359.5" y="-199.3" font-family="Helvetica,sans-Serif" font-size="14.00" fill="#ffffff">oic</text>
<text text-anchor="start" x="344.5" y="-190.1" font-family="Helvetica,sans-Serif" font-size="8.00" fill="#ffffff">oic/client&#45;light</text>
<polygon fill="#045170" stroke="none" points="332,-167 332,-184 405,-184 405,-167 332,-167"/>
<polygon fill="none" stroke="#022d3f" points="332,-167 332,-184 405,-184 405,-167 332,-167"/>
<text text-anchor="start" x="335" y="-173" font-family="Helvetica,sans-Serif" font-size="10.00" fill="#ffffff">◎ DEVICE_ID</text>
<polygon fill="#045170" stroke="none" points="332,-150 332,-167 405,-167 405,-150 332,-150"/>
<polygon fill="none" stroke="#022d3f" points="332,-150 332,-167 405,-167 405,-150 332,-150"/>
<text text-anchor="start" x="335" y="-156" font-family="Helvetica,sans-Serif" font-size="10.00" fill="#ffffff">◎ STATE</text>
<polygon fill="#045170" stroke="none" points="332,-133 332,-150 405,-150 405,-133 332,-133"/>
<polygon fill="none" stroke="#022d3f" points="332,-133 332,-150 405,-150 405,-133 332,-133"/>
<text text-anchor="start" x="335" y="-139" font-family="Helvetica,sans-Serif" font-size="10.00" fill="#ffffff">◎ POWER</text>
<polygon fill="#033c54" stroke="none" points="332,-116 332,-133 405,-133 405,-116 332,-116"/>
<polygon fill="none" stroke="#022d3f" points="332,-116 332,-133 405,-133 405,-116 332,-116"/>
<text text-anchor="start" x="358" y="-122" font-family="Helvetica,sans-Serif" font-size="10.00" fill="#ffffff">STATE ◉</text>
<polygon fill="#033c54" stroke="none" points="332,-99 332,-116 405,-116 405,-99 332,-99"/>
<polygon fill="none" stroke="#022d3f" points="332,-99 332,-116 405,-116 405,-99 332,-99"/>
<text text-anchor="start" x="352" y="-105" font-family="Helvetica,sans-Serif" font-size="10.00" fill="#ffffff">POWER ◉</text>
</g>
<!-- cmdline_arguments&#45;&gt;oic -->
<g id="edge6" class="edge"><title>cmdline_arguments:OUT_OUT:e&#45;&gt;oic:IN_DEVICE_ID:w</title>
<path fill="none" stroke="#2bb7e6" stroke-width="2" d="M267,-220C300.035,-220 296.842,-179.7 326.763,-176.237"/>
<ellipse fill="#2bb7e6" stroke="#2bb7e6" stroke-width="2" cx="329.003" cy="-176.112" rx="2" ry="2"/>
</g>
<!-- #anon:29:178 -->
<g id="node3" class="node"><title>#anon:29:178</title>
<polygon fill="#471ca4" stroke="none" points="513,-273 513,-295 567,-295 567,-273 513,-273"/>
<polygon fill="none" stroke="#1d0b45" points="513,-273 513,-295 567,-295 567,-273 513,-273"/>
<text text-anchor="start" x="516.5" y="-280.3" font-family="Helvetica,sans-Serif" font-size="14.00" fill="#ffffff">console</text>
<polygon fill="#35157b" stroke="none" points="513,-256 513,-273 567,-273 567,-256 513,-256"/>
<polygon fill="none" stroke="#1d0b45" points="513,-256 513,-273 567,-273 567,-256 513,-256"/>
<text text-anchor="start" x="516" y="-262" font-family="Helvetica,sans-Serif" font-size="10.00" fill="#ffffff">◎ IN</text>
</g>
<!-- cmdline_usage&#45;&gt;#anon:29:178 -->
<g id="edge2" class="edge"><title>cmdline_usage:OUT_OUT:e&#45;&gt;#anon:29:178:IN_IN:w</title>
<path fill="none" stroke="#3b5f37" stroke-width="2" d="M419,-264C458.88,-264 469.902,-264 507.753,-264"/>
<ellipse fill="#3b5f37" stroke="#3b5f37" stroke-width="2" cx="510" cy="-264" rx="2" ry="2"/>
</g>
<!-- #anon:30:25 -->
<g id="node4" class="node"><title>#anon:30:25</title>
<polygon fill="#bd648a" stroke="none" points="470,-356 470,-378 610,-378 610,-356 470,-356"/>
<polygon fill="none" stroke="#4e2a39" points="470,-356 470,-378 610,-378 610,-356 470,-356"/>
<text text-anchor="start" x="473.5" y="-363.3" font-family="Helvetica,sans-Serif" font-size="14.00" fill="#000000">converter/empty&#45;to&#45;int</text>
<polygon fill="#8d4b67" stroke="none" points="470,-339 470,-356 610,-356 610,-339 470,-339"/>
<polygon fill="none" stroke="#4e2a39" points="470,-339 470,-356 610,-356 610,-339 470,-339"/>
<text text-anchor="start" x="473" y="-345" font-family="Helvetica,sans-Serif" font-size="10.00" fill="#ffffff">◎ IN</text>
<polygon fill="#69384d" stroke="none" points="470,-322 470,-339 610,-339 610,-322 470,-322"/>
<polygon fill="none" stroke="#4e2a39" points="470,-322 470,-339 610,-339 610,-322 470,-322"/>
<text text-anchor="start" x="574" y="-328" font-family="Helvetica,sans-Serif" font-size="10.00" fill="#ffffff">OUT ◉</text>
</g>
<!-- cmdline_usage&#45;&gt;#anon:30:25 -->
<g id="edge3" class="edge"><title>cmdline_usage:OUT_OUT:e&#45;&gt;#anon:30:25:IN_IN:w</title>
<path fill="none" stroke="#4a5acd" stroke-width="2" d="M419,-264C460.551,-264 428.377,-341.267 464.745,-346.699"/>
<ellipse fill="#4a5acd" stroke="#4a5acd" stroke-width="2" cx="467.005" cy="-346.859" rx="2" ry="2"/>
</g>
<!-- #anon:30:78 -->
<g id="node5" class="node"><title>#anon:30:78</title>
<polygon fill="#4e2e10" stroke="none" points="662,-339 662,-361 718,-361 718,-339 662,-339"/>
<polygon fill="none" stroke="#201206" points="662,-339 662,-361 718,-361 718,-339 662,-339"/>
<text text-anchor="start" x="665.5" y="-346.3" font-family="Helvetica,sans-Serif" font-size="14.00" fill="#ffffff">app/quit</text>
<polygon fill="#3a220c" stroke="none" points="662,-322 662,-339 718,-339 718,-322 662,-322"/>
<polygon fill="none" stroke="#201206" points="662,-322 662,-339 718,-339 718,-322 662,-322"/>
<text text-anchor="start" x="665" y="-328" font-family="Helvetica,sans-Serif" font-size="10.00" fill="#ffffff">◎ CODE</text>
</g>
<!-- #anon:30:25&#45;&gt;#anon:30:78 -->
<g id="edge4" class="edge"><title>#anon:30:25:OUT_OUT:e&#45;&gt;#anon:30:78:IN_CODE:w</title>
<path fill="none" stroke="#1d49e5" stroke-width="2" d="M611,-330C631.66,-330 637.914,-330 656.548,-330"/>
<ellipse fill="#1d49e5" stroke="#1d49e5" stroke-width="2" cx="659" cy="-330" rx="2" ry="2"/>
</g>
<!-- #anon:32:1 -->
<g id="node6" class="node"><title>#anon:32:1</title>
<polygon fill="#e8ea7a" stroke="none" points="9,-264 9,-286 86,-286 86,-264 9,-264"/>
<polygon fill="none" stroke="#616233" points="9,-264 9,-286 86,-286 86,-264 9,-264"/>
<text text-anchor="start" x="12.5" y="-271.3" font-family="Helvetica,sans-Serif" font-size="14.00" fill="#000000">constant/int</text>
<polygon fill="#828344" stroke="none" points="9,-247 9,-264 86,-264 86,-247 9,-247"/>
<polygon fill="none" stroke="#616233" points="9,-247 9,-264 86,-264 86,-247 9,-247"/>
<text text-anchor="start" x="50" y="-253" font-family="Helvetica,sans-Serif" font-size="10.00" fill="#ffffff">OUT ◉</text>
</g>
<!-- #anon:32:1&#45;&gt;cmdline_arguments -->
<g id="edge5" class="edge"><title>#anon:32:1:OUT_OUT:e&#45;&gt;cmdline_arguments:IN_IN:w</title>
<path fill="none" stroke="#d11fd0" stroke-width="2" d="M87,-255C108.25,-255 114.559,-255 133.941,-255"/>
<ellipse fill="#d11fd0" stroke="#d11fd0" stroke-width="2" cx="136" cy="-255" rx="2" ry="2"/>
</g>
<!-- controller -->
<g id="node7" class="node"><title>controller</title>
<polygon fill="#197112" stroke="none" points="509,-201 509,-230 572,-230 572,-201 509,-201"/>
<polygon fill="none" stroke="#092f06" points="509,-201 509,-230 572,-230 572,-201 509,-201"/>
<text text-anchor="start" x="512.5" y="-216.3" font-family="Helvetica,sans-Serif" font-size="14.00" fill="#ffffff">controller</text>
<text text-anchor="start" x="523.5" y="-207.1" font-family="Helvetica,sans-Serif" font-size="8.00" fill="#ffffff">controller</text>
<polygon fill="#12540d" stroke="none" points="509,-184 509,-201 572,-201 572,-184 509,-184"/>
<polygon fill="none" stroke="#092f06" points="509,-184 509,-201 572,-201 572,-184 509,-184"/>
<text text-anchor="start" x="512" y="-190" font-family="Helvetica,sans-Serif" font-size="10.00" fill="#ffffff">◎ STATE</text>
<polygon fill="#12540d" stroke="none" points="509,-167 509,-184 572,-184 572,-167 509,-167"/>
<polygon fill="none" stroke="#092f06" points="509,-167 509,-184 572,-184 572,-167 509,-167"/>
<text text-anchor="start" x="512" y="-173" font-family="Helvetica,sans-Serif" font-size="10.00" fill="#ffffff">◎ POWER</text>
<polygon fill="#0d3f09" stroke="none" points="509,-150 509,-167 572,-167 572,-150 509,-150"/>
<polygon fill="none" stroke="#092f06" points="509,-150 509,-167 572,-167 572,-150 509,-150"/>
<text text-anchor="start" x="525" y="-156" font-family="Helvetica,sans-Serif" font-size="10.00" fill="#ffffff">STATE ◉</text>
<polygon fill="#0d3f09" stroke="none" points="509,-133 509,-150 572,-150 572,-133 509,-133"/>
<polygon fill="none" stroke="#092f06" points="509,-133 509,-150 572,-150 572,-133 509,-133"/>
<text text-anchor="start" x="519" y="-139" font-family="Helvetica,sans-Serif" font-size="10.00" fill="#ffffff">POWER ◉</text>
</g>
<!-- controller&#45;&gt;oic -->
<g id="edge9" class="edge"><title>controller:OUT_STATE:e&#45;&gt;oic:IN_STATE:w</title>
<path fill="none" stroke="#c087aa" stroke-width="2" d="M573,-158C585.674,-158 581.118,-138.304 572,-129.5 560.49,-118.386 514.773,-123.356 500,-129.5 449.364,-150.559 463.636,-195.941 413,-217 379.76,-230.824 357.674,-242.235 332,-217 314.691,-199.986 306.236,-163.604 326.815,-159.399"/>
<ellipse fill="#c087aa" stroke="#c087aa" stroke-width="2" cx="329.009" cy="-159.19" rx="2" ry="2"/>
</g>
<!-- controller&#45;&gt;oic -->
<g id="edge10" class="edge"><title>controller:OUT_POWER:e&#45;&gt;oic:IN_POWER:w</title>
<path fill="none" stroke="#bb51f8" stroke-width="2" d="M573,-141C578.13,-141 575.629,-133.127 572,-129.5 554.646,-112.156 485.587,-126.756 462,-120 438.497,-113.268 436.771,-100.714 413,-95 377.997,-86.5865 357.731,-69.8223 332,-95 318.526,-108.184 311.666,-136.153 326.697,-140.443"/>
<ellipse fill="#bb51f8" stroke="#bb51f8" stroke-width="2" cx="329.017" cy="-140.743" rx="2.00001" ry="2.00001"/>
</g>
<!-- note -->
<g id="node8" class="node"><title>note</title>
<polygon fill="#471ca4" stroke="none" points="30,-312 30,-341 65,-341 65,-312 30,-312"/>
<polygon fill="none" stroke="#1d0b45" points="30,-312 30,-341 65,-341 65,-312 30,-312"/>
<text text-anchor="start" x="34" y="-327.3" font-family="Helvetica,sans-Serif" font-size="14.00" fill="#ffffff">note</text>
<text text-anchor="start" x="33.5" y="-318.1" font-family="Helvetica,sans-Serif" font-size="8.00" fill="#ffffff">console</text>
</g>
<!-- oic&#45;&gt;controller -->
<g id="edge7" class="edge"><title>oic:OUT_STATE:e&#45;&gt;controller:IN_STATE:w</title>
<path fill="none" stroke="#5f9606" stroke-width="2" d="M406,-124C459.342,-124 453.607,-189.541 503.949,-192.869"/>
<ellipse fill="#5f9606" stroke="#5f9606" stroke-width="2" cx="506.001" cy="-192.935" rx="2" ry="2"/>
</g>
<!-- oic&#45;&gt;controller -->
<g id="edge8" class="edge"><title>oic:OUT_POWER:e&#45;&gt;controller:IN_POWER:w</title>
<path fill="none" stroke="#244054" stroke-width="2" d="M406,-107C459.101,-107 453.83,-171.591 503.967,-174.871"/>
<ellipse fill="#244054" stroke="#244054" stroke-width="2" cx="506.001" cy="-174.936" rx="2" ry="2"/>
</g>
<!-- #anon:50:17 -->
<g id="node10" class="node"><title>#anon:50:17</title>
<polygon fill="#471ca4" stroke="none" points="513,-85 513,-107 567,-107 567,-85 513,-85"/>
<polygon fill="none" stroke="#1d0b45" points="513,-85 513,-107 567,-107 567,-85 513,-85"/>
<text text-anchor="start" x="516.5" y="-92.3" font-family="Helvetica,sans-Serif" font-size="14.00" fill="#ffffff">console</text>
<polygon fill="#35157b" stroke="none" points="513,-68 513,-85 567,-85 567,-68 513,-68"/>
<polygon fill="none" stroke="#1d0b45" points="513,-68 513,-85 567,-85 567,-68 513,-68"/>
<text text-anchor="start" x="516" y="-74" font-family="Helvetica,sans-Serif" font-size="10.00" fill="#ffffff">◎ IN</text>
</g>
<!-- oic&#45;&gt;#anon:50:17 -->
<g id="edge11" class="edge"><title>oic:OUT_STATE:e&#45;&gt;#anon:50:17:IN_IN:w</title>
<path fill="none" stroke="#75e35e" stroke-width="2" d="M406,-124C456.302,-124 460.107,-78.5891 507.866,-76.1057"/>
<ellipse fill="#75e35e" stroke="#75e35e" stroke-width="2" cx="510.001" cy="-76.0512" rx="2" ry="2"/>
</g>
<!-- #anon:51:17 -->
<g id="node11" class="node"><title>#anon:51:17</title>
<polygon fill="#471ca4" stroke="none" points="513,-20 513,-42 567,-42 567,-20 513,-20"/>
<polygon fill="none" stroke="#1d0b45" points="513,-20 513,-42 567,-42 567,-20 513,-20"/>
<text text-anchor="start" x="516.5" y="-27.3" font-family="Helvetica,sans-Serif" font-size="14.00" fill="#ffffff">console</text>
<polygon fill="#35157b" stroke="none" points="513,-3 513,-20 567,-20 567,-3 513,-3"/>
<polygon fill="none" stroke="#1d0b45" points="513,-3 513,-20 567,-20 567,-3 513,-3"/>
<text text-anchor="start" x="516" y="-9" font-family="Helvetica,sans-Serif" font-size="10.00" fill="#ffffff">◎ IN</text>
</g>
<!-- oic&#45;&gt;#anon:51:17 -->
<g id="edge12" class="edge"><title>oic:OUT_POWER:e&#45;&gt;#anon:51:17:IN_IN:w</title>
<path fill="none" stroke="#d32b80" stroke-width="2" d="M406,-107C468.071,-107 449.383,-15.4473 507.668,-11.1557"/>
<ellipse fill="#d32b80" stroke="#d32b80" stroke-width="2" cx="510.001" cy="-11.0719" rx="2" ry="2"/>
</g>
</g>
</svg>
