<?xml version="1.0" encoding="UTF-8" standalone="no"?>
<!DOCTYPE svg PUBLIC "-//W3C//DTD SVG 1.1//EN"
 "http://www.w3.org/Graphics/SVG/1.1/DTD/svg11.dtd">
<!-- Generated by graphviz version 2.36.0 (20140111.2315)
 -->
<!-- Title: fbp Pages: 1 -->
<svg width="226pt" height="232pt"
 viewBox="0.00 0.00 226.00 232.00" xmlns="http://www.w3.org/2000/svg" xmlns:xlink="http://www.w3.org/1999/xlink">
<g id="graph0" class="graph" transform="scale(1 1) rotate(0) translate(4 228)">
<title>fbp</title>
<polygon fill="white" stroke="none" points="-4,4 -4,-228 222,-228 222,4 -4,4"/>
<!-- power -->
<g id="node1" class="node"><title>power</title>
<polygon fill="#22960c" stroke="none" points="28,-37 28,-66 85,-66 85,-37 28,-37"/>
<polygon fill="none" stroke="#0d3f04" points="28,-37 28,-66 85,-66 85,-37 28,-37"/>
<text text-anchor="start" x="38" y="-52.3" font-family="Helvetica,sans-Serif" font-size="14.00" fill="#ffffff">power</text>
<text text-anchor="start" x="31.5" y="-43.1" font-family="Helvetica,sans-Serif" font-size="8.00" fill="#ffffff">http&#45;server/int</text>
<polygon fill="#197009" stroke="none" points="28,-20 28,-37 85,-37 85,-20 28,-20"/>
<polygon fill="none" stroke="#0d3f04" points="28,-20 28,-37 85,-37 85,-20 28,-20"/>
<text text-anchor="start" x="31" y="-26" font-family="Helvetica,sans-Serif" font-size="10.00" fill="#ffffff">◎ IN</text>
<polygon fill="#125406" stroke="none" points="28,-3 28,-20 85,-20 85,-3 28,-3"/>
<polygon fill="none" stroke="#0d3f04" points="28,-3 28,-20 85,-20 85,-3 28,-3"/>
<text text-anchor="start" x="49" y="-9" font-family="Helvetica,sans-Serif" font-size="10.00" fill="#ffffff">OUT ◉</text>
</g>
<!-- state -->
<g id="node2" class="node"><title>state</title>
<polygon fill="#22960c" stroke="none" points="18,-126 18,-155 95,-155 95,-126 18,-126"/>
<polygon fill="none" stroke="#0d3f04" points="18,-126 18,-155 95,-155 95,-126 18,-126"/>
<text text-anchor="start" x="41.5" y="-141.3" font-family="Helvetica,sans-Serif" font-size="14.00" fill="#ffffff">state</text>
<text text-anchor="start" x="21.5" y="-132.1" font-family="Helvetica,sans-Serif" font-size="8.00" fill="#ffffff">http&#45;server/boolean</text>
<polygon fill="#197009" stroke="none" points="18,-109 18,-126 95,-126 95,-109 18,-109"/>
<polygon fill="none" stroke="#0d3f04" points="18,-109 18,-126 95,-126 95,-109 18,-109"/>
<text text-anchor="start" x="21" y="-115" font-family="Helvetica,sans-Serif" font-size="10.00" fill="#ffffff">◎ IN</text>
<polygon fill="#125406" stroke="none" points="18,-92 18,-109 95,-109 95,-92 18,-92"/>
<polygon fill="none" stroke="#0d3f04" points="18,-92 18,-109 95,-109 95,-92 18,-92"/>
<text text-anchor="start" x="59" y="-98" font-family="Helvetica,sans-Serif" font-size="10.00" fill="#ffffff">OUT ◉</text>
</g>
<!-- #anon:39:1 -->
<g id="node3" class="node"><title>#anon:39:1</title>
<polygon fill="#e8ea7a" stroke="none" points="9,-198 9,-220 104,-220 104,-198 9,-198"/>
<polygon fill="none" stroke="#616233" points="9,-198 9,-220 104,-220 104,-198 9,-198"/>
<text text-anchor="start" x="12.5" y="-205.3" font-family="Helvetica,sans-Serif" font-size="14.00" fill="#000000">constant/string</text>
<polygon fill="#828344" stroke="none" points="9,-181 9,-198 104,-198 104,-181 9,-181"/>
<polygon fill="none" stroke="#616233" points="9,-181 9,-198 104,-198 104,-181 9,-181"/>
<text text-anchor="start" x="68" y="-187" font-family="Helvetica,sans-Serif" font-size="10.00" fill="#ffffff">OUT ◉</text>
</g>
<!-- #anon:39:103 -->
<g id="node4" class="node"><title>#anon:39:103</title>
<polygon fill="#471ca4" stroke="none" points="156,-198 156,-220 210,-220 210,-198 156,-198"/>
<polygon fill="none" stroke="#1d0b45" points="156,-198 156,-220 210,-220 210,-198 156,-198"/>
<text text-anchor="start" x="159.5" y="-205.3" font-family="Helvetica,sans-Serif" font-size="14.00" fill="#ffffff">console</text>
<polygon fill="#35157b" stroke="none" points="156,-181 156,-198 210,-198 210,-181 156,-181"/>
<polygon fill="none" stroke="#1d0b45" points="156,-181 156,-198 210,-198 210,-181 156,-181"/>
<text text-anchor="start" x="159" y="-187" font-family="Helvetica,sans-Serif" font-size="10.00" fill="#ffffff">◎ IN</text>
</g>
<!-- #anon:39:1&#45;&gt;#anon:39:103 -->
<g id="edge1" class="edge"><title>#anon:39:1:OUT_OUT:e&#45;&gt;#anon:39:103:IN_IN:w</title>
<path fill="none" stroke="#228ec0" stroke-width="2" d="M105,-189C125.66,-189 131.914,-189 150.548,-189"/>
<ellipse fill="#228ec0" stroke="#228ec0" stroke-width="2" cx="153" cy="-189" rx="2" ry="2"/>
</g>
</g>
</svg>
