<?xml version="1.0" encoding="UTF-8" standalone="no"?>
<!DOCTYPE svg PUBLIC "-//W3C//DTD SVG 1.1//EN"
 "http://www.w3.org/Graphics/SVG/1.1/DTD/svg11.dtd">
<!-- Generated by graphviz version 2.36.0 (20140111.2315)
 -->
<!-- Title: fbp Pages: 1 -->
<svg width="306pt" height="445pt"
 viewBox="0.00 0.00 306.00 445.00" xmlns="http://www.w3.org/2000/svg" xmlns:xlink="http://www.w3.org/1999/xlink">
<g id="graph0" class="graph" transform="scale(1 1) rotate(0) translate(4 441)">
<title>fbp</title>
<polygon fill="white" stroke="none" points="-4,4 -4,-441 302,-441 302,4 -4,4"/>
<!-- oic_server -->
<g id="node1" class="node"><title>oic_server</title>
<polygon fill="#066c96" stroke="none" points="37,-250 37,-279 107,-279 107,-250 37,-250"/>
<polygon fill="none" stroke="#022d3f" points="37,-250 37,-279 107,-279 107,-250 37,-250"/>
<text text-anchor="start" x="40.5" y="-265.3" font-family="Helvetica,sans-Serif" font-size="14.00" fill="#ffffff">oic_server</text>
<text text-anchor="start" x="46" y="-256.1" font-family="Helvetica,sans-Serif" font-size="8.00" fill="#ffffff">oic/server&#45;light</text>
<polygon fill="#045170" stroke="none" points="37,-233 37,-250 107,-250 107,-233 37,-233"/>
<polygon fill="none" stroke="#022d3f" points="37,-233 37,-250 107,-250 107,-233 37,-233"/>
<text text-anchor="start" x="40" y="-239" font-family="Helvetica,sans-Serif" font-size="10.00" fill="#ffffff">◎ POWER</text>
<polygon fill="#045170" stroke="none" points="37,-216 37,-233 107,-233 107,-216 37,-216"/>
<polygon fill="none" stroke="#022d3f" points="37,-216 37,-233 107,-233 107,-216 37,-216"/>
<text text-anchor="start" x="40" y="-222" font-family="Helvetica,sans-Serif" font-size="10.00" fill="#ffffff">◎ STATE</text>
<polygon fill="#033c54" stroke="none" points="37,-199 37,-216 107,-216 107,-199 37,-199"/>
<polygon fill="none" stroke="#022d3f" points="37,-199 37,-216 107,-216 107,-199 37,-199"/>
<text text-anchor="start" x="54" y="-205" font-family="Helvetica,sans-Serif" font-size="10.00" fill="#ffffff">POWER ◉</text>
<polygon fill="#033c54" stroke="none" points="37,-182 37,-199 107,-199 107,-182 37,-182"/>
<polygon fill="none" stroke="#022d3f" points="37,-182 37,-199 107,-199 107,-182 37,-182"/>
<text text-anchor="start" x="60" y="-188" font-family="Helvetica,sans-Serif" font-size="10.00" fill="#ffffff">STATE ◉</text>
</g>
<!-- http_server -->
<g id="node2" class="node"><title>http_server</title>
<polygon fill="#46f3d6" stroke="none" points="202,-216 202,-245 277,-245 277,-216 202,-216"/>
<polygon fill="none" stroke="#1d665a" points="202,-216 202,-245 277,-245 277,-216 202,-216"/>
<text text-anchor="start" x="205.5" y="-231.3" font-family="Helvetica,sans-Serif" font-size="14.00" fill="#000000">http_server</text>
<text text-anchor="start" x="211" y="-222.1" font-family="Helvetica,sans-Serif" font-size="8.00" fill="#000000">http&#45;light&#45;server</text>
<polygon fill="#34b6a0" stroke="none" points="202,-199 202,-216 277,-216 277,-199 202,-199"/>
<polygon fill="none" stroke="#1d665a" points="202,-199 202,-216 277,-216 277,-199 202,-199"/>
<text text-anchor="start" x="205" y="-205" font-family="Helvetica,sans-Serif" font-size="10.00" fill="#000000">◎ POWER</text>
<polygon fill="#34b6a0" stroke="none" points="202,-182 202,-199 277,-199 277,-182 202,-182"/>
<polygon fill="none" stroke="#1d665a" points="202,-182 202,-199 277,-199 277,-182 202,-182"/>
<text text-anchor="start" x="205" y="-188" font-family="Helvetica,sans-Serif" font-size="10.00" fill="#000000">◎ STATE</text>
<polygon fill="#278878" stroke="none" points="202,-165 202,-182 277,-182 277,-165 202,-165"/>
<polygon fill="none" stroke="#1d665a" points="202,-165 202,-182 277,-182 277,-165 202,-165"/>
<text text-anchor="start" x="224" y="-171" font-family="Helvetica,sans-Serif" font-size="10.00" fill="#ffffff">POWER ◉</text>
<polygon fill="#278878" stroke="none" points="202,-148 202,-165 277,-165 277,-148 202,-148"/>
<polygon fill="none" stroke="#1d665a" points="202,-148 202,-165 277,-165 277,-148 202,-148"/>
<text text-anchor="start" x="230" y="-154" font-family="Helvetica,sans-Serif" font-size="10.00" fill="#ffffff">STATE ◉</text>
</g>
<!-- oic_server&#45;&gt;http_server -->
<g id="edge1" class="edge"><title>oic_server:OUT_POWER:e&#45;&gt;http_server:IN_POWER:w</title>
<path fill="none" stroke="#2e3e2a" stroke-width="2" d="M108,-207C147.883,-207 158.9,-207.931 196.753,-207.996"/>
<ellipse fill="#2e3e2a" stroke="#2e3e2a" stroke-width="2" cx="199" cy="-207.998" rx="2" ry="2"/>
</g>
<!-- oic_server&#45;&gt;http_server -->
<g id="edge2" class="edge"><title>oic_server:OUT_STATE:e&#45;&gt;http_server:IN_STATE:w</title>
<path fill="none" stroke="#033eda" stroke-width="2" d="M108,-190C147.88,-190 158.902,-190 196.753,-190"/>
<ellipse fill="#033eda" stroke="#033eda" stroke-width="2" cx="199" cy="-190" rx="2" ry="2"/>
</g>
<!-- persistence -->
<g id="node3" class="node"><title>persistence</title>
<polygon fill="#87078c" stroke="none" points="194,-339 194,-368 285,-368 285,-339 194,-339"/>
<polygon fill="none" stroke="#38023a" points="194,-339 194,-368 285,-368 285,-339 194,-339"/>
<text text-anchor="start" x="204.5" y="-354.3" font-family="Helvetica,sans-Serif" font-size="14.00" fill="#ffffff">persistence</text>
<text text-anchor="start" x="197.5" y="-345.1" font-family="Helvetica,sans-Serif" font-size="8.00" fill="#ffffff">persistence&#45;light&#45;server</text>
<polygon fill="#650569" stroke="none" points="194,-322 194,-339 285,-339 285,-322 194,-322"/>
<polygon fill="none" stroke="#38023a" points="194,-322 194,-339 285,-339 285,-322 194,-322"/>
<text text-anchor="start" x="197" y="-328" font-family="Helvetica,sans-Serif" font-size="10.00" fill="#ffffff">◎ POWER</text>
<polygon fill="#650569" stroke="none" points="194,-305 194,-322 285,-322 285,-305 194,-305"/>
<polygon fill="none" stroke="#38023a" points="194,-305 194,-322 285,-322 285,-305 194,-305"/>
<text text-anchor="start" x="197" y="-311" font-family="Helvetica,sans-Serif" font-size="10.00" fill="#ffffff">◎ STATE</text>
<polygon fill="#4b034e" stroke="none" points="194,-288 194,-305 285,-305 285,-288 194,-288"/>
<polygon fill="none" stroke="#38023a" points="194,-288 194,-305 285,-305 285,-288 194,-288"/>
<text text-anchor="start" x="232" y="-294" font-family="Helvetica,sans-Serif" font-size="10.00" fill="#ffffff">POWER ◉</text>
<polygon fill="#4b034e" stroke="none" points="194,-271 194,-288 285,-288 285,-271 194,-271"/>
<polygon fill="none" stroke="#38023a" points="194,-271 194,-288 285,-288 285,-271 194,-271"/>
<text text-anchor="start" x="238" y="-277" font-family="Helvetica,sans-Serif" font-size="10.00" fill="#ffffff">STATE ◉</text>
</g>
<!-- oic_server&#45;&gt;persistence -->
<g id="edge5" class="edge"><title>oic_server:OUT_POWER:e&#45;&gt;persistence:IN_POWER:w</title>
<path fill="none" stroke="#01284c" stroke-width="2" d="M108,-207C173.381,-207 128.22,-325.729 188.851,-330.831"/>
<ellipse fill="#01284c" stroke="#01284c" stroke-width="2" cx="191.002" cy="-330.918" rx="2" ry="2"/>
</g>
<!-- oic_server&#45;&gt;persistence -->
<g id="edge6" class="edge"><title>oic_server:OUT_STATE:e&#45;&gt;persistence:IN_STATE:w</title>
<path fill="none" stroke="#80c052" stroke-width="2" d="M108,-190C173.022,-190 128.555,-307.772 188.873,-312.832"/>
<ellipse fill="#80c052" stroke="#80c052" stroke-width="2" cx="191.002" cy="-312.919" rx="2" ry="2"/>
</g>
<!-- power_actuator -->
<g id="node4" class="node"><title>power_actuator</title>
<polygon fill="#dca0a2" stroke="none" points="189,-93 189,-122 290,-122 290,-93 189,-93"/>
<polygon fill="none" stroke="#5c4343" points="189,-93 189,-122 290,-122 290,-93 189,-93"/>
<text text-anchor="start" x="192.5" y="-108.3" font-family="Helvetica,sans-Serif" font-size="14.00" fill="#000000">power_actuator</text>
<text text-anchor="start" x="212.5" y="-99.1" font-family="Helvetica,sans-Serif" font-size="8.00" fill="#000000">PowerActuator</text>
<polygon fill="#a57879" stroke="none" points="189,-76 189,-93 290,-93 290,-76 189,-76"/>
<polygon fill="none" stroke="#5c4343" points="189,-76 189,-93 290,-93 290,-76 189,-76"/>
<text text-anchor="start" x="192" y="-82" font-family="Helvetica,sans-Serif" font-size="10.00" fill="#000000">◎ IN</text>
</g>
<!-- oic_server&#45;&gt;power_actuator -->
<g id="edge9" class="edge"><title>oic_server:OUT_POWER:e&#45;&gt;power_actuator:IN_IN:w</title>
<path fill="none" stroke="#0db042" stroke-width="2" d="M108,-207C171.811,-207 124.901,-89.2284 183.955,-84.1679"/>
<ellipse fill="#0db042" stroke="#0db042" stroke-width="2" cx="186.002" cy="-84.083" rx="2" ry="2"/>
</g>
<!-- state_actuator -->
<g id="node5" class="node"><title>state_actuator</title>
<polygon fill="#11731e" stroke="none" points="193,-21 193,-50 286,-50 286,-21 193,-21"/>
<polygon fill="none" stroke="#06300c" points="193,-21 193,-50 286,-50 286,-21 193,-21"/>
<text text-anchor="start" x="196.5" y="-36.3" font-family="Helvetica,sans-Serif" font-size="14.00" fill="#ffffff">state_actuator</text>
<text text-anchor="start" x="215" y="-27.1" font-family="Helvetica,sans-Serif" font-size="8.00" fill="#ffffff">StateActuator</text>
<polygon fill="#0c5616" stroke="none" points="193,-4 193,-21 286,-21 286,-4 193,-4"/>
<polygon fill="none" stroke="#06300c" points="193,-4 193,-21 286,-21 286,-4 193,-4"/>
<text text-anchor="start" x="196" y="-10" font-family="Helvetica,sans-Serif" font-size="10.00" fill="#ffffff">◎ IN</text>
</g>
<!-- oic_server&#45;&gt;state_actuator -->
<g id="edge10" class="edge"><title>oic_server:OUT_STATE:e&#45;&gt;state_actuator:IN_IN:w</title>
<path fill="none" stroke="#7352ea" stroke-width="2" d="M108,-190C193.94,-190 107.665,-18.2028 187.55,-12.1631"/>
<ellipse fill="#7352ea" stroke="#7352ea" stroke-width="2" cx="190.001" cy="-12.0733" rx="2" ry="2"/>
</g>
<!-- http_server&#45;&gt;oic_server -->
<g id="edge3" class="edge"><title>http_server:OUT_POWER:e&#45;&gt;oic_server:IN_POWER:w</title>
<path fill="none" stroke="#31151e" stroke-width="2" d="M278,-173C290.674,-173 286.118,-153.304 277,-144.5 263.571,-131.534 209.116,-135.08 193,-144.5 132.008,-180.15 175.992,-247.35 115,-283 85.0709,-300.494 61.8101,-307.212 37,-283 25.076,-271.363 18.8857,-246.744 31.8304,-242.599"/>
<ellipse fill="#31151e" stroke="#31151e" stroke-width="2" cx="34.0203" cy="-242.284" rx="2.00001" ry="2.00001"/>
</g>
<!-- http_server&#45;&gt;oic_server -->
<g id="edge4" class="edge"><title>http_server:OUT_STATE:e&#45;&gt;oic_server:IN_STATE:w</title>
<path fill="none" stroke="#1c15ee" stroke-width="2" d="M278,-156C292.879,-156 303.896,-132.555 193,-144.5 122.447,-152.099 82.1194,-123.731 37,-178.5 25.1437,-192.892 17.1075,-219.417 31.7713,-223.474"/>
<ellipse fill="#1c15ee" stroke="#1c15ee" stroke-width="2" cx="34.0153" cy="-223.753" rx="2.00001" ry="2.00001"/>
</g>
<!-- persistence&#45;&gt;oic_server -->
<g id="edge7" class="edge"><title>persistence:OUT_POWER:e&#45;&gt;oic_server:IN_POWER:w</title>
<path fill="none" stroke="#b94764" stroke-width="2" d="M286,-296C298.674,-296 294.118,-276.304 285,-267.5 269.013,-252.064 207.09,-265.084 185,-267.5 119.255,-274.692 84.333,-329.193 37,-283 25.076,-271.363 18.8857,-246.744 31.8304,-242.599"/>
<ellipse fill="#b94764" stroke="#b94764" stroke-width="2" cx="34.0203" cy="-242.284" rx="2.00001" ry="2.00001"/>
</g>
<!-- persistence&#45;&gt;oic_server -->
<g id="edge8" class="edge"><title>persistence:OUT_STATE:e&#45;&gt;oic_server:IN_STATE:w</title>
<path fill="none" stroke="#38af7a" stroke-width="2" d="M286,-279C291.13,-279 288.621,-271.134 285,-267.5 268.462,-250.905 200.696,-268.981 180,-258 139.684,-236.608 156.24,-198.052 115,-178.5 83.6753,-163.649 61.7809,-154.258 37,-178.5 23.6706,-191.54 16.8774,-219.206 31.7444,-223.449"/>
<ellipse fill="#38af7a" stroke="#38af7a" stroke-width="2" cx="34.0166" cy="-223.743" rx="2.00001" ry="2.00001"/>
</g>
<!-- #anon:62:1 -->
<g id="node6" class="node"><title>#anon:62:1</title>
<polygon fill="#b747fe" stroke="none" points="8,-411 8,-433 136,-433 136,-411 8,-411"/>
<polygon fill="none" stroke="#4c1d6a" points="8,-411 8,-433 136,-433 136,-411 8,-411"/>
<text text-anchor="start" x="11.5" y="-418.3" font-family="Helvetica,sans-Serif" font-size="14.00" fill="#ffffff">platform/machine&#45;id</text>
<polygon fill="#66278e" stroke="none" points="8,-394 8,-411 136,-411 136,-394 8,-394"/>
<polygon fill="none" stroke="#4c1d6a" points="8,-394 8,-411 136,-411 136,-394 8,-394"/>
<text text-anchor="start" x="100" y="-400" font-family="Helvetica,sans-Serif" font-size="10.00" fill="#ffffff">OUT ◉</text>
</g>
<!-- #anon:62:34 -->
<g id="node7" class="node"><title>#anon:62:34</title>
<polygon fill="#471ca4" stroke="none" points="212,-411 212,-433 266,-433 266,-411 212,-411"/>
<polygon fill="none" stroke="#1d0b45" points="212,-411 212,-433 266,-433 266,-411 212,-411"/>
<text text-anchor="start" x="215.5" y="-418.3" font-family="Helvetica,sans-Serif" font-size="14.00" fill="#ffffff">console</text>
<polygon fill="#35157b" stroke="none" points="212,-394 212,-411 266,-411 266,-394 212,-394"/>
<polygon fill="none" stroke="#1d0b45" points="212,-394 212,-411 266,-411 266,-394 212,-394"/>
<text text-anchor="start" x="215" y="-400" font-family="Helvetica,sans-Serif" font-size="10.00" fill="#ffffff">◎ IN</text>
</g>
<!-- #anon:62:1&#45;&gt;#anon:62:34 -->
<g id="edge11" class="edge"><title>#anon:62:1:OUT_OUT:e&#45;&gt;#anon:62:34:IN_IN:w</title>
<path fill="none" stroke="#d8531e" stroke-width="2" d="M137,-402C168.476,-402 177.359,-402 206.893,-402"/>
<ellipse fill="#d8531e" stroke="#d8531e" stroke-width="2" cx="209" cy="-402" rx="2" ry="2"/>
</g>
</g>
</svg>
