<?xml version="1.0" encoding="UTF-8" standalone="no"?>
<!DOCTYPE svg PUBLIC "-//W3C//DTD SVG 1.1//EN"
 "http://www.w3.org/Graphics/SVG/1.1/DTD/svg11.dtd">
<!-- Generated by graphviz version 2.36.0 (20140111.2315)
 -->
<!-- Title: fbp Pages: 1 -->
<svg width="104pt" height="167pt"
 viewBox="0.00 0.00 104.00 167.00" xmlns="http://www.w3.org/2000/svg" xmlns:xlink="http://www.w3.org/1999/xlink">
<g id="graph0" class="graph" transform="scale(1 1) rotate(0) translate(4 163)">
<title>fbp</title>
<polygon fill="white" stroke="none" points="-4,4 -4,-163 100,-163 100,4 -4,4"/>
<!-- power -->
<g id="node1" class="node"><title>power</title>
<polygon fill="#496902" stroke="none" points="19,-37 19,-66 78,-66 78,-37 19,-37"/>
<polygon fill="none" stroke="#1e2b00" points="19,-37 19,-66 78,-66 78,-37 19,-37"/>
<text text-anchor="start" x="30" y="-52.3" font-family="Helvetica,sans-Serif" font-size="14.00" fill="#ffffff">power</text>
<text text-anchor="start" x="22.5" y="-43.1" font-family="Helvetica,sans-Serif" font-size="8.00" fill="#ffffff">persistence/int</text>
<polygon fill="#364e01" stroke="none" points="19,-20 19,-37 78,-37 78,-20 19,-20"/>
<polygon fill="none" stroke="#1e2b00" points="19,-20 19,-37 78,-37 78,-20 19,-20"/>
<text text-anchor="start" x="22" y="-26" font-family="Helvetica,sans-Serif" font-size="10.00" fill="#ffffff">◎ IN</text>
<polygon fill="#283a00" stroke="none" points="19,-3 19,-20 78,-20 78,-3 19,-3"/>
<polygon fill="none" stroke="#1e2b00" points="19,-3 19,-20 78,-20 78,-3 19,-3"/>
<text text-anchor="start" x="42" y="-9" font-family="Helvetica,sans-Serif" font-size="10.00" fill="#ffffff">OUT ◉</text>
</g>
<!-- state -->
<g id="node2" class="node"><title>state</title>
<polygon fill="#496902" stroke="none" points="9,-126 9,-155 88,-155 88,-126 9,-126"/>
<polygon fill="none" stroke="#1e2b00" points="9,-126 9,-155 88,-155 88,-126 9,-126"/>
<text text-anchor="start" x="33.5" y="-141.3" font-family="Helvetica,sans-Serif" font-size="14.00" fill="#ffffff">state</text>
<text text-anchor="start" x="12.5" y="-132.1" font-family="Helvetica,sans-Serif" font-size="8.00" fill="#ffffff">persistence/boolean</text>
<polygon fill="#364e01" stroke="none" points="9,-109 9,-126 88,-126 88,-109 9,-109"/>
<polygon fill="none" stroke="#1e2b00" points="9,-109 9,-126 88,-126 88,-109 9,-109"/>
<text text-anchor="start" x="12" y="-115" font-family="Helvetica,sans-Serif" font-size="10.00" fill="#ffffff">◎ IN</text>
<polygon fill="#283a00" stroke="none" points="9,-92 9,-109 88,-109 88,-92 9,-92"/>
<polygon fill="none" stroke="#1e2b00" points="9,-92 9,-109 88,-109 88,-92 9,-92"/>
<text text-anchor="start" x="52" y="-98" font-family="Helvetica,sans-Serif" font-size="10.00" fill="#ffffff">OUT ◉</text>
</g>
</g>
</svg>
