<?xml version="1.0" encoding="UTF-8" standalone="no"?>
<!DOCTYPE svg PUBLIC "-//W3C//DTD SVG 1.1//EN"
 "http://www.w3.org/Graphics/SVG/1.1/DTD/svg11.dtd">
<!-- Generated by graphviz version 2.36.0 (20140111.2315)
 -->
<!-- Title: fbp Pages: 1 -->
<svg width="429pt" height="132pt"
 viewBox="0.00 0.00 428.93 131.83" xmlns="http://www.w3.org/2000/svg" xmlns:xlink="http://www.w3.org/1999/xlink">
<g id="graph0" class="graph" transform="scale(1 1) rotate(0) translate(4 127.827)">
<title>fbp</title>
<polygon fill="white" stroke="none" points="-4,4 -4,-127.827 424.931,-127.827 424.931,4 -4,4"/>
<!-- timer -->
<g id="node1" class="node"><title>timer</title>
<polygon fill="#7f2fae" stroke="none" points="8.93052,-70.827 8.93052,-99.827 74.9305,-99.827 74.9305,-70.827 8.93052,-70.827"/>
<polygon fill="none" stroke="#351348" points="8.93052,-70.827 8.93052,-99.827 74.9305,-99.827 74.9305,-70.827 8.93052,-70.827"/>
<text text-anchor="start" x="13.4305" y="-86.127" font-family="Helvetica,sans-Serif" font-size="14.00" fill="#ffffff">🕐 Timer</text>
<text text-anchor="start" x="32.4305" y="-76.927" font-family="Helvetica,sans-Serif" font-size="8.00" fill="#ffffff">timer</text>
<polygon fill="#5f2382" stroke="none" points="8.93052,-53.827 8.93052,-70.827 74.9305,-70.827 74.9305,-53.827 8.93052,-53.827"/>
<polygon fill="none" stroke="#351348" points="8.93052,-53.827 8.93052,-70.827 74.9305,-70.827 74.9305,-53.827 8.93052,-53.827"/>
<text text-anchor="start" x="11.9305" y="-59.827" font-family="Helvetica,sans-Serif" font-size="10.00" fill="#ffffff">◎ ENABLED</text>
<polygon fill="#471a61" stroke="none" points="8.93052,-36.827 8.93052,-53.827 74.9305,-53.827 74.9305,-36.827 8.93052,-36.827"/>
<polygon fill="none" stroke="#351348" points="8.93052,-36.827 8.93052,-53.827 74.9305,-53.827 74.9305,-36.827 8.93052,-36.827"/>
<text text-anchor="start" x="38.9305" y="-42.827" font-family="Helvetica,sans-Serif" font-size="10.00" fill="#ffffff">OUT ◉</text>
</g>
<!-- toggle -->
<g id="node4" class="node"><title>toggle</title>
<polygon fill="#184294" stroke="none" points="126.931,-90.827 126.931,-119.827 186.931,-119.827 186.931,-90.827 126.931,-90.827"/>
<polygon fill="none" stroke="#091b3e" points="126.931,-90.827 126.931,-119.827 186.931,-119.827 186.931,-90.827 126.931,-90.827"/>
<text text-anchor="start" x="138.431" y="-106.127" font-family="Helvetica,sans-Serif" font-size="14.00" fill="#ffffff">toggle</text>
<text text-anchor="start" x="130.431" y="-96.927" font-family="Helvetica,sans-Serif" font-size="8.00" fill="#ffffff">boolean/toggle</text>
<polygon fill="#12316f" stroke="none" points="126.931,-73.827 126.931,-90.827 186.931,-90.827 186.931,-73.827 126.931,-73.827"/>
<polygon fill="none" stroke="#091b3e" points="126.931,-73.827 126.931,-90.827 186.931,-90.827 186.931,-73.827 126.931,-73.827"/>
<text text-anchor="start" x="129.931" y="-79.827" font-family="Helvetica,sans-Serif" font-size="10.00" fill="#ffffff">◎ IN</text>
<polygon fill="#0d2453" stroke="none" points="126.931,-56.827 126.931,-73.827 186.931,-73.827 186.931,-56.827 126.931,-56.827"/>
<polygon fill="none" stroke="#091b3e" points="126.931,-56.827 126.931,-73.827 186.931,-73.827 186.931,-56.827 126.931,-56.827"/>
<text text-anchor="start" x="150.931" y="-62.827" font-family="Helvetica,sans-Serif" font-size="10.00" fill="#ffffff">OUT ◉</text>
</g>
<!-- timer&#45;&gt;toggle -->
<g id="edge3" class="edge"><title>timer:OUT:e&#45;&gt;toggle:IN:w</title>
<path fill="none" stroke="#399660" stroke-width="2" d="M75.9305,-44.827C102.064,-44.827 98.7656,-77.8907 121.68,-81.5071"/>
<ellipse fill="#399660" stroke="#399660" stroke-width="2" cx="123.936" cy="-81.6769" rx="2" ry="2"/>
</g>
<!-- light -->
<g id="node2" class="node"><title>light</title>
<polygon fill="#fec4a8" stroke="none" points="239.931,-61.827 239.931,-90.827 306.931,-90.827 306.931,-61.827 239.931,-61.827"/>
<polygon fill="none" stroke="#6a5246" points="239.931,-61.827 239.931,-90.827 306.931,-90.827 306.931,-61.827 239.931,-61.827"/>
<text text-anchor="start" x="260.931" y="-77.127" font-family="Helvetica,sans-Serif" font-size="14.00" fill="#000000">light</text>
<text text-anchor="start" x="264.431" y="-67.927" font-family="Helvetica,sans-Serif" font-size="8.00" fill="#000000">Light</text>
<polygon fill="#be937e" stroke="none" points="239.931,-44.827 239.931,-61.827 306.931,-61.827 306.931,-44.827 239.931,-44.827"/>
<polygon fill="none" stroke="#6a5246" points="239.931,-44.827 239.931,-61.827 306.931,-61.827 306.931,-44.827 239.931,-44.827"/>
<text text-anchor="start" x="242.931" y="-50.827" font-family="Helvetica,sans-Serif" font-size="10.00" fill="#000000">◎ IN_STATE</text>
<polygon fill="#8e6e5e" stroke="none" points="239.931,-27.827 239.931,-44.827 306.931,-44.827 306.931,-27.827 239.931,-27.827"/>
<polygon fill="none" stroke="#6a5246" points="239.931,-27.827 239.931,-44.827 306.931,-44.827 306.931,-27.827 239.931,-27.827"/>
<text text-anchor="start" x="255.931" y="-33.827" font-family="Helvetica,sans-Serif" font-size="10.00" fill="#ffffff">FOUND ◉</text>
</g>
<!-- light&#45;&gt;timer -->
<g id="edge1" class="edge"><title>light:FOUND:e&#45;&gt;timer:ENABLED:w</title>
<path fill="none" stroke="#3a67ba" stroke-width="2" d="M307.931,-35.827C313.061,-35.827 310.712,-27.794 306.931,-24.327 282.033,-1.50046 264.701,-23.6427 230.931,-24.327 132.203,-26.3274 78.5653,36.6881 8.93052,-33.327 1.10998,-41.1902 -3.49412,-57.1131 3.96795,-60.9709"/>
<ellipse fill="#3a67ba" stroke="#3a67ba" stroke-width="2" cx="5.97562" cy="-61.4046" rx="2.00001" ry="2.00001"/>
</g>
<!-- #anon:43:19 -->
<g id="node3" class="node"><title>#anon:43:19</title>
<polygon fill="#471ca4" stroke="none" points="358.931,-44.827 358.931,-66.827 412.931,-66.827 412.931,-44.827 358.931,-44.827"/>
<polygon fill="none" stroke="#1d0b45" points="358.931,-44.827 358.931,-66.827 412.931,-66.827 412.931,-44.827 358.931,-44.827"/>
<text text-anchor="start" x="362.431" y="-52.127" font-family="Helvetica,sans-Serif" font-size="14.00" fill="#ffffff">console</text>
<polygon fill="#35157b" stroke="none" points="358.931,-27.827 358.931,-44.827 412.931,-44.827 412.931,-27.827 358.931,-27.827"/>
<polygon fill="none" stroke="#1d0b45" points="358.931,-27.827 358.931,-44.827 412.931,-44.827 412.931,-27.827 358.931,-27.827"/>
<text text-anchor="start" x="361.931" y="-33.827" font-family="Helvetica,sans-Serif" font-size="10.00" fill="#ffffff">◎ IN</text>
</g>
<!-- light&#45;&gt;#anon:43:19 -->
<g id="edge2" class="edge"><title>light:FOUND:e&#45;&gt;#anon:43:19:IN:w</title>
<path fill="none" stroke="#bb8b78" stroke-width="2" d="M307.931,-35.827C328.59,-35.827 334.845,-35.827 353.479,-35.827"/>
<ellipse fill="#bb8b78" stroke="#bb8b78" stroke-width="2" cx="355.931" cy="-35.827" rx="2" ry="2"/>
</g>
<!-- toggle&#45;&gt;light -->
<g id="edge4" class="edge"><title>toggle:OUT:e&#45;&gt;light:IN_STATE:w</title>
<path fill="none" stroke="#2f5b56" stroke-width="2" d="M187.931,-64.827C209.761,-64.827 215.018,-54.2801 234.776,-52.9617"/>
<ellipse fill="#2f5b56" stroke="#2f5b56" stroke-width="2" cx="236.932" cy="-52.8919" rx="2" ry="2"/>
</g>
</g>
</svg>
