<?xml version="1.0" encoding="UTF-8" standalone="no"?>
<!DOCTYPE svg PUBLIC "-//W3C//DTD SVG 1.1//EN"
 "http://www.w3.org/Graphics/SVG/1.1/DTD/svg11.dtd">
<!-- Generated by graphviz version 2.36.0 (20140111.2315)
 -->
<!-- Title: fbp Pages: 1 -->
<svg width="1030pt" height="776pt"
 viewBox="0.00 0.00 1030.00 775.65" xmlns="http://www.w3.org/2000/svg" xmlns:xlink="http://www.w3.org/1999/xlink">
<g id="graph0" class="graph" transform="scale(1 1) rotate(0) translate(4 771.652)">
<title>fbp</title>
<polygon fill="white" stroke="none" points="-4,4 -4,-771.652 1026,-771.652 1026,4 -4,4"/>
<!-- name -->
<g id="node1" class="node"><title>name</title>
<polygon fill="#4e2e10" stroke="none" points="14,-604.652 14,-633.652 70,-633.652 70,-604.652 14,-604.652"/>
<polygon fill="none" stroke="#201206" points="14,-604.652 14,-633.652 70,-633.652 70,-604.652 14,-604.652"/>
<text text-anchor="start" x="24.5" y="-619.952" font-family="Helvetica,sans-Serif" font-size="14.00" fill="#ffffff">name</text>
<text text-anchor="start" x="26" y="-610.752" font-family="Helvetica,sans-Serif" font-size="8.00" fill="#ffffff">app/argv</text>
<polygon fill="#2b1909" stroke="none" points="14,-587.652 14,-604.652 70,-604.652 70,-587.652 14,-587.652"/>
<polygon fill="none" stroke="#201206" points="14,-587.652 14,-604.652 70,-604.652 70,-587.652 14,-587.652"/>
<text text-anchor="start" x="18" y="-593.652" font-family="Helvetica,sans-Serif" font-size="10.00" fill="#ffffff">ERROR ◉</text>
<polygon fill="#2b1909" stroke="none" points="14,-570.652 14,-587.652 70,-587.652 70,-570.652 14,-570.652"/>
<polygon fill="none" stroke="#201206" points="14,-570.652 14,-587.652 70,-587.652 70,-570.652 14,-570.652"/>
<text text-anchor="start" x="34" y="-576.652" font-family="Helvetica,sans-Serif" font-size="10.00" fill="#ffffff">OUT ◉</text>
</g>
<!-- error&#45;msg -->
<g id="node2" class="node"><title>error&#45;msg</title>
<polygon fill="#bd648a" stroke="none" points="132,-733.652 132,-762.652 230,-762.652 230,-733.652 132,-733.652"/>
<polygon fill="none" stroke="#4e2a39" points="132,-733.652 132,-762.652 230,-762.652 230,-733.652 132,-733.652"/>
<text text-anchor="start" x="151" y="-748.952" font-family="Helvetica,sans-Serif" font-size="14.00" fill="#000000">error&#45;msg</text>
<text text-anchor="start" x="135.5" y="-739.752" font-family="Helvetica,sans-Serif" font-size="8.00" fill="#000000">converter/empty&#45;to&#45;string</text>
<polygon fill="#8d4b67" stroke="none" points="132,-716.652 132,-733.652 230,-733.652 230,-716.652 132,-716.652"/>
<polygon fill="none" stroke="#4e2a39" points="132,-716.652 132,-733.652 230,-733.652 230,-716.652 132,-716.652"/>
<text text-anchor="start" x="135" y="-722.652" font-family="Helvetica,sans-Serif" font-size="10.00" fill="#ffffff">◎ IN</text>
<polygon fill="#69384d" stroke="none" points="132,-699.652 132,-716.652 230,-716.652 230,-699.652 132,-699.652"/>
<polygon fill="none" stroke="#4e2a39" points="132,-699.652 132,-716.652 230,-716.652 230,-699.652 132,-699.652"/>
<text text-anchor="start" x="194" y="-705.652" font-family="Helvetica,sans-Serif" font-size="10.00" fill="#ffffff">OUT ◉</text>
</g>
<!-- name&#45;&gt;error&#45;msg -->
<g id="edge1" class="edge"><title>name:OUT_ERROR:e&#45;&gt;error&#45;msg:IN_IN:w</title>
<path fill="none" stroke="#c53a62" stroke-width="2" d="M71,-595.652C132.75,-595.652 70.8127,-718.676 126.764,-724.443"/>
<ellipse fill="#c53a62" stroke="#c53a62" stroke-width="2" cx="129.002" cy="-724.554" rx="2" ry="2"/>
</g>
<!-- battery -->
<g id="node11" class="node"><title>battery</title>
<polygon fill="#ad639e" stroke="none" points="128,-517.652 128,-546.652 234,-546.652 234,-517.652 128,-517.652"/>
<polygon fill="none" stroke="#482942" points="128,-517.652 128,-546.652 234,-546.652 234,-517.652 128,-517.652"/>
<text text-anchor="start" x="160" y="-532.952" font-family="Helvetica,sans-Serif" font-size="14.00" fill="#ffffff">battery</text>
<text text-anchor="start" x="134" y="-523.752" font-family="Helvetica,sans-Serif" font-size="8.00" fill="#ffffff">power&#45;supply/get&#45;capacity</text>
<polygon fill="#814a76" stroke="none" points="128,-500.652 128,-517.652 234,-517.652 234,-500.652 128,-500.652"/>
<polygon fill="none" stroke="#482942" points="128,-500.652 128,-517.652 234,-517.652 234,-500.652 128,-500.652"/>
<text text-anchor="start" x="131" y="-506.652" font-family="Helvetica,sans-Serif" font-size="10.00" fill="#ffffff">◎ NAME</text>
<polygon fill="#814a76" stroke="none" points="128,-483.652 128,-500.652 234,-500.652 234,-483.652 128,-483.652"/>
<polygon fill="none" stroke="#482942" points="128,-483.652 128,-500.652 234,-500.652 234,-483.652 128,-483.652"/>
<text text-anchor="start" x="131" y="-489.652" font-family="Helvetica,sans-Serif" font-size="10.00" fill="#ffffff">◎ TRIGGER</text>
<polygon fill="#603758" stroke="none" points="128,-466.652 128,-483.652 234,-483.652 234,-466.652 128,-466.652"/>
<polygon fill="none" stroke="#482942" points="128,-466.652 128,-483.652 234,-483.652 234,-466.652 128,-466.652"/>
<text text-anchor="start" x="182" y="-472.652" font-family="Helvetica,sans-Serif" font-size="10.00" fill="#ffffff">ERROR ◉</text>
<polygon fill="#603758" stroke="none" points="128,-449.652 128,-466.652 234,-466.652 234,-449.652 128,-449.652"/>
<polygon fill="none" stroke="#482942" points="128,-449.652 128,-466.652 234,-466.652 234,-449.652 128,-449.652"/>
<text text-anchor="start" x="132" y="-455.652" font-family="Helvetica,sans-Serif" font-size="10.00" fill="#ffffff">CAPACITY_LEVEL ◉</text>
<polygon fill="#603758" stroke="none" points="128,-432.652 128,-449.652 234,-449.652 234,-432.652 128,-432.652"/>
<polygon fill="none" stroke="#482942" points="128,-432.652 128,-449.652 234,-449.652 234,-432.652 128,-432.652"/>
<text text-anchor="start" x="168" y="-438.652" font-family="Helvetica,sans-Serif" font-size="10.00" fill="#ffffff">CAPACITY ◉</text>
</g>
<!-- name&#45;&gt;battery -->
<g id="edge4" class="edge"><title>name:OUT_OUT:e&#45;&gt;battery:IN_NAME:w</title>
<path fill="none" stroke="#501cc8" stroke-width="2" d="M71,-578.652C108.953,-578.652 89.2053,-514.938 122.65,-509.96"/>
<ellipse fill="#501cc8" stroke="#501cc8" stroke-width="2" cx="125.005" cy="-509.793" rx="2" ry="2"/>
</g>
<!-- strcat -->
<g id="node14" class="node"><title>strcat</title>
<polygon fill="#c1ee90" stroke="none" points="477,-352.652 477,-381.652 550,-381.652 550,-352.652 477,-352.652"/>
<polygon fill="none" stroke="#51633c" points="477,-352.652 477,-381.652 550,-381.652 550,-352.652 477,-352.652"/>
<text text-anchor="start" x="496.5" y="-367.952" font-family="Helvetica,sans-Serif" font-size="14.00" fill="#000000">strcat</text>
<text text-anchor="start" x="480.5" y="-358.752" font-family="Helvetica,sans-Serif" font-size="8.00" fill="#000000">string/concatenate</text>
<polygon fill="#90b26c" stroke="none" points="477,-335.652 477,-352.652 550,-352.652 550,-335.652 477,-335.652"/>
<polygon fill="none" stroke="#51633c" points="477,-335.652 477,-352.652 550,-352.652 550,-335.652 477,-335.652"/>
<text text-anchor="start" x="480" y="-341.652" font-family="Helvetica,sans-Serif" font-size="10.00" fill="#000000">◎ IN</text>
<polygon fill="#6c8551" stroke="none" points="477,-318.652 477,-335.652 550,-335.652 550,-318.652 477,-318.652"/>
<polygon fill="none" stroke="#51633c" points="477,-318.652 477,-335.652 550,-335.652 550,-318.652 477,-318.652"/>
<text text-anchor="start" x="514" y="-324.652" font-family="Helvetica,sans-Serif" font-size="10.00" fill="#ffffff">OUT ◉</text>
</g>
<!-- name&#45;&gt;strcat -->
<g id="edge7" class="edge"><title>name:OUT_OUT:e&#45;&gt;strcat:IN_IN:w</title>
<path fill="none" stroke="#5087ce" stroke-width="2" d="M71,-578.652C150.889,-578.652 369.255,-611.54 430,-559.652 503.539,-496.836 381.518,-348.094 471.83,-343.75"/>
<ellipse fill="#5087ce" stroke="#5087ce" stroke-width="2" cx="474.001" cy="-343.699" rx="2" ry="2"/>
</g>
<!-- Error -->
<g id="node3" class="node"><title>Error</title>
<polygon fill="#471ca4" stroke="none" points="335,-717.652 335,-746.652 373,-746.652 373,-717.652 335,-717.652"/>
<polygon fill="none" stroke="#1d0b45" points="335,-717.652 335,-746.652 373,-746.652 373,-717.652 335,-717.652"/>
<text text-anchor="start" x="338.5" y="-732.952" font-family="Helvetica,sans-Serif" font-size="14.00" fill="#ffffff">Error</text>
<text text-anchor="start" x="340" y="-723.752" font-family="Helvetica,sans-Serif" font-size="8.00" fill="#ffffff">console</text>
<polygon fill="#35157b" stroke="none" points="335,-700.652 335,-717.652 373,-717.652 373,-700.652 335,-700.652"/>
<polygon fill="none" stroke="#1d0b45" points="335,-700.652 335,-717.652 373,-717.652 373,-700.652 335,-700.652"/>
<text text-anchor="start" x="338" y="-706.652" font-family="Helvetica,sans-Serif" font-size="10.00" fill="#ffffff">◎ IN</text>
</g>
<!-- error&#45;msg&#45;&gt;Error -->
<g id="edge2" class="edge"><title>error&#45;msg:OUT_OUT:e&#45;&gt;Error:IN_IN:w</title>
<path fill="none" stroke="#3b5f37" stroke-width="2" d="M231,-707.652C275.349,-707.652 287.472,-708.591 329.807,-708.649"/>
<ellipse fill="#3b5f37" stroke="#3b5f37" stroke-width="2" cx="332" cy="-708.651" rx="2" ry="2"/>
</g>
<!-- quit -->
<g id="node4" class="node"><title>quit</title>
<polygon fill="#4e2e10" stroke="none" points="326,-517.652 326,-546.652 382,-546.652 382,-517.652 326,-517.652"/>
<polygon fill="none" stroke="#201206" points="326,-517.652 326,-546.652 382,-546.652 382,-517.652 326,-517.652"/>
<text text-anchor="start" x="343" y="-532.952" font-family="Helvetica,sans-Serif" font-size="14.00" fill="#ffffff">quit</text>
<text text-anchor="start" x="339.5" y="-523.752" font-family="Helvetica,sans-Serif" font-size="8.00" fill="#ffffff">app/quit</text>
<polygon fill="#3a220c" stroke="none" points="326,-500.652 326,-517.652 382,-517.652 382,-500.652 326,-500.652"/>
<polygon fill="none" stroke="#201206" points="326,-500.652 326,-517.652 382,-517.652 382,-500.652 326,-500.652"/>
<text text-anchor="start" x="329" y="-506.652" font-family="Helvetica,sans-Serif" font-size="10.00" fill="#ffffff">◎ ERROR</text>
</g>
<!-- false -->
<g id="node5" class="node"><title>false</title>
<polygon fill="#e8ea7a" stroke="none" points="8,-240.652 8,-269.652 76,-269.652 76,-240.652 8,-240.652"/>
<polygon fill="none" stroke="#616233" points="8,-240.652 8,-269.652 76,-269.652 76,-240.652 8,-240.652"/>
<text text-anchor="start" x="27.5" y="-255.952" font-family="Helvetica,sans-Serif" font-size="14.00" fill="#000000">false</text>
<text text-anchor="start" x="11.5" y="-246.752" font-family="Helvetica,sans-Serif" font-size="8.00" fill="#000000">constant/boolean</text>
<polygon fill="#828344" stroke="none" points="8,-223.652 8,-240.652 76,-240.652 76,-223.652 8,-223.652"/>
<polygon fill="none" stroke="#616233" points="8,-223.652 8,-240.652 76,-240.652 76,-223.652 8,-223.652"/>
<text text-anchor="start" x="40" y="-229.652" font-family="Helvetica,sans-Serif" font-size="10.00" fill="#ffffff">OUT ◉</text>
</g>
<!-- false&#45;&gt;battery -->
<g id="edge5" class="edge"><title>false:OUT_OUT:e&#45;&gt;battery:IN_TRIGGER:w</title>
<path fill="none" stroke="#4038be" stroke-width="2" d="M77,-231.652C193.725,-231.652 13.2133,-486.571 122.972,-492.546"/>
<ellipse fill="#4038be" stroke="#4038be" stroke-width="2" cx="125.001" cy="-492.599" rx="2" ry="2"/>
</g>
<!-- blink_timer -->
<g id="node13" class="node"><title>blink_timer</title>
<polygon fill="#7f2fae" stroke="none" points="480,-71.6523 480,-100.652 546,-100.652 546,-71.6523 480,-71.6523"/>
<polygon fill="none" stroke="#351348" points="480,-71.6523 480,-100.652 546,-100.652 546,-71.6523 480,-71.6523"/>
<text text-anchor="start" x="484.5" y="-86.9523" font-family="Helvetica,sans-Serif" font-size="14.00" fill="#ffffff">🕐 Timer</text>
<text text-anchor="start" x="503.5" y="-77.7523" font-family="Helvetica,sans-Serif" font-size="8.00" fill="#ffffff">timer</text>
<polygon fill="#5f2382" stroke="none" points="480,-54.6523 480,-71.6523 546,-71.6523 546,-54.6523 480,-54.6523"/>
<polygon fill="none" stroke="#351348" points="480,-54.6523 480,-71.6523 546,-71.6523 546,-54.6523 480,-54.6523"/>
<text text-anchor="start" x="483" y="-60.6523" font-family="Helvetica,sans-Serif" font-size="10.00" fill="#ffffff">◎ ENABLED</text>
<polygon fill="#471a61" stroke="none" points="480,-37.6523 480,-54.6523 546,-54.6523 546,-37.6523 480,-37.6523"/>
<polygon fill="none" stroke="#351348" points="480,-37.6523 480,-54.6523 546,-54.6523 546,-37.6523 480,-37.6523"/>
<text text-anchor="start" x="510" y="-43.6523" font-family="Helvetica,sans-Serif" font-size="10.00" fill="#ffffff">OUT ◉</text>
</g>
<!-- false&#45;&gt;blink_timer -->
<g id="edge20" class="edge"><title>false:OUT_OUT:e&#45;&gt;blink_timer:IN_ENABLED:w</title>
<path fill="none" stroke="#4ac0ee" stroke-width="2" d="M355,-42.6523C409.399,-41.7972 422.521,-61.6062 474.83,-62.6127"/>
<ellipse fill="#4ac0ee" stroke="#4ac0ee" stroke-width="2" cx="477" cy="-62.6333" rx="2" ry="2"/>
</g>
<!-- led -->
<g id="node20" class="node"><title>led</title>
<polygon fill="#ca1178" stroke="none" points="981,-99.6523 981,-128.652 1010,-128.652 1010,-99.6523 981,-99.6523"/>
<polygon fill="none" stroke="#540632" points="981,-99.6523 981,-128.652 1010,-128.652 1010,-99.6523 981,-99.6523"/>
<text text-anchor="start" x="986" y="-114.952" font-family="Helvetica,sans-Serif" font-size="14.00" fill="#ffffff">led</text>
<text text-anchor="start" x="987.5" y="-105.752" font-family="Helvetica,sans-Serif" font-size="8.00" fill="#ffffff">LED</text>
<polygon fill="#970c5a" stroke="none" points="981,-82.6523 981,-99.6523 1010,-99.6523 1010,-82.6523 981,-82.6523"/>
<polygon fill="none" stroke="#540632" points="981,-82.6523 981,-99.6523 1010,-99.6523 1010,-82.6523 981,-82.6523"/>
<text text-anchor="start" x="984" y="-88.6523" font-family="Helvetica,sans-Serif" font-size="10.00" fill="#ffffff">◎ IN</text>
</g>
<!-- false&#45;&gt;led -->
<g id="edge15" class="edge"><title>false:OUT_OUT:e&#45;&gt;led:IN_IN:w</title>
<path fill="none" stroke="#bcc944" stroke-width="2" d="M77,-231.652C147.635,-231.652 67.1327,-125.496 120,-78.6523 198.427,-9.16173 248.229,-44.2993 353,-42.6523"/>
<path fill="none" stroke="#bcc944" stroke-width="2" d="M355,-42.6523C404.891,-39.7072 416.5,-31.5473 466,-24.6523 538.238,-14.5902 556.065,-5.65233 629,-5.65233 629,-5.65233 629,-5.65233 752,-5.65233 832.444,-5.65233 862.332,15.5688 932,-24.6523 962.185,-42.0787 945.189,-86.9582 975.999,-90.4378"/>
<ellipse fill="#bcc944" stroke="#bcc944" stroke-width="2" cx="978.003" cy="-90.5452" rx="2" ry="2"/>
</g>
<!-- name_sep -->
<g id="node6" class="node"><title>name_sep</title>
<polygon fill="#e8ea7a" stroke="none" points="319,-407.652 319,-436.652 390,-436.652 390,-407.652 319,-407.652"/>
<polygon fill="none" stroke="#616233" points="319,-407.652 319,-436.652 390,-436.652 390,-407.652 319,-407.652"/>
<text text-anchor="start" x="322.5" y="-422.952" font-family="Helvetica,sans-Serif" font-size="14.00" fill="#000000">name_sep</text>
<text text-anchor="start" x="328.5" y="-413.752" font-family="Helvetica,sans-Serif" font-size="8.00" fill="#000000">constant/string</text>
<polygon fill="#828344" stroke="none" points="319,-390.652 319,-407.652 390,-407.652 390,-390.652 319,-390.652"/>
<polygon fill="none" stroke="#616233" points="319,-390.652 319,-407.652 390,-407.652 390,-390.652 319,-390.652"/>
<text text-anchor="start" x="354" y="-396.652" font-family="Helvetica,sans-Serif" font-size="10.00" fill="#ffffff">OUT ◉</text>
</g>
<!-- name_sep&#45;&gt;strcat -->
<g id="edge8" class="edge"><title>name_sep:OUT_OUT:e&#45;&gt;strcat:IN_IN:w</title>
<path fill="none" stroke="#1edfc2" stroke-width="2" d="M391,-398.652C410.686,-398.652 413.375,-388.196 430,-377.652 450.211,-364.834 450.605,-346.018 471.792,-343.857"/>
<ellipse fill="#1edfc2" stroke="#1edfc2" stroke-width="2" cx="474.002" cy="-343.749" rx="2" ry="2"/>
</g>
<!-- cap_sep -->
<g id="node7" class="node"><title>cap_sep</title>
<polygon fill="#e8ea7a" stroke="none" points="325,-335.652 325,-364.652 384,-364.652 384,-335.652 325,-335.652"/>
<polygon fill="none" stroke="#616233" points="325,-335.652 325,-364.652 384,-364.652 384,-335.652 325,-335.652"/>
<text text-anchor="start" x="328.5" y="-350.952" font-family="Helvetica,sans-Serif" font-size="14.00" fill="#000000">cap_sep</text>
<text text-anchor="start" x="328.5" y="-341.752" font-family="Helvetica,sans-Serif" font-size="8.00" fill="#000000">constant/string</text>
<polygon fill="#828344" stroke="none" points="325,-318.652 325,-335.652 384,-335.652 384,-318.652 325,-318.652"/>
<polygon fill="none" stroke="#616233" points="325,-318.652 325,-335.652 384,-335.652 384,-318.652 325,-318.652"/>
<text text-anchor="start" x="348" y="-324.652" font-family="Helvetica,sans-Serif" font-size="10.00" fill="#ffffff">OUT ◉</text>
</g>
<!-- cap_sep&#45;&gt;strcat -->
<g id="edge10" class="edge"><title>cap_sep:OUT_OUT:e&#45;&gt;strcat:IN_IN:w</title>
<path fill="none" stroke="#6c43b9" stroke-width="2" d="M385,-326.652C424.698,-326.652 434.203,-342.478 471.778,-343.591"/>
<ellipse fill="#6c43b9" stroke="#6c43b9" stroke-width="2" cx="474" cy="-343.623" rx="2" ry="2"/>
</g>
<!-- cap_end -->
<g id="node8" class="node"><title>cap_end</title>
<polygon fill="#e8ea7a" stroke="none" points="325,-181.652 325,-210.652 384,-210.652 384,-181.652 325,-181.652"/>
<polygon fill="none" stroke="#616233" points="325,-181.652 325,-210.652 384,-210.652 384,-181.652 325,-181.652"/>
<text text-anchor="start" x="328.5" y="-196.952" font-family="Helvetica,sans-Serif" font-size="14.00" fill="#000000">cap_end</text>
<text text-anchor="start" x="328.5" y="-187.752" font-family="Helvetica,sans-Serif" font-size="8.00" fill="#000000">constant/string</text>
<polygon fill="#828344" stroke="none" points="325,-164.652 325,-181.652 384,-181.652 384,-164.652 325,-164.652"/>
<polygon fill="none" stroke="#616233" points="325,-164.652 325,-181.652 384,-181.652 384,-164.652 325,-164.652"/>
<text text-anchor="start" x="348" y="-170.652" font-family="Helvetica,sans-Serif" font-size="10.00" fill="#ffffff">OUT ◉</text>
</g>
<!-- cap_end&#45;&gt;strcat -->
<g id="edge13" class="edge"><title>cap_end:OUT_OUT:e&#45;&gt;strcat:IN_IN:w</title>
<path fill="none" stroke="#2154f3" stroke-width="2" d="M385,-172.652C415.229,-172.652 414.341,-197.795 430,-223.652 458.836,-271.269 420.904,-340.054 471.836,-343.516"/>
<ellipse fill="#2154f3" stroke="#2154f3" stroke-width="2" cx="474.001" cy="-343.587" rx="2" ry="2"/>
</g>
<!-- low -->
<g id="node9" class="node"><title>low</title>
<polygon fill="#e8ea7a" stroke="none" points="152,-644.652 152,-673.652 211,-673.652 211,-644.652 152,-644.652"/>
<polygon fill="none" stroke="#616233" points="152,-644.652 152,-673.652 211,-673.652 211,-644.652 152,-644.652"/>
<text text-anchor="start" x="171" y="-659.952" font-family="Helvetica,sans-Serif" font-size="14.00" fill="#000000">low</text>
<text text-anchor="start" x="155.5" y="-650.752" font-family="Helvetica,sans-Serif" font-size="8.00" fill="#000000">constant/string</text>
<polygon fill="#828344" stroke="none" points="152,-627.652 152,-644.652 211,-644.652 211,-627.652 152,-627.652"/>
<polygon fill="none" stroke="#616233" points="152,-627.652 152,-644.652 211,-644.652 211,-627.652 152,-627.652"/>
<text text-anchor="start" x="175" y="-633.652" font-family="Helvetica,sans-Serif" font-size="10.00" fill="#ffffff">OUT ◉</text>
</g>
<!-- is_low -->
<g id="node15" class="node"><title>is_low</title>
<polygon fill="#c1ee90" stroke="none" points="324,-644.652 324,-673.652 385,-673.652 385,-644.652 324,-644.652"/>
<polygon fill="none" stroke="#51633c" points="324,-644.652 324,-673.652 385,-673.652 385,-644.652 324,-644.652"/>
<text text-anchor="start" x="335.5" y="-659.952" font-family="Helvetica,sans-Serif" font-size="14.00" fill="#000000">is_low</text>
<text text-anchor="start" x="327.5" y="-650.752" font-family="Helvetica,sans-Serif" font-size="8.00" fill="#000000">string/compare</text>
<polygon fill="#90b26c" stroke="none" points="324,-627.652 324,-644.652 385,-644.652 385,-627.652 324,-627.652"/>
<polygon fill="none" stroke="#51633c" points="324,-627.652 324,-644.652 385,-644.652 385,-627.652 324,-627.652"/>
<text text-anchor="start" x="327" y="-633.652" font-family="Helvetica,sans-Serif" font-size="10.00" fill="#000000">◎ IN</text>
<polygon fill="#6c8551" stroke="none" points="324,-610.652 324,-627.652 385,-627.652 385,-610.652 324,-610.652"/>
<polygon fill="none" stroke="#51633c" points="324,-610.652 324,-627.652 385,-627.652 385,-610.652 324,-610.652"/>
<text text-anchor="start" x="336" y="-616.652" font-family="Helvetica,sans-Serif" font-size="10.00" fill="#ffffff">EQUAL ◉</text>
</g>
<!-- low&#45;&gt;is_low -->
<g id="edge16" class="edge"><title>low:OUT_OUT:e&#45;&gt;is_low:IN_IN:w</title>
<path fill="none" stroke="#1c1854" stroke-width="2" d="M212,-635.652C259.888,-635.652 272.912,-635.652 318.757,-635.652"/>
<ellipse fill="#1c1854" stroke="#1c1854" stroke-width="2" cx="321" cy="-635.652" rx="2" ry="2"/>
</g>
<!-- critical -->
<g id="node10" class="node"><title>critical</title>
<polygon fill="#e8ea7a" stroke="none" points="152,-108.652 152,-137.652 211,-137.652 211,-108.652 152,-108.652"/>
<polygon fill="none" stroke="#616233" points="152,-108.652 152,-137.652 211,-137.652 211,-108.652 152,-108.652"/>
<text text-anchor="start" x="162" y="-123.952" font-family="Helvetica,sans-Serif" font-size="14.00" fill="#000000">critical</text>
<text text-anchor="start" x="155.5" y="-114.752" font-family="Helvetica,sans-Serif" font-size="8.00" fill="#000000">constant/string</text>
<polygon fill="#828344" stroke="none" points="152,-91.6523 152,-108.652 211,-108.652 211,-91.6523 152,-91.6523"/>
<polygon fill="none" stroke="#616233" points="152,-91.6523 152,-108.652 211,-108.652 211,-91.6523 152,-91.6523"/>
<text text-anchor="start" x="175" y="-97.6523" font-family="Helvetica,sans-Serif" font-size="10.00" fill="#ffffff">OUT ◉</text>
</g>
<!-- is_critical -->
<g id="node16" class="node"><title>is_critical</title>
<polygon fill="#c1ee90" stroke="none" points="323,-108.652 323,-137.652 386,-137.652 386,-108.652 323,-108.652"/>
<polygon fill="none" stroke="#51633c" points="323,-108.652 323,-137.652 386,-137.652 386,-108.652 323,-108.652"/>
<text text-anchor="start" x="326.5" y="-123.952" font-family="Helvetica,sans-Serif" font-size="14.00" fill="#000000">is_critical</text>
<text text-anchor="start" x="327.5" y="-114.752" font-family="Helvetica,sans-Serif" font-size="8.00" fill="#000000">string/compare</text>
<polygon fill="#90b26c" stroke="none" points="323,-91.6523 323,-108.652 386,-108.652 386,-91.6523 323,-91.6523"/>
<polygon fill="none" stroke="#51633c" points="323,-91.6523 323,-108.652 386,-108.652 386,-91.6523 323,-91.6523"/>
<text text-anchor="start" x="326" y="-97.6523" font-family="Helvetica,sans-Serif" font-size="10.00" fill="#000000">◎ IN</text>
<polygon fill="#6c8551" stroke="none" points="323,-74.6523 323,-91.6523 386,-91.6523 386,-74.6523 323,-74.6523"/>
<polygon fill="none" stroke="#51633c" points="323,-74.6523 323,-91.6523 386,-91.6523 386,-74.6523 323,-74.6523"/>
<text text-anchor="start" x="337" y="-80.6523" font-family="Helvetica,sans-Serif" font-size="10.00" fill="#ffffff">EQUAL ◉</text>
</g>
<!-- critical&#45;&gt;is_critical -->
<g id="edge21" class="edge"><title>critical:OUT_OUT:e&#45;&gt;is_critical:IN_IN:w</title>
<path fill="none" stroke="#1fb110" stroke-width="2" d="M212,-99.6523C259.457,-99.6523 272.363,-99.6523 317.796,-99.6523"/>
<ellipse fill="#1fb110" stroke="#1fb110" stroke-width="2" cx="320" cy="-99.6524" rx="2" ry="2"/>
</g>
<!-- battery&#45;&gt;quit -->
<g id="edge3" class="edge"><title>battery:OUT_ERROR:e&#45;&gt;quit:IN_ERROR:w</title>
<path fill="none" stroke="#228bd6" stroke-width="2" d="M235,-474.652C276.256,-474.652 281.878,-506.304 320.629,-508.529"/>
<ellipse fill="#228bd6" stroke="#228bd6" stroke-width="2" cx="323.001" cy="-508.596" rx="2" ry="2"/>
</g>
<!-- battery&#45;&gt;strcat -->
<g id="edge9" class="edge"><title>battery:OUT_CAPACITY_LEVEL:e&#45;&gt;strcat:IN_IN:w</title>
<path fill="none" stroke="#73ccb0" stroke-width="2" d="M235,-457.652C321.74,-457.652 358.469,-498.714 430,-449.652 471.111,-421.456 427.362,-348.12 471.737,-343.847"/>
<ellipse fill="#73ccb0" stroke="#73ccb0" stroke-width="2" cx="474.002" cy="-343.744" rx="2" ry="2"/>
</g>
<!-- battery&#45;&gt;is_low -->
<g id="edge17" class="edge"><title>battery:OUT_CAPACITY_LEVEL:e&#45;&gt;is_low:IN_IN:w</title>
<path fill="none" stroke="#571f61" stroke-width="2" d="M235,-457.652C284.197,-457.652 255.861,-515.718 278,-559.652 294.975,-593.338 284.631,-632.463 318.629,-635.468"/>
<ellipse fill="#571f61" stroke="#571f61" stroke-width="2" cx="321.002" cy="-635.568" rx="2" ry="2"/>
</g>
<!-- battery&#45;&gt;is_critical -->
<g id="edge22" class="edge"><title>battery:OUT_CAPACITY_LEVEL:e&#45;&gt;is_critical:IN_IN:w</title>
<path fill="none" stroke="#bc04ca" stroke-width="2" d="M235,-457.652C303.668,-457.652 249.941,-214.326 278,-151.652 289.791,-125.316 291.574,-101.944 317.929,-99.8108"/>
<ellipse fill="#bc04ca" stroke="#bc04ca" stroke-width="2" cx="320.002" cy="-99.7302" rx="2" ry="2"/>
</g>
<!-- #anon:75:24 -->
<g id="node21" class="node"><title>#anon:75:24</title>
<polygon fill="#bd648a" stroke="none" points="287,-270.652 287,-292.652 422,-292.652 422,-270.652 287,-270.652"/>
<polygon fill="none" stroke="#4e2a39" points="287,-270.652 287,-292.652 422,-292.652 422,-270.652 287,-270.652"/>
<text text-anchor="start" x="290.5" y="-277.952" font-family="Helvetica,sans-Serif" font-size="14.00" fill="#000000">converter/int&#45;to&#45;string</text>
<polygon fill="#8d4b67" stroke="none" points="287,-253.652 287,-270.652 422,-270.652 422,-253.652 287,-253.652"/>
<polygon fill="none" stroke="#4e2a39" points="287,-253.652 287,-270.652 422,-270.652 422,-253.652 287,-253.652"/>
<text text-anchor="start" x="290" y="-259.652" font-family="Helvetica,sans-Serif" font-size="10.00" fill="#ffffff">◎ IN</text>
<polygon fill="#69384d" stroke="none" points="287,-236.652 287,-253.652 422,-253.652 422,-236.652 287,-236.652"/>
<polygon fill="none" stroke="#4e2a39" points="287,-236.652 287,-253.652 422,-253.652 422,-236.652 287,-236.652"/>
<text text-anchor="start" x="386" y="-242.652" font-family="Helvetica,sans-Serif" font-size="10.00" fill="#ffffff">OUT ◉</text>
</g>
<!-- battery&#45;&gt;#anon:75:24 -->
<g id="edge11" class="edge"><title>battery:OUT_CAPACITY:e&#45;&gt;#anon:75:24:IN_IN:w</title>
<path fill="none" stroke="#a74d92" stroke-width="2" d="M235,-440.652C316.268,-440.652 207.241,-267.89 281.818,-261.816"/>
<ellipse fill="#a74d92" stroke="#a74d92" stroke-width="2" cx="284.002" cy="-261.731" rx="2" ry="2"/>
</g>
<!-- polling_timer -->
<g id="node12" class="node"><title>polling_timer</title>
<polygon fill="#7f2fae" stroke="none" points="10,-501.652 10,-530.652 74,-530.652 74,-501.652 10,-501.652"/>
<polygon fill="none" stroke="#351348" points="10,-501.652 10,-530.652 74,-530.652 74,-501.652 10,-501.652"/>
<text text-anchor="start" x="13.5" y="-516.952" font-family="Helvetica,sans-Serif" font-size="14.00" fill="#ffffff">🕐 Timer</text>
<text text-anchor="start" x="32.5" y="-507.752" font-family="Helvetica,sans-Serif" font-size="8.00" fill="#ffffff">timer</text>
<polygon fill="#471a61" stroke="none" points="10,-484.652 10,-501.652 74,-501.652 74,-484.652 10,-484.652"/>
<polygon fill="none" stroke="#351348" points="10,-484.652 10,-501.652 74,-501.652 74,-484.652 10,-484.652"/>
<text text-anchor="start" x="38" y="-490.652" font-family="Helvetica,sans-Serif" font-size="10.00" fill="#ffffff">OUT ◉</text>
</g>
<!-- polling_timer&#45;&gt;battery -->
<g id="edge6" class="edge"><title>polling_timer:OUT_OUT:e&#45;&gt;battery:IN_TRIGGER:w</title>
<path fill="none" stroke="#be2a5c" stroke-width="2" d="M75,-492.652C96.6667,-492.652 103.099,-492.652 122.861,-492.652"/>
<ellipse fill="#be2a5c" stroke="#be2a5c" stroke-width="2" cx="125" cy="-492.652" rx="2" ry="2"/>
</g>
<!-- toggle -->
<g id="node18" class="node"><title>toggle</title>
<polygon fill="#184294" stroke="none" points="855,-71.6523 855,-100.652 915,-100.652 915,-71.6523 855,-71.6523"/>
<polygon fill="none" stroke="#091b3e" points="855,-71.6523 855,-100.652 915,-100.652 915,-71.6523 855,-71.6523"/>
<text text-anchor="start" x="866.5" y="-86.9523" font-family="Helvetica,sans-Serif" font-size="14.00" fill="#ffffff">toggle</text>
<text text-anchor="start" x="858.5" y="-77.7523" font-family="Helvetica,sans-Serif" font-size="8.00" fill="#ffffff">boolean/toggle</text>
<polygon fill="#12316f" stroke="none" points="855,-54.6523 855,-71.6523 915,-71.6523 915,-54.6523 855,-54.6523"/>
<polygon fill="none" stroke="#091b3e" points="855,-54.6523 855,-71.6523 915,-71.6523 915,-54.6523 855,-54.6523"/>
<text text-anchor="start" x="858" y="-60.6523" font-family="Helvetica,sans-Serif" font-size="10.00" fill="#ffffff">◎ IN</text>
<polygon fill="#0d2453" stroke="none" points="855,-37.6523 855,-54.6523 915,-54.6523 915,-37.6523 855,-37.6523"/>
<polygon fill="none" stroke="#091b3e" points="855,-37.6523 855,-54.6523 915,-54.6523 915,-37.6523 855,-37.6523"/>
<text text-anchor="start" x="879" y="-43.6523" font-family="Helvetica,sans-Serif" font-size="10.00" fill="#ffffff">OUT ◉</text>
</g>
<!-- blink_timer&#45;&gt;toggle -->
<g id="edge24" class="edge"><title>blink_timer:OUT_OUT:e&#45;&gt;toggle:IN_IN:w</title>
<path fill="none" stroke="#037d50" stroke-width="2" d="M547,-45.6523C682.186,-45.6523 716.611,-62.2891 849.632,-62.6465"/>
<ellipse fill="#037d50" stroke="#037d50" stroke-width="2" cx="852" cy="-62.6496" rx="2" ry="2"/>
</g>
<!-- display -->
<g id="node19" class="node"><title>display</title>
<polygon fill="#9b6f40" stroke="none" points="605,-335.652 605,-364.652 655,-364.652 655,-335.652 605,-335.652"/>
<polygon fill="none" stroke="#412e1b" points="605,-335.652 605,-364.652 655,-364.652 655,-335.652 605,-335.652"/>
<text text-anchor="start" x="608.5" y="-350.952" font-family="Helvetica,sans-Serif" font-size="14.00" fill="#ffffff">display</text>
<text text-anchor="start" x="617" y="-341.752" font-family="Helvetica,sans-Serif" font-size="8.00" fill="#ffffff">Display</text>
<polygon fill="#745330" stroke="none" points="605,-318.652 605,-335.652 655,-335.652 655,-318.652 605,-318.652"/>
<polygon fill="none" stroke="#412e1b" points="605,-318.652 605,-335.652 655,-335.652 655,-318.652 605,-318.652"/>
<text text-anchor="start" x="608" y="-324.652" font-family="Helvetica,sans-Serif" font-size="10.00" fill="#ffffff">◎ IN</text>
</g>
<!-- strcat&#45;&gt;display -->
<g id="edge14" class="edge"><title>strcat:OUT_OUT:e&#45;&gt;display:IN_IN:w</title>
<path fill="none" stroke="#6d4d68" stroke-width="2" d="M551,-326.652C573.083,-326.652 579.639,-326.652 599.782,-326.652"/>
<ellipse fill="#6d4d68" stroke="#6d4d68" stroke-width="2" cx="602" cy="-326.652" rx="2" ry="2"/>
</g>
<!-- #anon:88:20 -->
<g id="node22" class="node"><title>#anon:88:20</title>
<polygon fill="#184294" stroke="none" points="709,-434.652 709,-456.652 794,-456.652 794,-434.652 709,-434.652"/>
<polygon fill="none" stroke="#091b3e" points="709,-434.652 709,-456.652 794,-456.652 794,-434.652 709,-434.652"/>
<text text-anchor="start" x="712.5" y="-441.952" font-family="Helvetica,sans-Serif" font-size="14.00" fill="#ffffff">boolean/filter</text>
<polygon fill="#12316f" stroke="none" points="709,-417.652 709,-434.652 794,-434.652 794,-417.652 709,-417.652"/>
<polygon fill="none" stroke="#091b3e" points="709,-417.652 709,-434.652 794,-434.652 794,-417.652 709,-417.652"/>
<text text-anchor="start" x="712" y="-423.652" font-family="Helvetica,sans-Serif" font-size="10.00" fill="#ffffff">◎ IN</text>
<polygon fill="#0d2453" stroke="none" points="709,-400.652 709,-417.652 794,-417.652 794,-400.652 709,-400.652"/>
<polygon fill="none" stroke="#091b3e" points="709,-400.652 709,-417.652 794,-417.652 794,-400.652 709,-400.652"/>
<text text-anchor="start" x="751" y="-406.652" font-family="Helvetica,sans-Serif" font-size="10.00" fill="#ffffff">TRUE ◉</text>
</g>
<!-- is_low&#45;&gt;#anon:88:20 -->
<g id="edge18" class="edge"><title>is_low:OUT_EQUAL:e&#45;&gt;#anon:88:20:IN_IN:w</title>
<path fill="none" stroke="#984a3e" stroke-width="2" d="M386,-618.652C469.693,-618.652 488.167,-589.599 560,-546.652 631.642,-503.82 623.359,-428.363 703.606,-425.723"/>
<ellipse fill="#984a3e" stroke="#984a3e" stroke-width="2" cx="706" cy="-425.685" rx="2" ry="2"/>
</g>
<!-- #anon:99:20 -->
<g id="node23" class="node"><title>#anon:99:20</title>
<polygon fill="#184294" stroke="none" points="474,-511.652 474,-533.652 552,-533.652 552,-511.652 474,-511.652"/>
<polygon fill="none" stroke="#091b3e" points="474,-511.652 474,-533.652 552,-533.652 552,-511.652 474,-511.652"/>
<text text-anchor="start" x="477.5" y="-518.952" font-family="Helvetica,sans-Serif" font-size="14.00" fill="#ffffff">boolean/not</text>
<polygon fill="#12316f" stroke="none" points="474,-494.652 474,-511.652 552,-511.652 552,-494.652 474,-494.652"/>
<polygon fill="none" stroke="#091b3e" points="474,-494.652 474,-511.652 552,-511.652 552,-494.652 474,-494.652"/>
<text text-anchor="start" x="477" y="-500.652" font-family="Helvetica,sans-Serif" font-size="10.00" fill="#ffffff">◎ IN</text>
<polygon fill="#0d2453" stroke="none" points="474,-477.652 474,-494.652 552,-494.652 552,-477.652 474,-477.652"/>
<polygon fill="none" stroke="#091b3e" points="474,-477.652 474,-494.652 552,-494.652 552,-477.652 474,-477.652"/>
<text text-anchor="start" x="516" y="-483.652" font-family="Helvetica,sans-Serif" font-size="10.00" fill="#ffffff">OUT ◉</text>
</g>
<!-- is_low&#45;&gt;#anon:99:20 -->
<g id="edge26" class="edge"><title>is_low:OUT_EQUAL:e&#45;&gt;#anon:99:20:IN_IN:w</title>
<path fill="none" stroke="#e675d4" stroke-width="2" d="M386,-618.652C408.715,-618.652 414.66,-609.405 430,-592.652 458.885,-561.107 430.792,-506.651 468.599,-502.861"/>
<ellipse fill="#e675d4" stroke="#e675d4" stroke-width="2" cx="471.002" cy="-502.747" rx="2" ry="2"/>
</g>
<!-- is_critical&#45;&gt;blink_timer -->
<g id="edge23" class="edge"><title>is_critical:OUT_EQUAL:e&#45;&gt;blink_timer:IN_ENABLED:w</title>
<path fill="none" stroke="#1891ec" stroke-width="2" d="M387,-82.6523C427.373,-82.6523 436.53,-64.0339 474.708,-62.7248"/>
<ellipse fill="#1891ec" stroke="#1891ec" stroke-width="2" cx="477" cy="-62.6861" rx="2" ry="2"/>
</g>
<!-- #anon:100:25 -->
<g id="node24" class="node"><title>#anon:100:25</title>
<polygon fill="#184294" stroke="none" points="474,-187.652 474,-209.652 552,-209.652 552,-187.652 474,-187.652"/>
<polygon fill="none" stroke="#091b3e" points="474,-187.652 474,-209.652 552,-209.652 552,-187.652 474,-187.652"/>
<text text-anchor="start" x="477.5" y="-194.952" font-family="Helvetica,sans-Serif" font-size="14.00" fill="#ffffff">boolean/not</text>
<polygon fill="#12316f" stroke="none" points="474,-170.652 474,-187.652 552,-187.652 552,-170.652 474,-170.652"/>
<polygon fill="none" stroke="#091b3e" points="474,-170.652 474,-187.652 552,-187.652 552,-170.652 474,-170.652"/>
<text text-anchor="start" x="477" y="-176.652" font-family="Helvetica,sans-Serif" font-size="10.00" fill="#ffffff">◎ IN</text>
<polygon fill="#0d2453" stroke="none" points="474,-153.652 474,-170.652 552,-170.652 552,-153.652 474,-153.652"/>
<polygon fill="none" stroke="#091b3e" points="474,-153.652 474,-170.652 552,-170.652 552,-153.652 474,-153.652"/>
<text text-anchor="start" x="516" y="-159.652" font-family="Helvetica,sans-Serif" font-size="10.00" fill="#ffffff">OUT ◉</text>
</g>
<!-- is_critical&#45;&gt;#anon:100:25 -->
<g id="edge28" class="edge"><title>is_critical:OUT_EQUAL:e&#45;&gt;#anon:100:25:IN_IN:w</title>
<path fill="none" stroke="#407935" stroke-width="2" d="M387,-82.6523C442.829,-82.6523 417.112,-173.839 468.8,-178.47"/>
<ellipse fill="#407935" stroke="#407935" stroke-width="2" cx="471.002" cy="-178.565" rx="2" ry="2"/>
</g>
<!-- good -->
<g id="node17" class="node"><title>good</title>
<polygon fill="#184294" stroke="none" points="604,-195.652 604,-224.652 656,-224.652 656,-195.652 604,-195.652"/>
<polygon fill="none" stroke="#091b3e" points="604,-195.652 604,-224.652 656,-224.652 656,-195.652 604,-195.652"/>
<text text-anchor="start" x="610" y="-210.952" font-family="Helvetica,sans-Serif" font-size="14.00" fill="#ffffff">∧ And</text>
<text text-anchor="start" x="607.5" y="-201.752" font-family="Helvetica,sans-Serif" font-size="8.00" fill="#ffffff">boolean/and</text>
<polygon fill="#12316f" stroke="none" points="604,-178.652 604,-195.652 656,-195.652 656,-178.652 604,-178.652"/>
<polygon fill="none" stroke="#091b3e" points="604,-178.652 604,-195.652 656,-195.652 656,-178.652 604,-178.652"/>
<text text-anchor="start" x="607" y="-184.652" font-family="Helvetica,sans-Serif" font-size="10.00" fill="#ffffff">◎ IN</text>
<polygon fill="#0d2453" stroke="none" points="604,-161.652 604,-178.652 656,-178.652 656,-161.652 604,-161.652"/>
<polygon fill="none" stroke="#091b3e" points="604,-161.652 604,-178.652 656,-178.652 656,-161.652 604,-161.652"/>
<text text-anchor="start" x="620" y="-167.652" font-family="Helvetica,sans-Serif" font-size="10.00" fill="#ffffff">OUT ◉</text>
</g>
<!-- #anon:101:16 -->
<g id="node25" class="node"><title>#anon:101:16</title>
<polygon fill="#184294" stroke="none" points="709,-178.652 709,-200.652 794,-200.652 794,-178.652 709,-178.652"/>
<polygon fill="none" stroke="#091b3e" points="709,-178.652 709,-200.652 794,-200.652 794,-178.652 709,-178.652"/>
<text text-anchor="start" x="712.5" y="-185.952" font-family="Helvetica,sans-Serif" font-size="14.00" fill="#ffffff">boolean/filter</text>
<polygon fill="#12316f" stroke="none" points="709,-161.652 709,-178.652 794,-178.652 794,-161.652 709,-161.652"/>
<polygon fill="none" stroke="#091b3e" points="709,-161.652 709,-178.652 794,-178.652 794,-161.652 709,-161.652"/>
<text text-anchor="start" x="712" y="-167.652" font-family="Helvetica,sans-Serif" font-size="10.00" fill="#ffffff">◎ IN</text>
<polygon fill="#0d2453" stroke="none" points="709,-144.652 709,-161.652 794,-161.652 794,-144.652 709,-144.652"/>
<polygon fill="none" stroke="#091b3e" points="709,-144.652 709,-161.652 794,-161.652 794,-144.652 709,-144.652"/>
<text text-anchor="start" x="751" y="-150.652" font-family="Helvetica,sans-Serif" font-size="10.00" fill="#ffffff">TRUE ◉</text>
</g>
<!-- good&#45;&gt;#anon:101:16 -->
<g id="edge30" class="edge"><title>good:OUT_OUT:e&#45;&gt;#anon:101:16:IN_IN:w</title>
<path fill="none" stroke="#516eea" stroke-width="2" d="M657,-169.652C678.25,-169.652 684.559,-169.652 703.941,-169.652"/>
<ellipse fill="#516eea" stroke="#516eea" stroke-width="2" cx="706" cy="-169.652" rx="2" ry="2"/>
</g>
<!-- toggle&#45;&gt;led -->
<g id="edge25" class="edge"><title>toggle:OUT_OUT:e&#45;&gt;led:IN_IN:w</title>
<path fill="none" stroke="#3d6bd4" stroke-width="2" d="M916,-45.6523C949.278,-45.6523 945.63,-86.8682 975.735,-90.4102"/>
<ellipse fill="#3d6bd4" stroke="#3d6bd4" stroke-width="2" cx="978.003" cy="-90.5389" rx="2" ry="2"/>
</g>
<!-- #anon:75:24&#45;&gt;strcat -->
<g id="edge12" class="edge"><title>#anon:75:24:OUT_OUT:e&#45;&gt;strcat:IN_IN:w</title>
<path fill="none" stroke="#c8cb34" stroke-width="2" d="M423,-244.652C471.446,-244.652 428.752,-337.937 471.858,-343.402"/>
<ellipse fill="#c8cb34" stroke="#c8cb34" stroke-width="2" cx="474.004" cy="-343.532" rx="2" ry="2"/>
</g>
<!-- #anon:88:20&#45;&gt;led -->
<g id="edge19" class="edge"><title>#anon:88:20:OUT_TRUE:e&#45;&gt;led:IN_IN:w</title>
<path fill="none" stroke="#a786de" stroke-width="2" d="M795,-408.652C907.184,-408.652 878.269,-295.132 932,-196.652 956.092,-152.495 929.802,-93.9551 975.935,-90.7867"/>
<ellipse fill="#a786de" stroke="#a786de" stroke-width="2" cx="978.001" cy="-90.7185" rx="2" ry="2"/>
</g>
<!-- #anon:99:20&#45;&gt;good -->
<g id="edge27" class="edge"><title>#anon:99:20:OUT_OUT:e&#45;&gt;good:IN_IN:w</title>
<path fill="none" stroke="#1182c2" stroke-width="2" d="M553,-485.652C618.92,-485.652 539.204,-199.362 598.866,-187.06"/>
<ellipse fill="#1182c2" stroke="#1182c2" stroke-width="2" cx="601.01" cy="-186.849" rx="2" ry="2"/>
</g>
<!-- #anon:100:25&#45;&gt;good -->
<g id="edge29" class="edge"><title>#anon:100:25:OUT_OUT:e&#45;&gt;good:IN_IN:w</title>
<path fill="none" stroke="#5c9588" stroke-width="2" d="M553,-161.652C576.389,-161.652 578.034,-183.808 598.876,-186.405"/>
<ellipse fill="#5c9588" stroke="#5c9588" stroke-width="2" cx="601.004" cy="-186.533" rx="2" ry="2"/>
</g>
<!-- #anon:101:45 -->
<g id="node26" class="node"><title>#anon:101:45</title>
<polygon fill="#184294" stroke="none" points="846,-161.652 846,-183.652 924,-183.652 924,-161.652 846,-161.652"/>
<polygon fill="none" stroke="#091b3e" points="846,-161.652 846,-183.652 924,-183.652 924,-161.652 846,-161.652"/>
<text text-anchor="start" x="849.5" y="-168.952" font-family="Helvetica,sans-Serif" font-size="14.00" fill="#ffffff">boolean/not</text>
<polygon fill="#12316f" stroke="none" points="846,-144.652 846,-161.652 924,-161.652 924,-144.652 846,-144.652"/>
<polygon fill="none" stroke="#091b3e" points="846,-144.652 846,-161.652 924,-161.652 924,-144.652 846,-144.652"/>
<text text-anchor="start" x="849" y="-150.652" font-family="Helvetica,sans-Serif" font-size="10.00" fill="#ffffff">◎ IN</text>
<polygon fill="#0d2453" stroke="none" points="846,-127.652 846,-144.652 924,-144.652 924,-127.652 846,-127.652"/>
<polygon fill="none" stroke="#091b3e" points="846,-127.652 846,-144.652 924,-144.652 924,-127.652 846,-127.652"/>
<text text-anchor="start" x="888" y="-133.652" font-family="Helvetica,sans-Serif" font-size="10.00" fill="#ffffff">OUT ◉</text>
</g>
<!-- #anon:101:16&#45;&gt;#anon:101:45 -->
<g id="edge31" class="edge"><title>#anon:101:16:OUT_TRUE:e&#45;&gt;#anon:101:45:IN_IN:w</title>
<path fill="none" stroke="#f453c2" stroke-width="2" d="M795,-152.652C815.66,-152.652 821.914,-152.652 840.548,-152.652"/>
<ellipse fill="#f453c2" stroke="#f453c2" stroke-width="2" cx="843" cy="-152.652" rx="2" ry="2"/>
</g>
<!-- #anon:101:45&#45;&gt;led -->
<g id="edge32" class="edge"><title>#anon:101:45:OUT_OUT:e&#45;&gt;led:IN_IN:w</title>
<path fill="none" stroke="#7a78f1" stroke-width="2" d="M925,-135.652C955.103,-135.652 949.095,-94.7722 975.812,-90.9397"/>
<ellipse fill="#7a78f1" stroke="#7a78f1" stroke-width="2" cx="978.005" cy="-90.7893" rx="2" ry="2"/>
</g>
</g>
</svg>
