<?xml version="1.0" encoding="UTF-8" standalone="no"?>
<!DOCTYPE svg PUBLIC "-//W3C//DTD SVG 1.1//EN"
 "http://www.w3.org/Graphics/SVG/1.1/DTD/svg11.dtd">
<!-- Generated by graphviz version 2.36.0 (20140111.2315)
 -->
<!-- Title: fbp Pages: 1 -->
<svg width="386pt" height="356pt"
 viewBox="0.00 0.00 386.00 356.00" xmlns="http://www.w3.org/2000/svg" xmlns:xlink="http://www.w3.org/1999/xlink">
<g id="graph0" class="graph" transform="scale(1 1) rotate(0) translate(4 352)">
<title>fbp</title>
<polygon fill="white" stroke="none" points="-4,4 -4,-352 382,-352 382,4 -4,4"/>
<!-- name -->
<g id="node1" class="node"><title>name</title>
<polygon fill="#4e2e10" stroke="none" points="11,-297 11,-326 67,-326 67,-297 11,-297"/>
<polygon fill="none" stroke="#201206" points="11,-297 11,-326 67,-326 67,-297 11,-297"/>
<text text-anchor="start" x="21.5" y="-312.3" font-family="Helvetica,sans-Serif" font-size="14.00" fill="#ffffff">name</text>
<text text-anchor="start" x="23" y="-303.1" font-family="Helvetica,sans-Serif" font-size="8.00" fill="#ffffff">app/argv</text>
<polygon fill="#2b1909" stroke="none" points="11,-280 11,-297 67,-297 67,-280 11,-280"/>
<polygon fill="none" stroke="#201206" points="11,-280 11,-297 67,-297 67,-280 11,-280"/>
<text text-anchor="start" x="15" y="-286" font-family="Helvetica,sans-Serif" font-size="10.00" fill="#ffffff">ERROR ◉</text>
<polygon fill="#2b1909" stroke="none" points="11,-263 11,-280 67,-280 67,-263 11,-263"/>
<polygon fill="none" stroke="#201206" points="11,-263 11,-280 67,-280 67,-263 11,-263"/>
<text text-anchor="start" x="31" y="-269" font-family="Helvetica,sans-Serif" font-size="10.00" fill="#ffffff">OUT ◉</text>
</g>
<!-- error&#45;msg -->
<g id="node2" class="node"><title>error&#45;msg</title>
<polygon fill="#bd648a" stroke="none" points="125,-315 125,-344 223,-344 223,-315 125,-315"/>
<polygon fill="none" stroke="#4e2a39" points="125,-315 125,-344 223,-344 223,-315 125,-315"/>
<text text-anchor="start" x="144" y="-330.3" font-family="Helvetica,sans-Serif" font-size="14.00" fill="#000000">error&#45;msg</text>
<text text-anchor="start" x="128.5" y="-321.1" font-family="Helvetica,sans-Serif" font-size="8.00" fill="#000000">converter/empty&#45;to&#45;string</text>
<polygon fill="#8d4b67" stroke="none" points="125,-298 125,-315 223,-315 223,-298 125,-298"/>
<polygon fill="none" stroke="#4e2a39" points="125,-298 125,-315 223,-315 223,-298 125,-298"/>
<text text-anchor="start" x="128" y="-304" font-family="Helvetica,sans-Serif" font-size="10.00" fill="#ffffff">◎ IN</text>
<polygon fill="#69384d" stroke="none" points="125,-281 125,-298 223,-298 223,-281 125,-281"/>
<polygon fill="none" stroke="#4e2a39" points="125,-281 125,-298 223,-298 223,-281 125,-281"/>
<text text-anchor="start" x="187" y="-287" font-family="Helvetica,sans-Serif" font-size="10.00" fill="#ffffff">OUT ◉</text>
</g>
<!-- name&#45;&gt;error&#45;msg -->
<g id="edge1" class="edge"><title>name:OUT_ERROR:e&#45;&gt;error&#45;msg:IN_IN:w</title>
<path fill="none" stroke="#c53a62" stroke-width="2" d="M68,-288C92.7133,-288 97.3837,-304.085 119.905,-305.844"/>
<ellipse fill="#c53a62" stroke="#c53a62" stroke-width="2" cx="122.001" cy="-305.924" rx="2" ry="2"/>
</g>
<!-- info -->
<g id="node5" class="node"><title>info</title>
<polygon fill="#ad639e" stroke="none" points="122,-216 122,-245 226,-245 226,-216 122,-216"/>
<polygon fill="none" stroke="#482942" points="122,-216 122,-245 226,-245 226,-216 122,-216"/>
<text text-anchor="start" x="163" y="-231.3" font-family="Helvetica,sans-Serif" font-size="14.00" fill="#ffffff">info</text>
<text text-anchor="start" x="135" y="-222.1" font-family="Helvetica,sans-Serif" font-size="8.00" fill="#ffffff">power&#45;supply/get&#45;info</text>
<polygon fill="#814a76" stroke="none" points="122,-199 122,-216 226,-216 226,-199 122,-199"/>
<polygon fill="none" stroke="#482942" points="122,-199 122,-216 226,-216 226,-199 122,-199"/>
<text text-anchor="start" x="125" y="-205" font-family="Helvetica,sans-Serif" font-size="10.00" fill="#ffffff">◎ NAME</text>
<polygon fill="#814a76" stroke="none" points="122,-182 122,-199 226,-199 226,-182 122,-182"/>
<polygon fill="none" stroke="#482942" points="122,-182 122,-199 226,-199 226,-182 122,-182"/>
<text text-anchor="start" x="125" y="-188" font-family="Helvetica,sans-Serif" font-size="10.00" fill="#ffffff">◎ TRIGGER</text>
<polygon fill="#603758" stroke="none" points="122,-165 122,-182 226,-182 226,-165 122,-165"/>
<polygon fill="none" stroke="#482942" points="122,-165 122,-182 226,-182 226,-165 122,-165"/>
<text text-anchor="start" x="174" y="-171" font-family="Helvetica,sans-Serif" font-size="10.00" fill="#ffffff">ERROR ◉</text>
<polygon fill="#603758" stroke="none" points="122,-148 122,-165 226,-165 226,-148 122,-148"/>
<polygon fill="none" stroke="#482942" points="122,-148 122,-165 226,-165 226,-148 122,-148"/>
<text text-anchor="start" x="176" y="-154" font-family="Helvetica,sans-Serif" font-size="10.00" fill="#ffffff">MODEL ◉</text>
<polygon fill="#603758" stroke="none" points="122,-131 122,-148 226,-148 226,-131 122,-131"/>
<polygon fill="none" stroke="#482942" points="122,-131 122,-148 226,-148 226,-131 122,-131"/>
<text text-anchor="start" x="126" y="-137" font-family="Helvetica,sans-Serif" font-size="10.00" fill="#ffffff">MANUFACTURER ◉</text>
<polygon fill="#603758" stroke="none" points="122,-114 122,-131 226,-131 226,-114 122,-114"/>
<polygon fill="none" stroke="#482942" points="122,-114 122,-131 226,-131 226,-114 122,-114"/>
<text text-anchor="start" x="175" y="-120" font-family="Helvetica,sans-Serif" font-size="10.00" fill="#ffffff">SERIAL ◉</text>
</g>
<!-- name&#45;&gt;info -->
<g id="edge4" class="edge"><title>name:OUT_OUT:e&#45;&gt;info:IN_NAME:w</title>
<path fill="none" stroke="#48c8dc" stroke-width="2" d="M68,-271C103.161,-271 85.8995,-212.826 116.965,-208.281"/>
<ellipse fill="#48c8dc" stroke="#48c8dc" stroke-width="2" cx="119.005" cy="-208.139" rx="2" ry="2"/>
</g>
<!-- Error -->
<g id="node3" class="node"><title>Error</title>
<polygon fill="#471ca4" stroke="none" points="305,-309 305,-338 343,-338 343,-309 305,-309"/>
<polygon fill="none" stroke="#1d0b45" points="305,-309 305,-338 343,-338 343,-309 305,-309"/>
<text text-anchor="start" x="308.5" y="-324.3" font-family="Helvetica,sans-Serif" font-size="14.00" fill="#ffffff">Error</text>
<text text-anchor="start" x="310" y="-315.1" font-family="Helvetica,sans-Serif" font-size="8.00" fill="#ffffff">console</text>
<polygon fill="#35157b" stroke="none" points="305,-292 305,-309 343,-309 343,-292 305,-292"/>
<polygon fill="none" stroke="#1d0b45" points="305,-292 305,-309 343,-309 343,-292 305,-292"/>
<text text-anchor="start" x="308" y="-298" font-family="Helvetica,sans-Serif" font-size="10.00" fill="#ffffff">◎ IN</text>
</g>
<!-- error&#45;msg&#45;&gt;Error -->
<g id="edge2" class="edge"><title>error&#45;msg:OUT_OUT:e&#45;&gt;Error:IN_IN:w</title>
<path fill="none" stroke="#3b5f37" stroke-width="2" d="M224,-289C258.488,-289 267.426,-299.157 299.917,-299.951"/>
<ellipse fill="#3b5f37" stroke="#3b5f37" stroke-width="2" cx="302" cy="-299.976" rx="2" ry="2"/>
</g>
<!-- quit -->
<g id="node4" class="node"><title>quit</title>
<polygon fill="#4e2e10" stroke="none" points="296,-237 296,-266 352,-266 352,-237 296,-237"/>
<polygon fill="none" stroke="#201206" points="296,-237 296,-266 352,-266 352,-237 296,-237"/>
<text text-anchor="start" x="313" y="-252.3" font-family="Helvetica,sans-Serif" font-size="14.00" fill="#ffffff">quit</text>
<text text-anchor="start" x="309.5" y="-243.1" font-family="Helvetica,sans-Serif" font-size="8.00" fill="#ffffff">app/quit</text>
<polygon fill="#3a220c" stroke="none" points="296,-220 296,-237 352,-237 352,-220 296,-220"/>
<polygon fill="none" stroke="#201206" points="296,-220 296,-237 352,-237 352,-220 296,-220"/>
<text text-anchor="start" x="299" y="-226" font-family="Helvetica,sans-Serif" font-size="10.00" fill="#ffffff">◎ ERROR</text>
</g>
<!-- info&#45;&gt;quit -->
<g id="edge3" class="edge"><title>info:OUT_ERROR:e&#45;&gt;quit:IN_ERROR:w</title>
<path fill="none" stroke="#28513f" stroke-width="2" d="M227,-173C264.352,-173 256.816,-223.787 290.662,-227.755"/>
<ellipse fill="#28513f" stroke="#28513f" stroke-width="2" cx="293.003" cy="-227.887" rx="2" ry="2"/>
</g>
<!-- ModelName -->
<g id="node7" class="node"><title>ModelName</title>
<polygon fill="#471ca4" stroke="none" points="283,-165 283,-194 365,-194 365,-165 283,-165"/>
<polygon fill="none" stroke="#1d0b45" points="283,-165 283,-194 365,-194 365,-165 283,-165"/>
<text text-anchor="start" x="286.5" y="-180.3" font-family="Helvetica,sans-Serif" font-size="14.00" fill="#ffffff">ModelName</text>
<text text-anchor="start" x="310" y="-171.1" font-family="Helvetica,sans-Serif" font-size="8.00" fill="#ffffff">console</text>
<polygon fill="#35157b" stroke="none" points="283,-148 283,-165 365,-165 365,-148 283,-148"/>
<polygon fill="none" stroke="#1d0b45" points="283,-148 283,-165 365,-165 365,-148 283,-148"/>
<text text-anchor="start" x="286" y="-154" font-family="Helvetica,sans-Serif" font-size="10.00" fill="#ffffff">◎ IN</text>
</g>
<!-- info&#45;&gt;ModelName -->
<g id="edge6" class="edge"><title>info:OUT_MODEL:e&#45;&gt;ModelName:IN_IN:w</title>
<path fill="none" stroke="#2ea132" stroke-width="2" d="M227,-156C250.012,-156 256.776,-156 277.885,-156"/>
<ellipse fill="#2ea132" stroke="#2ea132" stroke-width="2" cx="280" cy="-156" rx="2" ry="2"/>
</g>
<!-- Manufacturer -->
<g id="node8" class="node"><title>Manufacturer</title>
<polygon fill="#471ca4" stroke="none" points="280,-93 280,-122 368,-122 368,-93 280,-93"/>
<polygon fill="none" stroke="#1d0b45" points="280,-93 280,-122 368,-122 368,-93 280,-93"/>
<text text-anchor="start" x="283.5" y="-108.3" font-family="Helvetica,sans-Serif" font-size="14.00" fill="#ffffff">Manufacturer</text>
<text text-anchor="start" x="310" y="-99.1" font-family="Helvetica,sans-Serif" font-size="8.00" fill="#ffffff">console</text>
<polygon fill="#35157b" stroke="none" points="280,-76 280,-93 368,-93 368,-76 280,-76"/>
<polygon fill="none" stroke="#1d0b45" points="280,-76 280,-93 368,-93 368,-76 280,-76"/>
<text text-anchor="start" x="283" y="-82" font-family="Helvetica,sans-Serif" font-size="10.00" fill="#ffffff">◎ IN</text>
</g>
<!-- info&#45;&gt;Manufacturer -->
<g id="edge7" class="edge"><title>info:OUT_MANUFACTURER:e&#45;&gt;Manufacturer:IN_IN:w</title>
<path fill="none" stroke="#0e42c1" stroke-width="2" d="M227,-139C259.195,-139 246.583,-88.625 274.927,-84.2959"/>
<ellipse fill="#0e42c1" stroke="#0e42c1" stroke-width="2" cx="277.005" cy="-84.145" rx="2" ry="2"/>
</g>
<!-- SerialNumber -->
<g id="node9" class="node"><title>SerialNumber</title>
<polygon fill="#471ca4" stroke="none" points="279,-21 279,-50 370,-50 370,-21 279,-21"/>
<polygon fill="none" stroke="#1d0b45" points="279,-21 279,-50 370,-50 370,-21 279,-21"/>
<text text-anchor="start" x="282.5" y="-36.3" font-family="Helvetica,sans-Serif" font-size="14.00" fill="#ffffff">SerialNumber</text>
<text text-anchor="start" x="310.5" y="-27.1" font-family="Helvetica,sans-Serif" font-size="8.00" fill="#ffffff">console</text>
<polygon fill="#35157b" stroke="none" points="279,-4 279,-21 370,-21 370,-4 279,-4"/>
<polygon fill="none" stroke="#1d0b45" points="279,-4 279,-21 370,-21 370,-4 279,-4"/>
<text text-anchor="start" x="282" y="-10" font-family="Helvetica,sans-Serif" font-size="10.00" fill="#ffffff">◎ IN</text>
</g>
<!-- info&#45;&gt;SerialNumber -->
<g id="edge8" class="edge"><title>info:OUT_SERIAL:e&#45;&gt;SerialNumber:IN_IN:w</title>
<path fill="none" stroke="#5072b8" stroke-width="2" d="M227,-122C279.414,-122 227.134,-17.9334 273.823,-12.2422"/>
<ellipse fill="#5072b8" stroke="#5072b8" stroke-width="2" cx="276.003" cy="-12.1158" rx="2" ry="2"/>
</g>
<!-- tick -->
<g id="node6" class="node"><title>tick</title>
<polygon fill="#e8ea7a" stroke="none" points="8,-200 8,-229 70,-229 70,-200 8,-200"/>
<polygon fill="none" stroke="#616233" points="8,-200 8,-229 70,-229 70,-200 8,-200"/>
<text text-anchor="start" x="28.5" y="-215.3" font-family="Helvetica,sans-Serif" font-size="14.00" fill="#000000">tick</text>
<text text-anchor="start" x="11.5" y="-206.1" font-family="Helvetica,sans-Serif" font-size="8.00" fill="#000000">constant/empty</text>
<polygon fill="#828344" stroke="none" points="8,-183 8,-200 70,-200 70,-183 8,-183"/>
<polygon fill="none" stroke="#616233" points="8,-183 8,-200 70,-200 70,-183 8,-183"/>
<text text-anchor="start" x="34" y="-189" font-family="Helvetica,sans-Serif" font-size="10.00" fill="#ffffff">OUT ◉</text>
</g>
<!-- tick&#45;&gt;info -->
<g id="edge5" class="edge"><title>tick:OUT_OUT:e&#45;&gt;info:IN_TRIGGER:w</title>
<path fill="none" stroke="#daad4a" stroke-width="2" d="M71,-191C91.6597,-191 97.9141,-191 116.548,-191"/>
<ellipse fill="#daad4a" stroke="#daad4a" stroke-width="2" cx="119" cy="-191" rx="2" ry="2"/>
</g>
</g>
</svg>
