<?xml version="1.0" encoding="UTF-8" standalone="no"?>
<!DOCTYPE svg PUBLIC "-//W3C//DTD SVG 1.1//EN"
 "http://www.w3.org/Graphics/SVG/1.1/DTD/svg11.dtd">
<!-- Generated by graphviz version 2.36.0 (20140111.2315)
 -->
<!-- Title: fbp Pages: 1 -->
<svg width="1010pt" height="507pt"
 viewBox="0.00 0.00 1010.00 507.00" xmlns="http://www.w3.org/2000/svg" xmlns:xlink="http://www.w3.org/1999/xlink">
<g id="graph0" class="graph" transform="scale(1 1) rotate(0) translate(4 503)">
<title>fbp</title>
<polygon fill="white" stroke="none" points="-4,4 -4,-503 1006,-503 1006,4 -4,4"/>
<!-- selector -->
<g id="node1" class="node"><title>selector</title>
<polygon fill="#31ef62" stroke="none" points="138,-328 138,-357 238,-357 238,-328 138,-328"/>
<polygon fill="none" stroke="#146428" points="138,-328 138,-357 238,-357 238,-328 138,-328"/>
<text text-anchor="start" x="164" y="-343.3" font-family="Helvetica,sans-Serif" font-size="14.00" fill="#000000">selector</text>
<text text-anchor="start" x="160" y="-334.1" font-family="Helvetica,sans-Serif" font-size="8.00" fill="#000000">form/int&#45;custom</text>
<polygon fill="#24b349" stroke="none" points="138,-311 138,-328 238,-328 238,-311 138,-311"/>
<polygon fill="none" stroke="#146428" points="138,-311 138,-328 238,-328 238,-311 138,-311"/>
<text text-anchor="start" x="141" y="-317" font-family="Helvetica,sans-Serif" font-size="10.00" fill="#ffffff">◎ UP</text>
<polygon fill="#24b349" stroke="none" points="138,-294 138,-311 238,-311 238,-294 138,-294"/>
<polygon fill="none" stroke="#146428" points="138,-294 138,-311 238,-311 238,-294 138,-294"/>
<text text-anchor="start" x="141" y="-300" font-family="Helvetica,sans-Serif" font-size="10.00" fill="#ffffff">◎ DOWN</text>
<polygon fill="#24b349" stroke="none" points="138,-277 138,-294 238,-294 238,-277 138,-277"/>
<polygon fill="none" stroke="#146428" points="138,-277 138,-294 238,-294 238,-277 138,-277"/>
<text text-anchor="start" x="141" y="-283" font-family="Helvetica,sans-Serif" font-size="10.00" fill="#ffffff">◎ NEXT</text>
<polygon fill="#24b349" stroke="none" points="138,-260 138,-277 238,-277 238,-260 138,-260"/>
<polygon fill="none" stroke="#146428" points="138,-260 138,-277 238,-277 238,-260 138,-260"/>
<text text-anchor="start" x="141" y="-266" font-family="Helvetica,sans-Serif" font-size="10.00" fill="#ffffff">◎ PREVIOUS</text>
<polygon fill="#24b349" stroke="none" points="138,-243 138,-260 238,-260 238,-243 138,-243"/>
<polygon fill="none" stroke="#146428" points="138,-243 138,-260 238,-260 238,-243 138,-243"/>
<text text-anchor="start" x="141" y="-249" font-family="Helvetica,sans-Serif" font-size="10.00" fill="#ffffff">◎ TOGGLE_SIGN</text>
<polygon fill="#24b349" stroke="none" points="138,-226 138,-243 238,-243 238,-226 138,-226"/>
<polygon fill="none" stroke="#146428" points="138,-226 138,-243 238,-243 238,-226 138,-226"/>
<text text-anchor="start" x="141" y="-232" font-family="Helvetica,sans-Serif" font-size="10.00" fill="#ffffff">◎ SELECT</text>
<polygon fill="#1b8636" stroke="none" points="138,-209 138,-226 238,-226 238,-209 138,-209"/>
<polygon fill="none" stroke="#146428" points="138,-209 138,-226 238,-226 238,-209 138,-209"/>
<text text-anchor="start" x="185" y="-215" font-family="Helvetica,sans-Serif" font-size="10.00" fill="#ffffff">STRING ◉</text>
<polygon fill="#1b8636" stroke="none" points="138,-192 138,-209 238,-209 238,-192 138,-192"/>
<polygon fill="none" stroke="#146428" points="138,-192 138,-209 238,-209 238,-192 138,-192"/>
<text text-anchor="start" x="142" y="-198" font-family="Helvetica,sans-Serif" font-size="10.00" fill="#ffffff">OUT_OF_RANGE ◉</text>
</g>
<!-- lcd -->
<g id="node8" class="node"><title>lcd</title>
<polygon fill="#72d2de" stroke="none" points="940,-200 940,-229 994,-229 994,-200 940,-200"/>
<polygon fill="none" stroke="#2f575d" points="940,-200 940,-229 994,-229 994,-200 940,-200"/>
<text text-anchor="start" x="958" y="-215.3" font-family="Helvetica,sans-Serif" font-size="14.00" fill="#000000">lcd</text>
<text text-anchor="start" x="948" y="-206.1" font-family="Helvetica,sans-Serif" font-size="8.00" fill="#000000">LCDString</text>
<polygon fill="#559da6" stroke="none" points="940,-183 940,-200 994,-200 994,-183 940,-183"/>
<polygon fill="none" stroke="#2f575d" points="940,-183 940,-200 994,-200 994,-183 940,-183"/>
<text text-anchor="start" x="943" y="-189" font-family="Helvetica,sans-Serif" font-size="10.00" fill="#000000">◎ IN</text>
<polygon fill="#559da6" stroke="none" points="940,-166 940,-183 994,-183 994,-166 940,-166"/>
<polygon fill="none" stroke="#2f575d" points="940,-166 940,-183 994,-183 994,-166 940,-166"/>
<text text-anchor="start" x="943" y="-172" font-family="Helvetica,sans-Serif" font-size="10.00" fill="#000000">◎ COLOR</text>
</g>
<!-- selector&#45;&gt;lcd -->
<g id="edge7" class="edge"><title>selector:OUT_STRING:e&#45;&gt;lcd:IN_IN:w</title>
<path fill="none" stroke="#444318" stroke-width="2" d="M239,-217C430.657,-217 478.865,-245.133 670,-231 789.128,-222.191 817.471,-191.726 934.789,-191.013"/>
<ellipse fill="#444318" stroke="#444318" stroke-width="2" cx="937" cy="-191.006" rx="2" ry="2"/>
</g>
<!-- #anon:33:29 -->
<g id="node11" class="node"><title>#anon:33:29</title>
<polygon fill="#bd648a" stroke="none" points="517,-196 517,-218 662,-218 662,-196 517,-196"/>
<polygon fill="none" stroke="#4e2a39" points="517,-196 517,-218 662,-218 662,-196 517,-196"/>
<text text-anchor="start" x="520.5" y="-203.3" font-family="Helvetica,sans-Serif" font-size="14.00" fill="#000000">converter/empty&#45;to&#45;rgb</text>
<polygon fill="#8d4b67" stroke="none" points="517,-179 517,-196 662,-196 662,-179 517,-179"/>
<polygon fill="none" stroke="#4e2a39" points="517,-179 517,-196 662,-196 662,-179 517,-179"/>
<text text-anchor="start" x="520" y="-185" font-family="Helvetica,sans-Serif" font-size="10.00" fill="#ffffff">◎ IN</text>
<polygon fill="#69384d" stroke="none" points="517,-162 517,-179 662,-179 662,-162 517,-162"/>
<polygon fill="none" stroke="#4e2a39" points="517,-162 517,-179 662,-179 662,-162 517,-162"/>
<text text-anchor="start" x="626" y="-168" font-family="Helvetica,sans-Serif" font-size="10.00" fill="#ffffff">OUT ◉</text>
</g>
<!-- selector&#45;&gt;#anon:33:29 -->
<g id="edge9" class="edge"><title>selector:OUT_OUT_OF_RANGE:e&#45;&gt;#anon:33:29:IN_IN:w</title>
<path fill="none" stroke="#2760da" stroke-width="2" d="M239,-200C360.802,-200 392.026,-187.303 511.705,-187.005"/>
<ellipse fill="#2760da" stroke="#2760da" stroke-width="2" cx="514" cy="-187.003" rx="2" ry="2"/>
</g>
<!-- #anon:34:29 -->
<g id="node12" class="node"><title>#anon:34:29</title>
<polygon fill="#bd648a" stroke="none" points="291,-80 291,-102 464,-102 464,-80 291,-80"/>
<polygon fill="none" stroke="#4e2a39" points="291,-80 291,-102 464,-102 464,-80 291,-80"/>
<text text-anchor="start" x="294.5" y="-87.3" font-family="Helvetica,sans-Serif" font-size="14.00" fill="#000000">converter/empty&#45;to&#45;boolean</text>
<polygon fill="#8d4b67" stroke="none" points="291,-63 291,-80 464,-80 464,-63 291,-63"/>
<polygon fill="none" stroke="#4e2a39" points="291,-63 291,-80 464,-80 464,-63 291,-63"/>
<text text-anchor="start" x="294" y="-69" font-family="Helvetica,sans-Serif" font-size="10.00" fill="#ffffff">◎ IN</text>
<polygon fill="#69384d" stroke="none" points="291,-46 291,-63 464,-63 464,-46 291,-46"/>
<polygon fill="none" stroke="#4e2a39" points="291,-46 291,-63 464,-63 464,-46 291,-46"/>
<text text-anchor="start" x="428" y="-52" font-family="Helvetica,sans-Serif" font-size="10.00" fill="#ffffff">OUT ◉</text>
</g>
<!-- selector&#45;&gt;#anon:34:29 -->
<g id="edge11" class="edge"><title>selector:OUT_OUT_OF_RANGE:e&#45;&gt;#anon:34:29:IN_IN:w</title>
<path fill="none" stroke="#37cd64" stroke-width="2" d="M239,-200C299.206,-200 231.664,-76.976 285.882,-71.2093"/>
<ellipse fill="#37cd64" stroke="#37cd64" stroke-width="2" cx="288.003" cy="-71.1016" rx="2" ry="2"/>
</g>
<!-- keyboard_u -->
<g id="node2" class="node"><title>keyboard_u</title>
<polygon fill="#46b19c" stroke="none" points="8,-466 8,-495 86,-495 86,-466 8,-466"/>
<polygon fill="none" stroke="#1d4a41" points="8,-466 8,-495 86,-495 86,-466 8,-466"/>
<text text-anchor="start" x="11.5" y="-481.3" font-family="Helvetica,sans-Serif" font-size="14.00" fill="#000000">keyboard_u</text>
<text text-anchor="start" x="15" y="-472.1" font-family="Helvetica,sans-Serif" font-size="8.00" fill="#000000">keyboard/boolean</text>
<polygon fill="#276357" stroke="none" points="8,-449 8,-466 86,-466 86,-449 8,-449"/>
<polygon fill="none" stroke="#1d4a41" points="8,-449 8,-466 86,-466 86,-449 8,-449"/>
<text text-anchor="start" x="50" y="-455" font-family="Helvetica,sans-Serif" font-size="10.00" fill="#ffffff">OUT ◉</text>
</g>
<!-- keyboard_u&#45;&gt;selector -->
<g id="edge1" class="edge"><title>keyboard_u:OUT_OUT:e&#45;&gt;selector:IN_UP:w</title>
<path fill="none" stroke="#24519b" stroke-width="2" d="M87,-457C150.298,-457 75.8362,-326.347 132.677,-320.222"/>
<ellipse fill="#24519b" stroke="#24519b" stroke-width="2" cx="135.003" cy="-320.103" rx="2" ry="2"/>
</g>
<!-- keyboard_d -->
<g id="node3" class="node"><title>keyboard_d</title>
<polygon fill="#46b19c" stroke="none" points="8,-394 8,-423 86,-423 86,-394 8,-394"/>
<polygon fill="none" stroke="#1d4a41" points="8,-394 8,-423 86,-423 86,-394 8,-394"/>
<text text-anchor="start" x="11.5" y="-409.3" font-family="Helvetica,sans-Serif" font-size="14.00" fill="#000000">keyboard_d</text>
<text text-anchor="start" x="15" y="-400.1" font-family="Helvetica,sans-Serif" font-size="8.00" fill="#000000">keyboard/boolean</text>
<polygon fill="#276357" stroke="none" points="8,-377 8,-394 86,-394 86,-377 8,-377"/>
<polygon fill="none" stroke="#1d4a41" points="8,-377 8,-394 86,-394 86,-377 8,-377"/>
<text text-anchor="start" x="50" y="-383" font-family="Helvetica,sans-Serif" font-size="10.00" fill="#ffffff">OUT ◉</text>
</g>
<!-- keyboard_d&#45;&gt;selector -->
<g id="edge2" class="edge"><title>keyboard_d:OUT_OUT:e&#45;&gt;selector:IN_DOWN:w</title>
<path fill="none" stroke="#4158ec" stroke-width="2" d="M87,-385C128.185,-385 96.7053,-308.664 132.781,-303.297"/>
<ellipse fill="#4158ec" stroke="#4158ec" stroke-width="2" cx="135.005" cy="-303.14" rx="2" ry="2"/>
</g>
<!-- keyboard_n -->
<g id="node4" class="node"><title>keyboard_n</title>
<polygon fill="#46b19c" stroke="none" points="8,-322 8,-351 86,-351 86,-322 8,-322"/>
<polygon fill="none" stroke="#1d4a41" points="8,-322 8,-351 86,-351 86,-322 8,-322"/>
<text text-anchor="start" x="11.5" y="-337.3" font-family="Helvetica,sans-Serif" font-size="14.00" fill="#000000">keyboard_n</text>
<text text-anchor="start" x="15" y="-328.1" font-family="Helvetica,sans-Serif" font-size="8.00" fill="#000000">keyboard/boolean</text>
<polygon fill="#276357" stroke="none" points="8,-305 8,-322 86,-322 86,-305 8,-305"/>
<polygon fill="none" stroke="#1d4a41" points="8,-305 8,-322 86,-322 86,-305 8,-305"/>
<text text-anchor="start" x="50" y="-311" font-family="Helvetica,sans-Serif" font-size="10.00" fill="#ffffff">OUT ◉</text>
</g>
<!-- keyboard_n&#45;&gt;selector -->
<g id="edge3" class="edge"><title>keyboard_n:OUT_OUT:e&#45;&gt;selector:IN_NEXT:w</title>
<path fill="none" stroke="#6b0570" stroke-width="2" d="M87,-313C110.775,-313 111.716,-289.071 132.816,-286.267"/>
<ellipse fill="#6b0570" stroke="#6b0570" stroke-width="2" cx="135.004" cy="-286.128" rx="2" ry="2"/>
</g>
<!-- keyboard_p -->
<g id="node5" class="node"><title>keyboard_p</title>
<polygon fill="#46b19c" stroke="none" points="8,-250 8,-279 86,-279 86,-250 8,-250"/>
<polygon fill="none" stroke="#1d4a41" points="8,-250 8,-279 86,-279 86,-250 8,-250"/>
<text text-anchor="start" x="11.5" y="-265.3" font-family="Helvetica,sans-Serif" font-size="14.00" fill="#000000">keyboard_p</text>
<text text-anchor="start" x="15" y="-256.1" font-family="Helvetica,sans-Serif" font-size="8.00" fill="#000000">keyboard/boolean</text>
<polygon fill="#276357" stroke="none" points="8,-233 8,-250 86,-250 86,-233 8,-233"/>
<polygon fill="none" stroke="#1d4a41" points="8,-233 8,-250 86,-250 86,-233 8,-233"/>
<text text-anchor="start" x="50" y="-239" font-family="Helvetica,sans-Serif" font-size="10.00" fill="#ffffff">OUT ◉</text>
</g>
<!-- keyboard_p&#45;&gt;selector -->
<g id="edge4" class="edge"><title>keyboard_p:OUT_OUT:e&#45;&gt;selector:IN_PREVIOUS:w</title>
<path fill="none" stroke="#6d65f8" stroke-width="2" d="M87,-241C110.775,-241 111.716,-264.929 132.816,-267.733"/>
<ellipse fill="#6d65f8" stroke="#6d65f8" stroke-width="2" cx="135.004" cy="-267.872" rx="2" ry="2"/>
</g>
<!-- keyboard_t -->
<g id="node6" class="node"><title>keyboard_t</title>
<polygon fill="#46b19c" stroke="none" points="10,-178 10,-207 84,-207 84,-178 10,-178"/>
<polygon fill="none" stroke="#1d4a41" points="10,-178 10,-207 84,-207 84,-178 10,-178"/>
<text text-anchor="start" x="13.5" y="-193.3" font-family="Helvetica,sans-Serif" font-size="14.00" fill="#000000">keyboard_t</text>
<text text-anchor="start" x="15" y="-184.1" font-family="Helvetica,sans-Serif" font-size="8.00" fill="#000000">keyboard/boolean</text>
<polygon fill="#276357" stroke="none" points="10,-161 10,-178 84,-178 84,-161 10,-161"/>
<polygon fill="none" stroke="#1d4a41" points="10,-161 10,-178 84,-178 84,-161 10,-161"/>
<text text-anchor="start" x="48" y="-167" font-family="Helvetica,sans-Serif" font-size="10.00" fill="#ffffff">OUT ◉</text>
</g>
<!-- keyboard_t&#45;&gt;selector -->
<g id="edge5" class="edge"><title>keyboard_t:OUT_OUT:e&#45;&gt;selector:IN_TOGGLE_SIGN:w</title>
<path fill="none" stroke="#87b302" stroke-width="2" d="M85,-169C126.637,-169 96.162,-245.336 132.729,-250.703"/>
<ellipse fill="#87b302" stroke="#87b302" stroke-width="2" cx="135.005" cy="-250.861" rx="2" ry="2"/>
</g>
<!-- keyboard_s -->
<g id="node7" class="node"><title>keyboard_s</title>
<polygon fill="#46b19c" stroke="none" points="9,-106 9,-135 86,-135 86,-106 9,-106"/>
<polygon fill="none" stroke="#1d4a41" points="9,-106 9,-135 86,-135 86,-106 9,-106"/>
<text text-anchor="start" x="12.5" y="-121.3" font-family="Helvetica,sans-Serif" font-size="14.00" fill="#000000">keyboard_s</text>
<text text-anchor="start" x="15.5" y="-112.1" font-family="Helvetica,sans-Serif" font-size="8.00" fill="#000000">keyboard/boolean</text>
<polygon fill="#276357" stroke="none" points="9,-89 9,-106 86,-106 86,-89 9,-89"/>
<polygon fill="none" stroke="#1d4a41" points="9,-89 9,-106 86,-106 86,-89 9,-89"/>
<text text-anchor="start" x="50" y="-95" font-family="Helvetica,sans-Serif" font-size="10.00" fill="#ffffff">OUT ◉</text>
</g>
<!-- keyboard_s&#45;&gt;selector -->
<g id="edge6" class="edge"><title>keyboard_s:OUT_OUT:e&#45;&gt;selector:IN_SELECT:w</title>
<path fill="none" stroke="#9605f0" stroke-width="2" d="M87,-97C150.298,-97 75.8362,-227.653 132.677,-233.778"/>
<ellipse fill="#9605f0" stroke="#9605f0" stroke-width="2" cx="135.003" cy="-233.897" rx="2" ry="2"/>
</g>
<!-- #anon:32:1 -->
<g id="node9" class="node"><title>#anon:32:1</title>
<polygon fill="#e8ea7a" stroke="none" points="322,-145 322,-167 432,-167 432,-145 322,-145"/>
<polygon fill="none" stroke="#616233" points="322,-145 322,-167 432,-167 432,-145 322,-145"/>
<text text-anchor="start" x="325.5" y="-152.3" font-family="Helvetica,sans-Serif" font-size="14.00" fill="#000000">constant/boolean</text>
<polygon fill="#828344" stroke="none" points="322,-128 322,-145 432,-145 432,-128 322,-128"/>
<polygon fill="none" stroke="#616233" points="322,-128 322,-145 432,-145 432,-128 322,-128"/>
<text text-anchor="start" x="396" y="-134" font-family="Helvetica,sans-Serif" font-size="10.00" fill="#ffffff">OUT ◉</text>
</g>
<!-- timer -->
<g id="node10" class="node"><title>timer</title>
<polygon fill="#7f2fae" stroke="none" points="556,-103 556,-132 622,-132 622,-103 556,-103"/>
<polygon fill="none" stroke="#351348" points="556,-103 556,-132 622,-132 622,-103 556,-103"/>
<text text-anchor="start" x="560.5" y="-118.3" font-family="Helvetica,sans-Serif" font-size="14.00" fill="#ffffff">🕐 Timer</text>
<text text-anchor="start" x="579.5" y="-109.1" font-family="Helvetica,sans-Serif" font-size="8.00" fill="#ffffff">timer</text>
<polygon fill="#5f2382" stroke="none" points="556,-86 556,-103 622,-103 622,-86 556,-86"/>
<polygon fill="none" stroke="#351348" points="556,-86 556,-103 622,-103 622,-86 556,-86"/>
<text text-anchor="start" x="559" y="-92" font-family="Helvetica,sans-Serif" font-size="10.00" fill="#ffffff">◎ ENABLED</text>
<polygon fill="#471a61" stroke="none" points="556,-69 556,-86 622,-86 622,-69 556,-69"/>
<polygon fill="none" stroke="#351348" points="556,-69 556,-86 622,-86 622,-69 556,-69"/>
<text text-anchor="start" x="586" y="-75" font-family="Helvetica,sans-Serif" font-size="10.00" fill="#ffffff">OUT ◉</text>
</g>
<!-- #anon:32:1&#45;&gt;timer -->
<g id="edge8" class="edge"><title>#anon:32:1:OUT_OUT:e&#45;&gt;timer:IN_ENABLED:w</title>
<path fill="none" stroke="#9211cc" stroke-width="2" d="M433,-136C488.889,-136 497.251,-96.1057 550.727,-94.0799"/>
<ellipse fill="#9211cc" stroke="#9211cc" stroke-width="2" cx="553" cy="-94.0374" rx="2" ry="2"/>
</g>
<!-- #anon:35:17 -->
<g id="node13" class="node"><title>#anon:35:17</title>
<polygon fill="#bd648a" stroke="none" points="729,-38 729,-60 874,-60 874,-38 729,-38"/>
<polygon fill="none" stroke="#4e2a39" points="729,-38 729,-60 874,-60 874,-38 729,-38"/>
<text text-anchor="start" x="732.5" y="-45.3" font-family="Helvetica,sans-Serif" font-size="14.00" fill="#000000">converter/empty&#45;to&#45;rgb</text>
<polygon fill="#8d4b67" stroke="none" points="729,-21 729,-38 874,-38 874,-21 729,-21"/>
<polygon fill="none" stroke="#4e2a39" points="729,-21 729,-38 874,-38 874,-21 729,-21"/>
<text text-anchor="start" x="732" y="-27" font-family="Helvetica,sans-Serif" font-size="10.00" fill="#ffffff">◎ IN</text>
<polygon fill="#69384d" stroke="none" points="729,-4 729,-21 874,-21 874,-4 729,-4"/>
<polygon fill="none" stroke="#4e2a39" points="729,-4 729,-21 874,-21 874,-4 729,-4"/>
<text text-anchor="start" x="838" y="-10" font-family="Helvetica,sans-Serif" font-size="10.00" fill="#ffffff">OUT ◉</text>
</g>
<!-- timer&#45;&gt;#anon:35:17 -->
<g id="edge13" class="edge"><title>timer:OUT_OUT:e&#45;&gt;#anon:35:17:IN_IN:w</title>
<path fill="none" stroke="#6f740f" stroke-width="2" d="M623,-77C672.909,-77 676.522,-31.5891 723.899,-29.1057"/>
<ellipse fill="#6f740f" stroke="#6f740f" stroke-width="2" cx="726.001" cy="-29.0516" rx="2" ry="2"/>
</g>
<!-- #anon:36:17 -->
<g id="node14" class="node"><title>#anon:36:17</title>
<polygon fill="#bd648a" stroke="none" points="715,-120 715,-142 888,-142 888,-120 715,-120"/>
<polygon fill="none" stroke="#4e2a39" points="715,-120 715,-142 888,-142 888,-120 715,-120"/>
<text text-anchor="start" x="718.5" y="-127.3" font-family="Helvetica,sans-Serif" font-size="14.00" fill="#000000">converter/empty&#45;to&#45;boolean</text>
<polygon fill="#8d4b67" stroke="none" points="715,-103 715,-120 888,-120 888,-103 715,-103"/>
<polygon fill="none" stroke="#4e2a39" points="715,-103 715,-120 888,-120 888,-103 715,-103"/>
<text text-anchor="start" x="718" y="-109" font-family="Helvetica,sans-Serif" font-size="10.00" fill="#ffffff">◎ IN</text>
<polygon fill="#69384d" stroke="none" points="715,-86 715,-103 888,-103 888,-86 715,-86"/>
<polygon fill="none" stroke="#4e2a39" points="715,-86 715,-103 888,-103 888,-86 715,-86"/>
<text text-anchor="start" x="852" y="-92" font-family="Helvetica,sans-Serif" font-size="10.00" fill="#ffffff">OUT ◉</text>
</g>
<!-- timer&#45;&gt;#anon:36:17 -->
<g id="edge15" class="edge"><title>timer:OUT_OUT:e&#45;&gt;#anon:36:17:IN_IN:w</title>
<path fill="none" stroke="#37416e" stroke-width="2" d="M623,-77C664.657,-77 670.45,-108.651 709.586,-110.877"/>
<ellipse fill="#37416e" stroke="#37416e" stroke-width="2" cx="712.001" cy="-110.944" rx="2" ry="2"/>
</g>
<!-- #anon:33:29&#45;&gt;lcd -->
<g id="edge10" class="edge"><title>#anon:33:29:OUT_OUT:e&#45;&gt;lcd:IN_COLOR:w</title>
<path fill="none" stroke="#cd5d48" stroke-width="2" d="M663,-170C784.242,-170 815.59,-173.907 934.725,-173.998"/>
<ellipse fill="#cd5d48" stroke="#cd5d48" stroke-width="2" cx="937" cy="-173.999" rx="2" ry="2"/>
</g>
<!-- #anon:34:29&#45;&gt;timer -->
<g id="edge12" class="edge"><title>#anon:34:29:OUT_OUT:e&#45;&gt;timer:IN_ENABLED:w</title>
<path fill="none" stroke="#4b4e03" stroke-width="2" d="M465,-54C507.234,-54 511.004,-91.2369 550.533,-93.8552"/>
<ellipse fill="#4b4e03" stroke="#4b4e03" stroke-width="2" cx="553.001" cy="-93.9351" rx="2" ry="2"/>
</g>
<!-- #anon:35:17&#45;&gt;lcd -->
<g id="edge14" class="edge"><title>#anon:35:17:OUT_OUT:e&#45;&gt;lcd:IN_COLOR:w</title>
<path fill="none" stroke="#1b16c2" stroke-width="2" d="M875,-12C950.903,-12 865.069,-167.734 934.654,-173.817"/>
<ellipse fill="#1b16c2" stroke="#1b16c2" stroke-width="2" cx="937.002" cy="-173.916" rx="2" ry="2"/>
</g>
<!-- #anon:36:17&#45;&gt;timer -->
<g id="edge16" class="edge"><title>#anon:36:17:OUT_OUT:e&#45;&gt;timer:IN_ENABLED:w</title>
<path fill="none" stroke="#38a02c" stroke-width="2" d="M889,-94C894.352,-94 891.837,-85.7305 888,-82 873.478,-67.8829 726.203,-73.4186 706,-72 672.182,-69.6253 663.87,-66.9458 630,-65.5 597.141,-64.0974 579.66,-42.6554 556,-65.5 548.022,-73.2032 543.536,-89.2461 551.03,-93.1365"/>
<ellipse fill="#38a02c" stroke="#38a02c" stroke-width="2" cx="553.046" cy="-93.5749" rx="2.00001" ry="2.00001"/>
</g>
</g>
</svg>
