<?xml version="1.0" encoding="UTF-8" standalone="no"?>
<!DOCTYPE svg PUBLIC "-//W3C//DTD SVG 1.1//EN"
 "http://www.w3.org/Graphics/SVG/1.1/DTD/svg11.dtd">
<!-- Generated by graphviz version 2.36.0 (20140111.2315)
 -->
<!-- Title: fbp Pages: 1 -->
<svg width="796pt" height="302pt"
 viewBox="0.00 0.00 796.00 302.00" xmlns="http://www.w3.org/2000/svg" xmlns:xlink="http://www.w3.org/1999/xlink">
<g id="graph0" class="graph" transform="scale(1 1) rotate(0) translate(4 298)">
<title>fbp</title>
<polygon fill="white" stroke="none" points="-4,4 -4,-298 792,-298 792,4 -4,4"/>
<!-- lcd -->
<g id="node1" class="node"><title>lcd</title>
<polygon fill="#05c9ea" stroke="none" points="697,-167 697,-196 780,-196 780,-167 697,-167"/>
<polygon fill="none" stroke="#015462" points="697,-167 697,-196 780,-196 780,-167 697,-167"/>
<text text-anchor="start" x="729.5" y="-182.3" font-family="Helvetica,sans-Serif" font-size="14.00" fill="#000000">lcd</text>
<text text-anchor="start" x="721" y="-173.1" font-family="Helvetica,sans-Serif" font-size="8.00" fill="#000000">LCDChar</text>
<polygon fill="#0396af" stroke="none" points="697,-150 697,-167 780,-167 780,-150 697,-150"/>
<polygon fill="none" stroke="#015462" points="697,-150 697,-167 780,-167 780,-150 697,-150"/>
<text text-anchor="start" x="700" y="-156" font-family="Helvetica,sans-Serif" font-size="10.00" fill="#ffffff">◎ PUT_STRING</text>
<polygon fill="#0396af" stroke="none" points="697,-133 697,-150 780,-150 780,-133 697,-133"/>
<polygon fill="none" stroke="#015462" points="697,-133 697,-150 780,-150 780,-133 697,-133"/>
<text text-anchor="start" x="700" y="-139" font-family="Helvetica,sans-Serif" font-size="10.00" fill="#ffffff">◎ ROW</text>
<polygon fill="#0396af" stroke="none" points="697,-116 697,-133 780,-133 780,-116 697,-116"/>
<polygon fill="none" stroke="#015462" points="697,-116 697,-133 780,-133 780,-116 697,-116"/>
<text text-anchor="start" x="700" y="-122" font-family="Helvetica,sans-Serif" font-size="10.00" fill="#ffffff">◎ COL</text>
</g>
<!-- initial_string -->
<g id="node2" class="node"><title>initial_string</title>
<polygon fill="#e8ea7a" stroke="none" points="537,-261 537,-290 616,-290 616,-261 537,-261"/>
<polygon fill="none" stroke="#616233" points="537,-261 537,-290 616,-290 616,-261 537,-261"/>
<text text-anchor="start" x="540.5" y="-276.3" font-family="Helvetica,sans-Serif" font-size="14.00" fill="#000000">initial_string</text>
<text text-anchor="start" x="550.5" y="-267.1" font-family="Helvetica,sans-Serif" font-size="8.00" fill="#000000">constant/string</text>
<polygon fill="#828344" stroke="none" points="537,-244 537,-261 616,-261 616,-244 537,-244"/>
<polygon fill="none" stroke="#616233" points="537,-244 537,-261 616,-261 616,-244 537,-244"/>
<text text-anchor="start" x="580" y="-250" font-family="Helvetica,sans-Serif" font-size="10.00" fill="#ffffff">OUT ◉</text>
</g>
<!-- initial_string&#45;&gt;lcd -->
<g id="edge1" class="edge"><title>initial_string:OUT:e&#45;&gt;lcd:PUT_STRING:w</title>
<path fill="none" stroke="#3d4458" stroke-width="2" d="M617,-252C635.141,-252 639.121,-243.775 652,-231 677.586,-205.622 659.999,-162.532 691.863,-159.205"/>
<ellipse fill="#3d4458" stroke="#3d4458" stroke-width="2" cx="694.002" cy="-159.099" rx="2" ry="2"/>
</g>
<!-- timer -->
<g id="node3" class="node"><title>timer</title>
<polygon fill="#7f2fae" stroke="none" points="8,-118 8,-147 72,-147 72,-118 8,-118"/>
<polygon fill="none" stroke="#351348" points="8,-118 8,-147 72,-147 72,-118 8,-118"/>
<text text-anchor="start" x="11.5" y="-133.3" font-family="Helvetica,sans-Serif" font-size="14.00" fill="#ffffff">🕐 Timer</text>
<text text-anchor="start" x="30.5" y="-124.1" font-family="Helvetica,sans-Serif" font-size="8.00" fill="#ffffff">timer</text>
<polygon fill="#471a61" stroke="none" points="8,-101 8,-118 72,-118 72,-101 8,-101"/>
<polygon fill="none" stroke="#351348" points="8,-101 8,-118 72,-118 72,-101 8,-101"/>
<text text-anchor="start" x="36" y="-107" font-family="Helvetica,sans-Serif" font-size="10.00" fill="#ffffff">OUT ◉</text>
</g>
<!-- #anon:47:17 -->
<g id="node4" class="node"><title>#anon:47:17</title>
<polygon fill="#bd648a" stroke="none" points="316,-38 316,-60 456,-60 456,-38 316,-38"/>
<polygon fill="none" stroke="#4e2a39" points="316,-38 316,-60 456,-60 456,-38 316,-38"/>
<text text-anchor="start" x="319.5" y="-45.3" font-family="Helvetica,sans-Serif" font-size="14.00" fill="#000000">converter/empty&#45;to&#45;int</text>
<polygon fill="#8d4b67" stroke="none" points="316,-21 316,-38 456,-38 456,-21 316,-21"/>
<polygon fill="none" stroke="#4e2a39" points="316,-21 316,-38 456,-38 456,-21 316,-21"/>
<text text-anchor="start" x="319" y="-27" font-family="Helvetica,sans-Serif" font-size="10.00" fill="#ffffff">◎ IN</text>
<polygon fill="#69384d" stroke="none" points="316,-4 316,-21 456,-21 456,-4 316,-4"/>
<polygon fill="none" stroke="#4e2a39" points="316,-4 316,-21 456,-21 456,-4 316,-4"/>
<text text-anchor="start" x="420" y="-10" font-family="Helvetica,sans-Serif" font-size="10.00" fill="#ffffff">OUT ◉</text>
</g>
<!-- timer&#45;&gt;#anon:47:17 -->
<g id="edge2" class="edge"><title>timer:OUT:e&#45;&gt;#anon:47:17:IN:w</title>
<path fill="none" stroke="#868c00" stroke-width="2" d="M73,-109C98.5043,-109 93.2137,-82.4567 116,-71 195.498,-31.0295 223.724,-29.0532 310.808,-29.0012"/>
<ellipse fill="#868c00" stroke="#868c00" stroke-width="2" cx="313" cy="-29.0006" rx="2" ry="2"/>
</g>
<!-- #anon:48:17 -->
<g id="node5" class="node"><title>#anon:48:17</title>
<polygon fill="#bd648a" stroke="none" points="124,-118 124,-140 264,-140 264,-118 124,-118"/>
<polygon fill="none" stroke="#4e2a39" points="124,-118 124,-140 264,-140 264,-118 124,-118"/>
<text text-anchor="start" x="127.5" y="-125.3" font-family="Helvetica,sans-Serif" font-size="14.00" fill="#000000">converter/empty&#45;to&#45;int</text>
<polygon fill="#8d4b67" stroke="none" points="124,-101 124,-118 264,-118 264,-101 124,-101"/>
<polygon fill="none" stroke="#4e2a39" points="124,-101 124,-118 264,-118 264,-101 124,-101"/>
<text text-anchor="start" x="127" y="-107" font-family="Helvetica,sans-Serif" font-size="10.00" fill="#ffffff">◎ IN</text>
<polygon fill="#69384d" stroke="none" points="124,-84 124,-101 264,-101 264,-84 124,-84"/>
<polygon fill="none" stroke="#4e2a39" points="124,-84 124,-101 264,-101 264,-84 124,-84"/>
<text text-anchor="start" x="228" y="-90" font-family="Helvetica,sans-Serif" font-size="10.00" fill="#ffffff">OUT ◉</text>
</g>
<!-- timer&#45;&gt;#anon:48:17 -->
<g id="edge4" class="edge"><title>timer:OUT:e&#45;&gt;#anon:48:17:IN:w</title>
<path fill="none" stroke="#178e1c" stroke-width="2" d="M73,-109C93.6597,-109 99.9141,-109 118.548,-109"/>
<ellipse fill="#178e1c" stroke="#178e1c" stroke-width="2" cx="121" cy="-109" rx="2" ry="2"/>
</g>
<!-- acc -->
<g id="node6" class="node"><title>acc</title>
<polygon fill="#254878" stroke="none" points="163,-207 163,-236 225,-236 225,-207 163,-207"/>
<polygon fill="none" stroke="#0f1e32" points="163,-207 163,-236 225,-236 225,-207 163,-207"/>
<text text-anchor="start" x="183" y="-222.3" font-family="Helvetica,sans-Serif" font-size="14.00" fill="#ffffff">acc</text>
<text text-anchor="start" x="166.5" y="-213.1" font-family="Helvetica,sans-Serif" font-size="8.00" fill="#ffffff">int/accumulator</text>
<polygon fill="#1b365a" stroke="none" points="163,-190 163,-207 225,-207 225,-190 163,-190"/>
<polygon fill="none" stroke="#0f1e32" points="163,-190 163,-207 225,-207 225,-190 163,-190"/>
<text text-anchor="start" x="166" y="-196" font-family="Helvetica,sans-Serif" font-size="10.00" fill="#ffffff">◎ INC</text>
<polygon fill="#142843" stroke="none" points="163,-173 163,-190 225,-190 225,-173 163,-173"/>
<polygon fill="none" stroke="#0f1e32" points="163,-173 163,-190 225,-190 225,-173 163,-173"/>
<text text-anchor="start" x="189" y="-179" font-family="Helvetica,sans-Serif" font-size="10.00" fill="#ffffff">OUT ◉</text>
</g>
<!-- timer&#45;&gt;acc -->
<g id="edge6" class="edge"><title>timer:OUT:e&#45;&gt;acc:INC:w</title>
<path fill="none" stroke="#d17572" stroke-width="2" d="M73,-109C100.343,-109 96.6703,-133.661 116,-153 135.192,-172.201 133.627,-195.496 157.879,-197.812"/>
<ellipse fill="#d17572" stroke="#d17572" stroke-width="2" cx="160.002" cy="-197.909" rx="2" ry="2"/>
</g>
<!-- #anon:47:17&#45;&gt;lcd -->
<g id="edge3" class="edge"><title>#anon:47:17:OUT:e&#45;&gt;lcd:ROW:w</title>
<path fill="none" stroke="#553ed4" stroke-width="2" d="M457,-12C576.293,-12 575.332,-137.994 691.807,-140.947"/>
<ellipse fill="#553ed4" stroke="#553ed4" stroke-width="2" cx="694" cy="-140.975" rx="2" ry="2"/>
</g>
<!-- #anon:48:17&#45;&gt;lcd -->
<g id="edge5" class="edge"><title>#anon:48:17:OUT:e&#45;&gt;lcd:COL:w</title>
<path fill="none" stroke="#05be90" stroke-width="2" d="M265,-92C455.676,-92 503.223,-123.533 691.803,-123.995"/>
<ellipse fill="#05be90" stroke="#05be90" stroke-width="2" cx="694" cy="-123.998" rx="2" ry="2"/>
</g>
<!-- filter -->
<g id="node7" class="node"><title>filter</title>
<polygon fill="#254878" stroke="none" points="366,-205 366,-234 406,-234 406,-205 366,-205"/>
<polygon fill="none" stroke="#0f1e32" points="366,-205 366,-234 406,-234 406,-205 366,-205"/>
<text text-anchor="start" x="373" y="-220.3" font-family="Helvetica,sans-Serif" font-size="14.00" fill="#ffffff">filter</text>
<text text-anchor="start" x="373" y="-211.1" font-family="Helvetica,sans-Serif" font-size="8.00" fill="#ffffff">int/filter</text>
<polygon fill="#1b365a" stroke="none" points="366,-188 366,-205 406,-205 406,-188 366,-188"/>
<polygon fill="none" stroke="#0f1e32" points="366,-188 366,-205 406,-205 406,-188 366,-188"/>
<text text-anchor="start" x="369" y="-194" font-family="Helvetica,sans-Serif" font-size="10.00" fill="#ffffff">◎ IN</text>
<polygon fill="#142843" stroke="none" points="366,-171 366,-188 406,-188 406,-171 366,-171"/>
<polygon fill="none" stroke="#0f1e32" points="366,-171 366,-188 406,-188 406,-171 366,-171"/>
<text text-anchor="start" x="370" y="-177" font-family="Helvetica,sans-Serif" font-size="10.00" fill="#ffffff">OUT ◉</text>
</g>
<!-- acc&#45;&gt;filter -->
<g id="edge7" class="edge"><title>acc:OUT:e&#45;&gt;filter:IN:w</title>
<path fill="none" stroke="#b97454" stroke-width="2" d="M226,-181C286.68,-181 302.147,-195.305 360.708,-195.976"/>
<ellipse fill="#b97454" stroke="#b97454" stroke-width="2" cx="363" cy="-195.989" rx="2" ry="2"/>
</g>
<!-- #anon:53:18 -->
<g id="node8" class="node"><title>#anon:53:18</title>
<polygon fill="#bd648a" stroke="none" points="509,-196 509,-218 644,-218 644,-196 509,-196"/>
<polygon fill="none" stroke="#4e2a39" points="509,-196 509,-218 644,-218 644,-196 509,-196"/>
<text text-anchor="start" x="512.5" y="-203.3" font-family="Helvetica,sans-Serif" font-size="14.00" fill="#000000">converter/int&#45;to&#45;string</text>
<polygon fill="#8d4b67" stroke="none" points="509,-179 509,-196 644,-196 644,-179 509,-179"/>
<polygon fill="none" stroke="#4e2a39" points="509,-179 509,-196 644,-196 644,-179 509,-179"/>
<text text-anchor="start" x="512" y="-185" font-family="Helvetica,sans-Serif" font-size="10.00" fill="#ffffff">◎ IN</text>
<polygon fill="#69384d" stroke="none" points="509,-162 509,-179 644,-179 644,-162 509,-162"/>
<polygon fill="none" stroke="#4e2a39" points="509,-162 509,-179 644,-179 644,-162 509,-162"/>
<text text-anchor="start" x="608" y="-168" font-family="Helvetica,sans-Serif" font-size="10.00" fill="#ffffff">OUT ◉</text>
</g>
<!-- filter&#45;&gt;#anon:53:18 -->
<g id="edge8" class="edge"><title>filter:OUT:e&#45;&gt;#anon:53:18:IN:w</title>
<path fill="none" stroke="#8c185c" stroke-width="2" d="M407,-179C450.622,-179 462.253,-186.508 503.876,-186.977"/>
<ellipse fill="#8c185c" stroke="#8c185c" stroke-width="2" cx="506" cy="-186.989" rx="2" ry="2"/>
</g>
<!-- #anon:53:18&#45;&gt;lcd -->
<g id="edge9" class="edge"><title>#anon:53:18:OUT:e&#45;&gt;lcd:PUT_STRING:w</title>
<path fill="none" stroke="#323e2c" stroke-width="2" d="M645,-170C666.739,-170 672.162,-160.332 691.861,-159.124"/>
<ellipse fill="#323e2c" stroke="#323e2c" stroke-width="2" cx="694.001" cy="-159.06" rx="2" ry="2"/>
</g>
</g>
</svg>
