<?xml version="1.0" encoding="UTF-8" standalone="no"?>
<!DOCTYPE svg PUBLIC "-//W3C//DTD SVG 1.1//EN"
 "http://www.w3.org/Graphics/SVG/1.1/DTD/svg11.dtd">
<!-- Generated by graphviz version 2.36.0 (20140111.2315)
 -->
<!-- Title: fbp Pages: 1 -->
<svg width="830pt" height="357pt"
 viewBox="0.00 0.00 830.00 357.18" xmlns="http://www.w3.org/2000/svg" xmlns:xlink="http://www.w3.org/1999/xlink">
<g id="graph0" class="graph" transform="scale(1 1) rotate(0) translate(4 353.175)">
<title>fbp</title>
<polygon fill="white" stroke="none" points="-4,4 -4,-353.175 826,-353.175 826,4 -4,4"/>
<!-- timer -->
<g id="node1" class="node"><title>timer</title>
<polygon fill="#7f2fae" stroke="none" points="8,-278 8,-307 72,-307 72,-278 8,-278"/>
<polygon fill="none" stroke="#351348" points="8,-278 8,-307 72,-307 72,-278 8,-278"/>
<text text-anchor="start" x="11.5" y="-293.3" font-family="Helvetica,sans-Serif" font-size="14.00" fill="#ffffff">🕐 Timer</text>
<text text-anchor="start" x="30.5" y="-284.1" font-family="Helvetica,sans-Serif" font-size="8.00" fill="#ffffff">timer</text>
<polygon fill="#471a61" stroke="none" points="8,-261 8,-278 72,-278 72,-261 8,-261"/>
<polygon fill="none" stroke="#351348" points="8,-261 8,-278 72,-278 72,-261 8,-261"/>
<text text-anchor="start" x="36" y="-267" font-family="Helvetica,sans-Serif" font-size="10.00" fill="#ffffff">OUT ◉</text>
</g>
<!-- chars -->
<g id="node3" class="node"><title>chars</title>
<polygon fill="#254878" stroke="none" points="125,-205 125,-234 201,-234 201,-205 125,-205"/>
<polygon fill="none" stroke="#0f1e32" points="125,-205 125,-234 201,-234 201,-205 125,-205"/>
<text text-anchor="start" x="146" y="-220.3" font-family="Helvetica,sans-Serif" font-size="14.00" fill="#ffffff">chars</text>
<text text-anchor="start" x="135.5" y="-211.1" font-family="Helvetica,sans-Serif" font-size="8.00" fill="#ffffff">int/accumulator</text>
<polygon fill="#1b365a" stroke="none" points="125,-188 125,-205 201,-205 201,-188 125,-188"/>
<polygon fill="none" stroke="#0f1e32" points="125,-188 125,-205 201,-205 201,-188 125,-188"/>
<text text-anchor="start" x="128" y="-194" font-family="Helvetica,sans-Serif" font-size="10.00" fill="#ffffff">◎ INC</text>
<polygon fill="#142843" stroke="none" points="125,-171 125,-188 201,-188 201,-171 125,-171"/>
<polygon fill="none" stroke="#0f1e32" points="125,-171 125,-188 201,-188 201,-171 125,-171"/>
<text text-anchor="start" x="165" y="-177" font-family="Helvetica,sans-Serif" font-size="10.00" fill="#ffffff">OUT ◉</text>
<polygon fill="#142843" stroke="none" points="125,-154 125,-171 201,-171 201,-154 125,-154"/>
<polygon fill="none" stroke="#0f1e32" points="125,-154 125,-171 201,-171 201,-154 125,-154"/>
<text text-anchor="start" x="129" y="-160" font-family="Helvetica,sans-Serif" font-size="10.00" fill="#ffffff">OVERFLOW ◉</text>
</g>
<!-- timer&#45;&gt;chars -->
<g id="edge7" class="edge"><title>timer:OUT:e&#45;&gt;chars:INC:w</title>
<path fill="none" stroke="#da59fa" stroke-width="2" d="M73,-269C110.683,-269 86.8267,-202.515 119.702,-197.321"/>
<ellipse fill="#da59fa" stroke="#da59fa" stroke-width="2" cx="122.006" cy="-197.149" rx="2" ry="2"/>
</g>
<!-- curr_char -->
<g id="node7" class="node"><title>curr_char</title>
<polygon fill="#bd648a" stroke="none" points="407,-273 407,-302 505,-302 505,-273 407,-273"/>
<polygon fill="none" stroke="#4e2a39" points="407,-273 407,-302 505,-302 505,-273 407,-273"/>
<text text-anchor="start" x="427" y="-288.3" font-family="Helvetica,sans-Serif" font-size="14.00" fill="#000000">curr_char</text>
<text text-anchor="start" x="413" y="-279.1" font-family="Helvetica,sans-Serif" font-size="8.00" fill="#000000">converter/empty&#45;to&#45;byte</text>
<polygon fill="#8d4b67" stroke="none" points="407,-256 407,-273 505,-273 505,-256 407,-256"/>
<polygon fill="none" stroke="#4e2a39" points="407,-256 407,-273 505,-273 505,-256 407,-256"/>
<text text-anchor="start" x="410" y="-262" font-family="Helvetica,sans-Serif" font-size="10.00" fill="#ffffff">◎ OUTPUT_VALUE</text>
<polygon fill="#8d4b67" stroke="none" points="407,-239 407,-256 505,-256 505,-239 407,-239"/>
<polygon fill="none" stroke="#4e2a39" points="407,-239 407,-256 505,-256 505,-239 407,-239"/>
<text text-anchor="start" x="410" y="-245" font-family="Helvetica,sans-Serif" font-size="10.00" fill="#ffffff">◎ IN</text>
<polygon fill="#69384d" stroke="none" points="407,-222 407,-239 505,-239 505,-222 407,-222"/>
<polygon fill="none" stroke="#4e2a39" points="407,-222 407,-239 505,-239 505,-222 407,-222"/>
<text text-anchor="start" x="469" y="-228" font-family="Helvetica,sans-Serif" font-size="10.00" fill="#ffffff">OUT ◉</text>
</g>
<!-- timer&#45;&gt;curr_char -->
<g id="edge6" class="edge"><title>timer:OUT:e&#45;&gt;curr_char:IN:w</title>
<path fill="none" stroke="#3da8f0" stroke-width="2" d="M73,-269C100.027,-269 91.4454,-300.707 116,-312 207.344,-354.012 250.702,-364.113 342,-322 380.392,-304.291 363.485,-250.936 401.608,-247.206"/>
<ellipse fill="#3da8f0" stroke="#3da8f0" stroke-width="2" cx="404.002" cy="-247.094" rx="2" ry="2"/>
</g>
<!-- lcd -->
<g id="node2" class="node"><title>lcd</title>
<polygon fill="#05c9ea" stroke="none" points="716,-125 716,-154 814,-154 814,-125 716,-125"/>
<polygon fill="none" stroke="#015462" points="716,-125 716,-154 814,-154 814,-125 716,-125"/>
<text text-anchor="start" x="756" y="-140.3" font-family="Helvetica,sans-Serif" font-size="14.00" fill="#000000">lcd</text>
<text text-anchor="start" x="747.5" y="-131.1" font-family="Helvetica,sans-Serif" font-size="8.00" fill="#000000">LCDChar</text>
<polygon fill="#0396af" stroke="none" points="716,-108 716,-125 814,-125 814,-108 716,-108"/>
<polygon fill="none" stroke="#015462" points="716,-108 716,-125 814,-125 814,-108 716,-108"/>
<text text-anchor="start" x="719" y="-114" font-family="Helvetica,sans-Serif" font-size="10.00" fill="#ffffff">◎ PUT_CHAR</text>
<polygon fill="#0396af" stroke="none" points="716,-91 716,-108 814,-108 814,-91 716,-91"/>
<polygon fill="none" stroke="#015462" points="716,-91 716,-108 814,-108 814,-91 716,-91"/>
<text text-anchor="start" x="719" y="-97" font-family="Helvetica,sans-Serif" font-size="10.00" fill="#ffffff">◎ LEFT_TO_RIGHT</text>
<polygon fill="#0396af" stroke="none" points="716,-74 716,-91 814,-91 814,-74 716,-74"/>
<polygon fill="none" stroke="#015462" points="716,-74 716,-91 814,-91 814,-74 716,-74"/>
<text text-anchor="start" x="719" y="-80" font-family="Helvetica,sans-Serif" font-size="10.00" fill="#ffffff">◎ COL</text>
</g>
<!-- to_byte -->
<g id="node4" class="node"><title>to_byte</title>
<polygon fill="#bd648a" stroke="none" points="254,-280 254,-309 334,-309 334,-280 254,-280"/>
<polygon fill="none" stroke="#4e2a39" points="254,-280 254,-309 334,-309 334,-280 254,-280"/>
<text text-anchor="start" x="271.5" y="-295.3" font-family="Helvetica,sans-Serif" font-size="14.00" fill="#000000">to_byte</text>
<text text-anchor="start" x="257.5" y="-286.1" font-family="Helvetica,sans-Serif" font-size="8.00" fill="#000000">converter/int&#45;to&#45;byte</text>
<polygon fill="#8d4b67" stroke="none" points="254,-263 254,-280 334,-280 334,-263 254,-263"/>
<polygon fill="none" stroke="#4e2a39" points="254,-263 254,-280 334,-280 334,-263 254,-263"/>
<text text-anchor="start" x="257" y="-269" font-family="Helvetica,sans-Serif" font-size="10.00" fill="#ffffff">◎ IN</text>
<polygon fill="#69384d" stroke="none" points="254,-246 254,-263 334,-263 334,-246 254,-246"/>
<polygon fill="none" stroke="#4e2a39" points="254,-246 254,-263 334,-263 334,-246 254,-246"/>
<text text-anchor="start" x="298" y="-252" font-family="Helvetica,sans-Serif" font-size="10.00" fill="#ffffff">OUT ◉</text>
</g>
<!-- chars&#45;&gt;to_byte -->
<g id="edge1" class="edge"><title>chars:OUT:e&#45;&gt;to_byte:IN:w</title>
<path fill="none" stroke="#c26378" stroke-width="2" d="M202,-179C247.29,-179 208.818,-265.34 248.873,-270.736"/>
<ellipse fill="#c26378" stroke="#c26378" stroke-width="2" cx="251.004" cy="-270.872" rx="2" ry="2"/>
</g>
<!-- comp_m -->
<g id="node5" class="node"><title>comp_m</title>
<polygon fill="#254878" stroke="none" points="264,-191 264,-220 325,-220 325,-191 264,-191"/>
<polygon fill="none" stroke="#0f1e32" points="264,-191 264,-220 325,-220 325,-191 264,-191"/>
<text text-anchor="start" x="267.5" y="-206.3" font-family="Helvetica,sans-Serif" font-size="14.00" fill="#ffffff">comp_m</text>
<text text-anchor="start" x="279" y="-197.1" font-family="Helvetica,sans-Serif" font-size="8.00" fill="#ffffff">int/equal</text>
<polygon fill="#1b365a" stroke="none" points="264,-174 264,-191 325,-191 325,-174 264,-174"/>
<polygon fill="none" stroke="#0f1e32" points="264,-174 264,-191 325,-191 325,-174 264,-174"/>
<text text-anchor="start" x="267" y="-180" font-family="Helvetica,sans-Serif" font-size="10.00" fill="#ffffff">◎ IN</text>
<polygon fill="#142843" stroke="none" points="264,-157 264,-174 325,-174 325,-157 264,-157"/>
<polygon fill="none" stroke="#0f1e32" points="264,-157 264,-174 325,-174 325,-157 264,-157"/>
<text text-anchor="start" x="289" y="-163" font-family="Helvetica,sans-Serif" font-size="10.00" fill="#ffffff">OUT ◉</text>
</g>
<!-- chars&#45;&gt;comp_m -->
<g id="edge2" class="edge"><title>chars:OUT:e&#45;&gt;comp_m:IN:w</title>
<path fill="none" stroke="#a42e94" stroke-width="2" d="M202,-179C227.659,-179 235.061,-181.681 258.723,-181.974"/>
<ellipse fill="#a42e94" stroke="#a42e94" stroke-width="2" cx="261" cy="-181.988" rx="2" ry="2"/>
</g>
<!-- comp_s -->
<g id="node10" class="node"><title>comp_s</title>
<polygon fill="#254878" stroke="none" points="266,-102 266,-131 322,-131 322,-102 266,-102"/>
<polygon fill="none" stroke="#0f1e32" points="266,-102 266,-131 322,-131 322,-102 266,-102"/>
<text text-anchor="start" x="269.5" y="-117.3" font-family="Helvetica,sans-Serif" font-size="14.00" fill="#ffffff">comp_s</text>
<text text-anchor="start" x="278.5" y="-108.1" font-family="Helvetica,sans-Serif" font-size="8.00" fill="#ffffff">int/equal</text>
<polygon fill="#1b365a" stroke="none" points="266,-85 266,-102 322,-102 322,-85 266,-85"/>
<polygon fill="none" stroke="#0f1e32" points="266,-85 266,-102 322,-102 322,-85 266,-85"/>
<text text-anchor="start" x="269" y="-91" font-family="Helvetica,sans-Serif" font-size="10.00" fill="#ffffff">◎ IN</text>
<polygon fill="#142843" stroke="none" points="266,-68 266,-85 322,-85 322,-68 266,-68"/>
<polygon fill="none" stroke="#0f1e32" points="266,-68 266,-85 322,-85 322,-68 266,-68"/>
<text text-anchor="start" x="286" y="-74" font-family="Helvetica,sans-Serif" font-size="10.00" fill="#ffffff">OUT ◉</text>
</g>
<!-- chars&#45;&gt;comp_s -->
<g id="edge11" class="edge"><title>chars:OUT:e&#45;&gt;comp_s:IN:w</title>
<path fill="none" stroke="#2dd088" stroke-width="2" d="M202,-179C247.9,-179 219.527,-98.291 260.785,-93.2467"/>
<ellipse fill="#2dd088" stroke="#2dd088" stroke-width="2" cx="263.003" cy="-93.1169" rx="2" ry="2"/>
</g>
<!-- #anon:65:22 -->
<g id="node13" class="node"><title>#anon:65:22</title>
<polygon fill="#bd648a" stroke="none" points="386,-38 386,-60 526,-60 526,-38 386,-38"/>
<polygon fill="none" stroke="#4e2a39" points="386,-38 386,-60 526,-60 526,-38 386,-38"/>
<text text-anchor="start" x="389.5" y="-45.3" font-family="Helvetica,sans-Serif" font-size="14.00" fill="#000000">converter/empty&#45;to&#45;int</text>
<polygon fill="#8d4b67" stroke="none" points="386,-21 386,-38 526,-38 526,-21 386,-21"/>
<polygon fill="none" stroke="#4e2a39" points="386,-21 386,-38 526,-38 526,-21 386,-21"/>
<text text-anchor="start" x="389" y="-27" font-family="Helvetica,sans-Serif" font-size="10.00" fill="#ffffff">◎ IN</text>
<polygon fill="#69384d" stroke="none" points="386,-4 386,-21 526,-21 526,-4 386,-4"/>
<polygon fill="none" stroke="#4e2a39" points="386,-4 386,-21 526,-21 526,-4 386,-4"/>
<text text-anchor="start" x="490" y="-10" font-family="Helvetica,sans-Serif" font-size="10.00" fill="#ffffff">OUT ◉</text>
</g>
<!-- chars&#45;&gt;#anon:65:22 -->
<g id="edge15" class="edge"><title>chars:OVERFLOW:e&#45;&gt;#anon:65:22:IN:w</title>
<path fill="none" stroke="#915cfa" stroke-width="2" d="M202,-162C253.419,-162 206.108,-87.4434 246,-55 293.712,-16.1968 320.964,-28.4379 380.998,-28.9818"/>
<ellipse fill="#915cfa" stroke="#915cfa" stroke-width="2" cx="383" cy="-28.9908" rx="2" ry="2"/>
</g>
<!-- to_byte&#45;&gt;curr_char -->
<g id="edge4" class="edge"><title>to_byte:OUT:e&#45;&gt;curr_char:OUTPUT_VALUE:w</title>
<path fill="none" stroke="#618efc" stroke-width="2" d="M335,-254C365.435,-254 373.344,-263.993 401.668,-264.93"/>
<ellipse fill="#618efc" stroke="#618efc" stroke-width="2" cx="404" cy="-264.968" rx="2" ry="2"/>
</g>
<!-- #anon:58:18 -->
<g id="node8" class="node"><title>#anon:58:18</title>
<polygon fill="#184294" stroke="none" points="414,-174 414,-196 499,-196 499,-174 414,-174"/>
<polygon fill="none" stroke="#091b3e" points="414,-174 414,-196 499,-196 499,-174 414,-174"/>
<text text-anchor="start" x="417.5" y="-181.3" font-family="Helvetica,sans-Serif" font-size="14.00" fill="#ffffff">boolean/filter</text>
<polygon fill="#12316f" stroke="none" points="414,-157 414,-174 499,-174 499,-157 414,-157"/>
<polygon fill="none" stroke="#091b3e" points="414,-157 414,-174 499,-174 499,-157 414,-157"/>
<text text-anchor="start" x="417" y="-163" font-family="Helvetica,sans-Serif" font-size="10.00" fill="#ffffff">◎ IN</text>
<polygon fill="#0d2453" stroke="none" points="414,-140 414,-157 499,-157 499,-140 414,-140"/>
<polygon fill="none" stroke="#091b3e" points="414,-140 414,-157 499,-157 499,-140 414,-140"/>
<text text-anchor="start" x="456" y="-146" font-family="Helvetica,sans-Serif" font-size="10.00" fill="#ffffff">TRUE ◉</text>
</g>
<!-- comp_m&#45;&gt;#anon:58:18 -->
<g id="edge8" class="edge"><title>comp_m:OUT:e&#45;&gt;#anon:58:18:IN:w</title>
<path fill="none" stroke="#9aabaa" stroke-width="2" d="M326,-165C363.156,-165 373.534,-165 408.598,-165"/>
<ellipse fill="#9aabaa" stroke="#9aabaa" stroke-width="2" cx="411" cy="-165" rx="2" ry="2"/>
</g>
<!-- #anon:50:1 -->
<g id="node6" class="node"><title>#anon:50:1</title>
<polygon fill="#e8ea7a" stroke="none" points="125,-277 125,-299 202,-299 202,-277 125,-277"/>
<polygon fill="none" stroke="#616233" points="125,-277 125,-299 202,-299 202,-277 125,-277"/>
<text text-anchor="start" x="128.5" y="-284.3" font-family="Helvetica,sans-Serif" font-size="14.00" fill="#000000">constant/int</text>
<polygon fill="#828344" stroke="none" points="125,-260 125,-277 202,-277 202,-260 125,-260"/>
<polygon fill="none" stroke="#616233" points="125,-260 125,-277 202,-277 202,-260 125,-260"/>
<text text-anchor="start" x="166" y="-266" font-family="Helvetica,sans-Serif" font-size="10.00" fill="#ffffff">OUT ◉</text>
</g>
<!-- #anon:50:1&#45;&gt;comp_m -->
<g id="edge3" class="edge"><title>#anon:50:1:OUT:e&#45;&gt;comp_m:IN:w</title>
<path fill="none" stroke="#8b246a" stroke-width="2" d="M203,-268C248.149,-268 218.392,-187.291 258.86,-182.247"/>
<ellipse fill="#8b246a" stroke="#8b246a" stroke-width="2" cx="261.004" cy="-182.119" rx="2" ry="2"/>
</g>
<!-- curr_char&#45;&gt;lcd -->
<g id="edge5" class="edge"><title>curr_char:OUT:e&#45;&gt;lcd:PUT_CHAR:w</title>
<path fill="none" stroke="#ef4ea6" stroke-width="2" d="M506,-230C580.895,-230 611.718,-245.445 672,-201 704.571,-176.986 675.276,-121.114 710.847,-117.215"/>
<ellipse fill="#ef4ea6" stroke="#ef4ea6" stroke-width="2" cx="713.003" cy="-117.104" rx="2" ry="2"/>
</g>
<!-- #anon:58:47 -->
<g id="node9" class="node"><title>#anon:58:47</title>
<polygon fill="#184294" stroke="none" points="582,-166 582,-188 660,-188 660,-166 582,-166"/>
<polygon fill="none" stroke="#091b3e" points="582,-166 582,-188 660,-188 660,-166 582,-166"/>
<text text-anchor="start" x="585.5" y="-173.3" font-family="Helvetica,sans-Serif" font-size="14.00" fill="#ffffff">boolean/not</text>
<polygon fill="#12316f" stroke="none" points="582,-149 582,-166 660,-166 660,-149 582,-149"/>
<polygon fill="none" stroke="#091b3e" points="582,-149 582,-166 660,-166 660,-149 582,-149"/>
<text text-anchor="start" x="585" y="-155" font-family="Helvetica,sans-Serif" font-size="10.00" fill="#ffffff">◎ IN</text>
<polygon fill="#0d2453" stroke="none" points="582,-132 582,-149 660,-149 660,-132 582,-132"/>
<polygon fill="none" stroke="#091b3e" points="582,-132 582,-149 660,-149 660,-132 582,-132"/>
<text text-anchor="start" x="624" y="-138" font-family="Helvetica,sans-Serif" font-size="10.00" fill="#ffffff">OUT ◉</text>
</g>
<!-- #anon:58:18&#45;&gt;#anon:58:47 -->
<g id="edge9" class="edge"><title>#anon:58:18:TRUE:e&#45;&gt;#anon:58:47:IN:w</title>
<path fill="none" stroke="#264ad5" stroke-width="2" d="M500,-148C534.807,-148 544.068,-156.311 576.879,-156.96"/>
<ellipse fill="#264ad5" stroke="#264ad5" stroke-width="2" cx="579" cy="-156.98" rx="2" ry="2"/>
</g>
<!-- #anon:58:47&#45;&gt;lcd -->
<g id="edge10" class="edge"><title>#anon:58:47:OUT:e&#45;&gt;lcd:LEFT_TO_RIGHT:w</title>
<path fill="none" stroke="#aa43b2" stroke-width="2" d="M661,-140C689.721,-140 685.374,-102.754 710.995,-99.2618"/>
<ellipse fill="#aa43b2" stroke="#aa43b2" stroke-width="2" cx="713.004" cy="-99.1305" rx="2" ry="2"/>
</g>
<!-- #anon:63:18 -->
<g id="node12" class="node"><title>#anon:63:18</title>
<polygon fill="#184294" stroke="none" points="579,-84 579,-106 664,-106 664,-84 579,-84"/>
<polygon fill="none" stroke="#091b3e" points="579,-84 579,-106 664,-106 664,-84 579,-84"/>
<text text-anchor="start" x="582.5" y="-91.3" font-family="Helvetica,sans-Serif" font-size="14.00" fill="#ffffff">boolean/filter</text>
<polygon fill="#12316f" stroke="none" points="579,-67 579,-84 664,-84 664,-67 579,-67"/>
<polygon fill="none" stroke="#091b3e" points="579,-67 579,-84 664,-84 664,-67 579,-67"/>
<text text-anchor="start" x="582" y="-73" font-family="Helvetica,sans-Serif" font-size="10.00" fill="#ffffff">◎ IN</text>
<polygon fill="#0d2453" stroke="none" points="579,-50 579,-67 664,-67 664,-50 579,-50"/>
<polygon fill="none" stroke="#091b3e" points="579,-50 579,-67 664,-67 664,-50 579,-50"/>
<text text-anchor="start" x="621" y="-56" font-family="Helvetica,sans-Serif" font-size="10.00" fill="#ffffff">TRUE ◉</text>
</g>
<!-- comp_s&#45;&gt;#anon:63:18 -->
<g id="edge13" class="edge"><title>comp_s:OUT:e&#45;&gt;#anon:63:18:IN:w</title>
<path fill="none" stroke="#c453d0" stroke-width="2" d="M323,-76C434.895,-76 463.933,-75.0252 573.724,-75.0005"/>
<ellipse fill="#c453d0" stroke="#c453d0" stroke-width="2" cx="576" cy="-75.0003" rx="2" ry="2"/>
</g>
<!-- #anon:61:1 -->
<g id="node11" class="node"><title>#anon:61:1</title>
<polygon fill="#e8ea7a" stroke="none" points="125,-102 125,-124 202,-124 202,-102 125,-102"/>
<polygon fill="none" stroke="#616233" points="125,-102 125,-124 202,-124 202,-102 125,-102"/>
<text text-anchor="start" x="128.5" y="-109.3" font-family="Helvetica,sans-Serif" font-size="14.00" fill="#000000">constant/int</text>
<polygon fill="#828344" stroke="none" points="125,-85 125,-102 202,-102 202,-85 125,-85"/>
<polygon fill="none" stroke="#616233" points="125,-85 125,-102 202,-102 202,-85 125,-85"/>
<text text-anchor="start" x="166" y="-91" font-family="Helvetica,sans-Serif" font-size="10.00" fill="#ffffff">OUT ◉</text>
</g>
<!-- #anon:61:1&#45;&gt;comp_s -->
<g id="edge12" class="edge"><title>#anon:61:1:OUT:e&#45;&gt;comp_s:IN:w</title>
<path fill="none" stroke="#014c8a" stroke-width="2" d="M203,-93C229.156,-93 236.691,-93 260.957,-93"/>
<ellipse fill="#014c8a" stroke="#014c8a" stroke-width="2" cx="263" cy="-93" rx="2" ry="2"/>
</g>
<!-- #anon:63:18&#45;&gt;lcd -->
<g id="edge14" class="edge"><title>#anon:63:18:TRUE:e&#45;&gt;lcd:LEFT_TO_RIGHT:w</title>
<path fill="none" stroke="#9d01bc" stroke-width="2" d="M665,-58C692.279,-58 686.928,-94.9417 710.893,-98.6936"/>
<ellipse fill="#9d01bc" stroke="#9d01bc" stroke-width="2" cx="713.006" cy="-98.8512" rx="2" ry="2"/>
</g>
<!-- #anon:65:22&#45;&gt;lcd -->
<g id="edge16" class="edge"><title>#anon:65:22:OUT:e&#45;&gt;lcd:COL:w</title>
<path fill="none" stroke="#766f07" stroke-width="2" d="M527,-12C592.395,-12 614.282,-6.25627 672,-37 695.08,-49.2937 688.23,-78.5573 710.78,-81.7213"/>
<ellipse fill="#766f07" stroke="#766f07" stroke-width="2" cx="713.004" cy="-81.8682" rx="2" ry="2"/>
</g>
</g>
</svg>
