<?xml version="1.0" encoding="UTF-8" standalone="no"?>
<!DOCTYPE svg PUBLIC "-//W3C//DTD SVG 1.1//EN"
 "http://www.w3.org/Graphics/SVG/1.1/DTD/svg11.dtd">
<!-- Generated by graphviz version 2.36.0 (20140111.2315)
 -->
<!-- Title: fbp Pages: 1 -->
<svg width="1366pt" height="533pt"
 viewBox="0.00 0.00 1366.00 533.00" xmlns="http://www.w3.org/2000/svg" xmlns:xlink="http://www.w3.org/1999/xlink">
<g id="graph0" class="graph" transform="scale(1 1) rotate(0) translate(4 529)">
<title>fbp</title>
<polygon fill="white" stroke="none" points="-4,4 -4,-529 1362,-529 1362,4 -4,4"/>
<!-- true -->
<g id="node1" class="node"><title>true</title>
<polygon fill="#e8ea7a" stroke="none" points="8,-282 8,-311 76,-311 76,-282 8,-282"/>
<polygon fill="none" stroke="#616233" points="8,-282 8,-311 76,-311 76,-282 8,-282"/>
<text text-anchor="start" x="30" y="-297.3" font-family="Helvetica,sans-Serif" font-size="14.00" fill="#000000">true</text>
<text text-anchor="start" x="11.5" y="-288.1" font-family="Helvetica,sans-Serif" font-size="8.00" fill="#000000">constant/boolean</text>
<polygon fill="#828344" stroke="none" points="8,-265 8,-282 76,-282 76,-265 8,-265"/>
<polygon fill="none" stroke="#616233" points="8,-265 8,-282 76,-282 76,-265 8,-265"/>
<text text-anchor="start" x="40" y="-271" font-family="Helvetica,sans-Serif" font-size="10.00" fill="#ffffff">OUT ◉</text>
</g>
<!-- timer_scroll -->
<g id="node8" class="node"><title>timer_scroll</title>
<polygon fill="#7f2fae" stroke="none" points="128,-281 128,-310 194,-310 194,-281 128,-281"/>
<polygon fill="none" stroke="#351348" points="128,-281 128,-310 194,-310 194,-281 128,-281"/>
<text text-anchor="start" x="132.5" y="-296.3" font-family="Helvetica,sans-Serif" font-size="14.00" fill="#ffffff">🕐 Timer</text>
<text text-anchor="start" x="151.5" y="-287.1" font-family="Helvetica,sans-Serif" font-size="8.00" fill="#ffffff">timer</text>
<polygon fill="#5f2382" stroke="none" points="128,-264 128,-281 194,-281 194,-264 128,-264"/>
<polygon fill="none" stroke="#351348" points="128,-264 128,-281 194,-281 194,-264 128,-264"/>
<text text-anchor="start" x="131" y="-270" font-family="Helvetica,sans-Serif" font-size="10.00" fill="#ffffff">◎ RESET</text>
<polygon fill="#5f2382" stroke="none" points="128,-247 128,-264 194,-264 194,-247 128,-247"/>
<polygon fill="none" stroke="#351348" points="128,-247 128,-264 194,-264 194,-247 128,-247"/>
<text text-anchor="start" x="131" y="-253" font-family="Helvetica,sans-Serif" font-size="10.00" fill="#ffffff">◎ ENABLED</text>
<polygon fill="#471a61" stroke="none" points="128,-230 128,-247 194,-247 194,-230 128,-230"/>
<polygon fill="none" stroke="#351348" points="128,-230 128,-247 194,-247 194,-230 128,-230"/>
<text text-anchor="start" x="158" y="-236" font-family="Helvetica,sans-Serif" font-size="10.00" fill="#ffffff">OUT ◉</text>
</g>
<!-- true&#45;&gt;timer_scroll -->
<g id="edge5" class="edge"><title>true:OUT_OUT:e&#45;&gt;timer_scroll:IN_RESET:w</title>
<path fill="none" stroke="#9f6a42" stroke-width="2" d="M77,-273C97.6597,-273 103.914,-273 122.548,-273"/>
<ellipse fill="#9f6a42" stroke="#9f6a42" stroke-width="2" cx="125" cy="-273" rx="2" ry="2"/>
</g>
<!-- false -->
<g id="node2" class="node"><title>false</title>
<polygon fill="#e8ea7a" stroke="none" points="825,-358 825,-387 893,-387 893,-358 825,-358"/>
<polygon fill="none" stroke="#616233" points="825,-358 825,-387 893,-387 893,-358 825,-358"/>
<text text-anchor="start" x="844.5" y="-373.3" font-family="Helvetica,sans-Serif" font-size="14.00" fill="#000000">false</text>
<text text-anchor="start" x="828.5" y="-364.1" font-family="Helvetica,sans-Serif" font-size="8.00" fill="#000000">constant/boolean</text>
<polygon fill="#828344" stroke="none" points="825,-341 825,-358 893,-358 893,-341 825,-341"/>
<polygon fill="none" stroke="#616233" points="825,-341 825,-358 893,-358 893,-341 825,-341"/>
<text text-anchor="start" x="857" y="-347" font-family="Helvetica,sans-Serif" font-size="10.00" fill="#ffffff">OUT ◉</text>
</g>
<!-- timer_delay -->
<g id="node10" class="node"><title>timer_delay</title>
<polygon fill="#7f2fae" stroke="none" points="966,-352 966,-381 1032,-381 1032,-352 966,-352"/>
<polygon fill="none" stroke="#351348" points="966,-352 966,-381 1032,-381 1032,-352 966,-352"/>
<text text-anchor="start" x="970.5" y="-367.3" font-family="Helvetica,sans-Serif" font-size="14.00" fill="#ffffff">🕐 Timer</text>
<text text-anchor="start" x="989.5" y="-358.1" font-family="Helvetica,sans-Serif" font-size="8.00" fill="#ffffff">timer</text>
<polygon fill="#5f2382" stroke="none" points="966,-335 966,-352 1032,-352 1032,-335 966,-335"/>
<polygon fill="none" stroke="#351348" points="966,-335 966,-352 1032,-352 1032,-335 966,-335"/>
<text text-anchor="start" x="969" y="-341" font-family="Helvetica,sans-Serif" font-size="10.00" fill="#ffffff">◎ ENABLED</text>
<polygon fill="#5f2382" stroke="none" points="966,-318 966,-335 1032,-335 1032,-318 966,-318"/>
<polygon fill="none" stroke="#351348" points="966,-318 966,-335 1032,-335 1032,-318 966,-318"/>
<text text-anchor="start" x="969" y="-324" font-family="Helvetica,sans-Serif" font-size="10.00" fill="#ffffff">◎ RESET</text>
<polygon fill="#471a61" stroke="none" points="966,-301 966,-318 1032,-318 1032,-301 966,-301"/>
<polygon fill="none" stroke="#351348" points="966,-301 966,-318 1032,-318 1032,-301 966,-301"/>
<text text-anchor="start" x="996" y="-307" font-family="Helvetica,sans-Serif" font-size="10.00" fill="#ffffff">OUT ◉</text>
</g>
<!-- false&#45;&gt;timer_delay -->
<g id="edge6" class="edge"><title>false:OUT_OUT:e&#45;&gt;timer_delay:IN_ENABLED:w</title>
<path fill="none" stroke="#47ccba" stroke-width="2" d="M894,-349C924.151,-349 932.589,-344.458 960.704,-344.032"/>
<ellipse fill="#47ccba" stroke="#47ccba" stroke-width="2" cx="963" cy="-344.015" rx="2" ry="2"/>
</g>
<!-- char_max -->
<g id="node3" class="node"><title>char_max</title>
<polygon fill="#e8ea7a" stroke="none" points="246,-158 246,-187 314,-187 314,-158 246,-158"/>
<polygon fill="none" stroke="#616233" points="246,-158 246,-187 314,-187 314,-158 246,-158"/>
<text text-anchor="start" x="249.5" y="-173.3" font-family="Helvetica,sans-Serif" font-size="14.00" fill="#000000">char_max</text>
<text text-anchor="start" x="259.5" y="-164.1" font-family="Helvetica,sans-Serif" font-size="8.00" fill="#000000">constant/int</text>
<polygon fill="#828344" stroke="none" points="246,-141 246,-158 314,-158 314,-141 246,-141"/>
<polygon fill="none" stroke="#616233" points="246,-141 246,-158 314,-158 314,-141 246,-141"/>
<text text-anchor="start" x="278" y="-147" font-family="Helvetica,sans-Serif" font-size="10.00" fill="#ffffff">OUT ◉</text>
</g>
<!-- comp_max -->
<g id="node11" class="node"><title>comp_max</title>
<polygon fill="#254878" stroke="none" points="367,-209 367,-238 442,-238 442,-209 367,-209"/>
<polygon fill="none" stroke="#0f1e32" points="367,-209 367,-238 442,-238 442,-209 367,-209"/>
<text text-anchor="start" x="370.5" y="-224.3" font-family="Helvetica,sans-Serif" font-size="14.00" fill="#ffffff">comp_max</text>
<text text-anchor="start" x="389" y="-215.1" font-family="Helvetica,sans-Serif" font-size="8.00" fill="#ffffff">int/equal</text>
<polygon fill="#1b365a" stroke="none" points="367,-192 367,-209 442,-209 442,-192 367,-192"/>
<polygon fill="none" stroke="#0f1e32" points="367,-192 367,-209 442,-209 442,-192 367,-192"/>
<text text-anchor="start" x="370" y="-198" font-family="Helvetica,sans-Serif" font-size="10.00" fill="#ffffff">◎ IN</text>
<polygon fill="#142843" stroke="none" points="367,-175 367,-192 442,-192 442,-175 367,-175"/>
<polygon fill="none" stroke="#0f1e32" points="367,-175 367,-192 442,-192 442,-175 367,-175"/>
<text text-anchor="start" x="406" y="-181" font-family="Helvetica,sans-Serif" font-size="10.00" fill="#ffffff">OUT ◉</text>
</g>
<!-- char_max&#45;&gt;comp_max -->
<g id="edge8" class="edge"><title>char_max:OUT_OUT:e&#45;&gt;comp_max:IN_IN:w</title>
<path fill="none" stroke="#4a44a4" stroke-width="2" d="M315,-149C345.553,-149 335.074,-195.331 361.781,-199.674"/>
<ellipse fill="#4a44a4" stroke="#4a44a4" stroke-width="2" cx="364.006" cy="-199.846" rx="2" ry="2"/>
</g>
<!-- loops_switch -->
<g id="node4" class="node"><title>loops_switch</title>
<polygon fill="#184294" stroke="none" points="681,-175 681,-204 766,-204 766,-175 681,-175"/>
<polygon fill="none" stroke="#091b3e" points="681,-175 681,-204 766,-204 766,-175 681,-175"/>
<text text-anchor="start" x="684.5" y="-190.3" font-family="Helvetica,sans-Serif" font-size="14.00" fill="#ffffff">loops_switch</text>
<text text-anchor="start" x="697" y="-181.1" font-family="Helvetica,sans-Serif" font-size="8.00" fill="#ffffff">boolean/toggle</text>
<polygon fill="#12316f" stroke="none" points="681,-158 681,-175 766,-175 766,-158 681,-158"/>
<polygon fill="none" stroke="#091b3e" points="681,-158 681,-175 766,-175 766,-158 681,-158"/>
<text text-anchor="start" x="684" y="-164" font-family="Helvetica,sans-Serif" font-size="10.00" fill="#ffffff">◎ IN</text>
<polygon fill="#0d2453" stroke="none" points="681,-141 681,-158 766,-158 766,-141 681,-141"/>
<polygon fill="none" stroke="#091b3e" points="681,-141 681,-158 766,-158 766,-141 681,-141"/>
<text text-anchor="start" x="730" y="-147" font-family="Helvetica,sans-Serif" font-size="10.00" fill="#ffffff">OUT ◉</text>
</g>
<!-- end_of_loop -->
<g id="node13" class="node"><title>end_of_loop</title>
<polygon fill="#184294" stroke="none" points="818,-154 818,-183 900,-183 900,-154 818,-154"/>
<polygon fill="none" stroke="#091b3e" points="818,-154 818,-183 900,-183 900,-154 818,-154"/>
<text text-anchor="start" x="821.5" y="-169.3" font-family="Helvetica,sans-Serif" font-size="14.00" fill="#ffffff">end_of_loop</text>
<text text-anchor="start" x="836" y="-160.1" font-family="Helvetica,sans-Serif" font-size="8.00" fill="#ffffff">boolean/filter</text>
<polygon fill="#12316f" stroke="none" points="818,-137 818,-154 900,-154 900,-137 818,-137"/>
<polygon fill="none" stroke="#091b3e" points="818,-137 818,-154 900,-154 900,-137 818,-137"/>
<text text-anchor="start" x="821" y="-143" font-family="Helvetica,sans-Serif" font-size="10.00" fill="#ffffff">◎ IN</text>
<polygon fill="#0d2453" stroke="none" points="818,-120 818,-137 900,-137 900,-120 818,-120"/>
<polygon fill="none" stroke="#091b3e" points="818,-120 818,-137 900,-137 900,-120 818,-120"/>
<text text-anchor="start" x="857" y="-126" font-family="Helvetica,sans-Serif" font-size="10.00" fill="#ffffff">TRUE ◉</text>
<polygon fill="#0d2453" stroke="none" points="818,-103 818,-120 900,-120 900,-103 818,-103"/>
<polygon fill="none" stroke="#091b3e" points="818,-103 818,-120 900,-120 900,-103 818,-103"/>
<text text-anchor="start" x="854" y="-109" font-family="Helvetica,sans-Serif" font-size="10.00" fill="#ffffff">FALSE ◉</text>
</g>
<!-- loops_switch&#45;&gt;end_of_loop -->
<g id="edge11" class="edge"><title>loops_switch:OUT_OUT:e&#45;&gt;end_of_loop:IN_IN:w</title>
<path fill="none" stroke="#cb9d46" stroke-width="2" d="M767,-149C787.697,-149 793.885,-146.407 812.541,-146.042"/>
<ellipse fill="#cb9d46" stroke="#cb9d46" stroke-width="2" cx="815" cy="-146.019" rx="2" ry="2"/>
</g>
<!-- initial_color -->
<g id="node5" class="node"><title>initial_color</title>
<polygon fill="#e8ea7a" stroke="none" points="1115,-492 1115,-521 1190,-521 1190,-492 1115,-492"/>
<polygon fill="none" stroke="#616233" points="1115,-492 1115,-521 1190,-521 1190,-492 1115,-492"/>
<text text-anchor="start" x="1118.5" y="-507.3" font-family="Helvetica,sans-Serif" font-size="14.00" fill="#000000">initial_color</text>
<text text-anchor="start" x="1130" y="-498.1" font-family="Helvetica,sans-Serif" font-size="8.00" fill="#000000">constant/rgb</text>
<polygon fill="#828344" stroke="none" points="1115,-475 1115,-492 1190,-492 1190,-475 1115,-475"/>
<polygon fill="none" stroke="#616233" points="1115,-475 1115,-492 1190,-492 1190,-475 1115,-475"/>
<text text-anchor="start" x="1154" y="-481" font-family="Helvetica,sans-Serif" font-size="10.00" fill="#ffffff">OUT ◉</text>
</g>
<!-- lcd -->
<g id="node6" class="node"><title>lcd</title>
<polygon fill="#05c9ea" stroke="none" points="1258,-309 1258,-338 1350,-338 1350,-309 1258,-309"/>
<polygon fill="none" stroke="#015462" points="1258,-309 1258,-338 1350,-338 1350,-309 1258,-309"/>
<text text-anchor="start" x="1295" y="-324.3" font-family="Helvetica,sans-Serif" font-size="14.00" fill="#000000">lcd</text>
<text text-anchor="start" x="1286.5" y="-315.1" font-family="Helvetica,sans-Serif" font-size="8.00" fill="#000000">LCDChar</text>
<polygon fill="#0396af" stroke="none" points="1258,-292 1258,-309 1350,-309 1350,-292 1258,-292"/>
<polygon fill="none" stroke="#015462" points="1258,-292 1258,-309 1350,-309 1350,-292 1258,-292"/>
<text text-anchor="start" x="1261" y="-298" font-family="Helvetica,sans-Serif" font-size="10.00" fill="#ffffff">◎ COLOR</text>
<polygon fill="#0396af" stroke="none" points="1258,-275 1258,-292 1350,-292 1350,-275 1258,-275"/>
<polygon fill="none" stroke="#015462" points="1258,-275 1258,-292 1350,-292 1350,-275 1258,-275"/>
<text text-anchor="start" x="1261" y="-281" font-family="Helvetica,sans-Serif" font-size="10.00" fill="#ffffff">◎ PUT_CHAR</text>
<polygon fill="#0396af" stroke="none" points="1258,-258 1258,-275 1350,-275 1350,-258 1258,-258"/>
<polygon fill="none" stroke="#015462" points="1258,-258 1258,-275 1350,-275 1350,-258 1258,-258"/>
<text text-anchor="start" x="1261" y="-264" font-family="Helvetica,sans-Serif" font-size="10.00" fill="#ffffff">◎ AUTO_SCROLL</text>
<polygon fill="#0396af" stroke="none" points="1258,-241 1258,-258 1350,-258 1350,-241 1258,-241"/>
<polygon fill="none" stroke="#015462" points="1258,-241 1258,-258 1350,-258 1350,-241 1258,-241"/>
<text text-anchor="start" x="1261" y="-247" font-family="Helvetica,sans-Serif" font-size="10.00" fill="#ffffff">◎ ROW</text>
<polygon fill="#0396af" stroke="none" points="1258,-224 1258,-241 1350,-241 1350,-224 1258,-224"/>
<polygon fill="none" stroke="#015462" points="1258,-224 1258,-241 1350,-241 1350,-224 1258,-224"/>
<text text-anchor="start" x="1261" y="-230" font-family="Helvetica,sans-Serif" font-size="10.00" fill="#ffffff">◎ COL</text>
<polygon fill="#0396af" stroke="none" points="1258,-207 1258,-224 1350,-224 1350,-207 1258,-207"/>
<polygon fill="none" stroke="#015462" points="1258,-207 1258,-224 1350,-224 1350,-207 1258,-207"/>
<text text-anchor="start" x="1261" y="-213" font-family="Helvetica,sans-Serif" font-size="10.00" fill="#ffffff">◎ CLEAR</text>
</g>
<!-- initial_color&#45;&gt;lcd -->
<g id="edge1" class="edge"><title>initial_color:OUT_OUT:e&#45;&gt;lcd:IN_COLOR:w</title>
<path fill="none" stroke="#d32ab8" stroke-width="2" d="M1191,-483C1275.53,-483 1174.63,-307.342 1252.64,-301.167"/>
<ellipse fill="#d32ab8" stroke="#d32ab8" stroke-width="2" cx="1255" cy="-301.076" rx="2" ry="2"/>
</g>
<!-- acc -->
<g id="node7" class="node"><title>acc</title>
<polygon fill="#254878" stroke="none" points="249,-247 249,-276 311,-276 311,-247 249,-247"/>
<polygon fill="none" stroke="#0f1e32" points="249,-247 249,-276 311,-276 311,-247 249,-247"/>
<text text-anchor="start" x="269" y="-262.3" font-family="Helvetica,sans-Serif" font-size="14.00" fill="#ffffff">acc</text>
<text text-anchor="start" x="252.5" y="-253.1" font-family="Helvetica,sans-Serif" font-size="8.00" fill="#ffffff">int/accumulator</text>
<polygon fill="#1b365a" stroke="none" points="249,-230 249,-247 311,-247 311,-230 249,-230"/>
<polygon fill="none" stroke="#0f1e32" points="249,-230 249,-247 311,-247 311,-230 249,-230"/>
<text text-anchor="start" x="252" y="-236" font-family="Helvetica,sans-Serif" font-size="10.00" fill="#ffffff">◎ INC</text>
<polygon fill="#142843" stroke="none" points="249,-213 249,-230 311,-230 311,-213 249,-213"/>
<polygon fill="none" stroke="#0f1e32" points="249,-213 249,-230 311,-230 311,-213 249,-213"/>
<text text-anchor="start" x="275" y="-219" font-family="Helvetica,sans-Serif" font-size="10.00" fill="#ffffff">OUT ◉</text>
</g>
<!-- accumulator_to_char -->
<g id="node9" class="node"><title>accumulator_to_char</title>
<polygon fill="#bd648a" stroke="none" points="494,-418 494,-447 628,-447 628,-418 494,-418"/>
<polygon fill="none" stroke="#4e2a39" points="494,-418 494,-447 628,-447 628,-418 494,-418"/>
<text text-anchor="start" x="497.5" y="-433.3" font-family="Helvetica,sans-Serif" font-size="14.00" fill="#000000">accumulator_to_char</text>
<text text-anchor="start" x="524.5" y="-424.1" font-family="Helvetica,sans-Serif" font-size="8.00" fill="#000000">converter/int&#45;to&#45;byte</text>
<polygon fill="#8d4b67" stroke="none" points="494,-401 494,-418 628,-418 628,-401 494,-401"/>
<polygon fill="none" stroke="#4e2a39" points="494,-401 494,-418 628,-418 628,-401 494,-401"/>
<text text-anchor="start" x="497" y="-407" font-family="Helvetica,sans-Serif" font-size="10.00" fill="#ffffff">◎ IN</text>
<polygon fill="#69384d" stroke="none" points="494,-384 494,-401 628,-401 628,-384 494,-384"/>
<polygon fill="none" stroke="#4e2a39" points="494,-384 494,-401 628,-401 628,-384 494,-384"/>
<text text-anchor="start" x="592" y="-390" font-family="Helvetica,sans-Serif" font-size="10.00" fill="#ffffff">OUT ◉</text>
</g>
<!-- acc&#45;&gt;accumulator_to_char -->
<g id="edge3" class="edge"><title>acc:OUT_OUT:e&#45;&gt;accumulator_to_char:IN_IN:w</title>
<path fill="none" stroke="#d84468" stroke-width="2" d="M312,-221C368.634,-221 431.963,-400.291 488.911,-408.695"/>
<ellipse fill="#d84468" stroke="#d84468" stroke-width="2" cx="491.006" cy="-408.851" rx="2" ry="2"/>
</g>
<!-- acc&#45;&gt;comp_max -->
<g id="edge7" class="edge"><title>acc:OUT_OUT:e&#45;&gt;comp_max:IN_IN:w</title>
<path fill="none" stroke="#b27784" stroke-width="2" d="M312,-221C336.343,-221 339.906,-202.234 361.976,-200.182"/>
<ellipse fill="#b27784" stroke="#b27784" stroke-width="2" cx="364.002" cy="-200.09" rx="2" ry="2"/>
</g>
<!-- timer_scroll&#45;&gt;acc -->
<g id="edge2" class="edge"><title>timer_scroll:OUT_OUT:e&#45;&gt;acc:IN_INC:w</title>
<path fill="none" stroke="#03c534" stroke-width="2" d="M195,-238C217.083,-238 223.639,-238 243.782,-238"/>
<ellipse fill="#03c534" stroke="#03c534" stroke-width="2" cx="246" cy="-238" rx="2" ry="2"/>
</g>
<!-- accumulator_to_char&#45;&gt;lcd -->
<g id="edge4" class="edge"><title>accumulator_to_char:OUT_OUT:e&#45;&gt;lcd:IN_PUT_CHAR:w</title>
<path fill="none" stroke="#3f108e" stroke-width="2" d="M629,-392C733.271,-392 753.729,-443 858,-443 858,-443 858,-443 1000,-443 1095.53,-443 1139.84,-483.213 1214,-423 1263.03,-383.194 1195.64,-288.573 1252.67,-284.16"/>
<ellipse fill="#3f108e" stroke="#3f108e" stroke-width="2" cx="1255" cy="-284.074" rx="2" ry="2"/>
</g>
<!-- timer_delay&#45;&gt;lcd -->
<g id="edge22" class="edge"><title>timer_delay:OUT_OUT:e&#45;&gt;lcd:IN_CLEAR:w</title>
<path fill="none" stroke="#de662e" stroke-width="2" d="M1033,-309C1071.09,-309 1056.77,-263.61 1090,-245 1154.51,-208.875 1180.57,-214.749 1252.64,-214.993"/>
<ellipse fill="#de662e" stroke="#de662e" stroke-width="2" cx="1255" cy="-214.997" rx="2" ry="2"/>
</g>
<!-- timer_delay&#45;&gt;acc -->
<g id="edge21" class="edge"><title>timer_delay:OUT_OUT:e&#45;&gt;acc:IN_INC:w</title>
<path fill="none" stroke="#4d4482" stroke-width="2" d="M403,-309C382.326,-305.637 373.716,-308.846 358,-295 326.661,-267.39 354.131,-232.089 319,-209.5 305.916,-201.087 260.191,-198.695 249,-209.5 239.882,-218.304 235.326,-238 248,-238"/>
<path fill="none" stroke="#4d4482" stroke-width="2" d="M1033,-309C1038.35,-309 1035.94,-300.624 1032,-297 1007.8,-274.731 990.887,-296.643 958,-297 713.619,-299.651 649.626,-339.49 409.268,-309.537"/>
<ellipse fill="#4d4482" stroke="#4d4482" stroke-width="2" cx="406.984" cy="-309.25" rx="2.00001" ry="2.00001"/>
</g>
<!-- timer_delay&#45;&gt;timer_scroll -->
<g id="edge23" class="edge"><title>timer_delay:OUT_OUT:e&#45;&gt;timer_scroll:IN_RESET:w</title>
<path fill="none" stroke="#ce25dc" stroke-width="2" d="M403,-309C282.351,-289.375 215.507,-398.346 128,-313 115.269,-300.583 109.217,-273 127,-273"/>
</g>
<!-- unset_autoscroll -->
<g id="node16" class="node"><title>unset_autoscroll</title>
<polygon fill="#bd648a" stroke="none" points="1099,-292 1099,-321 1206,-321 1206,-292 1099,-292"/>
<polygon fill="none" stroke="#4e2a39" points="1099,-292 1099,-321 1206,-321 1206,-292 1099,-292"/>
<text text-anchor="start" x="1103" y="-307.3" font-family="Helvetica,sans-Serif" font-size="14.00" fill="#000000">unset_autoscroll</text>
<text text-anchor="start" x="1102.5" y="-298.1" font-family="Helvetica,sans-Serif" font-size="8.00" fill="#000000">converter/empty&#45;to&#45;boolean</text>
<polygon fill="#8d4b67" stroke="none" points="1099,-275 1099,-292 1206,-292 1206,-275 1099,-275"/>
<polygon fill="none" stroke="#4e2a39" points="1099,-275 1099,-292 1206,-292 1206,-275 1099,-275"/>
<text text-anchor="start" x="1102" y="-281" font-family="Helvetica,sans-Serif" font-size="10.00" fill="#ffffff">◎ IN</text>
<polygon fill="#69384d" stroke="none" points="1099,-258 1099,-275 1206,-275 1206,-258 1099,-258"/>
<polygon fill="none" stroke="#4e2a39" points="1099,-258 1099,-275 1206,-275 1206,-258 1099,-258"/>
<text text-anchor="start" x="1170" y="-264" font-family="Helvetica,sans-Serif" font-size="10.00" fill="#ffffff">OUT ◉</text>
</g>
<!-- timer_delay&#45;&gt;unset_autoscroll -->
<g id="edge19" class="edge"><title>timer_delay:OUT_OUT:e&#45;&gt;unset_autoscroll:IN_IN:w</title>
<path fill="none" stroke="#aa3d72" stroke-width="2" d="M1033,-309C1062.66,-309 1066.56,-285.38 1093.81,-283.166"/>
<ellipse fill="#aa3d72" stroke="#aa3d72" stroke-width="2" cx="1096" cy="-283.079" rx="2" ry="2"/>
</g>
<!-- end_of_delay -->
<g id="node17" class="node"><title>end_of_delay</title>
<polygon fill="#bd648a" stroke="none" points="1099,-381 1099,-410 1206,-410 1206,-381 1099,-381"/>
<polygon fill="none" stroke="#4e2a39" points="1099,-381 1099,-410 1206,-410 1206,-381 1099,-381"/>
<text text-anchor="start" x="1111.5" y="-396.3" font-family="Helvetica,sans-Serif" font-size="14.00" fill="#000000">end_of_delay</text>
<text text-anchor="start" x="1102.5" y="-387.1" font-family="Helvetica,sans-Serif" font-size="8.00" fill="#000000">converter/empty&#45;to&#45;boolean</text>
<polygon fill="#8d4b67" stroke="none" points="1099,-364 1099,-381 1206,-381 1206,-364 1099,-364"/>
<polygon fill="none" stroke="#4e2a39" points="1099,-364 1099,-381 1206,-381 1206,-364 1099,-364"/>
<text text-anchor="start" x="1102" y="-370" font-family="Helvetica,sans-Serif" font-size="10.00" fill="#ffffff">◎ IN</text>
<polygon fill="#69384d" stroke="none" points="1099,-347 1099,-364 1206,-364 1206,-347 1099,-347"/>
<polygon fill="none" stroke="#4e2a39" points="1099,-347 1099,-364 1206,-364 1206,-347 1099,-347"/>
<text text-anchor="start" x="1170" y="-353" font-family="Helvetica,sans-Serif" font-size="10.00" fill="#ffffff">OUT ◉</text>
</g>
<!-- timer_delay&#45;&gt;end_of_delay -->
<g id="edge24" class="edge"><title>timer_delay:OUT_OUT:e&#45;&gt;end_of_delay:IN_IN:w</title>
<path fill="none" stroke="#cd877c" stroke-width="2" d="M1033,-309C1071.82,-309 1058.79,-367.648 1093.96,-371.772"/>
<ellipse fill="#cd877c" stroke="#cd877c" stroke-width="2" cx="1096" cy="-371.887" rx="2" ry="2"/>
</g>
<!-- bool_to_pulse0 -->
<g id="node12" class="node"><title>bool_to_pulse0</title>
<polygon fill="#bd648a" stroke="none" points="508,-192 508,-221 615,-221 615,-192 508,-192"/>
<polygon fill="none" stroke="#4e2a39" points="508,-192 508,-221 615,-221 615,-192 508,-192"/>
<text text-anchor="start" x="515.5" y="-207.3" font-family="Helvetica,sans-Serif" font-size="14.00" fill="#000000">bool_to_pulse0</text>
<text text-anchor="start" x="511.5" y="-198.1" font-family="Helvetica,sans-Serif" font-size="8.00" fill="#000000">converter/boolean&#45;to&#45;empty</text>
<polygon fill="#8d4b67" stroke="none" points="508,-175 508,-192 615,-192 615,-175 508,-175"/>
<polygon fill="none" stroke="#4e2a39" points="508,-175 508,-192 615,-192 615,-175 508,-175"/>
<text text-anchor="start" x="511" y="-181" font-family="Helvetica,sans-Serif" font-size="10.00" fill="#ffffff">◎ PULSE_IF_TRUE</text>
<polygon fill="#69384d" stroke="none" points="508,-158 508,-175 615,-175 615,-158 508,-158"/>
<polygon fill="none" stroke="#4e2a39" points="508,-158 508,-175 615,-175 615,-158 508,-158"/>
<text text-anchor="start" x="579" y="-164" font-family="Helvetica,sans-Serif" font-size="10.00" fill="#ffffff">OUT ◉</text>
</g>
<!-- comp_max&#45;&gt;bool_to_pulse0 -->
<g id="edge9" class="edge"><title>comp_max:OUT_OUT:e&#45;&gt;bool_to_pulse0:IN_PULSE_IF_TRUE:w</title>
<path fill="none" stroke="#774c95" stroke-width="2" d="M443,-183C470,-183 477.778,-183 502.826,-183"/>
<ellipse fill="#774c95" stroke="#774c95" stroke-width="2" cx="505" cy="-183" rx="2" ry="2"/>
</g>
<!-- bool_to_pulse0&#45;&gt;loops_switch -->
<g id="edge10" class="edge"><title>bool_to_pulse0:OUT_OUT:e&#45;&gt;loops_switch:IN_IN:w</title>
<path fill="none" stroke="#b7a358" stroke-width="2" d="M616,-166C643,-166 650.778,-166 675.826,-166"/>
<ellipse fill="#b7a358" stroke="#b7a358" stroke-width="2" cx="678" cy="-166" rx="2" ry="2"/>
</g>
<!-- end_of_loop&#45;&gt;lcd -->
<g id="edge14" class="edge"><title>end_of_loop:OUT_TRUE:e&#45;&gt;lcd:IN_AUTO_SCROLL:w</title>
<path fill="none" stroke="#81a44e" stroke-width="2" d="M901,-128C927.101,-128 920.538,-156.562 944,-168 1053.22,-221.247 1109.32,-149.3 1214,-211 1239.48,-226.017 1227.26,-262.372 1252.93,-265.748"/>
<ellipse fill="#81a44e" stroke="#81a44e" stroke-width="2" cx="1255" cy="-265.876" rx="2" ry="2"/>
</g>
<!-- end_of_loop&#45;&gt;timer_scroll -->
<g id="edge17" class="edge"><title>end_of_loop:OUT_FALSE:e&#45;&gt;timer_scroll:IN_ENABLED:w</title>
<path fill="none" stroke="#3b38d2" stroke-width="2" d="M901,-111C906.352,-111 903.938,-102.624 900,-99 870.565,-71.9156 849.992,-98.194 810,-99 699.711,-101.223 672.312,-109 562,-109 403,-109 403,-109 403,-109 329.182,-109 305.366,-97.8186 238,-128 136.172,-173.621 105.922,-245.324 122.968,-254.108"/>
<ellipse fill="#3b38d2" stroke="#3b38d2" stroke-width="2" cx="125.047" cy="-254.568" rx="2.00001" ry="2.00001"/>
</g>
<!-- end_of_loop&#45;&gt;timer_delay -->
<g id="edge18" class="edge"><title>end_of_loop:OUT_FALSE:e&#45;&gt;timer_delay:IN_RESET:w</title>
<path fill="none" stroke="#2389b8" stroke-width="2" d="M901,-111C999.239,-111 869.217,-319.747 960.769,-325.863"/>
<ellipse fill="#2389b8" stroke="#2389b8" stroke-width="2" cx="963.001" cy="-325.935" rx="2" ry="2"/>
</g>
<!-- set_col -->
<g id="node14" class="node"><title>set_col</title>
<polygon fill="#bd648a" stroke="none" points="953,-37 953,-66 1046,-66 1046,-37 953,-37"/>
<polygon fill="none" stroke="#4e2a39" points="953,-37 953,-66 1046,-66 1046,-37 953,-37"/>
<text text-anchor="start" x="978" y="-52.3" font-family="Helvetica,sans-Serif" font-size="14.00" fill="#000000">set_col</text>
<text text-anchor="start" x="956.5" y="-43.1" font-family="Helvetica,sans-Serif" font-size="8.00" fill="#000000">converter/boolean&#45;to&#45;int</text>
<polygon fill="#8d4b67" stroke="none" points="953,-20 953,-37 1046,-37 1046,-20 953,-20"/>
<polygon fill="none" stroke="#4e2a39" points="953,-20 953,-37 1046,-37 1046,-20 953,-20"/>
<text text-anchor="start" x="956" y="-26" font-family="Helvetica,sans-Serif" font-size="10.00" fill="#ffffff">◎ IN</text>
<polygon fill="#69384d" stroke="none" points="953,-3 953,-20 1046,-20 1046,-3 953,-3"/>
<polygon fill="none" stroke="#4e2a39" points="953,-3 953,-20 1046,-20 1046,-3 953,-3"/>
<text text-anchor="start" x="1010" y="-9" font-family="Helvetica,sans-Serif" font-size="10.00" fill="#ffffff">OUT ◉</text>
</g>
<!-- end_of_loop&#45;&gt;set_col -->
<g id="edge12" class="edge"><title>end_of_loop:OUT_TRUE:e&#45;&gt;set_col:IN_IN:w</title>
<path fill="none" stroke="#458808" stroke-width="2" d="M901,-128C949.429,-128 904.883,-33.7735 947.864,-28.2525"/>
<ellipse fill="#458808" stroke="#458808" stroke-width="2" cx="950.004" cy="-28.1219" rx="2" ry="2"/>
</g>
<!-- set_row -->
<g id="node15" class="node"><title>set_row</title>
<polygon fill="#bd648a" stroke="none" points="953,-126 953,-155 1046,-155 1046,-126 953,-126"/>
<polygon fill="none" stroke="#4e2a39" points="953,-126 953,-155 1046,-155 1046,-126 953,-126"/>
<text text-anchor="start" x="975.5" y="-141.3" font-family="Helvetica,sans-Serif" font-size="14.00" fill="#000000">set_row</text>
<text text-anchor="start" x="956.5" y="-132.1" font-family="Helvetica,sans-Serif" font-size="8.00" fill="#000000">converter/boolean&#45;to&#45;int</text>
<polygon fill="#8d4b67" stroke="none" points="953,-109 953,-126 1046,-126 1046,-109 953,-109"/>
<polygon fill="none" stroke="#4e2a39" points="953,-109 953,-126 1046,-126 1046,-109 953,-109"/>
<text text-anchor="start" x="956" y="-115" font-family="Helvetica,sans-Serif" font-size="10.00" fill="#ffffff">◎ IN</text>
<polygon fill="#69384d" stroke="none" points="953,-92 953,-109 1046,-109 1046,-92 953,-92"/>
<polygon fill="none" stroke="#4e2a39" points="953,-92 953,-109 1046,-109 1046,-92 953,-92"/>
<text text-anchor="start" x="1010" y="-98" font-family="Helvetica,sans-Serif" font-size="10.00" fill="#ffffff">OUT ◉</text>
</g>
<!-- end_of_loop&#45;&gt;set_row -->
<g id="edge13" class="edge"><title>end_of_loop:OUT_TRUE:e&#45;&gt;set_row:IN_IN:w</title>
<path fill="none" stroke="#964a1a" stroke-width="2" d="M901,-128C922.739,-128 928.162,-118.332 947.861,-117.124"/>
<ellipse fill="#964a1a" stroke="#964a1a" stroke-width="2" cx="950.001" cy="-117.06" rx="2" ry="2"/>
</g>
<!-- set_col&#45;&gt;lcd -->
<g id="edge16" class="edge"><title>set_col:OUT_OUT:e&#45;&gt;lcd:IN_COL:w</title>
<path fill="none" stroke="#73c580" stroke-width="2" d="M1047,-11C1131.1,-11 1159.94,-35.5668 1214,-100 1252.73,-146.162 1197.98,-228.049 1252.86,-231.862"/>
<ellipse fill="#73c580" stroke="#73c580" stroke-width="2" cx="1255" cy="-231.933" rx="2" ry="2"/>
</g>
<!-- set_row&#45;&gt;lcd -->
<g id="edge15" class="edge"><title>set_row:OUT_OUT:e&#45;&gt;lcd:IN_ROW:w</title>
<path fill="none" stroke="#6f20da" stroke-width="2" d="M1047,-100C1128.18,-100 1153.7,-119.64 1214,-174 1241.42,-198.723 1220.37,-245.187 1252.78,-248.779"/>
<ellipse fill="#6f20da" stroke="#6f20da" stroke-width="2" cx="1255" cy="-248.895" rx="2" ry="2"/>
</g>
<!-- unset_autoscroll&#45;&gt;lcd -->
<g id="edge20" class="edge"><title>unset_autoscroll:OUT_OUT:e&#45;&gt;lcd:IN_AUTO_SCROLL:w</title>
<path fill="none" stroke="#61d160" stroke-width="2" d="M1207,-266C1227.66,-266 1233.91,-266 1252.55,-266"/>
<ellipse fill="#61d160" stroke="#61d160" stroke-width="2" cx="1255" cy="-266" rx="2" ry="2"/>
</g>
<!-- end_of_delay&#45;&gt;timer_delay -->
<g id="edge25" class="edge"><title>end_of_delay:OUT_OUT:e&#45;&gt;timer_delay:IN_ENABLED:w</title>
<path fill="none" stroke="#e8b40a" stroke-width="2" d="M1207,-355C1212.13,-355 1209.78,-346.967 1206,-343.5 1187,-326.08 1114.3,-334.894 1090,-343.5 1063.04,-353.048 1066.96,-374.452 1040,-384 1009,-394.981 989.545,-406.964 966,-384 954.363,-372.65 948.306,-348.629 960.932,-344.584"/>
<ellipse fill="#e8b40a" stroke="#e8b40a" stroke-width="2" cx="963.02" cy="-344.284" rx="2.00001" ry="2.00001"/>
</g>
</g>
</svg>
