<?xml version="1.0" encoding="UTF-8" standalone="no"?>
<!DOCTYPE svg PUBLIC "-//W3C//DTD SVG 1.1//EN"
 "http://www.w3.org/Graphics/SVG/1.1/DTD/svg11.dtd">
<!-- Generated by graphviz version 2.36.0 (20140111.2315)
 -->
<!-- Title: fbp Pages: 1 -->
<svg width="282pt" height="600pt"
 viewBox="0.00 0.00 282.00 600.00" xmlns="http://www.w3.org/2000/svg" xmlns:xlink="http://www.w3.org/1999/xlink">
<g id="graph0" class="graph" transform="scale(1 1) rotate(0) translate(4 596)">
<title>fbp</title>
<polygon fill="white" stroke="none" points="-4,4 -4,-596 278,-596 278,4 -4,4"/>
<!-- toggle -->
<g id="node1" class="node"><title>toggle</title>
<polygon fill="#bdce5e" stroke="none" points="29,-57 29,-86 73,-86 73,-57 29,-57"/>
<polygon fill="none" stroke="#4e5627" points="29,-57 29,-86 73,-86 73,-57 29,-57"/>
<text text-anchor="start" x="32.5" y="-72.3" font-family="Helvetica,sans-Serif" font-size="14.00" fill="#000000">toggle</text>
<text text-anchor="start" x="33.5" y="-63.1" font-family="Helvetica,sans-Serif" font-size="8.00" fill="#000000">gtk/toggle</text>
<polygon fill="#697334" stroke="none" points="29,-40 29,-57 73,-57 73,-40 29,-40"/>
<polygon fill="none" stroke="#4e5627" points="29,-40 29,-57 73,-57 73,-40 29,-40"/>
<text text-anchor="start" x="37" y="-46" font-family="Helvetica,sans-Serif" font-size="10.00" fill="#ffffff">OUT ◉</text>
</g>
<!-- toggle_output -->
<g id="node2" class="node"><title>toggle_output</title>
<polygon fill="#bdce5e" stroke="none" points="162,-93 162,-122 251,-122 251,-93 162,-93"/>
<polygon fill="none" stroke="#4e5627" points="162,-93 162,-122 251,-122 251,-93 162,-93"/>
<text text-anchor="start" x="165.5" y="-108.3" font-family="Helvetica,sans-Serif" font-size="14.00" fill="#000000">toggle_output</text>
<text text-anchor="start" x="191.5" y="-99.1" font-family="Helvetica,sans-Serif" font-size="8.00" fill="#000000">gtk/label</text>
<polygon fill="#8d9a46" stroke="none" points="162,-76 162,-93 251,-93 251,-76 162,-76"/>
<polygon fill="none" stroke="#4e5627" points="162,-76 162,-93 251,-93 251,-76 162,-76"/>
<text text-anchor="start" x="165" y="-82" font-family="Helvetica,sans-Serif" font-size="10.00" fill="#000000">◎ IN</text>
</g>
<!-- toggle&#45;&gt;toggle_output -->
<g id="edge1" class="edge"><title>toggle:OUT:e&#45;&gt;toggle_output:IN:w</title>
<path fill="none" stroke="#f45450" stroke-width="2" d="M74,-48C114.375,-48 118.874,-81.5132 156.726,-83.8696"/>
<ellipse fill="#f45450" stroke="#f45450" stroke-width="2" cx="159.001" cy="-83.939" rx="2" ry="2"/>
</g>
<!-- toggle_output2 -->
<g id="node3" class="node"><title>toggle_output2</title>
<polygon fill="#bdce5e" stroke="none" points="158,-21 158,-50 255,-50 255,-21 158,-21"/>
<polygon fill="none" stroke="#4e5627" points="158,-21 158,-50 255,-50 255,-21 158,-21"/>
<text text-anchor="start" x="161.5" y="-36.3" font-family="Helvetica,sans-Serif" font-size="14.00" fill="#000000">toggle_output2</text>
<text text-anchor="start" x="194.5" y="-27.1" font-family="Helvetica,sans-Serif" font-size="8.00" fill="#000000">gtk/led</text>
<polygon fill="#8d9a46" stroke="none" points="158,-4 158,-21 255,-21 255,-4 158,-4"/>
<polygon fill="none" stroke="#4e5627" points="158,-4 158,-21 255,-21 255,-4 158,-4"/>
<text text-anchor="start" x="161" y="-10" font-family="Helvetica,sans-Serif" font-size="10.00" fill="#000000">◎ IN</text>
</g>
<!-- toggle&#45;&gt;toggle_output2 -->
<g id="edge2" class="edge"><title>toggle:OUT:e&#45;&gt;toggle_output2:IN:w</title>
<path fill="none" stroke="#ca31b8" stroke-width="2" d="M74,-48C112.796,-48 116.563,-14.4868 152.895,-12.1304"/>
<ellipse fill="#ca31b8" stroke="#ca31b8" stroke-width="2" cx="155.001" cy="-12.0635" rx="2" ry="2"/>
</g>
<!-- slider -->
<g id="node4" class="node"><title>slider</title>
<polygon fill="#bdce5e" stroke="none" points="31,-165 31,-194 71,-194 71,-165 31,-165"/>
<polygon fill="none" stroke="#4e5627" points="31,-165 31,-194 71,-194 71,-165 31,-165"/>
<text text-anchor="start" x="34.5" y="-180.3" font-family="Helvetica,sans-Serif" font-size="14.00" fill="#000000">slider</text>
<text text-anchor="start" x="35" y="-171.1" font-family="Helvetica,sans-Serif" font-size="8.00" fill="#000000">gtk/slider</text>
<polygon fill="#697334" stroke="none" points="31,-148 31,-165 71,-165 71,-148 31,-148"/>
<polygon fill="none" stroke="#4e5627" points="31,-148 31,-165 71,-165 71,-148 31,-148"/>
<text text-anchor="start" x="35" y="-154" font-family="Helvetica,sans-Serif" font-size="10.00" fill="#ffffff">OUT ◉</text>
</g>
<!-- slider_output -->
<g id="node5" class="node"><title>slider_output</title>
<polygon fill="#bdce5e" stroke="none" points="164,-165 164,-194 249,-194 249,-165 164,-165"/>
<polygon fill="none" stroke="#4e5627" points="164,-165 164,-194 249,-194 249,-165 164,-165"/>
<text text-anchor="start" x="167.5" y="-180.3" font-family="Helvetica,sans-Serif" font-size="14.00" fill="#000000">slider_output</text>
<text text-anchor="start" x="191.5" y="-171.1" font-family="Helvetica,sans-Serif" font-size="8.00" fill="#000000">gtk/label</text>
<polygon fill="#8d9a46" stroke="none" points="164,-148 164,-165 249,-165 249,-148 164,-148"/>
<polygon fill="none" stroke="#4e5627" points="164,-148 164,-165 249,-165 249,-148 164,-148"/>
<text text-anchor="start" x="167" y="-154" font-family="Helvetica,sans-Serif" font-size="10.00" fill="#000000">◎ IN</text>
</g>
<!-- slider&#45;&gt;slider_output -->
<g id="edge3" class="edge"><title>slider:OUT:e&#45;&gt;slider_output:IN:w</title>
<path fill="none" stroke="#5288a2" stroke-width="2" d="M72,-156C111.023,-156 121.807,-156 158.844,-156"/>
<ellipse fill="#5288a2" stroke="#5288a2" stroke-width="2" cx="161" cy="-156" rx="2" ry="2"/>
</g>
<!-- spinbutton -->
<g id="node6" class="node"><title>spinbutton</title>
<polygon fill="#bdce5e" stroke="none" points="16,-237 16,-266 86,-266 86,-237 16,-237"/>
<polygon fill="none" stroke="#4e5627" points="16,-237 16,-266 86,-266 86,-237 16,-237"/>
<text text-anchor="start" x="19.5" y="-252.3" font-family="Helvetica,sans-Serif" font-size="14.00" fill="#000000">spinbutton</text>
<text text-anchor="start" x="26" y="-243.1" font-family="Helvetica,sans-Serif" font-size="8.00" fill="#000000">gtk/spinbutton</text>
<polygon fill="#697334" stroke="none" points="16,-220 16,-237 86,-237 86,-220 16,-220"/>
<polygon fill="none" stroke="#4e5627" points="16,-220 16,-237 86,-237 86,-220 16,-220"/>
<text text-anchor="start" x="50" y="-226" font-family="Helvetica,sans-Serif" font-size="10.00" fill="#ffffff">OUT ◉</text>
</g>
<!-- spinbutton_output -->
<g id="node7" class="node"><title>spinbutton_output</title>
<polygon fill="#bdce5e" stroke="none" points="149,-237 149,-266 264,-266 264,-237 149,-237"/>
<polygon fill="none" stroke="#4e5627" points="149,-237 149,-266 264,-266 264,-237 149,-237"/>
<text text-anchor="start" x="152.5" y="-252.3" font-family="Helvetica,sans-Serif" font-size="14.00" fill="#000000">spinbutton_output</text>
<text text-anchor="start" x="191.5" y="-243.1" font-family="Helvetica,sans-Serif" font-size="8.00" fill="#000000">gtk/label</text>
<polygon fill="#8d9a46" stroke="none" points="149,-220 149,-237 264,-237 264,-220 149,-220"/>
<polygon fill="none" stroke="#4e5627" points="149,-220 149,-237 264,-237 264,-220 149,-220"/>
<text text-anchor="start" x="152" y="-226" font-family="Helvetica,sans-Serif" font-size="10.00" fill="#000000">◎ IN</text>
</g>
<!-- spinbutton&#45;&gt;spinbutton_output -->
<g id="edge4" class="edge"><title>spinbutton:OUT:e&#45;&gt;spinbutton_output:IN:w</title>
<path fill="none" stroke="#6a1e4a" stroke-width="2" d="M87,-228C112.628,-228 120.087,-228 143.728,-228"/>
<ellipse fill="#6a1e4a" stroke="#6a1e4a" stroke-width="2" cx="146" cy="-228" rx="2" ry="2"/>
</g>
<!-- pwm_editor -->
<g id="node8" class="node"><title>pwm_editor</title>
<polygon fill="#bdce5e" stroke="none" points="8,-343 8,-372 94,-372 94,-343 8,-343"/>
<polygon fill="none" stroke="#4e5627" points="8,-343 8,-372 94,-372 94,-343 8,-343"/>
<text text-anchor="start" x="15.5" y="-358.3" font-family="Helvetica,sans-Serif" font-size="14.00" fill="#000000">pwm_editor</text>
<text text-anchor="start" x="24" y="-349.1" font-family="Helvetica,sans-Serif" font-size="8.00" fill="#000000">gtk/pwm&#45;editor</text>
<polygon fill="#697334" stroke="none" points="8,-326 8,-343 94,-343 94,-326 8,-326"/>
<polygon fill="none" stroke="#4e5627" points="8,-326 8,-343 94,-343 94,-326 8,-326"/>
<text text-anchor="start" x="32" y="-332" font-family="Helvetica,sans-Serif" font-size="10.00" fill="#ffffff">ENABLED ◉</text>
<polygon fill="#697334" stroke="none" points="8,-309 8,-326 94,-326 94,-309 8,-309"/>
<polygon fill="none" stroke="#4e5627" points="8,-309 8,-326 94,-326 94,-309 8,-309"/>
<text text-anchor="start" x="12" y="-315" font-family="Helvetica,sans-Serif" font-size="10.00" fill="#ffffff">DUTY_CYCLE ◉</text>
<polygon fill="#697334" stroke="none" points="8,-292 8,-309 94,-309 94,-292 8,-292"/>
<polygon fill="none" stroke="#4e5627" points="8,-292 8,-309 94,-309 94,-292 8,-292"/>
<text text-anchor="start" x="40" y="-298" font-family="Helvetica,sans-Serif" font-size="10.00" fill="#ffffff">PERIOD ◉</text>
</g>
<!-- pwm_viewer -->
<g id="node9" class="node"><title>pwm_viewer</title>
<polygon fill="#bdce5e" stroke="none" points="163,-343 163,-372 249,-372 249,-343 163,-343"/>
<polygon fill="none" stroke="#4e5627" points="163,-343 163,-372 249,-372 249,-343 163,-343"/>
<text text-anchor="start" x="168" y="-358.3" font-family="Helvetica,sans-Serif" font-size="14.00" fill="#000000">pwm_viewer</text>
<text text-anchor="start" x="177.5" y="-349.1" font-family="Helvetica,sans-Serif" font-size="8.00" fill="#000000">gtk/pwm&#45;viewer</text>
<polygon fill="#8d9a46" stroke="none" points="163,-326 163,-343 249,-343 249,-326 163,-326"/>
<polygon fill="none" stroke="#4e5627" points="163,-326 163,-343 249,-343 249,-326 163,-326"/>
<text text-anchor="start" x="166" y="-332" font-family="Helvetica,sans-Serif" font-size="10.00" fill="#000000">◎ ENABLED</text>
<polygon fill="#8d9a46" stroke="none" points="163,-309 163,-326 249,-326 249,-309 163,-309"/>
<polygon fill="none" stroke="#4e5627" points="163,-309 163,-326 249,-326 249,-309 163,-309"/>
<text text-anchor="start" x="166" y="-315" font-family="Helvetica,sans-Serif" font-size="10.00" fill="#000000">◎ DUTY_CYCLE</text>
<polygon fill="#8d9a46" stroke="none" points="163,-292 163,-309 249,-309 249,-292 163,-292"/>
<polygon fill="none" stroke="#4e5627" points="163,-292 163,-309 249,-309 249,-292 163,-292"/>
<text text-anchor="start" x="166" y="-298" font-family="Helvetica,sans-Serif" font-size="10.00" fill="#000000">◎ PERIOD</text>
</g>
<!-- pwm_editor&#45;&gt;pwm_viewer -->
<g id="edge5" class="edge"><title>pwm_editor:ENABLED:e&#45;&gt;pwm_viewer:ENABLED:w</title>
<path fill="none" stroke="#f6662e" stroke-width="2" d="M95,-335C123.382,-335 131.475,-335 157.955,-335"/>
<ellipse fill="#f6662e" stroke="#f6662e" stroke-width="2" cx="160" cy="-335" rx="2" ry="2"/>
</g>
<!-- pwm_editor&#45;&gt;pwm_viewer -->
<g id="edge6" class="edge"><title>pwm_editor:DUTY_CYCLE:e&#45;&gt;pwm_viewer:DUTY_CYCLE:w</title>
<path fill="none" stroke="#1da4da" stroke-width="2" d="M95,-317C123.382,-317 131.475,-317 157.955,-317"/>
<ellipse fill="#1da4da" stroke="#1da4da" stroke-width="2" cx="160" cy="-317" rx="2" ry="2"/>
</g>
<!-- pwm_editor&#45;&gt;pwm_viewer -->
<g id="edge7" class="edge"><title>pwm_editor:PERIOD:e&#45;&gt;pwm_viewer:PERIOD:w</title>
<path fill="none" stroke="#b13e64" stroke-width="2" d="M95,-300C123.382,-300 131.475,-300 157.955,-300"/>
<ellipse fill="#b13e64" stroke="#b13e64" stroke-width="2" cx="160" cy="-300" rx="2" ry="2"/>
</g>
<!-- byte_editor -->
<g id="node10" class="node"><title>byte_editor</title>
<polygon fill="#bdce5e" stroke="none" points="14,-415 14,-444 88,-444 88,-415 14,-415"/>
<polygon fill="none" stroke="#4e5627" points="14,-415 14,-444 88,-444 88,-415 14,-415"/>
<text text-anchor="start" x="17.5" y="-430.3" font-family="Helvetica,sans-Serif" font-size="14.00" fill="#000000">byte_editor</text>
<text text-anchor="start" x="25" y="-421.1" font-family="Helvetica,sans-Serif" font-size="8.00" fill="#000000">gtk/byte&#45;editor</text>
<polygon fill="#697334" stroke="none" points="14,-398 14,-415 88,-415 88,-398 14,-398"/>
<polygon fill="none" stroke="#4e5627" points="14,-398 14,-415 88,-415 88,-398 14,-398"/>
<text text-anchor="start" x="52" y="-404" font-family="Helvetica,sans-Serif" font-size="10.00" fill="#ffffff">OUT ◉</text>
</g>
<!-- byte_editor_output -->
<g id="node11" class="node"><title>byte_editor_output</title>
<polygon fill="#bdce5e" stroke="none" points="147,-415 147,-444 266,-444 266,-415 147,-415"/>
<polygon fill="none" stroke="#4e5627" points="147,-415 147,-444 266,-444 266,-415 147,-415"/>
<text text-anchor="start" x="150.5" y="-430.3" font-family="Helvetica,sans-Serif" font-size="14.00" fill="#000000">byte_editor_output</text>
<text text-anchor="start" x="191.5" y="-421.1" font-family="Helvetica,sans-Serif" font-size="8.00" fill="#000000">gtk/label</text>
<polygon fill="#8d9a46" stroke="none" points="147,-398 147,-415 266,-415 266,-398 147,-398"/>
<polygon fill="none" stroke="#4e5627" points="147,-398 147,-415 266,-415 266,-398 147,-398"/>
<text text-anchor="start" x="150" y="-404" font-family="Helvetica,sans-Serif" font-size="10.00" fill="#000000">◎ IN</text>
</g>
<!-- byte_editor&#45;&gt;byte_editor_output -->
<g id="edge8" class="edge"><title>byte_editor:OUT:e&#45;&gt;byte_editor_output:IN:w</title>
<path fill="none" stroke="#22545e" stroke-width="2" d="M89,-406C112.849,-406 119.859,-406 141.735,-406"/>
<ellipse fill="#22545e" stroke="#22545e" stroke-width="2" cx="144" cy="-406" rx="2" ry="2"/>
</g>
<!-- rgb_editor -->
<g id="node12" class="node"><title>rgb_editor</title>
<polygon fill="#bdce5e" stroke="none" points="17,-487 17,-516 85,-516 85,-487 17,-487"/>
<polygon fill="none" stroke="#4e5627" points="17,-487 17,-516 85,-516 85,-487 17,-487"/>
<text text-anchor="start" x="20.5" y="-502.3" font-family="Helvetica,sans-Serif" font-size="14.00" fill="#000000">rgb_editor</text>
<text text-anchor="start" x="26.5" y="-493.1" font-family="Helvetica,sans-Serif" font-size="8.00" fill="#000000">gtk/rgb&#45;editor</text>
<polygon fill="#697334" stroke="none" points="17,-470 17,-487 85,-487 85,-470 17,-470"/>
<polygon fill="none" stroke="#4e5627" points="17,-470 17,-487 85,-487 85,-470 17,-470"/>
<text text-anchor="start" x="49" y="-476" font-family="Helvetica,sans-Serif" font-size="10.00" fill="#ffffff">OUT ◉</text>
</g>
<!-- rgb_editor_output -->
<g id="node13" class="node"><title>rgb_editor_output</title>
<polygon fill="#bdce5e" stroke="none" points="150,-487 150,-516 263,-516 263,-487 150,-487"/>
<polygon fill="none" stroke="#4e5627" points="150,-487 150,-516 263,-516 263,-487 150,-487"/>
<text text-anchor="start" x="153.5" y="-502.3" font-family="Helvetica,sans-Serif" font-size="14.00" fill="#000000">rgb_editor_output</text>
<text text-anchor="start" x="194.5" y="-493.1" font-family="Helvetica,sans-Serif" font-size="8.00" fill="#000000">gtk/led</text>
<polygon fill="#8d9a46" stroke="none" points="150,-470 150,-487 263,-487 263,-470 150,-470"/>
<polygon fill="none" stroke="#4e5627" points="150,-470 150,-487 263,-487 263,-470 150,-470"/>
<text text-anchor="start" x="153" y="-476" font-family="Helvetica,sans-Serif" font-size="10.00" fill="#000000">◎ IN</text>
</g>
<!-- rgb_editor&#45;&gt;rgb_editor_output -->
<g id="edge9" class="edge"><title>rgb_editor:OUT:e&#45;&gt;rgb_editor_output:IN:w</title>
<path fill="none" stroke="#1a7b61" stroke-width="2" d="M86,-478C112.578,-478 120.235,-478 144.891,-478"/>
<ellipse fill="#1a7b61" stroke="#1a7b61" stroke-width="2" cx="147" cy="-478" rx="2" ry="2"/>
</g>
<!-- pushbutton -->
<g id="node14" class="node"><title>pushbutton</title>
<polygon fill="#bdce5e" stroke="none" points="14,-559 14,-588 88,-588 88,-559 14,-559"/>
<polygon fill="none" stroke="#4e5627" points="14,-559 14,-588 88,-588 88,-559 14,-559"/>
<text text-anchor="start" x="17.5" y="-574.3" font-family="Helvetica,sans-Serif" font-size="14.00" fill="#000000">pushbutton</text>
<text text-anchor="start" x="24.5" y="-565.1" font-family="Helvetica,sans-Serif" font-size="8.00" fill="#000000">gtk/pushbutton</text>
<polygon fill="#697334" stroke="none" points="14,-542 14,-559 88,-559 88,-542 14,-542"/>
<polygon fill="none" stroke="#4e5627" points="14,-542 14,-559 88,-559 88,-542 14,-542"/>
<text text-anchor="start" x="52" y="-548" font-family="Helvetica,sans-Serif" font-size="10.00" fill="#ffffff">OUT ◉</text>
</g>
<!-- pushbutton_output -->
<g id="node15" class="node"><title>pushbutton_output</title>
<polygon fill="#bdce5e" stroke="none" points="147,-559 147,-588 266,-588 266,-559 147,-559"/>
<polygon fill="none" stroke="#4e5627" points="147,-559 147,-588 266,-588 266,-559 147,-559"/>
<text text-anchor="start" x="150.5" y="-574.3" font-family="Helvetica,sans-Serif" font-size="14.00" fill="#000000">pushbutton_output</text>
<text text-anchor="start" x="194.5" y="-565.1" font-family="Helvetica,sans-Serif" font-size="8.00" fill="#000000">gtk/led</text>
<polygon fill="#8d9a46" stroke="none" points="147,-542 147,-559 266,-559 266,-542 147,-542"/>
<polygon fill="none" stroke="#4e5627" points="147,-542 147,-559 266,-559 266,-542 147,-542"/>
<text text-anchor="start" x="150" y="-548" font-family="Helvetica,sans-Serif" font-size="10.00" fill="#000000">◎ IN</text>
</g>
<!-- pushbutton&#45;&gt;pushbutton_output -->
<g id="edge10" class="edge"><title>pushbutton:OUT:e&#45;&gt;pushbutton_output:IN:w</title>
<path fill="none" stroke="#490ff0" stroke-width="2" d="M89,-550C112.849,-550 119.859,-550 141.735,-550"/>
<ellipse fill="#490ff0" stroke="#490ff0" stroke-width="2" cx="144" cy="-550" rx="2" ry="2"/>
</g>
</g>
</svg>
