<?xml version="1.0" encoding="UTF-8" standalone="no"?>
<!DOCTYPE svg PUBLIC "-//W3C//DTD SVG 1.1//EN"
 "http://www.w3.org/Graphics/SVG/1.1/DTD/svg11.dtd">
<!-- Generated by graphviz version 2.36.0 (20140111.2315)
 -->
<!-- Title: fbp Pages: 1 -->
<svg width="702pt" height="134pt"
 viewBox="0.00 0.00 702.00 134.00" xmlns="http://www.w3.org/2000/svg" xmlns:xlink="http://www.w3.org/1999/xlink">
<g id="graph0" class="graph" transform="scale(1 1) rotate(0) translate(4 130)">
<title>fbp</title>
<polygon fill="white" stroke="none" points="-4,4 -4,-130 698,-130 698,4 -4,4"/>
<!-- identity_device -->
<g id="node1" class="node"><title>identity_device</title>
<polygon fill="#46b19c" stroke="none" points="9,-91 9,-120 106,-120 106,-91 9,-91"/>
<polygon fill="none" stroke="#1d4a41" points="9,-91 9,-120 106,-120 106,-91 9,-91"/>
<text text-anchor="start" x="12.5" y="-106.3" font-family="Helvetica,sans-Serif" font-size="14.00" fill="#000000">identity_device</text>
<text text-anchor="start" x="25.5" y="-97.1" font-family="Helvetica,sans-Serif" font-size="8.00" fill="#000000">keyboard/boolean</text>
<polygon fill="#276357" stroke="none" points="9,-74 9,-91 106,-91 106,-74 9,-74"/>
<polygon fill="none" stroke="#1d4a41" points="9,-74 9,-91 106,-91 106,-74 9,-74"/>
<text text-anchor="start" x="70" y="-80" font-family="Helvetica,sans-Serif" font-size="10.00" fill="#ffffff">OUT ◉</text>
</g>
<!-- #anon:56:38 -->
<g id="node4" class="node"><title>#anon:56:38</title>
<polygon fill="#bd648a" stroke="none" points="159,-91 159,-113 332,-113 332,-91 159,-91"/>
<polygon fill="none" stroke="#4e2a39" points="159,-91 159,-113 332,-113 332,-91 159,-91"/>
<text text-anchor="start" x="162.5" y="-98.3" font-family="Helvetica,sans-Serif" font-size="14.00" fill="#000000">converter/boolean&#45;to&#45;empty</text>
<polygon fill="#8d4b67" stroke="none" points="159,-74 159,-91 332,-91 332,-74 159,-74"/>
<polygon fill="none" stroke="#4e2a39" points="159,-74 159,-91 332,-91 332,-74 159,-74"/>
<text text-anchor="start" x="162" y="-80" font-family="Helvetica,sans-Serif" font-size="10.00" fill="#ffffff">◎ PULSE_IF_TRUE</text>
<polygon fill="#69384d" stroke="none" points="159,-57 159,-74 332,-74 332,-57 159,-57"/>
<polygon fill="none" stroke="#4e2a39" points="159,-57 159,-74 332,-74 332,-57 159,-57"/>
<text text-anchor="start" x="296" y="-63" font-family="Helvetica,sans-Serif" font-size="10.00" fill="#ffffff">OUT ◉</text>
</g>
<!-- identity_device&#45;&gt;#anon:56:38 -->
<g id="edge1" class="edge"><title>identity_device:OUT_OUT:e&#45;&gt;#anon:56:38:IN_PULSE_IF_TRUE:w</title>
<path fill="none" stroke="#43bea0" stroke-width="2" d="M107,-82C128.25,-82 134.559,-82 153.941,-82"/>
<ellipse fill="#43bea0" stroke="#43bea0" stroke-width="2" cx="156" cy="-82" rx="2" ry="2"/>
</g>
<!-- talkback_add -->
<g id="node2" class="node"><title>talkback_add</title>
<polygon fill="#780538" stroke="none" points="593,-93 593,-122 686,-122 686,-93 593,-93"/>
<polygon fill="none" stroke="#320117" points="593,-93 593,-122 686,-122 686,-93 593,-93"/>
<text text-anchor="start" x="599.5" y="-108.3" font-family="Helvetica,sans-Serif" font-size="14.00" fill="#ffffff">talkback_add</text>
<text text-anchor="start" x="596.5" y="-99.1" font-family="Helvetica,sans-Serif" font-size="8.00" fill="#ffffff">thingspeak/talkback&#45;add</text>
<polygon fill="#5a032a" stroke="none" points="593,-76 593,-93 686,-93 686,-76 593,-76"/>
<polygon fill="none" stroke="#320117" points="593,-76 593,-93 686,-93 686,-76 593,-76"/>
<text text-anchor="start" x="596" y="-82" font-family="Helvetica,sans-Serif" font-size="10.00" fill="#ffffff">◎ IN</text>
</g>
<!-- talkback_add_command -->
<g id="node3" class="node"><title>talkback_add_command</title>
<polygon fill="#bd648a" stroke="none" points="385,-74 385,-103 540,-103 540,-74 385,-74"/>
<polygon fill="none" stroke="#4e2a39" points="385,-74 385,-103 540,-103 540,-74 385,-74"/>
<text text-anchor="start" x="388.5" y="-89.3" font-family="Helvetica,sans-Serif" font-size="14.00" fill="#000000">talkback_add_command</text>
<text text-anchor="start" x="417" y="-80.1" font-family="Helvetica,sans-Serif" font-size="8.00" fill="#000000">converter/empty&#45;to&#45;string</text>
<polygon fill="#8d4b67" stroke="none" points="385,-57 385,-74 540,-74 540,-57 385,-57"/>
<polygon fill="none" stroke="#4e2a39" points="385,-57 385,-74 540,-74 540,-57 385,-57"/>
<text text-anchor="start" x="388" y="-63" font-family="Helvetica,sans-Serif" font-size="10.00" fill="#ffffff">◎ IN</text>
<polygon fill="#69384d" stroke="none" points="385,-40 385,-57 540,-57 540,-40 385,-40"/>
<polygon fill="none" stroke="#4e2a39" points="385,-40 385,-57 540,-57 540,-40 385,-40"/>
<text text-anchor="start" x="504" y="-46" font-family="Helvetica,sans-Serif" font-size="10.00" fill="#ffffff">OUT ◉</text>
</g>
<!-- talkback_add_command&#45;&gt;talkback_add -->
<g id="edge3" class="edge"><title>talkback_add_command:OUT_OUT:e&#45;&gt;talkback_add:IN_IN:w</title>
<path fill="none" stroke="#3651e5" stroke-width="2" d="M541,-48C567.228,-48 564.65,-80.1702 587.727,-83.6888"/>
<ellipse fill="#3651e5" stroke="#3651e5" stroke-width="2" cx="590.005" cy="-83.8547" rx="2" ry="2"/>
</g>
<!-- log -->
<g id="node5" class="node"><title>log</title>
<polygon fill="#471ca4" stroke="none" points="622,-21 622,-50 657,-50 657,-21 622,-21"/>
<polygon fill="none" stroke="#1d0b45" points="622,-21 622,-50 657,-50 657,-21 622,-21"/>
<text text-anchor="start" x="630" y="-36.3" font-family="Helvetica,sans-Serif" font-size="14.00" fill="#ffffff">log</text>
<text text-anchor="start" x="625.5" y="-27.1" font-family="Helvetica,sans-Serif" font-size="8.00" fill="#ffffff">console</text>
<polygon fill="#35157b" stroke="none" points="622,-4 622,-21 657,-21 657,-4 622,-4"/>
<polygon fill="none" stroke="#1d0b45" points="622,-4 622,-21 657,-21 657,-4 622,-4"/>
<text text-anchor="start" x="625" y="-10" font-family="Helvetica,sans-Serif" font-size="10.00" fill="#ffffff">◎ IN</text>
</g>
<!-- talkback_add_command&#45;&gt;log -->
<g id="edge4" class="edge"><title>talkback_add_command:OUT_OUT:e&#45;&gt;log:IN_IN:w</title>
<path fill="none" stroke="#967f5e" stroke-width="2" d="M541,-48C578.467,-48 581.796,-14.7576 616.596,-12.1605"/>
<ellipse fill="#967f5e" stroke="#967f5e" stroke-width="2" cx="619.001" cy="-12.0729" rx="2" ry="2"/>
</g>
<!-- #anon:56:38&#45;&gt;talkback_add_command -->
<g id="edge2" class="edge"><title>#anon:56:38:OUT_OUT:e&#45;&gt;talkback_add_command:IN_IN:w</title>
<path fill="none" stroke="#a4ae66" stroke-width="2" d="M333,-65C354.25,-65 360.559,-65 379.941,-65"/>
<ellipse fill="#a4ae66" stroke="#a4ae66" stroke-width="2" cx="382" cy="-65" rx="2" ry="2"/>
</g>
</g>
</svg>
