<?xml version="1.0" encoding="UTF-8" standalone="no"?>
<!DOCTYPE svg PUBLIC "-//W3C//DTD SVG 1.1//EN"
 "http://www.w3.org/Graphics/SVG/1.1/DTD/svg11.dtd">
<!-- Generated by graphviz version 2.36.0 (20140111.2315)
 -->
<!-- Title: fbp Pages: 1 -->
<svg width="954pt" height="196pt"
 viewBox="0.00 0.00 954.00 195.82" xmlns="http://www.w3.org/2000/svg" xmlns:xlink="http://www.w3.org/1999/xlink">
<g id="graph0" class="graph" transform="scale(1 1) rotate(0) translate(4 191.817)">
<title>fbp</title>
<polygon fill="white" stroke="none" points="-4,4 -4,-191.817 950,-191.817 950,4 -4,4"/>
<!-- talkback_execute -->
<g id="node1" class="node"><title>talkback_execute</title>
<polygon fill="#780538" stroke="none" points="8,-21 8,-50 120,-50 120,-21 8,-21"/>
<polygon fill="none" stroke="#320117" points="8,-21 8,-50 120,-50 120,-21 8,-21"/>
<text text-anchor="start" x="11.5" y="-36.3" font-family="Helvetica,sans-Serif" font-size="14.00" fill="#ffffff">talkback_execute</text>
<text text-anchor="start" x="14" y="-27.1" font-family="Helvetica,sans-Serif" font-size="8.00" fill="#ffffff">thingspeak/talkback&#45;execute</text>
<polygon fill="#43021f" stroke="none" points="8,-4 8,-21 120,-21 120,-4 8,-4"/>
<polygon fill="none" stroke="#320117" points="8,-4 8,-21 120,-21 120,-4 8,-4"/>
<text text-anchor="start" x="84" y="-10" font-family="Helvetica,sans-Serif" font-size="10.00" fill="#ffffff">OUT ◉</text>
</g>
<!-- command_open -->
<g id="node3" class="node"><title>command_open</title>
<polygon fill="#c1ee90" stroke="none" points="172,-94 172,-123 278,-123 278,-94 172,-94"/>
<polygon fill="none" stroke="#51633c" points="172,-94 172,-123 278,-123 278,-94 172,-94"/>
<text text-anchor="start" x="175.5" y="-109.3" font-family="Helvetica,sans-Serif" font-size="14.00" fill="#000000">command_open</text>
<text text-anchor="start" x="198" y="-100.1" font-family="Helvetica,sans-Serif" font-size="8.00" fill="#000000">string/compare</text>
<polygon fill="#90b26c" stroke="none" points="172,-77 172,-94 278,-94 278,-77 172,-77"/>
<polygon fill="none" stroke="#51633c" points="172,-77 172,-94 278,-94 278,-77 172,-77"/>
<text text-anchor="start" x="175" y="-83" font-family="Helvetica,sans-Serif" font-size="10.00" fill="#000000">◎ IN</text>
<polygon fill="#6c8551" stroke="none" points="172,-60 172,-77 278,-77 278,-60 172,-60"/>
<polygon fill="none" stroke="#51633c" points="172,-60 172,-77 278,-77 278,-60 172,-60"/>
<text text-anchor="start" x="229" y="-66" font-family="Helvetica,sans-Serif" font-size="10.00" fill="#ffffff">EQUAL ◉</text>
</g>
<!-- talkback_execute&#45;&gt;command_open -->
<g id="edge2" class="edge"><title>talkback_execute:OUT_OUT:e&#45;&gt;command_open:IN_IN:w</title>
<path fill="none" stroke="#0cd8d0" stroke-width="2" d="M121,-12C158.789,-12 133.809,-79.4083 166.695,-84.6745"/>
<ellipse fill="#0cd8d0" stroke="#0cd8d0" stroke-width="2" cx="169.006" cy="-84.8492" rx="2" ry="2"/>
</g>
<!-- log -->
<g id="node5" class="node"><title>log</title>
<polygon fill="#471ca4" stroke="none" points="902,-40 902,-69 937,-69 937,-40 902,-40"/>
<polygon fill="none" stroke="#1d0b45" points="902,-40 902,-69 937,-69 937,-40 902,-40"/>
<text text-anchor="start" x="910" y="-55.3" font-family="Helvetica,sans-Serif" font-size="14.00" fill="#ffffff">log</text>
<text text-anchor="start" x="905.5" y="-46.1" font-family="Helvetica,sans-Serif" font-size="8.00" fill="#ffffff">console</text>
<polygon fill="#35157b" stroke="none" points="902,-23 902,-40 937,-40 937,-23 902,-23"/>
<polygon fill="none" stroke="#1d0b45" points="902,-23 902,-40 937,-40 937,-23 902,-23"/>
<text text-anchor="start" x="905" y="-29" font-family="Helvetica,sans-Serif" font-size="10.00" fill="#ffffff">◎ IN</text>
</g>
<!-- talkback_execute&#45;&gt;log -->
<g id="edge3" class="edge"><title>talkback_execute:OUT_OUT:e&#45;&gt;log:IN_IN:w</title>
<path fill="none" stroke="#4874be" stroke-width="2" d="M121,-12C252.112,-12 284.888,-11 416,-11 416,-11 416,-11 590,-11 657.901,-11 825.048,-30.2264 896.826,-30.9774"/>
<ellipse fill="#4874be" stroke="#4874be" stroke-width="2" cx="899" cy="-30.9891" rx="2" ry="2"/>
</g>
<!-- command -->
<g id="node2" class="node"><title>command</title>
<polygon fill="#e8ea7a" stroke="none" points="30,-94 30,-123 98,-123 98,-94 30,-94"/>
<polygon fill="none" stroke="#616233" points="30,-94 30,-123 98,-123 98,-94 30,-94"/>
<text text-anchor="start" x="33.5" y="-109.3" font-family="Helvetica,sans-Serif" font-size="14.00" fill="#000000">command</text>
<text text-anchor="start" x="38" y="-100.1" font-family="Helvetica,sans-Serif" font-size="8.00" fill="#000000">constant/string</text>
<polygon fill="#828344" stroke="none" points="30,-77 30,-94 98,-94 98,-77 30,-77"/>
<polygon fill="none" stroke="#616233" points="30,-77 30,-94 98,-94 98,-77 30,-77"/>
<text text-anchor="start" x="62" y="-83" font-family="Helvetica,sans-Serif" font-size="10.00" fill="#ffffff">OUT ◉</text>
</g>
<!-- command&#45;&gt;command_open -->
<g id="edge1" class="edge"><title>command:OUT_OUT:e&#45;&gt;command_open:IN_IN:w</title>
<path fill="none" stroke="#0e8530" stroke-width="2" d="M99,-85C129.5,-85 138.197,-85 166.653,-85"/>
<ellipse fill="#0e8530" stroke="#0e8530" stroke-width="2" cx="169" cy="-85" rx="2" ry="2"/>
</g>
<!-- #anon:57:26 -->
<g id="node6" class="node"><title>#anon:57:26</title>
<polygon fill="#184294" stroke="none" points="375,-159 375,-181 460,-181 460,-159 375,-159"/>
<polygon fill="none" stroke="#091b3e" points="375,-159 375,-181 460,-181 460,-159 375,-159"/>
<text text-anchor="start" x="378.5" y="-166.3" font-family="Helvetica,sans-Serif" font-size="14.00" fill="#ffffff">boolean/filter</text>
<polygon fill="#12316f" stroke="none" points="375,-142 375,-159 460,-159 460,-142 375,-142"/>
<polygon fill="none" stroke="#091b3e" points="375,-142 375,-159 460,-159 460,-142 375,-142"/>
<text text-anchor="start" x="378" y="-148" font-family="Helvetica,sans-Serif" font-size="10.00" fill="#ffffff">◎ IN</text>
<polygon fill="#0d2453" stroke="none" points="375,-125 375,-142 460,-142 460,-125 375,-125"/>
<polygon fill="none" stroke="#091b3e" points="375,-125 375,-142 460,-142 460,-125 375,-125"/>
<text text-anchor="start" x="417" y="-131" font-family="Helvetica,sans-Serif" font-size="10.00" fill="#ffffff">TRUE ◉</text>
</g>
<!-- command_open&#45;&gt;#anon:57:26 -->
<g id="edge4" class="edge"><title>command_open:OUT_EQUAL:e&#45;&gt;#anon:57:26:IN_IN:w</title>
<path fill="none" stroke="#3fdd12" stroke-width="2" d="M279,-68C306.343,-68 301.335,-94.0942 322,-112 342.535,-129.793 345.147,-148.046 369.841,-149.854"/>
<ellipse fill="#3fdd12" stroke="#3fdd12" stroke-width="2" cx="372.001" cy="-149.93" rx="2" ry="2"/>
</g>
<!-- #anon:58:37 -->
<g id="node7" class="node"><title>#anon:58:37</title>
<polygon fill="#bd648a" stroke="none" points="331,-77 331,-99 504,-99 504,-77 331,-77"/>
<polygon fill="none" stroke="#4e2a39" points="331,-77 331,-99 504,-99 504,-77 331,-77"/>
<text text-anchor="start" x="334.5" y="-84.3" font-family="Helvetica,sans-Serif" font-size="14.00" fill="#000000">converter/boolean&#45;to&#45;empty</text>
<polygon fill="#8d4b67" stroke="none" points="331,-60 331,-77 504,-77 504,-60 331,-60"/>
<polygon fill="none" stroke="#4e2a39" points="331,-60 331,-77 504,-77 504,-60 331,-60"/>
<text text-anchor="start" x="334" y="-66" font-family="Helvetica,sans-Serif" font-size="10.00" fill="#ffffff">◎ PULSE_IF_TRUE</text>
<polygon fill="#69384d" stroke="none" points="331,-43 331,-60 504,-60 504,-43 331,-43"/>
<polygon fill="none" stroke="#4e2a39" points="331,-43 331,-60 504,-60 504,-43 331,-43"/>
<text text-anchor="start" x="468" y="-49" font-family="Helvetica,sans-Serif" font-size="10.00" fill="#ffffff">OUT ◉</text>
</g>
<!-- command_open&#45;&gt;#anon:58:37 -->
<g id="edge6" class="edge"><title>command_open:OUT_EQUAL:e&#45;&gt;#anon:58:37:IN_PULSE_IF_TRUE:w</title>
<path fill="none" stroke="#02c05c" stroke-width="2" d="M279,-68C300.25,-68 306.559,-68 325.941,-68"/>
<ellipse fill="#02c05c" stroke="#02c05c" stroke-width="2" cx="328" cy="-68" rx="2" ry="2"/>
</g>
<!-- timer -->
<g id="node4" class="node"><title>timer</title>
<polygon fill="#7f2fae" stroke="none" points="556,-141 556,-170 622,-170 622,-141 556,-141"/>
<polygon fill="none" stroke="#351348" points="556,-141 556,-170 622,-170 622,-141 556,-141"/>
<text text-anchor="start" x="560.5" y="-156.3" font-family="Helvetica,sans-Serif" font-size="14.00" fill="#ffffff">🕐 Timer</text>
<text text-anchor="start" x="579.5" y="-147.1" font-family="Helvetica,sans-Serif" font-size="8.00" fill="#ffffff">timer</text>
<polygon fill="#5f2382" stroke="none" points="556,-124 556,-141 622,-141 622,-124 556,-124"/>
<polygon fill="none" stroke="#351348" points="556,-124 556,-141 622,-141 622,-124 556,-124"/>
<text text-anchor="start" x="559" y="-130" font-family="Helvetica,sans-Serif" font-size="10.00" fill="#ffffff">◎ ENABLED</text>
<polygon fill="#5f2382" stroke="none" points="556,-107 556,-124 622,-124 622,-107 556,-107"/>
<polygon fill="none" stroke="#351348" points="556,-107 556,-124 622,-124 622,-107 556,-107"/>
<text text-anchor="start" x="559" y="-113" font-family="Helvetica,sans-Serif" font-size="10.00" fill="#ffffff">◎ RESET</text>
<polygon fill="#471a61" stroke="none" points="556,-90 556,-107 622,-107 622,-90 556,-90"/>
<polygon fill="none" stroke="#351348" points="556,-90 556,-107 622,-107 622,-90 556,-90"/>
<text text-anchor="start" x="586" y="-96" font-family="Helvetica,sans-Serif" font-size="10.00" fill="#ffffff">OUT ◉</text>
</g>
<!-- #anon:60:17 -->
<g id="node8" class="node"><title>#anon:60:17</title>
<polygon fill="#bd648a" stroke="none" points="675,-159 675,-181 848,-181 848,-159 675,-159"/>
<polygon fill="none" stroke="#4e2a39" points="675,-159 675,-181 848,-181 848,-159 675,-159"/>
<text text-anchor="start" x="678.5" y="-166.3" font-family="Helvetica,sans-Serif" font-size="14.00" fill="#000000">converter/empty&#45;to&#45;boolean</text>
<polygon fill="#8d4b67" stroke="none" points="675,-142 675,-159 848,-159 848,-142 675,-142"/>
<polygon fill="none" stroke="#4e2a39" points="675,-142 675,-159 848,-159 848,-142 675,-142"/>
<text text-anchor="start" x="678" y="-148" font-family="Helvetica,sans-Serif" font-size="10.00" fill="#ffffff">◎ IN</text>
<polygon fill="#69384d" stroke="none" points="675,-125 675,-142 848,-142 848,-125 675,-125"/>
<polygon fill="none" stroke="#4e2a39" points="675,-125 675,-142 848,-142 848,-125 675,-125"/>
<text text-anchor="start" x="812" y="-131" font-family="Helvetica,sans-Serif" font-size="10.00" fill="#ffffff">OUT ◉</text>
</g>
<!-- timer&#45;&gt;#anon:60:17 -->
<g id="edge8" class="edge"><title>timer:OUT_OUT:e&#45;&gt;#anon:60:17:IN_IN:w</title>
<path fill="none" stroke="#2d59c6" stroke-width="2" d="M623,-98C653.854,-98 642.816,-145.239 669.742,-149.668"/>
<ellipse fill="#2d59c6" stroke="#2d59c6" stroke-width="2" cx="672.006" cy="-149.844" rx="2" ry="2"/>
</g>
<!-- #anon:61:17 -->
<g id="node9" class="node"><title>#anon:61:17</title>
<polygon fill="#bd648a" stroke="none" points="682,-77 682,-99 840,-99 840,-77 682,-77"/>
<polygon fill="none" stroke="#4e2a39" points="682,-77 682,-99 840,-99 840,-77 682,-77"/>
<text text-anchor="start" x="685.5" y="-84.3" font-family="Helvetica,sans-Serif" font-size="14.00" fill="#000000">converter/empty&#45;to&#45;string</text>
<polygon fill="#8d4b67" stroke="none" points="682,-60 682,-77 840,-77 840,-60 682,-60"/>
<polygon fill="none" stroke="#4e2a39" points="682,-60 682,-77 840,-77 840,-60 682,-60"/>
<text text-anchor="start" x="685" y="-66" font-family="Helvetica,sans-Serif" font-size="10.00" fill="#ffffff">◎ IN</text>
<polygon fill="#69384d" stroke="none" points="682,-43 682,-60 840,-60 840,-43 682,-43"/>
<polygon fill="none" stroke="#4e2a39" points="682,-43 682,-60 840,-60 840,-43 682,-43"/>
<text text-anchor="start" x="804" y="-49" font-family="Helvetica,sans-Serif" font-size="10.00" fill="#ffffff">OUT ◉</text>
</g>
<!-- timer&#45;&gt;#anon:61:17 -->
<g id="edge10" class="edge"><title>timer:OUT_OUT:e&#45;&gt;#anon:61:17:IN_IN:w</title>
<path fill="none" stroke="#198b7c" stroke-width="2" d="M623,-98C650.548,-98 651.908,-70.9695 676.796,-68.2242"/>
<ellipse fill="#198b7c" stroke="#198b7c" stroke-width="2" cx="679.003" cy="-68.1066" rx="2" ry="2"/>
</g>
<!-- #anon:57:26&#45;&gt;timer -->
<g id="edge5" class="edge"><title>#anon:57:26:OUT_TRUE:e&#45;&gt;timer:IN_ENABLED:w</title>
<path fill="none" stroke="#4a4ae0" stroke-width="2" d="M461,-133C501.309,-133 512.449,-133 550.707,-133"/>
<ellipse fill="#4a4ae0" stroke="#4a4ae0" stroke-width="2" cx="553" cy="-133" rx="2" ry="2"/>
</g>
<!-- #anon:58:37&#45;&gt;timer -->
<g id="edge7" class="edge"><title>#anon:58:37:OUT_OUT:e&#45;&gt;timer:IN_RESET:w</title>
<path fill="none" stroke="#ed5d26" stroke-width="2" d="M505,-51C539.545,-51 520.704,-109.618 550.661,-114.656"/>
<ellipse fill="#ed5d26" stroke="#ed5d26" stroke-width="2" cx="553.006" cy="-114.842" rx="2" ry="2"/>
</g>
<!-- #anon:60:17&#45;&gt;timer -->
<g id="edge9" class="edge"><title>#anon:60:17:OUT_OUT:e&#45;&gt;timer:IN_ENABLED:w</title>
<path fill="none" stroke="#22b884" stroke-width="2" d="M849,-133C854.352,-133 851.938,-124.624 848,-121 833.119,-107.307 683.912,-111.615 666,-121 641.102,-134.046 654.898,-159.954 630,-173 600.868,-188.264 579.545,-195.964 556,-173 544.363,-161.65 538.306,-137.629 550.932,-133.584"/>
<ellipse fill="#22b884" stroke="#22b884" stroke-width="2" cx="553.02" cy="-133.284" rx="2.00001" ry="2.00001"/>
</g>
<!-- #anon:61:17&#45;&gt;log -->
<g id="edge11" class="edge"><title>#anon:61:17:OUT_OUT:e&#45;&gt;log:IN_IN:w</title>
<path fill="none" stroke="#949bf6" stroke-width="2" d="M841,-51C867.682,-51 872.444,-32.9797 896.9,-31.1495"/>
<ellipse fill="#949bf6" stroke="#949bf6" stroke-width="2" cx="899.001" cy="-31.0729" rx="2" ry="2"/>
</g>
</g>
</svg>
