<?xml version="1.0" encoding="UTF-8" standalone="no"?>
<!DOCTYPE svg PUBLIC "-//W3C//DTD SVG 1.1//EN"
 "http://www.w3.org/Graphics/SVG/1.1/DTD/svg11.dtd">
<!-- Generated by graphviz version 2.36.0 (20140111.2315)
 -->
<!-- Title: fbp Pages: 1 -->
<svg width="394pt" height="72pt"
 viewBox="0.00 0.00 394.00 72.00" xmlns="http://www.w3.org/2000/svg" xmlns:xlink="http://www.w3.org/1999/xlink">
<g id="graph0" class="graph" transform="scale(1 1) rotate(0) translate(4 68)">
<title>fbp</title>
<polygon fill="white" stroke="none" points="-4,4 -4,-68 390,-68 390,4 -4,4"/>
<!-- #anon:21:1 -->
<g id="node1" class="node"><title>#anon:21:1</title>
<polygon fill="#7f2fae" stroke="none" points="8,-38 8,-60 48,-60 48,-38 8,-38"/>
<polygon fill="none" stroke="#351348" points="8,-38 8,-60 48,-60 48,-38 8,-38"/>
<text text-anchor="start" x="12.5" y="-45.3" font-family="Helvetica,sans-Serif" font-size="14.00" fill="#ffffff">timer</text>
<polygon fill="#471a61" stroke="none" points="8,-21 8,-38 48,-38 48,-21 8,-21"/>
<polygon fill="none" stroke="#351348" points="8,-21 8,-38 48,-38 48,-21 8,-21"/>
<text text-anchor="start" x="12" y="-27" font-family="Helvetica,sans-Serif" font-size="10.00" fill="#ffffff">OUT ◉</text>
</g>
<!-- #anon:21:22 -->
<g id="node2" class="node"><title>#anon:21:22</title>
<polygon fill="#a9a18c" stroke="none" points="101,-38 101,-60 246,-60 246,-38 101,-38"/>
<polygon fill="none" stroke="#46433a" points="101,-38 101,-60 246,-60 246,-38 101,-38"/>
<text text-anchor="start" x="104.5" y="-45.3" font-family="Helvetica,sans-Serif" font-size="14.00" fill="#000000">accelerometer/adxl345</text>
<polygon fill="#7e7869" stroke="none" points="101,-21 101,-38 246,-38 246,-21 101,-21"/>
<polygon fill="none" stroke="#46433a" points="101,-21 101,-38 246,-38 246,-21 101,-21"/>
<text text-anchor="start" x="104" y="-27" font-family="Helvetica,sans-Serif" font-size="10.00" fill="#ffffff">◎ TICK</text>
<polygon fill="#5e5a4e" stroke="none" points="101,-4 101,-21 246,-21 246,-4 101,-4"/>
<polygon fill="none" stroke="#46433a" points="101,-4 101,-21 246,-21 246,-4 101,-4"/>
<text text-anchor="start" x="210" y="-10" font-family="Helvetica,sans-Serif" font-size="10.00" fill="#ffffff">OUT ◉</text>
</g>
<!-- #anon:21:1&#45;&gt;#anon:21:22 -->
<g id="edge1" class="edge"><title>#anon:21:1:OUT_OUT:e&#45;&gt;#anon:21:22:IN_TICK:w</title>
<path fill="none" stroke="#ada506" stroke-width="2" d="M49,-29C70.25,-29 76.5586,-29 95.9409,-29"/>
<ellipse fill="#ada506" stroke="#ada506" stroke-width="2" cx="98" cy="-29" rx="2" ry="2"/>
</g>
<!-- Coordinates -->
<g id="node3" class="node"><title>Coordinates</title>
<polygon fill="#471ca4" stroke="none" points="298,-21 298,-50 378,-50 378,-21 298,-21"/>
<polygon fill="none" stroke="#1d0b45" points="298,-21 298,-50 378,-50 378,-21 298,-21"/>
<text text-anchor="start" x="301.5" y="-36.3" font-family="Helvetica,sans-Serif" font-size="14.00" fill="#ffffff">Coordinates</text>
<text text-anchor="start" x="324" y="-27.1" font-family="Helvetica,sans-Serif" font-size="8.00" fill="#ffffff">console</text>
<polygon fill="#35157b" stroke="none" points="298,-4 298,-21 378,-21 378,-4 298,-4"/>
<polygon fill="none" stroke="#1d0b45" points="298,-4 298,-21 378,-21 378,-4 298,-4"/>
<text text-anchor="start" x="301" y="-10" font-family="Helvetica,sans-Serif" font-size="10.00" fill="#ffffff">◎ IN</text>
</g>
<!-- #anon:21:22&#45;&gt;Coordinates -->
<g id="edge2" class="edge"><title>#anon:21:22:OUT_OUT:e&#45;&gt;Coordinates:IN_IN:w</title>
<path fill="none" stroke="#645a95" stroke-width="2" d="M247,-12C267.66,-12 273.914,-12 292.548,-12"/>
<ellipse fill="#645a95" stroke="#645a95" stroke-width="2" cx="295" cy="-12" rx="2" ry="2"/>
</g>
</g>
</svg>
