<?xml version="1.0" encoding="UTF-8" standalone="no"?>
<!DOCTYPE svg PUBLIC "-//W3C//DTD SVG 1.1//EN"
 "http://www.w3.org/Graphics/SVG/1.1/DTD/svg11.dtd">
<!-- Generated by graphviz version 2.36.0 (20140111.2315)
 -->
<!-- Title: fbp Pages: 1 -->
<svg width="416pt" height="164pt"
 viewBox="0.00 0.00 416.00 164.00" xmlns="http://www.w3.org/2000/svg" xmlns:xlink="http://www.w3.org/1999/xlink">
<g id="graph0" class="graph" transform="scale(1 1) rotate(0) translate(4 160)">
<title>fbp</title>
<polygon fill="white" stroke="none" points="-4,4 -4,-160 412,-160 412,4 -4,4"/>
<!-- accel -->
<g id="node1" class="node"><title>accel</title>
<polygon fill="#a9a18c" stroke="none" points="8,-123 8,-152 94,-152 94,-123 8,-123"/>
<polygon fill="none" stroke="#46433a" points="8,-123 8,-152 94,-152 94,-123 8,-123"/>
<text text-anchor="start" x="35" y="-138.3" font-family="Helvetica,sans-Serif" font-size="14.00" fill="#000000">accel</text>
<text text-anchor="start" x="11.5" y="-129.1" font-family="Helvetica,sans-Serif" font-size="8.00" fill="#000000">accelerometer/lsm303</text>
<polygon fill="#5e5a4e" stroke="none" points="8,-106 8,-123 94,-123 94,-106 8,-106"/>
<polygon fill="none" stroke="#46433a" points="8,-106 8,-123 94,-123 94,-106 8,-106"/>
<text text-anchor="start" x="58" y="-112" font-family="Helvetica,sans-Serif" font-size="10.00" fill="#ffffff">OUT ◉</text>
</g>
<!-- compass -->
<g id="node3" class="node"><title>compass</title>
<polygon fill="#3d887e" stroke="none" points="146,-95 146,-124 294,-124 294,-95 146,-95"/>
<polygon fill="none" stroke="#183934" points="146,-95 146,-124 294,-124 294,-95 146,-95"/>
<text text-anchor="start" x="192.5" y="-110.3" font-family="Helvetica,sans-Serif" font-size="14.00" fill="#ffffff">compass</text>
<text text-anchor="start" x="149.5" y="-101.1" font-family="Helvetica,sans-Serif" font-size="8.00" fill="#ffffff">compass/accelerometer&#45;magnetometer</text>
<polygon fill="#2d665e" stroke="none" points="146,-78 146,-95 294,-95 294,-78 146,-78"/>
<polygon fill="none" stroke="#183934" points="146,-78 146,-95 294,-95 294,-78 146,-78"/>
<text text-anchor="start" x="149" y="-84" font-family="Helvetica,sans-Serif" font-size="10.00" fill="#ffffff">◎ ACCELEROMETER</text>
<polygon fill="#2d665e" stroke="none" points="146,-61 146,-78 294,-78 294,-61 146,-61"/>
<polygon fill="none" stroke="#183934" points="146,-61 146,-78 294,-78 294,-61 146,-61"/>
<text text-anchor="start" x="149" y="-67" font-family="Helvetica,sans-Serif" font-size="10.00" fill="#ffffff">◎ MAGNETOMETER</text>
<polygon fill="#214c46" stroke="none" points="146,-44 146,-61 294,-61 294,-44 146,-44"/>
<polygon fill="none" stroke="#183934" points="146,-44 146,-61 294,-61 294,-44 146,-44"/>
<text text-anchor="start" x="237" y="-50" font-family="Helvetica,sans-Serif" font-size="10.00" fill="#ffffff">VECTOR ◉</text>
<polygon fill="#214c46" stroke="none" points="146,-27 146,-44 294,-44 294,-27 146,-27"/>
<polygon fill="none" stroke="#183934" points="146,-27 146,-44 294,-44 294,-27 146,-27"/>
<text text-anchor="start" x="233" y="-33" font-family="Helvetica,sans-Serif" font-size="10.00" fill="#ffffff">HEADING ◉</text>
</g>
<!-- accel&#45;&gt;compass -->
<g id="edge1" class="edge"><title>accel:OUT:e&#45;&gt;compass:ACCELEROMETER:w</title>
<path fill="none" stroke="#1e5f48" stroke-width="2" d="M95,-114C118.775,-114 119.716,-90.0714 140.816,-87.2672"/>
<ellipse fill="#1e5f48" stroke="#1e5f48" stroke-width="2" cx="143.004" cy="-87.1275" rx="2" ry="2"/>
</g>
<!-- mag -->
<g id="node2" class="node"><title>mag</title>
<polygon fill="#a9a18c" stroke="none" points="8,-51 8,-80 94,-80 94,-51 8,-51"/>
<polygon fill="none" stroke="#46433a" points="8,-51 8,-80 94,-80 94,-51 8,-51"/>
<text text-anchor="start" x="37" y="-66.3" font-family="Helvetica,sans-Serif" font-size="14.00" fill="#000000">mag</text>
<text text-anchor="start" x="11.5" y="-57.1" font-family="Helvetica,sans-Serif" font-size="8.00" fill="#000000">accelerometer/lsm303</text>
<polygon fill="#5e5a4e" stroke="none" points="8,-34 8,-51 94,-51 94,-34 8,-34"/>
<polygon fill="none" stroke="#46433a" points="8,-34 8,-51 94,-51 94,-34 8,-34"/>
<text text-anchor="start" x="58" y="-40" font-family="Helvetica,sans-Serif" font-size="10.00" fill="#ffffff">OUT ◉</text>
</g>
<!-- mag&#45;&gt;compass -->
<g id="edge2" class="edge"><title>mag:OUT:e&#45;&gt;compass:MAGNETOMETER:w</title>
<path fill="none" stroke="#9da74a" stroke-width="2" d="M95,-42C118.775,-42 119.716,-65.9286 140.816,-68.7328"/>
<ellipse fill="#9da74a" stroke="#9da74a" stroke-width="2" cx="143.004" cy="-68.8725" rx="2" ry="2"/>
</g>
<!-- #anon:43:22 -->
<g id="node4" class="node"><title>#anon:43:22</title>
<polygon fill="#471ca4" stroke="none" points="346,-85 346,-107 400,-107 400,-85 346,-85"/>
<polygon fill="none" stroke="#1d0b45" points="346,-85 346,-107 400,-107 400,-85 346,-85"/>
<text text-anchor="start" x="349.5" y="-92.3" font-family="Helvetica,sans-Serif" font-size="14.00" fill="#ffffff">console</text>
<polygon fill="#35157b" stroke="none" points="346,-68 346,-85 400,-85 400,-68 346,-68"/>
<polygon fill="none" stroke="#1d0b45" points="346,-68 346,-85 400,-85 400,-68 346,-68"/>
<text text-anchor="start" x="349" y="-74" font-family="Helvetica,sans-Serif" font-size="10.00" fill="#ffffff">◎ IN</text>
</g>
<!-- compass&#45;&gt;#anon:43:22 -->
<g id="edge3" class="edge"><title>compass:VECTOR:e&#45;&gt;#anon:43:22:IN:w</title>
<path fill="none" stroke="#bb59c6" stroke-width="2" d="M295,-52C318.205,-52 320.186,-73.2699 340.904,-75.7625"/>
<ellipse fill="#bb59c6" stroke="#bb59c6" stroke-width="2" cx="343.003" cy="-75.8842" rx="2" ry="2"/>
</g>
<!-- #anon:44:23 -->
<g id="node5" class="node"><title>#anon:44:23</title>
<polygon fill="#471ca4" stroke="none" points="346,-20 346,-42 400,-42 400,-20 346,-20"/>
<polygon fill="none" stroke="#1d0b45" points="346,-20 346,-42 400,-42 400,-20 346,-20"/>
<text text-anchor="start" x="349.5" y="-27.3" font-family="Helvetica,sans-Serif" font-size="14.00" fill="#ffffff">console</text>
<polygon fill="#35157b" stroke="none" points="346,-3 346,-20 400,-20 400,-3 346,-3"/>
<polygon fill="none" stroke="#1d0b45" points="346,-3 346,-20 400,-20 400,-3 346,-3"/>
<text text-anchor="start" x="349" y="-9" font-family="Helvetica,sans-Serif" font-size="10.00" fill="#ffffff">◎ IN</text>
</g>
<!-- compass&#45;&gt;#anon:44:23 -->
<g id="edge4" class="edge"><title>compass:HEADING:e&#45;&gt;#anon:44:23:IN:w</title>
<path fill="none" stroke="#1e1b4b" stroke-width="2" d="M295,-35C318.205,-35 320.186,-13.7301 340.904,-11.2375"/>
<ellipse fill="#1e1b4b" stroke="#1e1b4b" stroke-width="2" cx="343.003" cy="-11.1158" rx="2" ry="2"/>
</g>
</g>
</svg>
