<?xml version="1.0" encoding="UTF-8" standalone="no"?>
<!DOCTYPE svg PUBLIC "-//W3C//DTD SVG 1.1//EN"
 "http://www.w3.org/Graphics/SVG/1.1/DTD/svg11.dtd">
<!-- Generated by graphviz version 2.36.0 (20140111.2315)
 -->
<!-- Title: fbp Pages: 1 -->
<svg width="280pt" height="62pt"
 viewBox="0.00 0.00 280.00 62.00" xmlns="http://www.w3.org/2000/svg" xmlns:xlink="http://www.w3.org/1999/xlink">
<g id="graph0" class="graph" transform="scale(1 1) rotate(0) translate(4 58)">
<title>fbp</title>
<polygon fill="white" stroke="none" points="-4,4 -4,-58 276,-58 276,4 -4,4"/>
<!-- socket_boolean -->
<g id="node1" class="node"><title>socket_boolean</title>
<polygon fill="#f5712e" stroke="none" points="9,-21 9,-50 114,-50 114,-21 9,-21"/>
<polygon fill="none" stroke="#662f12" points="9,-21 9,-50 114,-50 114,-21 9,-21"/>
<text text-anchor="start" x="14" y="-36.3" font-family="Helvetica,sans-Serif" font-size="14.00" fill="#000000">socket_boolean</text>
<text text-anchor="start" x="12.5" y="-27.1" font-family="Helvetica,sans-Serif" font-size="8.00" fill="#000000">unix&#45;socket/boolean&#45;reader</text>
<polygon fill="#893f19" stroke="none" points="9,-4 9,-21 114,-21 114,-4 9,-4"/>
<polygon fill="none" stroke="#662f12" points="9,-4 9,-21 114,-21 114,-4 9,-4"/>
<text text-anchor="start" x="78" y="-10" font-family="Helvetica,sans-Serif" font-size="10.00" fill="#ffffff">OUT ◉</text>
</g>
<!-- console_toggle -->
<g id="node2" class="node"><title>console_toggle</title>
<polygon fill="#471ca4" stroke="none" points="166,-21 166,-50 264,-50 264,-21 166,-21"/>
<polygon fill="none" stroke="#1d0b45" points="166,-21 166,-50 264,-50 264,-21 166,-21"/>
<text text-anchor="start" x="169.5" y="-36.3" font-family="Helvetica,sans-Serif" font-size="14.00" fill="#ffffff">console_toggle</text>
<text text-anchor="start" x="201" y="-27.1" font-family="Helvetica,sans-Serif" font-size="8.00" fill="#ffffff">console</text>
<polygon fill="#35157b" stroke="none" points="166,-4 166,-21 264,-21 264,-4 166,-4"/>
<polygon fill="none" stroke="#1d0b45" points="166,-4 166,-21 264,-21 264,-4 166,-4"/>
<text text-anchor="start" x="169" y="-10" font-family="Helvetica,sans-Serif" font-size="10.00" fill="#ffffff">◎ IN</text>
</g>
<!-- socket_boolean&#45;&gt;console_toggle -->
<g id="edge1" class="edge"><title>socket_boolean:OUT_OUT:e&#45;&gt;console_toggle:IN_IN:w</title>
<path fill="none" stroke="#6f936c" stroke-width="2" d="M115,-12C135.66,-12 141.914,-12 160.548,-12"/>
<ellipse fill="#6f936c" stroke="#6f936c" stroke-width="2" cx="163" cy="-12" rx="2" ry="2"/>
</g>
</g>
</svg>
