<?xml version="1.0" encoding="UTF-8" standalone="no"?>
<!DOCTYPE svg PUBLIC "-//W3C//DTD SVG 1.1//EN"
 "http://www.w3.org/Graphics/SVG/1.1/DTD/svg11.dtd">
<!-- Generated by graphviz version 2.36.0 (20140111.2315)
 -->
<!-- Title: fbp Pages: 1 -->
<svg width="222pt" height="62pt"
 viewBox="0.00 0.00 222.00 62.00" xmlns="http://www.w3.org/2000/svg" xmlns:xlink="http://www.w3.org/1999/xlink">
<g id="graph0" class="graph" transform="scale(1 1) rotate(0) translate(4 58)">
<title>fbp</title>
<polygon fill="white" stroke="none" points="-4,4 -4,-58 218,-58 218,4 -4,4"/>
<!-- socket_byte -->
<g id="node1" class="node"><title>socket_byte</title>
<polygon fill="#f5712e" stroke="none" points="8,-21 8,-50 100,-50 100,-21 8,-21"/>
<polygon fill="none" stroke="#662f12" points="8,-21 8,-50 100,-50 100,-21 8,-21"/>
<text text-anchor="start" x="17.5" y="-36.3" font-family="Helvetica,sans-Serif" font-size="14.00" fill="#000000">socket_byte</text>
<text text-anchor="start" x="11.5" y="-27.1" font-family="Helvetica,sans-Serif" font-size="8.00" fill="#000000">unix&#45;socket/byte&#45;reader</text>
<polygon fill="#893f19" stroke="none" points="8,-4 8,-21 100,-21 100,-4 8,-4"/>
<polygon fill="none" stroke="#662f12" points="8,-4 8,-21 100,-21 100,-4 8,-4"/>
<text text-anchor="start" x="64" y="-10" font-family="Helvetica,sans-Serif" font-size="10.00" fill="#ffffff">OUT ◉</text>
</g>
<!-- console -->
<g id="node2" class="node"><title>console</title>
<polygon fill="#471ca4" stroke="none" points="152,-21 152,-50 206,-50 206,-21 152,-21"/>
<polygon fill="none" stroke="#1d0b45" points="152,-21 152,-50 206,-50 206,-21 152,-21"/>
<text text-anchor="start" x="155.5" y="-36.3" font-family="Helvetica,sans-Serif" font-size="14.00" fill="#ffffff">console</text>
<text text-anchor="start" x="165" y="-27.1" font-family="Helvetica,sans-Serif" font-size="8.00" fill="#ffffff">console</text>
<polygon fill="#35157b" stroke="none" points="152,-4 152,-21 206,-21 206,-4 152,-4"/>
<polygon fill="none" stroke="#1d0b45" points="152,-4 152,-21 206,-21 206,-4 152,-4"/>
<text text-anchor="start" x="155" y="-10" font-family="Helvetica,sans-Serif" font-size="10.00" fill="#ffffff">◎ IN</text>
</g>
<!-- socket_byte&#45;&gt;console -->
<g id="edge1" class="edge"><title>socket_byte:OUT:e&#45;&gt;console:IN:w</title>
<path fill="none" stroke="#16f768" stroke-width="2" d="M101,-12C121.66,-12 127.914,-12 146.548,-12"/>
<ellipse fill="#16f768" stroke="#16f768" stroke-width="2" cx="149" cy="-12" rx="2" ry="2"/>
</g>
</g>
</svg>
