<?xml version="1.0" encoding="UTF-8" standalone="no"?>
<!DOCTYPE svg PUBLIC "-//W3C//DTD SVG 1.1//EN"
 "http://www.w3.org/Graphics/SVG/1.1/DTD/svg11.dtd">
<!-- Generated by graphviz version 2.36.0 (20140111.2315)
 -->
<!-- Title: fbp Pages: 1 -->
<svg width="280pt" height="62pt"
 viewBox="0.00 0.00 280.00 62.00" xmlns="http://www.w3.org/2000/svg" xmlns:xlink="http://www.w3.org/1999/xlink">
<g id="graph0" class="graph" transform="scale(1 1) rotate(0) translate(4 58)">
<title>fbp</title>
<polygon fill="white" stroke="none" points="-4,4 -4,-58 276,-58 276,4 -4,4"/>
<!-- socket_direction_vector -->
<g id="node1" class="node"><title>socket_direction_vector</title>
<polygon fill="#f5712e" stroke="none" points="9,-21 9,-50 158,-50 158,-21 9,-21"/>
<polygon fill="none" stroke="#662f12" points="9,-21 9,-50 158,-50 158,-21 9,-21"/>
<text text-anchor="start" x="12.5" y="-36.3" font-family="Helvetica,sans-Serif" font-size="14.00" fill="#000000">socket_direction_vector</text>
<text text-anchor="start" x="21.5" y="-27.1" font-family="Helvetica,sans-Serif" font-size="8.00" fill="#000000">unix&#45;socket/direction&#45;vector&#45;reader</text>
<polygon fill="#893f19" stroke="none" points="9,-4 9,-21 158,-21 158,-4 9,-4"/>
<polygon fill="none" stroke="#662f12" points="9,-4 9,-21 158,-21 158,-4 9,-4"/>
<text text-anchor="start" x="122" y="-10" font-family="Helvetica,sans-Serif" font-size="10.00" fill="#ffffff">OUT ◉</text>
</g>
<!-- console -->
<g id="node2" class="node"><title>console</title>
<polygon fill="#471ca4" stroke="none" points="210,-21 210,-50 264,-50 264,-21 210,-21"/>
<polygon fill="none" stroke="#1d0b45" points="210,-21 210,-50 264,-50 264,-21 210,-21"/>
<text text-anchor="start" x="213.5" y="-36.3" font-family="Helvetica,sans-Serif" font-size="14.00" fill="#ffffff">console</text>
<text text-anchor="start" x="223" y="-27.1" font-family="Helvetica,sans-Serif" font-size="8.00" fill="#ffffff">console</text>
<polygon fill="#35157b" stroke="none" points="210,-4 210,-21 264,-21 264,-4 210,-4"/>
<polygon fill="none" stroke="#1d0b45" points="210,-4 210,-21 264,-21 264,-4 210,-4"/>
<text text-anchor="start" x="213" y="-10" font-family="Helvetica,sans-Serif" font-size="10.00" fill="#ffffff">◎ IN</text>
</g>
<!-- socket_direction_vector&#45;&gt;console -->
<g id="edge1" class="edge"><title>socket_direction_vector:OUT:e&#45;&gt;console:IN:w</title>
<path fill="none" stroke="#6e4c55" stroke-width="2" d="M159,-12C179.66,-12 185.914,-12 204.548,-12"/>
<ellipse fill="#6e4c55" stroke="#6e4c55" stroke-width="2" cx="207" cy="-12" rx="2" ry="2"/>
</g>
</g>
</svg>
