<?xml version="1.0" encoding="UTF-8" standalone="no"?>
<!DOCTYPE svg PUBLIC "-//W3C//DTD SVG 1.1//EN"
 "http://www.w3.org/Graphics/SVG/1.1/DTD/svg11.dtd">
<!-- Generated by graphviz version 2.36.0 (20140111.2315)
 -->
<!-- Title: fbp Pages: 1 -->
<svg width="216pt" height="62pt"
 viewBox="0.00 0.00 216.00 62.00" xmlns="http://www.w3.org/2000/svg" xmlns:xlink="http://www.w3.org/1999/xlink">
<g id="graph0" class="graph" transform="scale(1 1) rotate(0) translate(4 58)">
<title>fbp</title>
<polygon fill="white" stroke="none" points="-4,4 -4,-58 212,-58 212,4 -4,4"/>
<!-- socket_int -->
<g id="node1" class="node"><title>socket_int</title>
<polygon fill="#f5712e" stroke="none" points="9,-21 9,-50 94,-50 94,-21 9,-21"/>
<polygon fill="none" stroke="#662f12" points="9,-21 9,-50 94,-50 94,-21 9,-21"/>
<text text-anchor="start" x="21" y="-36.3" font-family="Helvetica,sans-Serif" font-size="14.00" fill="#000000">socket_int</text>
<text text-anchor="start" x="12.5" y="-27.1" font-family="Helvetica,sans-Serif" font-size="8.00" fill="#000000">unix&#45;socket/int&#45;reader</text>
<polygon fill="#893f19" stroke="none" points="9,-4 9,-21 94,-21 94,-4 9,-4"/>
<polygon fill="none" stroke="#662f12" points="9,-4 9,-21 94,-21 94,-4 9,-4"/>
<text text-anchor="start" x="58" y="-10" font-family="Helvetica,sans-Serif" font-size="10.00" fill="#ffffff">OUT ◉</text>
</g>
<!-- console -->
<g id="node2" class="node"><title>console</title>
<polygon fill="#471ca4" stroke="none" points="146,-21 146,-50 200,-50 200,-21 146,-21"/>
<polygon fill="none" stroke="#1d0b45" points="146,-21 146,-50 200,-50 200,-21 146,-21"/>
<text text-anchor="start" x="149.5" y="-36.3" font-family="Helvetica,sans-Serif" font-size="14.00" fill="#ffffff">console</text>
<text text-anchor="start" x="159" y="-27.1" font-family="Helvetica,sans-Serif" font-size="8.00" fill="#ffffff">console</text>
<polygon fill="#35157b" stroke="none" points="146,-4 146,-21 200,-21 200,-4 146,-4"/>
<polygon fill="none" stroke="#1d0b45" points="146,-4 146,-21 200,-21 200,-4 146,-4"/>
<text text-anchor="start" x="149" y="-10" font-family="Helvetica,sans-Serif" font-size="10.00" fill="#ffffff">◎ IN</text>
</g>
<!-- socket_int&#45;&gt;console -->
<g id="edge1" class="edge"><title>socket_int:OUT_OUT:e&#45;&gt;console:IN_IN:w</title>
<path fill="none" stroke="#7a5daf" stroke-width="2" d="M95,-12C115.66,-12 121.914,-12 140.548,-12"/>
<ellipse fill="#7a5daf" stroke="#7a5daf" stroke-width="2" cx="143" cy="-12" rx="2" ry="2"/>
</g>
</g>
</svg>
