<?xml version="1.0" encoding="UTF-8" standalone="no"?>
<!DOCTYPE svg PUBLIC "-//W3C//DTD SVG 1.1//EN"
 "http://www.w3.org/Graphics/SVG/1.1/DTD/svg11.dtd">
<!-- Generated by graphviz version 2.36.0 (20140111.2315)
 -->
<!-- Title: fbp Pages: 1 -->
<svg width="608pt" height="223pt"
 viewBox="0.00 0.00 608.00 223.00" xmlns="http://www.w3.org/2000/svg" xmlns:xlink="http://www.w3.org/1999/xlink">
<g id="graph0" class="graph" transform="scale(1 1) rotate(0) translate(4 219)">
<title>fbp</title>
<polygon fill="white" stroke="none" points="-4,4 -4,-219 604,-219 604,4 -4,4"/>
<!-- RedByte -->
<g id="node1" class="node"><title>RedByte</title>
<polygon fill="#e8ea7a" stroke="none" points="249,-182 249,-211 308,-211 308,-182 249,-182"/>
<polygon fill="none" stroke="#616233" points="249,-182 249,-211 308,-211 308,-182 249,-182"/>
<text text-anchor="start" x="252.5" y="-197.3" font-family="Helvetica,sans-Serif" font-size="14.00" fill="#000000">RedByte</text>
<text text-anchor="start" x="254.5" y="-188.1" font-family="Helvetica,sans-Serif" font-size="8.00" fill="#000000">constant/byte</text>
<polygon fill="#828344" stroke="none" points="249,-165 249,-182 308,-182 308,-165 249,-165"/>
<polygon fill="none" stroke="#616233" points="249,-165 249,-182 308,-182 308,-165 249,-165"/>
<text text-anchor="start" x="272" y="-171" font-family="Helvetica,sans-Serif" font-size="10.00" fill="#ffffff">OUT ◉</text>
</g>
<!-- ColorByte -->
<g id="node2" class="node"><title>ColorByte</title>
<polygon fill="#bd648a" stroke="none" points="371,-127 371,-156 454,-156 454,-127 371,-127"/>
<polygon fill="none" stroke="#4e2a39" points="371,-127 371,-156 454,-156 454,-127 371,-127"/>
<text text-anchor="start" x="382.5" y="-142.3" font-family="Helvetica,sans-Serif" font-size="14.00" fill="#000000">ColorByte</text>
<text text-anchor="start" x="374.5" y="-133.1" font-family="Helvetica,sans-Serif" font-size="8.00" fill="#000000">converter/byte&#45;to&#45;rgb</text>
<polygon fill="#8d4b67" stroke="none" points="371,-110 371,-127 454,-127 454,-110 371,-110"/>
<polygon fill="none" stroke="#4e2a39" points="371,-110 371,-127 454,-127 454,-110 371,-110"/>
<text text-anchor="start" x="374" y="-116" font-family="Helvetica,sans-Serif" font-size="10.00" fill="#ffffff">◎ RED</text>
<polygon fill="#8d4b67" stroke="none" points="371,-93 371,-110 454,-110 454,-93 371,-93"/>
<polygon fill="none" stroke="#4e2a39" points="371,-93 371,-110 454,-110 454,-93 371,-93"/>
<text text-anchor="start" x="374" y="-99" font-family="Helvetica,sans-Serif" font-size="10.00" fill="#ffffff">◎ GREEN</text>
<polygon fill="#8d4b67" stroke="none" points="371,-76 371,-93 454,-93 454,-76 371,-76"/>
<polygon fill="none" stroke="#4e2a39" points="371,-76 371,-93 454,-93 454,-76 371,-76"/>
<text text-anchor="start" x="374" y="-82" font-family="Helvetica,sans-Serif" font-size="10.00" fill="#ffffff">◎ BLUE</text>
<polygon fill="#69384d" stroke="none" points="371,-59 371,-76 454,-76 454,-59 371,-59"/>
<polygon fill="none" stroke="#4e2a39" points="371,-59 371,-76 454,-76 454,-59 371,-59"/>
<text text-anchor="start" x="418" y="-65" font-family="Helvetica,sans-Serif" font-size="10.00" fill="#ffffff">OUT ◉</text>
</g>
<!-- RedByte&#45;&gt;ColorByte -->
<g id="edge1" class="edge"><title>RedByte:OUT_OUT:e&#45;&gt;ColorByte:IN_RED:w</title>
<path fill="none" stroke="#df5c39" stroke-width="2" d="M309,-173C343.794,-173 334.611,-123.136 365.969,-119.241"/>
<ellipse fill="#df5c39" stroke="#df5c39" stroke-width="2" cx="368.004" cy="-119.119" rx="2" ry="2"/>
</g>
<!-- socket_rgb -->
<g id="node7" class="node"><title>socket_rgb</title>
<polygon fill="#f5712e" stroke="none" points="507,-76 507,-105 592,-105 592,-76 507,-76"/>
<polygon fill="none" stroke="#662f12" points="507,-76 507,-105 592,-105 592,-76 507,-76"/>
<text text-anchor="start" x="516" y="-91.3" font-family="Helvetica,sans-Serif" font-size="14.00" fill="#000000">socket_rgb</text>
<text text-anchor="start" x="510.5" y="-82.1" font-family="Helvetica,sans-Serif" font-size="8.00" fill="#000000">unix&#45;socket/rgb&#45;writer</text>
<polygon fill="#b75422" stroke="none" points="507,-59 507,-76 592,-76 592,-59 507,-59"/>
<polygon fill="none" stroke="#662f12" points="507,-59 507,-76 592,-76 592,-59 507,-59"/>
<text text-anchor="start" x="510" y="-65" font-family="Helvetica,sans-Serif" font-size="10.00" fill="#ffffff">◎ IN</text>
</g>
<!-- ColorByte&#45;&gt;socket_rgb -->
<g id="edge6" class="edge"><title>ColorByte:OUT_OUT:e&#45;&gt;socket_rgb:IN_IN:w</title>
<path fill="none" stroke="#29fe42" stroke-width="2" d="M455,-67C476.25,-67 482.559,-67 501.941,-67"/>
<ellipse fill="#29fe42" stroke="#29fe42" stroke-width="2" cx="504" cy="-67" rx="2" ry="2"/>
</g>
<!-- GreenByte -->
<g id="node3" class="node"><title>GreenByte</title>
<polygon fill="#e8ea7a" stroke="none" points="242,-110 242,-139 315,-139 315,-110 242,-110"/>
<polygon fill="none" stroke="#616233" points="242,-110 242,-139 315,-139 315,-110 242,-110"/>
<text text-anchor="start" x="245.5" y="-125.3" font-family="Helvetica,sans-Serif" font-size="14.00" fill="#000000">GreenByte</text>
<text text-anchor="start" x="254.5" y="-116.1" font-family="Helvetica,sans-Serif" font-size="8.00" fill="#000000">constant/byte</text>
<polygon fill="#828344" stroke="none" points="242,-93 242,-110 315,-110 315,-93 242,-93"/>
<polygon fill="none" stroke="#616233" points="242,-93 242,-110 315,-110 315,-93 242,-93"/>
<text text-anchor="start" x="279" y="-99" font-family="Helvetica,sans-Serif" font-size="10.00" fill="#ffffff">OUT ◉</text>
</g>
<!-- GreenByte&#45;&gt;ColorByte -->
<g id="edge2" class="edge"><title>GreenByte:OUT_OUT:e&#45;&gt;ColorByte:IN_GREEN:w</title>
<path fill="none" stroke="#c86f5c" stroke-width="2" d="M316,-101C338.594,-101 345.235,-101 365.959,-101"/>
<ellipse fill="#c86f5c" stroke="#c86f5c" stroke-width="2" cx="368" cy="-101" rx="2" ry="2"/>
</g>
<!-- Timer -->
<g id="node4" class="node"><title>Timer</title>
<polygon fill="#7f2fae" stroke="none" points="8,-54 8,-83 72,-83 72,-54 8,-54"/>
<polygon fill="none" stroke="#351348" points="8,-54 8,-83 72,-83 72,-54 8,-54"/>
<text text-anchor="start" x="11.5" y="-69.3" font-family="Helvetica,sans-Serif" font-size="14.00" fill="#ffffff">🕐 Timer</text>
<text text-anchor="start" x="30.5" y="-60.1" font-family="Helvetica,sans-Serif" font-size="8.00" fill="#ffffff">timer</text>
<polygon fill="#471a61" stroke="none" points="8,-37 8,-54 72,-54 72,-37 8,-37"/>
<polygon fill="none" stroke="#351348" points="8,-37 8,-54 72,-54 72,-37 8,-37"/>
<text text-anchor="start" x="36" y="-43" font-family="Helvetica,sans-Serif" font-size="10.00" fill="#ffffff">OUT ◉</text>
</g>
<!-- Acc -->
<g id="node5" class="node"><title>Acc</title>
<polygon fill="#254878" stroke="none" points="124,-54 124,-83 186,-83 186,-54 124,-54"/>
<polygon fill="none" stroke="#0f1e32" points="124,-54 124,-83 186,-83 186,-54 124,-54"/>
<text text-anchor="start" x="143.5" y="-69.3" font-family="Helvetica,sans-Serif" font-size="14.00" fill="#ffffff">Acc</text>
<text text-anchor="start" x="127.5" y="-60.1" font-family="Helvetica,sans-Serif" font-size="8.00" fill="#ffffff">int/accumulator</text>
<polygon fill="#1b365a" stroke="none" points="124,-37 124,-54 186,-54 186,-37 124,-37"/>
<polygon fill="none" stroke="#0f1e32" points="124,-37 124,-54 186,-54 186,-37 124,-37"/>
<text text-anchor="start" x="127" y="-43" font-family="Helvetica,sans-Serif" font-size="10.00" fill="#ffffff">◎ INC</text>
<polygon fill="#142843" stroke="none" points="124,-20 124,-37 186,-37 186,-20 124,-20"/>
<polygon fill="none" stroke="#0f1e32" points="124,-20 124,-37 186,-37 186,-20 124,-20"/>
<text text-anchor="start" x="150" y="-26" font-family="Helvetica,sans-Serif" font-size="10.00" fill="#ffffff">OUT ◉</text>
</g>
<!-- Timer&#45;&gt;Acc -->
<g id="edge3" class="edge"><title>Timer:OUT_OUT:e&#45;&gt;Acc:IN_INC:w</title>
<path fill="none" stroke="#777993" stroke-width="2" d="M73,-45C93.6597,-45 99.9141,-45 118.548,-45"/>
<ellipse fill="#777993" stroke="#777993" stroke-width="2" cx="121" cy="-45" rx="2" ry="2"/>
</g>
<!-- int_to_str -->
<g id="node6" class="node"><title>int_to_str</title>
<polygon fill="#bd648a" stroke="none" points="238,-37 238,-66 318,-66 318,-37 238,-37"/>
<polygon fill="none" stroke="#4e2a39" points="238,-37 238,-66 318,-66 318,-37 238,-37"/>
<text text-anchor="start" x="250" y="-52.3" font-family="Helvetica,sans-Serif" font-size="14.00" fill="#000000">int_to_str</text>
<text text-anchor="start" x="241.5" y="-43.1" font-family="Helvetica,sans-Serif" font-size="8.00" fill="#000000">converter/int&#45;to&#45;byte</text>
<polygon fill="#8d4b67" stroke="none" points="238,-20 238,-37 318,-37 318,-20 238,-20"/>
<polygon fill="none" stroke="#4e2a39" points="238,-20 238,-37 318,-37 318,-20 238,-20"/>
<text text-anchor="start" x="241" y="-26" font-family="Helvetica,sans-Serif" font-size="10.00" fill="#ffffff">◎ IN</text>
<polygon fill="#69384d" stroke="none" points="238,-3 238,-20 318,-20 318,-3 238,-3"/>
<polygon fill="none" stroke="#4e2a39" points="238,-3 238,-20 318,-20 318,-3 238,-3"/>
<text text-anchor="start" x="282" y="-9" font-family="Helvetica,sans-Serif" font-size="10.00" fill="#ffffff">OUT ◉</text>
</g>
<!-- Acc&#45;&gt;int_to_str -->
<g id="edge4" class="edge"><title>Acc:OUT_OUT:e&#45;&gt;int_to_str:IN_IN:w</title>
<path fill="none" stroke="#cb94e0" stroke-width="2" d="M187,-28C207.66,-28 213.914,-28 232.548,-28"/>
<ellipse fill="#cb94e0" stroke="#cb94e0" stroke-width="2" cx="235" cy="-28" rx="2" ry="2"/>
</g>
<!-- int_to_str&#45;&gt;ColorByte -->
<g id="edge5" class="edge"><title>int_to_str:OUT_OUT:e&#45;&gt;ColorByte:IN_BLUE:w</title>
<path fill="none" stroke="#047868" stroke-width="2" d="M319,-11C357.032,-11 332.518,-78.4083 365.664,-83.6745"/>
<ellipse fill="#047868" stroke="#047868" stroke-width="2" cx="368.006" cy="-83.8503" rx="2" ry="2"/>
</g>
</g>
</svg>
