<?xml version="1.0" encoding="UTF-8" standalone="no"?>
<!DOCTYPE svg PUBLIC "-//W3C//DTD SVG 1.1//EN"
 "http://www.w3.org/Graphics/SVG/1.1/DTD/svg11.dtd">
<!-- Generated by graphviz version 2.36.0 (20140111.2315)
 -->
<!-- Title: fbp Pages: 1 -->
<svg width="526pt" height="510pt"
 viewBox="0.00 0.00 526.00 510.00" xmlns="http://www.w3.org/2000/svg" xmlns:xlink="http://www.w3.org/1999/xlink">
<g id="graph0" class="graph" transform="scale(1 1) rotate(0) translate(4 506)">
<title>fbp</title>
<polygon fill="white" stroke="none" points="-4,4 -4,-506 522,-506 522,4 -4,4"/>
<!-- client -->
<g id="node1" class="node"><title>client</title>
<polygon fill="#0aa774" stroke="none" points="161,-208 161,-237 256,-237 256,-208 161,-208"/>
<polygon fill="none" stroke="#034530" points="161,-208 161,-237 256,-237 256,-208 161,-208"/>
<text text-anchor="start" x="192.5" y="-223.3" font-family="Helvetica,sans-Serif" font-size="14.00" fill="#ffffff">client</text>
<text text-anchor="start" x="178.5" y="-214.1" font-family="Helvetica,sans-Serif" font-size="8.00" fill="#ffffff">ComposedClient</text>
<polygon fill="#077d57" stroke="none" points="161,-191 161,-208 256,-208 256,-191 161,-191"/>
<polygon fill="none" stroke="#034530" points="161,-191 161,-208 256,-208 256,-191 161,-191"/>
<text text-anchor="start" x="164" y="-197" font-family="Helvetica,sans-Serif" font-size="10.00" fill="#ffffff">◎ GET</text>
<polygon fill="#077d57" stroke="none" points="161,-174 161,-191 256,-191 256,-174 161,-174"/>
<polygon fill="none" stroke="#034530" points="161,-174 161,-191 256,-191 256,-174 161,-174"/>
<text text-anchor="start" x="164" y="-180" font-family="Helvetica,sans-Serif" font-size="10.00" fill="#ffffff">◎ STRING_VALUE</text>
<polygon fill="#077d57" stroke="none" points="161,-157 161,-174 256,-174 256,-157 161,-157"/>
<polygon fill="none" stroke="#034530" points="161,-157 161,-174 256,-174 256,-157 161,-157"/>
<text text-anchor="start" x="164" y="-163" font-family="Helvetica,sans-Serif" font-size="10.00" fill="#ffffff">◎ INT_VALUE</text>
<polygon fill="#077d57" stroke="none" points="161,-140 161,-157 256,-157 256,-140 161,-140"/>
<polygon fill="none" stroke="#034530" points="161,-140 161,-157 256,-157 256,-140 161,-140"/>
<text text-anchor="start" x="164" y="-146" font-family="Helvetica,sans-Serif" font-size="10.00" fill="#ffffff">◎ FLOAT_VALUE</text>
<polygon fill="#077d57" stroke="none" points="161,-123 161,-140 256,-140 256,-123 161,-123"/>
<polygon fill="none" stroke="#034530" points="161,-123 161,-140 256,-140 256,-123 161,-123"/>
<text text-anchor="start" x="164" y="-129" font-family="Helvetica,sans-Serif" font-size="10.00" fill="#ffffff">◎ POST</text>
<polygon fill="#055d41" stroke="none" points="161,-106 161,-123 256,-123 256,-106 161,-106"/>
<polygon fill="none" stroke="#034530" points="161,-106 161,-123 256,-123 256,-106 161,-106"/>
<text text-anchor="start" x="220" y="-112" font-family="Helvetica,sans-Serif" font-size="10.00" fill="#ffffff">OUT ◉</text>
</g>
<!-- Splitter -->
<g id="node8" class="node"><title>Splitter</title>
<polygon fill="#e14c38" stroke="none" points="309,-248 309,-277 404,-277 404,-248 309,-248"/>
<polygon fill="none" stroke="#5e1f17" points="309,-248 309,-277 404,-277 404,-248 309,-248"/>
<text text-anchor="start" x="335" y="-263.3" font-family="Helvetica,sans-Serif" font-size="14.00" fill="#ffffff">Splitter</text>
<text text-anchor="start" x="324.5" y="-254.1" font-family="Helvetica,sans-Serif" font-size="8.00" fill="#ffffff">ComposedSplitter</text>
<polygon fill="#a8392a" stroke="none" points="309,-231 309,-248 404,-248 404,-231 309,-231"/>
<polygon fill="none" stroke="#5e1f17" points="309,-231 309,-248 404,-248 404,-231 309,-231"/>
<text text-anchor="start" x="312" y="-237" font-family="Helvetica,sans-Serif" font-size="10.00" fill="#ffffff">◎ IN</text>
<polygon fill="#7e2a1f" stroke="none" points="309,-214 309,-231 404,-231 404,-214 309,-214"/>
<polygon fill="none" stroke="#5e1f17" points="309,-214 309,-231 404,-231 404,-214 309,-214"/>
<text text-anchor="start" x="319" y="-220" font-family="Helvetica,sans-Serif" font-size="10.00" fill="#ffffff">FLOAT_VALUE ◉</text>
<polygon fill="#7e2a1f" stroke="none" points="309,-197 309,-214 404,-214 404,-197 309,-197"/>
<polygon fill="none" stroke="#5e1f17" points="309,-197 309,-214 404,-214 404,-197 309,-197"/>
<text text-anchor="start" x="334" y="-203" font-family="Helvetica,sans-Serif" font-size="10.00" fill="#ffffff">INT_VALUE ◉</text>
<polygon fill="#7e2a1f" stroke="none" points="309,-180 309,-197 404,-197 404,-180 309,-180"/>
<polygon fill="none" stroke="#5e1f17" points="309,-180 309,-197 404,-197 404,-180 309,-180"/>
<text text-anchor="start" x="313" y="-186" font-family="Helvetica,sans-Serif" font-size="10.00" fill="#ffffff">STRING_VALUE ◉</text>
</g>
<!-- client&#45;&gt;Splitter -->
<g id="edge5" class="edge"><title>client:OUT_OUT:e&#45;&gt;Splitter:IN_IN:w</title>
<path fill="none" stroke="#694cbe" stroke-width="2" d="M257,-114C315.997,-114 250.788,-234.163 303.963,-239.796"/>
<ellipse fill="#694cbe" stroke="#694cbe" stroke-width="2" cx="306.003" cy="-239.899" rx="2" ry="2"/>
</g>
<!-- server -->
<g id="node2" class="node"><title>server</title>
<polygon fill="#f84f14" stroke="none" points="161,-404 161,-433 256,-433 256,-404 161,-404"/>
<polygon fill="none" stroke="#682108" points="161,-404 161,-433 256,-433 256,-404 161,-404"/>
<text text-anchor="start" x="189.5" y="-419.3" font-family="Helvetica,sans-Serif" font-size="14.00" fill="#ffffff">server</text>
<text text-anchor="start" x="176.5" y="-410.1" font-family="Helvetica,sans-Serif" font-size="8.00" fill="#ffffff">ComposedServer</text>
<polygon fill="#ba3b0f" stroke="none" points="161,-387 161,-404 256,-404 256,-387 161,-387"/>
<polygon fill="none" stroke="#682108" points="161,-387 161,-404 256,-404 256,-387 161,-387"/>
<text text-anchor="start" x="164" y="-393" font-family="Helvetica,sans-Serif" font-size="10.00" fill="#ffffff">◎ STRING_VALUE</text>
<polygon fill="#ba3b0f" stroke="none" points="161,-370 161,-387 256,-387 256,-370 161,-370"/>
<polygon fill="none" stroke="#682108" points="161,-370 161,-387 256,-387 256,-370 161,-370"/>
<text text-anchor="start" x="164" y="-376" font-family="Helvetica,sans-Serif" font-size="10.00" fill="#ffffff">◎ INT_VALUE</text>
<polygon fill="#ba3b0f" stroke="none" points="161,-353 161,-370 256,-370 256,-353 161,-353"/>
<polygon fill="none" stroke="#682108" points="161,-353 161,-370 256,-370 256,-353 161,-353"/>
<text text-anchor="start" x="164" y="-359" font-family="Helvetica,sans-Serif" font-size="10.00" fill="#ffffff">◎ FLOAT_VALUE</text>
<polygon fill="#8b2c0b" stroke="none" points="161,-336 161,-353 256,-353 256,-336 161,-336"/>
<polygon fill="none" stroke="#682108" points="161,-336 161,-353 256,-353 256,-336 161,-336"/>
<text text-anchor="start" x="220" y="-342" font-family="Helvetica,sans-Serif" font-size="10.00" fill="#ffffff">OUT ◉</text>
</g>
<!-- server&#45;&gt;Splitter -->
<g id="edge13" class="edge"><title>server:OUT_OUT:e&#45;&gt;Splitter:IN_IN:w</title>
<path fill="none" stroke="#6c2a2e" stroke-width="2" d="M257,-344C307.073,-344 259.284,-245.61 304.005,-240.229"/>
<ellipse fill="#6c2a2e" stroke="#6c2a2e" stroke-width="2" cx="306.003" cy="-240.115" rx="2" ry="2"/>
</g>
<!-- console -->
<g id="node3" class="node"><title>console</title>
<polygon fill="#471ca4" stroke="none" points="456,-214 456,-243 510,-243 510,-214 456,-214"/>
<polygon fill="none" stroke="#1d0b45" points="456,-214 456,-243 510,-243 510,-214 456,-214"/>
<text text-anchor="start" x="459.5" y="-229.3" font-family="Helvetica,sans-Serif" font-size="14.00" fill="#ffffff">console</text>
<text text-anchor="start" x="469" y="-220.1" font-family="Helvetica,sans-Serif" font-size="8.00" fill="#ffffff">console</text>
<polygon fill="#35157b" stroke="none" points="456,-197 456,-214 510,-214 510,-197 456,-197"/>
<polygon fill="none" stroke="#1d0b45" points="456,-197 456,-214 510,-214 510,-197 456,-197"/>
<text text-anchor="start" x="459" y="-203" font-family="Helvetica,sans-Serif" font-size="10.00" fill="#ffffff">◎ IN</text>
</g>
<!-- #anon:26:1 -->
<g id="node4" class="node"><title>#anon:26:1</title>
<polygon fill="#e8ea7a" stroke="none" points="11,-476 11,-498 106,-498 106,-476 11,-476"/>
<polygon fill="none" stroke="#616233" points="11,-476 11,-498 106,-498 106,-476 11,-476"/>
<text text-anchor="start" x="14.5" y="-483.3" font-family="Helvetica,sans-Serif" font-size="14.00" fill="#000000">constant/string</text>
<polygon fill="#828344" stroke="none" points="11,-459 11,-476 106,-476 106,-459 11,-459"/>
<polygon fill="none" stroke="#616233" points="11,-459 11,-476 106,-476 106,-459 11,-459"/>
<text text-anchor="start" x="70" y="-465" font-family="Helvetica,sans-Serif" font-size="10.00" fill="#ffffff">OUT ◉</text>
</g>
<!-- #anon:26:1&#45;&gt;server -->
<g id="edge1" class="edge"><title>#anon:26:1:OUT_OUT:e&#45;&gt;server:IN_STRING_VALUE:w</title>
<path fill="none" stroke="#7e980e" stroke-width="2" d="M107,-467C144.84,-467 122.535,-401.439 155.676,-396.317"/>
<ellipse fill="#7e980e" stroke="#7e980e" stroke-width="2" cx="158.005" cy="-396.146" rx="2" ry="2"/>
</g>
<!-- #anon:27:1 -->
<g id="node5" class="node"><title>#anon:27:1</title>
<polygon fill="#e8ea7a" stroke="none" points="20,-411 20,-433 97,-433 97,-411 20,-411"/>
<polygon fill="none" stroke="#616233" points="20,-411 20,-433 97,-433 97,-411 20,-411"/>
<text text-anchor="start" x="23.5" y="-418.3" font-family="Helvetica,sans-Serif" font-size="14.00" fill="#000000">constant/int</text>
<polygon fill="#828344" stroke="none" points="20,-394 20,-411 97,-411 97,-394 20,-394"/>
<polygon fill="none" stroke="#616233" points="20,-394 20,-411 97,-411 97,-394 20,-394"/>
<text text-anchor="start" x="61" y="-400" font-family="Helvetica,sans-Serif" font-size="10.00" fill="#ffffff">OUT ◉</text>
</g>
<!-- #anon:27:1&#45;&gt;server -->
<g id="edge2" class="edge"><title>#anon:27:1:OUT_OUT:e&#45;&gt;server:IN_INT_VALUE:w</title>
<path fill="none" stroke="#4989d2" stroke-width="2" d="M98,-402C126.048,-402 130.088,-380.376 155.698,-378.179"/>
<ellipse fill="#4989d2" stroke="#4989d2" stroke-width="2" cx="158.002" cy="-378.083" rx="2" ry="2"/>
</g>
<!-- #anon:28:1 -->
<g id="node6" class="node"><title>#anon:28:1</title>
<polygon fill="#e8ea7a" stroke="none" points="14,-346 14,-368 102,-368 102,-346 14,-346"/>
<polygon fill="none" stroke="#616233" points="14,-346 14,-368 102,-368 102,-346 14,-346"/>
<text text-anchor="start" x="17.5" y="-353.3" font-family="Helvetica,sans-Serif" font-size="14.00" fill="#000000">constant/float</text>
<polygon fill="#828344" stroke="none" points="14,-329 14,-346 102,-346 102,-329 14,-329"/>
<polygon fill="none" stroke="#616233" points="14,-329 14,-346 102,-346 102,-329 14,-329"/>
<text text-anchor="start" x="66" y="-335" font-family="Helvetica,sans-Serif" font-size="10.00" fill="#ffffff">OUT ◉</text>
</g>
<!-- #anon:28:1&#45;&gt;server -->
<g id="edge3" class="edge"><title>#anon:28:1:OUT_OUT:e&#45;&gt;server:IN_FLOAT_VALUE:w</title>
<path fill="none" stroke="#5f336e" stroke-width="2" d="M103,-337C129.092,-337 132.241,-358.624 156.003,-360.821"/>
<ellipse fill="#5f336e" stroke="#5f336e" stroke-width="2" cx="158.002" cy="-360.91" rx="2" ry="2"/>
</g>
<!-- #anon:30:1 -->
<g id="node7" class="node"><title>#anon:30:1</title>
<polygon fill="#e8ea7a" stroke="none" points="8,-281 8,-303 108,-303 108,-281 8,-281"/>
<polygon fill="none" stroke="#616233" points="8,-281 8,-303 108,-303 108,-281 8,-281"/>
<text text-anchor="start" x="11.5" y="-288.3" font-family="Helvetica,sans-Serif" font-size="14.00" fill="#000000">constant/empty</text>
<polygon fill="#828344" stroke="none" points="8,-264 8,-281 108,-281 108,-264 8,-264"/>
<polygon fill="none" stroke="#616233" points="8,-264 8,-281 108,-281 108,-264 8,-264"/>
<text text-anchor="start" x="72" y="-270" font-family="Helvetica,sans-Serif" font-size="10.00" fill="#ffffff">OUT ◉</text>
</g>
<!-- #anon:30:1&#45;&gt;client -->
<g id="edge4" class="edge"><title>#anon:30:1:OUT_OUT:e&#45;&gt;client:IN_GET:w</title>
<path fill="none" stroke="#3e43ba" stroke-width="2" d="M109,-272C146.683,-272 122.827,-205.515 155.702,-200.321"/>
<ellipse fill="#3e43ba" stroke="#3e43ba" stroke-width="2" cx="158.006" cy="-200.149" rx="2" ry="2"/>
</g>
<!-- Splitter&#45;&gt;console -->
<g id="edge6" class="edge"><title>Splitter:OUT_FLOAT_VALUE:e&#45;&gt;console:IN_IN:w</title>
<path fill="none" stroke="#075a60" stroke-width="2" d="M405,-222C427.005,-222 431.067,-207.059 450.828,-205.191"/>
<ellipse fill="#075a60" stroke="#075a60" stroke-width="2" cx="453.002" cy="-205.091" rx="2" ry="2"/>
</g>
<!-- Splitter&#45;&gt;console -->
<g id="edge7" class="edge"><title>Splitter:OUT_INT_VALUE:e&#45;&gt;console:IN_IN:w</title>
<path fill="none" stroke="#126711" stroke-width="2" d="M405,-205C425.66,-205 431.914,-205 450.548,-205"/>
<ellipse fill="#126711" stroke="#126711" stroke-width="2" cx="453" cy="-205" rx="2" ry="2"/>
</g>
<!-- Splitter&#45;&gt;console -->
<g id="edge8" class="edge"><title>Splitter:OUT_STRING_VALUE:e&#45;&gt;console:IN_IN:w</title>
<path fill="none" stroke="#d819a8" stroke-width="2" d="M405,-188C427.005,-188 431.067,-202.941 450.828,-204.809"/>
<ellipse fill="#d819a8" stroke="#d819a8" stroke-width="2" cx="453.002" cy="-204.909" rx="2" ry="2"/>
</g>
<!-- #anon:37:1 -->
<g id="node9" class="node"><title>#anon:37:1</title>
<polygon fill="#e8ea7a" stroke="none" points="11,-216 11,-238 106,-238 106,-216 11,-216"/>
<polygon fill="none" stroke="#616233" points="11,-216 11,-238 106,-238 106,-216 11,-216"/>
<text text-anchor="start" x="14.5" y="-223.3" font-family="Helvetica,sans-Serif" font-size="14.00" fill="#000000">constant/string</text>
<polygon fill="#828344" stroke="none" points="11,-199 11,-216 106,-216 106,-199 11,-199"/>
<polygon fill="none" stroke="#616233" points="11,-199 11,-216 106,-216 106,-199 11,-199"/>
<text text-anchor="start" x="70" y="-205" font-family="Helvetica,sans-Serif" font-size="10.00" fill="#ffffff">OUT ◉</text>
</g>
<!-- #anon:37:1&#45;&gt;client -->
<g id="edge9" class="edge"><title>#anon:37:1:OUT_OUT:e&#45;&gt;client:IN_STRING_VALUE:w</title>
<path fill="none" stroke="#63b348" stroke-width="2" d="M107,-207C131.444,-207 133.928,-185.553 155.97,-183.207"/>
<ellipse fill="#63b348" stroke="#63b348" stroke-width="2" cx="158.003" cy="-183.103" rx="2" ry="2"/>
</g>
<!-- #anon:38:1 -->
<g id="node10" class="node"><title>#anon:38:1</title>
<polygon fill="#e8ea7a" stroke="none" points="20,-151 20,-173 97,-173 97,-151 20,-151"/>
<polygon fill="none" stroke="#616233" points="20,-151 20,-173 97,-173 97,-151 20,-151"/>
<text text-anchor="start" x="23.5" y="-158.3" font-family="Helvetica,sans-Serif" font-size="14.00" fill="#000000">constant/int</text>
<polygon fill="#828344" stroke="none" points="20,-134 20,-151 97,-151 97,-134 20,-134"/>
<polygon fill="none" stroke="#616233" points="20,-134 20,-151 97,-151 97,-134 20,-134"/>
<text text-anchor="start" x="61" y="-140" font-family="Helvetica,sans-Serif" font-size="10.00" fill="#ffffff">OUT ◉</text>
</g>
<!-- #anon:38:1&#45;&gt;client -->
<g id="edge10" class="edge"><title>#anon:38:1:OUT_OUT:e&#45;&gt;client:IN_INT_VALUE:w</title>
<path fill="none" stroke="#ea9f66" stroke-width="2" d="M98,-142C125.898,-142 130.215,-162.723 155.718,-164.828"/>
<ellipse fill="#ea9f66" stroke="#ea9f66" stroke-width="2" cx="158.002" cy="-164.92" rx="2" ry="2"/>
</g>
<!-- #anon:39:1 -->
<g id="node11" class="node"><title>#anon:39:1</title>
<polygon fill="#e8ea7a" stroke="none" points="14,-86 14,-108 102,-108 102,-86 14,-86"/>
<polygon fill="none" stroke="#616233" points="14,-86 14,-108 102,-108 102,-86 14,-86"/>
<text text-anchor="start" x="17.5" y="-93.3" font-family="Helvetica,sans-Serif" font-size="14.00" fill="#000000">constant/float</text>
<polygon fill="#828344" stroke="none" points="14,-69 14,-86 102,-86 102,-69 14,-69"/>
<polygon fill="none" stroke="#616233" points="14,-69 14,-86 102,-86 102,-69 14,-69"/>
<text text-anchor="start" x="66" y="-75" font-family="Helvetica,sans-Serif" font-size="10.00" fill="#ffffff">OUT ◉</text>
</g>
<!-- #anon:39:1&#45;&gt;client -->
<g id="edge11" class="edge"><title>#anon:39:1:OUT_OUT:e&#45;&gt;client:IN_FLOAT_VALUE:w</title>
<path fill="none" stroke="#6b4778" stroke-width="2" d="M103,-77C142.044,-77 121.137,-143.096 155.965,-147.743"/>
<ellipse fill="#6b4778" stroke="#6b4778" stroke-width="2" cx="158.004" cy="-147.873" rx="2" ry="2"/>
</g>
<!-- #anon:41:1 -->
<g id="node12" class="node"><title>#anon:41:1</title>
<polygon fill="#e8ea7a" stroke="none" points="8,-21 8,-43 108,-43 108,-21 8,-21"/>
<polygon fill="none" stroke="#616233" points="8,-21 8,-43 108,-43 108,-21 8,-21"/>
<text text-anchor="start" x="11.5" y="-28.3" font-family="Helvetica,sans-Serif" font-size="14.00" fill="#000000">constant/empty</text>
<polygon fill="#828344" stroke="none" points="8,-4 8,-21 108,-21 108,-4 8,-4"/>
<polygon fill="none" stroke="#616233" points="8,-4 8,-21 108,-21 108,-4 8,-4"/>
<text text-anchor="start" x="72" y="-10" font-family="Helvetica,sans-Serif" font-size="10.00" fill="#ffffff">OUT ◉</text>
</g>
<!-- #anon:41:1&#45;&gt;client -->
<g id="edge12" class="edge"><title>#anon:41:1:OUT_OUT:e&#45;&gt;client:IN_POST:w</title>
<path fill="none" stroke="#0e0ca4" stroke-width="2" d="M109,-12C165.08,-12 105.634,-125.034 155.848,-130.774"/>
<ellipse fill="#0e0ca4" stroke="#0e0ca4" stroke-width="2" cx="158.003" cy="-130.891" rx="2" ry="2"/>
</g>
</g>
</svg>
