<?xml version="1.0" encoding="UTF-8" standalone="no"?>
<!DOCTYPE svg PUBLIC "-//W3C//DTD SVG 1.1//EN"
 "http://www.w3.org/Graphics/SVG/1.1/DTD/svg11.dtd">
<!-- Generated by graphviz version 2.36.0 (20140111.2315)
 -->
<!-- Title: fbp Pages: 1 -->
<svg width="352pt" height="206pt"
 viewBox="0.00 0.00 352.00 206.00" xmlns="http://www.w3.org/2000/svg" xmlns:xlink="http://www.w3.org/1999/xlink">
<g id="graph0" class="graph" transform="scale(1 1) rotate(0) translate(4 202)">
<title>fbp</title>
<polygon fill="white" stroke="none" points="-4,4 -4,-202 348,-202 348,4 -4,4"/>
<!-- oauth -->
<g id="node1" class="node"><title>oauth</title>
<polygon fill="#8e3f1a" stroke="none" points="21,-165 21,-194 74,-194 74,-165 21,-165"/>
<polygon fill="none" stroke="#3b1a0a" points="21,-165 21,-194 74,-194 74,-165 21,-165"/>
<text text-anchor="start" x="30.5" y="-180.3" font-family="Helvetica,sans-Serif" font-size="14.00" fill="#ffffff">oauth</text>
<text text-anchor="start" x="32" y="-171.1" font-family="Helvetica,sans-Serif" font-size="8.00" fill="#ffffff">oauth/v1</text>
<polygon fill="#4f230e" stroke="none" points="21,-148 21,-165 74,-165 74,-148 21,-148"/>
<polygon fill="none" stroke="#3b1a0a" points="21,-148 21,-165 74,-165 74,-148 21,-148"/>
<text text-anchor="start" x="25" y="-154" font-family="Helvetica,sans-Serif" font-size="10.00" fill="#ffffff">TOKEN ◉</text>
</g>
<!-- twitter -->
<g id="node2" class="node"><title>twitter</title>
<polygon fill="#86ebdc" stroke="none" points="139,-109 139,-138 230,-138 230,-109 139,-109"/>
<polygon fill="none" stroke="#38635c" points="139,-109 139,-138 230,-138 230,-109 139,-109"/>
<text text-anchor="start" x="166" y="-124.3" font-family="Helvetica,sans-Serif" font-size="14.00" fill="#000000">twitter</text>
<text text-anchor="start" x="163" y="-115.1" font-family="Helvetica,sans-Serif" font-size="8.00" fill="#000000">twitter/client</text>
<polygon fill="#64b0a5" stroke="none" points="139,-92 139,-109 230,-109 230,-92 139,-92"/>
<polygon fill="none" stroke="#38635c" points="139,-92 139,-109 230,-109 230,-92 139,-92"/>
<text text-anchor="start" x="142" y="-98" font-family="Helvetica,sans-Serif" font-size="10.00" fill="#000000">◎ TOKEN</text>
<polygon fill="#64b0a5" stroke="none" points="139,-75 139,-92 230,-92 230,-75 139,-75"/>
<polygon fill="none" stroke="#38635c" points="139,-75 139,-92 230,-92 230,-75 139,-75"/>
<text text-anchor="start" x="142" y="-81" font-family="Helvetica,sans-Serif" font-size="10.00" fill="#000000">◎ TWEET</text>
<polygon fill="#64b0a5" stroke="none" points="139,-58 139,-75 230,-75 230,-58 139,-58"/>
<polygon fill="none" stroke="#38635c" points="139,-58 139,-75 230,-75 230,-58 139,-58"/>
<text text-anchor="start" x="142" y="-64" font-family="Helvetica,sans-Serif" font-size="10.00" fill="#000000">◎ GET_TIMELINE</text>
<polygon fill="#4b847b" stroke="none" points="139,-41 139,-58 230,-58 230,-41 139,-41"/>
<polygon fill="none" stroke="#38635c" points="139,-41 139,-58 230,-58 230,-41 139,-41"/>
<text text-anchor="start" x="175" y="-47" font-family="Helvetica,sans-Serif" font-size="10.00" fill="#ffffff">OBJECT ◉</text>
<polygon fill="#4b847b" stroke="none" points="139,-24 139,-41 230,-41 230,-24 139,-24"/>
<polygon fill="none" stroke="#38635c" points="139,-24 139,-41 230,-41 230,-24 139,-24"/>
<text text-anchor="start" x="180" y="-30" font-family="Helvetica,sans-Serif" font-size="10.00" fill="#ffffff">ARRAY ◉</text>
</g>
<!-- oauth&#45;&gt;twitter -->
<g id="edge1" class="edge"><title>oauth:OUT_TOKEN:e&#45;&gt;twitter:IN_TOKEN:w</title>
<path fill="none" stroke="#ce2f86" stroke-width="2" d="M75,-156C110.717,-156 101.643,-105.213 133.861,-101.245"/>
<ellipse fill="#ce2f86" stroke="#ce2f86" stroke-width="2" cx="136.003" cy="-101.118" rx="2" ry="2"/>
</g>
<!-- console -->
<g id="node5" class="node"><title>console</title>
<polygon fill="#471ca4" stroke="none" points="282,-50 282,-79 336,-79 336,-50 282,-50"/>
<polygon fill="none" stroke="#1d0b45" points="282,-50 282,-79 336,-79 336,-50 282,-50"/>
<text text-anchor="start" x="285.5" y="-65.3" font-family="Helvetica,sans-Serif" font-size="14.00" fill="#ffffff">console</text>
<text text-anchor="start" x="295" y="-56.1" font-family="Helvetica,sans-Serif" font-size="8.00" fill="#ffffff">console</text>
<polygon fill="#35157b" stroke="none" points="282,-33 282,-50 336,-50 336,-33 282,-33"/>
<polygon fill="none" stroke="#1d0b45" points="282,-33 282,-50 336,-50 336,-33 282,-33"/>
<text text-anchor="start" x="285" y="-39" font-family="Helvetica,sans-Serif" font-size="10.00" fill="#ffffff">◎ IN</text>
</g>
<!-- twitter&#45;&gt;console -->
<g id="edge4" class="edge"><title>twitter:OUT_OBJECT:e&#45;&gt;console:IN_IN:w</title>
<path fill="none" stroke="#409a0e" stroke-width="2" d="M231,-49C252.098,-49 257.803,-41.9688 276.977,-41.0898"/>
<ellipse fill="#409a0e" stroke="#409a0e" stroke-width="2" cx="279" cy="-41.0447" rx="2" ry="2"/>
</g>
<!-- twitter&#45;&gt;console -->
<g id="edge5" class="edge"><title>twitter:OUT_ARRAY:e&#45;&gt;console:IN_IN:w</title>
<path fill="none" stroke="#64d8e8" stroke-width="2" d="M231,-32C252.168,-32 257.746,-39.9102 276.966,-40.8989"/>
<ellipse fill="#64d8e8" stroke="#64d8e8" stroke-width="2" cx="279.001" cy="-40.9499" rx="2" ry="2"/>
</g>
<!-- string -->
<g id="node3" class="node"><title>string</title>
<polygon fill="#22960c" stroke="none" points="13,-93 13,-122 81,-122 81,-93 13,-93"/>
<polygon fill="none" stroke="#0d3f04" points="13,-93 13,-122 81,-122 81,-93 13,-93"/>
<text text-anchor="start" x="30" y="-108.3" font-family="Helvetica,sans-Serif" font-size="14.00" fill="#ffffff">string</text>
<text text-anchor="start" x="16.5" y="-99.1" font-family="Helvetica,sans-Serif" font-size="8.00" fill="#ffffff">http&#45;server/string</text>
<polygon fill="#125406" stroke="none" points="13,-76 13,-93 81,-93 81,-76 13,-76"/>
<polygon fill="none" stroke="#0d3f04" points="13,-76 13,-93 81,-93 81,-76 13,-76"/>
<text text-anchor="start" x="45" y="-82" font-family="Helvetica,sans-Serif" font-size="10.00" fill="#ffffff">OUT ◉</text>
</g>
<!-- string&#45;&gt;twitter -->
<g id="edge2" class="edge"><title>string:OUT_OUT:e&#45;&gt;twitter:IN_TWEET:w</title>
<path fill="none" stroke="#2f50e8" stroke-width="2" d="M82,-84C105.431,-84 112.318,-84 133.81,-84"/>
<ellipse fill="#2f50e8" stroke="#2f50e8" stroke-width="2" cx="136" cy="-84" rx="2" ry="2"/>
</g>
<!-- bool -->
<g id="node4" class="node"><title>bool</title>
<polygon fill="#22960c" stroke="none" points="9,-21 9,-50 86,-50 86,-21 9,-21"/>
<polygon fill="none" stroke="#0d3f04" points="9,-21 9,-50 86,-50 86,-21 9,-21"/>
<text text-anchor="start" x="34.5" y="-36.3" font-family="Helvetica,sans-Serif" font-size="14.00" fill="#ffffff">bool</text>
<text text-anchor="start" x="12.5" y="-27.1" font-family="Helvetica,sans-Serif" font-size="8.00" fill="#ffffff">http&#45;server/boolean</text>
<polygon fill="#125406" stroke="none" points="9,-4 9,-21 86,-21 86,-4 9,-4"/>
<polygon fill="none" stroke="#0d3f04" points="9,-4 9,-21 86,-21 86,-4 9,-4"/>
<text text-anchor="start" x="50" y="-10" font-family="Helvetica,sans-Serif" font-size="10.00" fill="#ffffff">OUT ◉</text>
</g>
<!-- bool&#45;&gt;twitter -->
<g id="edge3" class="edge"><title>bool:OUT_OUT:e&#45;&gt;twitter:IN_GET_TIMELINE:w</title>
<path fill="none" stroke="#76650a" stroke-width="2" d="M87,-12C118.593,-12 106.191,-61.4591 134.003,-65.7095"/>
<ellipse fill="#76650a" stroke="#76650a" stroke-width="2" cx="136.005" cy="-65.855" rx="2" ry="2"/>
</g>
</g>
</svg>
