<?xml version="1.0" encoding="UTF-8" standalone="no"?>
<!DOCTYPE svg PUBLIC "-//W3C//DTD SVG 1.1//EN"
 "http://www.w3.org/Graphics/SVG/1.1/DTD/svg11.dtd">
<!-- Generated by graphviz version 2.36.0 (20140111.2315)
 -->
<!-- Title: fbp Pages: 1 -->
<svg width="978pt" height="444pt"
 viewBox="0.00 0.00 978.00 444.35" xmlns="http://www.w3.org/2000/svg" xmlns:xlink="http://www.w3.org/1999/xlink">
<g id="graph0" class="graph" transform="scale(1 1) rotate(0) translate(4 440.354)">
<title>fbp</title>
<polygon fill="white" stroke="none" points="-4,4 -4,-440.354 974,-440.354 974,4 -4,4"/>
<!-- lcd -->
<g id="node1" class="node"><title>lcd</title>
<polygon fill="#c93a30" stroke="none" points="583,-133.354 583,-162.354 612,-162.354 612,-133.354 583,-133.354"/>
<polygon fill="none" stroke="#541814" points="583,-133.354 583,-162.354 612,-162.354 612,-133.354 583,-133.354"/>
<text text-anchor="start" x="588.5" y="-148.654" font-family="Helvetica,sans-Serif" font-size="14.00" fill="#ffffff">lcd</text>
<text text-anchor="start" x="589" y="-139.454" font-family="Helvetica,sans-Serif" font-size="8.00" fill="#ffffff">LCD</text>
<polygon fill="#962b24" stroke="none" points="583,-116.354 583,-133.354 612,-133.354 612,-116.354 583,-116.354"/>
<polygon fill="none" stroke="#541814" points="583,-116.354 583,-133.354 612,-133.354 612,-116.354 583,-116.354"/>
<text text-anchor="start" x="586" y="-122.354" font-family="Helvetica,sans-Serif" font-size="10.00" fill="#ffffff">◎ IN</text>
</g>
<!-- next -->
<g id="node2" class="node"><title>next</title>
<polygon fill="#76315e" stroke="none" points="10,-163.354 10,-192.354 50,-192.354 50,-163.354 10,-163.354"/>
<polygon fill="none" stroke="#311427" points="10,-163.354 10,-192.354 50,-192.354 50,-163.354 10,-163.354"/>
<text text-anchor="start" x="17" y="-178.654" font-family="Helvetica,sans-Serif" font-size="14.00" fill="#ffffff">next</text>
<text text-anchor="start" x="15.5" y="-169.454" font-family="Helvetica,sans-Serif" font-size="8.00" fill="#ffffff">BtnNext</text>
<polygon fill="#421b34" stroke="none" points="10,-146.354 10,-163.354 50,-163.354 50,-146.354 10,-146.354"/>
<polygon fill="none" stroke="#311427" points="10,-146.354 10,-163.354 50,-163.354 50,-146.354 10,-146.354"/>
<text text-anchor="start" x="14" y="-152.354" font-family="Helvetica,sans-Serif" font-size="10.00" fill="#ffffff">OUT ◉</text>
</g>
<!-- #anon:51:27 -->
<g id="node12" class="node"><title>#anon:51:27</title>
<polygon fill="#bd648a" stroke="none" points="105,-163.354 105,-185.354 278,-185.354 278,-163.354 105,-163.354"/>
<polygon fill="none" stroke="#4e2a39" points="105,-163.354 105,-185.354 278,-185.354 278,-163.354 105,-163.354"/>
<text text-anchor="start" x="108.5" y="-170.654" font-family="Helvetica,sans-Serif" font-size="14.00" fill="#000000">converter/boolean&#45;to&#45;empty</text>
<polygon fill="#8d4b67" stroke="none" points="105,-146.354 105,-163.354 278,-163.354 278,-146.354 105,-146.354"/>
<polygon fill="none" stroke="#4e2a39" points="105,-146.354 105,-163.354 278,-163.354 278,-146.354 105,-146.354"/>
<text text-anchor="start" x="108" y="-152.354" font-family="Helvetica,sans-Serif" font-size="10.00" fill="#ffffff">◎ PULSE_IF_TRUE</text>
<polygon fill="#69384d" stroke="none" points="105,-129.354 105,-146.354 278,-146.354 278,-129.354 105,-129.354"/>
<polygon fill="none" stroke="#4e2a39" points="105,-129.354 105,-146.354 278,-146.354 278,-129.354 105,-129.354"/>
<text text-anchor="start" x="242" y="-135.354" font-family="Helvetica,sans-Serif" font-size="10.00" fill="#ffffff">OUT ◉</text>
</g>
<!-- next&#45;&gt;#anon:51:27 -->
<g id="edge8" class="edge"><title>next:OUT_OUT:e&#45;&gt;#anon:51:27:IN_PULSE_IF_TRUE:w</title>
<path fill="none" stroke="#5c7746" stroke-width="2" d="M51,-154.354C73.0833,-154.354 79.6393,-154.354 99.7817,-154.354"/>
<ellipse fill="#5c7746" stroke="#5c7746" stroke-width="2" cx="102" cy="-154.354" rx="2" ry="2"/>
</g>
<!-- select -->
<g id="node3" class="node"><title>select</title>
<polygon fill="#41df88" stroke="none" points="9,-81.3538 9,-110.354 52,-110.354 52,-81.3538 9,-81.3538"/>
<polygon fill="none" stroke="#1b5d39" points="9,-81.3538 9,-110.354 52,-110.354 52,-81.3538 9,-81.3538"/>
<text text-anchor="start" x="12.5" y="-96.6538" font-family="Helvetica,sans-Serif" font-size="14.00" fill="#000000">select</text>
<text text-anchor="start" x="13.5" y="-87.4538" font-family="Helvetica,sans-Serif" font-size="8.00" fill="#000000">BtnSelect</text>
<polygon fill="#247d4c" stroke="none" points="9,-64.3538 9,-81.3538 52,-81.3538 52,-64.3538 9,-64.3538"/>
<polygon fill="none" stroke="#1b5d39" points="9,-64.3538 9,-81.3538 52,-81.3538 52,-64.3538 9,-64.3538"/>
<text text-anchor="start" x="16" y="-70.3538" font-family="Helvetica,sans-Serif" font-size="10.00" fill="#ffffff">OUT ◉</text>
</g>
<!-- #anon:52:29 -->
<g id="node13" class="node"><title>#anon:52:29</title>
<polygon fill="#bd648a" stroke="none" points="105,-81.3538 105,-103.354 278,-103.354 278,-81.3538 105,-81.3538"/>
<polygon fill="none" stroke="#4e2a39" points="105,-81.3538 105,-103.354 278,-103.354 278,-81.3538 105,-81.3538"/>
<text text-anchor="start" x="108.5" y="-88.6538" font-family="Helvetica,sans-Serif" font-size="14.00" fill="#000000">converter/boolean&#45;to&#45;empty</text>
<polygon fill="#8d4b67" stroke="none" points="105,-64.3538 105,-81.3538 278,-81.3538 278,-64.3538 105,-64.3538"/>
<polygon fill="none" stroke="#4e2a39" points="105,-64.3538 105,-81.3538 278,-81.3538 278,-64.3538 105,-64.3538"/>
<text text-anchor="start" x="108" y="-70.3538" font-family="Helvetica,sans-Serif" font-size="10.00" fill="#ffffff">◎ PULSE_IF_TRUE</text>
<polygon fill="#69384d" stroke="none" points="105,-47.3538 105,-64.3538 278,-64.3538 278,-47.3538 105,-47.3538"/>
<polygon fill="none" stroke="#4e2a39" points="105,-47.3538 105,-64.3538 278,-64.3538 278,-47.3538 105,-47.3538"/>
<text text-anchor="start" x="242" y="-53.3538" font-family="Helvetica,sans-Serif" font-size="10.00" fill="#ffffff">OUT ◉</text>
</g>
<!-- select&#45;&gt;#anon:52:29 -->
<g id="edge10" class="edge"><title>select:OUT_OUT:e&#45;&gt;#anon:52:29:IN_PULSE_IF_TRUE:w</title>
<path fill="none" stroke="#24e31a" stroke-width="2" d="M53,-72.3538C74.25,-72.3538 80.5586,-72.3538 99.9409,-72.3538"/>
<ellipse fill="#24e31a" stroke="#24e31a" stroke-width="2" cx="102" cy="-72.3539" rx="2" ry="2"/>
</g>
<!-- light_button -->
<g id="node4" class="node"><title>light_button</title>
<polygon fill="#4ccb5c" stroke="none" points="153,-292.354 153,-321.354 230,-321.354 230,-292.354 153,-292.354"/>
<polygon fill="none" stroke="#1f5526" points="153,-292.354 153,-321.354 230,-321.354 230,-292.354 153,-292.354"/>
<text text-anchor="start" x="156.5" y="-307.654" font-family="Helvetica,sans-Serif" font-size="14.00" fill="#000000">light_button</text>
<text text-anchor="start" x="176.5" y="-298.454" font-family="Helvetica,sans-Serif" font-size="8.00" fill="#000000">BtnLight</text>
<polygon fill="#2a7233" stroke="none" points="153,-275.354 153,-292.354 230,-292.354 230,-275.354 153,-275.354"/>
<polygon fill="none" stroke="#1f5526" points="153,-275.354 153,-292.354 230,-292.354 230,-275.354 153,-275.354"/>
<text text-anchor="start" x="194" y="-281.354" font-family="Helvetica,sans-Serif" font-size="10.00" fill="#ffffff">OUT ◉</text>
</g>
<!-- #anon:54:35 -->
<g id="node14" class="node"><title>#anon:54:35</title>
<polygon fill="#bd648a" stroke="none" points="331,-292.354 331,-314.354 504,-314.354 504,-292.354 331,-292.354"/>
<polygon fill="none" stroke="#4e2a39" points="331,-292.354 331,-314.354 504,-314.354 504,-292.354 331,-292.354"/>
<text text-anchor="start" x="334.5" y="-299.654" font-family="Helvetica,sans-Serif" font-size="14.00" fill="#000000">converter/boolean&#45;to&#45;empty</text>
<polygon fill="#8d4b67" stroke="none" points="331,-275.354 331,-292.354 504,-292.354 504,-275.354 331,-275.354"/>
<polygon fill="none" stroke="#4e2a39" points="331,-275.354 331,-292.354 504,-292.354 504,-275.354 331,-275.354"/>
<text text-anchor="start" x="334" y="-281.354" font-family="Helvetica,sans-Serif" font-size="10.00" fill="#ffffff">◎ PULSE_IF_TRUE</text>
<polygon fill="#69384d" stroke="none" points="331,-258.354 331,-275.354 504,-275.354 504,-258.354 331,-258.354"/>
<polygon fill="none" stroke="#4e2a39" points="331,-258.354 331,-275.354 504,-275.354 504,-258.354 331,-258.354"/>
<text text-anchor="start" x="468" y="-264.354" font-family="Helvetica,sans-Serif" font-size="10.00" fill="#ffffff">OUT ◉</text>
</g>
<!-- light_button&#45;&gt;#anon:54:35 -->
<g id="edge13" class="edge"><title>light_button:OUT_OUT:e&#45;&gt;#anon:54:35:IN_PULSE_IF_TRUE:w</title>
<path fill="none" stroke="#4d2d52" stroke-width="2" d="M231,-283.354C273.625,-283.354 285.28,-283.354 325.97,-283.354"/>
<ellipse fill="#4d2d52" stroke="#4d2d52" stroke-width="2" cx="328" cy="-283.354" rx="2" ry="2"/>
</g>
<!-- status -->
<g id="node5" class="node"><title>status</title>
<polygon fill="#07e58a" stroke="none" points="916,-299.354 916,-328.354 962,-328.354 962,-299.354 916,-299.354"/>
<polygon fill="none" stroke="#026039" points="916,-299.354 916,-328.354 962,-328.354 962,-299.354 916,-299.354"/>
<text text-anchor="start" x="920.5" y="-314.654" font-family="Helvetica,sans-Serif" font-size="14.00" fill="#000000">status</text>
<text text-anchor="start" x="919.5" y="-305.454" font-family="Helvetica,sans-Serif" font-size="8.00" fill="#000000">LEDStatus</text>
<polygon fill="#05ab67" stroke="none" points="916,-282.354 916,-299.354 962,-299.354 962,-282.354 916,-282.354"/>
<polygon fill="none" stroke="#026039" points="916,-282.354 916,-299.354 962,-299.354 962,-282.354 916,-282.354"/>
<text text-anchor="start" x="919" y="-288.354" font-family="Helvetica,sans-Serif" font-size="10.00" fill="#ffffff">◎ IN</text>
</g>
<!-- #anon:38:1 -->
<g id="node6" class="node"><title>#anon:38:1</title>
<polygon fill="#e8ea7a" stroke="none" points="722,-410.354 722,-432.354 832,-432.354 832,-410.354 722,-410.354"/>
<polygon fill="none" stroke="#616233" points="722,-410.354 722,-432.354 832,-432.354 832,-410.354 722,-410.354"/>
<text text-anchor="start" x="725.5" y="-417.654" font-family="Helvetica,sans-Serif" font-size="14.00" fill="#000000">constant/boolean</text>
<polygon fill="#828344" stroke="none" points="722,-393.354 722,-410.354 832,-410.354 832,-393.354 722,-393.354"/>
<polygon fill="none" stroke="#616233" points="722,-393.354 722,-410.354 832,-410.354 832,-393.354 722,-393.354"/>
<text text-anchor="start" x="796" y="-399.354" font-family="Helvetica,sans-Serif" font-size="10.00" fill="#ffffff">OUT ◉</text>
</g>
<!-- #anon:38:1&#45;&gt;status -->
<g id="edge1" class="edge"><title>#anon:38:1:OUT_OUT:e&#45;&gt;status:IN_IN:w</title>
<path fill="none" stroke="#3949f5" stroke-width="2" d="M833,-401.354C852.686,-401.354 858.419,-394.606 872,-380.354 901.507,-349.389 872.836,-294.393 910.601,-290.565"/>
<ellipse fill="#3949f5" stroke="#3949f5" stroke-width="2" cx="913.002" cy="-290.45" rx="2" ry="2"/>
</g>
<!-- wait -->
<g id="node7" class="node"><title>wait</title>
<polygon fill="#e8ea7a" stroke="none" points="388,-203.354 388,-232.354 447,-232.354 447,-203.354 388,-203.354"/>
<polygon fill="none" stroke="#616233" points="388,-203.354 388,-232.354 447,-232.354 447,-203.354 388,-203.354"/>
<text text-anchor="start" x="405" y="-218.654" font-family="Helvetica,sans-Serif" font-size="14.00" fill="#000000">wait</text>
<text text-anchor="start" x="391.5" y="-209.454" font-family="Helvetica,sans-Serif" font-size="8.00" fill="#000000">constant/string</text>
<polygon fill="#828344" stroke="none" points="388,-186.354 388,-203.354 447,-203.354 447,-186.354 388,-186.354"/>
<polygon fill="none" stroke="#616233" points="388,-186.354 388,-203.354 447,-203.354 447,-186.354 388,-186.354"/>
<text text-anchor="start" x="411" y="-192.354" font-family="Helvetica,sans-Serif" font-size="10.00" fill="#ffffff">OUT ◉</text>
</g>
<!-- wait&#45;&gt;lcd -->
<g id="edge2" class="edge"><title>wait:OUT_OUT:e&#45;&gt;lcd:IN_IN:w</title>
<path fill="none" stroke="#649a12" stroke-width="2" d="M448,-194.354C478.078,-194.354 485.13,-185.871 512,-172.354 544.383,-156.064 544.335,-126.758 577.754,-124.493"/>
<ellipse fill="#649a12" stroke="#649a12" stroke-width="2" cx="580.001" cy="-124.419" rx="2" ry="2"/>
</g>
<!-- light -->
<g id="node8" class="node"><title>light</title>
<polygon fill="#066c96" stroke="none" points="741,-256.354 741,-285.354 814,-285.354 814,-256.354 741,-256.354"/>
<polygon fill="none" stroke="#022d3f" points="741,-256.354 741,-285.354 814,-285.354 814,-256.354 741,-256.354"/>
<text text-anchor="start" x="765" y="-271.654" font-family="Helvetica,sans-Serif" font-size="14.00" fill="#ffffff">light</text>
<text text-anchor="start" x="753.5" y="-262.454" font-family="Helvetica,sans-Serif" font-size="8.00" fill="#ffffff">oic/client&#45;light</text>
<polygon fill="#045170" stroke="none" points="741,-239.354 741,-256.354 814,-256.354 814,-239.354 741,-239.354"/>
<polygon fill="none" stroke="#022d3f" points="741,-239.354 741,-256.354 814,-256.354 814,-239.354 741,-239.354"/>
<text text-anchor="start" x="744" y="-245.354" font-family="Helvetica,sans-Serif" font-size="10.00" fill="#ffffff">◎ SCAN</text>
<polygon fill="#045170" stroke="none" points="741,-222.354 741,-239.354 814,-239.354 814,-222.354 741,-222.354"/>
<polygon fill="none" stroke="#022d3f" points="741,-222.354 741,-239.354 814,-239.354 814,-222.354 741,-222.354"/>
<text text-anchor="start" x="744" y="-228.354" font-family="Helvetica,sans-Serif" font-size="10.00" fill="#ffffff">◎ STATE</text>
<polygon fill="#045170" stroke="none" points="741,-205.354 741,-222.354 814,-222.354 814,-205.354 741,-205.354"/>
<polygon fill="none" stroke="#022d3f" points="741,-205.354 741,-222.354 814,-222.354 814,-205.354 741,-205.354"/>
<text text-anchor="start" x="744" y="-211.354" font-family="Helvetica,sans-Serif" font-size="10.00" fill="#ffffff">◎ DEVICE_ID</text>
<polygon fill="#033c54" stroke="none" points="741,-188.354 741,-205.354 814,-205.354 814,-188.354 741,-188.354"/>
<polygon fill="none" stroke="#022d3f" points="741,-188.354 741,-205.354 814,-205.354 814,-188.354 741,-188.354"/>
<text text-anchor="start" x="745" y="-194.354" font-family="Helvetica,sans-Serif" font-size="10.00" fill="#ffffff">DEVICE_ID ◉</text>
<polygon fill="#033c54" stroke="none" points="741,-171.354 741,-188.354 814,-188.354 814,-171.354 741,-171.354"/>
<polygon fill="none" stroke="#022d3f" points="741,-171.354 741,-188.354 814,-188.354 814,-171.354 741,-171.354"/>
<text text-anchor="start" x="767" y="-177.354" font-family="Helvetica,sans-Serif" font-size="10.00" fill="#ffffff">STATE ◉</text>
</g>
<!-- light&#45;&gt;status -->
<g id="edge12" class="edge"><title>light:OUT_STATE:e&#45;&gt;status:IN_IN:w</title>
<path fill="none" stroke="#774f30" stroke-width="2" d="M815,-179.354C879.974,-179.354 849.963,-285.636 910.856,-290.202"/>
<ellipse fill="#774f30" stroke="#774f30" stroke-width="2" cx="913.001" cy="-290.281" rx="2" ry="2"/>
</g>
<!-- light_selector -->
<g id="node9" class="node"><title>light_selector</title>
<polygon fill="#31ef62" stroke="none" points="374,-130.354 374,-159.354 461,-159.354 461,-130.354 374,-130.354"/>
<polygon fill="none" stroke="#146428" points="374,-130.354 374,-159.354 461,-159.354 461,-130.354 374,-130.354"/>
<text text-anchor="start" x="377.5" y="-145.654" font-family="Helvetica,sans-Serif" font-size="14.00" fill="#000000">light_selector</text>
<text text-anchor="start" x="394" y="-136.454" font-family="Helvetica,sans-Serif" font-size="8.00" fill="#000000">form/selector</text>
<polygon fill="#24b349" stroke="none" points="374,-113.354 374,-130.354 461,-130.354 461,-113.354 374,-113.354"/>
<polygon fill="none" stroke="#146428" points="374,-113.354 374,-130.354 461,-130.354 461,-113.354 374,-113.354"/>
<text text-anchor="start" x="377" y="-119.354" font-family="Helvetica,sans-Serif" font-size="10.00" fill="#ffffff">◎ ADD_ITEM</text>
<polygon fill="#24b349" stroke="none" points="374,-96.3538 374,-113.354 461,-113.354 461,-96.3538 374,-96.3538"/>
<polygon fill="none" stroke="#146428" points="374,-96.3538 374,-113.354 461,-113.354 461,-96.3538 374,-96.3538"/>
<text text-anchor="start" x="377" y="-102.354" font-family="Helvetica,sans-Serif" font-size="10.00" fill="#ffffff">◎ NEXT</text>
<polygon fill="#24b349" stroke="none" points="374,-79.3538 374,-96.3538 461,-96.3538 461,-79.3538 374,-79.3538"/>
<polygon fill="none" stroke="#146428" points="374,-79.3538 374,-96.3538 461,-96.3538 461,-79.3538 374,-79.3538"/>
<text text-anchor="start" x="377" y="-85.3538" font-family="Helvetica,sans-Serif" font-size="10.00" fill="#ffffff">◎ SELECT</text>
<polygon fill="#24b349" stroke="none" points="374,-62.3538 374,-79.3538 461,-79.3538 461,-62.3538 374,-62.3538"/>
<polygon fill="none" stroke="#146428" points="374,-62.3538 374,-79.3538 461,-79.3538 461,-62.3538 374,-62.3538"/>
<text text-anchor="start" x="377" y="-68.3538" font-family="Helvetica,sans-Serif" font-size="10.00" fill="#ffffff">◎ SELECTED</text>
<polygon fill="#1b8636" stroke="none" points="374,-45.3538 374,-62.3538 461,-62.3538 461,-45.3538 374,-45.3538"/>
<polygon fill="none" stroke="#146428" points="374,-45.3538 374,-62.3538 461,-62.3538 461,-45.3538 374,-45.3538"/>
<text text-anchor="start" x="408" y="-51.3538" font-family="Helvetica,sans-Serif" font-size="10.00" fill="#ffffff">STRING ◉</text>
<polygon fill="#1b8636" stroke="none" points="374,-28.3538 374,-45.3538 461,-45.3538 461,-28.3538 374,-28.3538"/>
<polygon fill="none" stroke="#146428" points="374,-28.3538 374,-45.3538 461,-45.3538 461,-28.3538 374,-28.3538"/>
<text text-anchor="start" x="393" y="-34.3538" font-family="Helvetica,sans-Serif" font-size="10.00" fill="#ffffff">SELECTED ◉</text>
</g>
<!-- light&#45;&gt;light_selector -->
<g id="edge4" class="edge"><title>light:OUT_DEVICE_ID:e&#45;&gt;light_selector:IN_ADD_ITEM:w</title>
<path fill="none" stroke="#e66684" stroke-width="2" d="M815,-196.354C827.897,-196.354 823.275,-176.315 814,-167.354 787.79,-142.032 768.405,-165.664 732,-167.354 693.654,-169.134 684.346,-173.574 646,-175.354 602.491,-177.373 591.53,-176.853 548,-175.354 545.579,-175.27 375.674,-165.104 374,-163.354 362.484,-151.314 355.956,-127.028 368.839,-122.943"/>
<ellipse fill="#e66684" stroke="#e66684" stroke-width="2" cx="371.02" cy="-122.634" rx="2.00001" ry="2.00001"/>
</g>
<!-- light_selector&#45;&gt;lcd -->
<g id="edge5" class="edge"><title>light_selector:OUT_STRING:e&#45;&gt;lcd:IN_IN:w</title>
<path fill="none" stroke="#43779b" stroke-width="2" d="M462,-53.3538C522.517,-53.3538 520.179,-121.065 577.75,-124.239"/>
<ellipse fill="#43779b" stroke="#43779b" stroke-width="2" cx="580.001" cy="-124.3" rx="2" ry="2"/>
</g>
<!-- persistence -->
<g id="node16" class="node"><title>persistence</title>
<polygon fill="#f0ca58" stroke="none" points="557,-60.3538 557,-89.3538 638,-89.3538 638,-60.3538 557,-60.3538"/>
<polygon fill="none" stroke="#655424" points="557,-60.3538 557,-89.3538 638,-89.3538 638,-60.3538 557,-60.3538"/>
<text text-anchor="start" x="562.5" y="-75.6538" font-family="Helvetica,sans-Serif" font-size="14.00" fill="#000000">persistence</text>
<text text-anchor="start" x="560.5" y="-66.4538" font-family="Helvetica,sans-Serif" font-size="8.00" fill="#000000">DeviceIDPersistence</text>
<polygon fill="#b49742" stroke="none" points="557,-43.3538 557,-60.3538 638,-60.3538 638,-43.3538 557,-43.3538"/>
<polygon fill="none" stroke="#655424" points="557,-43.3538 557,-60.3538 638,-60.3538 638,-43.3538 557,-43.3538"/>
<text text-anchor="start" x="560" y="-49.3538" font-family="Helvetica,sans-Serif" font-size="10.00" fill="#000000">◎ IN</text>
<polygon fill="#877131" stroke="none" points="557,-26.3538 557,-43.3538 638,-43.3538 638,-26.3538 557,-26.3538"/>
<polygon fill="none" stroke="#655424" points="557,-26.3538 557,-43.3538 638,-43.3538 638,-26.3538 557,-26.3538"/>
<text text-anchor="start" x="602" y="-32.3538" font-family="Helvetica,sans-Serif" font-size="10.00" fill="#ffffff">OUT ◉</text>
</g>
<!-- light_selector&#45;&gt;persistence -->
<g id="edge16" class="edge"><title>light_selector:OUT_SELECTED:e&#45;&gt;persistence:IN_IN:w</title>
<path fill="none" stroke="#d9139c" stroke-width="2" d="M462,-36.3538C502.819,-36.3538 512.993,-50.3177 551.657,-51.2995"/>
<ellipse fill="#d9139c" stroke="#d9139c" stroke-width="2" cx="554" cy="-51.3288" rx="2" ry="2"/>
</g>
<!-- scan -->
<g id="node10" class="node"><title>scan</title>
<polygon fill="#7f2fae" stroke="none" points="564,-349.354 564,-378.354 630,-378.354 630,-349.354 564,-349.354"/>
<polygon fill="none" stroke="#351348" points="564,-349.354 564,-378.354 630,-378.354 630,-349.354 564,-349.354"/>
<text text-anchor="start" x="568.5" y="-364.654" font-family="Helvetica,sans-Serif" font-size="14.00" fill="#ffffff">🕐 Timer</text>
<text text-anchor="start" x="587.5" y="-355.454" font-family="Helvetica,sans-Serif" font-size="8.00" fill="#ffffff">timer</text>
<polygon fill="#5f2382" stroke="none" points="564,-332.354 564,-349.354 630,-349.354 630,-332.354 564,-332.354"/>
<polygon fill="none" stroke="#351348" points="564,-332.354 564,-349.354 630,-349.354 630,-332.354 564,-332.354"/>
<text text-anchor="start" x="567" y="-338.354" font-family="Helvetica,sans-Serif" font-size="10.00" fill="#ffffff">◎ ENABLED</text>
<polygon fill="#471a61" stroke="none" points="564,-315.354 564,-332.354 630,-332.354 630,-315.354 564,-315.354"/>
<polygon fill="none" stroke="#351348" points="564,-315.354 564,-332.354 630,-332.354 630,-315.354 564,-315.354"/>
<text text-anchor="start" x="594" y="-321.354" font-family="Helvetica,sans-Serif" font-size="10.00" fill="#ffffff">OUT ◉</text>
</g>
<!-- scan&#45;&gt;light -->
<g id="edge3" class="edge"><title>scan:OUT_OUT:e&#45;&gt;light:IN_SCAN:w</title>
<path fill="none" stroke="#36992c" stroke-width="2" d="M631,-323.354C688.426,-323.354 681.562,-251.828 735.975,-248.475"/>
<ellipse fill="#36992c" stroke="#36992c" stroke-width="2" cx="738.001" cy="-248.414" rx="2" ry="2"/>
</g>
<!-- #anon:49:16 -->
<g id="node11" class="node"><title>#anon:49:16</title>
<polygon fill="#bd648a" stroke="none" points="691,-345.354 691,-367.354 864,-367.354 864,-345.354 691,-345.354"/>
<polygon fill="none" stroke="#4e2a39" points="691,-345.354 691,-367.354 864,-367.354 864,-345.354 691,-345.354"/>
<text text-anchor="start" x="694.5" y="-352.654" font-family="Helvetica,sans-Serif" font-size="14.00" fill="#000000">converter/empty&#45;to&#45;boolean</text>
<polygon fill="#8d4b67" stroke="none" points="691,-328.354 691,-345.354 864,-345.354 864,-328.354 691,-328.354"/>
<polygon fill="none" stroke="#4e2a39" points="691,-328.354 691,-345.354 864,-345.354 864,-328.354 691,-328.354"/>
<text text-anchor="start" x="694" y="-334.354" font-family="Helvetica,sans-Serif" font-size="10.00" fill="#ffffff">◎ IN</text>
<polygon fill="#69384d" stroke="none" points="691,-311.354 691,-328.354 864,-328.354 864,-311.354 691,-311.354"/>
<polygon fill="none" stroke="#4e2a39" points="691,-311.354 691,-328.354 864,-328.354 864,-311.354 691,-311.354"/>
<text text-anchor="start" x="828" y="-317.354" font-family="Helvetica,sans-Serif" font-size="10.00" fill="#ffffff">OUT ◉</text>
</g>
<!-- scan&#45;&gt;#anon:49:16 -->
<g id="edge6" class="edge"><title>scan:OUT_OUT:e&#45;&gt;#anon:49:16:IN_IN:w</title>
<path fill="none" stroke="#a64372" stroke-width="2" d="M631,-323.354C656.383,-323.354 662.505,-334.971 685.781,-336.241"/>
<ellipse fill="#a64372" stroke="#a64372" stroke-width="2" cx="688.001" cy="-336.301" rx="2" ry="2"/>
</g>
<!-- #anon:49:16&#45;&gt;scan -->
<g id="edge7" class="edge"><title>#anon:49:16:OUT_OUT:e&#45;&gt;scan:IN_ENABLED:w</title>
<path fill="none" stroke="#065949" stroke-width="2" d="M865,-319.354C870.352,-319.354 867.938,-310.978 864,-307.354 856.442,-300.399 570.762,-305.071 564,-311.854 556.17,-319.708 551.573,-335.638 559.037,-339.497"/>
<ellipse fill="#065949" stroke="#065949" stroke-width="2" cx="561.045" cy="-339.931" rx="2.00001" ry="2.00001"/>
</g>
<!-- #anon:51:27&#45;&gt;light_selector -->
<g id="edge9" class="edge"><title>#anon:51:27:OUT_OUT:e&#45;&gt;light_selector:IN_NEXT:w</title>
<path fill="none" stroke="#fe6006" stroke-width="2" d="M279,-137.354C321.753,-137.354 328.472,-107.323 368.973,-105.446"/>
<ellipse fill="#fe6006" stroke="#fe6006" stroke-width="2" cx="371.001" cy="-105.399" rx="2" ry="2"/>
</g>
<!-- #anon:52:29&#45;&gt;light_selector -->
<g id="edge11" class="edge"><title>#anon:52:29:OUT_OUT:e&#45;&gt;light_selector:IN_SELECT:w</title>
<path fill="none" stroke="#024d64" stroke-width="2" d="M279,-55.3538C321.753,-55.3538 328.472,-85.3851 368.973,-87.262"/>
<ellipse fill="#024d64" stroke="#024d64" stroke-width="2" cx="371.001" cy="-87.3082" rx="2" ry="2"/>
</g>
<!-- toggle -->
<g id="node15" class="node"><title>toggle</title>
<polygon fill="#184294" stroke="none" points="567,-260.354 567,-289.354 627,-289.354 627,-260.354 567,-260.354"/>
<polygon fill="none" stroke="#091b3e" points="567,-260.354 567,-289.354 627,-289.354 627,-260.354 567,-260.354"/>
<text text-anchor="start" x="578.5" y="-275.654" font-family="Helvetica,sans-Serif" font-size="14.00" fill="#ffffff">toggle</text>
<text text-anchor="start" x="570.5" y="-266.454" font-family="Helvetica,sans-Serif" font-size="8.00" fill="#ffffff">boolean/toggle</text>
<polygon fill="#12316f" stroke="none" points="567,-243.354 567,-260.354 627,-260.354 627,-243.354 567,-243.354"/>
<polygon fill="none" stroke="#091b3e" points="567,-243.354 567,-260.354 627,-260.354 627,-243.354 567,-243.354"/>
<text text-anchor="start" x="570" y="-249.354" font-family="Helvetica,sans-Serif" font-size="10.00" fill="#ffffff">◎ IN</text>
<polygon fill="#0d2453" stroke="none" points="567,-226.354 567,-243.354 627,-243.354 627,-226.354 567,-226.354"/>
<polygon fill="none" stroke="#091b3e" points="567,-226.354 567,-243.354 627,-243.354 627,-226.354 567,-226.354"/>
<text text-anchor="start" x="591" y="-232.354" font-family="Helvetica,sans-Serif" font-size="10.00" fill="#ffffff">OUT ◉</text>
</g>
<!-- #anon:54:35&#45;&gt;toggle -->
<g id="edge14" class="edge"><title>#anon:54:35:OUT_OUT:e&#45;&gt;toggle:IN_IN:w</title>
<path fill="none" stroke="#e816ce" stroke-width="2" d="M505,-266.354C531.501,-266.354 537.498,-252.839 561.917,-251.466"/>
<ellipse fill="#e816ce" stroke="#e816ce" stroke-width="2" cx="564.001" cy="-251.409" rx="2" ry="2"/>
</g>
<!-- toggle&#45;&gt;light -->
<g id="edge15" class="edge"><title>toggle:OUT_OUT:e&#45;&gt;light:IN_STATE:w</title>
<path fill="none" stroke="#69194e" stroke-width="2" d="M628,-234.354C676.434,-234.354 689.498,-231.516 735.998,-231.36"/>
<ellipse fill="#69194e" stroke="#69194e" stroke-width="2" cx="738" cy="-231.357" rx="2" ry="2"/>
</g>
<!-- persistence&#45;&gt;light -->
<g id="edge17" class="edge"><title>persistence:OUT_OUT:e&#45;&gt;light:IN_DEVICE_ID:w</title>
<path fill="none" stroke="#fe9d3e" stroke-width="2" d="M639,-34.3538C728.919,-34.3538 651.165,-207.804 735.844,-213.224"/>
<ellipse fill="#fe9d3e" stroke="#fe9d3e" stroke-width="2" cx="738.001" cy="-213.291" rx="2" ry="2"/>
</g>
<!-- persistence&#45;&gt;light_selector -->
<g id="edge18" class="edge"><title>persistence:OUT_OUT:e&#45;&gt;light_selector:IN_SELECTED:w</title>
<path fill="none" stroke="#6fad88" stroke-width="2" d="M639,-34.3538C644.13,-34.3538 641.782,-26.3209 638,-22.8538 608.516,4.17758 587.999,-22.6239 548,-22.8538 470.663,-23.2983 428.972,29.5454 374,-24.8538 360.746,-37.9699 353.889,-65.5715 368.746,-69.8042"/>
<ellipse fill="#6fad88" stroke="#6fad88" stroke-width="2" cx="371.016" cy="-70.0975" rx="2.00001" ry="2.00001"/>
</g>
</g>
</svg>
