<?xml version="1.0" encoding="UTF-8" standalone="no"?>
<!DOCTYPE svg PUBLIC "-//W3C//DTD SVG 1.1//EN"
 "http://www.w3.org/Graphics/SVG/1.1/DTD/svg11.dtd">
<!-- Generated by graphviz version 2.36.0 (20140111.2315)
 -->
<!-- Title: fbp Pages: 1 -->
<svg width="200pt" height="119pt"
 viewBox="0.00 0.00 200.00 119.00" xmlns="http://www.w3.org/2000/svg" xmlns:xlink="http://www.w3.org/1999/xlink">
<g id="graph0" class="graph" transform="scale(1 1) rotate(0) translate(4 115)">
<title>fbp</title>
<polygon fill="white" stroke="none" points="-4,4 -4,-115 196,-115 196,4 -4,4"/>
<!-- list -->
<g id="node1" class="node"><title>list</title>
<polygon fill="#255f7e" stroke="none" points="8,-61 8,-90 78,-90 78,-61 8,-61"/>
<polygon fill="none" stroke="#0f2734" points="8,-61 8,-90 78,-90 78,-61 8,-61"/>
<text text-anchor="start" x="34.5" y="-76.3" font-family="Helvetica,sans-Serif" font-size="14.00" fill="#ffffff">list</text>
<text text-anchor="start" x="12" y="-67.1" font-family="Helvetica,sans-Serif" font-size="8.00" fill="#ffffff">netctl/list&#45;services</text>
<polygon fill="#143546" stroke="none" points="8,-44 8,-61 78,-61 78,-44 8,-44"/>
<polygon fill="none" stroke="#0f2734" points="8,-44 8,-61 78,-61 78,-44 8,-44"/>
<text text-anchor="start" x="27" y="-50" font-family="Helvetica,sans-Serif" font-size="10.00" fill="#ffffff">ADDED ◉</text>
<polygon fill="#143546" stroke="none" points="8,-27 8,-44 78,-44 78,-27 8,-27"/>
<polygon fill="none" stroke="#0f2734" points="8,-27 8,-44 78,-44 78,-27 8,-27"/>
<text text-anchor="start" x="12" y="-33" font-family="Helvetica,sans-Serif" font-size="10.00" fill="#ffffff">REMOVED ◉</text>
</g>
<!-- #anon:26:18 -->
<g id="node2" class="node"><title>#anon:26:18</title>
<polygon fill="#471ca4" stroke="none" points="130,-85 130,-107 184,-107 184,-85 130,-85"/>
<polygon fill="none" stroke="#1d0b45" points="130,-85 130,-107 184,-107 184,-85 130,-85"/>
<text text-anchor="start" x="133.5" y="-92.3" font-family="Helvetica,sans-Serif" font-size="14.00" fill="#ffffff">console</text>
<polygon fill="#35157b" stroke="none" points="130,-68 130,-85 184,-85 184,-68 130,-68"/>
<polygon fill="none" stroke="#1d0b45" points="130,-68 130,-85 184,-85 184,-68 130,-68"/>
<text text-anchor="start" x="133" y="-74" font-family="Helvetica,sans-Serif" font-size="10.00" fill="#ffffff">◎ IN</text>
</g>
<!-- list&#45;&gt;#anon:26:18 -->
<g id="edge1" class="edge"><title>list:OUT_ADDED:e&#45;&gt;#anon:26:18:IN_IN:w</title>
<path fill="none" stroke="#266c60" stroke-width="2" d="M79,-52C102.205,-52 104.186,-73.2699 124.904,-75.7625"/>
<ellipse fill="#266c60" stroke="#266c60" stroke-width="2" cx="127.003" cy="-75.8842" rx="2" ry="2"/>
</g>
<!-- #anon:27:20 -->
<g id="node3" class="node"><title>#anon:27:20</title>
<polygon fill="#471ca4" stroke="none" points="130,-20 130,-42 184,-42 184,-20 130,-20"/>
<polygon fill="none" stroke="#1d0b45" points="130,-20 130,-42 184,-42 184,-20 130,-20"/>
<text text-anchor="start" x="133.5" y="-27.3" font-family="Helvetica,sans-Serif" font-size="14.00" fill="#ffffff">console</text>
<polygon fill="#35157b" stroke="none" points="130,-3 130,-20 184,-20 184,-3 130,-3"/>
<polygon fill="none" stroke="#1d0b45" points="130,-3 130,-20 184,-20 184,-3 130,-3"/>
<text text-anchor="start" x="133" y="-9" font-family="Helvetica,sans-Serif" font-size="10.00" fill="#ffffff">◎ IN</text>
</g>
<!-- list&#45;&gt;#anon:27:20 -->
<g id="edge2" class="edge"><title>list:OUT_REMOVED:e&#45;&gt;#anon:27:20:IN_IN:w</title>
<path fill="none" stroke="#768aa0" stroke-width="2" d="M79,-35C102.205,-35 104.186,-13.7301 124.904,-11.2375"/>
<ellipse fill="#768aa0" stroke="#768aa0" stroke-width="2" cx="127.003" cy="-11.1158" rx="2" ry="2"/>
</g>
</g>
</svg>
