<?xml version="1.0" encoding="UTF-8" standalone="no"?>
<!DOCTYPE svg PUBLIC "-//W3C//DTD SVG 1.1//EN"
 "http://www.w3.org/Graphics/SVG/1.1/DTD/svg11.dtd">
<!-- Generated by graphviz version 2.36.0 (20140111.2315)
 -->
<!-- Title: fbp Pages: 1 -->
<svg width="468pt" height="226pt"
 viewBox="0.00 0.00 468.00 226.00" xmlns="http://www.w3.org/2000/svg" xmlns:xlink="http://www.w3.org/1999/xlink">
<g id="graph0" class="graph" transform="scale(1 1) rotate(0) translate(4 222)">
<title>fbp</title>
<polygon fill="white" stroke="none" points="-4,4 -4,-222 464,-222 464,4 -4,4"/>
<!-- enable -->
<g id="node1" class="node"><title>enable</title>
<polygon fill="#4e2e10" stroke="none" points="8,-149 8,-178 64,-178 64,-149 8,-149"/>
<polygon fill="none" stroke="#201206" points="8,-149 8,-178 64,-178 64,-149 8,-149"/>
<text text-anchor="start" x="15.5" y="-164.3" font-family="Helvetica,sans-Serif" font-size="14.00" fill="#ffffff">enable</text>
<text text-anchor="start" x="20" y="-155.1" font-family="Helvetica,sans-Serif" font-size="8.00" fill="#ffffff">app/argv</text>
<polygon fill="#2b1909" stroke="none" points="8,-132 8,-149 64,-149 64,-132 8,-132"/>
<polygon fill="none" stroke="#201206" points="8,-132 8,-149 64,-149 64,-132 8,-132"/>
<text text-anchor="start" x="12" y="-138" font-family="Helvetica,sans-Serif" font-size="10.00" fill="#ffffff">ERROR ◉</text>
<polygon fill="#2b1909" stroke="none" points="8,-115 8,-132 64,-132 64,-115 8,-115"/>
<polygon fill="none" stroke="#201206" points="8,-115 8,-132 64,-132 64,-115 8,-115"/>
<text text-anchor="start" x="28" y="-121" font-family="Helvetica,sans-Serif" font-size="10.00" fill="#ffffff">OUT ◉</text>
</g>
<!-- error&#45;msg -->
<g id="node2" class="node"><title>error&#45;msg</title>
<polygon fill="#bd648a" stroke="none" points="119,-185 119,-214 217,-214 217,-185 119,-185"/>
<polygon fill="none" stroke="#4e2a39" points="119,-185 119,-214 217,-214 217,-185 119,-185"/>
<text text-anchor="start" x="138" y="-200.3" font-family="Helvetica,sans-Serif" font-size="14.00" fill="#000000">error&#45;msg</text>
<text text-anchor="start" x="122.5" y="-191.1" font-family="Helvetica,sans-Serif" font-size="8.00" fill="#000000">converter/empty&#45;to&#45;string</text>
<polygon fill="#8d4b67" stroke="none" points="119,-168 119,-185 217,-185 217,-168 119,-168"/>
<polygon fill="none" stroke="#4e2a39" points="119,-168 119,-185 217,-185 217,-168 119,-168"/>
<text text-anchor="start" x="122" y="-174" font-family="Helvetica,sans-Serif" font-size="10.00" fill="#ffffff">◎ IN</text>
<polygon fill="#69384d" stroke="none" points="119,-151 119,-168 217,-168 217,-151 119,-151"/>
<polygon fill="none" stroke="#4e2a39" points="119,-151 119,-168 217,-168 217,-151 119,-151"/>
<text text-anchor="start" x="181" y="-157" font-family="Helvetica,sans-Serif" font-size="10.00" fill="#ffffff">OUT ◉</text>
</g>
<!-- enable&#45;&gt;error&#45;msg -->
<g id="edge1" class="edge"><title>enable:OUT_ERROR:e&#45;&gt;error&#45;msg:IN_IN:w</title>
<path fill="none" stroke="#c53a62" stroke-width="2" d="M65,-140C92.0296,-140 89.842,-172.437 113.904,-175.731"/>
<ellipse fill="#c53a62" stroke="#c53a62" stroke-width="2" cx="116.004" cy="-175.869" rx="2" ry="2"/>
</g>
<!-- stob -->
<g id="node6" class="node"><title>stob</title>
<polygon fill="#bd648a" stroke="none" points="116,-96 116,-125 220,-125 220,-96 116,-96"/>
<polygon fill="none" stroke="#4e2a39" points="116,-96 116,-125 220,-125 220,-96 116,-96"/>
<text text-anchor="start" x="155" y="-111.3" font-family="Helvetica,sans-Serif" font-size="14.00" fill="#000000">stob</text>
<text text-anchor="start" x="119.5" y="-102.1" font-family="Helvetica,sans-Serif" font-size="8.00" fill="#000000">converter/string&#45;to&#45;boolean</text>
<polygon fill="#8d4b67" stroke="none" points="116,-79 116,-96 220,-96 220,-79 116,-79"/>
<polygon fill="none" stroke="#4e2a39" points="116,-79 116,-96 220,-96 220,-79 116,-79"/>
<text text-anchor="start" x="119" y="-85" font-family="Helvetica,sans-Serif" font-size="10.00" fill="#ffffff">◎ IN</text>
<polygon fill="#69384d" stroke="none" points="116,-62 116,-79 220,-79 220,-62 116,-62"/>
<polygon fill="none" stroke="#4e2a39" points="116,-62 116,-79 220,-79 220,-62 116,-62"/>
<text text-anchor="start" x="184" y="-68" font-family="Helvetica,sans-Serif" font-size="10.00" fill="#ffffff">OUT ◉</text>
</g>
<!-- enable&#45;&gt;stob -->
<g id="edge4" class="edge"><title>enable:OUT_OUT:e&#45;&gt;stob:IN_IN:w</title>
<path fill="none" stroke="#91c838" stroke-width="2" d="M65,-123C90.8855,-123 88.0422,-90.8298 110.785,-87.3112"/>
<ellipse fill="#91c838" stroke="#91c838" stroke-width="2" cx="113.005" cy="-87.1473" rx="2" ry="2"/>
</g>
<!-- Error -->
<g id="node3" class="node"><title>Error</title>
<polygon fill="#471ca4" stroke="none" points="289,-168 289,-197 327,-197 327,-168 289,-168"/>
<polygon fill="none" stroke="#1d0b45" points="289,-168 289,-197 327,-197 327,-168 289,-168"/>
<text text-anchor="start" x="292.5" y="-183.3" font-family="Helvetica,sans-Serif" font-size="14.00" fill="#ffffff">Error</text>
<text text-anchor="start" x="294" y="-174.1" font-family="Helvetica,sans-Serif" font-size="8.00" fill="#ffffff">console</text>
<polygon fill="#35157b" stroke="none" points="289,-151 289,-168 327,-168 327,-151 289,-151"/>
<polygon fill="none" stroke="#1d0b45" points="289,-151 289,-168 327,-168 327,-151 289,-151"/>
<text text-anchor="start" x="292" y="-157" font-family="Helvetica,sans-Serif" font-size="10.00" fill="#ffffff">◎ IN</text>
</g>
<!-- error&#45;msg&#45;&gt;Error -->
<g id="edge2" class="edge"><title>error&#45;msg:OUT_OUT:e&#45;&gt;Error:IN_IN:w</title>
<path fill="none" stroke="#3b5f37" stroke-width="2" d="M218,-159C247.653,-159 256.108,-159 283.774,-159"/>
<ellipse fill="#3b5f37" stroke="#3b5f37" stroke-width="2" cx="286" cy="-159" rx="2" ry="2"/>
</g>
<!-- quit -->
<g id="node4" class="node"><title>quit</title>
<polygon fill="#4e2e10" stroke="none" points="396,-86 396,-115 452,-115 452,-86 396,-86"/>
<polygon fill="none" stroke="#201206" points="396,-86 396,-115 452,-115 452,-86 396,-86"/>
<text text-anchor="start" x="413" y="-101.3" font-family="Helvetica,sans-Serif" font-size="14.00" fill="#ffffff">quit</text>
<text text-anchor="start" x="409.5" y="-92.1" font-family="Helvetica,sans-Serif" font-size="8.00" fill="#ffffff">app/quit</text>
<polygon fill="#3a220c" stroke="none" points="396,-69 396,-86 452,-86 452,-69 396,-69"/>
<polygon fill="none" stroke="#201206" points="396,-69 396,-86 452,-86 452,-69 396,-69"/>
<text text-anchor="start" x="399" y="-75" font-family="Helvetica,sans-Serif" font-size="10.00" fill="#ffffff">◎ ERROR</text>
</g>
<!-- radio -->
<g id="node5" class="node"><title>radio</title>
<polygon fill="#255f7e" stroke="none" points="273,-78 273,-107 344,-107 344,-78 273,-78"/>
<polygon fill="none" stroke="#0f2734" points="273,-78 273,-107 344,-107 344,-78 273,-78"/>
<text text-anchor="start" x="293" y="-93.3" font-family="Helvetica,sans-Serif" font-size="14.00" fill="#ffffff">radio</text>
<text text-anchor="start" x="276.5" y="-84.1" font-family="Helvetica,sans-Serif" font-size="8.00" fill="#ffffff">netctl/radio&#45;offline</text>
<polygon fill="#1b475e" stroke="none" points="273,-61 273,-78 344,-78 344,-61 273,-61"/>
<polygon fill="none" stroke="#0f2734" points="273,-61 273,-78 344,-78 344,-61 273,-61"/>
<text text-anchor="start" x="276" y="-67" font-family="Helvetica,sans-Serif" font-size="10.00" fill="#ffffff">◎ ENABLED</text>
<polygon fill="#143546" stroke="none" points="273,-44 273,-61 344,-61 344,-44 273,-44"/>
<polygon fill="none" stroke="#0f2734" points="273,-44 273,-61 344,-61 344,-44 273,-44"/>
<text text-anchor="start" x="292" y="-50" font-family="Helvetica,sans-Serif" font-size="10.00" fill="#ffffff">ERROR ◉</text>
<polygon fill="#143546" stroke="none" points="273,-27 273,-44 344,-44 344,-27 273,-27"/>
<polygon fill="none" stroke="#0f2734" points="273,-27 273,-44 344,-44 344,-27 273,-27"/>
<text text-anchor="start" x="308" y="-33" font-family="Helvetica,sans-Serif" font-size="10.00" fill="#ffffff">OUT ◉</text>
</g>
<!-- radio&#45;&gt;quit -->
<g id="edge3" class="edge"><title>radio:OUT_ERROR:e&#45;&gt;quit:IN_ERROR:w</title>
<path fill="none" stroke="#ae4626" stroke-width="2" d="M345,-52C368.389,-52 370.034,-74.1561 390.876,-76.7526"/>
<ellipse fill="#ae4626" stroke="#ae4626" stroke-width="2" cx="393.004" cy="-76.8802" rx="2" ry="2"/>
</g>
<!-- #anon:34:54 -->
<g id="node7" class="node"><title>#anon:34:54</title>
<polygon fill="#471ca4" stroke="none" points="397,-20 397,-42 451,-42 451,-20 397,-20"/>
<polygon fill="none" stroke="#1d0b45" points="397,-20 397,-42 451,-42 451,-20 397,-20"/>
<text text-anchor="start" x="400.5" y="-27.3" font-family="Helvetica,sans-Serif" font-size="14.00" fill="#ffffff">console</text>
<polygon fill="#35157b" stroke="none" points="397,-3 397,-20 451,-20 451,-3 397,-3"/>
<polygon fill="none" stroke="#1d0b45" points="397,-3 397,-20 451,-20 451,-3 397,-3"/>
<text text-anchor="start" x="400" y="-9" font-family="Helvetica,sans-Serif" font-size="10.00" fill="#ffffff">◎ IN</text>
</g>
<!-- radio&#45;&gt;#anon:34:54 -->
<g id="edge6" class="edge"><title>radio:OUT_OUT:e&#45;&gt;#anon:34:54:IN_IN:w</title>
<path fill="none" stroke="#7a1316" stroke-width="2" d="M345,-35C368.583,-35 370.761,-13.7301 391.836,-11.2375"/>
<ellipse fill="#7a1316" stroke="#7a1316" stroke-width="2" cx="394.003" cy="-11.1139" rx="2" ry="2"/>
</g>
<!-- stob&#45;&gt;radio -->
<g id="edge5" class="edge"><title>stob:OUT_OUT:e&#45;&gt;radio:IN_ENABLED:w</title>
<path fill="none" stroke="#c99ca0" stroke-width="2" d="M221,-70C242.25,-70 248.559,-70 267.941,-70"/>
<ellipse fill="#c99ca0" stroke="#c99ca0" stroke-width="2" cx="270" cy="-70" rx="2" ry="2"/>
</g>
</g>
</svg>
