<?xml version="1.0" encoding="UTF-8" standalone="no"?>
<!DOCTYPE svg PUBLIC "-//W3C//DTD SVG 1.1//EN"
 "http://www.w3.org/Graphics/SVG/1.1/DTD/svg11.dtd">
<!-- Generated by graphviz version 2.36.0 (20140111.2315)
 -->
<!-- Title: fbp Pages: 1 -->
<svg width="642pt" height="307pt"
 viewBox="0.00 0.00 642.00 307.00" xmlns="http://www.w3.org/2000/svg" xmlns:xlink="http://www.w3.org/1999/xlink">
<g id="graph0" class="graph" transform="scale(1 1) rotate(0) translate(4 303)">
<title>fbp</title>
<polygon fill="white" stroke="none" points="-4,4 -4,-303 638,-303 638,4 -4,4"/>
<!-- name -->
<g id="node1" class="node"><title>name</title>
<polygon fill="#4e2e10" stroke="none" points="11,-253 11,-282 67,-282 67,-253 11,-253"/>
<polygon fill="none" stroke="#201206" points="11,-253 11,-282 67,-282 67,-253 11,-253"/>
<text text-anchor="start" x="21.5" y="-268.3" font-family="Helvetica,sans-Serif" font-size="14.00" fill="#ffffff">name</text>
<text text-anchor="start" x="23" y="-259.1" font-family="Helvetica,sans-Serif" font-size="8.00" fill="#ffffff">app/argv</text>
<polygon fill="#2b1909" stroke="none" points="11,-236 11,-253 67,-253 67,-236 11,-236"/>
<polygon fill="none" stroke="#201206" points="11,-236 11,-253 67,-253 67,-236 11,-236"/>
<text text-anchor="start" x="15" y="-242" font-family="Helvetica,sans-Serif" font-size="10.00" fill="#ffffff">ERROR ◉</text>
<polygon fill="#2b1909" stroke="none" points="11,-219 11,-236 67,-236 67,-219 11,-219"/>
<polygon fill="none" stroke="#201206" points="11,-219 11,-236 67,-236 67,-219 11,-219"/>
<text text-anchor="start" x="31" y="-225" font-family="Helvetica,sans-Serif" font-size="10.00" fill="#ffffff">OUT ◉</text>
</g>
<!-- error&#45;msg -->
<g id="node2" class="node"><title>error&#45;msg</title>
<polygon fill="#bd648a" stroke="none" points="122,-266 122,-295 220,-295 220,-266 122,-266"/>
<polygon fill="none" stroke="#4e2a39" points="122,-266 122,-295 220,-295 220,-266 122,-266"/>
<text text-anchor="start" x="141" y="-281.3" font-family="Helvetica,sans-Serif" font-size="14.00" fill="#000000">error&#45;msg</text>
<text text-anchor="start" x="125.5" y="-272.1" font-family="Helvetica,sans-Serif" font-size="8.00" fill="#000000">converter/empty&#45;to&#45;string</text>
<polygon fill="#8d4b67" stroke="none" points="122,-249 122,-266 220,-266 220,-249 122,-249"/>
<polygon fill="none" stroke="#4e2a39" points="122,-249 122,-266 220,-266 220,-249 122,-249"/>
<text text-anchor="start" x="125" y="-255" font-family="Helvetica,sans-Serif" font-size="10.00" fill="#ffffff">◎ IN</text>
<polygon fill="#69384d" stroke="none" points="122,-232 122,-249 220,-249 220,-232 122,-232"/>
<polygon fill="none" stroke="#4e2a39" points="122,-232 122,-249 220,-249 220,-232 122,-232"/>
<text text-anchor="start" x="184" y="-238" font-family="Helvetica,sans-Serif" font-size="10.00" fill="#ffffff">OUT ◉</text>
</g>
<!-- name&#45;&gt;error&#45;msg -->
<g id="edge1" class="edge"><title>name:OUT_ERROR:e&#45;&gt;error&#45;msg:IN_IN:w</title>
<path fill="none" stroke="#c53a62" stroke-width="2" d="M68,-244C90.8327,-244 96.1519,-255.521 116.932,-256.871"/>
<ellipse fill="#c53a62" stroke="#c53a62" stroke-width="2" cx="119.001" cy="-256.937" rx="2" ry="2"/>
</g>
<!-- service -->
<g id="node5" class="node"><title>service</title>
<polygon fill="#255f7e" stroke="none" points="128,-177 128,-206 214,-206 214,-177 128,-177"/>
<polygon fill="none" stroke="#0f2734" points="128,-177 128,-206 214,-206 214,-177 128,-177"/>
<text text-anchor="start" x="149.5" y="-192.3" font-family="Helvetica,sans-Serif" font-size="14.00" fill="#ffffff">service</text>
<text text-anchor="start" x="148" y="-183.1" font-family="Helvetica,sans-Serif" font-size="8.00" fill="#ffffff">netctl/service</text>
<polygon fill="#1b475e" stroke="none" points="128,-160 128,-177 214,-177 214,-160 128,-160"/>
<polygon fill="none" stroke="#0f2734" points="128,-160 128,-177 214,-177 214,-160 128,-160"/>
<text text-anchor="start" x="131" y="-166" font-family="Helvetica,sans-Serif" font-size="10.00" fill="#ffffff">◎ NAME</text>
<polygon fill="#1b475e" stroke="none" points="128,-143 128,-160 214,-160 214,-143 128,-143"/>
<polygon fill="none" stroke="#0f2734" points="128,-143 128,-160 214,-160 214,-143 128,-143"/>
<text text-anchor="start" x="131" y="-149" font-family="Helvetica,sans-Serif" font-size="10.00" fill="#ffffff">◎ DISCONNECT</text>
<polygon fill="#1b475e" stroke="none" points="128,-126 128,-143 214,-143 214,-126 128,-126"/>
<polygon fill="none" stroke="#0f2734" points="128,-126 128,-143 214,-143 214,-126 128,-126"/>
<text text-anchor="start" x="131" y="-132" font-family="Helvetica,sans-Serif" font-size="10.00" fill="#ffffff">◎ TRIGGER</text>
<polygon fill="#143546" stroke="none" points="128,-109 128,-126 214,-126 214,-109 128,-109"/>
<polygon fill="none" stroke="#0f2734" points="128,-109 128,-126 214,-126 214,-109 128,-109"/>
<text text-anchor="start" x="162" y="-115" font-family="Helvetica,sans-Serif" font-size="10.00" fill="#ffffff">ERROR ◉</text>
<polygon fill="#143546" stroke="none" points="128,-92 128,-109 214,-109 214,-92 128,-92"/>
<polygon fill="none" stroke="#0f2734" points="128,-92 128,-109 214,-109 214,-92 128,-92"/>
<text text-anchor="start" x="178" y="-98" font-family="Helvetica,sans-Serif" font-size="10.00" fill="#ffffff">OUT ◉</text>
<polygon fill="#143546" stroke="none" points="128,-75 128,-92 214,-92 214,-75 128,-75"/>
<polygon fill="none" stroke="#0f2734" points="128,-75 128,-92 214,-92 214,-75 128,-75"/>
<text text-anchor="start" x="162" y="-81" font-family="Helvetica,sans-Serif" font-size="10.00" fill="#ffffff">ONLINE ◉</text>
</g>
<!-- name&#45;&gt;service -->
<g id="edge4" class="edge"><title>name:OUT_OUT:e&#45;&gt;service:IN_NAME:w</title>
<path fill="none" stroke="#559092" stroke-width="2" d="M68,-227C103.335,-227 91.2869,-173.443 122.92,-169.259"/>
<ellipse fill="#559092" stroke="#559092" stroke-width="2" cx="125.004" cy="-169.127" rx="2" ry="2"/>
</g>
<!-- Error -->
<g id="node3" class="node"><title>Error</title>
<polygon fill="#471ca4" stroke="none" points="307,-249 307,-278 345,-278 345,-249 307,-249"/>
<polygon fill="none" stroke="#1d0b45" points="307,-249 307,-278 345,-278 345,-249 307,-249"/>
<text text-anchor="start" x="310.5" y="-264.3" font-family="Helvetica,sans-Serif" font-size="14.00" fill="#ffffff">Error</text>
<text text-anchor="start" x="312" y="-255.1" font-family="Helvetica,sans-Serif" font-size="8.00" fill="#ffffff">console</text>
<polygon fill="#35157b" stroke="none" points="307,-232 307,-249 345,-249 345,-232 307,-232"/>
<polygon fill="none" stroke="#1d0b45" points="307,-232 307,-249 345,-249 345,-232 307,-232"/>
<text text-anchor="start" x="310" y="-238" font-family="Helvetica,sans-Serif" font-size="10.00" fill="#ffffff">◎ IN</text>
</g>
<!-- error&#45;msg&#45;&gt;Error -->
<g id="edge2" class="edge"><title>error&#45;msg:OUT_OUT:e&#45;&gt;Error:IN_IN:w</title>
<path fill="none" stroke="#3b5f37" stroke-width="2" d="M221,-240C257.302,-240 267.441,-240 301.699,-240"/>
<ellipse fill="#3b5f37" stroke="#3b5f37" stroke-width="2" cx="304" cy="-240" rx="2" ry="2"/>
</g>
<!-- quit -->
<g id="node4" class="node"><title>quit</title>
<polygon fill="#4e2e10" stroke="none" points="570,-117 570,-146 626,-146 626,-117 570,-117"/>
<polygon fill="none" stroke="#201206" points="570,-117 570,-146 626,-146 626,-117 570,-117"/>
<text text-anchor="start" x="587" y="-132.3" font-family="Helvetica,sans-Serif" font-size="14.00" fill="#ffffff">quit</text>
<text text-anchor="start" x="583.5" y="-123.1" font-family="Helvetica,sans-Serif" font-size="8.00" fill="#ffffff">app/quit</text>
<polygon fill="#3a220c" stroke="none" points="570,-100 570,-117 626,-117 626,-100 570,-100"/>
<polygon fill="none" stroke="#201206" points="570,-100 570,-117 626,-117 626,-100 570,-100"/>
<text text-anchor="start" x="573" y="-106" font-family="Helvetica,sans-Serif" font-size="10.00" fill="#ffffff">◎ ERROR</text>
<polygon fill="#3a220c" stroke="none" points="570,-83 570,-100 626,-100 626,-83 570,-83"/>
<polygon fill="none" stroke="#201206" points="570,-83 570,-100 626,-100 626,-83 570,-83"/>
<text text-anchor="start" x="573" y="-89" font-family="Helvetica,sans-Serif" font-size="10.00" fill="#ffffff">◎ CODE</text>
</g>
<!-- service&#45;&gt;quit -->
<g id="edge3" class="edge"><title>service:OUT_ERROR:e&#45;&gt;quit:IN_ERROR:w</title>
<path fill="none" stroke="#0c4f97" stroke-width="2" d="M215,-117C239.865,-117 239.919,-137.805 264,-144 394.772,-177.644 431.712,-109.492 564.636,-108.024"/>
<ellipse fill="#0c4f97" stroke="#0c4f97" stroke-width="2" cx="567" cy="-108.011" rx="2" ry="2"/>
</g>
<!-- btoe -->
<g id="node7" class="node"><title>btoe</title>
<polygon fill="#bd648a" stroke="none" points="273,-37 273,-66 380,-66 380,-37 273,-37"/>
<polygon fill="none" stroke="#4e2a39" points="273,-37 273,-66 380,-66 380,-37 273,-37"/>
<text text-anchor="start" x="313" y="-52.3" font-family="Helvetica,sans-Serif" font-size="14.00" fill="#000000">btoe</text>
<text text-anchor="start" x="276.5" y="-43.1" font-family="Helvetica,sans-Serif" font-size="8.00" fill="#000000">converter/boolean&#45;to&#45;empty</text>
<polygon fill="#8d4b67" stroke="none" points="273,-20 273,-37 380,-37 380,-20 273,-20"/>
<polygon fill="none" stroke="#4e2a39" points="273,-20 273,-37 380,-37 380,-20 273,-20"/>
<text text-anchor="start" x="276" y="-26" font-family="Helvetica,sans-Serif" font-size="10.00" fill="#ffffff">◎ PULSE_IF_FALSE</text>
<polygon fill="#69384d" stroke="none" points="273,-3 273,-20 380,-20 380,-3 273,-3"/>
<polygon fill="none" stroke="#4e2a39" points="273,-3 273,-20 380,-20 380,-3 273,-3"/>
<text text-anchor="start" x="344" y="-9" font-family="Helvetica,sans-Serif" font-size="10.00" fill="#ffffff">OUT ◉</text>
</g>
<!-- service&#45;&gt;btoe -->
<g id="edge8" class="edge"><title>service:OUT_ONLINE:e&#45;&gt;btoe:IN_PULSE_IF_FALSE:w</title>
<path fill="none" stroke="#c85e58" stroke-width="2" d="M215,-83C248.691,-83 237.859,-32.625 267.724,-28.2959"/>
<ellipse fill="#c85e58" stroke="#c85e58" stroke-width="2" cx="270.005" cy="-28.1381" rx="2" ry="2"/>
</g>
<!-- #anon:38:42 -->
<g id="node9" class="node"><title>#anon:38:42</title>
<polygon fill="#471ca4" stroke="none" points="299,-109 299,-131 353,-131 353,-109 299,-109"/>
<polygon fill="none" stroke="#1d0b45" points="299,-109 299,-131 353,-131 353,-109 299,-109"/>
<text text-anchor="start" x="302.5" y="-116.3" font-family="Helvetica,sans-Serif" font-size="14.00" fill="#ffffff">console</text>
<polygon fill="#35157b" stroke="none" points="299,-92 299,-109 353,-109 353,-92 299,-92"/>
<polygon fill="none" stroke="#1d0b45" points="299,-92 299,-109 353,-109 353,-92 299,-92"/>
<text text-anchor="start" x="302" y="-98" font-family="Helvetica,sans-Serif" font-size="10.00" fill="#ffffff">◎ IN</text>
</g>
<!-- service&#45;&gt;#anon:38:42 -->
<g id="edge6" class="edge"><title>service:OUT_OUT:e&#45;&gt;#anon:38:42:IN_IN:w</title>
<path fill="none" stroke="#74436f" stroke-width="2" d="M215,-100C250.448,-100 260.348,-100 293.8,-100"/>
<ellipse fill="#74436f" stroke="#74436f" stroke-width="2" cx="296" cy="-100" rx="2" ry="2"/>
</g>
<!-- tick -->
<g id="node6" class="node"><title>tick</title>
<polygon fill="#e8ea7a" stroke="none" points="8,-152 8,-181 70,-181 70,-152 8,-152"/>
<polygon fill="none" stroke="#616233" points="8,-152 8,-181 70,-181 70,-152 8,-152"/>
<text text-anchor="start" x="28.5" y="-167.3" font-family="Helvetica,sans-Serif" font-size="14.00" fill="#000000">tick</text>
<text text-anchor="start" x="11.5" y="-158.1" font-family="Helvetica,sans-Serif" font-size="8.00" fill="#000000">constant/empty</text>
<polygon fill="#828344" stroke="none" points="8,-135 8,-152 70,-152 70,-135 8,-135"/>
<polygon fill="none" stroke="#616233" points="8,-135 8,-152 70,-152 70,-135 8,-135"/>
<text text-anchor="start" x="34" y="-141" font-family="Helvetica,sans-Serif" font-size="10.00" fill="#ffffff">OUT ◉</text>
</g>
<!-- tick&#45;&gt;service -->
<g id="edge5" class="edge"><title>tick:OUT_OUT:e&#45;&gt;service:IN_DISCONNECT:w</title>
<path fill="none" stroke="#a0bbec" stroke-width="2" d="M71,-143C94.7312,-143 101.07,-150.976 122.763,-151.911"/>
<ellipse fill="#a0bbec" stroke="#a0bbec" stroke-width="2" cx="125" cy="-151.958" rx="2" ry="2"/>
</g>
<!-- tick&#45;&gt;service -->
<g id="edge7" class="edge"><title>tick:OUT_OUT:e&#45;&gt;service:IN_TRIGGER:w</title>
<path fill="none" stroke="#9570a4" stroke-width="2" d="M71,-143C94.7312,-143 101.07,-135.024 122.763,-134.089"/>
<ellipse fill="#9570a4" stroke="#9570a4" stroke-width="2" cx="125" cy="-134.042" rx="2" ry="2"/>
</g>
<!-- etoi -->
<g id="node8" class="node"><title>etoi</title>
<polygon fill="#bd648a" stroke="none" points="432,-61 432,-90 518,-90 518,-61 432,-61"/>
<polygon fill="none" stroke="#4e2a39" points="432,-61 432,-90 518,-90 518,-61 432,-61"/>
<text text-anchor="start" x="464" y="-76.3" font-family="Helvetica,sans-Serif" font-size="14.00" fill="#000000">etoi</text>
<text text-anchor="start" x="435.5" y="-67.1" font-family="Helvetica,sans-Serif" font-size="8.00" fill="#000000">converter/empty&#45;to&#45;int</text>
<polygon fill="#8d4b67" stroke="none" points="432,-44 432,-61 518,-61 518,-44 432,-44"/>
<polygon fill="none" stroke="#4e2a39" points="432,-44 432,-61 518,-61 518,-44 432,-44"/>
<text text-anchor="start" x="435" y="-50" font-family="Helvetica,sans-Serif" font-size="10.00" fill="#ffffff">◎ IN</text>
<polygon fill="#69384d" stroke="none" points="432,-27 432,-44 518,-44 518,-27 432,-27"/>
<polygon fill="none" stroke="#4e2a39" points="432,-27 432,-44 518,-44 518,-27 432,-27"/>
<text text-anchor="start" x="482" y="-33" font-family="Helvetica,sans-Serif" font-size="10.00" fill="#ffffff">OUT ◉</text>
</g>
<!-- btoe&#45;&gt;etoi -->
<g id="edge9" class="edge"><title>btoe:OUT_OUT:e&#45;&gt;etoi:IN_IN:w</title>
<path fill="none" stroke="#625e72" stroke-width="2" d="M381,-11C408.279,-11 402.928,-47.9417 426.893,-51.6936"/>
<ellipse fill="#625e72" stroke="#625e72" stroke-width="2" cx="429.006" cy="-51.8512" rx="2" ry="2"/>
</g>
<!-- etoi&#45;&gt;quit -->
<g id="edge10" class="edge"><title>etoi:OUT_OUT:e&#45;&gt;quit:IN_CODE:w</title>
<path fill="none" stroke="#658b42" stroke-width="2" d="M519,-35C550.932,-35 536.979,-86.2909 564.968,-90.6987"/>
<ellipse fill="#658b42" stroke="#658b42" stroke-width="2" cx="567.006" cy="-90.8509" rx="2" ry="2"/>
</g>
</g>
</svg>
