<?xml version="1.0" encoding="UTF-8" standalone="no"?>
<!DOCTYPE svg PUBLIC "-//W3C//DTD SVG 1.1//EN"
 "http://www.w3.org/Graphics/SVG/1.1/DTD/svg11.dtd">
<!-- Generated by graphviz version 2.36.0 (20140111.2315)
 -->
<!-- Title: fbp Pages: 1 -->
<svg width="598pt" height="626pt"
 viewBox="0.00 0.00 598.00 626.00" xmlns="http://www.w3.org/2000/svg" xmlns:xlink="http://www.w3.org/1999/xlink">
<g id="graph0" class="graph" transform="scale(1 1) rotate(0) translate(4 622)">
<title>fbp</title>
<polygon fill="white" stroke="none" points="-4,4 -4,-622 594,-622 594,4 -4,4"/>
<!-- HttpHead -->
<g id="node1" class="node"><title>HttpHead</title>
<polygon fill="#d07e6c" stroke="none" points="123,-359 123,-388 194,-388 194,-359 123,-359"/>
<polygon fill="none" stroke="#57342d" points="123,-359 123,-388 194,-388 194,-359 123,-359"/>
<text text-anchor="start" x="129.5" y="-374.3" font-family="Helvetica,sans-Serif" font-size="14.00" fill="#000000">HttpHead</text>
<text text-anchor="start" x="126.5" y="-365.1" font-family="Helvetica,sans-Serif" font-size="8.00" fill="#000000">http&#45;client/request</text>
<polygon fill="#9c5e51" stroke="none" points="123,-342 123,-359 194,-359 194,-342 123,-342"/>
<polygon fill="none" stroke="#57342d" points="123,-342 123,-359 194,-359 194,-342 123,-342"/>
<text text-anchor="start" x="126" y="-348" font-family="Helvetica,sans-Serif" font-size="10.00" fill="#ffffff">◎ TRIGGER</text>
<polygon fill="#75463c" stroke="none" points="123,-325 123,-342 194,-342 194,-325 123,-325"/>
<polygon fill="none" stroke="#57342d" points="123,-325 123,-342 194,-342 194,-325 123,-325"/>
<text text-anchor="start" x="142" y="-331" font-family="Helvetica,sans-Serif" font-size="10.00" fill="#ffffff">ERROR ◉</text>
<polygon fill="#75463c" stroke="none" points="123,-308 123,-325 194,-325 194,-308 123,-308"/>
<polygon fill="none" stroke="#57342d" points="123,-308 123,-325 194,-325 194,-308 123,-308"/>
<text text-anchor="start" x="158" y="-314" font-family="Helvetica,sans-Serif" font-size="10.00" fill="#ffffff">OUT ◉</text>
</g>
<!-- Error -->
<g id="node2" class="node"><title>Error</title>
<polygon fill="#471ca4" stroke="none" points="318,-585 318,-614 356,-614 356,-585 318,-585"/>
<polygon fill="none" stroke="#1d0b45" points="318,-585 318,-614 356,-614 356,-585 318,-585"/>
<text text-anchor="start" x="321.5" y="-600.3" font-family="Helvetica,sans-Serif" font-size="14.00" fill="#ffffff">Error</text>
<text text-anchor="start" x="323" y="-591.1" font-family="Helvetica,sans-Serif" font-size="8.00" fill="#ffffff">console</text>
<polygon fill="#35157b" stroke="none" points="318,-568 318,-585 356,-585 356,-568 318,-568"/>
<polygon fill="none" stroke="#1d0b45" points="318,-568 318,-585 356,-585 356,-568 318,-568"/>
<text text-anchor="start" x="321" y="-574" font-family="Helvetica,sans-Serif" font-size="10.00" fill="#ffffff">◎ IN</text>
</g>
<!-- HttpHead&#45;&gt;Error -->
<g id="edge1" class="edge"><title>HttpHead:OUT_ERROR:e&#45;&gt;Error:IN_IN:w</title>
<path fill="none" stroke="#2c7a3e" stroke-width="2" d="M195,-333C295.5,-333 169.41,-481.544 238,-555 261.826,-580.517 279.263,-576.385 312.825,-576.023"/>
<ellipse fill="#2c7a3e" stroke="#2c7a3e" stroke-width="2" cx="315" cy="-576.011" rx="2" ry="2"/>
</g>
<!-- HTTP_Packet -->
<g id="node4" class="node"><title>HTTP_Packet</title>
<polygon fill="#471ca4" stroke="none" points="291,-513 291,-542 383,-542 383,-513 291,-513"/>
<polygon fill="none" stroke="#1d0b45" points="291,-513 291,-542 383,-542 383,-513 291,-513"/>
<text text-anchor="start" x="294.5" y="-528.3" font-family="Helvetica,sans-Serif" font-size="14.00" fill="#ffffff">HTTP_Packet</text>
<text text-anchor="start" x="323" y="-519.1" font-family="Helvetica,sans-Serif" font-size="8.00" fill="#ffffff">console</text>
<polygon fill="#35157b" stroke="none" points="291,-496 291,-513 383,-513 383,-496 291,-496"/>
<polygon fill="none" stroke="#1d0b45" points="291,-496 291,-513 383,-513 383,-496 291,-496"/>
<text text-anchor="start" x="294" y="-502" font-family="Helvetica,sans-Serif" font-size="10.00" fill="#ffffff">◎ IN</text>
</g>
<!-- HttpHead&#45;&gt;HTTP_Packet -->
<g id="edge3" class="edge"><title>HttpHead:OUT_OUT:e&#45;&gt;HTTP_Packet:IN_IN:w</title>
<path fill="none" stroke="#f646ee" stroke-width="2" d="M195,-316C271.643,-316 187.492,-425.354 238,-483 253.463,-500.648 263.808,-503.679 285.762,-503.974"/>
<ellipse fill="#f646ee" stroke="#f646ee" stroke-width="2" cx="288" cy="-503.988" rx="2" ry="2"/>
</g>
<!-- #anon:23:20 -->
<g id="node5" class="node"><title>#anon:23:20</title>
<polygon fill="#d07e6c" stroke="none" points="246,-448 246,-470 428,-470 428,-448 246,-448"/>
<polygon fill="none" stroke="#57342d" points="246,-448 246,-470 428,-470 428,-448 246,-448"/>
<text text-anchor="start" x="249.5" y="-455.3" font-family="Helvetica,sans-Serif" font-size="14.00" fill="#000000">http&#45;client/get&#45;response&#45;code</text>
<polygon fill="#9c5e51" stroke="none" points="246,-431 246,-448 428,-448 428,-431 246,-431"/>
<polygon fill="none" stroke="#57342d" points="246,-431 246,-448 428,-448 428,-431 246,-431"/>
<text text-anchor="start" x="249" y="-437" font-family="Helvetica,sans-Serif" font-size="10.00" fill="#ffffff">◎ IN</text>
<polygon fill="#75463c" stroke="none" points="246,-414 246,-431 428,-431 428,-414 246,-414"/>
<polygon fill="none" stroke="#57342d" points="246,-414 246,-431 428,-431 428,-414 246,-414"/>
<text text-anchor="start" x="392" y="-420" font-family="Helvetica,sans-Serif" font-size="10.00" fill="#ffffff">OUT ◉</text>
</g>
<!-- HttpHead&#45;&gt;#anon:23:20 -->
<g id="edge4" class="edge"><title>HttpHead:OUT_OUT:e&#45;&gt;#anon:23:20:IN_IN:w</title>
<path fill="none" stroke="#6f7001" stroke-width="2" d="M195,-316C252.512,-316 189.362,-432.833 240.747,-438.766"/>
<ellipse fill="#6f7001" stroke="#6f7001" stroke-width="2" cx="243.003" cy="-438.89" rx="2" ry="2"/>
</g>
<!-- #anon:24:20 -->
<g id="node7" class="node"><title>#anon:24:20</title>
<polygon fill="#d07e6c" stroke="none" points="254,-366 254,-388 421,-388 421,-366 254,-366"/>
<polygon fill="none" stroke="#57342d" points="254,-366 254,-388 421,-388 421,-366 254,-366"/>
<text text-anchor="start" x="257.5" y="-373.3" font-family="Helvetica,sans-Serif" font-size="14.00" fill="#000000">http&#45;client/get&#45;content&#45;type</text>
<polygon fill="#9c5e51" stroke="none" points="254,-349 254,-366 421,-366 421,-349 254,-349"/>
<polygon fill="none" stroke="#57342d" points="254,-349 254,-366 421,-366 421,-349 254,-349"/>
<text text-anchor="start" x="257" y="-355" font-family="Helvetica,sans-Serif" font-size="10.00" fill="#ffffff">◎ IN</text>
<polygon fill="#75463c" stroke="none" points="254,-332 254,-349 421,-349 421,-332 254,-332"/>
<polygon fill="none" stroke="#57342d" points="254,-332 254,-349 421,-349 421,-332 254,-332"/>
<text text-anchor="start" x="385" y="-338" font-family="Helvetica,sans-Serif" font-size="10.00" fill="#ffffff">OUT ◉</text>
</g>
<!-- HttpHead&#45;&gt;#anon:24:20 -->
<g id="edge6" class="edge"><title>HttpHead:OUT_OUT:e&#45;&gt;#anon:24:20:IN_IN:w</title>
<path fill="none" stroke="#066ce8" stroke-width="2" d="M195,-316C225.088,-316 221.833,-353.246 248.795,-356.738"/>
<ellipse fill="#066ce8" stroke="#066ce8" stroke-width="2" cx="251.004" cy="-356.876" rx="2" ry="2"/>
</g>
<!-- #anon:25:20 -->
<g id="node9" class="node"><title>#anon:25:20</title>
<polygon fill="#d07e6c" stroke="none" points="283,-284 283,-306 391,-306 391,-284 283,-284"/>
<polygon fill="none" stroke="#57342d" points="283,-284 283,-306 391,-306 391,-284 283,-284"/>
<text text-anchor="start" x="286.5" y="-291.3" font-family="Helvetica,sans-Serif" font-size="14.00" fill="#000000">http&#45;client/get&#45;url</text>
<polygon fill="#9c5e51" stroke="none" points="283,-267 283,-284 391,-284 391,-267 283,-267"/>
<polygon fill="none" stroke="#57342d" points="283,-267 283,-284 391,-284 391,-267 283,-267"/>
<text text-anchor="start" x="286" y="-273" font-family="Helvetica,sans-Serif" font-size="10.00" fill="#ffffff">◎ IN</text>
<polygon fill="#75463c" stroke="none" points="283,-250 283,-267 391,-267 391,-250 283,-250"/>
<polygon fill="none" stroke="#57342d" points="283,-250 283,-267 391,-267 391,-250 283,-250"/>
<text text-anchor="start" x="355" y="-256" font-family="Helvetica,sans-Serif" font-size="10.00" fill="#ffffff">OUT ◉</text>
</g>
<!-- HttpHead&#45;&gt;#anon:25:20 -->
<g id="edge8" class="edge"><title>HttpHead:OUT_OUT:e&#45;&gt;#anon:25:20:IN_IN:w</title>
<path fill="none" stroke="#18e304" stroke-width="2" d="M195,-316C236.243,-316 239.098,-277.832 277.641,-275.148"/>
<ellipse fill="#18e304" stroke="#18e304" stroke-width="2" cx="280.001" cy="-275.068" rx="2" ry="2"/>
</g>
<!-- #anon:26:20 -->
<g id="node11" class="node"><title>#anon:26:20</title>
<polygon fill="#d07e6c" stroke="none" points="269,-202 269,-224 406,-224 406,-202 269,-202"/>
<polygon fill="none" stroke="#57342d" points="269,-202 269,-224 406,-224 406,-202 269,-202"/>
<text text-anchor="start" x="272.5" y="-209.3" font-family="Helvetica,sans-Serif" font-size="14.00" fill="#000000">http&#45;client/get&#45;content</text>
<polygon fill="#9c5e51" stroke="none" points="269,-185 269,-202 406,-202 406,-185 269,-185"/>
<polygon fill="none" stroke="#57342d" points="269,-185 269,-202 406,-202 406,-185 269,-185"/>
<text text-anchor="start" x="272" y="-191" font-family="Helvetica,sans-Serif" font-size="10.00" fill="#ffffff">◎ IN</text>
<polygon fill="#75463c" stroke="none" points="269,-168 269,-185 406,-185 406,-168 269,-168"/>
<polygon fill="none" stroke="#57342d" points="269,-168 269,-185 406,-185 406,-168 269,-168"/>
<text text-anchor="start" x="370" y="-174" font-family="Helvetica,sans-Serif" font-size="10.00" fill="#ffffff">OUT ◉</text>
</g>
<!-- HttpHead&#45;&gt;#anon:26:20 -->
<g id="edge10" class="edge"><title>HttpHead:OUT_OUT:e&#45;&gt;#anon:26:20:IN_IN:w</title>
<path fill="none" stroke="#1010aa" stroke-width="2" d="M195,-316C257.08,-316 206.904,-198.698 263.721,-193.2"/>
<ellipse fill="#1010aa" stroke="#1010aa" stroke-width="2" cx="266.002" cy="-193.093" rx="2" ry="2"/>
</g>
<!-- #anon:27:20 -->
<g id="node13" class="node"><title>#anon:27:20</title>
<polygon fill="#d07e6c" stroke="none" points="266,-120 266,-142 408,-142 408,-120 266,-120"/>
<polygon fill="none" stroke="#57342d" points="266,-120 266,-142 408,-142 408,-120 266,-120"/>
<text text-anchor="start" x="269.5" y="-127.3" font-family="Helvetica,sans-Serif" font-size="14.00" fill="#000000">http&#45;client/get&#45;headers</text>
<polygon fill="#9c5e51" stroke="none" points="266,-103 266,-120 408,-120 408,-103 266,-103"/>
<polygon fill="none" stroke="#57342d" points="266,-103 266,-120 408,-120 408,-103 266,-103"/>
<text text-anchor="start" x="269" y="-109" font-family="Helvetica,sans-Serif" font-size="10.00" fill="#ffffff">◎ IN</text>
<polygon fill="#75463c" stroke="none" points="266,-86 266,-103 408,-103 408,-86 266,-86"/>
<polygon fill="none" stroke="#57342d" points="266,-86 266,-103 408,-103 408,-86 266,-86"/>
<text text-anchor="start" x="372" y="-92" font-family="Helvetica,sans-Serif" font-size="10.00" fill="#ffffff">OUT ◉</text>
</g>
<!-- HttpHead&#45;&gt;#anon:27:20 -->
<g id="edge12" class="edge"><title>HttpHead:OUT_OUT:e&#45;&gt;#anon:27:20:IN_IN:w</title>
<path fill="none" stroke="#beabda" stroke-width="2" d="M195,-316C289.866,-316 172.267,-116.962 260.909,-111.131"/>
<ellipse fill="#beabda" stroke="#beabda" stroke-width="2" cx="263.001" cy="-111.064" rx="2" ry="2"/>
</g>
<!-- #anon:28:20 -->
<g id="node15" class="node"><title>#anon:28:20</title>
<polygon fill="#d07e6c" stroke="none" points="268,-38 268,-60 407,-60 407,-38 268,-38"/>
<polygon fill="none" stroke="#57342d" points="268,-38 268,-60 407,-60 407,-38 268,-38"/>
<text text-anchor="start" x="271.5" y="-45.3" font-family="Helvetica,sans-Serif" font-size="14.00" fill="#000000">http&#45;client/get&#45;cookies</text>
<polygon fill="#9c5e51" stroke="none" points="268,-21 268,-38 407,-38 407,-21 268,-21"/>
<polygon fill="none" stroke="#57342d" points="268,-21 268,-38 407,-38 407,-21 268,-21"/>
<text text-anchor="start" x="271" y="-27" font-family="Helvetica,sans-Serif" font-size="10.00" fill="#ffffff">◎ IN</text>
<polygon fill="#75463c" stroke="none" points="268,-4 268,-21 407,-21 407,-4 268,-4"/>
<polygon fill="none" stroke="#57342d" points="268,-4 268,-21 407,-21 407,-4 268,-4"/>
<text text-anchor="start" x="371" y="-10" font-family="Helvetica,sans-Serif" font-size="10.00" fill="#ffffff">OUT ◉</text>
</g>
<!-- HttpHead&#45;&gt;#anon:28:20 -->
<g id="edge14" class="edge"><title>HttpHead:OUT_OUT:e&#45;&gt;#anon:28:20:IN_IN:w</title>
<path fill="none" stroke="#8f57a4" stroke-width="2" d="M195,-316C259.341,-316 203.745,-41.1996 262.933,-29.3917"/>
<ellipse fill="#8f57a4" stroke="#8f57a4" stroke-width="2" cx="265.009" cy="-29.1918" rx="2" ry="2"/>
</g>
<!-- Start -->
<g id="node3" class="node"><title>Start</title>
<polygon fill="#e8ea7a" stroke="none" points="8,-360 8,-389 70,-389 70,-360 8,-360"/>
<polygon fill="none" stroke="#616233" points="8,-360 8,-389 70,-389 70,-360 8,-360"/>
<text text-anchor="start" x="24.5" y="-375.3" font-family="Helvetica,sans-Serif" font-size="14.00" fill="#000000">Start</text>
<text text-anchor="start" x="11.5" y="-366.1" font-family="Helvetica,sans-Serif" font-size="8.00" fill="#000000">constant/empty</text>
<polygon fill="#828344" stroke="none" points="8,-343 8,-360 70,-360 70,-343 8,-343"/>
<polygon fill="none" stroke="#616233" points="8,-343 8,-360 70,-360 70,-343 8,-343"/>
<text text-anchor="start" x="34" y="-349" font-family="Helvetica,sans-Serif" font-size="10.00" fill="#ffffff">OUT ◉</text>
</g>
<!-- Start&#45;&gt;HttpHead -->
<g id="edge2" class="edge"><title>Start:OUT_OUT:e&#45;&gt;HttpHead:IN_TRIGGER:w</title>
<path fill="none" stroke="#7c122a" stroke-width="2" d="M71,-351C92.25,-351 98.5586,-351 117.941,-351"/>
<ellipse fill="#7c122a" stroke="#7c122a" stroke-width="2" cx="120" cy="-351" rx="2" ry="2"/>
</g>
<!-- ResponseCode -->
<g id="node6" class="node"><title>ResponseCode</title>
<polygon fill="#471ca4" stroke="none" points="481,-431 481,-460 582,-460 582,-431 481,-431"/>
<polygon fill="none" stroke="#1d0b45" points="481,-431 481,-460 582,-460 582,-431 481,-431"/>
<text text-anchor="start" x="484.5" y="-446.3" font-family="Helvetica,sans-Serif" font-size="14.00" fill="#ffffff">ResponseCode</text>
<text text-anchor="start" x="517.5" y="-437.1" font-family="Helvetica,sans-Serif" font-size="8.00" fill="#ffffff">console</text>
<polygon fill="#35157b" stroke="none" points="481,-414 481,-431 582,-431 582,-414 481,-414"/>
<polygon fill="none" stroke="#1d0b45" points="481,-414 481,-431 582,-431 582,-414 481,-414"/>
<text text-anchor="start" x="484" y="-420" font-family="Helvetica,sans-Serif" font-size="10.00" fill="#ffffff">◎ IN</text>
</g>
<!-- #anon:23:20&#45;&gt;ResponseCode -->
<g id="edge5" class="edge"><title>#anon:23:20:OUT_OUT:e&#45;&gt;ResponseCode:IN_IN:w</title>
<path fill="none" stroke="#ab0ad6" stroke-width="2" d="M429,-422C450.25,-422 456.559,-422 475.941,-422"/>
<ellipse fill="#ab0ad6" stroke="#ab0ad6" stroke-width="2" cx="478" cy="-422" rx="2" ry="2"/>
</g>
<!-- ContentType -->
<g id="node8" class="node"><title>ContentType</title>
<polygon fill="#471ca4" stroke="none" points="489,-349 489,-378 574,-378 574,-349 489,-349"/>
<polygon fill="none" stroke="#1d0b45" points="489,-349 489,-378 574,-378 574,-349 489,-349"/>
<text text-anchor="start" x="492.5" y="-364.3" font-family="Helvetica,sans-Serif" font-size="14.00" fill="#ffffff">ContentType</text>
<text text-anchor="start" x="517.5" y="-355.1" font-family="Helvetica,sans-Serif" font-size="8.00" fill="#ffffff">console</text>
<polygon fill="#35157b" stroke="none" points="489,-332 489,-349 574,-349 574,-332 489,-332"/>
<polygon fill="none" stroke="#1d0b45" points="489,-332 489,-349 574,-349 574,-332 489,-332"/>
<text text-anchor="start" x="492" y="-338" font-family="Helvetica,sans-Serif" font-size="10.00" fill="#ffffff">◎ IN</text>
</g>
<!-- #anon:24:20&#45;&gt;ContentType -->
<g id="edge7" class="edge"><title>#anon:24:20:OUT_OUT:e&#45;&gt;ContentType:IN_IN:w</title>
<path fill="none" stroke="#235c00" stroke-width="2" d="M422,-340C449.844,-340 457.865,-340 483.696,-340"/>
<ellipse fill="#235c00" stroke="#235c00" stroke-width="2" cx="486" cy="-340" rx="2" ry="2"/>
</g>
<!-- Url -->
<g id="node10" class="node"><title>Url</title>
<polygon fill="#471ca4" stroke="none" points="514,-267 514,-296 549,-296 549,-267 514,-267"/>
<polygon fill="none" stroke="#1d0b45" points="514,-267 514,-296 549,-296 549,-267 514,-267"/>
<text text-anchor="start" x="522.5" y="-282.3" font-family="Helvetica,sans-Serif" font-size="14.00" fill="#ffffff">Url</text>
<text text-anchor="start" x="517.5" y="-273.1" font-family="Helvetica,sans-Serif" font-size="8.00" fill="#ffffff">console</text>
<polygon fill="#35157b" stroke="none" points="514,-250 514,-267 549,-267 549,-250 514,-250"/>
<polygon fill="none" stroke="#1d0b45" points="514,-250 514,-267 549,-267 549,-250 514,-250"/>
<text text-anchor="start" x="517" y="-256" font-family="Helvetica,sans-Serif" font-size="10.00" fill="#ffffff">◎ IN</text>
</g>
<!-- #anon:25:20&#45;&gt;Url -->
<g id="edge9" class="edge"><title>#anon:25:20:OUT_OUT:e&#45;&gt;Url:IN_IN:w</title>
<path fill="none" stroke="#b1ab16" stroke-width="2" d="M392,-258C444.412,-258 458.513,-258 508.98,-258"/>
<ellipse fill="#b1ab16" stroke="#b1ab16" stroke-width="2" cx="511" cy="-258" rx="2" ry="2"/>
</g>
<!-- Content -->
<g id="node12" class="node"><title>Content</title>
<polygon fill="#471ca4" stroke="none" points="504,-185 504,-214 559,-214 559,-185 504,-185"/>
<polygon fill="none" stroke="#1d0b45" points="504,-185 504,-214 559,-214 559,-185 504,-185"/>
<text text-anchor="start" x="507.5" y="-200.3" font-family="Helvetica,sans-Serif" font-size="14.00" fill="#ffffff">Content</text>
<text text-anchor="start" x="517.5" y="-191.1" font-family="Helvetica,sans-Serif" font-size="8.00" fill="#ffffff">console</text>
<polygon fill="#35157b" stroke="none" points="504,-168 504,-185 559,-185 559,-168 504,-168"/>
<polygon fill="none" stroke="#1d0b45" points="504,-168 504,-185 559,-185 559,-168 504,-168"/>
<text text-anchor="start" x="507" y="-174" font-family="Helvetica,sans-Serif" font-size="10.00" fill="#ffffff">◎ IN</text>
</g>
<!-- #anon:26:20&#45;&gt;Content -->
<g id="edge11" class="edge"><title>#anon:26:20:OUT_OUT:e&#45;&gt;Content:IN_IN:w</title>
<path fill="none" stroke="#21f130" stroke-width="2" d="M407,-176C448.167,-176 459.544,-176 498.616,-176"/>
<ellipse fill="#21f130" stroke="#21f130" stroke-width="2" cx="501" cy="-176" rx="2" ry="2"/>
</g>
<!-- HeaderDate -->
<g id="node14" class="node"><title>HeaderDate</title>
<polygon fill="#471ca4" stroke="none" points="491,-103 491,-132 571,-132 571,-103 491,-103"/>
<polygon fill="none" stroke="#1d0b45" points="491,-103 491,-132 571,-132 571,-103 491,-103"/>
<text text-anchor="start" x="494.5" y="-118.3" font-family="Helvetica,sans-Serif" font-size="14.00" fill="#ffffff">HeaderDate</text>
<text text-anchor="start" x="517" y="-109.1" font-family="Helvetica,sans-Serif" font-size="8.00" fill="#ffffff">console</text>
<polygon fill="#35157b" stroke="none" points="491,-86 491,-103 571,-103 571,-86 491,-86"/>
<polygon fill="none" stroke="#1d0b45" points="491,-86 491,-103 571,-103 571,-86 491,-86"/>
<text text-anchor="start" x="494" y="-92" font-family="Helvetica,sans-Serif" font-size="10.00" fill="#ffffff">◎ IN</text>
</g>
<!-- #anon:27:20&#45;&gt;HeaderDate -->
<g id="edge13" class="edge"><title>#anon:27:20:OUT_OUT:e&#45;&gt;HeaderDate:IN_IN:w</title>
<path fill="none" stroke="#4ae748" stroke-width="2" d="M409,-94C443.594,-94 453.256,-94 485.902,-94"/>
<ellipse fill="#4ae748" stroke="#4ae748" stroke-width="2" cx="488" cy="-94" rx="2" ry="2"/>
</g>
<!-- SetCookie -->
<g id="node16" class="node"><title>SetCookie</title>
<polygon fill="#471ca4" stroke="none" points="496,-21 496,-50 566,-50 566,-21 496,-21"/>
<polygon fill="none" stroke="#1d0b45" points="496,-21 496,-50 566,-50 566,-21 496,-21"/>
<text text-anchor="start" x="499.5" y="-36.3" font-family="Helvetica,sans-Serif" font-size="14.00" fill="#ffffff">SetCookie</text>
<text text-anchor="start" x="517" y="-27.1" font-family="Helvetica,sans-Serif" font-size="8.00" fill="#ffffff">console</text>
<polygon fill="#35157b" stroke="none" points="496,-4 496,-21 566,-21 566,-4 496,-4"/>
<polygon fill="none" stroke="#1d0b45" points="496,-4 496,-21 566,-21 566,-4 496,-4"/>
<text text-anchor="start" x="499" y="-10" font-family="Helvetica,sans-Serif" font-size="10.00" fill="#ffffff">◎ IN</text>
</g>
<!-- #anon:28:20&#45;&gt;SetCookie -->
<g id="edge15" class="edge"><title>#anon:28:20:OUT_OUT:e&#45;&gt;SetCookie:IN_IN:w</title>
<path fill="none" stroke="#7dd512" stroke-width="2" d="M408,-12C445.156,-12 455.534,-12 490.598,-12"/>
<ellipse fill="#7dd512" stroke="#7dd512" stroke-width="2" cx="493" cy="-12" rx="2" ry="2"/>
</g>
</g>
</svg>
