<?xml version="1.0" encoding="UTF-8" standalone="no"?>
<!DOCTYPE svg PUBLIC "-//W3C//DTD SVG 1.1//EN"
 "http://www.w3.org/Graphics/SVG/1.1/DTD/svg11.dtd">
<!-- Generated by graphviz version 2.36.0 (20140111.2315)
 -->
<!-- Title: fbp Pages: 1 -->
<svg width="1132pt" height="500pt"
 viewBox="0.00 0.00 1132.00 499.84" xmlns="http://www.w3.org/2000/svg" xmlns:xlink="http://www.w3.org/1999/xlink">
<g id="graph0" class="graph" transform="scale(1 1) rotate(0) translate(4 495.838)">
<title>fbp</title>
<polygon fill="white" stroke="none" points="-4,4 -4,-495.838 1128,-495.838 1128,4 -4,4"/>
<!-- check -->
<g id="node1" class="node"><title>check</title>
<polygon fill="#cef0f2" stroke="none" points="146,-341.838 146,-370.838 240,-370.838 240,-341.838 146,-341.838"/>
<polygon fill="none" stroke="#566565" points="146,-341.838 146,-370.838 240,-370.838 240,-341.838 146,-341.838"/>
<text text-anchor="start" x="175" y="-357.138" font-family="Helvetica,sans-Serif" font-size="14.00" fill="#000000">check</text>
<text text-anchor="start" x="169" y="-347.938" font-family="Helvetica,sans-Serif" font-size="8.00" fill="#000000">update/check</text>
<polygon fill="#9ab4b5" stroke="none" points="146,-324.838 146,-341.838 240,-341.838 240,-324.838 146,-324.838"/>
<polygon fill="none" stroke="#566565" points="146,-324.838 146,-341.838 240,-341.838 240,-324.838 146,-324.838"/>
<text text-anchor="start" x="149" y="-330.838" font-family="Helvetica,sans-Serif" font-size="10.00" fill="#000000">◎ CHECK</text>
<polygon fill="#738787" stroke="none" points="146,-307.838 146,-324.838 240,-324.838 240,-307.838 146,-307.838"/>
<polygon fill="none" stroke="#566565" points="146,-307.838 146,-324.838 240,-324.838 240,-307.838 146,-307.838"/>
<text text-anchor="start" x="188" y="-313.838" font-family="Helvetica,sans-Serif" font-size="10.00" fill="#000000">ERROR ◉</text>
<polygon fill="#738787" stroke="none" points="146,-290.838 146,-307.838 240,-307.838 240,-290.838 146,-290.838"/>
<polygon fill="none" stroke="#566565" points="146,-290.838 146,-307.838 240,-307.838 240,-290.838 146,-290.838"/>
<text text-anchor="start" x="179" y="-296.838" font-family="Helvetica,sans-Serif" font-size="10.00" fill="#000000">VERSION ◉</text>
<polygon fill="#738787" stroke="none" points="146,-273.838 146,-290.838 240,-290.838 240,-273.838 146,-273.838"/>
<polygon fill="none" stroke="#566565" points="146,-273.838 146,-290.838 240,-290.838 240,-273.838 146,-273.838"/>
<text text-anchor="start" x="203" y="-279.838" font-family="Helvetica,sans-Serif" font-size="10.00" fill="#000000">SIZE ◉</text>
<polygon fill="#738787" stroke="none" points="146,-256.838 146,-273.838 240,-273.838 240,-256.838 146,-256.838"/>
<polygon fill="none" stroke="#566565" points="146,-256.838 146,-273.838 240,-273.838 240,-256.838 146,-256.838"/>
<text text-anchor="start" x="150" y="-262.838" font-family="Helvetica,sans-Serif" font-size="10.00" fill="#000000">NEED_UPDATE ◉</text>
</g>
<!-- fetch_progress_timer -->
<g id="node4" class="node"><title>fetch_progress_timer</title>
<polygon fill="#7f2fae" stroke="none" points="354,-87.8383 354,-116.838 420,-116.838 420,-87.8383 354,-87.8383"/>
<polygon fill="none" stroke="#351348" points="354,-87.8383 354,-116.838 420,-116.838 420,-87.8383 354,-87.8383"/>
<text text-anchor="start" x="358.5" y="-103.138" font-family="Helvetica,sans-Serif" font-size="14.00" fill="#ffffff">🕐 Timer</text>
<text text-anchor="start" x="377.5" y="-93.9383" font-family="Helvetica,sans-Serif" font-size="8.00" fill="#ffffff">timer</text>
<polygon fill="#5f2382" stroke="none" points="354,-70.8383 354,-87.8383 420,-87.8383 420,-70.8383 354,-70.8383"/>
<polygon fill="none" stroke="#351348" points="354,-70.8383 354,-87.8383 420,-87.8383 420,-70.8383 354,-70.8383"/>
<text text-anchor="start" x="357" y="-76.8383" font-family="Helvetica,sans-Serif" font-size="10.00" fill="#ffffff">◎ ENABLED</text>
<polygon fill="#471a61" stroke="none" points="354,-53.8383 354,-70.8383 420,-70.8383 420,-53.8383 354,-53.8383"/>
<polygon fill="none" stroke="#351348" points="354,-53.8383 354,-70.8383 420,-70.8383 420,-53.8383 354,-53.8383"/>
<text text-anchor="start" x="384" y="-59.8383" font-family="Helvetica,sans-Serif" font-size="10.00" fill="#ffffff">OUT ◉</text>
</g>
<!-- check&#45;&gt;fetch_progress_timer -->
<g id="edge12" class="edge"><title>check:OUT_NEED_UPDATE:e&#45;&gt;fetch_progress_timer:IN_ENABLED:w</title>
<path fill="none" stroke="#a575b8" stroke-width="2" d="M241,-264.838C304.723,-264.838 255.272,-182.912 292,-130.838 311.731,-102.863 316.973,-80.6359 348.963,-78.942"/>
<ellipse fill="#a575b8" stroke="#a575b8" stroke-width="2" cx="351.001" cy="-78.8897" rx="2" ry="2"/>
</g>
<!-- error_check -->
<g id="node6" class="node"><title>error_check</title>
<polygon fill="#471ca4" stroke="none" points="348,-458.838 348,-487.838 427,-487.838 427,-458.838 348,-458.838"/>
<polygon fill="none" stroke="#1d0b45" points="348,-458.838 348,-487.838 427,-487.838 427,-458.838 348,-458.838"/>
<text text-anchor="start" x="351.5" y="-474.138" font-family="Helvetica,sans-Serif" font-size="14.00" fill="#ffffff">error_check</text>
<text text-anchor="start" x="373.5" y="-464.938" font-family="Helvetica,sans-Serif" font-size="8.00" fill="#ffffff">console</text>
<polygon fill="#35157b" stroke="none" points="348,-441.838 348,-458.838 427,-458.838 427,-441.838 348,-441.838"/>
<polygon fill="none" stroke="#1d0b45" points="348,-441.838 348,-458.838 427,-458.838 427,-441.838 348,-441.838"/>
<text text-anchor="start" x="351" y="-447.838" font-family="Helvetica,sans-Serif" font-size="10.00" fill="#ffffff">◎ IN</text>
</g>
<!-- check&#45;&gt;error_check -->
<g id="edge3" class="edge"><title>check:OUT_ERROR:e&#45;&gt;error_check:IN_IN:w</title>
<path fill="none" stroke="#9f169a" stroke-width="2" d="M241,-316.838C295.696,-316.838 252.134,-391.391 292,-428.838 310.029,-445.773 319.739,-449.456 342.85,-449.809"/>
<ellipse fill="#9f169a" stroke="#9f169a" stroke-width="2" cx="345" cy="-449.824" rx="2" ry="2"/>
</g>
<!-- print_version -->
<g id="node10" class="node"><title>print_version</title>
<polygon fill="#471ca4" stroke="none" points="345,-386.838 345,-415.838 430,-415.838 430,-386.838 345,-386.838"/>
<polygon fill="none" stroke="#1d0b45" points="345,-386.838 345,-415.838 430,-415.838 430,-386.838 345,-386.838"/>
<text text-anchor="start" x="348.5" y="-402.138" font-family="Helvetica,sans-Serif" font-size="14.00" fill="#ffffff">print_version</text>
<text text-anchor="start" x="373.5" y="-392.938" font-family="Helvetica,sans-Serif" font-size="8.00" fill="#ffffff">console</text>
<polygon fill="#35157b" stroke="none" points="345,-369.838 345,-386.838 430,-386.838 430,-369.838 345,-369.838"/>
<polygon fill="none" stroke="#1d0b45" points="345,-369.838 345,-386.838 430,-386.838 430,-369.838 345,-369.838"/>
<text text-anchor="start" x="348" y="-375.838" font-family="Helvetica,sans-Serif" font-size="10.00" fill="#ffffff">◎ IN</text>
</g>
<!-- check&#45;&gt;print_version -->
<g id="edge7" class="edge"><title>check:OUT_VERSION:e&#45;&gt;print_version:IN_IN:w</title>
<path fill="none" stroke="#a4a2e4" stroke-width="2" d="M241,-298.838C275.326,-298.838 263.997,-336.987 292,-356.838 311.142,-370.408 318.239,-377.04 339.8,-377.77"/>
<ellipse fill="#a4a2e4" stroke="#a4a2e4" stroke-width="2" cx="342" cy="-377.806" rx="2" ry="2"/>
</g>
<!-- print_size -->
<g id="node11" class="node"><title>print_size</title>
<polygon fill="#471ca4" stroke="none" points="355,-314.838 355,-343.838 420,-343.838 420,-314.838 355,-314.838"/>
<polygon fill="none" stroke="#1d0b45" points="355,-314.838 355,-343.838 420,-343.838 420,-314.838 355,-314.838"/>
<text text-anchor="start" x="358.5" y="-330.138" font-family="Helvetica,sans-Serif" font-size="14.00" fill="#ffffff">print_size</text>
<text text-anchor="start" x="373.5" y="-320.938" font-family="Helvetica,sans-Serif" font-size="8.00" fill="#ffffff">console</text>
<polygon fill="#35157b" stroke="none" points="355,-297.838 355,-314.838 420,-314.838 420,-297.838 355,-297.838"/>
<polygon fill="none" stroke="#1d0b45" points="355,-297.838 355,-314.838 420,-314.838 420,-297.838 355,-297.838"/>
<text text-anchor="start" x="358" y="-303.838" font-family="Helvetica,sans-Serif" font-size="10.00" fill="#ffffff">◎ IN</text>
</g>
<!-- check&#45;&gt;print_size -->
<g id="edge8" class="edge"><title>check:OUT_SIZE:e&#45;&gt;print_size:IN_IN:w</title>
<path fill="none" stroke="#b5acf2" stroke-width="2" d="M241,-281.838C290.939,-281.838 302.063,-304.544 349.879,-305.785"/>
<ellipse fill="#b5acf2" stroke="#b5acf2" stroke-width="2" cx="352" cy="-305.813" rx="2" ry="2"/>
</g>
<!-- print_need_update -->
<g id="node12" class="node"><title>print_need_update</title>
<polygon fill="#471ca4" stroke="none" points="327,-160.838 327,-189.838 447,-189.838 447,-160.838 327,-160.838"/>
<polygon fill="none" stroke="#1d0b45" points="327,-160.838 327,-189.838 447,-189.838 447,-160.838 327,-160.838"/>
<text text-anchor="start" x="330.5" y="-176.138" font-family="Helvetica,sans-Serif" font-size="14.00" fill="#ffffff">print_need_update</text>
<text text-anchor="start" x="373" y="-166.938" font-family="Helvetica,sans-Serif" font-size="8.00" fill="#ffffff">console</text>
<polygon fill="#35157b" stroke="none" points="327,-143.838 327,-160.838 447,-160.838 447,-143.838 327,-143.838"/>
<polygon fill="none" stroke="#1d0b45" points="327,-143.838 327,-160.838 447,-160.838 447,-143.838 327,-143.838"/>
<text text-anchor="start" x="330" y="-149.838" font-family="Helvetica,sans-Serif" font-size="10.00" fill="#ffffff">◎ IN</text>
</g>
<!-- check&#45;&gt;print_need_update -->
<g id="edge9" class="edge"><title>check:OUT_NEED_UPDATE:e&#45;&gt;print_need_update:IN_IN:w</title>
<path fill="none" stroke="#0483a4" stroke-width="2" d="M241,-264.838C302.372,-264.838 265.006,-157.073 321.749,-152.022"/>
<ellipse fill="#0483a4" stroke="#0483a4" stroke-width="2" cx="324.002" cy="-151.924" rx="2" ry="2"/>
</g>
<!-- #anon:53:36 -->
<g id="node13" class="node"><title>#anon:53:36</title>
<polygon fill="#bd648a" stroke="none" points="301,-249.838 301,-271.838 474,-271.838 474,-249.838 301,-249.838"/>
<polygon fill="none" stroke="#4e2a39" points="301,-249.838 301,-271.838 474,-271.838 474,-249.838 301,-249.838"/>
<text text-anchor="start" x="304.5" y="-257.138" font-family="Helvetica,sans-Serif" font-size="14.00" fill="#000000">converter/boolean&#45;to&#45;empty</text>
<polygon fill="#8d4b67" stroke="none" points="301,-232.838 301,-249.838 474,-249.838 474,-232.838 301,-232.838"/>
<polygon fill="none" stroke="#4e2a39" points="301,-232.838 301,-249.838 474,-249.838 474,-232.838 301,-232.838"/>
<text text-anchor="start" x="304" y="-238.838" font-family="Helvetica,sans-Serif" font-size="10.00" fill="#ffffff">◎ PULSE_IF_TRUE</text>
<polygon fill="#69384d" stroke="none" points="301,-215.838 301,-232.838 474,-232.838 474,-215.838 301,-215.838"/>
<polygon fill="none" stroke="#4e2a39" points="301,-215.838 301,-232.838 474,-232.838 474,-215.838 301,-215.838"/>
<text text-anchor="start" x="438" y="-221.838" font-family="Helvetica,sans-Serif" font-size="10.00" fill="#ffffff">OUT ◉</text>
</g>
<!-- check&#45;&gt;#anon:53:36 -->
<g id="edge10" class="edge"><title>check:OUT_NEED_UPDATE:e&#45;&gt;#anon:53:36:IN_PULSE_IF_TRUE:w</title>
<path fill="none" stroke="#60192e" stroke-width="2" d="M241,-264.838C267.871,-264.838 271.382,-243.214 295.881,-241.018"/>
<ellipse fill="#60192e" stroke="#60192e" stroke-width="2" cx="298.002" cy="-240.925" rx="2" ry="2"/>
</g>
<!-- fetch -->
<g id="node2" class="node"><title>fetch</title>
<polygon fill="#cef0f2" stroke="none" points="527,-248.838 527,-277.838 628,-277.838 628,-248.838 527,-248.838"/>
<polygon fill="none" stroke="#566565" points="527,-248.838 527,-277.838 628,-277.838 628,-248.838 527,-248.838"/>
<text text-anchor="start" x="562.5" y="-264.138" font-family="Helvetica,sans-Serif" font-size="14.00" fill="#000000">fetch</text>
<text text-anchor="start" x="555" y="-254.938" font-family="Helvetica,sans-Serif" font-size="8.00" fill="#000000">update/fetch</text>
<polygon fill="#9ab4b5" stroke="none" points="527,-231.838 527,-248.838 628,-248.838 628,-231.838 527,-231.838"/>
<polygon fill="none" stroke="#566565" points="527,-231.838 527,-248.838 628,-248.838 628,-231.838 527,-231.838"/>
<text text-anchor="start" x="530" y="-237.838" font-family="Helvetica,sans-Serif" font-size="10.00" fill="#000000">◎ GET_PROGRESS</text>
<polygon fill="#9ab4b5" stroke="none" points="527,-214.838 527,-231.838 628,-231.838 628,-214.838 527,-214.838"/>
<polygon fill="none" stroke="#566565" points="527,-214.838 527,-231.838 628,-231.838 628,-214.838 527,-214.838"/>
<text text-anchor="start" x="530" y="-220.838" font-family="Helvetica,sans-Serif" font-size="10.00" fill="#000000">◎ FETCH</text>
<polygon fill="#738787" stroke="none" points="527,-197.838 527,-214.838 628,-214.838 628,-197.838 527,-197.838"/>
<polygon fill="none" stroke="#566565" points="527,-197.838 527,-214.838 628,-214.838 628,-197.838 527,-197.838"/>
<text text-anchor="start" x="576" y="-203.838" font-family="Helvetica,sans-Serif" font-size="10.00" fill="#000000">ERROR ◉</text>
<polygon fill="#738787" stroke="none" points="527,-180.838 527,-197.838 628,-197.838 628,-180.838 527,-180.838"/>
<polygon fill="none" stroke="#566565" points="527,-180.838 527,-197.838 628,-197.838 628,-180.838 527,-180.838"/>
<text text-anchor="start" x="556" y="-186.838" font-family="Helvetica,sans-Serif" font-size="10.00" fill="#000000">PROGRESS ◉</text>
<polygon fill="#738787" stroke="none" points="527,-163.838 527,-180.838 628,-180.838 628,-163.838 527,-163.838"/>
<polygon fill="none" stroke="#566565" points="527,-163.838 527,-180.838 628,-180.838 628,-163.838 527,-163.838"/>
<text text-anchor="start" x="564" y="-169.838" font-family="Helvetica,sans-Serif" font-size="10.00" fill="#000000">SUCCESS ◉</text>
</g>
<!-- error_fetch -->
<g id="node7" class="node"><title>error_fetch</title>
<polygon fill="#471ca4" stroke="none" points="731,-357.838 731,-386.838 804,-386.838 804,-357.838 731,-357.838"/>
<polygon fill="none" stroke="#1d0b45" points="731,-357.838 731,-386.838 804,-386.838 804,-357.838 731,-357.838"/>
<text text-anchor="start" x="734.5" y="-373.138" font-family="Helvetica,sans-Serif" font-size="14.00" fill="#ffffff">error_fetch</text>
<text text-anchor="start" x="753.5" y="-363.938" font-family="Helvetica,sans-Serif" font-size="8.00" fill="#ffffff">console</text>
<polygon fill="#35157b" stroke="none" points="731,-340.838 731,-357.838 804,-357.838 804,-340.838 731,-340.838"/>
<polygon fill="none" stroke="#1d0b45" points="731,-340.838 731,-357.838 804,-357.838 804,-340.838 731,-340.838"/>
<text text-anchor="start" x="734" y="-346.838" font-family="Helvetica,sans-Serif" font-size="10.00" fill="#ffffff">◎ IN</text>
</g>
<!-- fetch&#45;&gt;error_fetch -->
<g id="edge4" class="edge"><title>fetch:OUT_ERROR:e&#45;&gt;error_fetch:IN_IN:w</title>
<path fill="none" stroke="#538e1a" stroke-width="2" d="M629,-205.838C686.492,-205.838 631.521,-287.013 672,-327.838 690.323,-346.318 701.418,-348.636 725.945,-348.824"/>
<ellipse fill="#538e1a" stroke="#538e1a" stroke-width="2" cx="728" cy="-348.831" rx="2" ry="2"/>
</g>
<!-- print_progress -->
<g id="node14" class="node"><title>print_progress</title>
<polygon fill="#471ca4" stroke="none" points="720,-285.838 720,-314.838 814,-314.838 814,-285.838 720,-285.838"/>
<polygon fill="none" stroke="#1d0b45" points="720,-285.838 720,-314.838 814,-314.838 814,-285.838 720,-285.838"/>
<text text-anchor="start" x="723.5" y="-301.138" font-family="Helvetica,sans-Serif" font-size="14.00" fill="#ffffff">print_progress</text>
<text text-anchor="start" x="753" y="-291.938" font-family="Helvetica,sans-Serif" font-size="8.00" fill="#ffffff">console</text>
<polygon fill="#35157b" stroke="none" points="720,-268.838 720,-285.838 814,-285.838 814,-268.838 720,-268.838"/>
<polygon fill="none" stroke="#1d0b45" points="720,-268.838 720,-285.838 814,-285.838 814,-268.838 720,-268.838"/>
<text text-anchor="start" x="723" y="-274.838" font-family="Helvetica,sans-Serif" font-size="10.00" fill="#ffffff">◎ IN</text>
</g>
<!-- fetch&#45;&gt;print_progress -->
<g id="edge13" class="edge"><title>fetch:OUT_PROGRESS:e&#45;&gt;print_progress:IN_IN:w</title>
<path fill="none" stroke="#a65e8e" stroke-width="2" d="M629,-188.838C664.383,-188.838 645.172,-232.769 672,-255.838 688.263,-269.823 695.233,-276.043 714.892,-276.766"/>
<ellipse fill="#a65e8e" stroke="#a65e8e" stroke-width="2" cx="717" cy="-276.803" rx="2" ry="2"/>
</g>
<!-- print_fetch_success -->
<g id="node15" class="node"><title>print_fetch_success</title>
<polygon fill="#471ca4" stroke="none" points="704,-213.838 704,-242.838 831,-242.838 831,-213.838 704,-213.838"/>
<polygon fill="none" stroke="#1d0b45" points="704,-213.838 704,-242.838 831,-242.838 831,-213.838 704,-213.838"/>
<text text-anchor="start" x="707.5" y="-229.138" font-family="Helvetica,sans-Serif" font-size="14.00" fill="#ffffff">print_fetch_success</text>
<text text-anchor="start" x="753.5" y="-219.938" font-family="Helvetica,sans-Serif" font-size="8.00" fill="#ffffff">console</text>
<polygon fill="#35157b" stroke="none" points="704,-196.838 704,-213.838 831,-213.838 831,-196.838 704,-196.838"/>
<polygon fill="none" stroke="#1d0b45" points="704,-196.838 704,-213.838 831,-213.838 831,-196.838 704,-196.838"/>
<text text-anchor="start" x="707" y="-202.838" font-family="Helvetica,sans-Serif" font-size="10.00" fill="#ffffff">◎ IN</text>
</g>
<!-- fetch&#45;&gt;print_fetch_success -->
<g id="edge14" class="edge"><title>fetch:OUT_SUCCESS:e&#45;&gt;print_fetch_success:IN_IN:w</title>
<path fill="none" stroke="#0c91b6" stroke-width="2" d="M629,-171.838C663.604,-171.838 666.783,-202.311 698.932,-204.691"/>
<ellipse fill="#0c91b6" stroke="#0c91b6" stroke-width="2" cx="701.001" cy="-204.766" rx="2" ry="2"/>
</g>
<!-- #anon:58:32 -->
<g id="node16" class="node"><title>#anon:58:32</title>
<polygon fill="#bd648a" stroke="none" points="681,-148.838 681,-170.838 854,-170.838 854,-148.838 681,-148.838"/>
<polygon fill="none" stroke="#4e2a39" points="681,-148.838 681,-170.838 854,-170.838 854,-148.838 681,-148.838"/>
<text text-anchor="start" x="684.5" y="-156.138" font-family="Helvetica,sans-Serif" font-size="14.00" fill="#000000">converter/boolean&#45;to&#45;empty</text>
<polygon fill="#8d4b67" stroke="none" points="681,-131.838 681,-148.838 854,-148.838 854,-131.838 681,-131.838"/>
<polygon fill="none" stroke="#4e2a39" points="681,-131.838 681,-148.838 854,-148.838 854,-131.838 681,-131.838"/>
<text text-anchor="start" x="684" y="-137.838" font-family="Helvetica,sans-Serif" font-size="10.00" fill="#ffffff">◎ PULSE_IF_TRUE</text>
<polygon fill="#69384d" stroke="none" points="681,-114.838 681,-131.838 854,-131.838 854,-114.838 681,-114.838"/>
<polygon fill="none" stroke="#4e2a39" points="681,-114.838 681,-131.838 854,-131.838 854,-114.838 681,-114.838"/>
<text text-anchor="start" x="818" y="-120.838" font-family="Helvetica,sans-Serif" font-size="10.00" fill="#ffffff">OUT ◉</text>
</g>
<!-- fetch&#45;&gt;#anon:58:32 -->
<g id="edge15" class="edge"><title>fetch:OUT_SUCCESS:e&#45;&gt;#anon:58:32:IN_PULSE_IF_TRUE:w</title>
<path fill="none" stroke="#cf0d46" stroke-width="2" d="M629,-171.838C654.296,-171.838 653.429,-143.243 675.863,-140.115"/>
<ellipse fill="#cf0d46" stroke="#cf0d46" stroke-width="2" cx="678.004" cy="-139.972" rx="2" ry="2"/>
</g>
<!-- #anon:59:21 -->
<g id="node17" class="node"><title>#anon:59:21</title>
<polygon fill="#bd648a" stroke="none" points="681,-66.8383 681,-88.8383 854,-88.8383 854,-66.8383 681,-66.8383"/>
<polygon fill="none" stroke="#4e2a39" points="681,-66.8383 681,-88.8383 854,-88.8383 854,-66.8383 681,-66.8383"/>
<text text-anchor="start" x="684.5" y="-74.1383" font-family="Helvetica,sans-Serif" font-size="14.00" fill="#000000">converter/empty&#45;to&#45;boolean</text>
<polygon fill="#8d4b67" stroke="none" points="681,-49.8383 681,-66.8383 854,-66.8383 854,-49.8383 681,-49.8383"/>
<polygon fill="none" stroke="#4e2a39" points="681,-49.8383 681,-66.8383 854,-66.8383 854,-49.8383 681,-49.8383"/>
<text text-anchor="start" x="684" y="-55.8383" font-family="Helvetica,sans-Serif" font-size="10.00" fill="#ffffff">◎ IN</text>
<polygon fill="#69384d" stroke="none" points="681,-32.8383 681,-49.8383 854,-49.8383 854,-32.8383 681,-32.8383"/>
<polygon fill="none" stroke="#4e2a39" points="681,-32.8383 681,-49.8383 854,-49.8383 854,-32.8383 681,-32.8383"/>
<text text-anchor="start" x="818" y="-38.8383" font-family="Helvetica,sans-Serif" font-size="10.00" fill="#ffffff">OUT ◉</text>
</g>
<!-- fetch&#45;&gt;#anon:59:21 -->
<g id="edge17" class="edge"><title>fetch:OUT_SUCCESS:e&#45;&gt;#anon:59:21:IN_IN:w</title>
<path fill="none" stroke="#b0c374" stroke-width="2" d="M629,-171.838C683.096,-171.838 627.467,-63.5538 675.992,-58.055"/>
<ellipse fill="#b0c374" stroke="#b0c374" stroke-width="2" cx="678.003" cy="-57.9463" rx="2" ry="2"/>
</g>
<!-- install -->
<g id="node3" class="node"><title>install</title>
<polygon fill="#cef0f2" stroke="none" points="906,-130.838 906,-159.838 974,-159.838 974,-130.838 906,-130.838"/>
<polygon fill="none" stroke="#566565" points="906,-130.838 906,-159.838 974,-159.838 974,-130.838 906,-130.838"/>
<text text-anchor="start" x="922.5" y="-146.138" font-family="Helvetica,sans-Serif" font-size="14.00" fill="#000000">install</text>
<text text-anchor="start" x="916.5" y="-136.938" font-family="Helvetica,sans-Serif" font-size="8.00" fill="#000000">update/install</text>
<polygon fill="#9ab4b5" stroke="none" points="906,-113.838 906,-130.838 974,-130.838 974,-113.838 906,-113.838"/>
<polygon fill="none" stroke="#566565" points="906,-113.838 906,-130.838 974,-130.838 974,-113.838 906,-113.838"/>
<text text-anchor="start" x="909" y="-119.838" font-family="Helvetica,sans-Serif" font-size="10.00" fill="#000000">◎ INSTALL</text>
<polygon fill="#738787" stroke="none" points="906,-96.8383 906,-113.838 974,-113.838 974,-96.8383 906,-96.8383"/>
<polygon fill="none" stroke="#566565" points="906,-96.8383 906,-113.838 974,-113.838 974,-96.8383 906,-96.8383"/>
<text text-anchor="start" x="922" y="-102.838" font-family="Helvetica,sans-Serif" font-size="10.00" fill="#000000">ERROR ◉</text>
<polygon fill="#738787" stroke="none" points="906,-79.8383 906,-96.8383 974,-96.8383 974,-79.8383 906,-79.8383"/>
<polygon fill="none" stroke="#566565" points="906,-79.8383 906,-96.8383 974,-96.8383 974,-79.8383 906,-79.8383"/>
<text text-anchor="start" x="910" y="-85.8383" font-family="Helvetica,sans-Serif" font-size="10.00" fill="#000000">SUCCESS ◉</text>
</g>
<!-- error_install -->
<g id="node8" class="node"><title>error_install</title>
<polygon fill="#471ca4" stroke="none" points="1032,-141.838 1032,-170.838 1110,-170.838 1110,-141.838 1032,-141.838"/>
<polygon fill="none" stroke="#1d0b45" points="1032,-141.838 1032,-170.838 1110,-170.838 1110,-141.838 1032,-141.838"/>
<text text-anchor="start" x="1035.5" y="-157.138" font-family="Helvetica,sans-Serif" font-size="14.00" fill="#ffffff">error_install</text>
<text text-anchor="start" x="1057" y="-147.938" font-family="Helvetica,sans-Serif" font-size="8.00" fill="#ffffff">console</text>
<polygon fill="#35157b" stroke="none" points="1032,-124.838 1032,-141.838 1110,-141.838 1110,-124.838 1032,-124.838"/>
<polygon fill="none" stroke="#1d0b45" points="1032,-124.838 1032,-141.838 1110,-141.838 1110,-124.838 1032,-124.838"/>
<text text-anchor="start" x="1035" y="-130.838" font-family="Helvetica,sans-Serif" font-size="10.00" fill="#ffffff">◎ IN</text>
</g>
<!-- install&#45;&gt;error_install -->
<g id="edge5" class="edge"><title>install:OUT_ERROR:e&#45;&gt;error_install:IN_IN:w</title>
<path fill="none" stroke="#a87fb4" stroke-width="2" d="M975,-104.838C1001.41,-104.838 1003.07,-130.067 1026.97,-132.629"/>
<ellipse fill="#a87fb4" stroke="#a87fb4" stroke-width="2" cx="1029" cy="-132.735" rx="2" ry="2"/>
</g>
<!-- print_success -->
<g id="node18" class="node"><title>print_success</title>
<polygon fill="#471ca4" stroke="none" points="1026,-69.8383 1026,-98.8383 1116,-98.8383 1116,-69.8383 1026,-69.8383"/>
<polygon fill="none" stroke="#1d0b45" points="1026,-69.8383 1026,-98.8383 1116,-98.8383 1116,-69.8383 1026,-69.8383"/>
<text text-anchor="start" x="1029.5" y="-85.1383" font-family="Helvetica,sans-Serif" font-size="14.00" fill="#ffffff">print_success</text>
<text text-anchor="start" x="1057" y="-75.9383" font-family="Helvetica,sans-Serif" font-size="8.00" fill="#ffffff">console</text>
<polygon fill="#35157b" stroke="none" points="1026,-52.8383 1026,-69.8383 1116,-69.8383 1116,-52.8383 1026,-52.8383"/>
<polygon fill="none" stroke="#1d0b45" points="1026,-52.8383 1026,-69.8383 1116,-69.8383 1116,-52.8383 1026,-52.8383"/>
<text text-anchor="start" x="1029" y="-58.8383" font-family="Helvetica,sans-Serif" font-size="10.00" fill="#ffffff">◎ IN</text>
</g>
<!-- install&#45;&gt;print_success -->
<g id="edge19" class="edge"><title>install:OUT_SUCCESS:e&#45;&gt;print_success:IN_IN:w</title>
<path fill="none" stroke="#166a74" stroke-width="2" d="M975,-87.8383C998.775,-87.8383 999.716,-63.9096 1020.82,-61.1055"/>
<ellipse fill="#166a74" stroke="#166a74" stroke-width="2" cx="1023" cy="-60.9658" rx="2" ry="2"/>
</g>
<!-- fetch_progress_timer&#45;&gt;fetch -->
<g id="edge1" class="edge"><title>fetch_progress_timer:OUT_OUT:e&#45;&gt;fetch:IN_GET_PROGRESS:w</title>
<path fill="none" stroke="#0d5827" stroke-width="2" d="M421,-61.8383C461.932,-61.8383 460.528,-95.9901 482,-130.838 508.866,-174.441 475.281,-237.289 521.877,-240.694"/>
<ellipse fill="#0d5827" stroke="#0d5827" stroke-width="2" cx="524.001" cy="-240.768" rx="2" ry="2"/>
</g>
<!-- #anon:42:1 -->
<g id="node5" class="node"><title>#anon:42:1</title>
<polygon fill="#e8ea7a" stroke="none" points="138,-87.8383 138,-109.838 248,-109.838 248,-87.8383 138,-87.8383"/>
<polygon fill="none" stroke="#616233" points="138,-87.8383 138,-109.838 248,-109.838 248,-87.8383 138,-87.8383"/>
<text text-anchor="start" x="141.5" y="-95.1383" font-family="Helvetica,sans-Serif" font-size="14.00" fill="#000000">constant/boolean</text>
<polygon fill="#828344" stroke="none" points="138,-70.8383 138,-87.8383 248,-87.8383 248,-70.8383 138,-70.8383"/>
<polygon fill="none" stroke="#616233" points="138,-70.8383 138,-87.8383 248,-87.8383 248,-70.8383 138,-70.8383"/>
<text text-anchor="start" x="212" y="-76.8383" font-family="Helvetica,sans-Serif" font-size="10.00" fill="#ffffff">OUT ◉</text>
</g>
<!-- #anon:42:1&#45;&gt;fetch_progress_timer -->
<g id="edge2" class="edge"><title>#anon:42:1:OUT_OUT:e&#45;&gt;fetch_progress_timer:IN_ENABLED:w</title>
<path fill="none" stroke="#5e42ee" stroke-width="2" d="M249,-78.8383C293.778,-78.8383 306.022,-78.8383 348.766,-78.8383"/>
<ellipse fill="#5e42ee" stroke="#5e42ee" stroke-width="2" cx="351" cy="-78.8383" rx="2" ry="2"/>
</g>
<!-- #anon:48:1 -->
<g id="node9" class="node"><title>#anon:48:1</title>
<polygon fill="#e8ea7a" stroke="none" points="9,-342.838 9,-364.838 86,-364.838 86,-342.838 9,-342.838"/>
<polygon fill="none" stroke="#616233" points="9,-342.838 9,-364.838 86,-364.838 86,-342.838 9,-342.838"/>
<text text-anchor="start" x="12.5" y="-350.138" font-family="Helvetica,sans-Serif" font-size="14.00" fill="#000000">constant/int</text>
<polygon fill="#828344" stroke="none" points="9,-325.838 9,-342.838 86,-342.838 86,-325.838 9,-325.838"/>
<polygon fill="none" stroke="#616233" points="9,-325.838 9,-342.838 86,-342.838 86,-325.838 9,-325.838"/>
<text text-anchor="start" x="50" y="-331.838" font-family="Helvetica,sans-Serif" font-size="10.00" fill="#ffffff">OUT ◉</text>
</g>
<!-- #anon:48:1&#45;&gt;check -->
<g id="edge6" class="edge"><title>#anon:48:1:OUT_OUT:e&#45;&gt;check:IN_CHECK:w</title>
<path fill="none" stroke="#d1c41e" stroke-width="2" d="M87,-333.838C111.368,-333.838 118.46,-333.838 140.938,-333.838"/>
<ellipse fill="#d1c41e" stroke="#d1c41e" stroke-width="2" cx="143" cy="-333.838" rx="2" ry="2"/>
</g>
<!-- #anon:53:36&#45;&gt;fetch -->
<g id="edge11" class="edge"><title>#anon:53:36:OUT_OUT:e&#45;&gt;fetch:IN_FETCH:w</title>
<path fill="none" stroke="#4f7b68" stroke-width="2" d="M475,-223.838C496.25,-223.838 502.559,-223.838 521.941,-223.838"/>
<ellipse fill="#4f7b68" stroke="#4f7b68" stroke-width="2" cx="524" cy="-223.838" rx="2" ry="2"/>
</g>
<!-- #anon:58:32&#45;&gt;install -->
<g id="edge16" class="edge"><title>#anon:58:32:OUT_OUT:e&#45;&gt;install:IN_INSTALL:w</title>
<path fill="none" stroke="#df42d0" stroke-width="2" d="M855,-122.838C875.66,-122.838 881.914,-122.838 900.548,-122.838"/>
<ellipse fill="#df42d0" stroke="#df42d0" stroke-width="2" cx="903" cy="-122.838" rx="2" ry="2"/>
</g>
<!-- #anon:59:21&#45;&gt;fetch_progress_timer -->
<g id="edge18" class="edge"><title>#anon:59:21:OUT_OUT:e&#45;&gt;fetch_progress_timer:IN_ENABLED:w</title>
<path fill="none" stroke="#f0480a" stroke-width="2" d="M855,-40.8383C860.352,-40.8383 857.938,-32.462 854,-28.8383 794.475,25.9324 752.843,-26.1085 672,-28.8383 530.425,-33.6188 452.528,51.4388 354,-50.3383 346.286,-58.3063 341.602,-74.1506 349.042,-77.9872"/>
<ellipse fill="#f0480a" stroke="#f0480a" stroke-width="2" cx="351.045" cy="-78.4177" rx="2.00001" ry="2.00001"/>
</g>
</g>
</svg>
