<?xml version="1.0" encoding="UTF-8" standalone="no"?>
<!DOCTYPE svg PUBLIC "-//W3C//DTD SVG 1.1//EN"
 "http://www.w3.org/Graphics/SVG/1.1/DTD/svg11.dtd">
<!-- Generated by graphviz version 2.36.0 (20140111.2315)
 -->
<!-- Title: fbp Pages: 1 -->
<svg width="676pt" height="347pt"
 viewBox="0.00 0.00 676.00 347.00" xmlns="http://www.w3.org/2000/svg" xmlns:xlink="http://www.w3.org/1999/xlink">
<g id="graph0" class="graph" transform="scale(1 1) rotate(0) translate(4 343)">
<title>fbp</title>
<polygon fill="white" stroke="none" points="-4,4 -4,-343 672,-343 672,4 -4,4"/>
<!-- Args -->
<g id="node1" class="node"><title>Args</title>
<polygon fill="#4e2e10" stroke="none" points="18,-185 18,-214 76,-214 76,-185 18,-185"/>
<polygon fill="none" stroke="#201206" points="18,-185 18,-214 76,-214 76,-185 18,-185"/>
<text text-anchor="start" x="33" y="-200.3" font-family="Helvetica,sans-Serif" font-size="14.00" fill="#ffffff">Args</text>
<text text-anchor="start" x="21.5" y="-191.1" font-family="Helvetica,sans-Serif" font-size="8.00" fill="#ffffff">app/argc&#45;argv</text>
<polygon fill="#3a220c" stroke="none" points="18,-168 18,-185 76,-185 76,-168 18,-168"/>
<polygon fill="none" stroke="#201206" points="18,-168 18,-185 76,-185 76,-168 18,-168"/>
<text text-anchor="start" x="21" y="-174" font-family="Helvetica,sans-Serif" font-size="10.00" fill="#ffffff">◎ IN</text>
<polygon fill="#2b1909" stroke="none" points="18,-151 18,-168 76,-168 76,-151 18,-151"/>
<polygon fill="none" stroke="#201206" points="18,-151 18,-168 76,-168 76,-151 18,-151"/>
<text text-anchor="start" x="32" y="-157" font-family="Helvetica,sans-Serif" font-size="10.00" fill="#ffffff">ARGC ◉</text>
<polygon fill="#2b1909" stroke="none" points="18,-134 18,-151 76,-151 76,-134 18,-134"/>
<polygon fill="none" stroke="#201206" points="18,-134 18,-151 76,-151 76,-134 18,-134"/>
<text text-anchor="start" x="40" y="-140" font-family="Helvetica,sans-Serif" font-size="10.00" fill="#ffffff">OUT ◉</text>
</g>
<!-- #anon:88:17 -->
<g id="node2" class="node"><title>#anon:88:17</title>
<polygon fill="#471ca4" stroke="none" points="156,-192 156,-214 210,-214 210,-192 156,-192"/>
<polygon fill="none" stroke="#1d0b45" points="156,-192 156,-214 210,-214 210,-192 156,-192"/>
<text text-anchor="start" x="159.5" y="-199.3" font-family="Helvetica,sans-Serif" font-size="14.00" fill="#ffffff">console</text>
<polygon fill="#35157b" stroke="none" points="156,-175 156,-192 210,-192 210,-175 156,-175"/>
<polygon fill="none" stroke="#1d0b45" points="156,-175 156,-192 210,-192 210,-175 156,-175"/>
<text text-anchor="start" x="159" y="-181" font-family="Helvetica,sans-Serif" font-size="10.00" fill="#ffffff">◎ IN</text>
</g>
<!-- Args&#45;&gt;#anon:88:17 -->
<g id="edge1" class="edge"><title>Args:ARGC:e&#45;&gt;#anon:88:17:IN:w</title>
<path fill="none" stroke="#6e0b64" stroke-width="2" d="M77,-159C111.854,-159 118.256,-181.162 150.887,-182.893"/>
<ellipse fill="#6e0b64" stroke="#6e0b64" stroke-width="2" cx="153.001" cy="-182.948" rx="2" ry="2"/>
</g>
<!-- #anon:92:16 -->
<g id="node3" class="node"><title>#anon:92:16</title>
<polygon fill="#471ca4" stroke="none" points="156,-127 156,-149 210,-149 210,-127 156,-127"/>
<polygon fill="none" stroke="#1d0b45" points="156,-127 156,-149 210,-149 210,-127 156,-127"/>
<text text-anchor="start" x="159.5" y="-134.3" font-family="Helvetica,sans-Serif" font-size="14.00" fill="#ffffff">console</text>
<polygon fill="#35157b" stroke="none" points="156,-110 156,-127 210,-127 210,-110 156,-110"/>
<polygon fill="none" stroke="#1d0b45" points="156,-110 156,-127 210,-127 210,-110 156,-110"/>
<text text-anchor="start" x="159" y="-116" font-family="Helvetica,sans-Serif" font-size="10.00" fill="#ffffff">◎ IN</text>
</g>
<!-- Args&#45;&gt;#anon:92:16 -->
<g id="edge2" class="edge"><title>Args:OUT:e&#45;&gt;#anon:92:16:IN:w</title>
<path fill="none" stroke="#9790d4" stroke-width="2" d="M77,-142C111.854,-142 118.256,-119.838 150.887,-118.107"/>
<ellipse fill="#9790d4" stroke="#9790d4" stroke-width="2" cx="153.001" cy="-118.052" rx="2" ry="2"/>
</g>
<!-- Subtraction -->
<g id="node4" class="node"><title>Subtraction</title>
<polygon fill="#254878" stroke="none" points="139,-55 139,-84 228,-84 228,-55 139,-55"/>
<polygon fill="none" stroke="#0f1e32" points="139,-55 139,-84 228,-84 228,-55 139,-55"/>
<text text-anchor="start" x="149" y="-70.3" font-family="Helvetica,sans-Serif" font-size="14.00" fill="#ffffff">Subtraction</text>
<text text-anchor="start" x="158.5" y="-61.1" font-family="Helvetica,sans-Serif" font-size="8.00" fill="#ffffff">int/subtraction</text>
<polygon fill="#1b365a" stroke="none" points="139,-38 139,-55 228,-55 228,-38 139,-38"/>
<polygon fill="none" stroke="#0f1e32" points="139,-38 139,-55 228,-55 228,-38 139,-38"/>
<text text-anchor="start" x="142" y="-44" font-family="Helvetica,sans-Serif" font-size="10.00" fill="#ffffff">◎ MINUEND</text>
<polygon fill="#1b365a" stroke="none" points="139,-21 139,-38 228,-38 228,-21 139,-21"/>
<polygon fill="none" stroke="#0f1e32" points="139,-21 139,-38 228,-38 228,-21 139,-21"/>
<text text-anchor="start" x="142" y="-27" font-family="Helvetica,sans-Serif" font-size="10.00" fill="#ffffff">◎ SUBTRAHEND</text>
<polygon fill="#142843" stroke="none" points="139,-4 139,-21 228,-21 228,-4 139,-4"/>
<polygon fill="none" stroke="#0f1e32" points="139,-4 139,-21 228,-21 228,-4 139,-4"/>
<text text-anchor="start" x="192" y="-10" font-family="Helvetica,sans-Serif" font-size="10.00" fill="#ffffff">OUT ◉</text>
</g>
<!-- Args&#45;&gt;Subtraction -->
<g id="edge3" class="edge"><title>Args:ARGC:e&#45;&gt;Subtraction:MINUEND:w</title>
<path fill="none" stroke="#791245" stroke-width="2" d="M77,-159C132.243,-159 83.9069,-52.6153 133.89,-47.2129"/>
<ellipse fill="#791245" stroke="#791245" stroke-width="2" cx="136.003" cy="-47.1035" rx="2" ry="2"/>
</g>
<!-- Limit -->
<g id="node7" class="node"><title>Limit</title>
<polygon fill="#254878" stroke="none" points="280,-185 280,-214 320,-214 320,-185 280,-185"/>
<polygon fill="none" stroke="#0f1e32" points="280,-185 280,-214 320,-214 320,-185 280,-185"/>
<text text-anchor="start" x="285" y="-200.3" font-family="Helvetica,sans-Serif" font-size="14.00" fill="#ffffff">Limit</text>
<text text-anchor="start" x="284.5" y="-191.1" font-family="Helvetica,sans-Serif" font-size="8.00" fill="#ffffff">int/equal</text>
<polygon fill="#1b365a" stroke="none" points="280,-168 280,-185 320,-185 320,-168 280,-168"/>
<polygon fill="none" stroke="#0f1e32" points="280,-168 280,-185 320,-185 320,-168 280,-168"/>
<text text-anchor="start" x="283" y="-174" font-family="Helvetica,sans-Serif" font-size="10.00" fill="#ffffff">◎ IN</text>
<polygon fill="#142843" stroke="none" points="280,-151 280,-168 320,-168 320,-151 280,-151"/>
<polygon fill="none" stroke="#0f1e32" points="280,-151 280,-168 320,-168 320,-151 280,-151"/>
<text text-anchor="start" x="284" y="-157" font-family="Helvetica,sans-Serif" font-size="10.00" fill="#ffffff">OUT ◉</text>
</g>
<!-- Subtraction&#45;&gt;Limit -->
<g id="edge6" class="edge"><title>Subtraction:OUT:e&#45;&gt;Limit:IN:w</title>
<path fill="none" stroke="#42a81c" stroke-width="2" d="M229,-12C303.713,-12 206.731,-169.656 274.737,-175.815"/>
<ellipse fill="#42a81c" stroke="#42a81c" stroke-width="2" cx="277.002" cy="-175.913" rx="2" ry="2"/>
</g>
<!-- #anon:97:1 -->
<g id="node5" class="node"><title>#anon:97:1</title>
<polygon fill="#e8ea7a" stroke="none" points="9,-38 9,-60 86,-60 86,-38 9,-38"/>
<polygon fill="none" stroke="#616233" points="9,-38 9,-60 86,-60 86,-38 9,-38"/>
<text text-anchor="start" x="12.5" y="-45.3" font-family="Helvetica,sans-Serif" font-size="14.00" fill="#000000">constant/int</text>
<polygon fill="#828344" stroke="none" points="9,-21 9,-38 86,-38 86,-21 9,-21"/>
<polygon fill="none" stroke="#616233" points="9,-21 9,-38 86,-38 86,-21 9,-21"/>
<text text-anchor="start" x="50" y="-27" font-family="Helvetica,sans-Serif" font-size="10.00" fill="#ffffff">OUT ◉</text>
</g>
<!-- #anon:97:1&#45;&gt;Subtraction -->
<g id="edge4" class="edge"><title>#anon:97:1:OUT:e&#45;&gt;Subtraction:SUBTRAHEND:w</title>
<path fill="none" stroke="#524313" stroke-width="2" d="M87,-29C108.25,-29 114.559,-29 133.941,-29"/>
<ellipse fill="#524313" stroke="#524313" stroke-width="2" cx="136" cy="-29" rx="2" ry="2"/>
</g>
<!-- Index -->
<g id="node6" class="node"><title>Index</title>
<polygon fill="#254878" stroke="none" points="598,-284 598,-313 660,-313 660,-284 598,-284"/>
<polygon fill="none" stroke="#0f1e32" points="598,-284 598,-313 660,-313 660,-284 598,-284"/>
<text text-anchor="start" x="612" y="-299.3" font-family="Helvetica,sans-Serif" font-size="14.00" fill="#ffffff">Index</text>
<text text-anchor="start" x="601.5" y="-290.1" font-family="Helvetica,sans-Serif" font-size="8.00" fill="#ffffff">int/accumulator</text>
<polygon fill="#1b365a" stroke="none" points="598,-267 598,-284 660,-284 660,-267 598,-267"/>
<polygon fill="none" stroke="#0f1e32" points="598,-267 598,-284 660,-284 660,-267 598,-267"/>
<text text-anchor="start" x="601" y="-273" font-family="Helvetica,sans-Serif" font-size="10.00" fill="#ffffff">◎ INC</text>
<polygon fill="#142843" stroke="none" points="598,-250 598,-267 660,-267 660,-250 598,-250"/>
<polygon fill="none" stroke="#0f1e32" points="598,-250 598,-267 660,-267 660,-250 598,-250"/>
<text text-anchor="start" x="624" y="-256" font-family="Helvetica,sans-Serif" font-size="10.00" fill="#ffffff">OUT ◉</text>
</g>
<!-- Index&#45;&gt;Args -->
<g id="edge5" class="edge"><title>Index:OUT:e&#45;&gt;Args:IN:w</title>
<path fill="none" stroke="#36979c" stroke-width="2" d="M458,-247C314.887,-217.867 275.638,-237.94 130,-227 80.1646,-223.257 52.1885,-253.452 18,-217 5.8344,-204.029 -0.783332,-177 17,-177"/>
</g>
<!-- Index&#45;&gt;Limit -->
<g id="edge7" class="edge"><title>Index:OUT:e&#45;&gt;Limit:IN:w</title>
<path fill="none" stroke="#a20e48" stroke-width="2" d="M458,-247C412.799,-237.798 398.783,-233.297 364,-203 341.83,-183.689 353.835,-161.536 328,-147.5 309.255,-137.316 295.347,-132.682 280,-147.5 270.882,-156.304 266.326,-176 279,-176"/>
<path fill="none" stroke="#a20e48" stroke-width="2" d="M661,-258C666.13,-258 663.782,-249.967 660,-246.5 637.068,-225.476 621.111,-246.44 590,-246.5 533.689,-246.608 517.437,-257.928 464.235,-247.833"/>
<ellipse fill="#a20e48" stroke="#a20e48" stroke-width="2" cx="461.962" cy="-247.386" rx="2.00001" ry="2.00001"/>
</g>
<!-- #anon:107:28 -->
<g id="node8" class="node"><title>#anon:107:28</title>
<polygon fill="#bd648a" stroke="none" points="373,-168 373,-190 546,-190 546,-168 373,-168"/>
<polygon fill="none" stroke="#4e2a39" points="373,-168 373,-190 546,-190 546,-168 373,-168"/>
<text text-anchor="start" x="376.5" y="-175.3" font-family="Helvetica,sans-Serif" font-size="14.00" fill="#000000">converter/boolean&#45;to&#45;empty</text>
<polygon fill="#8d4b67" stroke="none" points="373,-151 373,-168 546,-168 546,-151 373,-151"/>
<polygon fill="none" stroke="#4e2a39" points="373,-151 373,-168 546,-168 546,-151 373,-151"/>
<text text-anchor="start" x="376" y="-157" font-family="Helvetica,sans-Serif" font-size="10.00" fill="#ffffff">◎ PULSE_IF_TRUE</text>
<polygon fill="#69384d" stroke="none" points="373,-134 373,-151 546,-151 546,-134 373,-134"/>
<polygon fill="none" stroke="#4e2a39" points="373,-134 373,-151 546,-151 546,-134 373,-134"/>
<text text-anchor="start" x="510" y="-140" font-family="Helvetica,sans-Serif" font-size="10.00" fill="#ffffff">OUT ◉</text>
</g>
<!-- Limit&#45;&gt;#anon:107:28 -->
<g id="edge8" class="edge"><title>Limit:OUT:e&#45;&gt;#anon:107:28:PULSE_IF_TRUE:w</title>
<path fill="none" stroke="#c10600" stroke-width="2" d="M321,-159C342.25,-159 348.559,-159 367.941,-159"/>
<ellipse fill="#c10600" stroke="#c10600" stroke-width="2" cx="370" cy="-159" rx="2" ry="2"/>
</g>
<!-- #anon:108:29 -->
<g id="node10" class="node"><title>#anon:108:29</title>
<polygon fill="#bd648a" stroke="none" points="373,-313 373,-335 546,-335 546,-313 373,-313"/>
<polygon fill="none" stroke="#4e2a39" points="373,-313 373,-335 546,-335 546,-313 373,-313"/>
<text text-anchor="start" x="376.5" y="-320.3" font-family="Helvetica,sans-Serif" font-size="14.00" fill="#000000">converter/boolean&#45;to&#45;empty</text>
<polygon fill="#8d4b67" stroke="none" points="373,-296 373,-313 546,-313 546,-296 373,-296"/>
<polygon fill="none" stroke="#4e2a39" points="373,-296 373,-313 546,-313 546,-296 373,-296"/>
<text text-anchor="start" x="376" y="-302" font-family="Helvetica,sans-Serif" font-size="10.00" fill="#ffffff">◎ PULSE_IF_FALSE</text>
<polygon fill="#69384d" stroke="none" points="373,-279 373,-296 546,-296 546,-279 373,-279"/>
<polygon fill="none" stroke="#4e2a39" points="373,-279 373,-296 546,-296 546,-279 373,-279"/>
<text text-anchor="start" x="510" y="-285" font-family="Helvetica,sans-Serif" font-size="10.00" fill="#ffffff">OUT ◉</text>
</g>
<!-- Limit&#45;&gt;#anon:108:29 -->
<g id="edge10" class="edge"><title>Limit:OUT:e&#45;&gt;#anon:108:29:PULSE_IF_FALSE:w</title>
<path fill="none" stroke="#618e5e" stroke-width="2" d="M321,-159C387.847,-159 307.294,-297.836 367.807,-303.802"/>
<ellipse fill="#618e5e" stroke="#618e5e" stroke-width="2" cx="370.002" cy="-303.906" rx="2" ry="2"/>
</g>
<!-- #anon:107:70 -->
<g id="node9" class="node"><title>#anon:107:70</title>
<polygon fill="#4e2e10" stroke="none" points="601,-151 601,-173 657,-173 657,-151 601,-151"/>
<polygon fill="none" stroke="#201206" points="601,-151 601,-173 657,-173 657,-151 601,-151"/>
<text text-anchor="start" x="604.5" y="-158.3" font-family="Helvetica,sans-Serif" font-size="14.00" fill="#ffffff">app/quit</text>
<polygon fill="#3a220c" stroke="none" points="601,-134 601,-151 657,-151 657,-134 601,-134"/>
<polygon fill="none" stroke="#201206" points="601,-134 601,-151 657,-151 657,-134 601,-134"/>
<text text-anchor="start" x="604" y="-140" font-family="Helvetica,sans-Serif" font-size="10.00" fill="#ffffff">◎ QUIT</text>
</g>
<!-- #anon:107:28&#45;&gt;#anon:107:70 -->
<g id="edge9" class="edge"><title>#anon:107:28:OUT:e&#45;&gt;#anon:107:70:QUIT:w</title>
<path fill="none" stroke="#8188f8" stroke-width="2" d="M547,-142C569.083,-142 575.639,-142 595.782,-142"/>
<ellipse fill="#8188f8" stroke="#8188f8" stroke-width="2" cx="598" cy="-142" rx="2" ry="2"/>
</g>
<!-- #anon:108:29&#45;&gt;Index -->
<g id="edge11" class="edge"><title>#anon:108:29:OUT:e&#45;&gt;Index:INC:w</title>
<path fill="none" stroke="#501759" stroke-width="2" d="M547,-287C568.425,-287 573.538,-276.453 592.923,-275.135"/>
<ellipse fill="#501759" stroke="#501759" stroke-width="2" cx="595.001" cy="-275.066" rx="2" ry="2"/>
</g>
</g>
</svg>
