<?xml version="1.0" encoding="UTF-8" standalone="no"?>
<!DOCTYPE svg PUBLIC "-//W3C//DTD SVG 1.1//EN"
 "http://www.w3.org/Graphics/SVG/1.1/DTD/svg11.dtd">
<!-- Generated by graphviz version 2.36.0 (20140111.2315)
 -->
<!-- Title: fbp Pages: 1 -->
<svg width="634pt" height="275pt"
 viewBox="0.00 0.00 634.00 275.28" xmlns="http://www.w3.org/2000/svg" xmlns:xlink="http://www.w3.org/1999/xlink">
<g id="graph0" class="graph" transform="scale(1 1) rotate(0) translate(4 271.278)">
<title>fbp</title>
<polygon fill="white" stroke="none" points="-4,4 -4,-271.278 630,-271.278 630,4 -4,4"/>
<!-- one -->
<g id="node1" class="node"><title>one</title>
<polygon fill="#e8ea7a" stroke="none" points="8,-61 8,-90 56,-90 56,-61 8,-61"/>
<polygon fill="none" stroke="#616233" points="8,-61 8,-90 56,-90 56,-61 8,-61"/>
<text text-anchor="start" x="20.5" y="-76.3" font-family="Helvetica,sans-Serif" font-size="14.00" fill="#000000">one</text>
<text text-anchor="start" x="11.5" y="-67.1" font-family="Helvetica,sans-Serif" font-size="8.00" fill="#000000">constant/int</text>
<polygon fill="#828344" stroke="none" points="8,-44 8,-61 56,-61 56,-44 8,-44"/>
<polygon fill="none" stroke="#616233" points="8,-44 8,-61 56,-61 56,-44 8,-44"/>
<text text-anchor="start" x="20" y="-50" font-family="Helvetica,sans-Serif" font-size="10.00" fill="#ffffff">OUT ◉</text>
</g>
<!-- sum -->
<g id="node3" class="node"><title>sum</title>
<polygon fill="#254878" stroke="none" points="109,-150 109,-179 178,-179 178,-150 109,-150"/>
<polygon fill="none" stroke="#0f1e32" points="109,-150 109,-179 178,-179 178,-150 109,-150"/>
<text text-anchor="start" x="130" y="-165.3" font-family="Helvetica,sans-Serif" font-size="14.00" fill="#ffffff">sum</text>
<text text-anchor="start" x="124" y="-156.1" font-family="Helvetica,sans-Serif" font-size="8.00" fill="#ffffff">int/addition</text>
<polygon fill="#1b365a" stroke="none" points="109,-133 109,-150 178,-150 178,-133 109,-133"/>
<polygon fill="none" stroke="#0f1e32" points="109,-133 109,-150 178,-150 178,-133 109,-133"/>
<text text-anchor="start" x="112" y="-139" font-family="Helvetica,sans-Serif" font-size="10.00" fill="#ffffff">◎ OPERAND</text>
<polygon fill="#142843" stroke="none" points="109,-116 109,-133 178,-133 178,-116 109,-116"/>
<polygon fill="none" stroke="#0f1e32" points="109,-116 109,-133 178,-133 178,-116 109,-116"/>
<text text-anchor="start" x="142" y="-122" font-family="Helvetica,sans-Serif" font-size="10.00" fill="#ffffff">OUT ◉</text>
<polygon fill="#142843" stroke="none" points="109,-99 109,-116 178,-116 178,-99 109,-99"/>
<polygon fill="none" stroke="#0f1e32" points="109,-99 109,-116 178,-116 178,-99 109,-99"/>
<text text-anchor="start" x="126" y="-105" font-family="Helvetica,sans-Serif" font-size="10.00" fill="#ffffff">ERROR ◉</text>
</g>
<!-- one&#45;&gt;sum -->
<g id="edge2" class="edge"><title>one:OUT:e&#45;&gt;sum:OPERAND:w</title>
<path fill="none" stroke="#e05842" stroke-width="2" d="M57,-52C101.539,-52 64.4988,-136.463 103.939,-141.742"/>
<ellipse fill="#e05842" stroke="#e05842" stroke-width="2" cx="106.004" cy="-141.873" rx="2" ry="2"/>
</g>
<!-- fib -->
<g id="node6" class="node"><title>fib</title>
<polygon fill="#471ca4" stroke="none" points="243,-21 243,-50 278,-50 278,-21 243,-21"/>
<polygon fill="none" stroke="#1d0b45" points="243,-21 243,-50 278,-50 278,-21 243,-21"/>
<text text-anchor="start" x="253" y="-36.3" font-family="Helvetica,sans-Serif" font-size="14.00" fill="#ffffff">fib</text>
<text text-anchor="start" x="246.5" y="-27.1" font-family="Helvetica,sans-Serif" font-size="8.00" fill="#ffffff">console</text>
<polygon fill="#35157b" stroke="none" points="243,-4 243,-21 278,-21 278,-4 243,-4"/>
<polygon fill="none" stroke="#1d0b45" points="243,-4 243,-21 278,-21 278,-4 243,-4"/>
<text text-anchor="start" x="246" y="-10" font-family="Helvetica,sans-Serif" font-size="10.00" fill="#ffffff">◎ IN</text>
</g>
<!-- one&#45;&gt;fib -->
<g id="edge9" class="edge"><title>one:OUT:e&#45;&gt;fib:IN:w</title>
<path fill="none" stroke="#f36fd6" stroke-width="2" d="M57,-52C139.643,-52 157.268,-13.3939 237.626,-12.0366"/>
<ellipse fill="#f36fd6" stroke="#f36fd6" stroke-width="2" cx="240" cy="-12.0168" rx="2" ry="2"/>
</g>
<!-- zero -->
<g id="node2" class="node"><title>zero</title>
<polygon fill="#e8ea7a" stroke="none" points="8,-151 8,-180 56,-180 56,-151 8,-151"/>
<polygon fill="none" stroke="#616233" points="8,-151 8,-180 56,-180 56,-151 8,-151"/>
<text text-anchor="start" x="18.5" y="-166.3" font-family="Helvetica,sans-Serif" font-size="14.00" fill="#000000">zero</text>
<text text-anchor="start" x="11.5" y="-157.1" font-family="Helvetica,sans-Serif" font-size="8.00" fill="#000000">constant/int</text>
<polygon fill="#828344" stroke="none" points="8,-134 8,-151 56,-151 56,-134 8,-134"/>
<polygon fill="none" stroke="#616233" points="8,-134 8,-151 56,-151 56,-134 8,-134"/>
<text text-anchor="start" x="20" y="-140" font-family="Helvetica,sans-Serif" font-size="10.00" fill="#ffffff">OUT ◉</text>
</g>
<!-- zero&#45;&gt;sum -->
<g id="edge1" class="edge"><title>zero:OUT:e&#45;&gt;sum:OPERAND:w</title>
<path fill="none" stroke="#ad4f08" stroke-width="2" d="M57,-142C78.25,-142 84.5586,-142 103.941,-142"/>
<ellipse fill="#ad4f08" stroke="#ad4f08" stroke-width="2" cx="106" cy="-142" rx="2" ry="2"/>
</g>
<!-- switcher -->
<g id="node4" class="node"><title>switcher</title>
<polygon fill="#f849d2" stroke="none" points="545,-174 545,-203 618,-203 618,-174 545,-174"/>
<polygon fill="none" stroke="#681e57" points="545,-174 545,-203 618,-203 618,-174 545,-174"/>
<text text-anchor="start" x="556.5" y="-189.3" font-family="Helvetica,sans-Serif" font-size="14.00" fill="#000000">switcher</text>
<text text-anchor="start" x="561.5" y="-180.1" font-family="Helvetica,sans-Serif" font-size="8.00" fill="#000000">switcher/int</text>
<polygon fill="#ba369d" stroke="none" points="545,-157 545,-174 618,-174 618,-157 545,-157"/>
<polygon fill="none" stroke="#681e57" points="545,-157 545,-174 618,-174 618,-157 545,-157"/>
<text text-anchor="start" x="548" y="-163" font-family="Helvetica,sans-Serif" font-size="10.00" fill="#ffffff">◎ OUT_PORT</text>
<polygon fill="#ba369d" stroke="none" points="545,-140 545,-157 618,-157 618,-140 545,-140"/>
<polygon fill="none" stroke="#681e57" points="545,-140 545,-157 618,-157 618,-140 545,-140"/>
<text text-anchor="start" x="548" y="-146" font-family="Helvetica,sans-Serif" font-size="10.00" fill="#ffffff">◎ IN</text>
<polygon fill="#8b2875" stroke="none" points="545,-123 545,-140 618,-140 618,-123 545,-123"/>
<polygon fill="none" stroke="#681e57" points="545,-123 545,-140 618,-140 618,-123 545,-123"/>
<text text-anchor="start" x="582" y="-129" font-family="Helvetica,sans-Serif" font-size="10.00" fill="#ffffff">OUT ◉</text>
</g>
<!-- sum&#45;&gt;switcher -->
<g id="edge8" class="edge"><title>sum:OUT:e&#45;&gt;switcher:IN:w</title>
<path fill="none" stroke="#9c9f1e" stroke-width="2" d="M179,-124C198.194,-124 202.864,-126.516 222,-128 363.562,-138.978 399.906,-147.826 539.83,-147.997"/>
<ellipse fill="#9c9f1e" stroke="#9c9f1e" stroke-width="2" cx="542" cy="-147.999" rx="2" ry="2"/>
</g>
<!-- toggle -->
<g id="node5" class="node"><title>toggle</title>
<polygon fill="#184294" stroke="none" points="230,-214 230,-243 290,-243 290,-214 230,-214"/>
<polygon fill="none" stroke="#091b3e" points="230,-214 230,-243 290,-243 290,-214 230,-214"/>
<text text-anchor="start" x="241.5" y="-229.3" font-family="Helvetica,sans-Serif" font-size="14.00" fill="#ffffff">toggle</text>
<text text-anchor="start" x="233.5" y="-220.1" font-family="Helvetica,sans-Serif" font-size="8.00" fill="#ffffff">boolean/toggle</text>
<polygon fill="#12316f" stroke="none" points="230,-197 230,-214 290,-214 290,-197 230,-197"/>
<polygon fill="none" stroke="#091b3e" points="230,-197 230,-214 290,-214 290,-197 230,-197"/>
<text text-anchor="start" x="233" y="-203" font-family="Helvetica,sans-Serif" font-size="10.00" fill="#ffffff">◎ IN</text>
<polygon fill="#0d2453" stroke="none" points="230,-180 230,-197 290,-197 290,-180 230,-180"/>
<polygon fill="none" stroke="#091b3e" points="230,-180 230,-197 290,-197 290,-180 230,-180"/>
<text text-anchor="start" x="254" y="-186" font-family="Helvetica,sans-Serif" font-size="10.00" fill="#ffffff">OUT ◉</text>
</g>
<!-- sum&#45;&gt;toggle -->
<g id="edge7" class="edge"><title>sum:OUT:e&#45;&gt;toggle:IN:w</title>
<path fill="none" stroke="#d8587b" stroke-width="2" d="M179,-124C219.819,-124 189.032,-199.405 224.817,-204.707"/>
<ellipse fill="#d8587b" stroke="#d8587b" stroke-width="2" cx="227.005" cy="-204.86" rx="2" ry="2"/>
</g>
<!-- sum&#45;&gt;fib -->
<g id="edge10" class="edge"><title>sum:OUT:e&#45;&gt;fib:IN:w</title>
<path fill="none" stroke="#75912e" stroke-width="2" d="M179,-124C234.662,-124 187.419,-17.6153 237.856,-12.2129"/>
<ellipse fill="#75912e" stroke="#75912e" stroke-width="2" cx="240.003" cy="-12.1027" rx="2" ry="2"/>
</g>
<!-- #anon:122:19 -->
<g id="node8" class="node"><title>#anon:122:19</title>
<polygon fill="#4e2e10" stroke="none" points="232,-93 232,-115 288,-115 288,-93 232,-93"/>
<polygon fill="none" stroke="#201206" points="232,-93 232,-115 288,-115 288,-93 232,-93"/>
<text text-anchor="start" x="235.5" y="-100.3" font-family="Helvetica,sans-Serif" font-size="14.00" fill="#ffffff">app/quit</text>
<polygon fill="#3a220c" stroke="none" points="232,-76 232,-93 288,-93 288,-76 232,-76"/>
<polygon fill="none" stroke="#201206" points="232,-76 232,-93 288,-93 288,-76 232,-76"/>
<text text-anchor="start" x="235" y="-82" font-family="Helvetica,sans-Serif" font-size="10.00" fill="#ffffff">◎ QUIT</text>
</g>
<!-- sum&#45;&gt;#anon:122:19 -->
<g id="edge11" class="edge"><title>sum:ERROR:e&#45;&gt;#anon:122:19:QUIT:w</title>
<path fill="none" stroke="#5b4ffb" stroke-width="2" d="M179,-107C202.79,-107 205.476,-86.6163 226.794,-84.2276"/>
<ellipse fill="#5b4ffb" stroke="#5b4ffb" stroke-width="2" cx="229.003" cy="-84.1081" rx="2" ry="2"/>
</g>
<!-- switcher&#45;&gt;sum -->
<g id="edge3" class="edge"><title>switcher:OUT:e&#45;&gt;sum:OPERAND:w</title>
<path fill="none" stroke="#745192" stroke-width="2" d="M619,-131C624.352,-131 621.938,-122.624 618,-119 591.181,-94.3231 572.197,-114.758 536,-119 444.349,-129.74 403.988,-106.86 334,-167 301.638,-194.809 333.379,-232.147 298,-256 269.993,-274.883 254.368,-265.655 222,-256 111.575,-223.06 71.3391,-148.159 103.694,-142.357"/>
<ellipse fill="#745192" stroke="#745192" stroke-width="2" cx="106.007" cy="-142.166" rx="2" ry="2"/>
</g>
<!-- #anon:109:18 -->
<g id="node7" class="node"><title>#anon:109:18</title>
<polygon fill="#bd648a" stroke="none" points="342,-214 342,-236 492,-236 492,-214 342,-214"/>
<polygon fill="none" stroke="#4e2a39" points="342,-214 342,-236 492,-236 492,-214 342,-214"/>
<text text-anchor="start" x="345.5" y="-221.3" font-family="Helvetica,sans-Serif" font-size="14.00" fill="#000000">converter/boolean&#45;to&#45;int</text>
<polygon fill="#8d4b67" stroke="none" points="342,-197 342,-214 492,-214 492,-197 342,-197"/>
<polygon fill="none" stroke="#4e2a39" points="342,-197 342,-214 492,-214 492,-197 342,-197"/>
<text text-anchor="start" x="345" y="-203" font-family="Helvetica,sans-Serif" font-size="10.00" fill="#ffffff">◎ IN</text>
<polygon fill="#69384d" stroke="none" points="342,-180 342,-197 492,-197 492,-180 342,-180"/>
<polygon fill="none" stroke="#4e2a39" points="342,-180 342,-197 492,-197 492,-180 342,-180"/>
<text text-anchor="start" x="456" y="-186" font-family="Helvetica,sans-Serif" font-size="10.00" fill="#ffffff">OUT ◉</text>
</g>
<!-- toggle&#45;&gt;#anon:109:18 -->
<g id="edge5" class="edge"><title>toggle:OUT:e&#45;&gt;#anon:109:18:IN:w</title>
<path fill="none" stroke="#972d72" stroke-width="2" d="M291,-188C313.005,-188 317.067,-202.941 336.828,-204.809"/>
<ellipse fill="#972d72" stroke="#972d72" stroke-width="2" cx="339.002" cy="-204.909" rx="2" ry="2"/>
</g>
<!-- #anon:109:18&#45;&gt;switcher -->
<g id="edge6" class="edge"><title>#anon:109:18:OUT:e&#45;&gt;switcher:OUT_PORT:w</title>
<path fill="none" stroke="#8810d0" stroke-width="2" d="M493,-188C516.239,-188 519.044,-168.503 539.889,-166.218"/>
<ellipse fill="#8810d0" stroke="#8810d0" stroke-width="2" cx="542.003" cy="-166.106" rx="2" ry="2"/>
</g>
</g>
</svg>
