<?xml version="1.0" encoding="UTF-8" standalone="no"?>
<!DOCTYPE svg PUBLIC "-//W3C//DTD SVG 1.1//EN"
 "http://www.w3.org/Graphics/SVG/1.1/DTD/svg11.dtd">
<!-- Generated by graphviz version 2.36.0 (20140111.2315)
 -->
<!-- Title: fbp Pages: 1 -->
<svg width="220pt" height="206pt"
 viewBox="0.00 0.00 220.00 206.00" xmlns="http://www.w3.org/2000/svg" xmlns:xlink="http://www.w3.org/1999/xlink">
<g id="graph0" class="graph" transform="scale(1 1) rotate(0) translate(4 202)">
<title>fbp</title>
<polygon fill="white" stroke="none" points="-4,4 -4,-202 216,-202 216,4 -4,4"/>
<!-- kbd_keys -->
<g id="node1" class="node"><title>kbd_keys</title>
<polygon fill="#46b19c" stroke="none" points="12,-21 12,-50 77,-50 77,-21 12,-21"/>
<polygon fill="none" stroke="#1d4a41" points="12,-21 12,-50 77,-50 77,-21 12,-21"/>
<text text-anchor="start" x="15.5" y="-36.3" font-family="Helvetica,sans-Serif" font-size="14.00" fill="#000000">kbd_keys</text>
<text text-anchor="start" x="22.5" y="-27.1" font-family="Helvetica,sans-Serif" font-size="8.00" fill="#000000">keyboard/int</text>
<polygon fill="#276357" stroke="none" points="12,-4 12,-21 77,-21 77,-4 12,-4"/>
<polygon fill="none" stroke="#1d4a41" points="12,-4 12,-21 77,-21 77,-4 12,-4"/>
<text text-anchor="start" x="41" y="-10" font-family="Helvetica,sans-Serif" font-size="10.00" fill="#ffffff">OUT ◉</text>
</g>
<!-- keycodes -->
<g id="node2" class="node"><title>keycodes</title>
<polygon fill="#471ca4" stroke="none" points="136,-21 136,-50 201,-50 201,-21 136,-21"/>
<polygon fill="none" stroke="#1d0b45" points="136,-21 136,-50 201,-50 201,-21 136,-21"/>
<text text-anchor="start" x="139.5" y="-36.3" font-family="Helvetica,sans-Serif" font-size="14.00" fill="#ffffff">keycodes</text>
<text text-anchor="start" x="154.5" y="-27.1" font-family="Helvetica,sans-Serif" font-size="8.00" fill="#ffffff">console</text>
<polygon fill="#35157b" stroke="none" points="136,-4 136,-21 201,-21 201,-4 136,-4"/>
<polygon fill="none" stroke="#1d0b45" points="136,-4 136,-21 201,-21 201,-4 136,-4"/>
<text text-anchor="start" x="139" y="-10" font-family="Helvetica,sans-Serif" font-size="10.00" fill="#ffffff">◎ IN</text>
</g>
<!-- kbd_keys&#45;&gt;keycodes -->
<g id="edge1" class="edge"><title>kbd_keys:OUT_OUT:e&#45;&gt;keycodes:IN_IN:w</title>
<path fill="none" stroke="#628f92" stroke-width="2" d="M78,-12C101.849,-12 108.859,-12 130.735,-12"/>
<ellipse fill="#628f92" stroke="#628f92" stroke-width="2" cx="133" cy="-12" rx="2" ry="2"/>
</g>
<!-- a_key -->
<g id="node3" class="node"><title>a_key</title>
<polygon fill="#46b19c" stroke="none" points="9,-93 9,-122 80,-122 80,-93 9,-93"/>
<polygon fill="none" stroke="#1d4a41" points="9,-93 9,-122 80,-122 80,-93 9,-93"/>
<text text-anchor="start" x="26" y="-108.3" font-family="Helvetica,sans-Serif" font-size="14.00" fill="#000000">a_key</text>
<text text-anchor="start" x="12.5" y="-99.1" font-family="Helvetica,sans-Serif" font-size="8.00" fill="#000000">keyboard/boolean</text>
<polygon fill="#276357" stroke="none" points="9,-76 9,-93 80,-93 80,-76 9,-76"/>
<polygon fill="none" stroke="#1d4a41" points="9,-76 9,-93 80,-93 80,-76 9,-76"/>
<text text-anchor="start" x="44" y="-82" font-family="Helvetica,sans-Serif" font-size="10.00" fill="#ffffff">OUT ◉</text>
</g>
<!-- a_pressed -->
<g id="node4" class="node"><title>a_pressed</title>
<polygon fill="#471ca4" stroke="none" points="133,-93 133,-122 204,-122 204,-93 133,-93"/>
<polygon fill="none" stroke="#1d0b45" points="133,-93 133,-122 204,-122 204,-93 133,-93"/>
<text text-anchor="start" x="136.5" y="-108.3" font-family="Helvetica,sans-Serif" font-size="14.00" fill="#ffffff">a_pressed</text>
<text text-anchor="start" x="154.5" y="-99.1" font-family="Helvetica,sans-Serif" font-size="8.00" fill="#ffffff">console</text>
<polygon fill="#35157b" stroke="none" points="133,-76 133,-93 204,-93 204,-76 133,-76"/>
<polygon fill="none" stroke="#1d0b45" points="133,-76 133,-93 204,-93 204,-76 133,-76"/>
<text text-anchor="start" x="136" y="-82" font-family="Helvetica,sans-Serif" font-size="10.00" fill="#ffffff">◎ IN</text>
</g>
<!-- a_key&#45;&gt;a_pressed -->
<g id="edge2" class="edge"><title>a_key:OUT_OUT:e&#45;&gt;a_pressed:IN_IN:w</title>
<path fill="none" stroke="#2b8096" stroke-width="2" d="M81,-84C102.25,-84 108.559,-84 127.941,-84"/>
<ellipse fill="#2b8096" stroke="#2b8096" stroke-width="2" cx="130" cy="-84" rx="2" ry="2"/>
</g>
<!-- b_key -->
<g id="node5" class="node"><title>b_key</title>
<polygon fill="#46b19c" stroke="none" points="9,-165 9,-194 80,-194 80,-165 9,-165"/>
<polygon fill="none" stroke="#1d4a41" points="9,-165 9,-194 80,-194 80,-165 9,-165"/>
<text text-anchor="start" x="26" y="-180.3" font-family="Helvetica,sans-Serif" font-size="14.00" fill="#000000">b_key</text>
<text text-anchor="start" x="12.5" y="-171.1" font-family="Helvetica,sans-Serif" font-size="8.00" fill="#000000">keyboard/boolean</text>
<polygon fill="#276357" stroke="none" points="9,-148 9,-165 80,-165 80,-148 9,-148"/>
<polygon fill="none" stroke="#1d4a41" points="9,-148 9,-165 80,-165 80,-148 9,-148"/>
<text text-anchor="start" x="44" y="-154" font-family="Helvetica,sans-Serif" font-size="10.00" fill="#ffffff">OUT ◉</text>
</g>
<!-- b_pressed -->
<g id="node6" class="node"><title>b_pressed</title>
<polygon fill="#471ca4" stroke="none" points="133,-165 133,-194 204,-194 204,-165 133,-165"/>
<polygon fill="none" stroke="#1d0b45" points="133,-165 133,-194 204,-194 204,-165 133,-165"/>
<text text-anchor="start" x="136.5" y="-180.3" font-family="Helvetica,sans-Serif" font-size="14.00" fill="#ffffff">b_pressed</text>
<text text-anchor="start" x="154.5" y="-171.1" font-family="Helvetica,sans-Serif" font-size="8.00" fill="#ffffff">console</text>
<polygon fill="#35157b" stroke="none" points="133,-148 133,-165 204,-165 204,-148 133,-148"/>
<polygon fill="none" stroke="#1d0b45" points="133,-148 133,-165 204,-165 204,-148 133,-148"/>
<text text-anchor="start" x="136" y="-154" font-family="Helvetica,sans-Serif" font-size="10.00" fill="#ffffff">◎ IN</text>
</g>
<!-- b_key&#45;&gt;b_pressed -->
<g id="edge3" class="edge"><title>b_key:OUT_OUT:e&#45;&gt;b_pressed:IN_IN:w</title>
<path fill="none" stroke="#22770e" stroke-width="2" d="M81,-156C102.25,-156 108.559,-156 127.941,-156"/>
<ellipse fill="#22770e" stroke="#22770e" stroke-width="2" cx="130" cy="-156" rx="2" ry="2"/>
</g>
</g>
</svg>
