<?xml version="1.0" encoding="UTF-8" standalone="no"?>
<!DOCTYPE svg PUBLIC "-//W3C//DTD SVG 1.1//EN"
 "http://www.w3.org/Graphics/SVG/1.1/DTD/svg11.dtd">
<!-- Generated by graphviz version 2.36.0 (20140111.2315)
 -->
<!-- Title: fbp Pages: 1 -->
<svg width="632pt" height="127pt"
 viewBox="0.00 0.00 632.00 127.00" xmlns="http://www.w3.org/2000/svg" xmlns:xlink="http://www.w3.org/1999/xlink">
<g id="graph0" class="graph" transform="scale(1 1) rotate(0) translate(4 123)">
<title>fbp</title>
<polygon fill="white" stroke="none" points="-4,4 -4,-123 628,-123 628,4 -4,4"/>
<!-- #anon:28:1 -->
<g id="node1" class="node"><title>#anon:28:1</title>
<polygon fill="#e8ea7a" stroke="none" points="8,-93 8,-115 118,-115 118,-93 8,-93"/>
<polygon fill="none" stroke="#616233" points="8,-93 8,-115 118,-115 118,-93 8,-93"/>
<text text-anchor="start" x="11.5" y="-100.3" font-family="Helvetica,sans-Serif" font-size="14.00" fill="#000000">constant/boolean</text>
<polygon fill="#828344" stroke="none" points="8,-76 8,-93 118,-93 118,-76 8,-76"/>
<polygon fill="none" stroke="#616233" points="8,-76 8,-93 118,-93 118,-76 8,-76"/>
<text text-anchor="start" x="82" y="-82" font-family="Helvetica,sans-Serif" font-size="10.00" fill="#ffffff">OUT ◉</text>
</g>
<!-- timer -->
<g id="node2" class="node"><title>timer</title>
<polygon fill="#7f2fae" stroke="none" points="170,-57 170,-86 236,-86 236,-57 170,-57"/>
<polygon fill="none" stroke="#351348" points="170,-57 170,-86 236,-86 236,-57 170,-57"/>
<text text-anchor="start" x="174.5" y="-72.3" font-family="Helvetica,sans-Serif" font-size="14.00" fill="#ffffff">🕐 Timer</text>
<text text-anchor="start" x="193.5" y="-63.1" font-family="Helvetica,sans-Serif" font-size="8.00" fill="#ffffff">timer</text>
<polygon fill="#5f2382" stroke="none" points="170,-40 170,-57 236,-57 236,-40 170,-40"/>
<polygon fill="none" stroke="#351348" points="170,-40 170,-57 236,-57 236,-40 170,-40"/>
<text text-anchor="start" x="173" y="-46" font-family="Helvetica,sans-Serif" font-size="10.00" fill="#ffffff">◎ ENABLED</text>
<polygon fill="#471a61" stroke="none" points="170,-23 170,-40 236,-40 236,-23 170,-23"/>
<polygon fill="none" stroke="#351348" points="170,-23 170,-40 236,-40 236,-23 170,-23"/>
<text text-anchor="start" x="200" y="-29" font-family="Helvetica,sans-Serif" font-size="10.00" fill="#ffffff">OUT ◉</text>
</g>
<!-- #anon:28:1&#45;&gt;timer -->
<g id="edge1" class="edge"><title>#anon:28:1:OUT_OUT:e&#45;&gt;timer:IN_ENABLED:w</title>
<path fill="none" stroke="#8f5bec" stroke-width="2" d="M119,-84C144.885,-84 142.042,-51.8298 164.785,-48.3112"/>
<ellipse fill="#8f5bec" stroke="#8f5bec" stroke-width="2" cx="167.005" cy="-48.1473" rx="2" ry="2"/>
</g>
<!-- #anon:32:17 -->
<g id="node4" class="node"><title>#anon:32:17</title>
<polygon fill="#bd648a" stroke="none" points="288,-40 288,-62 446,-62 446,-40 288,-40"/>
<polygon fill="none" stroke="#4e2a39" points="288,-40 288,-62 446,-62 446,-40 288,-40"/>
<text text-anchor="start" x="291.5" y="-47.3" font-family="Helvetica,sans-Serif" font-size="14.00" fill="#000000">converter/empty&#45;to&#45;string</text>
<polygon fill="#8d4b67" stroke="none" points="288,-23 288,-40 446,-40 446,-23 288,-23"/>
<polygon fill="none" stroke="#4e2a39" points="288,-23 288,-40 446,-40 446,-23 288,-23"/>
<text text-anchor="start" x="291" y="-29" font-family="Helvetica,sans-Serif" font-size="10.00" fill="#ffffff">◎ IN</text>
<polygon fill="#69384d" stroke="none" points="288,-6 288,-23 446,-23 446,-6 288,-6"/>
<polygon fill="none" stroke="#4e2a39" points="288,-6 288,-23 446,-23 446,-6 288,-6"/>
<text text-anchor="start" x="410" y="-12" font-family="Helvetica,sans-Serif" font-size="10.00" fill="#ffffff">OUT ◉</text>
</g>
<!-- timer&#45;&gt;#anon:32:17 -->
<g id="edge3" class="edge"><title>timer:OUT_OUT:e&#45;&gt;#anon:32:17:IN_IN:w</title>
<path fill="none" stroke="#704243" stroke-width="2" d="M237,-31C257.66,-31 263.914,-31 282.548,-31"/>
<ellipse fill="#704243" stroke="#704243" stroke-width="2" cx="285" cy="-31" rx="2" ry="2"/>
</g>
<!-- Reboot -->
<g id="node3" class="node"><title>Reboot</title>
<polygon fill="#a9679e" stroke="none" points="38,-21 38,-50 89,-50 89,-21 38,-21"/>
<polygon fill="none" stroke="#462a42" points="38,-21 38,-50 89,-50 89,-21 38,-21"/>
<text text-anchor="start" x="41.5" y="-36.3" font-family="Helvetica,sans-Serif" font-size="14.00" fill="#000000">Reboot</text>
<text text-anchor="start" x="51.5" y="-27.1" font-family="Helvetica,sans-Serif" font-size="8.00" fill="#000000">Button</text>
<polygon fill="#5e3958" stroke="none" points="38,-4 38,-21 89,-21 89,-4 38,-4"/>
<polygon fill="none" stroke="#462a42" points="38,-4 38,-21 89,-21 89,-4 38,-4"/>
<text text-anchor="start" x="53" y="-10" font-family="Helvetica,sans-Serif" font-size="10.00" fill="#ffffff">OUT ◉</text>
</g>
<!-- Reboot&#45;&gt;timer -->
<g id="edge2" class="edge"><title>Reboot:OUT_OUT:e&#45;&gt;timer:IN_ENABLED:w</title>
<path fill="none" stroke="#5f2646" stroke-width="2" d="M90,-12C127.078,-12 130.216,-45.2424 164.642,-47.8395"/>
<ellipse fill="#5f2646" stroke="#5f2646" stroke-width="2" cx="167.001" cy="-47.9263" rx="2" ry="2"/>
</g>
<!-- #anon:32:82 -->
<g id="node5" class="node"><title>#anon:32:82</title>
<polygon fill="#b747fe" stroke="none" points="498,-23 498,-45 616,-45 616,-23 498,-23"/>
<polygon fill="none" stroke="#4c1d6a" points="498,-23 498,-45 616,-45 616,-23 498,-23"/>
<text text-anchor="start" x="501.5" y="-30.3" font-family="Helvetica,sans-Serif" font-size="14.00" fill="#ffffff">platform/set&#45;target</text>
<polygon fill="#8935be" stroke="none" points="498,-6 498,-23 616,-23 616,-6 498,-6"/>
<polygon fill="none" stroke="#4c1d6a" points="498,-6 498,-23 616,-23 616,-6 498,-6"/>
<text text-anchor="start" x="501" y="-12" font-family="Helvetica,sans-Serif" font-size="10.00" fill="#ffffff">◎ TARGET</text>
</g>
<!-- #anon:32:17&#45;&gt;#anon:32:82 -->
<g id="edge4" class="edge"><title>#anon:32:17:OUT_OUT:e&#45;&gt;#anon:32:82:IN_TARGET:w</title>
<path fill="none" stroke="#614e55" stroke-width="2" d="M447,-14C467.66,-14 473.914,-14 492.548,-14"/>
<ellipse fill="#614e55" stroke="#614e55" stroke-width="2" cx="495" cy="-14" rx="2" ry="2"/>
</g>
</g>
</svg>
