<?xml version="1.0" encoding="UTF-8" standalone="no"?>
<!DOCTYPE svg PUBLIC "-//W3C//DTD SVG 1.1//EN"
 "http://www.w3.org/Graphics/SVG/1.1/DTD/svg11.dtd">
<!-- Generated by graphviz version 2.36.0 (20140111.2315)
 -->
<!-- Title: fbp Pages: 1 -->
<svg width="320pt" height="214pt"
 viewBox="0.00 0.00 320.00 214.00" xmlns="http://www.w3.org/2000/svg" xmlns:xlink="http://www.w3.org/1999/xlink">
<g id="graph0" class="graph" transform="scale(1 1) rotate(0) translate(4 210)">
<title>fbp</title>
<polygon fill="white" stroke="none" points="-4,4 -4,-210 316,-210 316,4 -4,4"/>
<!-- process -->
<g id="node1" class="node"><title>process</title>
<polygon fill="#bfc432" stroke="none" points="114,-144 114,-173 192,-173 192,-144 114,-144"/>
<polygon fill="none" stroke="#505214" points="114,-144 114,-173 192,-173 192,-144 114,-144"/>
<text text-anchor="start" x="129" y="-159.3" font-family="Helvetica,sans-Serif" font-size="14.00" fill="#000000">process</text>
<text text-anchor="start" x="117.5" y="-150.1" font-family="Helvetica,sans-Serif" font-size="8.00" fill="#000000">process/subprocess</text>
<polygon fill="#8f9325" stroke="none" points="114,-127 114,-144 192,-144 192,-127 114,-127"/>
<polygon fill="none" stroke="#505214" points="114,-127 114,-144 192,-144 192,-127 114,-127"/>
<text text-anchor="start" x="117" y="-133" font-family="Helvetica,sans-Serif" font-size="10.00" fill="#000000">◎ START</text>
<polygon fill="#8f9325" stroke="none" points="114,-110 114,-127 192,-127 192,-110 114,-110"/>
<polygon fill="none" stroke="#505214" points="114,-110 114,-127 192,-127 192,-110 114,-110"/>
<text text-anchor="start" x="117" y="-116" font-family="Helvetica,sans-Serif" font-size="10.00" fill="#000000">◎ STDIN</text>
<polygon fill="#6b6e1b" stroke="none" points="114,-93 114,-110 192,-110 192,-93 114,-93"/>
<polygon fill="none" stroke="#505214" points="114,-93 114,-110 192,-110 192,-93 114,-93"/>
<text text-anchor="start" x="137" y="-99" font-family="Helvetica,sans-Serif" font-size="10.00" fill="#ffffff">STATUS ◉</text>
<polygon fill="#6b6e1b" stroke="none" points="114,-76 114,-93 192,-93 192,-76 114,-76"/>
<polygon fill="none" stroke="#505214" points="114,-76 114,-93 192,-93 192,-76 114,-76"/>
<text text-anchor="start" x="136" y="-82" font-family="Helvetica,sans-Serif" font-size="10.00" fill="#ffffff">STDOUT ◉</text>
<polygon fill="#6b6e1b" stroke="none" points="114,-59 114,-76 192,-76 192,-59 114,-59"/>
<polygon fill="none" stroke="#505214" points="114,-59 114,-76 192,-76 192,-59 114,-59"/>
<text text-anchor="start" x="135" y="-65" font-family="Helvetica,sans-Serif" font-size="10.00" fill="#ffffff">STDERR ◉</text>
</g>
<!-- output -->
<g id="node2" class="node"><title>output</title>
<polygon fill="#471ca4" stroke="none" points="252,-165 252,-194 297,-194 297,-165 252,-165"/>
<polygon fill="none" stroke="#1d0b45" points="252,-165 252,-194 297,-194 297,-165 252,-165"/>
<text text-anchor="start" x="255.5" y="-180.3" font-family="Helvetica,sans-Serif" font-size="14.00" fill="#ffffff">output</text>
<text text-anchor="start" x="260.5" y="-171.1" font-family="Helvetica,sans-Serif" font-size="8.00" fill="#ffffff">console</text>
<polygon fill="#35157b" stroke="none" points="252,-148 252,-165 297,-165 297,-148 252,-148"/>
<polygon fill="none" stroke="#1d0b45" points="252,-148 252,-165 297,-165 297,-148 252,-148"/>
<text text-anchor="start" x="255" y="-154" font-family="Helvetica,sans-Serif" font-size="10.00" fill="#ffffff">◎ IN</text>
</g>
<!-- process&#45;&gt;output -->
<g id="edge1" class="edge"><title>process:OUT_STATUS:e&#45;&gt;output:IN_IN:w</title>
<path fill="none" stroke="#5b7342" stroke-width="2" d="M193,-101C226.999,-101 216.507,-151.375 246.682,-155.704"/>
<ellipse fill="#5b7342" stroke="#5b7342" stroke-width="2" cx="249.005" cy="-155.863" rx="2" ry="2"/>
</g>
<!-- stdout -->
<g id="node5" class="node"><title>stdout</title>
<polygon fill="#bfc432" stroke="none" points="245,-93 245,-122 304,-122 304,-93 245,-93"/>
<polygon fill="none" stroke="#505214" points="245,-93 245,-122 304,-122 304,-93 245,-93"/>
<text text-anchor="start" x="256" y="-108.3" font-family="Helvetica,sans-Serif" font-size="14.00" fill="#000000">stdout</text>
<text text-anchor="start" x="248.5" y="-99.1" font-family="Helvetica,sans-Serif" font-size="8.00" fill="#000000">process/stdout</text>
<polygon fill="#8f9325" stroke="none" points="245,-76 245,-93 304,-93 304,-76 245,-76"/>
<polygon fill="none" stroke="#505214" points="245,-76 245,-93 304,-93 304,-76 245,-76"/>
<text text-anchor="start" x="248" y="-82" font-family="Helvetica,sans-Serif" font-size="10.00" fill="#000000">◎ IN</text>
</g>
<!-- process&#45;&gt;stdout -->
<g id="edge4" class="edge"><title>process:OUT_STDOUT:e&#45;&gt;stdout:IN_IN:w</title>
<path fill="none" stroke="#48e9bc" stroke-width="2" d="M193,-84C214.25,-84 220.559,-84 239.941,-84"/>
<ellipse fill="#48e9bc" stroke="#48e9bc" stroke-width="2" cx="242" cy="-84" rx="2" ry="2"/>
</g>
<!-- stderr -->
<g id="node6" class="node"><title>stderr</title>
<polygon fill="#bfc432" stroke="none" points="245,-21 245,-50 304,-50 304,-21 245,-21"/>
<polygon fill="none" stroke="#505214" points="245,-21 245,-50 304,-50 304,-21 245,-21"/>
<text text-anchor="start" x="257" y="-36.3" font-family="Helvetica,sans-Serif" font-size="14.00" fill="#000000">stderr</text>
<text text-anchor="start" x="248.5" y="-27.1" font-family="Helvetica,sans-Serif" font-size="8.00" fill="#000000">process/stderr</text>
<polygon fill="#8f9325" stroke="none" points="245,-4 245,-21 304,-21 304,-4 245,-4"/>
<polygon fill="none" stroke="#505214" points="245,-4 245,-21 304,-21 304,-4 245,-4"/>
<text text-anchor="start" x="248" y="-10" font-family="Helvetica,sans-Serif" font-size="10.00" fill="#000000">◎ IN</text>
</g>
<!-- process&#45;&gt;stderr -->
<g id="edge5" class="edge"><title>process:OUT_STDERR:e&#45;&gt;stderr:IN_IN:w</title>
<path fill="none" stroke="#3b40fe" stroke-width="2" d="M193,-67C224.904,-67 211.92,-16.625 239.966,-12.2959"/>
<ellipse fill="#3b40fe" stroke="#3b40fe" stroke-width="2" cx="242.005" cy="-12.1464" rx="2" ry="2"/>
</g>
<!-- start -->
<g id="node3" class="node"><title>start</title>
<polygon fill="#e8ea7a" stroke="none" points="11,-173 11,-202 59,-202 59,-173 11,-173"/>
<polygon fill="none" stroke="#616233" points="11,-173 11,-202 59,-202 59,-173 11,-173"/>
<text text-anchor="start" x="21.5" y="-188.3" font-family="Helvetica,sans-Serif" font-size="14.00" fill="#000000">start</text>
<text text-anchor="start" x="14.5" y="-179.1" font-family="Helvetica,sans-Serif" font-size="8.00" fill="#000000">constant/int</text>
<polygon fill="#828344" stroke="none" points="11,-156 11,-173 59,-173 59,-156 11,-156"/>
<polygon fill="none" stroke="#616233" points="11,-156 11,-173 59,-173 59,-156 11,-156"/>
<text text-anchor="start" x="23" y="-162" font-family="Helvetica,sans-Serif" font-size="10.00" fill="#ffffff">OUT ◉</text>
</g>
<!-- start&#45;&gt;process -->
<g id="edge2" class="edge"><title>start:OUT_OUT:e&#45;&gt;process:IN_START:w</title>
<path fill="none" stroke="#c0577c" stroke-width="2" d="M60,-164C85.1838,-164 86.3095,-138.979 108.862,-136.242"/>
<ellipse fill="#c0577c" stroke="#c0577c" stroke-width="2" cx="111.003" cy="-136.117" rx="2" ry="2"/>
</g>
<!-- input -->
<g id="node4" class="node"><title>input</title>
<polygon fill="#bfc432" stroke="none" points="8,-101 8,-130 62,-130 62,-101 8,-101"/>
<polygon fill="none" stroke="#505214" points="8,-101 8,-130 62,-130 62,-101 8,-101"/>
<text text-anchor="start" x="20" y="-116.3" font-family="Helvetica,sans-Serif" font-size="14.00" fill="#000000">input</text>
<text text-anchor="start" x="11.5" y="-107.1" font-family="Helvetica,sans-Serif" font-size="8.00" fill="#000000">process/stdin</text>
<polygon fill="#6b6e1b" stroke="none" points="8,-84 8,-101 62,-101 62,-84 8,-84"/>
<polygon fill="none" stroke="#505214" points="8,-84 8,-101 62,-101 62,-84 8,-84"/>
<text text-anchor="start" x="26" y="-90" font-family="Helvetica,sans-Serif" font-size="10.00" fill="#ffffff">OUT ◉</text>
</g>
<!-- input&#45;&gt;process -->
<g id="edge3" class="edge"><title>input:OUT_OUT:e&#45;&gt;process:IN_STDIN:w</title>
<path fill="none" stroke="#1a1dfc" stroke-width="2" d="M63,-92C86.7754,-92 87.7161,-115.929 108.816,-118.733"/>
<ellipse fill="#1a1dfc" stroke="#1a1dfc" stroke-width="2" cx="111.004" cy="-118.872" rx="2" ry="2"/>
</g>
</g>
</svg>
