<?xml version="1.0" encoding="UTF-8" standalone="no"?>
<!DOCTYPE svg PUBLIC "-//W3C//DTD SVG 1.1//EN"
 "http://www.w3.org/Graphics/SVG/1.1/DTD/svg11.dtd">
<!-- Generated by graphviz version 2.36.0 (20140111.2315)
 -->
<!-- Title: fbp Pages: 1 -->
<svg width="204pt" height="62pt"
 viewBox="0.00 0.00 204.00 62.00" xmlns="http://www.w3.org/2000/svg" xmlns:xlink="http://www.w3.org/1999/xlink">
<g id="graph0" class="graph" transform="scale(1 1) rotate(0) translate(4 58)">
<title>fbp</title>
<polygon fill="white" stroke="none" points="-4,4 -4,-58 200,-58 200,4 -4,4"/>
<!-- timeblock -->
<g id="node1" class="node"><title>timeblock</title>
<polygon fill="#3eba14" stroke="none" points="8,-21 8,-50 82,-50 82,-21 8,-21"/>
<polygon fill="none" stroke="#194e08" points="8,-21 8,-50 82,-50 82,-21 8,-21"/>
<text text-anchor="start" x="16" y="-36.3" font-family="Helvetica,sans-Serif" font-size="14.00" fill="#000000">timeblock</text>
<text text-anchor="start" x="11.5" y="-27.1" font-family="Helvetica,sans-Serif" font-size="8.00" fill="#000000">wallclock/timeblock</text>
<polygon fill="#22680b" stroke="none" points="8,-4 8,-21 82,-21 82,-4 8,-4"/>
<polygon fill="none" stroke="#194e08" points="8,-4 8,-21 82,-21 82,-4 8,-4"/>
<text text-anchor="start" x="46" y="-10" font-family="Helvetica,sans-Serif" font-size="10.00" fill="#ffffff">OUT ◉</text>
</g>
<!-- console -->
<g id="node2" class="node"><title>console</title>
<polygon fill="#471ca4" stroke="none" points="134,-21 134,-50 188,-50 188,-21 134,-21"/>
<polygon fill="none" stroke="#1d0b45" points="134,-21 134,-50 188,-50 188,-21 134,-21"/>
<text text-anchor="start" x="137.5" y="-36.3" font-family="Helvetica,sans-Serif" font-size="14.00" fill="#ffffff">console</text>
<text text-anchor="start" x="147" y="-27.1" font-family="Helvetica,sans-Serif" font-size="8.00" fill="#ffffff">console</text>
<polygon fill="#35157b" stroke="none" points="134,-4 134,-21 188,-21 188,-4 134,-4"/>
<polygon fill="none" stroke="#1d0b45" points="134,-4 134,-21 188,-21 188,-4 134,-4"/>
<text text-anchor="start" x="137" y="-10" font-family="Helvetica,sans-Serif" font-size="10.00" fill="#ffffff">◎ IN</text>
</g>
<!-- timeblock&#45;&gt;console -->
<g id="edge1" class="edge"><title>timeblock:OUT_OUT:e&#45;&gt;console:IN_IN:w</title>
<path fill="none" stroke="#12e8e8" stroke-width="2" d="M83,-12C103.66,-12 109.914,-12 128.548,-12"/>
<ellipse fill="#12e8e8" stroke="#12e8e8" stroke-width="2" cx="131" cy="-12" rx="2" ry="2"/>
</g>
</g>
</svg>
