<?xml version="1.0" encoding="UTF-8" standalone="no"?>
<!DOCTYPE svg PUBLIC "-//W3C//DTD SVG 1.1//EN"
 "http://www.w3.org/Graphics/SVG/1.1/DTD/svg11.dtd">
<!-- Generated by graphviz version 2.36.0 (20140111.2315)
 -->
<!-- Title: fbp Pages: 1 -->
<svg width="316pt" height="566pt"
 viewBox="0.00 0.00 316.00 566.00" xmlns="http://www.w3.org/2000/svg" xmlns:xlink="http://www.w3.org/1999/xlink">
<g id="graph0" class="graph" transform="scale(1 1) rotate(0) translate(4 562)">
<title>fbp</title>
<polygon fill="white" stroke="none" points="-4,4 -4,-562 312,-562 312,4 -4,4"/>
<!-- weekday -->
<g id="node1" class="node"><title>weekday</title>
<polygon fill="#3eba14" stroke="none" points="8,-21 8,-50 80,-50 80,-21 8,-21"/>
<polygon fill="none" stroke="#194e08" points="8,-21 8,-50 80,-50 80,-21 8,-21"/>
<text text-anchor="start" x="17" y="-36.3" font-family="Helvetica,sans-Serif" font-size="14.00" fill="#000000">weekday</text>
<text text-anchor="start" x="11.5" y="-27.1" font-family="Helvetica,sans-Serif" font-size="8.00" fill="#000000">wallclock/weekday</text>
<polygon fill="#22680b" stroke="none" points="8,-4 8,-21 80,-21 80,-4 8,-4"/>
<polygon fill="none" stroke="#194e08" points="8,-4 8,-21 80,-21 80,-4 8,-4"/>
<text text-anchor="start" x="44" y="-10" font-family="Helvetica,sans-Serif" font-size="10.00" fill="#ffffff">OUT ◉</text>
</g>
<!-- days -->
<g id="node3" class="node"><title>days</title>
<polygon fill="#f849d2" stroke="none" points="132,-272 132,-301 194,-301 194,-272 132,-272"/>
<polygon fill="none" stroke="#681e57" points="132,-272 132,-301 194,-301 194,-272 132,-272"/>
<text text-anchor="start" x="148.5" y="-287.3" font-family="Helvetica,sans-Serif" font-size="14.00" fill="#000000">days</text>
<text text-anchor="start" x="137" y="-278.1" font-family="Helvetica,sans-Serif" font-size="8.00" fill="#000000">switcher/string</text>
<polygon fill="#ba369d" stroke="none" points="132,-255 132,-272 194,-272 194,-255 132,-255"/>
<polygon fill="none" stroke="#681e57" points="132,-255 132,-272 194,-272 194,-255 132,-255"/>
<text text-anchor="start" x="135" y="-261" font-family="Helvetica,sans-Serif" font-size="10.00" fill="#ffffff">◎ IN</text>
<polygon fill="#ba369d" stroke="none" points="132,-238 132,-255 194,-255 194,-238 132,-238"/>
<polygon fill="none" stroke="#681e57" points="132,-238 132,-255 194,-255 194,-238 132,-238"/>
<text text-anchor="start" x="135" y="-244" font-family="Helvetica,sans-Serif" font-size="10.00" fill="#ffffff">◎ IN_PORT</text>
<polygon fill="#8b2875" stroke="none" points="132,-221 132,-238 194,-238 194,-221 132,-221"/>
<polygon fill="none" stroke="#681e57" points="132,-221 132,-238 194,-238 194,-221 132,-221"/>
<text text-anchor="start" x="158" y="-227" font-family="Helvetica,sans-Serif" font-size="10.00" fill="#ffffff">OUT ◉</text>
</g>
<!-- weekday&#45;&gt;days -->
<g id="edge8" class="edge"><title>weekday:OUT_OUT:e&#45;&gt;days:IN_IN_PORT:w</title>
<path fill="none" stroke="#096914" stroke-width="2" d="M81,-12C185.894,-12 29.0507,-239.645 126.788,-245.87"/>
<ellipse fill="#096914" stroke="#096914" stroke-width="2" cx="129.001" cy="-245.938" rx="2" ry="2"/>
</g>
<!-- console -->
<g id="node2" class="node"><title>console</title>
<polygon fill="#471ca4" stroke="none" points="246,-238 246,-267 300,-267 300,-238 246,-238"/>
<polygon fill="none" stroke="#1d0b45" points="246,-238 246,-267 300,-267 300,-238 246,-238"/>
<text text-anchor="start" x="249.5" y="-253.3" font-family="Helvetica,sans-Serif" font-size="14.00" fill="#ffffff">console</text>
<text text-anchor="start" x="259" y="-244.1" font-family="Helvetica,sans-Serif" font-size="8.00" fill="#ffffff">console</text>
<polygon fill="#35157b" stroke="none" points="246,-221 246,-238 300,-238 300,-221 246,-221"/>
<polygon fill="none" stroke="#1d0b45" points="246,-221 246,-238 300,-238 300,-221 246,-221"/>
<text text-anchor="start" x="249" y="-227" font-family="Helvetica,sans-Serif" font-size="10.00" fill="#ffffff">◎ IN</text>
</g>
<!-- days&#45;&gt;console -->
<g id="edge9" class="edge"><title>days:OUT_OUT:e&#45;&gt;console:IN_IN:w</title>
<path fill="none" stroke="#b34ffe" stroke-width="2" d="M195,-229C215.66,-229 221.914,-229 240.548,-229"/>
<ellipse fill="#b34ffe" stroke="#b34ffe" stroke-width="2" cx="243" cy="-229" rx="2" ry="2"/>
</g>
<!-- sun -->
<g id="node4" class="node"><title>sun</title>
<polygon fill="#e8ea7a" stroke="none" points="15,-525 15,-554 74,-554 74,-525 15,-525"/>
<polygon fill="none" stroke="#616233" points="15,-525 15,-554 74,-554 74,-525 15,-525"/>
<text text-anchor="start" x="33.5" y="-540.3" font-family="Helvetica,sans-Serif" font-size="14.00" fill="#000000">sun</text>
<text text-anchor="start" x="18.5" y="-531.1" font-family="Helvetica,sans-Serif" font-size="8.00" fill="#000000">constant/string</text>
<polygon fill="#828344" stroke="none" points="15,-508 15,-525 74,-525 74,-508 15,-508"/>
<polygon fill="none" stroke="#616233" points="15,-508 15,-525 74,-525 74,-508 15,-508"/>
<text text-anchor="start" x="38" y="-514" font-family="Helvetica,sans-Serif" font-size="10.00" fill="#ffffff">OUT ◉</text>
</g>
<!-- sun&#45;&gt;days -->
<g id="edge1" class="edge"><title>sun:OUT_OUT:e&#45;&gt;days:IN_IN:w</title>
<path fill="none" stroke="#c95aa6" stroke-width="2" d="M75,-516C188.276,-516 20.6258,-270.358 126.768,-264.121"/>
<ellipse fill="#c95aa6" stroke="#c95aa6" stroke-width="2" cx="129.001" cy="-264.057" rx="2" ry="2"/>
</g>
<!-- mon -->
<g id="node5" class="node"><title>mon</title>
<polygon fill="#e8ea7a" stroke="none" points="15,-453 15,-482 74,-482 74,-453 15,-453"/>
<polygon fill="none" stroke="#616233" points="15,-453 15,-482 74,-482 74,-453 15,-453"/>
<text text-anchor="start" x="30.5" y="-468.3" font-family="Helvetica,sans-Serif" font-size="14.00" fill="#000000">mon</text>
<text text-anchor="start" x="18.5" y="-459.1" font-family="Helvetica,sans-Serif" font-size="8.00" fill="#000000">constant/string</text>
<polygon fill="#828344" stroke="none" points="15,-436 15,-453 74,-453 74,-436 15,-436"/>
<polygon fill="none" stroke="#616233" points="15,-436 15,-453 74,-453 74,-436 15,-436"/>
<text text-anchor="start" x="38" y="-442" font-family="Helvetica,sans-Serif" font-size="10.00" fill="#ffffff">OUT ◉</text>
</g>
<!-- mon&#45;&gt;days -->
<g id="edge2" class="edge"><title>mon:OUT_OUT:e&#45;&gt;days:IN_IN:w</title>
<path fill="none" stroke="#520666" stroke-width="2" d="M75,-444C157.309,-444 51.0796,-270.273 126.761,-264.165"/>
<ellipse fill="#520666" stroke="#520666" stroke-width="2" cx="129.002" cy="-264.078" rx="2" ry="2"/>
</g>
<!-- tue -->
<g id="node6" class="node"><title>tue</title>
<polygon fill="#e8ea7a" stroke="none" points="15,-381 15,-410 74,-410 74,-381 15,-381"/>
<polygon fill="none" stroke="#616233" points="15,-381 15,-410 74,-410 74,-381 15,-381"/>
<text text-anchor="start" x="35" y="-396.3" font-family="Helvetica,sans-Serif" font-size="14.00" fill="#000000">tue</text>
<text text-anchor="start" x="18.5" y="-387.1" font-family="Helvetica,sans-Serif" font-size="8.00" fill="#000000">constant/string</text>
<polygon fill="#828344" stroke="none" points="15,-364 15,-381 74,-381 74,-364 15,-364"/>
<polygon fill="none" stroke="#616233" points="15,-364 15,-381 74,-381 74,-364 15,-364"/>
<text text-anchor="start" x="38" y="-370" font-family="Helvetica,sans-Serif" font-size="10.00" fill="#ffffff">OUT ◉</text>
</g>
<!-- tue&#45;&gt;days -->
<g id="edge3" class="edge"><title>tue:OUT_OUT:e&#45;&gt;days:IN_IN:w</title>
<path fill="none" stroke="#1f112c" stroke-width="2" d="M75,-372C127.591,-372 79.7029,-269.826 126.799,-264.238"/>
<ellipse fill="#1f112c" stroke="#1f112c" stroke-width="2" cx="129.003" cy="-264.113" rx="2" ry="2"/>
</g>
<!-- wed -->
<g id="node7" class="node"><title>wed</title>
<polygon fill="#e8ea7a" stroke="none" points="15,-309 15,-338 74,-338 74,-309 15,-309"/>
<polygon fill="none" stroke="#616233" points="15,-309 15,-338 74,-338 74,-309 15,-309"/>
<text text-anchor="start" x="32" y="-324.3" font-family="Helvetica,sans-Serif" font-size="14.00" fill="#000000">wed</text>
<text text-anchor="start" x="18.5" y="-315.1" font-family="Helvetica,sans-Serif" font-size="8.00" fill="#000000">constant/string</text>
<polygon fill="#828344" stroke="none" points="15,-292 15,-309 74,-309 74,-292 15,-292"/>
<polygon fill="none" stroke="#616233" points="15,-292 15,-309 74,-309 74,-292 15,-292"/>
<text text-anchor="start" x="38" y="-298" font-family="Helvetica,sans-Serif" font-size="10.00" fill="#ffffff">OUT ◉</text>
</g>
<!-- wed&#45;&gt;days -->
<g id="edge4" class="edge"><title>wed:OUT_OUT:e&#45;&gt;days:IN_IN:w</title>
<path fill="none" stroke="#c828f2" stroke-width="2" d="M75,-300C103.086,-300 101.65,-267.563 126.737,-264.269"/>
<ellipse fill="#c828f2" stroke="#c828f2" stroke-width="2" cx="129.004" cy="-264.126" rx="2" ry="2"/>
</g>
<!-- thu -->
<g id="node8" class="node"><title>thu</title>
<polygon fill="#e8ea7a" stroke="none" points="15,-237 15,-266 74,-266 74,-237 15,-237"/>
<polygon fill="none" stroke="#616233" points="15,-237 15,-266 74,-266 74,-237 15,-237"/>
<text text-anchor="start" x="35" y="-252.3" font-family="Helvetica,sans-Serif" font-size="14.00" fill="#000000">thu</text>
<text text-anchor="start" x="18.5" y="-243.1" font-family="Helvetica,sans-Serif" font-size="8.00" fill="#000000">constant/string</text>
<polygon fill="#828344" stroke="none" points="15,-220 15,-237 74,-237 74,-220 15,-220"/>
<polygon fill="none" stroke="#616233" points="15,-220 15,-237 74,-237 74,-220 15,-220"/>
<text text-anchor="start" x="38" y="-226" font-family="Helvetica,sans-Serif" font-size="10.00" fill="#ffffff">OUT ◉</text>
</g>
<!-- thu&#45;&gt;days -->
<g id="edge5" class="edge"><title>thu:OUT_OUT:e&#45;&gt;days:IN_IN:w</title>
<path fill="none" stroke="#853fb8" stroke-width="2" d="M75,-228C103.086,-228 101.65,-260.437 126.737,-263.731"/>
<ellipse fill="#853fb8" stroke="#853fb8" stroke-width="2" cx="129.004" cy="-263.874" rx="2" ry="2"/>
</g>
<!-- fri -->
<g id="node9" class="node"><title>fri</title>
<polygon fill="#e8ea7a" stroke="none" points="15,-165 15,-194 74,-194 74,-165 15,-165"/>
<polygon fill="none" stroke="#616233" points="15,-165 15,-194 74,-194 74,-165 15,-165"/>
<text text-anchor="start" x="38.5" y="-180.3" font-family="Helvetica,sans-Serif" font-size="14.00" fill="#000000">fri</text>
<text text-anchor="start" x="18.5" y="-171.1" font-family="Helvetica,sans-Serif" font-size="8.00" fill="#000000">constant/string</text>
<polygon fill="#828344" stroke="none" points="15,-148 15,-165 74,-165 74,-148 15,-148"/>
<polygon fill="none" stroke="#616233" points="15,-148 15,-165 74,-165 74,-148 15,-148"/>
<text text-anchor="start" x="38" y="-154" font-family="Helvetica,sans-Serif" font-size="10.00" fill="#ffffff">OUT ◉</text>
</g>
<!-- fri&#45;&gt;days -->
<g id="edge6" class="edge"><title>fri:OUT_OUT:e&#45;&gt;days:IN_IN:w</title>
<path fill="none" stroke="#86a944" stroke-width="2" d="M75,-156C127.591,-156 79.7029,-258.174 126.799,-263.762"/>
<ellipse fill="#86a944" stroke="#86a944" stroke-width="2" cx="129.003" cy="-263.887" rx="2" ry="2"/>
</g>
<!-- sat -->
<g id="node10" class="node"><title>sat</title>
<polygon fill="#e8ea7a" stroke="none" points="15,-93 15,-122 74,-122 74,-93 15,-93"/>
<polygon fill="none" stroke="#616233" points="15,-93 15,-122 74,-122 74,-93 15,-93"/>
<text text-anchor="start" x="35" y="-108.3" font-family="Helvetica,sans-Serif" font-size="14.00" fill="#000000">sat</text>
<text text-anchor="start" x="18.5" y="-99.1" font-family="Helvetica,sans-Serif" font-size="8.00" fill="#000000">constant/string</text>
<polygon fill="#828344" stroke="none" points="15,-76 15,-93 74,-93 74,-76 15,-76"/>
<polygon fill="none" stroke="#616233" points="15,-76 15,-93 74,-93 74,-76 15,-76"/>
<text text-anchor="start" x="38" y="-82" font-family="Helvetica,sans-Serif" font-size="10.00" fill="#ffffff">OUT ◉</text>
</g>
<!-- sat&#45;&gt;days -->
<g id="edge7" class="edge"><title>sat:OUT_OUT:e&#45;&gt;days:IN_IN:w</title>
<path fill="none" stroke="#cbbe0e" stroke-width="2" d="M75,-84C157.309,-84 51.0796,-257.727 126.761,-263.835"/>
<ellipse fill="#cbbe0e" stroke="#cbbe0e" stroke-width="2" cx="129.002" cy="-263.922" rx="2" ry="2"/>
</g>
</g>
</svg>
