<?xml version="1.0" encoding="UTF-8" standalone="no"?>
<!DOCTYPE svg PUBLIC "-//W3C//DTD SVG 1.1//EN"
 "http://www.w3.org/Graphics/SVG/1.1/DTD/svg11.dtd">
<!-- Generated by graphviz version 2.36.0 (20140111.2315)
 -->
<!-- Title: fbp Pages: 1 -->
<svg width="1336pt" height="403pt"
 viewBox="0.00 0.00 1336.00 403.00" xmlns="http://www.w3.org/2000/svg" xmlns:xlink="http://www.w3.org/1999/xlink">
<g id="graph0" class="graph" transform="scale(1 1) rotate(0) translate(4 399)">
<title>fbp</title>
<polygon fill="white" stroke="none" points="-4,4 -4,-399 1332,-399 1332,4 -4,4"/>
<!-- accel -->
<g id="node1" class="node"><title>accel</title>
<polygon fill="#743dc8" stroke="none" points="24,-286 24,-315 92,-315 92,-286 24,-286"/>
<polygon fill="none" stroke="#301854" points="24,-286 24,-315 92,-315 92,-286 24,-286"/>
<text text-anchor="start" x="42" y="-301.3" font-family="Helvetica,sans-Serif" font-size="14.00" fill="#ffffff">accel</text>
<text text-anchor="start" x="27.5" y="-292.1" font-family="Helvetica,sans-Serif" font-size="8.00" fill="#ffffff">iio/accelerometer</text>
<polygon fill="#412170" stroke="none" points="24,-269 24,-286 92,-286 92,-269 24,-269"/>
<polygon fill="none" stroke="#301854" points="24,-269 24,-286 92,-286 92,-269 24,-269"/>
<text text-anchor="start" x="56" y="-275" font-family="Helvetica,sans-Serif" font-size="10.00" fill="#ffffff">OUT ◉</text>
</g>
<!-- converter -->
<g id="node4" class="node"><title>converter</title>
<polygon fill="#bd648a" stroke="none" points="160,-285 160,-314 286,-314 286,-285 160,-285"/>
<polygon fill="none" stroke="#4e2a39" points="160,-285 160,-314 286,-314 286,-285 160,-285"/>
<text text-anchor="start" x="194.5" y="-300.3" font-family="Helvetica,sans-Serif" font-size="14.00" fill="#000000">converter</text>
<text text-anchor="start" x="163.5" y="-291.1" font-family="Helvetica,sans-Serif" font-size="8.00" fill="#000000">converter/direction&#45;vector&#45;to&#45;float</text>
<polygon fill="#8d4b67" stroke="none" points="160,-268 160,-285 286,-285 286,-268 160,-268"/>
<polygon fill="none" stroke="#4e2a39" points="160,-268 160,-285 286,-285 286,-268 160,-268"/>
<text text-anchor="start" x="163" y="-274" font-family="Helvetica,sans-Serif" font-size="10.00" fill="#ffffff">◎ IN</text>
<polygon fill="#69384d" stroke="none" points="160,-251 160,-268 286,-268 286,-251 160,-251"/>
<polygon fill="none" stroke="#4e2a39" points="160,-251 160,-268 286,-268 286,-251 160,-251"/>
<text text-anchor="start" x="264" y="-257" font-family="Helvetica,sans-Serif" font-size="10.00" fill="#ffffff">X ◉</text>
<polygon fill="#69384d" stroke="none" points="160,-234 160,-251 286,-251 286,-234 160,-234"/>
<polygon fill="none" stroke="#4e2a39" points="160,-234 160,-251 286,-251 286,-234 160,-234"/>
<text text-anchor="start" x="264" y="-240" font-family="Helvetica,sans-Serif" font-size="10.00" fill="#ffffff">Y ◉</text>
<polygon fill="#69384d" stroke="none" points="160,-217 160,-234 286,-234 286,-217 160,-217"/>
<polygon fill="none" stroke="#4e2a39" points="160,-217 160,-234 286,-234 286,-217 160,-217"/>
<text text-anchor="start" x="265" y="-223" font-family="Helvetica,sans-Serif" font-size="10.00" fill="#ffffff">Z ◉</text>
</g>
<!-- accel&#45;&gt;converter -->
<g id="edge2" class="edge"><title>accel:OUT_OUT:e&#45;&gt;converter:IN_IN:w</title>
<path fill="none" stroke="#94353c" stroke-width="2" d="M93,-277C120.844,-277 128.865,-277 154.696,-277"/>
<ellipse fill="#94353c" stroke="#94353c" stroke-width="2" cx="157" cy="-277" rx="2" ry="2"/>
</g>
<!-- arctanx -->
<g id="node2" class="node"><title>arctanx</title>
<polygon fill="#9041e0" stroke="none" points="818,-323 818,-352 882,-352 882,-323 818,-323"/>
<polygon fill="none" stroke="#3c1b5e" points="818,-323 818,-352 882,-352 882,-323 818,-323"/>
<text text-anchor="start" x="827.5" y="-338.3" font-family="Helvetica,sans-Serif" font-size="14.00" fill="#ffffff">arctanx</text>
<text text-anchor="start" x="821.5" y="-329.1" font-family="Helvetica,sans-Serif" font-size="8.00" fill="#ffffff">arctangent/logic</text>
<polygon fill="#6c30a8" stroke="none" points="818,-306 818,-323 882,-323 882,-306 818,-306"/>
<polygon fill="none" stroke="#3c1b5e" points="818,-306 818,-323 882,-323 882,-306 818,-306"/>
<text text-anchor="start" x="821" y="-312" font-family="Helvetica,sans-Serif" font-size="10.00" fill="#ffffff">◎ IN</text>
<polygon fill="#51247e" stroke="none" points="818,-289 818,-306 882,-306 882,-289 818,-289"/>
<polygon fill="none" stroke="#3c1b5e" points="818,-289 818,-306 882,-306 882,-289 818,-289"/>
<text text-anchor="start" x="846" y="-295" font-family="Helvetica,sans-Serif" font-size="10.00" fill="#ffffff">OUT ◉</text>
</g>
<!-- #anon:56:19 -->
<g id="node18" class="node"><title>#anon:56:19</title>
<polygon fill="#bd648a" stroke="none" points="934,-303 934,-325 1080,-325 1080,-303 934,-303"/>
<polygon fill="none" stroke="#4e2a39" points="934,-303 934,-325 1080,-325 1080,-303 934,-303"/>
<text text-anchor="start" x="937.5" y="-310.3" font-family="Helvetica,sans-Serif" font-size="14.00" fill="#000000">converter/float&#45;to&#45;string</text>
<polygon fill="#8d4b67" stroke="none" points="934,-286 934,-303 1080,-303 1080,-286 934,-286"/>
<polygon fill="none" stroke="#4e2a39" points="934,-286 934,-303 1080,-303 1080,-286 934,-286"/>
<text text-anchor="start" x="937" y="-292" font-family="Helvetica,sans-Serif" font-size="10.00" fill="#ffffff">◎ IN</text>
<polygon fill="#69384d" stroke="none" points="934,-269 934,-286 1080,-286 1080,-269 934,-269"/>
<polygon fill="none" stroke="#4e2a39" points="934,-269 934,-286 1080,-286 1080,-269 934,-269"/>
<text text-anchor="start" x="1044" y="-275" font-family="Helvetica,sans-Serif" font-size="10.00" fill="#ffffff">OUT ◉</text>
</g>
<!-- arctanx&#45;&gt;#anon:56:19 -->
<g id="edge19" class="edge"><title>arctanx:OUT_OUT:e&#45;&gt;#anon:56:19:IN_IN:w</title>
<path fill="none" stroke="#0f43fe" stroke-width="2" d="M883,-297C903.697,-297 909.885,-294.407 928.541,-294.042"/>
<ellipse fill="#0f43fe" stroke="#0f43fe" stroke-width="2" cx="931" cy="-294.019" rx="2" ry="2"/>
</g>
<!-- arctany -->
<g id="node3" class="node"><title>arctany</title>
<polygon fill="#9041e0" stroke="none" points="818,-230 818,-259 882,-259 882,-230 818,-230"/>
<polygon fill="none" stroke="#3c1b5e" points="818,-230 818,-259 882,-259 882,-230 818,-230"/>
<text text-anchor="start" x="827.5" y="-245.3" font-family="Helvetica,sans-Serif" font-size="14.00" fill="#ffffff">arctany</text>
<text text-anchor="start" x="821.5" y="-236.1" font-family="Helvetica,sans-Serif" font-size="8.00" fill="#ffffff">arctangent/logic</text>
<polygon fill="#6c30a8" stroke="none" points="818,-213 818,-230 882,-230 882,-213 818,-213"/>
<polygon fill="none" stroke="#3c1b5e" points="818,-213 818,-230 882,-230 882,-213 818,-213"/>
<text text-anchor="start" x="821" y="-219" font-family="Helvetica,sans-Serif" font-size="10.00" fill="#ffffff">◎ IN</text>
<polygon fill="#51247e" stroke="none" points="818,-196 818,-213 882,-213 882,-196 818,-196"/>
<polygon fill="none" stroke="#3c1b5e" points="818,-196 818,-213 882,-213 882,-196 818,-196"/>
<text text-anchor="start" x="846" y="-202" font-family="Helvetica,sans-Serif" font-size="10.00" fill="#ffffff">OUT ◉</text>
</g>
<!-- #anon:58:19 -->
<g id="node19" class="node"><title>#anon:58:19</title>
<polygon fill="#bd648a" stroke="none" points="934,-218 934,-240 1080,-240 1080,-218 934,-218"/>
<polygon fill="none" stroke="#4e2a39" points="934,-218 934,-240 1080,-240 1080,-218 934,-218"/>
<text text-anchor="start" x="937.5" y="-225.3" font-family="Helvetica,sans-Serif" font-size="14.00" fill="#000000">converter/float&#45;to&#45;string</text>
<polygon fill="#8d4b67" stroke="none" points="934,-201 934,-218 1080,-218 1080,-201 934,-201"/>
<polygon fill="none" stroke="#4e2a39" points="934,-201 934,-218 1080,-218 1080,-201 934,-201"/>
<text text-anchor="start" x="937" y="-207" font-family="Helvetica,sans-Serif" font-size="10.00" fill="#ffffff">◎ IN</text>
<polygon fill="#69384d" stroke="none" points="934,-184 934,-201 1080,-201 1080,-184 934,-184"/>
<polygon fill="none" stroke="#4e2a39" points="934,-184 934,-201 1080,-201 1080,-184 934,-184"/>
<text text-anchor="start" x="1044" y="-190" font-family="Helvetica,sans-Serif" font-size="10.00" fill="#ffffff">OUT ◉</text>
</g>
<!-- arctany&#45;&gt;#anon:58:19 -->
<g id="edge23" class="edge"><title>arctany:OUT_OUT:e&#45;&gt;#anon:58:19:IN_IN:w</title>
<path fill="none" stroke="#0bb832" stroke-width="2" d="M883,-204C903.763,-204 909.833,-208.322 928.529,-208.929"/>
<ellipse fill="#0bb832" stroke="#0bb832" stroke-width="2" cx="931" cy="-208.968" rx="2" ry="2"/>
</g>
<!-- powx -->
<g id="node5" class="node"><title>powx</title>
<polygon fill="#503fc2" stroke="none" points="338,-267 338,-296 412,-296 412,-267 338,-267"/>
<polygon fill="none" stroke="#211a51" points="338,-267 338,-296 412,-296 412,-267 338,-267"/>
<text text-anchor="start" x="359" y="-282.3" font-family="Helvetica,sans-Serif" font-size="14.00" fill="#ffffff">powx</text>
<text text-anchor="start" x="358.5" y="-273.1" font-family="Helvetica,sans-Serif" font-size="8.00" fill="#ffffff">float/pow</text>
<polygon fill="#3c2f91" stroke="none" points="338,-250 338,-267 412,-267 412,-250 338,-250"/>
<polygon fill="none" stroke="#211a51" points="338,-250 338,-267 412,-267 412,-250 338,-250"/>
<text text-anchor="start" x="341" y="-256" font-family="Helvetica,sans-Serif" font-size="10.00" fill="#ffffff">◎ BASE</text>
<polygon fill="#3c2f91" stroke="none" points="338,-233 338,-250 412,-250 412,-233 338,-233"/>
<polygon fill="none" stroke="#211a51" points="338,-233 338,-250 412,-250 412,-233 338,-233"/>
<text text-anchor="start" x="341" y="-239" font-family="Helvetica,sans-Serif" font-size="10.00" fill="#ffffff">◎ EXPONENT</text>
<polygon fill="#2d236c" stroke="none" points="338,-216 338,-233 412,-233 412,-216 338,-216"/>
<polygon fill="none" stroke="#211a51" points="338,-216 338,-233 412,-233 412,-216 338,-216"/>
<text text-anchor="start" x="376" y="-222" font-family="Helvetica,sans-Serif" font-size="10.00" fill="#ffffff">OUT ◉</text>
</g>
<!-- converter&#45;&gt;powx -->
<g id="edge3" class="edge"><title>converter:OUT_X:e&#45;&gt;powx:IN_BASE:w</title>
<path fill="none" stroke="#055241" stroke-width="2" d="M287,-259C307.66,-259 313.914,-259 332.548,-259"/>
<ellipse fill="#055241" stroke="#055241" stroke-width="2" cx="335" cy="-259" rx="2" ry="2"/>
</g>
<!-- powy -->
<g id="node6" class="node"><title>powy</title>
<polygon fill="#503fc2" stroke="none" points="338,-161 338,-190 412,-190 412,-161 338,-161"/>
<polygon fill="none" stroke="#211a51" points="338,-161 338,-190 412,-190 412,-161 338,-161"/>
<text text-anchor="start" x="359" y="-176.3" font-family="Helvetica,sans-Serif" font-size="14.00" fill="#ffffff">powy</text>
<text text-anchor="start" x="358.5" y="-167.1" font-family="Helvetica,sans-Serif" font-size="8.00" fill="#ffffff">float/pow</text>
<polygon fill="#3c2f91" stroke="none" points="338,-144 338,-161 412,-161 412,-144 338,-144"/>
<polygon fill="none" stroke="#211a51" points="338,-144 338,-161 412,-161 412,-144 338,-144"/>
<text text-anchor="start" x="341" y="-150" font-family="Helvetica,sans-Serif" font-size="10.00" fill="#ffffff">◎ BASE</text>
<polygon fill="#3c2f91" stroke="none" points="338,-127 338,-144 412,-144 412,-127 338,-127"/>
<polygon fill="none" stroke="#211a51" points="338,-127 338,-144 412,-144 412,-127 338,-127"/>
<text text-anchor="start" x="341" y="-133" font-family="Helvetica,sans-Serif" font-size="10.00" fill="#ffffff">◎ EXPONENT</text>
<polygon fill="#2d236c" stroke="none" points="338,-110 338,-127 412,-127 412,-110 338,-110"/>
<polygon fill="none" stroke="#211a51" points="338,-110 338,-127 412,-127 412,-110 338,-110"/>
<text text-anchor="start" x="376" y="-116" font-family="Helvetica,sans-Serif" font-size="10.00" fill="#ffffff">OUT ◉</text>
</g>
<!-- converter&#45;&gt;powy -->
<g id="edge7" class="edge"><title>converter:OUT_Y:e&#45;&gt;powy:IN_BASE:w</title>
<path fill="none" stroke="#3b4a89" stroke-width="2" d="M287,-242C330.953,-242 294.092,-158.476 332.994,-153.255"/>
<ellipse fill="#3b4a89" stroke="#3b4a89" stroke-width="2" cx="335.004" cy="-153.127" rx="2" ry="2"/>
</g>
<!-- powz -->
<g id="node7" class="node"><title>powz</title>
<polygon fill="#503fc2" stroke="none" points="338,-55 338,-84 412,-84 412,-55 338,-55"/>
<polygon fill="none" stroke="#211a51" points="338,-55 338,-84 412,-84 412,-55 338,-55"/>
<text text-anchor="start" x="359" y="-70.3" font-family="Helvetica,sans-Serif" font-size="14.00" fill="#ffffff">powz</text>
<text text-anchor="start" x="358.5" y="-61.1" font-family="Helvetica,sans-Serif" font-size="8.00" fill="#ffffff">float/pow</text>
<polygon fill="#3c2f91" stroke="none" points="338,-38 338,-55 412,-55 412,-38 338,-38"/>
<polygon fill="none" stroke="#211a51" points="338,-38 338,-55 412,-55 412,-38 338,-38"/>
<text text-anchor="start" x="341" y="-44" font-family="Helvetica,sans-Serif" font-size="10.00" fill="#ffffff">◎ BASE</text>
<polygon fill="#3c2f91" stroke="none" points="338,-21 338,-38 412,-38 412,-21 338,-21"/>
<polygon fill="none" stroke="#211a51" points="338,-21 338,-38 412,-38 412,-21 338,-21"/>
<text text-anchor="start" x="341" y="-27" font-family="Helvetica,sans-Serif" font-size="10.00" fill="#ffffff">◎ EXPONENT</text>
<polygon fill="#2d236c" stroke="none" points="338,-4 338,-21 412,-21 412,-4 338,-4"/>
<polygon fill="none" stroke="#211a51" points="338,-4 338,-21 412,-21 412,-4 338,-4"/>
<text text-anchor="start" x="376" y="-10" font-family="Helvetica,sans-Serif" font-size="10.00" fill="#ffffff">OUT ◉</text>
</g>
<!-- converter&#45;&gt;powz -->
<g id="edge11" class="edge"><title>converter:OUT_Z:e&#45;&gt;powz:IN_BASE:w</title>
<path fill="none" stroke="#7963d1" stroke-width="2" d="M287,-225C367.729,-225 258.786,-53.2028 332.847,-47.1631"/>
<ellipse fill="#7963d1" stroke="#7963d1" stroke-width="2" cx="335.002" cy="-47.0785" rx="2" ry="2"/>
</g>
<!-- div -->
<g id="node11" class="node"><title>div</title>
<polygon fill="#503fc2" stroke="none" points="698,-256 698,-285 766,-285 766,-256 698,-256"/>
<polygon fill="none" stroke="#211a51" points="698,-256 698,-285 766,-285 766,-256 698,-256"/>
<text text-anchor="start" x="723" y="-271.3" font-family="Helvetica,sans-Serif" font-size="14.00" fill="#ffffff">div</text>
<text text-anchor="start" x="710.5" y="-262.1" font-family="Helvetica,sans-Serif" font-size="8.00" fill="#ffffff">float/division</text>
<polygon fill="#3c2f91" stroke="none" points="698,-239 698,-256 766,-256 766,-239 698,-239"/>
<polygon fill="none" stroke="#211a51" points="698,-239 698,-256 766,-256 766,-239 698,-239"/>
<text text-anchor="start" x="701" y="-245" font-family="Helvetica,sans-Serif" font-size="10.00" fill="#ffffff">◎ DIVISOR</text>
<polygon fill="#3c2f91" stroke="none" points="698,-222 698,-239 766,-239 766,-222 698,-222"/>
<polygon fill="none" stroke="#211a51" points="698,-222 698,-239 766,-239 766,-222 698,-222"/>
<text text-anchor="start" x="701" y="-228" font-family="Helvetica,sans-Serif" font-size="10.00" fill="#ffffff">◎ DIVIDEND</text>
<polygon fill="#2d236c" stroke="none" points="698,-205 698,-222 766,-222 766,-205 698,-205"/>
<polygon fill="none" stroke="#211a51" points="698,-205 698,-222 766,-222 766,-205 698,-205"/>
<text text-anchor="start" x="730" y="-211" font-family="Helvetica,sans-Serif" font-size="10.00" fill="#ffffff">OUT ◉</text>
</g>
<!-- converter&#45;&gt;div -->
<g id="edge21" class="edge"><title>converter:OUT_Y:e&#45;&gt;div:IN_DIVIDEND:w</title>
<path fill="none" stroke="#0b1464" stroke-width="2" d="M287,-242C322.01,-242 299.221,-291.318 330,-308 365.167,-327.06 380.071,-310.38 420,-308 524.556,-301.767 561.573,-329.277 654,-280 678.55,-266.911 668.829,-233.62 692.845,-230.272"/>
<ellipse fill="#0b1464" stroke="#0b1464" stroke-width="2" cx="695.004" cy="-230.131" rx="2" ry="2"/>
</g>
<!-- div2 -->
<g id="node12" class="node"><title>div2</title>
<polygon fill="#503fc2" stroke="none" points="698,-362 698,-391 766,-391 766,-362 698,-362"/>
<polygon fill="none" stroke="#211a51" points="698,-362 698,-391 766,-391 766,-362 698,-362"/>
<text text-anchor="start" x="719.5" y="-377.3" font-family="Helvetica,sans-Serif" font-size="14.00" fill="#ffffff">div2</text>
<text text-anchor="start" x="710.5" y="-368.1" font-family="Helvetica,sans-Serif" font-size="8.00" fill="#ffffff">float/division</text>
<polygon fill="#3c2f91" stroke="none" points="698,-345 698,-362 766,-362 766,-345 698,-345"/>
<polygon fill="none" stroke="#211a51" points="698,-345 698,-362 766,-362 766,-345 698,-345"/>
<text text-anchor="start" x="701" y="-351" font-family="Helvetica,sans-Serif" font-size="10.00" fill="#ffffff">◎ DIVISOR</text>
<polygon fill="#3c2f91" stroke="none" points="698,-328 698,-345 766,-345 766,-328 698,-328"/>
<polygon fill="none" stroke="#211a51" points="698,-328 698,-345 766,-345 766,-328 698,-328"/>
<text text-anchor="start" x="701" y="-334" font-family="Helvetica,sans-Serif" font-size="10.00" fill="#ffffff">◎ DIVIDEND</text>
<polygon fill="#2d236c" stroke="none" points="698,-311 698,-328 766,-328 766,-311 698,-311"/>
<polygon fill="none" stroke="#211a51" points="698,-311 698,-328 766,-328 766,-311 698,-311"/>
<text text-anchor="start" x="730" y="-317" font-family="Helvetica,sans-Serif" font-size="10.00" fill="#ffffff">OUT ◉</text>
</g>
<!-- converter&#45;&gt;div2 -->
<g id="edge17" class="edge"><title>converter:OUT_X:e&#45;&gt;div2:IN_DIVIDEND:w</title>
<path fill="none" stroke="#7f7297" stroke-width="2" d="M287,-259C322.383,-259 299.184,-308.612 330,-326 470.86,-405.482 532.737,-337.222 692.721,-336.016"/>
<ellipse fill="#7f7297" stroke="#7f7297" stroke-width="2" cx="695" cy="-336.008" rx="2" ry="2"/>
</g>
<!-- add -->
<g id="node9" class="node"><title>add</title>
<polygon fill="#503fc2" stroke="none" points="465,-233 465,-262 534,-262 534,-233 465,-233"/>
<polygon fill="none" stroke="#211a51" points="465,-233 465,-262 534,-262 534,-233 465,-233"/>
<text text-anchor="start" x="488" y="-248.3" font-family="Helvetica,sans-Serif" font-size="14.00" fill="#ffffff">add</text>
<text text-anchor="start" x="476.5" y="-239.1" font-family="Helvetica,sans-Serif" font-size="8.00" fill="#ffffff">float/addition</text>
<polygon fill="#3c2f91" stroke="none" points="465,-216 465,-233 534,-233 534,-216 465,-216"/>
<polygon fill="none" stroke="#211a51" points="465,-216 465,-233 534,-233 534,-216 465,-216"/>
<text text-anchor="start" x="468" y="-222" font-family="Helvetica,sans-Serif" font-size="10.00" fill="#ffffff">◎ OPERAND</text>
<polygon fill="#2d236c" stroke="none" points="465,-199 465,-216 534,-216 534,-199 465,-199"/>
<polygon fill="none" stroke="#211a51" points="465,-199 465,-216 534,-216 534,-199 465,-199"/>
<text text-anchor="start" x="498" y="-205" font-family="Helvetica,sans-Serif" font-size="10.00" fill="#ffffff">OUT ◉</text>
</g>
<!-- powx&#45;&gt;add -->
<g id="edge4" class="edge"><title>powx:OUT_OUT:e&#45;&gt;add:IN_OPERAND:w</title>
<path fill="none" stroke="#6c7502" stroke-width="2" d="M413,-224C434.25,-224 440.559,-224 459.941,-224"/>
<ellipse fill="#6c7502" stroke="#6c7502" stroke-width="2" cx="462" cy="-224" rx="2" ry="2"/>
</g>
<!-- add2 -->
<g id="node10" class="node"><title>add2</title>
<polygon fill="#503fc2" stroke="none" points="465,-127 465,-156 534,-156 534,-127 465,-127"/>
<polygon fill="none" stroke="#211a51" points="465,-127 465,-156 534,-156 534,-127 465,-127"/>
<text text-anchor="start" x="484" y="-142.3" font-family="Helvetica,sans-Serif" font-size="14.00" fill="#ffffff">add2</text>
<text text-anchor="start" x="476.5" y="-133.1" font-family="Helvetica,sans-Serif" font-size="8.00" fill="#ffffff">float/addition</text>
<polygon fill="#3c2f91" stroke="none" points="465,-110 465,-127 534,-127 534,-110 465,-110"/>
<polygon fill="none" stroke="#211a51" points="465,-110 465,-127 534,-127 534,-110 465,-110"/>
<text text-anchor="start" x="468" y="-116" font-family="Helvetica,sans-Serif" font-size="10.00" fill="#ffffff">◎ OPERAND</text>
<polygon fill="#2d236c" stroke="none" points="465,-93 465,-110 534,-110 534,-93 465,-93"/>
<polygon fill="none" stroke="#211a51" points="465,-93 465,-110 534,-110 534,-93 465,-93"/>
<text text-anchor="start" x="498" y="-99" font-family="Helvetica,sans-Serif" font-size="10.00" fill="#ffffff">OUT ◉</text>
</g>
<!-- powy&#45;&gt;add2 -->
<g id="edge8" class="edge"><title>powy:OUT_OUT:e&#45;&gt;add2:IN_OPERAND:w</title>
<path fill="none" stroke="#6fdc46" stroke-width="2" d="M413,-118C434.25,-118 440.559,-118 459.941,-118"/>
<ellipse fill="#6fdc46" stroke="#6fdc46" stroke-width="2" cx="462" cy="-118" rx="2" ry="2"/>
</g>
<!-- powz&#45;&gt;add -->
<g id="edge12" class="edge"><title>powz:OUT_OUT:e&#45;&gt;add:IN_OPERAND:w</title>
<path fill="none" stroke="#f65b96" stroke-width="2" d="M413,-12C508.491,-12 371.222,-217.835 459.894,-223.865"/>
<ellipse fill="#f65b96" stroke="#f65b96" stroke-width="2" cx="462.001" cy="-223.934" rx="2" ry="2"/>
</g>
<!-- powz&#45;&gt;add2 -->
<g id="edge14" class="edge"><title>powz:OUT_OUT:e&#45;&gt;add2:IN_OPERAND:w</title>
<path fill="none" stroke="#1d403d" stroke-width="2" d="M413,-12C463.851,-12 414.57,-112.282 459.944,-117.767"/>
<ellipse fill="#1d403d" stroke="#1d403d" stroke-width="2" cx="462.003" cy="-117.885" rx="2" ry="2"/>
</g>
<!-- two -->
<g id="node8" class="node"><title>two</title>
<polygon fill="#e8ea7a" stroke="none" points="196,-144 196,-173 251,-173 251,-144 196,-144"/>
<polygon fill="none" stroke="#616233" points="196,-144 196,-173 251,-173 251,-144 196,-144"/>
<text text-anchor="start" x="212.5" y="-159.3" font-family="Helvetica,sans-Serif" font-size="14.00" fill="#000000">two</text>
<text text-anchor="start" x="199.5" y="-150.1" font-family="Helvetica,sans-Serif" font-size="8.00" fill="#000000">constant/float</text>
<polygon fill="#828344" stroke="none" points="196,-127 196,-144 251,-144 251,-127 196,-127"/>
<polygon fill="none" stroke="#616233" points="196,-127 196,-144 251,-144 251,-127 196,-127"/>
<text text-anchor="start" x="215" y="-133" font-family="Helvetica,sans-Serif" font-size="10.00" fill="#ffffff">OUT ◉</text>
</g>
<!-- two&#45;&gt;powx -->
<g id="edge16" class="edge"><title>two:OUT_OUT:e&#45;&gt;powx:IN_EXPONENT:w</title>
<path fill="none" stroke="#5d4a48" stroke-width="2" d="M252,-135C310.972,-135 278.237,-236.089 332.91,-240.828"/>
<ellipse fill="#5d4a48" stroke="#5d4a48" stroke-width="2" cx="335.002" cy="-240.916" rx="2" ry="2"/>
</g>
<!-- two&#45;&gt;powy -->
<g id="edge15" class="edge"><title>two:OUT_OUT:e&#45;&gt;powy:IN_EXPONENT:w</title>
<path fill="none" stroke="#13f446" stroke-width="2" d="M252,-135C288.302,-135 298.441,-135 332.699,-135"/>
<ellipse fill="#13f446" stroke="#13f446" stroke-width="2" cx="335" cy="-135" rx="2" ry="2"/>
</g>
<!-- two&#45;&gt;powz -->
<g id="edge13" class="edge"><title>two:OUT_OUT:e&#45;&gt;powz:IN_EXPONENT:w</title>
<path fill="none" stroke="#c03654" stroke-width="2" d="M252,-135C310.972,-135 278.237,-33.9105 332.91,-29.172"/>
<ellipse fill="#c03654" stroke="#c03654" stroke-width="2" cx="335.002" cy="-29.0841" rx="2" ry="2"/>
</g>
<!-- #anon:49:58 -->
<g id="node16" class="node"><title>#anon:49:58</title>
<polygon fill="#503fc2" stroke="none" points="587,-245 587,-267 646,-267 646,-245 587,-245"/>
<polygon fill="none" stroke="#211a51" points="587,-245 587,-267 646,-267 646,-245 587,-245"/>
<text text-anchor="start" x="590.5" y="-252.3" font-family="Helvetica,sans-Serif" font-size="14.00" fill="#ffffff">float/sqrt</text>
<polygon fill="#3c2f91" stroke="none" points="587,-228 587,-245 646,-245 646,-228 587,-228"/>
<polygon fill="none" stroke="#211a51" points="587,-228 587,-245 646,-245 646,-228 587,-228"/>
<text text-anchor="start" x="590" y="-234" font-family="Helvetica,sans-Serif" font-size="10.00" fill="#ffffff">◎ IN</text>
<polygon fill="#2d236c" stroke="none" points="587,-211 587,-228 646,-228 646,-211 587,-211"/>
<polygon fill="none" stroke="#211a51" points="587,-211 587,-228 646,-228 646,-211 587,-211"/>
<text text-anchor="start" x="610" y="-217" font-family="Helvetica,sans-Serif" font-size="10.00" fill="#ffffff">OUT ◉</text>
</g>
<!-- add&#45;&gt;#anon:49:58 -->
<g id="edge5" class="edge"><title>add:OUT_OUT:e&#45;&gt;#anon:49:58:IN_IN:w</title>
<path fill="none" stroke="#855298" stroke-width="2" d="M535,-207C559.649,-207 559.969,-232.915 581.957,-235.749"/>
<ellipse fill="#855298" stroke="#855298" stroke-width="2" cx="584.004" cy="-235.876" rx="2" ry="2"/>
</g>
<!-- #anon:50:59 -->
<g id="node17" class="node"><title>#anon:50:59</title>
<polygon fill="#503fc2" stroke="none" points="587,-137 587,-159 646,-159 646,-137 587,-137"/>
<polygon fill="none" stroke="#211a51" points="587,-137 587,-159 646,-159 646,-137 587,-137"/>
<text text-anchor="start" x="590.5" y="-144.3" font-family="Helvetica,sans-Serif" font-size="14.00" fill="#ffffff">float/sqrt</text>
<polygon fill="#3c2f91" stroke="none" points="587,-120 587,-137 646,-137 646,-120 587,-120"/>
<polygon fill="none" stroke="#211a51" points="587,-120 587,-137 646,-137 646,-120 587,-120"/>
<text text-anchor="start" x="590" y="-126" font-family="Helvetica,sans-Serif" font-size="10.00" fill="#ffffff">◎ IN</text>
<polygon fill="#2d236c" stroke="none" points="587,-103 587,-120 646,-120 646,-103 587,-103"/>
<polygon fill="none" stroke="#211a51" points="587,-103 587,-120 646,-120 646,-103 587,-103"/>
<text text-anchor="start" x="610" y="-109" font-family="Helvetica,sans-Serif" font-size="10.00" fill="#ffffff">OUT ◉</text>
</g>
<!-- add2&#45;&gt;#anon:50:59 -->
<g id="edge9" class="edge"><title>add2:OUT_OUT:e&#45;&gt;#anon:50:59:IN_IN:w</title>
<path fill="none" stroke="#0a5a79" stroke-width="2" d="M535,-101C559.144,-101 560.298,-124.929 581.748,-127.733"/>
<ellipse fill="#0a5a79" stroke="#0a5a79" stroke-width="2" cx="584.004" cy="-127.874" rx="2" ry="2"/>
</g>
<!-- div&#45;&gt;arctany -->
<g id="edge22" class="edge"><title>div:OUT_OUT:e&#45;&gt;arctany:IN_IN:w</title>
<path fill="none" stroke="#56fb24" stroke-width="2" d="M767,-213C788.098,-213 793.803,-220.031 812.977,-220.91"/>
<ellipse fill="#56fb24" stroke="#56fb24" stroke-width="2" cx="815" cy="-220.955" rx="2" ry="2"/>
</g>
<!-- div2&#45;&gt;arctanx -->
<g id="edge18" class="edge"><title>div2:OUT_OUT:e&#45;&gt;arctanx:IN_IN:w</title>
<path fill="none" stroke="#c82e7c" stroke-width="2" d="M767,-319C787.763,-319 793.833,-314.678 812.529,-314.071"/>
<ellipse fill="#c82e7c" stroke="#c82e7c" stroke-width="2" cx="815" cy="-314.032" rx="2" ry="2"/>
</g>
<!-- concatenate -->
<g id="node13" class="node"><title>concatenate</title>
<polygon fill="#c1ee90" stroke="none" points="1133,-243 1133,-272 1214,-272 1214,-243 1133,-243"/>
<polygon fill="none" stroke="#51633c" points="1133,-243 1133,-272 1214,-272 1214,-243 1133,-243"/>
<text text-anchor="start" x="1136.5" y="-258.3" font-family="Helvetica,sans-Serif" font-size="14.00" fill="#000000">concatenate</text>
<text text-anchor="start" x="1140.5" y="-249.1" font-family="Helvetica,sans-Serif" font-size="8.00" fill="#000000">string/concatenate</text>
<polygon fill="#90b26c" stroke="none" points="1133,-226 1133,-243 1214,-243 1214,-226 1133,-226"/>
<polygon fill="none" stroke="#51633c" points="1133,-226 1133,-243 1214,-243 1214,-226 1133,-226"/>
<text text-anchor="start" x="1136" y="-232" font-family="Helvetica,sans-Serif" font-size="10.00" fill="#000000">◎ IN</text>
<polygon fill="#6c8551" stroke="none" points="1133,-209 1133,-226 1214,-226 1214,-209 1133,-209"/>
<polygon fill="none" stroke="#51633c" points="1133,-209 1133,-226 1214,-226 1214,-209 1133,-209"/>
<text text-anchor="start" x="1178" y="-215" font-family="Helvetica,sans-Serif" font-size="10.00" fill="#ffffff">OUT ◉</text>
</g>
<!-- #anon:59:23 -->
<g id="node20" class="node"><title>#anon:59:23</title>
<polygon fill="#471ca4" stroke="none" points="1266,-226 1266,-248 1320,-248 1320,-226 1266,-226"/>
<polygon fill="none" stroke="#1d0b45" points="1266,-226 1266,-248 1320,-248 1320,-226 1266,-226"/>
<text text-anchor="start" x="1269.5" y="-233.3" font-family="Helvetica,sans-Serif" font-size="14.00" fill="#ffffff">console</text>
<polygon fill="#35157b" stroke="none" points="1266,-209 1266,-226 1320,-226 1320,-209 1266,-209"/>
<polygon fill="none" stroke="#1d0b45" points="1266,-209 1266,-226 1320,-226 1320,-209 1266,-209"/>
<text text-anchor="start" x="1269" y="-215" font-family="Helvetica,sans-Serif" font-size="10.00" fill="#ffffff">◎ IN</text>
</g>
<!-- concatenate&#45;&gt;#anon:59:23 -->
<g id="edge25" class="edge"><title>concatenate:OUT_OUT:e&#45;&gt;#anon:59:23:IN_IN:w</title>
<path fill="none" stroke="#9bdc66" stroke-width="2" d="M1215,-217C1235.66,-217 1241.91,-217 1260.55,-217"/>
<ellipse fill="#9bdc66" stroke="#9bdc66" stroke-width="2" cx="1263" cy="-217" rx="2" ry="2"/>
</g>
<!-- #anon:47:1 -->
<g id="node14" class="node"><title>#anon:47:1</title>
<polygon fill="#e8ea7a" stroke="none" points="8,-358 8,-380 108,-380 108,-358 8,-358"/>
<polygon fill="none" stroke="#616233" points="8,-358 8,-380 108,-380 108,-358 8,-358"/>
<text text-anchor="start" x="11.5" y="-365.3" font-family="Helvetica,sans-Serif" font-size="14.00" fill="#000000">constant/empty</text>
<polygon fill="#828344" stroke="none" points="8,-341 8,-358 108,-358 108,-341 8,-341"/>
<polygon fill="none" stroke="#616233" points="8,-341 8,-358 108,-358 108,-341 8,-341"/>
<text text-anchor="start" x="72" y="-347" font-family="Helvetica,sans-Serif" font-size="10.00" fill="#ffffff">OUT ◉</text>
</g>
<!-- #anon:47:29 -->
<g id="node15" class="node"><title>#anon:47:29</title>
<polygon fill="#471ca4" stroke="none" points="196,-358 196,-380 250,-380 250,-358 196,-358"/>
<polygon fill="none" stroke="#1d0b45" points="196,-358 196,-380 250,-380 250,-358 196,-358"/>
<text text-anchor="start" x="199.5" y="-365.3" font-family="Helvetica,sans-Serif" font-size="14.00" fill="#ffffff">console</text>
<polygon fill="#35157b" stroke="none" points="196,-341 196,-358 250,-358 250,-341 196,-341"/>
<polygon fill="none" stroke="#1d0b45" points="196,-341 196,-358 250,-358 250,-341 196,-341"/>
<text text-anchor="start" x="199" y="-347" font-family="Helvetica,sans-Serif" font-size="10.00" fill="#ffffff">◎ IN</text>
</g>
<!-- #anon:47:1&#45;&gt;#anon:47:29 -->
<g id="edge1" class="edge"><title>#anon:47:1:OUT_OUT:e&#45;&gt;#anon:47:29:IN_IN:w</title>
<path fill="none" stroke="#ae0b32" stroke-width="2" d="M109,-349C145.729,-349 155.988,-349 190.649,-349"/>
<ellipse fill="#ae0b32" stroke="#ae0b32" stroke-width="2" cx="193" cy="-349" rx="2" ry="2"/>
</g>
<!-- #anon:49:58&#45;&gt;div -->
<g id="edge6" class="edge"><title>#anon:49:58:OUT_OUT:e&#45;&gt;div:IN_DIVISOR:w</title>
<path fill="none" stroke="#417ef7" stroke-width="2" d="M647,-219C671.184,-219 671.379,-244.701 692.752,-247.713"/>
<ellipse fill="#417ef7" stroke="#417ef7" stroke-width="2" cx="695.005" cy="-247.865" rx="2" ry="2"/>
</g>
<!-- #anon:50:59&#45;&gt;div2 -->
<g id="edge10" class="edge"><title>#anon:50:59:OUT_OUT:e&#45;&gt;div2:IN_DIVISOR:w</title>
<path fill="none" stroke="#e05fee" stroke-width="2" d="M647,-111C755.863,-111 591.022,-347.869 692.935,-353.884"/>
<ellipse fill="#e05fee" stroke="#e05fee" stroke-width="2" cx="695.001" cy="-353.943" rx="2" ry="2"/>
</g>
<!-- #anon:56:19&#45;&gt;concatenate -->
<g id="edge20" class="edge"><title>#anon:56:19:OUT_OUT:e&#45;&gt;concatenate:IN_IN:w</title>
<path fill="none" stroke="#b1733e" stroke-width="2" d="M1081,-277C1109.14,-277 1103.1,-238.256 1127.77,-234.321"/>
<ellipse fill="#b1733e" stroke="#b1733e" stroke-width="2" cx="1130.01" cy="-234.151" rx="2" ry="2"/>
</g>
<!-- #anon:58:19&#45;&gt;concatenate -->
<g id="edge24" class="edge"><title>#anon:58:19:OUT_OUT:e&#45;&gt;concatenate:IN_IN:w</title>
<path fill="none" stroke="#664ae0" stroke-width="2" d="M1081,-192C1108.87,-192 1103.33,-229.843 1127.8,-233.686"/>
<ellipse fill="#664ae0" stroke="#664ae0" stroke-width="2" cx="1130.01" cy="-233.851" rx="2" ry="2"/>
</g>
</g>
</svg>
