<?xml version="1.0" encoding="UTF-8" standalone="no"?>
<!DOCTYPE svg PUBLIC "-//W3C//DTD SVG 1.1//EN"
 "http://www.w3.org/Graphics/SVG/1.1/DTD/svg11.dtd">
<!-- Generated by graphviz version 2.36.0 (20140111.2315)
 -->
<!-- Title: fbp Pages: 1 -->
<svg width="776pt" height="308pt"
 viewBox="0.00 0.00 776.00 308.00" xmlns="http://www.w3.org/2000/svg" xmlns:xlink="http://www.w3.org/1999/xlink">
<g id="graph0" class="graph" transform="scale(1 1) rotate(0) translate(4 304)">
<title>fbp</title>
<polygon fill="white" stroke="none" points="-4,4 -4,-304 772,-304 772,4 -4,4"/>
<!-- sub -->
<g id="node1" class="node"><title>sub</title>
<polygon fill="#00e49e" stroke="none" points="194,-91 194,-120 272,-120 272,-91 194,-91"/>
<polygon fill="none" stroke="#006042" points="194,-91 194,-120 272,-120 272,-91 194,-91"/>
<text text-anchor="start" x="222" y="-106.3" font-family="Helvetica,sans-Serif" font-size="14.00" fill="#000000">sub</text>
<text text-anchor="start" x="214.5" y="-97.1" font-family="Helvetica,sans-Serif" font-size="8.00" fill="#000000">mqtt/client</text>
<polygon fill="#00ab76" stroke="none" points="194,-74 194,-91 272,-91 272,-74 194,-74"/>
<polygon fill="none" stroke="#006042" points="194,-74 194,-91 272,-91 272,-74 194,-74"/>
<text text-anchor="start" x="197" y="-80" font-family="Helvetica,sans-Serif" font-size="10.00" fill="#ffffff">◎ SUBSCRIBE</text>
<polygon fill="#008058" stroke="none" points="194,-57 194,-74 272,-74 272,-57 194,-57"/>
<polygon fill="none" stroke="#006042" points="194,-57 194,-74 272,-74 272,-57 194,-57"/>
<text text-anchor="start" x="209" y="-63" font-family="Helvetica,sans-Serif" font-size="10.00" fill="#ffffff">OUTDATA ◉</text>
<polygon fill="#008058" stroke="none" points="194,-40 194,-57 272,-57 272,-40 194,-40"/>
<polygon fill="none" stroke="#006042" points="194,-40 194,-57 272,-57 272,-40 194,-40"/>
<text text-anchor="start" x="220" y="-46" font-family="Helvetica,sans-Serif" font-size="10.00" fill="#ffffff">ERROR ◉</text>
</g>
<!-- #anon:50:19 -->
<g id="node9" class="node"><title>#anon:50:19</title>
<polygon fill="#bd648a" stroke="none" points="358,-120 358,-142 504,-142 504,-120 358,-120"/>
<polygon fill="none" stroke="#4e2a39" points="358,-120 358,-142 504,-142 504,-120 358,-120"/>
<text text-anchor="start" x="361.5" y="-127.3" font-family="Helvetica,sans-Serif" font-size="14.00" fill="#000000">converter/blob&#45;to&#45;string</text>
<polygon fill="#8d4b67" stroke="none" points="358,-103 358,-120 504,-120 504,-103 358,-103"/>
<polygon fill="none" stroke="#4e2a39" points="358,-103 358,-120 504,-120 504,-103 358,-103"/>
<text text-anchor="start" x="361" y="-109" font-family="Helvetica,sans-Serif" font-size="10.00" fill="#ffffff">◎ IN</text>
<polygon fill="#69384d" stroke="none" points="358,-86 358,-103 504,-103 504,-86 358,-86"/>
<polygon fill="none" stroke="#4e2a39" points="358,-86 358,-103 504,-103 504,-86 358,-86"/>
<text text-anchor="start" x="468" y="-92" font-family="Helvetica,sans-Serif" font-size="10.00" fill="#ffffff">OUT ◉</text>
</g>
<!-- sub&#45;&gt;#anon:50:19 -->
<g id="edge5" class="edge"><title>sub:OUT_OUTDATA:e&#45;&gt;#anon:50:19:IN_IN:w</title>
<path fill="none" stroke="#6bb8ea" stroke-width="2" d="M273,-65C314.068,-65 314.461,-107.822 352.669,-110.833"/>
<ellipse fill="#6bb8ea" stroke="#6bb8ea" stroke-width="2" cx="355.001" cy="-110.923" rx="2" ry="2"/>
</g>
<!-- #anon:54:17 -->
<g id="node11" class="node"><title>#anon:54:17</title>
<polygon fill="#bd648a" stroke="none" points="383,-38 383,-60 479,-60 479,-38 383,-38"/>
<polygon fill="none" stroke="#4e2a39" points="383,-38 383,-60 479,-60 479,-38 383,-38"/>
<text text-anchor="start" x="386.5" y="-45.3" font-family="Helvetica,sans-Serif" font-size="14.00" fill="#000000">converter/error</text>
<polygon fill="#8d4b67" stroke="none" points="383,-21 383,-38 479,-38 479,-21 383,-21"/>
<polygon fill="none" stroke="#4e2a39" points="383,-21 383,-38 479,-38 479,-21 383,-21"/>
<text text-anchor="start" x="386" y="-27" font-family="Helvetica,sans-Serif" font-size="10.00" fill="#ffffff">◎ IN</text>
<polygon fill="#69384d" stroke="none" points="383,-4 383,-21 479,-21 479,-4 383,-4"/>
<polygon fill="none" stroke="#4e2a39" points="383,-4 383,-21 479,-21 479,-4 383,-4"/>
<text text-anchor="start" x="415" y="-10" font-family="Helvetica,sans-Serif" font-size="10.00" fill="#ffffff">MESSAGE ◉</text>
</g>
<!-- sub&#45;&gt;#anon:54:17 -->
<g id="edge9" class="edge"><title>sub:OUT_ERROR:e&#45;&gt;#anon:54:17:IN_IN:w</title>
<path fill="none" stroke="#2350e6" stroke-width="2" d="M273,-48C320.734,-48 332.168,-30.097 377.775,-29.048"/>
<ellipse fill="#2350e6" stroke="#2350e6" stroke-width="2" cx="380" cy="-29.0228" rx="2" ry="2"/>
</g>
<!-- pub -->
<g id="node2" class="node"><title>pub</title>
<polygon fill="#00e49e" stroke="none" points="400,-222 400,-251 462,-251 462,-222 400,-222"/>
<polygon fill="none" stroke="#006042" points="400,-222 400,-251 462,-251 462,-222 400,-222"/>
<text text-anchor="start" x="419.5" y="-237.3" font-family="Helvetica,sans-Serif" font-size="14.00" fill="#000000">pub</text>
<text text-anchor="start" x="412.5" y="-228.1" font-family="Helvetica,sans-Serif" font-size="8.00" fill="#000000">mqtt/client</text>
<polygon fill="#00ab76" stroke="none" points="400,-205 400,-222 462,-222 462,-205 400,-205"/>
<polygon fill="none" stroke="#006042" points="400,-205 400,-222 462,-222 462,-205 400,-205"/>
<text text-anchor="start" x="403" y="-211" font-family="Helvetica,sans-Serif" font-size="10.00" fill="#ffffff">◎ DATA</text>
<polygon fill="#00ab76" stroke="none" points="400,-188 400,-205 462,-205 462,-188 400,-188"/>
<polygon fill="none" stroke="#006042" points="400,-188 400,-205 462,-205 462,-188 400,-188"/>
<text text-anchor="start" x="403" y="-194" font-family="Helvetica,sans-Serif" font-size="10.00" fill="#ffffff">◎ PUBLISH</text>
<polygon fill="#008058" stroke="none" points="400,-171 400,-188 462,-188 462,-171 400,-171"/>
<polygon fill="none" stroke="#006042" points="400,-171 400,-188 462,-188 462,-171 400,-171"/>
<text text-anchor="start" x="410" y="-177" font-family="Helvetica,sans-Serif" font-size="10.00" fill="#ffffff">ERROR ◉</text>
</g>
<!-- #anon:53:17 -->
<g id="node10" class="node"><title>#anon:53:17</title>
<polygon fill="#bd648a" stroke="none" points="556,-188 556,-210 652,-210 652,-188 556,-188"/>
<polygon fill="none" stroke="#4e2a39" points="556,-188 556,-210 652,-210 652,-188 556,-188"/>
<text text-anchor="start" x="559.5" y="-195.3" font-family="Helvetica,sans-Serif" font-size="14.00" fill="#000000">converter/error</text>
<polygon fill="#8d4b67" stroke="none" points="556,-171 556,-188 652,-188 652,-171 556,-171"/>
<polygon fill="none" stroke="#4e2a39" points="556,-171 556,-188 652,-188 652,-171 556,-171"/>
<text text-anchor="start" x="559" y="-177" font-family="Helvetica,sans-Serif" font-size="10.00" fill="#ffffff">◎ IN</text>
<polygon fill="#69384d" stroke="none" points="556,-154 556,-171 652,-171 652,-154 556,-154"/>
<polygon fill="none" stroke="#4e2a39" points="556,-154 556,-171 652,-171 652,-154 556,-154"/>
<text text-anchor="start" x="588" y="-160" font-family="Helvetica,sans-Serif" font-size="10.00" fill="#ffffff">MESSAGE ◉</text>
</g>
<!-- pub&#45;&gt;#anon:53:17 -->
<g id="edge7" class="edge"><title>pub:OUT_ERROR:e&#45;&gt;#anon:53:17:IN_IN:w</title>
<path fill="none" stroke="#bd85be" stroke-width="2" d="M463,-179C502.451,-179 513.354,-179 550.799,-179"/>
<ellipse fill="#bd85be" stroke="#bd85be" stroke-width="2" cx="553" cy="-179" rx="2" ry="2"/>
</g>
<!-- hello_world -->
<g id="node3" class="node"><title>hello_world</title>
<polygon fill="#e8ea7a" stroke="none" points="20,-267 20,-296 96,-296 96,-267 20,-267"/>
<polygon fill="none" stroke="#616233" points="20,-267 20,-296 96,-296 96,-267 20,-267"/>
<text text-anchor="start" x="23.5" y="-282.3" font-family="Helvetica,sans-Serif" font-size="14.00" fill="#000000">hello_world</text>
<text text-anchor="start" x="32" y="-273.1" font-family="Helvetica,sans-Serif" font-size="8.00" fill="#000000">constant/string</text>
<polygon fill="#828344" stroke="none" points="20,-250 20,-267 96,-267 96,-250 20,-250"/>
<polygon fill="none" stroke="#616233" points="20,-250 20,-267 96,-267 96,-250 20,-250"/>
<text text-anchor="start" x="60" y="-256" font-family="Helvetica,sans-Serif" font-size="10.00" fill="#ffffff">OUT ◉</text>
</g>
<!-- #anon:41:23 -->
<g id="node6" class="node"><title>#anon:41:23</title>
<polygon fill="#bd648a" stroke="none" points="160,-267 160,-289 306,-289 306,-267 160,-267"/>
<polygon fill="none" stroke="#4e2a39" points="160,-267 160,-289 306,-289 306,-267 160,-267"/>
<text text-anchor="start" x="163.5" y="-274.3" font-family="Helvetica,sans-Serif" font-size="14.00" fill="#000000">converter/string&#45;to&#45;blob</text>
<polygon fill="#8d4b67" stroke="none" points="160,-250 160,-267 306,-267 306,-250 160,-250"/>
<polygon fill="none" stroke="#4e2a39" points="160,-250 160,-267 306,-267 306,-250 160,-250"/>
<text text-anchor="start" x="163" y="-256" font-family="Helvetica,sans-Serif" font-size="10.00" fill="#ffffff">◎ IN</text>
<polygon fill="#69384d" stroke="none" points="160,-233 160,-250 306,-250 306,-233 160,-233"/>
<polygon fill="none" stroke="#4e2a39" points="160,-233 160,-250 306,-250 306,-233 160,-233"/>
<text text-anchor="start" x="270" y="-239" font-family="Helvetica,sans-Serif" font-size="10.00" fill="#ffffff">OUT ◉</text>
</g>
<!-- hello_world&#45;&gt;#anon:41:23 -->
<g id="edge1" class="edge"><title>hello_world:OUT_OUT:e&#45;&gt;#anon:41:23:IN_IN:w</title>
<path fill="none" stroke="#3e3cc4" stroke-width="2" d="M97,-258C123.156,-258 130.691,-258 154.957,-258"/>
<ellipse fill="#3e3cc4" stroke="#3e3cc4" stroke-width="2" cx="157" cy="-258" rx="2" ry="2"/>
</g>
<!-- pub_out -->
<g id="node4" class="node"><title>pub_out</title>
<polygon fill="#471ca4" stroke="none" points="704,-171 704,-200 760,-200 760,-171 704,-171"/>
<polygon fill="none" stroke="#1d0b45" points="704,-171 704,-200 760,-200 760,-171 704,-171"/>
<text text-anchor="start" x="707.5" y="-186.3" font-family="Helvetica,sans-Serif" font-size="14.00" fill="#ffffff">pub_out</text>
<text text-anchor="start" x="718" y="-177.1" font-family="Helvetica,sans-Serif" font-size="8.00" fill="#ffffff">console</text>
<polygon fill="#35157b" stroke="none" points="704,-154 704,-171 760,-171 760,-154 704,-154"/>
<polygon fill="none" stroke="#1d0b45" points="704,-154 704,-171 760,-171 760,-154 704,-154"/>
<text text-anchor="start" x="707" y="-160" font-family="Helvetica,sans-Serif" font-size="10.00" fill="#ffffff">◎ IN</text>
</g>
<!-- sub_out -->
<g id="node5" class="node"><title>sub_out</title>
<polygon fill="#471ca4" stroke="none" points="576,-60 576,-89 632,-89 632,-60 576,-60"/>
<polygon fill="none" stroke="#1d0b45" points="576,-60 576,-89 632,-89 632,-60 576,-60"/>
<text text-anchor="start" x="579.5" y="-75.3" font-family="Helvetica,sans-Serif" font-size="14.00" fill="#ffffff">sub_out</text>
<text text-anchor="start" x="590" y="-66.1" font-family="Helvetica,sans-Serif" font-size="8.00" fill="#ffffff">console</text>
<polygon fill="#35157b" stroke="none" points="576,-43 576,-60 632,-60 632,-43 576,-43"/>
<polygon fill="none" stroke="#1d0b45" points="576,-43 576,-60 632,-60 632,-43 576,-43"/>
<text text-anchor="start" x="579" y="-49" font-family="Helvetica,sans-Serif" font-size="10.00" fill="#ffffff">◎ IN</text>
</g>
<!-- #anon:41:23&#45;&gt;pub -->
<g id="edge2" class="edge"><title>#anon:41:23:OUT_OUT:e&#45;&gt;pub:IN_DATA:w</title>
<path fill="none" stroke="#07d7c0" stroke-width="2" d="M307,-241C348.115,-241 355.866,-215.865 394.635,-214.098"/>
<ellipse fill="#07d7c0" stroke="#07d7c0" stroke-width="2" cx="397.001" cy="-214.045" rx="2" ry="2"/>
</g>
<!-- #anon:44:1 -->
<g id="node7" class="node"><title>#anon:44:1</title>
<polygon fill="#e8ea7a" stroke="none" points="8,-92 8,-114 108,-114 108,-92 8,-92"/>
<polygon fill="none" stroke="#616233" points="8,-92 8,-114 108,-114 108,-92 8,-92"/>
<text text-anchor="start" x="11.5" y="-99.3" font-family="Helvetica,sans-Serif" font-size="14.00" fill="#000000">constant/empty</text>
<polygon fill="#828344" stroke="none" points="8,-75 8,-92 108,-92 108,-75 8,-75"/>
<polygon fill="none" stroke="#616233" points="8,-75 8,-92 108,-92 108,-75 8,-75"/>
<text text-anchor="start" x="72" y="-81" font-family="Helvetica,sans-Serif" font-size="10.00" fill="#ffffff">OUT ◉</text>
</g>
<!-- #anon:44:1&#45;&gt;sub -->
<g id="edge3" class="edge"><title>#anon:44:1:OUT_OUT:e&#45;&gt;sub:IN_SUBSCRIBE:w</title>
<path fill="none" stroke="#6f5bb4" stroke-width="2" d="M109,-83C144.875,-83 154.895,-83 188.75,-83"/>
<ellipse fill="#6f5bb4" stroke="#6f5bb4" stroke-width="2" cx="191" cy="-83" rx="2" ry="2"/>
</g>
<!-- timer -->
<g id="node8" class="node"><title>timer</title>
<polygon fill="#7f2fae" stroke="none" points="201,-178 201,-207 265,-207 265,-178 201,-178"/>
<polygon fill="none" stroke="#351348" points="201,-178 201,-207 265,-207 265,-178 201,-178"/>
<text text-anchor="start" x="204.5" y="-193.3" font-family="Helvetica,sans-Serif" font-size="14.00" fill="#ffffff">🕐 Timer</text>
<text text-anchor="start" x="223.5" y="-184.1" font-family="Helvetica,sans-Serif" font-size="8.00" fill="#ffffff">timer</text>
<polygon fill="#471a61" stroke="none" points="201,-161 201,-178 265,-178 265,-161 201,-161"/>
<polygon fill="none" stroke="#351348" points="201,-161 201,-178 265,-178 265,-161 201,-161"/>
<text text-anchor="start" x="229" y="-167" font-family="Helvetica,sans-Serif" font-size="10.00" fill="#ffffff">OUT ◉</text>
</g>
<!-- timer&#45;&gt;pub -->
<g id="edge4" class="edge"><title>timer:OUT_OUT:e&#45;&gt;pub:IN_PUBLISH:w</title>
<path fill="none" stroke="#3b1642" stroke-width="2" d="M266,-169C324.903,-169 338.077,-194.749 394.837,-195.956"/>
<ellipse fill="#3b1642" stroke="#3b1642" stroke-width="2" cx="397" cy="-195.979" rx="2" ry="2"/>
</g>
<!-- #anon:50:19&#45;&gt;sub_out -->
<g id="edge6" class="edge"><title>#anon:50:19:OUT_OUT:e&#45;&gt;sub_out:IN_IN:w</title>
<path fill="none" stroke="#47770b" stroke-width="2" d="M505,-94C540.086,-94 538.664,-54.2938 570.898,-51.1917"/>
<ellipse fill="#47770b" stroke="#47770b" stroke-width="2" cx="573.002" cy="-51.0934" rx="2" ry="2"/>
</g>
<!-- #anon:53:17&#45;&gt;pub_out -->
<g id="edge8" class="edge"><title>#anon:53:17:OUT_MESSAGE:e&#45;&gt;pub_out:IN_IN:w</title>
<path fill="none" stroke="#4bda86" stroke-width="2" d="M653,-162C673.66,-162 679.914,-162 698.548,-162"/>
<ellipse fill="#4bda86" stroke="#4bda86" stroke-width="2" cx="701" cy="-162" rx="2" ry="2"/>
</g>
<!-- #anon:54:17&#45;&gt;sub_out -->
<g id="edge10" class="edge"><title>#anon:54:17:OUT_MESSAGE:e&#45;&gt;sub_out:IN_IN:w</title>
<path fill="none" stroke="#0de144" stroke-width="2" d="M480,-12C524.215,-12 529.085,-48.6006 570.841,-50.8881"/>
<ellipse fill="#0de144" stroke="#0de144" stroke-width="2" cx="573.001" cy="-50.9462" rx="2" ry="2"/>
</g>
</g>
</svg>
