<?xml version="1.0" encoding="UTF-8" standalone="no"?>
<!DOCTYPE svg PUBLIC "-//W3C//DTD SVG 1.1//EN"
 "http://www.w3.org/Graphics/SVG/1.1/DTD/svg11.dtd">
<!-- Generated by graphviz version 2.36.0 (20140111.2315)
 -->
<!-- Title: fbp Pages: 1 -->
<svg width="490pt" height="137pt"
 viewBox="0.00 0.00 490.00 137.00" xmlns="http://www.w3.org/2000/svg" xmlns:xlink="http://www.w3.org/1999/xlink">
<g id="graph0" class="graph" transform="scale(1 1) rotate(0) translate(4 133)">
<title>fbp</title>
<polygon fill="white" stroke="none" points="-4,4 -4,-133 486,-133 486,4 -4,4"/>
<!-- #anon:24:1 -->
<g id="node1" class="node"><title>#anon:24:1</title>
<polygon fill="#e8ea7a" stroke="none" points="134,-103 134,-125 229,-125 229,-103 134,-103"/>
<polygon fill="none" stroke="#616233" points="134,-103 134,-125 229,-125 229,-103 134,-103"/>
<text text-anchor="start" x="137.5" y="-110.3" font-family="Helvetica,sans-Serif" font-size="14.00" fill="#000000">constant/string</text>
<polygon fill="#828344" stroke="none" points="134,-86 134,-103 229,-103 229,-86 134,-86"/>
<polygon fill="none" stroke="#616233" points="134,-86 134,-103 229,-103 229,-86 134,-86"/>
<text text-anchor="start" x="193" y="-92" font-family="Helvetica,sans-Serif" font-size="10.00" fill="#ffffff">OUT ◉</text>
</g>
<!-- text -->
<g id="node2" class="node"><title>text</title>
<polygon fill="#c1ee90" stroke="none" points="295,-62 295,-91 368,-91 368,-62 295,-62"/>
<polygon fill="none" stroke="#51633c" points="295,-62 295,-91 368,-91 368,-62 295,-62"/>
<text text-anchor="start" x="320.5" y="-77.3" font-family="Helvetica,sans-Serif" font-size="14.00" fill="#000000">text</text>
<text text-anchor="start" x="298.5" y="-68.1" font-family="Helvetica,sans-Serif" font-size="8.00" fill="#000000">string/concatenate</text>
<polygon fill="#90b26c" stroke="none" points="295,-45 295,-62 368,-62 368,-45 295,-45"/>
<polygon fill="none" stroke="#51633c" points="295,-45 295,-62 368,-62 368,-45 295,-45"/>
<text text-anchor="start" x="298" y="-51" font-family="Helvetica,sans-Serif" font-size="10.00" fill="#000000">◎ IN</text>
<polygon fill="#6c8551" stroke="none" points="295,-28 295,-45 368,-45 368,-28 295,-28"/>
<polygon fill="none" stroke="#51633c" points="295,-28 295,-45 368,-45 368,-28 295,-28"/>
<text text-anchor="start" x="332" y="-34" font-family="Helvetica,sans-Serif" font-size="10.00" fill="#ffffff">OUT ◉</text>
</g>
<!-- #anon:24:1&#45;&gt;text -->
<g id="edge1" class="edge"><title>#anon:24:1:OUT_OUT:e&#45;&gt;text:IN_IN:w</title>
<path fill="none" stroke="#7d4821" stroke-width="2" d="M230,-94C262.329,-94 260.456,-56.4477 289.846,-53.2206"/>
<ellipse fill="#7d4821" stroke="#7d4821" stroke-width="2" cx="292.003" cy="-53.1061" rx="2" ry="2"/>
</g>
<!-- #anon:26:16 -->
<g id="node5" class="node"><title>#anon:26:16</title>
<polygon fill="#471ca4" stroke="none" points="420,-45 420,-67 474,-67 474,-45 420,-45"/>
<polygon fill="none" stroke="#1d0b45" points="420,-45 420,-67 474,-67 474,-45 420,-45"/>
<text text-anchor="start" x="423.5" y="-52.3" font-family="Helvetica,sans-Serif" font-size="14.00" fill="#ffffff">console</text>
<polygon fill="#35157b" stroke="none" points="420,-28 420,-45 474,-45 474,-28 420,-28"/>
<polygon fill="none" stroke="#1d0b45" points="420,-28 420,-45 474,-45 474,-28 420,-28"/>
<text text-anchor="start" x="423" y="-34" font-family="Helvetica,sans-Serif" font-size="10.00" fill="#ffffff">◎ IN</text>
</g>
<!-- text&#45;&gt;#anon:26:16 -->
<g id="edge4" class="edge"><title>text:OUT_OUT:e&#45;&gt;#anon:26:16:IN_IN:w</title>
<path fill="none" stroke="#e05e1c" stroke-width="2" d="M369,-36C389.66,-36 395.914,-36 414.548,-36"/>
<ellipse fill="#e05e1c" stroke="#e05e1c" stroke-width="2" cx="417" cy="-36" rx="2" ry="2"/>
</g>
<!-- #anon:25:1 -->
<g id="node3" class="node"><title>#anon:25:1</title>
<polygon fill="#4e2e10" stroke="none" points="8,-38 8,-60 68,-60 68,-38 8,-38"/>
<polygon fill="none" stroke="#201206" points="8,-38 8,-60 68,-60 68,-38 8,-38"/>
<text text-anchor="start" x="11.5" y="-45.3" font-family="Helvetica,sans-Serif" font-size="14.00" fill="#ffffff">app/argv</text>
<polygon fill="#2b1909" stroke="none" points="8,-21 8,-38 68,-38 68,-21 8,-21"/>
<polygon fill="none" stroke="#201206" points="8,-21 8,-38 68,-38 68,-21 8,-21"/>
<text text-anchor="start" x="32" y="-27" font-family="Helvetica,sans-Serif" font-size="10.00" fill="#ffffff">OUT ◉</text>
</g>
<!-- #anon:25:31 -->
<g id="node4" class="node"><title>#anon:25:31</title>
<polygon fill="#b747fe" stroke="none" points="121,-38 121,-60 242,-60 242,-38 121,-38"/>
<polygon fill="none" stroke="#4c1d6a" points="121,-38 121,-60 242,-60 242,-38 121,-38"/>
<text text-anchor="start" x="124.5" y="-45.3" font-family="Helvetica,sans-Serif" font-size="14.00" fill="#ffffff">platform/hostname</text>
<polygon fill="#8935be" stroke="none" points="121,-21 121,-38 242,-38 242,-21 121,-21"/>
<polygon fill="none" stroke="#4c1d6a" points="121,-21 121,-38 242,-38 242,-21 121,-21"/>
<text text-anchor="start" x="124" y="-27" font-family="Helvetica,sans-Serif" font-size="10.00" fill="#ffffff">◎ IN</text>
<polygon fill="#66278e" stroke="none" points="121,-4 121,-21 242,-21 242,-4 121,-4"/>
<polygon fill="none" stroke="#4c1d6a" points="121,-4 121,-21 242,-21 242,-4 121,-4"/>
<text text-anchor="start" x="206" y="-10" font-family="Helvetica,sans-Serif" font-size="10.00" fill="#ffffff">OUT ◉</text>
</g>
<!-- #anon:25:1&#45;&gt;#anon:25:31 -->
<g id="edge2" class="edge"><title>#anon:25:1:OUT_OUT:e&#45;&gt;#anon:25:31:IN_IN:w</title>
<path fill="none" stroke="#3d8978" stroke-width="2" d="M69,-29C90.25,-29 96.5586,-29 115.941,-29"/>
<ellipse fill="#3d8978" stroke="#3d8978" stroke-width="2" cx="118" cy="-29" rx="2" ry="2"/>
</g>
<!-- #anon:25:31&#45;&gt;text -->
<g id="edge3" class="edge"><title>#anon:25:31:OUT_OUT:e&#45;&gt;text:IN_IN:w</title>
<path fill="none" stroke="#d83904" stroke-width="2" d="M243,-12C270.606,-12 265.551,-48.9417 289.84,-52.6936"/>
<ellipse fill="#d83904" stroke="#d83904" stroke-width="2" cx="292.005" cy="-52.853" rx="2" ry="2"/>
</g>
</g>
</svg>
