<?xml version="1.0" encoding="UTF-8" standalone="no"?>
<!DOCTYPE svg PUBLIC "-//W3C//DTD SVG 1.1//EN"
 "http://www.w3.org/Graphics/SVG/1.1/DTD/svg11.dtd">
<!-- Generated by graphviz version 2.36.0 (20140111.2315)
 -->
<!-- Title: fbp Pages: 1 -->
<svg width="512pt" height="185pt"
 viewBox="0.00 0.00 512.00 185.00" xmlns="http://www.w3.org/2000/svg" xmlns:xlink="http://www.w3.org/1999/xlink">
<g id="graph0" class="graph" transform="scale(1 1) rotate(0) translate(4 181)">
<title>fbp</title>
<polygon fill="white" stroke="none" points="-4,4 -4,-181 508,-181 508,4 -4,4"/>
<!-- Prefix -->
<g id="node1" class="node"><title>Prefix</title>
<polygon fill="#e8ea7a" stroke="none" points="179,-144 179,-173 238,-173 238,-144 179,-144"/>
<polygon fill="none" stroke="#616233" points="179,-144 179,-173 238,-173 238,-144 179,-144"/>
<text text-anchor="start" x="191" y="-159.3" font-family="Helvetica,sans-Serif" font-size="14.00" fill="#000000">Prefix</text>
<text text-anchor="start" x="182.5" y="-150.1" font-family="Helvetica,sans-Serif" font-size="8.00" fill="#000000">constant/string</text>
<polygon fill="#828344" stroke="none" points="179,-127 179,-144 238,-144 238,-127 179,-127"/>
<polygon fill="none" stroke="#616233" points="179,-127 179,-144 238,-144 238,-127 179,-127"/>
<text text-anchor="start" x="202" y="-133" font-family="Helvetica,sans-Serif" font-size="10.00" fill="#ffffff">OUT ◉</text>
</g>
<!-- Concat -->
<g id="node2" class="node"><title>Concat</title>
<polygon fill="#c1ee90" stroke="none" points="313,-82 313,-111 386,-111 386,-82 313,-82"/>
<polygon fill="none" stroke="#51633c" points="313,-82 313,-111 386,-111 386,-82 313,-82"/>
<text text-anchor="start" x="328" y="-97.3" font-family="Helvetica,sans-Serif" font-size="14.00" fill="#000000">Concat</text>
<text text-anchor="start" x="316.5" y="-88.1" font-family="Helvetica,sans-Serif" font-size="8.00" fill="#000000">string/concatenate</text>
<polygon fill="#90b26c" stroke="none" points="313,-65 313,-82 386,-82 386,-65 313,-65"/>
<polygon fill="none" stroke="#51633c" points="313,-65 313,-82 386,-82 386,-65 313,-65"/>
<text text-anchor="start" x="316" y="-71" font-family="Helvetica,sans-Serif" font-size="10.00" fill="#000000">◎ IN</text>
<polygon fill="#6c8551" stroke="none" points="313,-48 313,-65 386,-65 386,-48 313,-48"/>
<polygon fill="none" stroke="#51633c" points="313,-48 313,-65 386,-65 386,-48 313,-48"/>
<text text-anchor="start" x="350" y="-54" font-family="Helvetica,sans-Serif" font-size="10.00" fill="#ffffff">OUT ◉</text>
</g>
<!-- Prefix&#45;&gt;Concat -->
<g id="edge1" class="edge"><title>Prefix:OUT_OUT:e&#45;&gt;Concat:IN_IN:w</title>
<path fill="none" stroke="#7d4821" stroke-width="2" d="M239,-135C280.071,-135 270.219,-77.2827 307.709,-73.2245"/>
<ellipse fill="#7d4821" stroke="#7d4821" stroke-width="2" cx="310.003" cy="-73.1045" rx="2" ry="2"/>
</g>
<!-- Console -->
<g id="node4" class="node"><title>Console</title>
<polygon fill="#471ca4" stroke="none" points="439,-65 439,-94 496,-94 496,-65 439,-65"/>
<polygon fill="none" stroke="#1d0b45" points="439,-65 439,-94 496,-94 496,-65 439,-65"/>
<text text-anchor="start" x="442.5" y="-80.3" font-family="Helvetica,sans-Serif" font-size="14.00" fill="#ffffff">Console</text>
<text text-anchor="start" x="453.5" y="-71.1" font-family="Helvetica,sans-Serif" font-size="8.00" fill="#ffffff">console</text>
<polygon fill="#35157b" stroke="none" points="439,-48 439,-65 496,-65 496,-48 439,-48"/>
<polygon fill="none" stroke="#1d0b45" points="439,-48 439,-65 496,-65 496,-48 439,-48"/>
<text text-anchor="start" x="442" y="-54" font-family="Helvetica,sans-Serif" font-size="10.00" fill="#ffffff">◎ IN</text>
</g>
<!-- Concat&#45;&gt;Console -->
<g id="edge3" class="edge"><title>Concat:OUT_OUT:e&#45;&gt;Console:IN_IN:w</title>
<path fill="none" stroke="#715c00" stroke-width="2" d="M387,-56C408.25,-56 414.559,-56 433.941,-56"/>
<ellipse fill="#715c00" stroke="#715c00" stroke-width="2" cx="436" cy="-56" rx="2" ry="2"/>
</g>
<!-- Locale -->
<g id="node3" class="node"><title>Locale</title>
<polygon fill="#b747fe" stroke="none" points="156,-54 156,-83 260,-83 260,-54 156,-54"/>
<polygon fill="none" stroke="#4c1d6a" points="156,-54 156,-83 260,-83 260,-54 156,-54"/>
<text text-anchor="start" x="188" y="-69.3" font-family="Helvetica,sans-Serif" font-size="14.00" fill="#ffffff">Locale</text>
<text text-anchor="start" x="182" y="-60.1" font-family="Helvetica,sans-Serif" font-size="8.00" fill="#ffffff">platform/locale</text>
<polygon fill="#8935be" stroke="none" points="156,-37 156,-54 260,-54 260,-37 156,-37"/>
<polygon fill="none" stroke="#4c1d6a" points="156,-37 156,-54 260,-54 260,-37 156,-37"/>
<text text-anchor="start" x="159" y="-43" font-family="Helvetica,sans-Serif" font-size="10.00" fill="#ffffff">◎ IN_NUMERIC</text>
<polygon fill="#8935be" stroke="none" points="156,-20 156,-37 260,-37 260,-20 156,-20"/>
<polygon fill="none" stroke="#4c1d6a" points="156,-20 156,-37 260,-37 260,-20 156,-20"/>
<text text-anchor="start" x="159" y="-26" font-family="Helvetica,sans-Serif" font-size="10.00" fill="#ffffff">◎ APPLY_NUMERIC</text>
<polygon fill="#66278e" stroke="none" points="156,-3 156,-20 260,-20 260,-3 156,-3"/>
<polygon fill="none" stroke="#4c1d6a" points="156,-3 156,-20 260,-20 260,-3 156,-3"/>
<text text-anchor="start" x="171" y="-9" font-family="Helvetica,sans-Serif" font-size="10.00" fill="#ffffff">OUT_NUMERIC ◉</text>
</g>
<!-- Locale&#45;&gt;Concat -->
<g id="edge2" class="edge"><title>Locale:OUT_OUT_NUMERIC:e&#45;&gt;Concat:IN_IN:w</title>
<path fill="none" stroke="#c97288" stroke-width="2" d="M261,-11C295.147,-11 277.966,-67.7863 307.702,-72.6664"/>
<ellipse fill="#c97288" stroke="#c97288" stroke-width="2" cx="310.006" cy="-72.8452" rx="2" ry="2"/>
</g>
<!-- Locale&#45;&gt;Locale -->
<g id="edge5" class="edge"><title>Locale:OUT_OUT_NUMERIC:e&#45;&gt;Locale:IN_APPLY_NUMERIC:w</title>
<path fill="none" stroke="#39c34a" stroke-width="2" d="M260,-11C295,-31.3333 295,-104 208,-104 124.059,-104 121.108,-52.1786 152.441,-30.2716"/>
<ellipse fill="#39c34a" stroke="#39c34a" stroke-width="2" cx="154.314" cy="-29.076" rx="2.00002" ry="2.00002"/>
</g>
<!-- #anon:27:1 -->
<g id="node5" class="node"><title>#anon:27:1</title>
<polygon fill="#e8ea7a" stroke="none" points="9,-55 9,-77 104,-77 104,-55 9,-55"/>
<polygon fill="none" stroke="#616233" points="9,-55 9,-77 104,-77 104,-55 9,-55"/>
<text text-anchor="start" x="12.5" y="-62.3" font-family="Helvetica,sans-Serif" font-size="14.00" fill="#000000">constant/string</text>
<polygon fill="#828344" stroke="none" points="9,-38 9,-55 104,-55 104,-38 9,-38"/>
<polygon fill="none" stroke="#616233" points="9,-38 9,-55 104,-55 104,-38 9,-38"/>
<text text-anchor="start" x="68" y="-44" font-family="Helvetica,sans-Serif" font-size="10.00" fill="#ffffff">OUT ◉</text>
</g>
<!-- #anon:27:1&#45;&gt;Locale -->
<g id="edge4" class="edge"><title>#anon:27:1:OUT_OUT:e&#45;&gt;Locale:IN_IN_NUMERIC:w</title>
<path fill="none" stroke="#2d0c88" stroke-width="2" d="M105,-46C125.66,-46 131.914,-46 150.548,-46"/>
<ellipse fill="#2d0c88" stroke="#2d0c88" stroke-width="2" cx="153" cy="-46" rx="2" ry="2"/>
</g>
</g>
</svg>
