<?xml version="1.0" encoding="UTF-8" standalone="no"?>
<!DOCTYPE svg PUBLIC "-//W3C//DTD SVG 1.1//EN"
 "http://www.w3.org/Graphics/SVG/1.1/DTD/svg11.dtd">
<!-- Generated by graphviz version 2.36.0 (20140111.2315)
 -->
<!-- Title: fbp Pages: 1 -->
<svg width="836pt" height="478pt"
 viewBox="0.00 0.00 836.00 478.00" xmlns="http://www.w3.org/2000/svg" xmlns:xlink="http://www.w3.org/1999/xlink">
<g id="graph0" class="graph" transform="scale(1 1) rotate(0) translate(4 474)">
<title>fbp</title>
<polygon fill="white" stroke="none" points="-4,4 -4,-474 832,-474 832,4 -4,4"/>
<!-- #anon:35:1 -->
<g id="node1" class="node"><title>#anon:35:1</title>
<polygon fill="#e8ea7a" stroke="none" points="9,-93 9,-115 86,-115 86,-93 9,-93"/>
<polygon fill="none" stroke="#616233" points="9,-93 9,-115 86,-115 86,-93 9,-93"/>
<text text-anchor="start" x="12.5" y="-100.3" font-family="Helvetica,sans-Serif" font-size="14.00" fill="#000000">constant/int</text>
<polygon fill="#828344" stroke="none" points="9,-76 9,-93 86,-93 86,-76 9,-76"/>
<polygon fill="none" stroke="#616233" points="9,-76 9,-93 86,-93 86,-76 9,-76"/>
<text text-anchor="start" x="50" y="-82" font-family="Helvetica,sans-Serif" font-size="10.00" fill="#ffffff">OUT ◉</text>
</g>
<!-- ExpectedArgs -->
<g id="node2" class="node"><title>ExpectedArgs</title>
<polygon fill="#254878" stroke="none" points="138,-67 138,-96 230,-96 230,-67 138,-67"/>
<polygon fill="none" stroke="#0f1e32" points="138,-67 138,-96 230,-96 230,-67 138,-67"/>
<text text-anchor="start" x="141.5" y="-82.3" font-family="Helvetica,sans-Serif" font-size="14.00" fill="#ffffff">ExpectedArgs</text>
<text text-anchor="start" x="168.5" y="-73.1" font-family="Helvetica,sans-Serif" font-size="8.00" fill="#ffffff">int/equal</text>
<polygon fill="#1b365a" stroke="none" points="138,-50 138,-67 230,-67 230,-50 138,-50"/>
<polygon fill="none" stroke="#0f1e32" points="138,-50 138,-67 230,-67 230,-50 138,-50"/>
<text text-anchor="start" x="141" y="-56" font-family="Helvetica,sans-Serif" font-size="10.00" fill="#ffffff">◎ IN</text>
<polygon fill="#142843" stroke="none" points="138,-33 138,-50 230,-50 230,-33 138,-33"/>
<polygon fill="none" stroke="#0f1e32" points="138,-33 138,-50 230,-50 230,-33 138,-33"/>
<text text-anchor="start" x="194" y="-39" font-family="Helvetica,sans-Serif" font-size="10.00" fill="#ffffff">OUT ◉</text>
</g>
<!-- #anon:35:1&#45;&gt;ExpectedArgs -->
<g id="edge1" class="edge"><title>#anon:35:1:OUT:e&#45;&gt;ExpectedArgs:IN:w</title>
<path fill="none" stroke="#86283e" stroke-width="2" d="M87,-84C110.58,-84 111.878,-60.9576 132.846,-58.2573"/>
<ellipse fill="#86283e" stroke="#86283e" stroke-width="2" cx="135.004" cy="-58.1237" rx="2" ry="2"/>
</g>
<!-- ArgsCountOK -->
<g id="node4" class="node"><title>ArgsCountOK</title>
<polygon fill="#471ca4" stroke="none" points="282,-50 282,-79 374,-79 374,-50 282,-50"/>
<polygon fill="none" stroke="#1d0b45" points="282,-50 282,-79 374,-79 374,-50 282,-50"/>
<text text-anchor="start" x="285.5" y="-65.3" font-family="Helvetica,sans-Serif" font-size="14.00" fill="#ffffff">ArgsCountOK</text>
<text text-anchor="start" x="314" y="-56.1" font-family="Helvetica,sans-Serif" font-size="8.00" fill="#ffffff">console</text>
<polygon fill="#35157b" stroke="none" points="282,-33 282,-50 374,-50 374,-33 282,-33"/>
<polygon fill="none" stroke="#1d0b45" points="282,-33 282,-50 374,-50 374,-33 282,-33"/>
<text text-anchor="start" x="285" y="-39" font-family="Helvetica,sans-Serif" font-size="10.00" fill="#ffffff">◎ IN</text>
</g>
<!-- ExpectedArgs&#45;&gt;ArgsCountOK -->
<g id="edge3" class="edge"><title>ExpectedArgs:OUT:e&#45;&gt;ArgsCountOK:IN:w</title>
<path fill="none" stroke="#eaa772" stroke-width="2" d="M231,-41C251.66,-41 257.914,-41 276.548,-41"/>
<ellipse fill="#eaa772" stroke="#eaa772" stroke-width="2" cx="279" cy="-41" rx="2" ry="2"/>
</g>
<!-- Args -->
<g id="node3" class="node"><title>Args</title>
<polygon fill="#4e2e10" stroke="none" points="18,-21 18,-50 76,-50 76,-21 18,-21"/>
<polygon fill="none" stroke="#201206" points="18,-21 18,-50 76,-50 76,-21 18,-21"/>
<text text-anchor="start" x="33" y="-36.3" font-family="Helvetica,sans-Serif" font-size="14.00" fill="#ffffff">Args</text>
<text text-anchor="start" x="21.5" y="-27.1" font-family="Helvetica,sans-Serif" font-size="8.00" fill="#ffffff">app/argc&#45;argv</text>
<polygon fill="#2b1909" stroke="none" points="18,-4 18,-21 76,-21 76,-4 18,-4"/>
<polygon fill="none" stroke="#201206" points="18,-4 18,-21 76,-21 76,-4 18,-4"/>
<text text-anchor="start" x="32" y="-10" font-family="Helvetica,sans-Serif" font-size="10.00" fill="#ffffff">ARGC ◉</text>
</g>
<!-- Args&#45;&gt;ExpectedArgs -->
<g id="edge2" class="edge"><title>Args:ARGC:e&#45;&gt;ExpectedArgs:IN:w</title>
<path fill="none" stroke="#0ce460" stroke-width="2" d="M77,-12C109.158,-12 103.942,-54.1318 132.888,-57.7525"/>
<ellipse fill="#0ce460" stroke="#0ce460" stroke-width="2" cx="135.004" cy="-57.8798" rx="2" ry="2"/>
</g>
<!-- SrcPath -->
<g id="node5" class="node"><title>SrcPath</title>
<polygon fill="#4e2e10" stroke="none" points="19,-207 19,-236 75,-236 75,-207 19,-207"/>
<polygon fill="none" stroke="#201206" points="19,-207 19,-236 75,-236 75,-207 19,-207"/>
<text text-anchor="start" x="22.5" y="-222.3" font-family="Helvetica,sans-Serif" font-size="14.00" fill="#ffffff">SrcPath</text>
<text text-anchor="start" x="31" y="-213.1" font-family="Helvetica,sans-Serif" font-size="8.00" fill="#ffffff">app/argv</text>
<polygon fill="#2b1909" stroke="none" points="19,-190 19,-207 75,-207 75,-190 19,-190"/>
<polygon fill="none" stroke="#201206" points="19,-190 19,-207 75,-207 75,-190 19,-190"/>
<text text-anchor="start" x="39" y="-196" font-family="Helvetica,sans-Serif" font-size="10.00" fill="#ffffff">OUT ◉</text>
<polygon fill="#2b1909" stroke="none" points="19,-173 19,-190 75,-190 75,-173 19,-173"/>
<polygon fill="none" stroke="#201206" points="19,-173 19,-190 75,-190 75,-173 19,-173"/>
<text text-anchor="start" x="23" y="-179" font-family="Helvetica,sans-Serif" font-size="10.00" fill="#ffffff">ERROR ◉</text>
</g>
<!-- fr -->
<g id="node6" class="node"><title>fr</title>
<polygon fill="#d4e0ba" stroke="none" points="156,-232 156,-261 212,-261 212,-232 156,-232"/>
<polygon fill="none" stroke="#595e4e" points="156,-232 156,-261 212,-261 212,-232 156,-232"/>
<text text-anchor="start" x="179.5" y="-247.3" font-family="Helvetica,sans-Serif" font-size="14.00" fill="#000000">fr</text>
<text text-anchor="start" x="165.5" y="-238.1" font-family="Helvetica,sans-Serif" font-size="8.00" fill="#000000">file/reader</text>
<polygon fill="#9fa88b" stroke="none" points="156,-215 156,-232 212,-232 212,-215 156,-215"/>
<polygon fill="none" stroke="#595e4e" points="156,-215 156,-232 212,-232 212,-215 156,-215"/>
<text text-anchor="start" x="159" y="-221" font-family="Helvetica,sans-Serif" font-size="10.00" fill="#000000">◎ PATH</text>
<polygon fill="#777e68" stroke="none" points="156,-198 156,-215 212,-215 212,-198 156,-198"/>
<polygon fill="none" stroke="#595e4e" points="156,-198 156,-215 212,-215 212,-198 156,-198"/>
<text text-anchor="start" x="176" y="-204" font-family="Helvetica,sans-Serif" font-size="10.00" fill="#ffffff">OUT ◉</text>
<polygon fill="#777e68" stroke="none" points="156,-181 156,-198 212,-198 212,-181 156,-181"/>
<polygon fill="none" stroke="#595e4e" points="156,-181 156,-198 212,-198 212,-181 156,-181"/>
<text text-anchor="start" x="160" y="-187" font-family="Helvetica,sans-Serif" font-size="10.00" fill="#ffffff">ERROR ◉</text>
</g>
<!-- SrcPath&#45;&gt;fr -->
<g id="edge4" class="edge"><title>SrcPath:OUT:e&#45;&gt;fr:PATH:w</title>
<path fill="none" stroke="#fb7470" stroke-width="2" d="M76,-198C111.52,-198 117.591,-222.008 150.81,-223.884"/>
<ellipse fill="#fb7470" stroke="#fb7470" stroke-width="2" cx="153.001" cy="-223.945" rx="2" ry="2"/>
</g>
<!-- Error -->
<g id="node7" class="node"><title>Error</title>
<polygon fill="#471ca4" stroke="none" points="437,-83 437,-112 475,-112 475,-83 437,-83"/>
<polygon fill="none" stroke="#1d0b45" points="437,-83 437,-112 475,-112 475,-83 437,-83"/>
<text text-anchor="start" x="440.5" y="-98.3" font-family="Helvetica,sans-Serif" font-size="14.00" fill="#ffffff">Error</text>
<text text-anchor="start" x="442" y="-89.1" font-family="Helvetica,sans-Serif" font-size="8.00" fill="#ffffff">console</text>
<polygon fill="#35157b" stroke="none" points="437,-66 437,-83 475,-83 475,-66 437,-66"/>
<polygon fill="none" stroke="#1d0b45" points="437,-66 437,-83 475,-83 475,-66 437,-66"/>
<text text-anchor="start" x="440" y="-72" font-family="Helvetica,sans-Serif" font-size="10.00" fill="#ffffff">◎ IN</text>
</g>
<!-- SrcPath&#45;&gt;Error -->
<g id="edge5" class="edge"><title>SrcPath:ERROR:e&#45;&gt;Error:IN:w</title>
<path fill="none" stroke="#8d4144" stroke-width="2" d="M329,-149C379.347,-123.141 378.029,-76.4471 431.692,-74.0926"/>
<ellipse fill="#8d4144" stroke="#8d4144" stroke-width="2" cx="434" cy="-74.043" rx="2" ry="2"/>
<path fill="none" stroke="#8d4144" stroke-width="2" d="M76,-181C100.686,-181 105.654,-172.084 130,-168 173.375,-160.724 287.878,-169.094 327,-149"/>
</g>
<!-- fr&#45;&gt;Error -->
<g id="edge10" class="edge"><title>fr:ERROR:e&#45;&gt;Error:IN:w</title>
<path fill="none" stroke="#a7cd38" stroke-width="2" d="M213,-189C266.695,-189 279.237,-173.532 327,-149"/>
</g>
<!-- fw -->
<g id="node9" class="node"><title>fw</title>
<polygon fill="#d4e0ba" stroke="none" points="300,-320 300,-349 356,-349 356,-320 300,-320"/>
<polygon fill="none" stroke="#595e4e" points="300,-320 300,-349 356,-349 356,-320 300,-320"/>
<text text-anchor="start" x="321" y="-335.3" font-family="Helvetica,sans-Serif" font-size="14.00" fill="#000000">fw</text>
<text text-anchor="start" x="311.5" y="-326.1" font-family="Helvetica,sans-Serif" font-size="8.00" fill="#000000">file/writer</text>
<polygon fill="#9fa88b" stroke="none" points="300,-303 300,-320 356,-320 356,-303 300,-303"/>
<polygon fill="none" stroke="#595e4e" points="300,-303 300,-320 356,-320 356,-303 300,-303"/>
<text text-anchor="start" x="303" y="-309" font-family="Helvetica,sans-Serif" font-size="10.00" fill="#000000">◎ PATH</text>
<polygon fill="#9fa88b" stroke="none" points="300,-286 300,-303 356,-303 356,-286 300,-286"/>
<polygon fill="none" stroke="#595e4e" points="300,-286 300,-303 356,-303 356,-286 300,-286"/>
<text text-anchor="start" x="303" y="-292" font-family="Helvetica,sans-Serif" font-size="10.00" fill="#000000">◎ IN</text>
<polygon fill="#777e68" stroke="none" points="300,-269 300,-286 356,-286 356,-269 300,-269"/>
<polygon fill="none" stroke="#595e4e" points="300,-269 300,-286 356,-286 356,-269 300,-269"/>
<text text-anchor="start" x="313" y="-275" font-family="Helvetica,sans-Serif" font-size="10.00" fill="#ffffff">BUSY ◉</text>
<polygon fill="#777e68" stroke="none" points="300,-252 300,-269 356,-269 356,-252 300,-252"/>
<polygon fill="none" stroke="#595e4e" points="300,-252 300,-269 356,-269 356,-252 300,-252"/>
<text text-anchor="start" x="304" y="-258" font-family="Helvetica,sans-Serif" font-size="10.00" fill="#ffffff">ERROR ◉</text>
<polygon fill="#777e68" stroke="none" points="300,-235 300,-252 356,-252 356,-235 300,-235"/>
<polygon fill="none" stroke="#595e4e" points="300,-235 300,-252 356,-252 356,-235 300,-235"/>
<text text-anchor="start" x="319" y="-241" font-family="Helvetica,sans-Serif" font-size="10.00" fill="#ffffff">SIZE ◉</text>
<polygon fill="#777e68" stroke="none" points="300,-218 300,-235 356,-235 356,-218 300,-218"/>
<polygon fill="none" stroke="#595e4e" points="300,-218 300,-235 356,-235 356,-218 300,-218"/>
<text text-anchor="start" x="312" y="-224" font-family="Helvetica,sans-Serif" font-size="10.00" fill="#ffffff">DONE ◉</text>
</g>
<!-- fr&#45;&gt;fw -->
<g id="edge9" class="edge"><title>fr:OUT:e&#45;&gt;fw:IN:w</title>
<path fill="none" stroke="#e4b07c" stroke-width="2" d="M213,-206C266.609,-206 245.163,-290.538 294.96,-294.831"/>
<ellipse fill="#e4b07c" stroke="#e4b07c" stroke-width="2" cx="297.002" cy="-294.916" rx="2" ry="2"/>
</g>
<!-- DstPath -->
<g id="node8" class="node"><title>DstPath</title>
<polygon fill="#4e2e10" stroke="none" points="156,-321 156,-350 212,-350 212,-321 156,-321"/>
<polygon fill="none" stroke="#201206" points="156,-321 156,-350 212,-350 212,-321 156,-321"/>
<text text-anchor="start" x="159.5" y="-336.3" font-family="Helvetica,sans-Serif" font-size="14.00" fill="#ffffff">DstPath</text>
<text text-anchor="start" x="168" y="-327.1" font-family="Helvetica,sans-Serif" font-size="8.00" fill="#ffffff">app/argv</text>
<polygon fill="#2b1909" stroke="none" points="156,-304 156,-321 212,-321 212,-304 156,-304"/>
<polygon fill="none" stroke="#201206" points="156,-304 156,-321 212,-321 212,-304 156,-304"/>
<text text-anchor="start" x="176" y="-310" font-family="Helvetica,sans-Serif" font-size="10.00" fill="#ffffff">OUT ◉</text>
<polygon fill="#2b1909" stroke="none" points="156,-287 156,-304 212,-304 212,-287 156,-287"/>
<polygon fill="none" stroke="#201206" points="156,-287 156,-304 212,-304 212,-287 156,-287"/>
<text text-anchor="start" x="160" y="-293" font-family="Helvetica,sans-Serif" font-size="10.00" fill="#ffffff">ERROR ◉</text>
</g>
<!-- DstPath&#45;&gt;Error -->
<g id="edge7" class="edge"><title>DstPath:ERROR:e&#45;&gt;Error:IN:w</title>
<path fill="none" stroke="#5a789a" stroke-width="2" d="M213,-295C227.801,-295 228.832,-284.619 238,-273 259.182,-246.154 254.064,-232.784 274,-205 293.978,-177.157 296.517,-164.656 327,-149"/>
</g>
<!-- DstPath&#45;&gt;fw -->
<g id="edge6" class="edge"><title>DstPath:OUT:e&#45;&gt;fw:PATH:w</title>
<path fill="none" stroke="#225414" stroke-width="2" d="M213,-312C249.729,-312 259.988,-312 294.649,-312"/>
<ellipse fill="#225414" stroke="#225414" stroke-width="2" cx="297" cy="-312" rx="2" ry="2"/>
</g>
<!-- fw&#45;&gt;Error -->
<g id="edge12" class="edge"><title>fw:ERROR:e&#45;&gt;Error:IN:w</title>
<path fill="none" stroke="#ecbd04" stroke-width="2" d="M357,-260C445.411,-260 349.284,-79.7671 431.928,-74.1348"/>
<ellipse fill="#ecbd04" stroke="#ecbd04" stroke-width="2" cx="434.001" cy="-74.0662" rx="2" ry="2"/>
</g>
<!-- Busy -->
<g id="node12" class="node"><title>Busy</title>
<polygon fill="#471ca4" stroke="none" points="437,-427 437,-456 475,-456 475,-427 437,-427"/>
<polygon fill="none" stroke="#1d0b45" points="437,-427 437,-456 475,-456 475,-427 437,-427"/>
<text text-anchor="start" x="440.5" y="-442.3" font-family="Helvetica,sans-Serif" font-size="14.00" fill="#ffffff">Busy</text>
<text text-anchor="start" x="442" y="-433.1" font-family="Helvetica,sans-Serif" font-size="8.00" fill="#ffffff">console</text>
<polygon fill="#35157b" stroke="none" points="437,-410 437,-427 475,-427 475,-410 437,-410"/>
<polygon fill="none" stroke="#1d0b45" points="437,-410 437,-427 475,-427 475,-410 437,-410"/>
<text text-anchor="start" x="440" y="-416" font-family="Helvetica,sans-Serif" font-size="10.00" fill="#ffffff">◎ IN</text>
</g>
<!-- fw&#45;&gt;Busy -->
<g id="edge11" class="edge"><title>fw:BUSY:e&#45;&gt;Busy:IN:w</title>
<path fill="none" stroke="#7a739c" stroke-width="2" d="M357,-277C427.429,-277 366.641,-412.546 431.945,-417.841"/>
<ellipse fill="#7a739c" stroke="#7a739c" stroke-width="2" cx="434.002" cy="-417.921" rx="2" ry="2"/>
</g>
<!-- Size -->
<g id="node13" class="node"><title>Size</title>
<polygon fill="#471ca4" stroke="none" points="439,-317 439,-346 474,-346 474,-317 439,-317"/>
<polygon fill="none" stroke="#1d0b45" points="439,-317 439,-346 474,-346 474,-317 439,-317"/>
<text text-anchor="start" x="443" y="-332.3" font-family="Helvetica,sans-Serif" font-size="14.00" fill="#ffffff">Size</text>
<text text-anchor="start" x="442.5" y="-323.1" font-family="Helvetica,sans-Serif" font-size="8.00" fill="#ffffff">console</text>
<polygon fill="#35157b" stroke="none" points="439,-300 439,-317 474,-317 474,-300 439,-300"/>
<polygon fill="none" stroke="#1d0b45" points="439,-300 439,-317 474,-317 474,-300 439,-300"/>
<text text-anchor="start" x="442" y="-306" font-family="Helvetica,sans-Serif" font-size="10.00" fill="#ffffff">◎ IN</text>
</g>
<!-- fw&#45;&gt;Size -->
<g id="edge13" class="edge"><title>fw:SIZE:e&#45;&gt;Size:IN:w</title>
<path fill="none" stroke="#464206" stroke-width="2" d="M357,-243C401.716,-243 392.493,-304.001 433.838,-307.814"/>
<ellipse fill="#464206" stroke="#464206" stroke-width="2" cx="436.002" cy="-307.91" rx="2" ry="2"/>
</g>
<!-- Done -->
<g id="node14" class="node"><title>Done</title>
<polygon fill="#471ca4" stroke="none" points="436,-155 436,-184 476,-184 476,-155 436,-155"/>
<polygon fill="none" stroke="#1d0b45" points="436,-155 436,-184 476,-184 476,-155 436,-155"/>
<text text-anchor="start" x="439.5" y="-170.3" font-family="Helvetica,sans-Serif" font-size="14.00" fill="#ffffff">Done</text>
<text text-anchor="start" x="442" y="-161.1" font-family="Helvetica,sans-Serif" font-size="8.00" fill="#ffffff">console</text>
<polygon fill="#35157b" stroke="none" points="436,-138 436,-155 476,-155 476,-138 436,-138"/>
<polygon fill="none" stroke="#1d0b45" points="436,-138 436,-155 476,-155 476,-138 436,-138"/>
<text text-anchor="start" x="439" y="-144" font-family="Helvetica,sans-Serif" font-size="10.00" fill="#ffffff">◎ IN</text>
</g>
<!-- fw&#45;&gt;Done -->
<g id="edge14" class="edge"><title>fw:DONE:e&#45;&gt;Done:IN:w</title>
<path fill="none" stroke="#b08674" stroke-width="2" d="M357,-226C405.204,-226 386.53,-150.619 430.815,-146.202"/>
<ellipse fill="#b08674" stroke="#b08674" stroke-width="2" cx="433.002" cy="-146.096" rx="2" ry="2"/>
</g>
<!-- Quit -->
<g id="node15" class="node"><title>Quit</title>
<polygon fill="#4e2e10" stroke="none" points="764,-415 764,-444 820,-444 820,-415 764,-415"/>
<polygon fill="none" stroke="#201206" points="764,-415 764,-444 820,-444 820,-415 764,-415"/>
<text text-anchor="start" x="779" y="-430.3" font-family="Helvetica,sans-Serif" font-size="14.00" fill="#ffffff">Quit</text>
<text text-anchor="start" x="777.5" y="-421.1" font-family="Helvetica,sans-Serif" font-size="8.00" fill="#ffffff">app/quit</text>
<polygon fill="#3a220c" stroke="none" points="764,-398 764,-415 820,-415 820,-398 764,-398"/>
<polygon fill="none" stroke="#201206" points="764,-398 764,-415 820,-415 820,-398 764,-398"/>
<text text-anchor="start" x="767" y="-404" font-family="Helvetica,sans-Serif" font-size="10.00" fill="#ffffff">◎ QUIT</text>
<polygon fill="#3a220c" stroke="none" points="764,-381 764,-398 820,-398 820,-381 764,-381"/>
<polygon fill="none" stroke="#201206" points="764,-381 764,-398 820,-398 820,-381 764,-381"/>
<text text-anchor="start" x="767" y="-387" font-family="Helvetica,sans-Serif" font-size="10.00" fill="#ffffff">◎ ERROR</text>
</g>
<!-- fw&#45;&gt;Quit -->
<g id="edge19" class="edge"><title>fw:ERROR:e&#45;&gt;Quit:ERROR:w</title>
<path fill="none" stroke="#20509e" stroke-width="2" d="M357,-260C408.682,-260 374.012,-331.87 418,-359 482.348,-398.688 678.966,-389.35 758.827,-389.009"/>
<ellipse fill="#20509e" stroke="#20509e" stroke-width="2" cx="761" cy="-389.005" rx="2" ry="2"/>
</g>
<!-- Success -->
<g id="node16" class="node"><title>Success</title>
<polygon fill="#254878" stroke="none" points="427,-244 427,-273 486,-273 486,-244 427,-244"/>
<polygon fill="none" stroke="#0f1e32" points="427,-244 427,-273 486,-273 486,-244 427,-244"/>
<text text-anchor="start" x="430.5" y="-259.3" font-family="Helvetica,sans-Serif" font-size="14.00" fill="#ffffff">Success</text>
<text text-anchor="start" x="441" y="-250.1" font-family="Helvetica,sans-Serif" font-size="8.00" fill="#ffffff">int/equal</text>
<polygon fill="#1b365a" stroke="none" points="427,-227 427,-244 486,-244 486,-227 427,-227"/>
<polygon fill="none" stroke="#0f1e32" points="427,-227 427,-244 486,-244 486,-227 427,-227"/>
<text text-anchor="start" x="430" y="-233" font-family="Helvetica,sans-Serif" font-size="10.00" fill="#ffffff">◎ IN</text>
<polygon fill="#142843" stroke="none" points="427,-210 427,-227 486,-227 486,-210 427,-210"/>
<polygon fill="none" stroke="#0f1e32" points="427,-210 427,-227 486,-227 486,-210 427,-210"/>
<text text-anchor="start" x="450" y="-216" font-family="Helvetica,sans-Serif" font-size="10.00" fill="#ffffff">OUT ◉</text>
</g>
<!-- fw&#45;&gt;Success -->
<g id="edge15" class="edge"><title>fw:SIZE:e&#45;&gt;Success:IN:w</title>
<path fill="none" stroke="#76711b" stroke-width="2" d="M357,-243C386.425,-243 394.396,-235.732 421.809,-235.051"/>
<ellipse fill="#76711b" stroke="#76711b" stroke-width="2" cx="424" cy="-235.024" rx="2" ry="2"/>
</g>
<!-- fw&#45;&gt;Success -->
<g id="edge16" class="edge"><title>fw:DONE:e&#45;&gt;Success:IN:w</title>
<path fill="none" stroke="#3c6eee" stroke-width="2" d="M357,-226C386.477,-226 394.351,-234.176 421.803,-234.943"/>
<ellipse fill="#3c6eee" stroke="#3c6eee" stroke-width="2" cx="424" cy="-234.973" rx="2" ry="2"/>
</g>
<!-- #anon:44:1 -->
<g id="node10" class="node"><title>#anon:44:1</title>
<polygon fill="#7f2fae" stroke="none" points="27,-394 27,-416 67,-416 67,-394 27,-394"/>
<polygon fill="none" stroke="#351348" points="27,-394 27,-416 67,-416 67,-394 27,-394"/>
<text text-anchor="start" x="31.5" y="-401.3" font-family="Helvetica,sans-Serif" font-size="14.00" fill="#ffffff">timer</text>
<polygon fill="#471a61" stroke="none" points="27,-377 27,-394 67,-394 67,-377 27,-377"/>
<polygon fill="none" stroke="#351348" points="27,-377 27,-394 67,-394 67,-377 27,-377"/>
<text text-anchor="start" x="31" y="-383" font-family="Helvetica,sans-Serif" font-size="10.00" fill="#ffffff">OUT ◉</text>
</g>
<!-- Timer -->
<g id="node11" class="node"><title>Timer</title>
<polygon fill="#471ca4" stroke="none" points="163,-394 163,-423 206,-423 206,-394 163,-394"/>
<polygon fill="none" stroke="#1d0b45" points="163,-394 163,-423 206,-423 206,-394 163,-394"/>
<text text-anchor="start" x="166.5" y="-409.3" font-family="Helvetica,sans-Serif" font-size="14.00" fill="#ffffff">Timer</text>
<text text-anchor="start" x="170.5" y="-400.1" font-family="Helvetica,sans-Serif" font-size="8.00" fill="#ffffff">console</text>
<polygon fill="#35157b" stroke="none" points="163,-377 163,-394 206,-394 206,-377 163,-377"/>
<polygon fill="none" stroke="#1d0b45" points="163,-377 163,-394 206,-394 206,-377 163,-377"/>
<text text-anchor="start" x="166" y="-383" font-family="Helvetica,sans-Serif" font-size="10.00" fill="#ffffff">◎ IN</text>
</g>
<!-- #anon:44:1&#45;&gt;Timer -->
<g id="edge8" class="edge"><title>#anon:44:1:OUT:e&#45;&gt;Timer:IN:w</title>
<path fill="none" stroke="#dc1960" stroke-width="2" d="M68,-385C108.309,-385 119.449,-385 157.707,-385"/>
<ellipse fill="#dc1960" stroke="#dc1960" stroke-width="2" cx="160" cy="-385" rx="2" ry="2"/>
</g>
<!-- #anon:57:30 -->
<g id="node17" class="node"><title>#anon:57:30</title>
<polygon fill="#bd648a" stroke="none" points="539,-444 539,-466 712,-466 712,-444 539,-444"/>
<polygon fill="none" stroke="#4e2a39" points="539,-444 539,-466 712,-466 712,-444 539,-444"/>
<text text-anchor="start" x="542.5" y="-451.3" font-family="Helvetica,sans-Serif" font-size="14.00" fill="#000000">converter/boolean&#45;to&#45;empty</text>
<polygon fill="#8d4b67" stroke="none" points="539,-427 539,-444 712,-444 712,-427 539,-427"/>
<polygon fill="none" stroke="#4e2a39" points="539,-427 539,-444 712,-444 712,-427 539,-427"/>
<text text-anchor="start" x="542" y="-433" font-family="Helvetica,sans-Serif" font-size="10.00" fill="#ffffff">◎ PULSE_IF_TRUE</text>
<polygon fill="#69384d" stroke="none" points="539,-410 539,-427 712,-427 712,-410 539,-410"/>
<polygon fill="none" stroke="#4e2a39" points="539,-410 539,-427 712,-427 712,-410 539,-410"/>
<text text-anchor="start" x="676" y="-416" font-family="Helvetica,sans-Serif" font-size="10.00" fill="#ffffff">OUT ◉</text>
</g>
<!-- Success&#45;&gt;#anon:57:30 -->
<g id="edge17" class="edge"><title>Success:OUT:e&#45;&gt;#anon:57:30:PULSE_IF_TRUE:w</title>
<path fill="none" stroke="#5344c1" stroke-width="2" d="M487,-218C584.621,-218 443.186,-428.689 533.803,-434.862"/>
<ellipse fill="#5344c1" stroke="#5344c1" stroke-width="2" cx="536.001" cy="-434.934" rx="2" ry="2"/>
</g>
<!-- #anon:57:30&#45;&gt;Quit -->
<g id="edge18" class="edge"><title>#anon:57:30:OUT:e&#45;&gt;Quit:QUIT:w</title>
<path fill="none" stroke="#8cc464" stroke-width="2" d="M713,-418C734.425,-418 739.538,-407.453 758.923,-406.135"/>
<ellipse fill="#8cc464" stroke="#8cc464" stroke-width="2" cx="761.001" cy="-406.066" rx="2" ry="2"/>
</g>
</g>
</svg>
