<?xml version="1.0" encoding="UTF-8" standalone="no"?>
<!DOCTYPE svg PUBLIC "-//W3C//DTD SVG 1.1//EN"
 "http://www.w3.org/Graphics/SVG/1.1/DTD/svg11.dtd">
<!-- Generated by graphviz version 2.36.0 (20140111.2315)
 -->
<!-- Title: fbp Pages: 1 -->
<svg width="386pt" height="574pt"
 viewBox="0.00 0.00 386.00 574.00" xmlns="http://www.w3.org/2000/svg" xmlns:xlink="http://www.w3.org/1999/xlink">
<g id="graph0" class="graph" transform="scale(1 1) rotate(0) translate(4 570)">
<title>fbp</title>
<polygon fill="white" stroke="none" points="-4,4 -4,-570 382,-570 382,4 -4,4"/>
<!-- #anon:45:1 -->
<g id="node1" class="node"><title>#anon:45:1</title>
<polygon fill="#e8ea7a" stroke="none" points="8,-366 8,-388 108,-388 108,-366 8,-366"/>
<polygon fill="none" stroke="#616233" points="8,-366 8,-388 108,-388 108,-366 8,-366"/>
<text text-anchor="start" x="11.5" y="-373.3" font-family="Helvetica,sans-Serif" font-size="14.00" fill="#000000">constant/empty</text>
<polygon fill="#828344" stroke="none" points="8,-349 8,-366 108,-366 108,-349 8,-349"/>
<polygon fill="none" stroke="#616233" points="8,-349 8,-366 108,-366 108,-349 8,-349"/>
<text text-anchor="start" x="72" y="-355" font-family="Helvetica,sans-Serif" font-size="10.00" fill="#ffffff">OUT ◉</text>
</g>
<!-- F -->
<g id="node2" class="node"><title>F</title>
<polygon fill="#a962f4" stroke="none" points="160,-365 160,-394 264,-394 264,-365 160,-365"/>
<polygon fill="none" stroke="#462866" points="160,-365 160,-394 264,-394 264,-365 160,-365"/>
<text text-anchor="start" x="207.5" y="-380.3" font-family="Helvetica,sans-Serif" font-size="14.00" fill="#000000">F</text>
<text text-anchor="start" x="180" y="-371.1" font-family="Helvetica,sans-Serif" font-size="8.00" fill="#000000">location/freegeoip</text>
<polygon fill="#7e49b7" stroke="none" points="160,-348 160,-365 264,-365 264,-348 160,-348"/>
<polygon fill="none" stroke="#462866" points="160,-348 160,-365 264,-365 264,-348 160,-348"/>
<text text-anchor="start" x="163" y="-354" font-family="Helvetica,sans-Serif" font-size="10.00" fill="#ffffff">◎ IN</text>
<polygon fill="#5e3689" stroke="none" points="160,-331 160,-348 264,-348 264,-331 160,-331"/>
<polygon fill="none" stroke="#462866" points="160,-331 160,-348 264,-348 264,-331 160,-331"/>
<text text-anchor="start" x="239" y="-337" font-family="Helvetica,sans-Serif" font-size="10.00" fill="#ffffff">IP ◉</text>
<polygon fill="#5e3689" stroke="none" points="160,-314 160,-331 264,-331 264,-314 160,-314"/>
<polygon fill="none" stroke="#462866" points="160,-314 160,-331 264,-331 264,-314 160,-314"/>
<text text-anchor="start" x="164" y="-320" font-family="Helvetica,sans-Serif" font-size="10.00" fill="#ffffff">COUNTRY_CODE ◉</text>
<polygon fill="#5e3689" stroke="none" points="160,-297 160,-314 264,-314 264,-297 160,-297"/>
<polygon fill="none" stroke="#462866" points="160,-297 160,-314 264,-314 264,-297 160,-297"/>
<text text-anchor="start" x="164" y="-303" font-family="Helvetica,sans-Serif" font-size="10.00" fill="#ffffff">COUNTRY_NAME ◉</text>
<polygon fill="#5e3689" stroke="none" points="160,-280 160,-297 264,-297 264,-280 160,-280"/>
<polygon fill="none" stroke="#462866" points="160,-280 160,-297 264,-297 264,-280 160,-280"/>
<text text-anchor="start" x="175" y="-286" font-family="Helvetica,sans-Serif" font-size="10.00" fill="#ffffff">REGION_CODE ◉</text>
<polygon fill="#5e3689" stroke="none" points="160,-263 160,-280 264,-280 264,-263 160,-263"/>
<polygon fill="none" stroke="#462866" points="160,-263 160,-280 264,-280 264,-263 160,-263"/>
<text text-anchor="start" x="175" y="-269" font-family="Helvetica,sans-Serif" font-size="10.00" fill="#ffffff">REGION_NAME ◉</text>
<polygon fill="#5e3689" stroke="none" points="160,-246 160,-263 264,-263 264,-246 160,-246"/>
<polygon fill="none" stroke="#462866" points="160,-246 160,-263 264,-263 264,-246 160,-246"/>
<text text-anchor="start" x="191" y="-252" font-family="Helvetica,sans-Serif" font-size="10.00" fill="#ffffff">CITY_NAME ◉</text>
<polygon fill="#5e3689" stroke="none" points="160,-229 160,-246 264,-246 264,-229 160,-229"/>
<polygon fill="none" stroke="#462866" points="160,-229 160,-246 264,-246 264,-229 160,-229"/>
<text text-anchor="start" x="199" y="-235" font-family="Helvetica,sans-Serif" font-size="10.00" fill="#ffffff">ZIP_CODE ◉</text>
<polygon fill="#5e3689" stroke="none" points="160,-212 160,-229 264,-229 264,-212 160,-212"/>
<polygon fill="none" stroke="#462866" points="160,-212 160,-229 264,-229 264,-212 160,-212"/>
<text text-anchor="start" x="197" y="-218" font-family="Helvetica,sans-Serif" font-size="10.00" fill="#ffffff">TIMEZONE ◉</text>
<polygon fill="#5e3689" stroke="none" points="160,-195 160,-212 264,-212 264,-195 160,-195"/>
<polygon fill="none" stroke="#462866" points="160,-195 160,-212 264,-212 264,-195 160,-195"/>
<text text-anchor="start" x="198" y="-201" font-family="Helvetica,sans-Serif" font-size="10.00" fill="#ffffff">LOCATION ◉</text>
</g>
<!-- #anon:45:1&#45;&gt;F -->
<g id="edge1" class="edge"><title>#anon:45:1:OUT:e&#45;&gt;F:IN:w</title>
<path fill="none" stroke="#410aae" stroke-width="2" d="M109,-357C129.66,-357 135.914,-357 154.548,-357"/>
<ellipse fill="#410aae" stroke="#410aae" stroke-width="2" cx="157" cy="-357" rx="2" ry="2"/>
</g>
<!-- #anon:47:12 -->
<g id="node3" class="node"><title>#anon:47:12</title>
<polygon fill="#471ca4" stroke="none" points="316,-540 316,-562 370,-562 370,-540 316,-540"/>
<polygon fill="none" stroke="#1d0b45" points="316,-540 316,-562 370,-562 370,-540 316,-540"/>
<text text-anchor="start" x="319.5" y="-547.3" font-family="Helvetica,sans-Serif" font-size="14.00" fill="#ffffff">console</text>
<polygon fill="#35157b" stroke="none" points="316,-523 316,-540 370,-540 370,-523 316,-523"/>
<polygon fill="none" stroke="#1d0b45" points="316,-523 316,-540 370,-540 370,-523 316,-523"/>
<text text-anchor="start" x="319" y="-529" font-family="Helvetica,sans-Serif" font-size="10.00" fill="#ffffff">◎ IN</text>
</g>
<!-- F&#45;&gt;#anon:47:12 -->
<g id="edge2" class="edge"><title>F:IP:e&#45;&gt;#anon:47:12:IN:w</title>
<path fill="none" stroke="#0c766f" stroke-width="2" d="M265,-340C351.207,-340 231.597,-524.344 310.568,-530.825"/>
<ellipse fill="#0c766f" stroke="#0c766f" stroke-width="2" cx="313.002" cy="-530.921" rx="2" ry="2"/>
</g>
<!-- #anon:48:22 -->
<g id="node4" class="node"><title>#anon:48:22</title>
<polygon fill="#471ca4" stroke="none" points="316,-475 316,-497 370,-497 370,-475 316,-475"/>
<polygon fill="none" stroke="#1d0b45" points="316,-475 316,-497 370,-497 370,-475 316,-475"/>
<text text-anchor="start" x="319.5" y="-482.3" font-family="Helvetica,sans-Serif" font-size="14.00" fill="#ffffff">console</text>
<polygon fill="#35157b" stroke="none" points="316,-458 316,-475 370,-475 370,-458 316,-458"/>
<polygon fill="none" stroke="#1d0b45" points="316,-458 316,-475 370,-475 370,-458 316,-458"/>
<text text-anchor="start" x="319" y="-464" font-family="Helvetica,sans-Serif" font-size="10.00" fill="#ffffff">◎ IN</text>
</g>
<!-- F&#45;&gt;#anon:48:22 -->
<g id="edge3" class="edge"><title>F:COUNTRY_CODE:e&#45;&gt;#anon:48:22:IN:w</title>
<path fill="none" stroke="#1ea268" stroke-width="2" d="M265,-323C330.882,-323 251.239,-459.921 310.868,-465.805"/>
<ellipse fill="#1ea268" stroke="#1ea268" stroke-width="2" cx="313.002" cy="-465.906" rx="2" ry="2"/>
</g>
<!-- #anon:49:22 -->
<g id="node5" class="node"><title>#anon:49:22</title>
<polygon fill="#471ca4" stroke="none" points="316,-410 316,-432 370,-432 370,-410 316,-410"/>
<polygon fill="none" stroke="#1d0b45" points="316,-410 316,-432 370,-432 370,-410 316,-410"/>
<text text-anchor="start" x="319.5" y="-417.3" font-family="Helvetica,sans-Serif" font-size="14.00" fill="#ffffff">console</text>
<polygon fill="#35157b" stroke="none" points="316,-393 316,-410 370,-410 370,-393 316,-393"/>
<polygon fill="none" stroke="#1d0b45" points="316,-393 316,-410 370,-410 370,-393 316,-393"/>
<text text-anchor="start" x="319" y="-399" font-family="Helvetica,sans-Serif" font-size="10.00" fill="#ffffff">◎ IN</text>
</g>
<!-- F&#45;&gt;#anon:49:22 -->
<g id="edge4" class="edge"><title>F:COUNTRY_NAME:e&#45;&gt;#anon:49:22:IN:w</title>
<path fill="none" stroke="#2f979e" stroke-width="2" d="M265,-306C311.222,-306 270.035,-395.155 310.794,-400.727"/>
<ellipse fill="#2f979e" stroke="#2f979e" stroke-width="2" cx="313.004" cy="-400.871" rx="2" ry="2"/>
</g>
<!-- #anon:50:21 -->
<g id="node6" class="node"><title>#anon:50:21</title>
<polygon fill="#471ca4" stroke="none" points="316,-345 316,-367 370,-367 370,-345 316,-345"/>
<polygon fill="none" stroke="#1d0b45" points="316,-345 316,-367 370,-367 370,-345 316,-345"/>
<text text-anchor="start" x="319.5" y="-352.3" font-family="Helvetica,sans-Serif" font-size="14.00" fill="#ffffff">console</text>
<polygon fill="#35157b" stroke="none" points="316,-328 316,-345 370,-345 370,-328 316,-328"/>
<polygon fill="none" stroke="#1d0b45" points="316,-328 316,-345 370,-345 370,-328 316,-328"/>
<text text-anchor="start" x="319" y="-334" font-family="Helvetica,sans-Serif" font-size="10.00" fill="#ffffff">◎ IN</text>
</g>
<!-- F&#45;&gt;#anon:50:21 -->
<g id="edge5" class="edge"><title>F:REGION_CODE:e&#45;&gt;#anon:50:21:IN:w</title>
<path fill="none" stroke="#d69080" stroke-width="2" d="M265,-288C294.361,-288 285.19,-331.605 310.939,-335.693"/>
<ellipse fill="#d69080" stroke="#d69080" stroke-width="2" cx="313.006" cy="-335.849" rx="2" ry="2"/>
</g>
<!-- #anon:51:21 -->
<g id="node7" class="node"><title>#anon:51:21</title>
<polygon fill="#471ca4" stroke="none" points="316,-280 316,-302 370,-302 370,-280 316,-280"/>
<polygon fill="none" stroke="#1d0b45" points="316,-280 316,-302 370,-302 370,-280 316,-280"/>
<text text-anchor="start" x="319.5" y="-287.3" font-family="Helvetica,sans-Serif" font-size="14.00" fill="#ffffff">console</text>
<polygon fill="#35157b" stroke="none" points="316,-263 316,-280 370,-280 370,-263 316,-263"/>
<polygon fill="none" stroke="#1d0b45" points="316,-263 316,-280 370,-280 370,-263 316,-263"/>
<text text-anchor="start" x="319" y="-269" font-family="Helvetica,sans-Serif" font-size="10.00" fill="#ffffff">◎ IN</text>
</g>
<!-- F&#45;&gt;#anon:51:21 -->
<g id="edge6" class="edge"><title>F:REGION_NAME:e&#45;&gt;#anon:51:21:IN:w</title>
<path fill="none" stroke="#a56578" stroke-width="2" d="M265,-271C285.66,-271 291.914,-271 310.548,-271"/>
<ellipse fill="#a56578" stroke="#a56578" stroke-width="2" cx="313" cy="-271" rx="2" ry="2"/>
</g>
<!-- #anon:52:19 -->
<g id="node8" class="node"><title>#anon:52:19</title>
<polygon fill="#471ca4" stroke="none" points="316,-215 316,-237 370,-237 370,-215 316,-215"/>
<polygon fill="none" stroke="#1d0b45" points="316,-215 316,-237 370,-237 370,-215 316,-215"/>
<text text-anchor="start" x="319.5" y="-222.3" font-family="Helvetica,sans-Serif" font-size="14.00" fill="#ffffff">console</text>
<polygon fill="#35157b" stroke="none" points="316,-198 316,-215 370,-215 370,-198 316,-198"/>
<polygon fill="none" stroke="#1d0b45" points="316,-198 316,-215 370,-215 370,-198 316,-198"/>
<text text-anchor="start" x="319" y="-204" font-family="Helvetica,sans-Serif" font-size="10.00" fill="#ffffff">◎ IN</text>
</g>
<!-- F&#45;&gt;#anon:52:19 -->
<g id="edge7" class="edge"><title>F:CITY_NAME:e&#45;&gt;#anon:52:19:IN:w</title>
<path fill="none" stroke="#236a32" stroke-width="2" d="M265,-254C294.361,-254 285.19,-210.395 310.939,-206.307"/>
<ellipse fill="#236a32" stroke="#236a32" stroke-width="2" cx="313.006" cy="-206.151" rx="2" ry="2"/>
</g>
<!-- #anon:53:18 -->
<g id="node9" class="node"><title>#anon:53:18</title>
<polygon fill="#471ca4" stroke="none" points="316,-150 316,-172 370,-172 370,-150 316,-150"/>
<polygon fill="none" stroke="#1d0b45" points="316,-150 316,-172 370,-172 370,-150 316,-150"/>
<text text-anchor="start" x="319.5" y="-157.3" font-family="Helvetica,sans-Serif" font-size="14.00" fill="#ffffff">console</text>
<polygon fill="#35157b" stroke="none" points="316,-133 316,-150 370,-150 370,-133 316,-133"/>
<polygon fill="none" stroke="#1d0b45" points="316,-133 316,-150 370,-150 370,-133 316,-133"/>
<text text-anchor="start" x="319" y="-139" font-family="Helvetica,sans-Serif" font-size="10.00" fill="#ffffff">◎ IN</text>
</g>
<!-- F&#45;&gt;#anon:53:18 -->
<g id="edge8" class="edge"><title>F:ZIP_CODE:e&#45;&gt;#anon:53:18:IN:w</title>
<path fill="none" stroke="#345253" stroke-width="2" d="M265,-237C311.604,-237 269.689,-146.906 310.761,-141.275"/>
<ellipse fill="#345253" stroke="#345253" stroke-width="2" cx="313.004" cy="-141.13" rx="2" ry="2"/>
</g>
<!-- #anon:54:18 -->
<g id="node10" class="node"><title>#anon:54:18</title>
<polygon fill="#471ca4" stroke="none" points="316,-85 316,-107 370,-107 370,-85 316,-85"/>
<polygon fill="none" stroke="#1d0b45" points="316,-85 316,-107 370,-107 370,-85 316,-85"/>
<text text-anchor="start" x="319.5" y="-92.3" font-family="Helvetica,sans-Serif" font-size="14.00" fill="#ffffff">console</text>
<polygon fill="#35157b" stroke="none" points="316,-68 316,-85 370,-85 370,-68 316,-68"/>
<polygon fill="none" stroke="#1d0b45" points="316,-68 316,-85 370,-85 370,-68 316,-68"/>
<text text-anchor="start" x="319" y="-74" font-family="Helvetica,sans-Serif" font-size="10.00" fill="#ffffff">◎ IN</text>
</g>
<!-- F&#45;&gt;#anon:54:18 -->
<g id="edge9" class="edge"><title>F:TIMEZONE:e&#45;&gt;#anon:54:18:IN:w</title>
<path fill="none" stroke="#527bcb" stroke-width="2" d="M265,-220C331.293,-220 250.855,-82.121 310.843,-76.1965"/>
<ellipse fill="#527bcb" stroke="#527bcb" stroke-width="2" cx="313.002" cy="-76.0945" rx="2" ry="2"/>
</g>
<!-- #anon:55:18 -->
<g id="node11" class="node"><title>#anon:55:18</title>
<polygon fill="#471ca4" stroke="none" points="316,-20 316,-42 370,-42 370,-20 316,-20"/>
<polygon fill="none" stroke="#1d0b45" points="316,-20 316,-42 370,-42 370,-20 316,-20"/>
<text text-anchor="start" x="319.5" y="-27.3" font-family="Helvetica,sans-Serif" font-size="14.00" fill="#ffffff">console</text>
<polygon fill="#35157b" stroke="none" points="316,-3 316,-20 370,-20 370,-3 316,-3"/>
<polygon fill="none" stroke="#1d0b45" points="316,-3 316,-20 370,-20 370,-3 316,-3"/>
<text text-anchor="start" x="319" y="-9" font-family="Helvetica,sans-Serif" font-size="10.00" fill="#ffffff">◎ IN</text>
</g>
<!-- F&#45;&gt;#anon:55:18 -->
<g id="edge10" class="edge"><title>F:LOCATION:e&#45;&gt;#anon:55:18:IN:w</title>
<path fill="none" stroke="#c75f8e" stroke-width="2" d="M265,-203C351.629,-203 231.197,-17.6907 310.546,-11.1759"/>
<ellipse fill="#c75f8e" stroke="#c75f8e" stroke-width="2" cx="313.002" cy="-11.079" rx="2" ry="2"/>
</g>
</g>
</svg>
