<?xml version="1.0" encoding="UTF-8" standalone="no"?>
<!DOCTYPE svg PUBLIC "-//W3C//DTD SVG 1.1//EN"
 "http://www.w3.org/Graphics/SVG/1.1/DTD/svg11.dtd">
<!-- Generated by graphviz version 2.36.0 (20140111.2315)
 -->
<!-- Title: fbp Pages: 1 -->
<svg width="302pt" height="79pt"
 viewBox="0.00 0.00 302.00 79.00" xmlns="http://www.w3.org/2000/svg" xmlns:xlink="http://www.w3.org/1999/xlink">
<g id="graph0" class="graph" transform="scale(1 1) rotate(0) translate(4 75)">
<title>fbp</title>
<polygon fill="white" stroke="none" points="-4,4 -4,-75 298,-75 298,4 -4,4"/>
<!-- Interface -->
<g id="node1" class="node"><title>Interface</title>
<polygon fill="#4e2e10" stroke="none" points="8,-38 8,-67 68,-67 68,-38 8,-38"/>
<polygon fill="none" stroke="#201206" points="8,-38 8,-67 68,-67 68,-38 8,-38"/>
<text text-anchor="start" x="11.5" y="-53.3" font-family="Helvetica,sans-Serif" font-size="14.00" fill="#ffffff">Interface</text>
<text text-anchor="start" x="22" y="-44.1" font-family="Helvetica,sans-Serif" font-size="8.00" fill="#ffffff">app/argv</text>
<polygon fill="#2b1909" stroke="none" points="8,-21 8,-38 68,-38 68,-21 8,-21"/>
<polygon fill="none" stroke="#201206" points="8,-21 8,-38 68,-38 68,-21 8,-21"/>
<text text-anchor="start" x="32" y="-27" font-family="Helvetica,sans-Serif" font-size="10.00" fill="#ffffff">OUT ◉</text>
</g>
<!-- Network -->
<g id="node2" class="node"><title>Network</title>
<polygon fill="#59c25e" stroke="none" points="120,-38 120,-67 188,-67 188,-38 120,-38"/>
<polygon fill="none" stroke="#245127" points="120,-38 120,-67 188,-67 188,-38 120,-38"/>
<text text-anchor="start" x="129" y="-53.3" font-family="Helvetica,sans-Serif" font-size="14.00" fill="#000000">Network</text>
<text text-anchor="start" x="124" y="-44.1" font-family="Helvetica,sans-Serif" font-size="8.00" fill="#000000">network/boolean</text>
<polygon fill="#429146" stroke="none" points="120,-21 120,-38 188,-38 188,-21 120,-21"/>
<polygon fill="none" stroke="#245127" points="120,-21 120,-38 188,-38 188,-21 120,-21"/>
<text text-anchor="start" x="123" y="-27" font-family="Helvetica,sans-Serif" font-size="10.00" fill="#ffffff">◎ ADDRESS</text>
<polygon fill="#316c34" stroke="none" points="120,-4 120,-21 188,-21 188,-4 120,-4"/>
<polygon fill="none" stroke="#245127" points="120,-4 120,-21 188,-21 188,-4 120,-4"/>
<text text-anchor="start" x="152" y="-10" font-family="Helvetica,sans-Serif" font-size="10.00" fill="#ffffff">OUT ◉</text>
</g>
<!-- Interface&#45;&gt;Network -->
<g id="edge1" class="edge"><title>Interface:OUT_OUT:e&#45;&gt;Network:IN_ADDRESS:w</title>
<path fill="none" stroke="#65d778" stroke-width="2" d="M69,-29C89.6597,-29 95.9141,-29 114.548,-29"/>
<ellipse fill="#65d778" stroke="#65d778" stroke-width="2" cx="117" cy="-29" rx="2" ry="2"/>
</g>
<!-- Status -->
<g id="node3" class="node"><title>Status</title>
<polygon fill="#471ca4" stroke="none" points="240,-21 240,-50 286,-50 286,-21 240,-21"/>
<polygon fill="none" stroke="#1d0b45" points="240,-21 240,-50 286,-50 286,-21 240,-21"/>
<text text-anchor="start" x="243.5" y="-36.3" font-family="Helvetica,sans-Serif" font-size="14.00" fill="#ffffff">Status</text>
<text text-anchor="start" x="249" y="-27.1" font-family="Helvetica,sans-Serif" font-size="8.00" fill="#ffffff">console</text>
<polygon fill="#35157b" stroke="none" points="240,-4 240,-21 286,-21 286,-4 240,-4"/>
<polygon fill="none" stroke="#1d0b45" points="240,-4 240,-21 286,-21 286,-4 240,-4"/>
<text text-anchor="start" x="243" y="-10" font-family="Helvetica,sans-Serif" font-size="10.00" fill="#ffffff">◎ IN</text>
</g>
<!-- Network&#45;&gt;Status -->
<g id="edge2" class="edge"><title>Network:OUT_OUT:e&#45;&gt;Status:IN_IN:w</title>
<path fill="none" stroke="#a61e1a" stroke-width="2" d="M189,-12C209.66,-12 215.914,-12 234.548,-12"/>
<ellipse fill="#a61e1a" stroke="#a61e1a" stroke-width="2" cx="237" cy="-12" rx="2" ry="2"/>
</g>
</g>
</svg>
