<?xml version="1.0" encoding="UTF-8" standalone="no"?>
<!DOCTYPE svg PUBLIC "-//W3C//DTD SVG 1.1//EN"
 "http://www.w3.org/Graphics/SVG/1.1/DTD/svg11.dtd">
<!-- Generated by graphviz version 2.36.0 (20140111.2315)
 -->
<!-- Title: fbp Pages: 1 -->
<svg width="296pt" height="346pt"
 viewBox="0.00 0.00 296.00 346.00" xmlns="http://www.w3.org/2000/svg" xmlns:xlink="http://www.w3.org/1999/xlink">
<g id="graph0" class="graph" transform="scale(1 1) rotate(0) translate(4 342)">
<title>fbp</title>
<polygon fill="white" stroke="none" points="-4,4 -4,-342 292,-342 292,4 -4,4"/>
<!-- timer -->
<g id="node1" class="node"><title>timer</title>
<polygon fill="#7f2fae" stroke="none" points="8,-171 8,-200 72,-200 72,-171 8,-171"/>
<polygon fill="none" stroke="#351348" points="8,-171 8,-200 72,-200 72,-171 8,-171"/>
<text text-anchor="start" x="11.5" y="-186.3" font-family="Helvetica,sans-Serif" font-size="14.00" fill="#ffffff">🕐 Timer</text>
<text text-anchor="start" x="30.5" y="-177.1" font-family="Helvetica,sans-Serif" font-size="8.00" fill="#ffffff">timer</text>
<polygon fill="#471a61" stroke="none" points="8,-154 8,-171 72,-171 72,-154 8,-154"/>
<polygon fill="none" stroke="#351348" points="8,-154 8,-171 72,-171 72,-154 8,-154"/>
<text text-anchor="start" x="36" y="-160" font-family="Helvetica,sans-Serif" font-size="10.00" fill="#ffffff">OUT ◉</text>
</g>
<!-- rI -->
<g id="node2" class="node"><title>rI</title>
<polygon fill="#90eede" stroke="none" points="134,-305 134,-334 180,-334 180,-305 134,-305"/>
<polygon fill="none" stroke="#3c635d" points="134,-305 134,-334 180,-334 180,-305 134,-305"/>
<text text-anchor="start" x="152.5" y="-320.3" font-family="Helvetica,sans-Serif" font-size="14.00" fill="#000000">rI</text>
<text text-anchor="start" x="137.5" y="-311.1" font-family="Helvetica,sans-Serif" font-size="8.00" fill="#000000">random/int</text>
<polygon fill="#6cb2a6" stroke="none" points="134,-288 134,-305 180,-305 180,-288 134,-288"/>
<polygon fill="none" stroke="#3c635d" points="134,-288 134,-305 180,-305 180,-288 134,-288"/>
<text text-anchor="start" x="137" y="-294" font-family="Helvetica,sans-Serif" font-size="10.00" fill="#000000">◎ IN</text>
<polygon fill="#51857c" stroke="none" points="134,-271 134,-288 180,-288 180,-271 134,-271"/>
<polygon fill="none" stroke="#3c635d" points="134,-271 134,-288 180,-288 180,-271 134,-271"/>
<text text-anchor="start" x="144" y="-277" font-family="Helvetica,sans-Serif" font-size="10.00" fill="#ffffff">OUT ◉</text>
</g>
<!-- timer&#45;&gt;rI -->
<g id="edge1" class="edge"><title>timer:OUT_OUT:e&#45;&gt;rI:IN_IN:w</title>
<path fill="none" stroke="#796b3e" stroke-width="2" d="M73,-162C136.851,-162 70.7137,-290.304 128.98,-295.817"/>
<ellipse fill="#796b3e" stroke="#796b3e" stroke-width="2" cx="131.002" cy="-295.909" rx="2" ry="2"/>
</g>
<!-- rF -->
<g id="node3" class="node"><title>rF</title>
<polygon fill="#90eede" stroke="none" points="131,-216 131,-245 184,-245 184,-216 131,-216"/>
<polygon fill="none" stroke="#3c635d" points="131,-216 131,-245 184,-245 184,-216 131,-216"/>
<text text-anchor="start" x="151" y="-231.3" font-family="Helvetica,sans-Serif" font-size="14.00" fill="#000000">rF</text>
<text text-anchor="start" x="134.5" y="-222.1" font-family="Helvetica,sans-Serif" font-size="8.00" fill="#000000">random/float</text>
<polygon fill="#6cb2a6" stroke="none" points="131,-199 131,-216 184,-216 184,-199 131,-199"/>
<polygon fill="none" stroke="#3c635d" points="131,-199 131,-216 184,-216 184,-199 131,-199"/>
<text text-anchor="start" x="134" y="-205" font-family="Helvetica,sans-Serif" font-size="10.00" fill="#000000">◎ IN</text>
<polygon fill="#51857c" stroke="none" points="131,-182 131,-199 184,-199 184,-182 131,-182"/>
<polygon fill="none" stroke="#3c635d" points="131,-182 131,-199 184,-199 184,-182 131,-182"/>
<text text-anchor="start" x="148" y="-188" font-family="Helvetica,sans-Serif" font-size="10.00" fill="#ffffff">OUT ◉</text>
</g>
<!-- timer&#45;&gt;rF -->
<g id="edge3" class="edge"><title>timer:OUT_OUT:e&#45;&gt;rF:IN_IN:w</title>
<path fill="none" stroke="#24bb08" stroke-width="2" d="M73,-162C103.764,-162 98.344,-202.88 125.715,-206.713"/>
<ellipse fill="#24bb08" stroke="#24bb08" stroke-width="2" cx="128.004" cy="-206.866" rx="2" ry="2"/>
</g>
<!-- rB -->
<g id="node4" class="node"><title>rB</title>
<polygon fill="#90eede" stroke="none" points="131,-127 131,-156 184,-156 184,-127 131,-127"/>
<polygon fill="none" stroke="#3c635d" points="131,-127 131,-156 184,-156 184,-127 131,-127"/>
<text text-anchor="start" x="150.5" y="-142.3" font-family="Helvetica,sans-Serif" font-size="14.00" fill="#000000">rB</text>
<text text-anchor="start" x="134.5" y="-133.1" font-family="Helvetica,sans-Serif" font-size="8.00" fill="#000000">random/byte</text>
<polygon fill="#6cb2a6" stroke="none" points="131,-110 131,-127 184,-127 184,-110 131,-110"/>
<polygon fill="none" stroke="#3c635d" points="131,-110 131,-127 184,-127 184,-110 131,-110"/>
<text text-anchor="start" x="134" y="-116" font-family="Helvetica,sans-Serif" font-size="10.00" fill="#000000">◎ IN</text>
<polygon fill="#51857c" stroke="none" points="131,-93 131,-110 184,-110 184,-93 131,-93"/>
<polygon fill="none" stroke="#3c635d" points="131,-93 131,-110 184,-110 184,-93 131,-93"/>
<text text-anchor="start" x="148" y="-99" font-family="Helvetica,sans-Serif" font-size="10.00" fill="#ffffff">OUT ◉</text>
</g>
<!-- timer&#45;&gt;rB -->
<g id="edge5" class="edge"><title>timer:OUT_OUT:e&#45;&gt;rB:IN_IN:w</title>
<path fill="none" stroke="#bc9c22" stroke-width="2" d="M73,-162C103.503,-162 98.568,-122.028 125.749,-118.281"/>
<ellipse fill="#bc9c22" stroke="#bc9c22" stroke-width="2" cx="128.004" cy="-118.132" rx="2" ry="2"/>
</g>
<!-- rBool -->
<g id="node5" class="node"><title>rBool</title>
<polygon fill="#90eede" stroke="none" points="124,-38 124,-67 190,-67 190,-38 124,-38"/>
<polygon fill="none" stroke="#3c635d" points="124,-38 124,-67 190,-67 190,-38 124,-38"/>
<text text-anchor="start" x="141" y="-53.3" font-family="Helvetica,sans-Serif" font-size="14.00" fill="#000000">rBool</text>
<text text-anchor="start" x="127.5" y="-44.1" font-family="Helvetica,sans-Serif" font-size="8.00" fill="#000000">random/boolean</text>
<polygon fill="#6cb2a6" stroke="none" points="124,-21 124,-38 190,-38 190,-21 124,-21"/>
<polygon fill="none" stroke="#3c635d" points="124,-21 124,-38 190,-38 190,-21 124,-21"/>
<text text-anchor="start" x="127" y="-27" font-family="Helvetica,sans-Serif" font-size="10.00" fill="#000000">◎ IN</text>
<polygon fill="#51857c" stroke="none" points="124,-4 124,-21 190,-21 190,-4 124,-4"/>
<polygon fill="none" stroke="#3c635d" points="124,-4 124,-21 190,-21 190,-4 124,-4"/>
<text text-anchor="start" x="154" y="-10" font-family="Helvetica,sans-Serif" font-size="10.00" fill="#ffffff">OUT ◉</text>
</g>
<!-- timer&#45;&gt;rBool -->
<g id="edge7" class="edge"><title>timer:OUT_OUT:e&#45;&gt;rBool:IN_IN:w</title>
<path fill="none" stroke="#5d7481" stroke-width="2" d="M73,-162C134.67,-162 63.3498,-35.1613 118.786,-29.2158"/>
<ellipse fill="#5d7481" stroke="#5d7481" stroke-width="2" cx="121.003" cy="-29.1023" rx="2" ry="2"/>
</g>
<!-- c1 -->
<g id="node6" class="node"><title>c1</title>
<polygon fill="#471ca4" stroke="none" points="244,-288 244,-317 279,-317 279,-288 244,-288"/>
<polygon fill="none" stroke="#1d0b45" points="244,-288 244,-317 279,-317 279,-288 244,-288"/>
<text text-anchor="start" x="254" y="-303.3" font-family="Helvetica,sans-Serif" font-size="14.00" fill="#ffffff">c1</text>
<text text-anchor="start" x="247.5" y="-294.1" font-family="Helvetica,sans-Serif" font-size="8.00" fill="#ffffff">console</text>
<polygon fill="#35157b" stroke="none" points="244,-271 244,-288 279,-288 279,-271 244,-271"/>
<polygon fill="none" stroke="#1d0b45" points="244,-271 244,-288 279,-288 279,-271 244,-271"/>
<text text-anchor="start" x="247" y="-277" font-family="Helvetica,sans-Serif" font-size="10.00" fill="#ffffff">◎ IN</text>
</g>
<!-- rI&#45;&gt;c1 -->
<g id="edge2" class="edge"><title>rI:OUT_OUT:e&#45;&gt;c1:IN_IN:w</title>
<path fill="none" stroke="#4126d6" stroke-width="2" d="M181,-279C207.156,-279 214.691,-279 238.957,-279"/>
<ellipse fill="#4126d6" stroke="#4126d6" stroke-width="2" cx="241" cy="-279" rx="2" ry="2"/>
</g>
<!-- c2 -->
<g id="node7" class="node"><title>c2</title>
<polygon fill="#471ca4" stroke="none" points="244,-199 244,-228 279,-228 279,-199 244,-199"/>
<polygon fill="none" stroke="#1d0b45" points="244,-199 244,-228 279,-228 279,-199 244,-199"/>
<text text-anchor="start" x="254" y="-214.3" font-family="Helvetica,sans-Serif" font-size="14.00" fill="#ffffff">c2</text>
<text text-anchor="start" x="247.5" y="-205.1" font-family="Helvetica,sans-Serif" font-size="8.00" fill="#ffffff">console</text>
<polygon fill="#35157b" stroke="none" points="244,-182 244,-199 279,-199 279,-182 244,-182"/>
<polygon fill="none" stroke="#1d0b45" points="244,-182 244,-199 279,-199 279,-182 244,-182"/>
<text text-anchor="start" x="247" y="-188" font-family="Helvetica,sans-Serif" font-size="10.00" fill="#ffffff">◎ IN</text>
</g>
<!-- rF&#45;&gt;c2 -->
<g id="edge4" class="edge"><title>rF:OUT_OUT:e&#45;&gt;c2:IN_IN:w</title>
<path fill="none" stroke="#703f46" stroke-width="2" d="M185,-190C209.368,-190 216.46,-190 238.938,-190"/>
<ellipse fill="#703f46" stroke="#703f46" stroke-width="2" cx="241" cy="-190" rx="2" ry="2"/>
</g>
<!-- c3 -->
<g id="node8" class="node"><title>c3</title>
<polygon fill="#471ca4" stroke="none" points="244,-110 244,-139 279,-139 279,-110 244,-110"/>
<polygon fill="none" stroke="#1d0b45" points="244,-110 244,-139 279,-139 279,-110 244,-110"/>
<text text-anchor="start" x="254" y="-125.3" font-family="Helvetica,sans-Serif" font-size="14.00" fill="#ffffff">c3</text>
<text text-anchor="start" x="247.5" y="-116.1" font-family="Helvetica,sans-Serif" font-size="8.00" fill="#ffffff">console</text>
<polygon fill="#35157b" stroke="none" points="244,-93 244,-110 279,-110 279,-93 244,-93"/>
<polygon fill="none" stroke="#1d0b45" points="244,-93 244,-110 279,-110 279,-93 244,-93"/>
<text text-anchor="start" x="247" y="-99" font-family="Helvetica,sans-Serif" font-size="10.00" fill="#ffffff">◎ IN</text>
</g>
<!-- rB&#45;&gt;c3 -->
<g id="edge6" class="edge"><title>rB:OUT_OUT:e&#45;&gt;c3:IN_IN:w</title>
<path fill="none" stroke="#cba9cc" stroke-width="2" d="M185,-101C209.368,-101 216.46,-101 238.938,-101"/>
<ellipse fill="#cba9cc" stroke="#cba9cc" stroke-width="2" cx="241" cy="-101" rx="2" ry="2"/>
</g>
<!-- c4 -->
<g id="node9" class="node"><title>c4</title>
<polygon fill="#471ca4" stroke="none" points="244,-21 244,-50 279,-50 279,-21 244,-21"/>
<polygon fill="none" stroke="#1d0b45" points="244,-21 244,-50 279,-50 279,-21 244,-21"/>
<text text-anchor="start" x="254" y="-36.3" font-family="Helvetica,sans-Serif" font-size="14.00" fill="#ffffff">c4</text>
<text text-anchor="start" x="247.5" y="-27.1" font-family="Helvetica,sans-Serif" font-size="8.00" fill="#ffffff">console</text>
<polygon fill="#35157b" stroke="none" points="244,-4 244,-21 279,-21 279,-4 244,-4"/>
<polygon fill="none" stroke="#1d0b45" points="244,-4 244,-21 279,-21 279,-4 244,-4"/>
<text text-anchor="start" x="247" y="-10" font-family="Helvetica,sans-Serif" font-size="10.00" fill="#ffffff">◎ IN</text>
</g>
<!-- rBool&#45;&gt;c4 -->
<g id="edge8" class="edge"><title>rBool:OUT_OUT:e&#45;&gt;c4:IN_IN:w</title>
<path fill="none" stroke="#1f5671" stroke-width="2" d="M191,-12C212.667,-12 219.099,-12 238.861,-12"/>
<ellipse fill="#1f5671" stroke="#1f5671" stroke-width="2" cx="241" cy="-12" rx="2" ry="2"/>
</g>
</g>
</svg>
