<?xml version="1.0" encoding="UTF-8" standalone="no"?>
<!DOCTYPE svg PUBLIC "-//W3C//DTD SVG 1.1//EN"
 "http://www.w3.org/Graphics/SVG/1.1/DTD/svg11.dtd">
<!-- Generated by graphviz version 2.36.0 (20140111.2315)
 -->
<!-- Title: fbp Pages: 1 -->
<svg width="1514pt" height="360pt"
 viewBox="0.00 0.00 1514.00 360.00" xmlns="http://www.w3.org/2000/svg" xmlns:xlink="http://www.w3.org/1999/xlink">
<g id="graph0" class="graph" transform="scale(1 1) rotate(0) translate(4 356)">
<title>fbp</title>
<polygon fill="white" stroke="none" points="-4,4 -4,-356 1510,-356 1510,4 -4,4"/>
<!-- PrefBt -->
<g id="node1" class="node"><title>PrefBt</title>
<polygon fill="#46b19c" stroke="none" points="9,-316 9,-345 80,-345 80,-316 9,-316"/>
<polygon fill="none" stroke="#1d4a41" points="9,-316 9,-345 80,-345 80,-316 9,-316"/>
<text text-anchor="start" x="25.5" y="-331.3" font-family="Helvetica,sans-Serif" font-size="14.00" fill="#000000">PrefBt</text>
<text text-anchor="start" x="12.5" y="-322.1" font-family="Helvetica,sans-Serif" font-size="8.00" fill="#000000">keyboard/boolean</text>
<polygon fill="#276357" stroke="none" points="9,-299 9,-316 80,-316 80,-299 9,-299"/>
<polygon fill="none" stroke="#1d4a41" points="9,-299 9,-316 80,-316 80,-299 9,-299"/>
<text text-anchor="start" x="44" y="-305" font-family="Helvetica,sans-Serif" font-size="10.00" fill="#ffffff">OUT ◉</text>
</g>
<!-- #anon:34:29 -->
<g id="node5" class="node"><title>#anon:34:29</title>
<polygon fill="#bd648a" stroke="none" points="133,-316 133,-338 306,-338 306,-316 133,-316"/>
<polygon fill="none" stroke="#4e2a39" points="133,-316 133,-338 306,-338 306,-316 133,-316"/>
<text text-anchor="start" x="136.5" y="-323.3" font-family="Helvetica,sans-Serif" font-size="14.00" fill="#000000">converter/boolean&#45;to&#45;empty</text>
<polygon fill="#8d4b67" stroke="none" points="133,-299 133,-316 306,-316 306,-299 133,-299"/>
<polygon fill="none" stroke="#4e2a39" points="133,-299 133,-316 306,-316 306,-299 133,-299"/>
<text text-anchor="start" x="136" y="-305" font-family="Helvetica,sans-Serif" font-size="10.00" fill="#ffffff">◎ PULSE_IF_TRUE</text>
<polygon fill="#69384d" stroke="none" points="133,-282 133,-299 306,-299 306,-282 133,-282"/>
<polygon fill="none" stroke="#4e2a39" points="133,-282 133,-299 306,-299 306,-282 133,-282"/>
<text text-anchor="start" x="270" y="-288" font-family="Helvetica,sans-Serif" font-size="10.00" fill="#ffffff">OUT ◉</text>
</g>
<!-- PrefBt&#45;&gt;#anon:34:29 -->
<g id="edge1" class="edge"><title>PrefBt:OUT_OUT:e&#45;&gt;#anon:34:29:IN_PULSE_IF_TRUE:w</title>
<path fill="none" stroke="#771919" stroke-width="2" d="M81,-307C102.25,-307 108.559,-307 127.941,-307"/>
<ellipse fill="#771919" stroke="#771919" stroke-width="2" cx="130" cy="-307" rx="2" ry="2"/>
</g>
<!-- PrefTicket -->
<g id="node2" class="node"><title>PrefTicket</title>
<polygon fill="#254878" stroke="none" points="358,-299 358,-328 426,-328 426,-299 358,-299"/>
<polygon fill="none" stroke="#0f1e32" points="358,-299 358,-328 426,-328 426,-299 358,-299"/>
<text text-anchor="start" x="361.5" y="-314.3" font-family="Helvetica,sans-Serif" font-size="14.00" fill="#ffffff">PrefTicket</text>
<text text-anchor="start" x="364.5" y="-305.1" font-family="Helvetica,sans-Serif" font-size="8.00" fill="#ffffff">int/accumulator</text>
<polygon fill="#1b365a" stroke="none" points="358,-282 358,-299 426,-299 426,-282 358,-282"/>
<polygon fill="none" stroke="#0f1e32" points="358,-282 358,-299 426,-299 426,-282 358,-282"/>
<text text-anchor="start" x="361" y="-288" font-family="Helvetica,sans-Serif" font-size="10.00" fill="#ffffff">◎ INC</text>
<polygon fill="#142843" stroke="none" points="358,-265 358,-282 426,-282 426,-265 358,-265"/>
<polygon fill="none" stroke="#0f1e32" points="358,-265 358,-282 426,-282 426,-265 358,-265"/>
<text text-anchor="start" x="390" y="-271" font-family="Helvetica,sans-Serif" font-size="10.00" fill="#ffffff">OUT ◉</text>
</g>
<!-- PrefPrinter -->
<g id="node3" class="node"><title>PrefPrinter</title>
<polygon fill="#471ca4" stroke="none" points="478,-319 478,-348 550,-348 550,-319 478,-319"/>
<polygon fill="none" stroke="#1d0b45" points="478,-319 478,-348 550,-348 550,-319 478,-319"/>
<text text-anchor="start" x="481.5" y="-334.3" font-family="Helvetica,sans-Serif" font-size="14.00" fill="#ffffff">PrefPrinter</text>
<text text-anchor="start" x="500" y="-325.1" font-family="Helvetica,sans-Serif" font-size="8.00" fill="#ffffff">console</text>
<polygon fill="#35157b" stroke="none" points="478,-302 478,-319 550,-319 550,-302 478,-302"/>
<polygon fill="none" stroke="#1d0b45" points="478,-302 478,-319 550,-319 550,-302 478,-302"/>
<text text-anchor="start" x="481" y="-308" font-family="Helvetica,sans-Serif" font-size="10.00" fill="#ffffff">◎ IN</text>
</g>
<!-- PrefTicket&#45;&gt;PrefPrinter -->
<g id="edge3" class="edge"><title>PrefTicket:OUT_OUT:e&#45;&gt;PrefPrinter:IN_IN:w</title>
<path fill="none" stroke="#a90a00" stroke-width="2" d="M427,-273C453.133,-273 449.835,-306.064 472.749,-309.68"/>
<ellipse fill="#a90a00" stroke="#a90a00" stroke-width="2" cx="475.006" cy="-309.85" rx="2" ry="2"/>
</g>
<!-- PrefLess -->
<g id="node4" class="node"><title>PrefLess</title>
<polygon fill="#254878" stroke="none" points="484,-246 484,-275 545,-275 545,-246 484,-246"/>
<polygon fill="none" stroke="#0f1e32" points="484,-246 484,-275 545,-275 545,-246 484,-246"/>
<text text-anchor="start" x="487.5" y="-261.3" font-family="Helvetica,sans-Serif" font-size="14.00" fill="#ffffff">PrefLess</text>
<text text-anchor="start" x="502" y="-252.1" font-family="Helvetica,sans-Serif" font-size="8.00" fill="#ffffff">int/less</text>
<polygon fill="#1b365a" stroke="none" points="484,-229 484,-246 545,-246 545,-229 484,-229"/>
<polygon fill="none" stroke="#0f1e32" points="484,-229 484,-246 545,-246 545,-229 484,-229"/>
<text text-anchor="start" x="487" y="-235" font-family="Helvetica,sans-Serif" font-size="10.00" fill="#ffffff">◎ IN</text>
<polygon fill="#142843" stroke="none" points="484,-212 484,-229 545,-229 545,-212 484,-212"/>
<polygon fill="none" stroke="#0f1e32" points="484,-212 484,-229 545,-229 545,-212 484,-212"/>
<text text-anchor="start" x="509" y="-218" font-family="Helvetica,sans-Serif" font-size="10.00" fill="#ffffff">OUT ◉</text>
</g>
<!-- PrefTicket&#45;&gt;PrefLess -->
<g id="edge4" class="edge"><title>PrefTicket:OUT_OUT:e&#45;&gt;PrefLess:IN_IN:w</title>
<path fill="none" stroke="#0c27fe" stroke-width="2" d="M427,-273C455.086,-273 453.65,-240.563 478.737,-237.269"/>
<ellipse fill="#0c27fe" stroke="#0c27fe" stroke-width="2" cx="481.004" cy="-237.126" rx="2" ry="2"/>
</g>
<!-- CallPref -->
<g id="node12" class="node"><title>CallPref</title>
<polygon fill="#184294" stroke="none" points="615,-229 615,-258 667,-258 667,-229 615,-229"/>
<polygon fill="none" stroke="#091b3e" points="615,-229 615,-258 667,-258 667,-229 615,-229"/>
<text text-anchor="start" x="621" y="-244.3" font-family="Helvetica,sans-Serif" font-size="14.00" fill="#ffffff">∧ And</text>
<text text-anchor="start" x="618.5" y="-235.1" font-family="Helvetica,sans-Serif" font-size="8.00" fill="#ffffff">boolean/and</text>
<polygon fill="#12316f" stroke="none" points="615,-212 615,-229 667,-229 667,-212 615,-212"/>
<polygon fill="none" stroke="#091b3e" points="615,-212 615,-229 667,-229 667,-212 615,-212"/>
<text text-anchor="start" x="618" y="-218" font-family="Helvetica,sans-Serif" font-size="10.00" fill="#ffffff">◎ IN</text>
<polygon fill="#0d2453" stroke="none" points="615,-195 615,-212 667,-212 667,-195 615,-195"/>
<polygon fill="none" stroke="#091b3e" points="615,-195 615,-212 667,-212 667,-195 615,-195"/>
<text text-anchor="start" x="631" y="-201" font-family="Helvetica,sans-Serif" font-size="10.00" fill="#ffffff">OUT ◉</text>
</g>
<!-- PrefLess&#45;&gt;CallPref -->
<g id="edge10" class="edge"><title>PrefLess:OUT_OUT:e&#45;&gt;CallPref:IN_IN:w</title>
<path fill="none" stroke="#9b9c22" stroke-width="2" d="M546,-220C574.806,-220 583.02,-220 609.895,-220"/>
<ellipse fill="#9b9c22" stroke="#9b9c22" stroke-width="2" cx="612" cy="-220" rx="2" ry="2"/>
</g>
<!-- #anon:66:20 -->
<g id="node20" class="node"><title>#anon:66:20</title>
<polygon fill="#184294" stroke="none" points="602,-147 602,-169 680,-169 680,-147 602,-147"/>
<polygon fill="none" stroke="#091b3e" points="602,-147 602,-169 680,-169 680,-147 602,-147"/>
<text text-anchor="start" x="605.5" y="-154.3" font-family="Helvetica,sans-Serif" font-size="14.00" fill="#ffffff">boolean/not</text>
<polygon fill="#12316f" stroke="none" points="602,-130 602,-147 680,-147 680,-130 602,-130"/>
<polygon fill="none" stroke="#091b3e" points="602,-130 602,-147 680,-147 680,-130 602,-130"/>
<text text-anchor="start" x="605" y="-136" font-family="Helvetica,sans-Serif" font-size="10.00" fill="#ffffff">◎ IN</text>
<polygon fill="#0d2453" stroke="none" points="602,-113 602,-130 680,-130 680,-113 602,-113"/>
<polygon fill="none" stroke="#091b3e" points="602,-113 602,-130 680,-130 680,-113 602,-113"/>
<text text-anchor="start" x="644" y="-119" font-family="Helvetica,sans-Serif" font-size="10.00" fill="#ffffff">OUT ◉</text>
</g>
<!-- PrefLess&#45;&gt;#anon:66:20 -->
<g id="edge16" class="edge"><title>PrefLess:OUT_OUT:e&#45;&gt;#anon:66:20:IN_IN:w</title>
<path fill="none" stroke="#919440" stroke-width="2" d="M546,-220C588.34,-220 559.326,-143.664 596.649,-138.297"/>
<ellipse fill="#919440" stroke="#919440" stroke-width="2" cx="599.005" cy="-138.136" rx="2" ry="2"/>
</g>
<!-- #anon:34:29&#45;&gt;PrefTicket -->
<g id="edge2" class="edge"><title>#anon:34:29:OUT_OUT:e&#45;&gt;PrefTicket:IN_INC:w</title>
<path fill="none" stroke="#2eca9a" stroke-width="2" d="M307,-290C327.66,-290 333.914,-290 352.548,-290"/>
<ellipse fill="#2eca9a" stroke="#2eca9a" stroke-width="2" cx="355" cy="-290" rx="2" ry="2"/>
</g>
<!-- NormBt -->
<g id="node6" class="node"><title>NormBt</title>
<polygon fill="#46b19c" stroke="none" points="881,-203 881,-232 952,-232 952,-203 881,-203"/>
<polygon fill="none" stroke="#1d4a41" points="881,-203 881,-232 952,-232 952,-203 881,-203"/>
<text text-anchor="start" x="893" y="-218.3" font-family="Helvetica,sans-Serif" font-size="14.00" fill="#000000">NormBt</text>
<text text-anchor="start" x="884.5" y="-209.1" font-family="Helvetica,sans-Serif" font-size="8.00" fill="#000000">keyboard/boolean</text>
<polygon fill="#276357" stroke="none" points="881,-186 881,-203 952,-203 952,-186 881,-186"/>
<polygon fill="none" stroke="#1d4a41" points="881,-186 881,-203 952,-203 952,-186 881,-186"/>
<text text-anchor="start" x="916" y="-192" font-family="Helvetica,sans-Serif" font-size="10.00" fill="#ffffff">OUT ◉</text>
</g>
<!-- #anon:44:29 -->
<g id="node10" class="node"><title>#anon:44:29</title>
<polygon fill="#bd648a" stroke="none" points="1015,-203 1015,-225 1188,-225 1188,-203 1015,-203"/>
<polygon fill="none" stroke="#4e2a39" points="1015,-203 1015,-225 1188,-225 1188,-203 1015,-203"/>
<text text-anchor="start" x="1018.5" y="-210.3" font-family="Helvetica,sans-Serif" font-size="14.00" fill="#000000">converter/boolean&#45;to&#45;empty</text>
<polygon fill="#8d4b67" stroke="none" points="1015,-186 1015,-203 1188,-203 1188,-186 1015,-186"/>
<polygon fill="none" stroke="#4e2a39" points="1015,-186 1015,-203 1188,-203 1188,-186 1015,-186"/>
<text text-anchor="start" x="1018" y="-192" font-family="Helvetica,sans-Serif" font-size="10.00" fill="#ffffff">◎ PULSE_IF_TRUE</text>
<polygon fill="#69384d" stroke="none" points="1015,-169 1015,-186 1188,-186 1188,-169 1015,-169"/>
<polygon fill="none" stroke="#4e2a39" points="1015,-169 1015,-186 1188,-186 1188,-169 1015,-169"/>
<text text-anchor="start" x="1152" y="-175" font-family="Helvetica,sans-Serif" font-size="10.00" fill="#ffffff">OUT ◉</text>
</g>
<!-- NormBt&#45;&gt;#anon:44:29 -->
<g id="edge5" class="edge"><title>NormBt:OUT_OUT:e&#45;&gt;#anon:44:29:IN_PULSE_IF_TRUE:w</title>
<path fill="none" stroke="#5a30f4" stroke-width="2" d="M953,-194C978.628,-194 986.087,-194 1009.73,-194"/>
<ellipse fill="#5a30f4" stroke="#5a30f4" stroke-width="2" cx="1012" cy="-194" rx="2" ry="2"/>
</g>
<!-- NormTicket -->
<g id="node7" class="node"><title>NormTicket</title>
<polygon fill="#254878" stroke="none" points="1253,-186 1253,-215 1330,-215 1330,-186 1253,-186"/>
<polygon fill="none" stroke="#0f1e32" points="1253,-186 1253,-215 1330,-215 1330,-186 1253,-186"/>
<text text-anchor="start" x="1256.5" y="-201.3" font-family="Helvetica,sans-Serif" font-size="14.00" fill="#ffffff">NormTicket</text>
<text text-anchor="start" x="1264" y="-192.1" font-family="Helvetica,sans-Serif" font-size="8.00" fill="#ffffff">int/accumulator</text>
<polygon fill="#1b365a" stroke="none" points="1253,-169 1253,-186 1330,-186 1330,-169 1253,-169"/>
<polygon fill="none" stroke="#0f1e32" points="1253,-169 1253,-186 1330,-186 1330,-169 1253,-169"/>
<text text-anchor="start" x="1256" y="-175" font-family="Helvetica,sans-Serif" font-size="10.00" fill="#ffffff">◎ INC</text>
<polygon fill="#142843" stroke="none" points="1253,-152 1253,-169 1330,-169 1330,-152 1253,-152"/>
<polygon fill="none" stroke="#0f1e32" points="1253,-152 1253,-169 1330,-169 1330,-152 1253,-152"/>
<text text-anchor="start" x="1294" y="-158" font-family="Helvetica,sans-Serif" font-size="10.00" fill="#ffffff">OUT ◉</text>
</g>
<!-- NormPrinter -->
<g id="node8" class="node"><title>NormPrinter</title>
<polygon fill="#471ca4" stroke="none" points="1406,-193 1406,-222 1487,-222 1487,-193 1406,-193"/>
<polygon fill="none" stroke="#1d0b45" points="1406,-193 1406,-222 1487,-222 1487,-193 1406,-193"/>
<text text-anchor="start" x="1409.5" y="-208.3" font-family="Helvetica,sans-Serif" font-size="14.00" fill="#ffffff">NormPrinter</text>
<text text-anchor="start" x="1432.5" y="-199.1" font-family="Helvetica,sans-Serif" font-size="8.00" fill="#ffffff">console</text>
<polygon fill="#35157b" stroke="none" points="1406,-176 1406,-193 1487,-193 1487,-176 1406,-176"/>
<polygon fill="none" stroke="#1d0b45" points="1406,-176 1406,-193 1487,-193 1487,-176 1406,-176"/>
<text text-anchor="start" x="1409" y="-182" font-family="Helvetica,sans-Serif" font-size="10.00" fill="#ffffff">◎ IN</text>
</g>
<!-- NormTicket&#45;&gt;NormPrinter -->
<g id="edge7" class="edge"><title>NormTicket:OUT_OUT:e&#45;&gt;NormPrinter:IN_IN:w</title>
<path fill="none" stroke="#3e28c0" stroke-width="2" d="M1331,-160C1364.09,-160 1369.95,-181.982 1400.7,-183.871"/>
<ellipse fill="#3e28c0" stroke="#3e28c0" stroke-width="2" cx="1403" cy="-183.94" rx="2" ry="2"/>
</g>
<!-- NormLess -->
<g id="node9" class="node"><title>NormLess</title>
<polygon fill="#254878" stroke="none" points="1411,-120 1411,-149 1481,-149 1481,-120 1411,-120"/>
<polygon fill="none" stroke="#0f1e32" points="1411,-120 1411,-149 1481,-149 1481,-120 1411,-120"/>
<text text-anchor="start" x="1414.5" y="-135.3" font-family="Helvetica,sans-Serif" font-size="14.00" fill="#ffffff">NormLess</text>
<text text-anchor="start" x="1433.5" y="-126.1" font-family="Helvetica,sans-Serif" font-size="8.00" fill="#ffffff">int/less</text>
<polygon fill="#1b365a" stroke="none" points="1411,-103 1411,-120 1481,-120 1481,-103 1411,-103"/>
<polygon fill="none" stroke="#0f1e32" points="1411,-103 1411,-120 1481,-120 1481,-103 1411,-103"/>
<text text-anchor="start" x="1414" y="-109" font-family="Helvetica,sans-Serif" font-size="10.00" fill="#ffffff">◎ IN</text>
<polygon fill="#142843" stroke="none" points="1411,-86 1411,-103 1481,-103 1481,-86 1411,-86"/>
<polygon fill="none" stroke="#0f1e32" points="1411,-86 1411,-103 1481,-103 1481,-86 1411,-86"/>
<text text-anchor="start" x="1445" y="-92" font-family="Helvetica,sans-Serif" font-size="10.00" fill="#ffffff">OUT ◉</text>
</g>
<!-- NormTicket&#45;&gt;NormLess -->
<g id="edge8" class="edge"><title>NormTicket:OUT_OUT:e&#45;&gt;NormLess:IN_IN:w</title>
<path fill="none" stroke="#c13930" stroke-width="2" d="M1331,-160C1370.86,-160 1368.88,-114.385 1405.81,-111.177"/>
<ellipse fill="#c13930" stroke="#c13930" stroke-width="2" cx="1408" cy="-111.085" rx="2" ry="2"/>
</g>
<!-- CallNorm -->
<g id="node16" class="node"><title>CallNorm</title>
<polygon fill="#184294" stroke="none" points="890,-90 890,-119 942,-119 942,-90 890,-90"/>
<polygon fill="none" stroke="#091b3e" points="890,-90 890,-119 942,-119 942,-90 890,-90"/>
<text text-anchor="start" x="896" y="-105.3" font-family="Helvetica,sans-Serif" font-size="14.00" fill="#ffffff">∧ And</text>
<text text-anchor="start" x="893.5" y="-96.1" font-family="Helvetica,sans-Serif" font-size="8.00" fill="#ffffff">boolean/and</text>
<polygon fill="#12316f" stroke="none" points="890,-73 890,-90 942,-90 942,-73 890,-73"/>
<polygon fill="none" stroke="#091b3e" points="890,-73 890,-90 942,-90 942,-73 890,-73"/>
<text text-anchor="start" x="893" y="-79" font-family="Helvetica,sans-Serif" font-size="10.00" fill="#ffffff">◎ IN</text>
<polygon fill="#0d2453" stroke="none" points="890,-56 890,-73 942,-73 942,-56 890,-56"/>
<polygon fill="none" stroke="#091b3e" points="890,-56 890,-73 942,-73 942,-56 890,-56"/>
<text text-anchor="start" x="906" y="-62" font-family="Helvetica,sans-Serif" font-size="10.00" fill="#ffffff">OUT ◉</text>
</g>
<!-- NormLess&#45;&gt;CallNorm -->
<g id="edge19" class="edge"><title>NormLess:OUT_OUT:e&#45;&gt;CallNorm:IN_IN:w</title>
<path fill="none" stroke="#96afce" stroke-width="2" d="M1482,-94C1487.13,-94 1484.78,-85.967 1481,-82.5 1455.45,-59.0728 1437.67,-82.2907 1403,-82.5 1226.56,-83.5654 1176.38,-130.86 1006,-85 978.212,-77.5207 977.788,-59.9793 950,-52.5 924.25,-45.5692 909.184,-33.9774 890,-52.5 882.022,-60.2032 877.536,-76.2461 885.03,-80.1365"/>
<ellipse fill="#96afce" stroke="#96afce" stroke-width="2" cx="887.046" cy="-80.5749" rx="2.00001" ry="2.00001"/>
</g>
<!-- #anon:44:29&#45;&gt;NormTicket -->
<g id="edge6" class="edge"><title>#anon:44:29:OUT_OUT:e&#45;&gt;NormTicket:IN_INC:w</title>
<path fill="none" stroke="#2670ee" stroke-width="2" d="M1189,-177C1215.58,-177 1223.23,-177 1247.89,-177"/>
<ellipse fill="#2670ee" stroke="#2670ee" stroke-width="2" cx="1250" cy="-177" rx="2" ry="2"/>
</g>
<!-- CashierBt -->
<g id="node11" class="node"><title>CashierBt</title>
<polygon fill="#46b19c" stroke="none" points="479,-124 479,-153 550,-153 550,-124 479,-124"/>
<polygon fill="none" stroke="#1d4a41" points="479,-124 479,-153 550,-153 550,-124 479,-124"/>
<text text-anchor="start" x="484.5" y="-139.3" font-family="Helvetica,sans-Serif" font-size="14.00" fill="#000000">CashierBt</text>
<text text-anchor="start" x="482.5" y="-130.1" font-family="Helvetica,sans-Serif" font-size="8.00" fill="#000000">keyboard/boolean</text>
<polygon fill="#276357" stroke="none" points="479,-107 479,-124 550,-124 550,-107 479,-107"/>
<polygon fill="none" stroke="#1d4a41" points="479,-107 479,-124 550,-124 550,-107 479,-107"/>
<text text-anchor="start" x="514" y="-113" font-family="Helvetica,sans-Serif" font-size="10.00" fill="#ffffff">OUT ◉</text>
</g>
<!-- CashierBt&#45;&gt;CallPref -->
<g id="edge9" class="edge"><title>CashierBt:OUT_OUT:e&#45;&gt;CallPref:IN_IN:w</title>
<path fill="none" stroke="#6b6b6a" stroke-width="2" d="M551,-115C603.934,-115 562.01,-214.336 609.756,-219.769"/>
<ellipse fill="#6b6b6a" stroke="#6b6b6a" stroke-width="2" cx="612.003" cy="-219.891" rx="2" ry="2"/>
</g>
<!-- CouldCallNorm -->
<g id="node15" class="node"><title>CouldCallNorm</title>
<polygon fill="#184294" stroke="none" points="749,-107 749,-136 801,-136 801,-107 749,-107"/>
<polygon fill="none" stroke="#091b3e" points="749,-107 749,-136 801,-136 801,-107 749,-107"/>
<text text-anchor="start" x="755" y="-122.3" font-family="Helvetica,sans-Serif" font-size="14.00" fill="#ffffff">∧ And</text>
<text text-anchor="start" x="752.5" y="-113.1" font-family="Helvetica,sans-Serif" font-size="8.00" fill="#ffffff">boolean/and</text>
<polygon fill="#12316f" stroke="none" points="749,-90 749,-107 801,-107 801,-90 749,-90"/>
<polygon fill="none" stroke="#091b3e" points="749,-90 749,-107 801,-107 801,-90 749,-90"/>
<text text-anchor="start" x="752" y="-96" font-family="Helvetica,sans-Serif" font-size="10.00" fill="#ffffff">◎ IN</text>
<polygon fill="#0d2453" stroke="none" points="749,-73 749,-90 801,-90 801,-73 749,-73"/>
<polygon fill="none" stroke="#091b3e" points="749,-73 749,-90 801,-90 801,-73 749,-73"/>
<text text-anchor="start" x="765" y="-79" font-family="Helvetica,sans-Serif" font-size="10.00" fill="#ffffff">OUT ◉</text>
</g>
<!-- CashierBt&#45;&gt;CouldCallNorm -->
<g id="edge15" class="edge"><title>CashierBt:OUT_OUT:e&#45;&gt;CouldCallNorm:IN_IN:w</title>
<path fill="none" stroke="#67156a" stroke-width="2" d="M551,-115C571.241,-115 574.066,-103.51 594,-100 659.965,-88.3837 678.748,-97.5859 743.657,-97.9866"/>
<ellipse fill="#67156a" stroke="#67156a" stroke-width="2" cx="746" cy="-97.9938" rx="2" ry="2"/>
</g>
<!-- #anon:61:20 -->
<g id="node19" class="node"><title>#anon:61:20</title>
<polygon fill="#184294" stroke="none" points="733,-224 733,-246 818,-246 818,-224 733,-224"/>
<polygon fill="none" stroke="#091b3e" points="733,-224 733,-246 818,-246 818,-224 733,-224"/>
<text text-anchor="start" x="736.5" y="-231.3" font-family="Helvetica,sans-Serif" font-size="14.00" fill="#ffffff">boolean/filter</text>
<polygon fill="#12316f" stroke="none" points="733,-207 733,-224 818,-224 818,-207 733,-207"/>
<polygon fill="none" stroke="#091b3e" points="733,-207 733,-224 818,-224 818,-207 733,-207"/>
<text text-anchor="start" x="736" y="-213" font-family="Helvetica,sans-Serif" font-size="10.00" fill="#ffffff">◎ IN</text>
<polygon fill="#0d2453" stroke="none" points="733,-190 733,-207 818,-207 818,-190 733,-190"/>
<polygon fill="none" stroke="#091b3e" points="733,-190 733,-207 818,-207 818,-190 733,-190"/>
<text text-anchor="start" x="775" y="-196" font-family="Helvetica,sans-Serif" font-size="10.00" fill="#ffffff">TRUE ◉</text>
</g>
<!-- CallPref&#45;&gt;#anon:61:20 -->
<g id="edge11" class="edge"><title>CallPref:OUT_OUT:e&#45;&gt;#anon:61:20:IN_IN:w</title>
<path fill="none" stroke="#4fcd46" stroke-width="2" d="M668,-203C695.471,-203 702.379,-213.812 727.762,-214.91"/>
<ellipse fill="#4fcd46" stroke="#4fcd46" stroke-width="2" cx="730" cy="-214.958" rx="2" ry="2"/>
</g>
<!-- CallPrefTicket -->
<g id="node13" class="node"><title>CallPrefTicket</title>
<polygon fill="#254878" stroke="none" points="870,-301 870,-330 962,-330 962,-301 870,-301"/>
<polygon fill="none" stroke="#0f1e32" points="870,-301 870,-330 962,-330 962,-301 870,-301"/>
<text text-anchor="start" x="873.5" y="-316.3" font-family="Helvetica,sans-Serif" font-size="14.00" fill="#ffffff">CallPrefTicket</text>
<text text-anchor="start" x="888.5" y="-307.1" font-family="Helvetica,sans-Serif" font-size="8.00" fill="#ffffff">int/accumulator</text>
<polygon fill="#1b365a" stroke="none" points="870,-284 870,-301 962,-301 962,-284 870,-284"/>
<polygon fill="none" stroke="#0f1e32" points="870,-284 870,-301 962,-301 962,-284 870,-284"/>
<text text-anchor="start" x="873" y="-290" font-family="Helvetica,sans-Serif" font-size="10.00" fill="#ffffff">◎ INC</text>
<polygon fill="#142843" stroke="none" points="870,-267 870,-284 962,-284 962,-267 870,-267"/>
<polygon fill="none" stroke="#0f1e32" points="870,-267 870,-284 962,-284 962,-267 870,-267"/>
<text text-anchor="start" x="926" y="-273" font-family="Helvetica,sans-Serif" font-size="10.00" fill="#ffffff">OUT ◉</text>
</g>
<!-- CallPrefTicket&#45;&gt;PrefLess -->
<g id="edge13" class="edge"><title>CallPrefTicket:OUT_OUT:e&#45;&gt;PrefLess:IN_IN:w</title>
<path fill="none" stroke="#959f96" stroke-width="2" d="M963,-275C968.13,-275 965.782,-266.967 962,-263.5 929.24,-233.465 906.434,-262.543 862,-263.5 785.031,-265.158 607.451,-278.263 594,-271 564.768,-255.216 582.232,-224.284 553,-208.5 526.016,-193.929 506.062,-187.199 484,-208.5 476.022,-216.203 471.536,-232.246 479.03,-236.136"/>
<ellipse fill="#959f96" stroke="#959f96" stroke-width="2" cx="481.046" cy="-236.575" rx="2.00001" ry="2.00001"/>
</g>
<!-- CallPrefPrinter -->
<g id="node14" class="node"><title>CallPrefPrinter</title>
<polygon fill="#471ca4" stroke="none" points="1054,-284 1054,-313 1149,-313 1149,-284 1054,-284"/>
<polygon fill="none" stroke="#1d0b45" points="1054,-284 1054,-313 1149,-313 1149,-284 1054,-284"/>
<text text-anchor="start" x="1057.5" y="-299.3" font-family="Helvetica,sans-Serif" font-size="14.00" fill="#ffffff">CallPrefPrinter</text>
<text text-anchor="start" x="1087.5" y="-290.1" font-family="Helvetica,sans-Serif" font-size="8.00" fill="#ffffff">console</text>
<polygon fill="#35157b" stroke="none" points="1054,-267 1054,-284 1149,-284 1149,-267 1054,-267"/>
<polygon fill="none" stroke="#1d0b45" points="1054,-267 1054,-284 1149,-284 1149,-267 1054,-267"/>
<text text-anchor="start" x="1057" y="-273" font-family="Helvetica,sans-Serif" font-size="10.00" fill="#ffffff">◎ IN</text>
</g>
<!-- CallPrefTicket&#45;&gt;CallPrefPrinter -->
<g id="edge14" class="edge"><title>CallPrefTicket:OUT_OUT:e&#45;&gt;CallPrefPrinter:IN_IN:w</title>
<path fill="none" stroke="#243068" stroke-width="2" d="M963,-275C1001.59,-275 1012.26,-275 1048.89,-275"/>
<ellipse fill="#243068" stroke="#243068" stroke-width="2" cx="1051" cy="-275" rx="2" ry="2"/>
</g>
<!-- CouldCallNorm&#45;&gt;CallNorm -->
<g id="edge18" class="edge"><title>CouldCallNorm:OUT_OUT:e&#45;&gt;CallNorm:IN_IN:w</title>
<path fill="none" stroke="#84936c" stroke-width="2" d="M802,-81C839.156,-81 849.534,-81 884.598,-81"/>
<ellipse fill="#84936c" stroke="#84936c" stroke-width="2" cx="887" cy="-81" rx="2" ry="2"/>
</g>
<!-- #anon:71:20 -->
<g id="node21" class="node"><title>#anon:71:20</title>
<polygon fill="#184294" stroke="none" points="1059,-50 1059,-72 1144,-72 1144,-50 1059,-50"/>
<polygon fill="none" stroke="#091b3e" points="1059,-50 1059,-72 1144,-72 1144,-50 1059,-50"/>
<text text-anchor="start" x="1062.5" y="-57.3" font-family="Helvetica,sans-Serif" font-size="14.00" fill="#ffffff">boolean/filter</text>
<polygon fill="#12316f" stroke="none" points="1059,-33 1059,-50 1144,-50 1144,-33 1059,-33"/>
<polygon fill="none" stroke="#091b3e" points="1059,-33 1059,-50 1144,-50 1144,-33 1059,-33"/>
<text text-anchor="start" x="1062" y="-39" font-family="Helvetica,sans-Serif" font-size="10.00" fill="#ffffff">◎ IN</text>
<polygon fill="#0d2453" stroke="none" points="1059,-16 1059,-33 1144,-33 1144,-16 1059,-16"/>
<polygon fill="none" stroke="#091b3e" points="1059,-16 1059,-33 1144,-33 1144,-16 1059,-16"/>
<text text-anchor="start" x="1101" y="-22" font-family="Helvetica,sans-Serif" font-size="10.00" fill="#ffffff">TRUE ◉</text>
</g>
<!-- CallNorm&#45;&gt;#anon:71:20 -->
<g id="edge20" class="edge"><title>CallNorm:OUT_OUT:e&#45;&gt;#anon:71:20:IN_IN:w</title>
<path fill="none" stroke="#dc144a" stroke-width="2" d="M943,-64C993.698,-64 1005.26,-42.2406 1053.82,-41.0506"/>
<ellipse fill="#dc144a" stroke="#dc144a" stroke-width="2" cx="1056" cy="-41.0243" rx="2" ry="2"/>
</g>
<!-- CallNormTicket -->
<g id="node17" class="node"><title>CallNormTicket</title>
<polygon fill="#254878" stroke="none" points="1241,-38 1241,-67 1342,-67 1342,-38 1241,-38"/>
<polygon fill="none" stroke="#0f1e32" points="1241,-38 1241,-67 1342,-67 1342,-38 1241,-38"/>
<text text-anchor="start" x="1244.5" y="-53.3" font-family="Helvetica,sans-Serif" font-size="14.00" fill="#ffffff">CallNormTicket</text>
<text text-anchor="start" x="1264" y="-44.1" font-family="Helvetica,sans-Serif" font-size="8.00" fill="#ffffff">int/accumulator</text>
<polygon fill="#1b365a" stroke="none" points="1241,-21 1241,-38 1342,-38 1342,-21 1241,-21"/>
<polygon fill="none" stroke="#0f1e32" points="1241,-21 1241,-38 1342,-38 1342,-21 1241,-21"/>
<text text-anchor="start" x="1244" y="-27" font-family="Helvetica,sans-Serif" font-size="10.00" fill="#ffffff">◎ INC</text>
<polygon fill="#142843" stroke="none" points="1241,-4 1241,-21 1342,-21 1342,-4 1241,-4"/>
<polygon fill="none" stroke="#0f1e32" points="1241,-4 1241,-21 1342,-21 1342,-4 1241,-4"/>
<text text-anchor="start" x="1306" y="-10" font-family="Helvetica,sans-Serif" font-size="10.00" fill="#ffffff">OUT ◉</text>
</g>
<!-- CallNormTicket&#45;&gt;NormLess -->
<g id="edge22" class="edge"><title>CallNormTicket:OUT_OUT:e&#45;&gt;NormLess:IN_IN:w</title>
<path fill="none" stroke="#5edef4" stroke-width="2" d="M1343,-12C1394.68,-12 1358.95,-105.66 1405.85,-110.782"/>
<ellipse fill="#5edef4" stroke="#5edef4" stroke-width="2" cx="1408" cy="-110.895" rx="2" ry="2"/>
</g>
<!-- CallNormPrinter -->
<g id="node18" class="node"><title>CallNormPrinter</title>
<polygon fill="#471ca4" stroke="none" points="1394,-21 1394,-50 1498,-50 1498,-21 1394,-21"/>
<polygon fill="none" stroke="#1d0b45" points="1394,-21 1394,-50 1498,-50 1498,-21 1394,-21"/>
<text text-anchor="start" x="1397.5" y="-36.3" font-family="Helvetica,sans-Serif" font-size="14.00" fill="#ffffff">CallNormPrinter</text>
<text text-anchor="start" x="1432" y="-27.1" font-family="Helvetica,sans-Serif" font-size="8.00" fill="#ffffff">console</text>
<polygon fill="#35157b" stroke="none" points="1394,-4 1394,-21 1498,-21 1498,-4 1394,-4"/>
<polygon fill="none" stroke="#1d0b45" points="1394,-4 1394,-21 1498,-21 1498,-4 1394,-4"/>
<text text-anchor="start" x="1397" y="-10" font-family="Helvetica,sans-Serif" font-size="10.00" fill="#ffffff">◎ IN</text>
</g>
<!-- CallNormTicket&#45;&gt;CallNormPrinter -->
<g id="edge23" class="edge"><title>CallNormTicket:OUT_OUT:e&#45;&gt;CallNormPrinter:IN_IN:w</title>
<path fill="none" stroke="#0d4b18" stroke-width="2" d="M1343,-12C1363.66,-12 1369.91,-12 1388.55,-12"/>
<ellipse fill="#0d4b18" stroke="#0d4b18" stroke-width="2" cx="1391" cy="-12" rx="2" ry="2"/>
</g>
<!-- #anon:61:20&#45;&gt;CallPrefTicket -->
<g id="edge12" class="edge"><title>#anon:61:20:OUT_TRUE:e&#45;&gt;CallPrefTicket:IN_INC:w</title>
<path fill="none" stroke="#f80654" stroke-width="2" d="M819,-198C864.842,-198 824.38,-286.217 864.828,-291.73"/>
<ellipse fill="#f80654" stroke="#f80654" stroke-width="2" cx="867.004" cy="-291.871" rx="2" ry="2"/>
</g>
<!-- #anon:66:20&#45;&gt;CouldCallNorm -->
<g id="edge17" class="edge"><title>#anon:66:20:OUT_OUT:e&#45;&gt;CouldCallNorm:IN_IN:w</title>
<path fill="none" stroke="#39f496" stroke-width="2" d="M681,-121C711.008,-121 716.078,-100.106 743.748,-98.1469"/>
<ellipse fill="#39f496" stroke="#39f496" stroke-width="2" cx="746.001" cy="-98.0691" rx="2" ry="2"/>
</g>
<!-- #anon:71:20&#45;&gt;CallNormTicket -->
<g id="edge21" class="edge"><title>#anon:71:20:OUT_TRUE:e&#45;&gt;CallNormTicket:IN_INC:w</title>
<path fill="none" stroke="#9a35c2" stroke-width="2" d="M1145,-24C1185.79,-24 1196.95,-28.6546 1235.66,-28.9819"/>
<ellipse fill="#9a35c2" stroke="#9a35c2" stroke-width="2" cx="1238" cy="-28.9916" rx="2" ry="2"/>
</g>
</g>
</svg>
