<?xml version="1.0" encoding="UTF-8" standalone="no"?>
<!DOCTYPE svg PUBLIC "-//W3C//DTD SVG 1.1//EN"
 "http://www.w3.org/Graphics/SVG/1.1/DTD/svg11.dtd">
<!-- Generated by graphviz version 2.36.0 (20140111.2315)
 -->
<!-- Title: fbp Pages: 1 -->
<svg width="170pt" height="62pt"
 viewBox="0.00 0.00 170.00 62.00" xmlns="http://www.w3.org/2000/svg" xmlns:xlink="http://www.w3.org/1999/xlink">
<g id="graph0" class="graph" transform="scale(1 1) rotate(0) translate(4 58)">
<title>fbp</title>
<polygon fill="white" stroke="none" points="-4,4 -4,-58 166,-58 166,4 -4,4"/>
<!-- dev -->
<g id="node1" class="node"><title>dev</title>
<polygon fill="#e7625a" stroke="none" points="8,-21 8,-50 64,-50 64,-21 8,-21"/>
<polygon fill="none" stroke="#602825" points="8,-21 8,-50 64,-50 64,-21 8,-21"/>
<text text-anchor="start" x="25" y="-36.3" font-family="Helvetica,sans-Serif" font-size="14.00" fill="#000000">dev</text>
<text text-anchor="start" x="11.5" y="-27.1" font-family="Helvetica,sans-Serif" font-size="8.00" fill="#000000">udev/boolean</text>
<polygon fill="#813632" stroke="none" points="8,-4 8,-21 64,-21 64,-4 8,-4"/>
<polygon fill="none" stroke="#602825" points="8,-4 8,-21 64,-21 64,-4 8,-4"/>
<text text-anchor="start" x="28" y="-10" font-family="Helvetica,sans-Serif" font-size="10.00" fill="#ffffff">OUT ◉</text>
</g>
<!-- state -->
<g id="node2" class="node"><title>state</title>
<polygon fill="#471ca4" stroke="none" points="117,-21 117,-50 154,-50 154,-21 117,-21"/>
<polygon fill="none" stroke="#1d0b45" points="117,-21 117,-50 154,-50 154,-21 117,-21"/>
<text text-anchor="start" x="120.5" y="-36.3" font-family="Helvetica,sans-Serif" font-size="14.00" fill="#ffffff">state</text>
<text text-anchor="start" x="121.5" y="-27.1" font-family="Helvetica,sans-Serif" font-size="8.00" fill="#ffffff">console</text>
<polygon fill="#35157b" stroke="none" points="117,-4 117,-21 154,-21 154,-4 117,-4"/>
<polygon fill="none" stroke="#1d0b45" points="117,-4 117,-21 154,-21 154,-4 117,-4"/>
<text text-anchor="start" x="120" y="-10" font-family="Helvetica,sans-Serif" font-size="10.00" fill="#ffffff">◎ IN</text>
</g>
<!-- dev&#45;&gt;state -->
<g id="edge1" class="edge"><title>dev:OUT_OUT:e&#45;&gt;state:IN_IN:w</title>
<path fill="none" stroke="#e08b84" stroke-width="2" d="M65,-12C86.25,-12 92.5586,-12 111.941,-12"/>
<ellipse fill="#e08b84" stroke="#e08b84" stroke-width="2" cx="114" cy="-12" rx="2" ry="2"/>
</g>
</g>
</svg>
