<?xml version="1.0" encoding="UTF-8" standalone="no"?>
<!DOCTYPE svg PUBLIC "-//W3C//DTD SVG 1.1//EN"
 "http://www.w3.org/Graphics/SVG/1.1/DTD/svg11.dtd">
<!-- Generated by graphviz version 2.36.0 (20140111.2315)
 -->
<!-- Title: fbp Pages: 1 -->
<svg width="250pt" height="62pt"
 viewBox="0.00 0.00 250.00 62.00" xmlns="http://www.w3.org/2000/svg" xmlns:xlink="http://www.w3.org/1999/xlink">
<g id="graph0" class="graph" transform="scale(1 1) rotate(0) translate(4 58)">
<title>fbp</title>
<polygon fill="white" stroke="none" points="-4,4 -4,-58 246,-58 246,4 -4,4"/>
<!-- keyboard -->
<g id="node1" class="node"><title>keyboard</title>
<polygon fill="#46b19c" stroke="none" points="9,-21 9,-50 80,-50 80,-21 9,-21"/>
<polygon fill="none" stroke="#1d4a41" points="9,-21 9,-50 80,-50 80,-21 9,-21"/>
<text text-anchor="start" x="16.5" y="-36.3" font-family="Helvetica,sans-Serif" font-size="14.00" fill="#000000">keyboard</text>
<text text-anchor="start" x="12.5" y="-27.1" font-family="Helvetica,sans-Serif" font-size="8.00" fill="#000000">keyboard/boolean</text>
<polygon fill="#276357" stroke="none" points="9,-4 9,-21 80,-21 80,-4 9,-4"/>
<polygon fill="none" stroke="#1d4a41" points="9,-4 9,-21 80,-21 80,-4 9,-4"/>
<text text-anchor="start" x="44" y="-10" font-family="Helvetica,sans-Serif" font-size="10.00" fill="#ffffff">OUT ◉</text>
</g>
<!-- socket_boolean -->
<g id="node2" class="node"><title>socket_boolean</title>
<polygon fill="#f5712e" stroke="none" points="132,-21 132,-50 234,-50 234,-21 132,-21"/>
<polygon fill="none" stroke="#662f12" points="132,-21 132,-50 234,-50 234,-21 132,-21"/>
<text text-anchor="start" x="135.5" y="-36.3" font-family="Helvetica,sans-Serif" font-size="14.00" fill="#000000">socket_boolean</text>
<text text-anchor="start" x="136" y="-27.1" font-family="Helvetica,sans-Serif" font-size="8.00" fill="#000000">unix&#45;socket/boolean&#45;writer</text>
<polygon fill="#b75422" stroke="none" points="132,-4 132,-21 234,-21 234,-4 132,-4"/>
<polygon fill="none" stroke="#662f12" points="132,-4 132,-21 234,-21 234,-4 132,-4"/>
<text text-anchor="start" x="135" y="-10" font-family="Helvetica,sans-Serif" font-size="10.00" fill="#ffffff">◎ IN</text>
</g>
<!-- keyboard&#45;&gt;socket_boolean -->
<g id="edge1" class="edge"><title>keyboard:OUT:e&#45;&gt;socket_boolean:IN:w</title>
<path fill="none" stroke="#e41fbe" stroke-width="2" d="M81,-12C101.66,-12 107.914,-12 126.548,-12"/>
<ellipse fill="#e41fbe" stroke="#e41fbe" stroke-width="2" cx="129" cy="-12" rx="2" ry="2"/>
</g>
</g>
</svg>
