<?xml version="1.0" encoding="UTF-8" standalone="no"?>
<!DOCTYPE svg PUBLIC "-//W3C//DTD SVG 1.1//EN"
 "http://www.w3.org/Graphics/SVG/1.1/DTD/svg11.dtd">
<!-- Generated by graphviz version 2.36.0 (20140111.2315)
 -->
<!-- Title: fbp Pages: 1 -->
<svg width="220pt" height="62pt"
 viewBox="0.00 0.00 220.00 62.00" xmlns="http://www.w3.org/2000/svg" xmlns:xlink="http://www.w3.org/1999/xlink">
<g id="graph0" class="graph" transform="scale(1 1) rotate(0) translate(4 58)">
<title>fbp</title>
<polygon fill="white" stroke="none" points="-4,4 -4,-58 216,-58 216,4 -4,4"/>
<!-- socket_rgb -->
<g id="node1" class="node"><title>socket_rgb</title>
<polygon fill="#f5712e" stroke="none" points="9,-21 9,-50 98,-50 98,-21 9,-21"/>
<polygon fill="none" stroke="#662f12" points="9,-21 9,-50 98,-50 98,-21 9,-21"/>
<text text-anchor="start" x="20" y="-36.3" font-family="Helvetica,sans-Serif" font-size="14.00" fill="#000000">socket_rgb</text>
<text text-anchor="start" x="12.5" y="-27.1" font-family="Helvetica,sans-Serif" font-size="8.00" fill="#000000">unix&#45;socket/rgb&#45;reader</text>
<polygon fill="#893f19" stroke="none" points="9,-4 9,-21 98,-21 98,-4 9,-4"/>
<polygon fill="none" stroke="#662f12" points="9,-4 9,-21 98,-21 98,-4 9,-4"/>
<text text-anchor="start" x="62" y="-10" font-family="Helvetica,sans-Serif" font-size="10.00" fill="#ffffff">OUT ◉</text>
</g>
<!-- console -->
<g id="node2" class="node"><title>console</title>
<polygon fill="#471ca4" stroke="none" points="150,-21 150,-50 204,-50 204,-21 150,-21"/>
<polygon fill="none" stroke="#1d0b45" points="150,-21 150,-50 204,-50 204,-21 150,-21"/>
<text text-anchor="start" x="153.5" y="-36.3" font-family="Helvetica,sans-Serif" font-size="14.00" fill="#ffffff">console</text>
<text text-anchor="start" x="163" y="-27.1" font-family="Helvetica,sans-Serif" font-size="8.00" fill="#ffffff">console</text>
<polygon fill="#35157b" stroke="none" points="150,-4 150,-21 204,-21 204,-4 150,-4"/>
<polygon fill="none" stroke="#1d0b45" points="150,-4 150,-21 204,-21 204,-4 150,-4"/>
<text text-anchor="start" x="153" y="-10" font-family="Helvetica,sans-Serif" font-size="10.00" fill="#ffffff">◎ IN</text>
</g>
<!-- socket_rgb&#45;&gt;console -->
<g id="edge1" class="edge"><title>socket_rgb:OUT:e&#45;&gt;console:IN:w</title>
<path fill="none" stroke="#8d2f12" stroke-width="2" d="M99,-12C119.66,-12 125.914,-12 144.548,-12"/>
<ellipse fill="#8d2f12" stroke="#8d2f12" stroke-width="2" cx="147" cy="-12" rx="2" ry="2"/>
</g>
</g>
</svg>
