<?xml version="1.0" encoding="UTF-8" standalone="no"?>
<!DOCTYPE svg PUBLIC "-//W3C//DTD SVG 1.1//EN"
 "http://www.w3.org/Graphics/SVG/1.1/DTD/svg11.dtd">
<!-- Generated by graphviz version 2.36.0 (20140111.2315)
 -->
<!-- Title: fbp Pages: 1 -->
<svg width="1028pt" height="445pt"
 viewBox="0.00 0.00 1028.00 445.08" xmlns="http://www.w3.org/2000/svg" xmlns:xlink="http://www.w3.org/1999/xlink">
<g id="graph0" class="graph" transform="scale(1 1) rotate(0) translate(4 441.077)">
<title>fbp</title>
<polygon fill="white" stroke="none" points="-4,4 -4,-441.077 1024,-441.077 1024,4 -4,4"/>
<!-- #anon:30:1 -->
<g id="node1" class="node"><title>#anon:30:1</title>
<polygon fill="#e8ea7a" stroke="none" points="9,-316.077 9,-338.077 86,-338.077 86,-316.077 9,-316.077"/>
<polygon fill="none" stroke="#616233" points="9,-316.077 9,-338.077 86,-338.077 86,-316.077 9,-316.077"/>
<text text-anchor="start" x="12.5" y="-323.377" font-family="Helvetica,sans-Serif" font-size="14.00" fill="#000000">constant/int</text>
<polygon fill="#828344" stroke="none" points="9,-299.077 9,-316.077 86,-316.077 86,-299.077 9,-299.077"/>
<polygon fill="none" stroke="#616233" points="9,-299.077 9,-316.077 86,-316.077 86,-299.077 9,-299.077"/>
<text text-anchor="start" x="50" y="-305.077" font-family="Helvetica,sans-Serif" font-size="10.00" fill="#ffffff">OUT ◉</text>
</g>
<!-- common_eq -->
<g id="node2" class="node"><title>common_eq</title>
<polygon fill="#254878" stroke="none" points="148,-316.077 148,-345.077 231,-345.077 231,-316.077 148,-316.077"/>
<polygon fill="none" stroke="#0f1e32" points="148,-316.077 148,-345.077 231,-345.077 231,-316.077 148,-316.077"/>
<text text-anchor="start" x="151.5" y="-331.377" font-family="Helvetica,sans-Serif" font-size="14.00" fill="#ffffff">common_eq</text>
<text text-anchor="start" x="174" y="-322.177" font-family="Helvetica,sans-Serif" font-size="8.00" fill="#ffffff">int/equal</text>
<polygon fill="#1b365a" stroke="none" points="148,-299.077 148,-316.077 231,-316.077 231,-299.077 148,-299.077"/>
<polygon fill="none" stroke="#0f1e32" points="148,-299.077 148,-316.077 231,-316.077 231,-299.077 148,-299.077"/>
<text text-anchor="start" x="151" y="-305.077" font-family="Helvetica,sans-Serif" font-size="10.00" fill="#ffffff">◎ IN</text>
<polygon fill="#142843" stroke="none" points="148,-282.077 148,-299.077 231,-299.077 231,-282.077 148,-282.077"/>
<polygon fill="none" stroke="#0f1e32" points="148,-282.077 148,-299.077 231,-299.077 231,-282.077 148,-282.077"/>
<text text-anchor="start" x="195" y="-288.077" font-family="Helvetica,sans-Serif" font-size="10.00" fill="#ffffff">OUT ◉</text>
</g>
<!-- #anon:30:1&#45;&gt;common_eq -->
<g id="edge1" class="edge"><title>#anon:30:1:OUT_OUT:e&#45;&gt;common_eq:IN_IN:w</title>
<path fill="none" stroke="#86283e" stroke-width="2" d="M87,-307.077C112.208,-307.077 119.544,-307.077 142.798,-307.077"/>
<ellipse fill="#86283e" stroke="#86283e" stroke-width="2" cx="145" cy="-307.077" rx="2" ry="2"/>
</g>
<!-- #anon:34:45 -->
<g id="node8" class="node"><title>#anon:34:45</title>
<polygon fill="#184294" stroke="none" points="293,-284.077 293,-306.077 378,-306.077 378,-284.077 293,-284.077"/>
<polygon fill="none" stroke="#091b3e" points="293,-284.077 293,-306.077 378,-306.077 378,-284.077 293,-284.077"/>
<text text-anchor="start" x="296.5" y="-291.377" font-family="Helvetica,sans-Serif" font-size="14.00" fill="#ffffff">boolean/filter</text>
<polygon fill="#12316f" stroke="none" points="293,-267.077 293,-284.077 378,-284.077 378,-267.077 293,-267.077"/>
<polygon fill="none" stroke="#091b3e" points="293,-267.077 293,-284.077 378,-284.077 378,-267.077 293,-267.077"/>
<text text-anchor="start" x="296" y="-273.077" font-family="Helvetica,sans-Serif" font-size="10.00" fill="#ffffff">◎ IN</text>
<polygon fill="#0d2453" stroke="none" points="293,-250.077 293,-267.077 378,-267.077 378,-250.077 293,-250.077"/>
<polygon fill="none" stroke="#091b3e" points="293,-250.077 293,-267.077 378,-267.077 378,-250.077 293,-250.077"/>
<text text-anchor="start" x="335" y="-256.077" font-family="Helvetica,sans-Serif" font-size="10.00" fill="#ffffff">TRUE ◉</text>
</g>
<!-- common_eq&#45;&gt;#anon:34:45 -->
<g id="edge6" class="edge"><title>common_eq:OUT_OUT:e&#45;&gt;#anon:34:45:IN_IN:w</title>
<path fill="none" stroke="#3e7c5b" stroke-width="2" d="M232,-290.077C258.092,-290.077 263.944,-276.561 287.98,-275.189"/>
<ellipse fill="#3e7c5b" stroke="#3e7c5b" stroke-width="2" cx="290.001" cy="-275.132" rx="2" ry="2"/>
</g>
<!-- #anon:31:1 -->
<g id="node3" class="node"><title>#anon:31:1</title>
<polygon fill="#e8ea7a" stroke="none" points="444,-55.0767 444,-77.0767 521,-77.0767 521,-55.0767 444,-55.0767"/>
<polygon fill="none" stroke="#616233" points="444,-55.0767 444,-77.0767 521,-77.0767 521,-55.0767 444,-55.0767"/>
<text text-anchor="start" x="447.5" y="-62.3767" font-family="Helvetica,sans-Serif" font-size="14.00" fill="#000000">constant/int</text>
<polygon fill="#828344" stroke="none" points="444,-38.0767 444,-55.0767 521,-55.0767 521,-38.0767 444,-38.0767"/>
<polygon fill="none" stroke="#616233" points="444,-38.0767 444,-55.0767 521,-55.0767 521,-38.0767 444,-38.0767"/>
<text text-anchor="start" x="485" y="-44.0767" font-family="Helvetica,sans-Serif" font-size="10.00" fill="#ffffff">OUT ◉</text>
</g>
<!-- preferential_eq -->
<g id="node4" class="node"><title>preferential_eq</title>
<polygon fill="#254878" stroke="none" points="586,-55.0767 586,-84.0767 684,-84.0767 684,-55.0767 586,-55.0767"/>
<polygon fill="none" stroke="#0f1e32" points="586,-55.0767 586,-84.0767 684,-84.0767 684,-55.0767 586,-55.0767"/>
<text text-anchor="start" x="589.5" y="-70.3767" font-family="Helvetica,sans-Serif" font-size="14.00" fill="#ffffff">preferential_eq</text>
<text text-anchor="start" x="619.5" y="-61.1767" font-family="Helvetica,sans-Serif" font-size="8.00" fill="#ffffff">int/equal</text>
<polygon fill="#1b365a" stroke="none" points="586,-38.0767 586,-55.0767 684,-55.0767 684,-38.0767 586,-38.0767"/>
<polygon fill="none" stroke="#0f1e32" points="586,-38.0767 586,-55.0767 684,-55.0767 684,-38.0767 586,-38.0767"/>
<text text-anchor="start" x="589" y="-44.0767" font-family="Helvetica,sans-Serif" font-size="10.00" fill="#ffffff">◎ IN</text>
<polygon fill="#142843" stroke="none" points="586,-21.0767 586,-38.0767 684,-38.0767 684,-21.0767 586,-21.0767"/>
<polygon fill="none" stroke="#0f1e32" points="586,-21.0767 586,-38.0767 684,-38.0767 684,-21.0767 586,-21.0767"/>
<text text-anchor="start" x="648" y="-27.0767" font-family="Helvetica,sans-Serif" font-size="10.00" fill="#ffffff">OUT ◉</text>
</g>
<!-- #anon:31:1&#45;&gt;preferential_eq -->
<g id="edge2" class="edge"><title>#anon:31:1:OUT_OUT:e&#45;&gt;preferential_eq:IN_IN:w</title>
<path fill="none" stroke="#817ab6" stroke-width="2" d="M522,-46.0767C548.578,-46.0767 556.235,-46.0767 580.891,-46.0767"/>
<ellipse fill="#817ab6" stroke="#817ab6" stroke-width="2" cx="583" cy="-46.0767" rx="2" ry="2"/>
</g>
<!-- #anon:38:57 -->
<g id="node15" class="node"><title>#anon:38:57</title>
<polygon fill="#184294" stroke="none" points="755,-85.0767 755,-107.077 840,-107.077 840,-85.0767 755,-85.0767"/>
<polygon fill="none" stroke="#091b3e" points="755,-85.0767 755,-107.077 840,-107.077 840,-85.0767 755,-85.0767"/>
<text text-anchor="start" x="758.5" y="-92.3767" font-family="Helvetica,sans-Serif" font-size="14.00" fill="#ffffff">boolean/filter</text>
<polygon fill="#12316f" stroke="none" points="755,-68.0767 755,-85.0767 840,-85.0767 840,-68.0767 755,-68.0767"/>
<polygon fill="none" stroke="#091b3e" points="755,-68.0767 755,-85.0767 840,-85.0767 840,-68.0767 755,-68.0767"/>
<text text-anchor="start" x="758" y="-74.0767" font-family="Helvetica,sans-Serif" font-size="10.00" fill="#ffffff">◎ IN</text>
<polygon fill="#0d2453" stroke="none" points="755,-51.0767 755,-68.0767 840,-68.0767 840,-51.0767 755,-51.0767"/>
<polygon fill="none" stroke="#091b3e" points="755,-51.0767 755,-68.0767 840,-68.0767 840,-51.0767 755,-51.0767"/>
<text text-anchor="start" x="797" y="-57.0767" font-family="Helvetica,sans-Serif" font-size="10.00" fill="#ffffff">TRUE ◉</text>
</g>
<!-- preferential_eq&#45;&gt;#anon:38:57 -->
<g id="edge14" class="edge"><title>preferential_eq:OUT_OUT:e&#45;&gt;#anon:38:57:IN_IN:w</title>
<path fill="none" stroke="#6f6cdd" stroke-width="2" d="M685,-29.0767C720.656,-29.0767 717.237,-72.4765 749.84,-75.8671"/>
<ellipse fill="#6f6cdd" stroke="#6f6cdd" stroke-width="2" cx="752.003" cy="-75.976" rx="2" ry="2"/>
</g>
<!-- common_btn -->
<g id="node5" class="node"><title>common_btn</title>
<polygon fill="#bdce5e" stroke="none" points="146,-404.077 146,-433.077 233,-433.077 233,-404.077 146,-404.077"/>
<polygon fill="none" stroke="#4e5627" points="146,-404.077 146,-433.077 233,-433.077 233,-404.077 146,-404.077"/>
<text text-anchor="start" x="149.5" y="-419.377" font-family="Helvetica,sans-Serif" font-size="14.00" fill="#000000">common_btn</text>
<text text-anchor="start" x="163" y="-410.177" font-family="Helvetica,sans-Serif" font-size="8.00" fill="#000000">gtk/pushbutton</text>
<polygon fill="#697334" stroke="none" points="146,-387.077 146,-404.077 233,-404.077 233,-387.077 146,-387.077"/>
<polygon fill="none" stroke="#4e5627" points="146,-387.077 146,-404.077 233,-404.077 233,-387.077 146,-387.077"/>
<text text-anchor="start" x="197" y="-393.077" font-family="Helvetica,sans-Serif" font-size="10.00" fill="#ffffff">OUT ◉</text>
</g>
<!-- #anon:33:38 -->
<g id="node6" class="node"><title>#anon:33:38</title>
<polygon fill="#184294" stroke="none" points="293,-404.077 293,-426.077 378,-426.077 378,-404.077 293,-404.077"/>
<polygon fill="none" stroke="#091b3e" points="293,-404.077 293,-426.077 378,-426.077 378,-404.077 293,-404.077"/>
<text text-anchor="start" x="296.5" y="-411.377" font-family="Helvetica,sans-Serif" font-size="14.00" fill="#ffffff">boolean/filter</text>
<polygon fill="#12316f" stroke="none" points="293,-387.077 293,-404.077 378,-404.077 378,-387.077 293,-387.077"/>
<polygon fill="none" stroke="#091b3e" points="293,-387.077 293,-404.077 378,-404.077 378,-387.077 293,-387.077"/>
<text text-anchor="start" x="296" y="-393.077" font-family="Helvetica,sans-Serif" font-size="10.00" fill="#ffffff">◎ IN</text>
<polygon fill="#0d2453" stroke="none" points="293,-370.077 293,-387.077 378,-387.077 378,-370.077 293,-370.077"/>
<polygon fill="none" stroke="#091b3e" points="293,-370.077 293,-387.077 378,-387.077 378,-370.077 293,-370.077"/>
<text text-anchor="start" x="335" y="-376.077" font-family="Helvetica,sans-Serif" font-size="10.00" fill="#ffffff">TRUE ◉</text>
</g>
<!-- common_btn&#45;&gt;#anon:33:38 -->
<g id="edge3" class="edge"><title>common_btn:OUT_OUT:e&#45;&gt;#anon:33:38:IN_IN:w</title>
<path fill="none" stroke="#93c4f4" stroke-width="2" d="M234,-395.077C258.368,-395.077 265.46,-395.077 287.938,-395.077"/>
<ellipse fill="#93c4f4" stroke="#93c4f4" stroke-width="2" cx="290" cy="-395.077" rx="2" ry="2"/>
</g>
<!-- common_acc -->
<g id="node7" class="node"><title>common_acc</title>
<polygon fill="#254878" stroke="none" points="438,-364.077 438,-393.077 527,-393.077 527,-364.077 438,-364.077"/>
<polygon fill="none" stroke="#0f1e32" points="438,-364.077 438,-393.077 527,-393.077 527,-364.077 438,-364.077"/>
<text text-anchor="start" x="441.5" y="-379.377" font-family="Helvetica,sans-Serif" font-size="14.00" fill="#ffffff">common_acc</text>
<text text-anchor="start" x="455" y="-370.177" font-family="Helvetica,sans-Serif" font-size="8.00" fill="#ffffff">int/accumulator</text>
<polygon fill="#1b365a" stroke="none" points="438,-347.077 438,-364.077 527,-364.077 527,-347.077 438,-347.077"/>
<polygon fill="none" stroke="#0f1e32" points="438,-347.077 438,-364.077 527,-364.077 527,-347.077 438,-347.077"/>
<text text-anchor="start" x="441" y="-353.077" font-family="Helvetica,sans-Serif" font-size="10.00" fill="#ffffff">◎ INC</text>
<polygon fill="#142843" stroke="none" points="438,-330.077 438,-347.077 527,-347.077 527,-330.077 438,-330.077"/>
<polygon fill="none" stroke="#0f1e32" points="438,-330.077 438,-347.077 527,-347.077 527,-330.077 438,-330.077"/>
<text text-anchor="start" x="491" y="-336.077" font-family="Helvetica,sans-Serif" font-size="10.00" fill="#ffffff">OUT ◉</text>
</g>
<!-- #anon:33:38&#45;&gt;common_acc -->
<g id="edge4" class="edge"><title>#anon:33:38:OUT_TRUE:e&#45;&gt;common_acc:IN_INC:w</title>
<path fill="none" stroke="#320ada" stroke-width="2" d="M379,-378.077C405.322,-378.077 408.947,-357.353 432.964,-355.249"/>
<ellipse fill="#320ada" stroke="#320ada" stroke-width="2" cx="435.002" cy="-355.162" rx="2" ry="2"/>
</g>
<!-- common_acc&#45;&gt;common_eq -->
<g id="edge5" class="edge"><title>common_acc:OUT_OUT:e&#45;&gt;common_eq:IN_IN:w</title>
<path fill="none" stroke="#e4358a" stroke-width="2" d="M528,-338.077C533.13,-338.077 530.728,-330.102 527,-326.577 507.373,-308.017 309.067,-329.142 284,-319.077 259.031,-309.05 264.121,-288.217 239,-278.577 201.24,-264.087 177.096,-250.484 148,-278.577 140.022,-286.28 135.536,-302.323 143.03,-306.213"/>
<ellipse fill="#e4358a" stroke="#e4358a" stroke-width="2" cx="145.046" cy="-306.652" rx="2.00001" ry="2.00001"/>
</g>
<!-- #anon:35:22 -->
<g id="node9" class="node"><title>#anon:35:22</title>
<polygon fill="#254878" stroke="none" points="610,-347.077 610,-369.077 661,-369.077 661,-347.077 610,-347.077"/>
<polygon fill="none" stroke="#0f1e32" points="610,-347.077 610,-369.077 661,-369.077 661,-347.077 610,-347.077"/>
<text text-anchor="start" x="613.5" y="-354.377" font-family="Helvetica,sans-Serif" font-size="14.00" fill="#ffffff">int/filter</text>
<polygon fill="#1b365a" stroke="none" points="610,-330.077 610,-347.077 661,-347.077 661,-330.077 610,-330.077"/>
<polygon fill="none" stroke="#0f1e32" points="610,-330.077 610,-347.077 661,-347.077 661,-330.077 610,-330.077"/>
<text text-anchor="start" x="613" y="-336.077" font-family="Helvetica,sans-Serif" font-size="10.00" fill="#ffffff">◎ IN</text>
<polygon fill="#142843" stroke="none" points="610,-313.077 610,-330.077 661,-330.077 661,-313.077 610,-313.077"/>
<polygon fill="none" stroke="#0f1e32" points="610,-313.077 610,-330.077 661,-330.077 661,-313.077 610,-313.077"/>
<text text-anchor="start" x="625" y="-319.077" font-family="Helvetica,sans-Serif" font-size="10.00" fill="#ffffff">OUT ◉</text>
</g>
<!-- common_acc&#45;&gt;#anon:35:22 -->
<g id="edge8" class="edge"><title>common_acc:OUT_OUT:e&#45;&gt;#anon:35:22:IN_IN:w</title>
<path fill="none" stroke="#347184" stroke-width="2" d="M528,-338.077C562.594,-338.077 572.256,-338.077 604.902,-338.077"/>
<ellipse fill="#347184" stroke="#347184" stroke-width="2" cx="607" cy="-338.077" rx="2" ry="2"/>
</g>
<!-- #anon:34:45&#45;&gt;common_acc -->
<g id="edge7" class="edge"><title>#anon:34:45:OUT_TRUE:e&#45;&gt;common_acc:IN_INC:w</title>
<path fill="none" stroke="#a8244e" stroke-width="2" d="M379,-258.077C427.759,-258.077 389.178,-349.476 432.819,-354.832"/>
<ellipse fill="#a8244e" stroke="#a8244e" stroke-width="2" cx="435.003" cy="-354.96" rx="2" ry="2"/>
</g>
<!-- attendee -->
<g id="node10" class="node"><title>attendee</title>
<polygon fill="#ae8340" stroke="none" points="736,-282.077 736,-311.077 858,-311.077 858,-282.077 736,-282.077"/>
<polygon fill="none" stroke="#48361b" points="736,-282.077 736,-311.077 858,-311.077 858,-282.077 736,-282.077"/>
<text text-anchor="start" x="770.5" y="-297.377" font-family="Helvetica,sans-Serif" font-size="14.00" fill="#000000">attendee</text>
<text text-anchor="start" x="775.5" y="-288.177" font-family="Helvetica,sans-Serif" font-size="8.00" fill="#000000">MyAttendee</text>
<polygon fill="#826230" stroke="none" points="736,-265.077 736,-282.077 858,-282.077 858,-265.077 736,-265.077"/>
<polygon fill="none" stroke="#48361b" points="736,-265.077 736,-282.077 858,-282.077 858,-265.077 736,-265.077"/>
<text text-anchor="start" x="739" y="-271.077" font-family="Helvetica,sans-Serif" font-size="10.00" fill="#ffffff">◎ IN_COMMON</text>
<polygon fill="#826230" stroke="none" points="736,-248.077 736,-265.077 858,-265.077 858,-248.077 736,-248.077"/>
<polygon fill="none" stroke="#48361b" points="736,-248.077 736,-265.077 858,-265.077 858,-248.077 736,-248.077"/>
<text text-anchor="start" x="739" y="-254.077" font-family="Helvetica,sans-Serif" font-size="10.00" fill="#ffffff">◎ IN_PREFERENTIAL</text>
<polygon fill="#826230" stroke="none" points="736,-231.077 736,-248.077 858,-248.077 858,-231.077 736,-231.077"/>
<polygon fill="none" stroke="#48361b" points="736,-231.077 736,-248.077 858,-248.077 858,-231.077 736,-231.077"/>
<text text-anchor="start" x="739" y="-237.077" font-family="Helvetica,sans-Serif" font-size="10.00" fill="#ffffff">◎ IN_ATTENDEE</text>
<polygon fill="#614924" stroke="none" points="736,-214.077 736,-231.077 858,-231.077 858,-214.077 736,-214.077"/>
<polygon fill="none" stroke="#48361b" points="736,-214.077 736,-231.077 858,-231.077 858,-214.077 736,-214.077"/>
<text text-anchor="start" x="770" y="-220.077" font-family="Helvetica,sans-Serif" font-size="10.00" fill="#ffffff">OUT_COMMON ◉</text>
<polygon fill="#614924" stroke="none" points="736,-197.077 736,-214.077 858,-214.077 858,-197.077 736,-197.077"/>
<polygon fill="none" stroke="#48361b" points="736,-197.077 736,-214.077 858,-214.077 858,-197.077 736,-197.077"/>
<text text-anchor="start" x="740" y="-203.077" font-family="Helvetica,sans-Serif" font-size="10.00" fill="#ffffff">OUT_PREFERENTIAL ◉</text>
<polygon fill="#614924" stroke="none" points="736,-180.077 736,-197.077 858,-197.077 858,-180.077 736,-180.077"/>
<polygon fill="none" stroke="#48361b" points="736,-180.077 736,-197.077 858,-197.077 858,-180.077 736,-180.077"/>
<text text-anchor="start" x="763" y="-186.077" font-family="Helvetica,sans-Serif" font-size="10.00" fill="#ffffff">OUT_ATTENDEE ◉</text>
</g>
<!-- #anon:35:22&#45;&gt;attendee -->
<g id="edge9" class="edge"><title>#anon:35:22:OUT_OUT:e&#45;&gt;attendee:IN_IN_COMMON:w</title>
<path fill="none" stroke="#115223" stroke-width="2" d="M662,-321.077C699.08,-321.077 696.674,-277.677 730.669,-274.286"/>
<ellipse fill="#115223" stroke="#115223" stroke-width="2" cx="733.002" cy="-274.173" rx="2" ry="2"/>
</g>
<!-- common_out -->
<g id="node11" class="node"><title>common_out</title>
<polygon fill="#bdce5e" stroke="none" points="918,-286.077 918,-315.077 1005,-315.077 1005,-286.077 918,-286.077"/>
<polygon fill="none" stroke="#4e5627" points="918,-286.077 918,-315.077 1005,-315.077 1005,-286.077 918,-286.077"/>
<text text-anchor="start" x="921.5" y="-301.377" font-family="Helvetica,sans-Serif" font-size="14.00" fill="#000000">common_out</text>
<text text-anchor="start" x="946.5" y="-292.177" font-family="Helvetica,sans-Serif" font-size="8.00" fill="#000000">gtk/label</text>
<polygon fill="#8d9a46" stroke="none" points="918,-269.077 918,-286.077 1005,-286.077 1005,-269.077 918,-269.077"/>
<polygon fill="none" stroke="#4e5627" points="918,-269.077 918,-286.077 1005,-286.077 1005,-269.077 918,-269.077"/>
<text text-anchor="start" x="921" y="-275.077" font-family="Helvetica,sans-Serif" font-size="10.00" fill="#000000">◎ IN</text>
</g>
<!-- attendee&#45;&gt;common_out -->
<g id="edge10" class="edge"><title>attendee:OUT_OUT_COMMON:e&#45;&gt;common_out:IN_IN:w</title>
<path fill="none" stroke="#4016fc" stroke-width="2" d="M859,-222.077C892.999,-222.077 882.507,-272.452 912.682,-276.781"/>
<ellipse fill="#4016fc" stroke="#4016fc" stroke-width="2" cx="915.005" cy="-276.94" rx="2" ry="2"/>
</g>
<!-- preferential_out -->
<g id="node17" class="node"><title>preferential_out</title>
<polygon fill="#bdce5e" stroke="none" points="911,-214.077 911,-243.077 1012,-243.077 1012,-214.077 911,-214.077"/>
<polygon fill="none" stroke="#4e5627" points="911,-214.077 911,-243.077 1012,-243.077 1012,-214.077 911,-214.077"/>
<text text-anchor="start" x="914.5" y="-229.377" font-family="Helvetica,sans-Serif" font-size="14.00" fill="#000000">preferential_out</text>
<text text-anchor="start" x="946.5" y="-220.177" font-family="Helvetica,sans-Serif" font-size="8.00" fill="#000000">gtk/label</text>
<polygon fill="#8d9a46" stroke="none" points="911,-197.077 911,-214.077 1012,-214.077 1012,-197.077 911,-197.077"/>
<polygon fill="none" stroke="#4e5627" points="911,-197.077 911,-214.077 1012,-214.077 1012,-197.077 911,-197.077"/>
<text text-anchor="start" x="914" y="-203.077" font-family="Helvetica,sans-Serif" font-size="10.00" fill="#000000">◎ IN</text>
</g>
<!-- attendee&#45;&gt;preferential_out -->
<g id="edge18" class="edge"><title>attendee:OUT_OUT_PREFERENTIAL:e&#45;&gt;preferential_out:IN_IN:w</title>
<path fill="none" stroke="#cc1930" stroke-width="2" d="M859,-205.077C880.25,-205.077 886.559,-205.077 905.941,-205.077"/>
<ellipse fill="#cc1930" stroke="#cc1930" stroke-width="2" cx="908" cy="-205.077" rx="2" ry="2"/>
</g>
<!-- attendee_out -->
<g id="node20" class="node"><title>attendee_out</title>
<polygon fill="#bdce5e" stroke="none" points="918,-142.077 918,-171.077 1004,-171.077 1004,-142.077 918,-142.077"/>
<polygon fill="none" stroke="#4e5627" points="918,-142.077 918,-171.077 1004,-171.077 1004,-142.077 918,-142.077"/>
<text text-anchor="start" x="921.5" y="-157.377" font-family="Helvetica,sans-Serif" font-size="14.00" fill="#000000">attendee_out</text>
<text text-anchor="start" x="946" y="-148.177" font-family="Helvetica,sans-Serif" font-size="8.00" fill="#000000">gtk/label</text>
<polygon fill="#8d9a46" stroke="none" points="918,-125.077 918,-142.077 1004,-142.077 1004,-125.077 918,-125.077"/>
<polygon fill="none" stroke="#4e5627" points="918,-125.077 918,-142.077 1004,-142.077 1004,-125.077 918,-125.077"/>
<text text-anchor="start" x="921" y="-131.077" font-family="Helvetica,sans-Serif" font-size="10.00" fill="#000000">◎ IN</text>
</g>
<!-- attendee&#45;&gt;attendee_out -->
<g id="edge21" class="edge"><title>attendee:OUT_OUT_ATTENDEE:e&#45;&gt;attendee_out:IN_IN:w</title>
<path fill="none" stroke="#7e543f" stroke-width="2" d="M859,-188.077C892.999,-188.077 882.507,-137.702 912.682,-133.373"/>
<ellipse fill="#7e543f" stroke="#7e543f" stroke-width="2" cx="915.005" cy="-133.213" rx="2" ry="2"/>
</g>
<!-- preferential_btn -->
<g id="node12" class="node"><title>preferential_btn</title>
<polygon fill="#bdce5e" stroke="none" points="139,-179.077 139,-208.077 240,-208.077 240,-179.077 139,-179.077"/>
<polygon fill="none" stroke="#4e5627" points="139,-179.077 139,-208.077 240,-208.077 240,-179.077 139,-179.077"/>
<text text-anchor="start" x="142.5" y="-194.377" font-family="Helvetica,sans-Serif" font-size="14.00" fill="#000000">preferential_btn</text>
<text text-anchor="start" x="163" y="-185.177" font-family="Helvetica,sans-Serif" font-size="8.00" fill="#000000">gtk/pushbutton</text>
<polygon fill="#697334" stroke="none" points="139,-162.077 139,-179.077 240,-179.077 240,-162.077 139,-162.077"/>
<polygon fill="none" stroke="#4e5627" points="139,-162.077 139,-179.077 240,-179.077 240,-162.077 139,-162.077"/>
<text text-anchor="start" x="204" y="-168.077" font-family="Helvetica,sans-Serif" font-size="10.00" fill="#ffffff">OUT ◉</text>
</g>
<!-- #anon:37:44 -->
<g id="node13" class="node"><title>#anon:37:44</title>
<polygon fill="#184294" stroke="none" points="293,-179.077 293,-201.077 378,-201.077 378,-179.077 293,-179.077"/>
<polygon fill="none" stroke="#091b3e" points="293,-179.077 293,-201.077 378,-201.077 378,-179.077 293,-179.077"/>
<text text-anchor="start" x="296.5" y="-186.377" font-family="Helvetica,sans-Serif" font-size="14.00" fill="#ffffff">boolean/filter</text>
<polygon fill="#12316f" stroke="none" points="293,-162.077 293,-179.077 378,-179.077 378,-162.077 293,-162.077"/>
<polygon fill="none" stroke="#091b3e" points="293,-162.077 293,-179.077 378,-179.077 378,-162.077 293,-162.077"/>
<text text-anchor="start" x="296" y="-168.077" font-family="Helvetica,sans-Serif" font-size="10.00" fill="#ffffff">◎ IN</text>
<polygon fill="#0d2453" stroke="none" points="293,-145.077 293,-162.077 378,-162.077 378,-145.077 293,-145.077"/>
<polygon fill="none" stroke="#091b3e" points="293,-145.077 293,-162.077 378,-162.077 378,-145.077 293,-145.077"/>
<text text-anchor="start" x="335" y="-151.077" font-family="Helvetica,sans-Serif" font-size="10.00" fill="#ffffff">TRUE ◉</text>
</g>
<!-- preferential_btn&#45;&gt;#anon:37:44 -->
<g id="edge11" class="edge"><title>preferential_btn:OUT_OUT:e&#45;&gt;#anon:37:44:IN_IN:w</title>
<path fill="none" stroke="#5b6c1a" stroke-width="2" d="M241,-170.077C262.25,-170.077 268.559,-170.077 287.941,-170.077"/>
<ellipse fill="#5b6c1a" stroke="#5b6c1a" stroke-width="2" cx="290" cy="-170.077" rx="2" ry="2"/>
</g>
<!-- preferential_acc -->
<g id="node14" class="node"><title>preferential_acc</title>
<polygon fill="#254878" stroke="none" points="430,-162.077 430,-191.077 534,-191.077 534,-162.077 430,-162.077"/>
<polygon fill="none" stroke="#0f1e32" points="430,-162.077 430,-191.077 534,-191.077 534,-162.077 430,-162.077"/>
<text text-anchor="start" x="433.5" y="-177.377" font-family="Helvetica,sans-Serif" font-size="14.00" fill="#ffffff">preferential_acc</text>
<text text-anchor="start" x="454.5" y="-168.177" font-family="Helvetica,sans-Serif" font-size="8.00" fill="#ffffff">int/accumulator</text>
<polygon fill="#1b365a" stroke="none" points="430,-145.077 430,-162.077 534,-162.077 534,-145.077 430,-145.077"/>
<polygon fill="none" stroke="#0f1e32" points="430,-145.077 430,-162.077 534,-162.077 534,-145.077 430,-145.077"/>
<text text-anchor="start" x="433" y="-151.077" font-family="Helvetica,sans-Serif" font-size="10.00" fill="#ffffff">◎ INC</text>
<polygon fill="#142843" stroke="none" points="430,-128.077 430,-145.077 534,-145.077 534,-128.077 430,-128.077"/>
<polygon fill="none" stroke="#0f1e32" points="430,-128.077 430,-145.077 534,-145.077 534,-128.077 430,-128.077"/>
<text text-anchor="start" x="498" y="-134.077" font-family="Helvetica,sans-Serif" font-size="10.00" fill="#ffffff">OUT ◉</text>
</g>
<!-- #anon:37:44&#45;&gt;preferential_acc -->
<g id="edge12" class="edge"><title>#anon:37:44:OUT_TRUE:e&#45;&gt;preferential_acc:IN_INC:w</title>
<path fill="none" stroke="#b195a2" stroke-width="2" d="M379,-153.077C399.66,-153.077 405.914,-153.077 424.548,-153.077"/>
<ellipse fill="#b195a2" stroke="#b195a2" stroke-width="2" cx="427" cy="-153.077" rx="2" ry="2"/>
</g>
<!-- preferential_acc&#45;&gt;preferential_eq -->
<g id="edge13" class="edge"><title>preferential_acc:OUT_OUT:e&#45;&gt;preferential_eq:IN_IN:w</title>
<path fill="none" stroke="#36ba74" stroke-width="2" d="M535,-136.077C579.328,-136.077 541.751,-51.6138 580.961,-46.3349"/>
<ellipse fill="#36ba74" stroke="#36ba74" stroke-width="2" cx="583.004" cy="-46.2043" rx="2" ry="2"/>
</g>
<!-- #anon:39:28 -->
<g id="node16" class="node"><title>#anon:39:28</title>
<polygon fill="#254878" stroke="none" points="610,-145.077 610,-167.077 661,-167.077 661,-145.077 610,-145.077"/>
<polygon fill="none" stroke="#0f1e32" points="610,-145.077 610,-167.077 661,-167.077 661,-145.077 610,-145.077"/>
<text text-anchor="start" x="613.5" y="-152.377" font-family="Helvetica,sans-Serif" font-size="14.00" fill="#ffffff">int/filter</text>
<polygon fill="#1b365a" stroke="none" points="610,-128.077 610,-145.077 661,-145.077 661,-128.077 610,-128.077"/>
<polygon fill="none" stroke="#0f1e32" points="610,-128.077 610,-145.077 661,-145.077 661,-128.077 610,-128.077"/>
<text text-anchor="start" x="613" y="-134.077" font-family="Helvetica,sans-Serif" font-size="10.00" fill="#ffffff">◎ IN</text>
<polygon fill="#142843" stroke="none" points="610,-111.077 610,-128.077 661,-128.077 661,-111.077 610,-111.077"/>
<polygon fill="none" stroke="#0f1e32" points="610,-111.077 610,-128.077 661,-128.077 661,-111.077 610,-111.077"/>
<text text-anchor="start" x="625" y="-117.077" font-family="Helvetica,sans-Serif" font-size="10.00" fill="#ffffff">OUT ◉</text>
</g>
<!-- preferential_acc&#45;&gt;#anon:39:28 -->
<g id="edge16" class="edge"><title>preferential_acc:OUT_OUT:e&#45;&gt;#anon:39:28:IN_IN:w</title>
<path fill="none" stroke="#ea807a" stroke-width="2" d="M535,-136.077C566.476,-136.077 575.359,-136.077 604.893,-136.077"/>
<ellipse fill="#ea807a" stroke="#ea807a" stroke-width="2" cx="607" cy="-136.077" rx="2" ry="2"/>
</g>
<!-- #anon:38:57&#45;&gt;preferential_acc -->
<g id="edge15" class="edge"><title>#anon:38:57:OUT_TRUE:e&#45;&gt;preferential_acc:IN_INC:w</title>
<path fill="none" stroke="#2bbb36" stroke-width="2" d="M841,-59.0767C859.416,-59.0767 913.06,65.399 746,-47.0767 693.079,-82.7066 744.921,-144.447 692,-180.077 649.971,-208.373 622.52,-204.265 578,-180.077 552.165,-166.041 567.835,-138.613 542,-124.577 498.261,-100.813 465.81,-90.0011 430,-124.577 422.022,-132.28 417.536,-148.323 425.03,-152.213"/>
<ellipse fill="#2bbb36" stroke="#2bbb36" stroke-width="2" cx="427.046" cy="-152.652" rx="2.00001" ry="2.00001"/>
</g>
<!-- #anon:39:28&#45;&gt;attendee -->
<g id="edge17" class="edge"><title>#anon:39:28:OUT_OUT:e&#45;&gt;attendee:IN_IN_PREFERENTIAL:w</title>
<path fill="none" stroke="#e04774" stroke-width="2" d="M662,-119.077C729.895,-119.077 668.378,-251.211 730.712,-256.888"/>
<ellipse fill="#e04774" stroke="#e04774" stroke-width="2" cx="733.002" cy="-256.989" rx="2" ry="2"/>
</g>
<!-- attendee_btn -->
<g id="node18" class="node"><title>attendee_btn</title>
<polygon fill="#bdce5e" stroke="none" points="439,-265.077 439,-294.077 525,-294.077 525,-265.077 439,-265.077"/>
<polygon fill="none" stroke="#4e5627" points="439,-265.077 439,-294.077 525,-294.077 525,-265.077 439,-265.077"/>
<text text-anchor="start" x="442.5" y="-280.377" font-family="Helvetica,sans-Serif" font-size="14.00" fill="#000000">attendee_btn</text>
<text text-anchor="start" x="455.5" y="-271.177" font-family="Helvetica,sans-Serif" font-size="8.00" fill="#000000">gtk/pushbutton</text>
<polygon fill="#697334" stroke="none" points="439,-248.077 439,-265.077 525,-265.077 525,-248.077 439,-248.077"/>
<polygon fill="none" stroke="#4e5627" points="439,-248.077 439,-265.077 525,-265.077 525,-248.077 439,-248.077"/>
<text text-anchor="start" x="489" y="-254.077" font-family="Helvetica,sans-Serif" font-size="10.00" fill="#ffffff">OUT ◉</text>
</g>
<!-- #anon:41:40 -->
<g id="node19" class="node"><title>#anon:41:40</title>
<polygon fill="#184294" stroke="none" points="593,-265.077 593,-287.077 678,-287.077 678,-265.077 593,-265.077"/>
<polygon fill="none" stroke="#091b3e" points="593,-265.077 593,-287.077 678,-287.077 678,-265.077 593,-265.077"/>
<text text-anchor="start" x="596.5" y="-272.377" font-family="Helvetica,sans-Serif" font-size="14.00" fill="#ffffff">boolean/filter</text>
<polygon fill="#12316f" stroke="none" points="593,-248.077 593,-265.077 678,-265.077 678,-248.077 593,-248.077"/>
<polygon fill="none" stroke="#091b3e" points="593,-248.077 593,-265.077 678,-265.077 678,-248.077 593,-248.077"/>
<text text-anchor="start" x="596" y="-254.077" font-family="Helvetica,sans-Serif" font-size="10.00" fill="#ffffff">◎ IN</text>
<polygon fill="#0d2453" stroke="none" points="593,-231.077 593,-248.077 678,-248.077 678,-231.077 593,-231.077"/>
<polygon fill="none" stroke="#091b3e" points="593,-231.077 593,-248.077 678,-248.077 678,-231.077 593,-231.077"/>
<text text-anchor="start" x="635" y="-237.077" font-family="Helvetica,sans-Serif" font-size="10.00" fill="#ffffff">TRUE ◉</text>
</g>
<!-- attendee_btn&#45;&gt;#anon:41:40 -->
<g id="edge19" class="edge"><title>attendee_btn:OUT_OUT:e&#45;&gt;#anon:41:40:IN_IN:w</title>
<path fill="none" stroke="#3920fc" stroke-width="2" d="M526,-256.077C553.844,-256.077 561.865,-256.077 587.696,-256.077"/>
<ellipse fill="#3920fc" stroke="#3920fc" stroke-width="2" cx="590" cy="-256.077" rx="2" ry="2"/>
</g>
<!-- #anon:41:40&#45;&gt;attendee -->
<g id="edge20" class="edge"><title>#anon:41:40:OUT_TRUE:e&#45;&gt;attendee:IN_IN_ATTENDEE:w</title>
<path fill="none" stroke="#99c024" stroke-width="2" d="M679,-239.077C702.431,-239.077 709.318,-239.077 730.81,-239.077"/>
<ellipse fill="#99c024" stroke="#99c024" stroke-width="2" cx="733" cy="-239.077" rx="2" ry="2"/>
</g>
</g>
</svg>
