<?xml version="1.0" encoding="UTF-8" standalone="no"?>
<!DOCTYPE svg PUBLIC "-//W3C//DTD SVG 1.1//EN"
 "http://www.w3.org/Graphics/SVG/1.1/DTD/svg11.dtd">
<!-- Generated by graphviz version 2.36.0 (20140111.2315)
 -->
<!-- Title: fbp Pages: 1 -->
<svg width="474pt" height="171pt"
 viewBox="0.00 0.00 474.00 171.00" xmlns="http://www.w3.org/2000/svg" xmlns:xlink="http://www.w3.org/1999/xlink">
<g id="graph0" class="graph" transform="scale(1 1) rotate(0) translate(4 167)">
<title>fbp</title>
<polygon fill="white" stroke="none" points="-4,4 -4,-167 470,-167 470,4 -4,4"/>
<!-- text -->
<g id="node1" class="node"><title>text</title>
<polygon fill="#e8ea7a" stroke="none" points="27,-21 27,-50 86,-50 86,-21 27,-21"/>
<polygon fill="none" stroke="#616233" points="27,-21 27,-50 86,-50 86,-21 27,-21"/>
<text text-anchor="start" x="45.5" y="-36.3" font-family="Helvetica,sans-Serif" font-size="14.00" fill="#000000">text</text>
<text text-anchor="start" x="30.5" y="-27.1" font-family="Helvetica,sans-Serif" font-size="8.00" fill="#000000">constant/string</text>
<polygon fill="#828344" stroke="none" points="27,-4 27,-21 86,-21 86,-4 27,-4"/>
<polygon fill="none" stroke="#616233" points="27,-4 27,-21 86,-21 86,-4 27,-4"/>
<text text-anchor="start" x="50" y="-10" font-family="Helvetica,sans-Serif" font-size="10.00" fill="#ffffff">OUT ◉</text>
</g>
<!-- splitter -->
<g id="node3" class="node"><title>splitter</title>
<polygon fill="#c8269c" stroke="none" points="157,-65 157,-94 238,-94 238,-65 157,-65"/>
<polygon fill="none" stroke="#540f41" points="157,-65 157,-94 238,-94 238,-65 157,-65"/>
<text text-anchor="start" x="177.5" y="-80.3" font-family="Helvetica,sans-Serif" font-size="14.00" fill="#ffffff">splitter</text>
<text text-anchor="start" x="179.5" y="-71.1" font-family="Helvetica,sans-Serif" font-size="8.00" fill="#ffffff">MySplitter</text>
<polygon fill="#961c75" stroke="none" points="157,-48 157,-65 238,-65 238,-48 157,-48"/>
<polygon fill="none" stroke="#540f41" points="157,-48 157,-65 238,-65 238,-48 157,-48"/>
<text text-anchor="start" x="160" y="-54" font-family="Helvetica,sans-Serif" font-size="10.00" fill="#ffffff">◎ SEPARATOR</text>
<polygon fill="#961c75" stroke="none" points="157,-31 157,-48 238,-48 238,-31 157,-31"/>
<polygon fill="none" stroke="#540f41" points="157,-31 157,-48 238,-48 238,-31 157,-31"/>
<text text-anchor="start" x="160" y="-37" font-family="Helvetica,sans-Serif" font-size="10.00" fill="#ffffff">◎ IN</text>
<polygon fill="#701557" stroke="none" points="157,-14 157,-31 238,-31 238,-14 157,-14"/>
<polygon fill="none" stroke="#540f41" points="157,-14 157,-31 238,-31 238,-14 157,-14"/>
<text text-anchor="start" x="202" y="-20" font-family="Helvetica,sans-Serif" font-size="10.00" fill="#ffffff">OUT ◉</text>
</g>
<!-- text&#45;&gt;splitter -->
<g id="edge3" class="edge"><title>text:OUT:e&#45;&gt;splitter:IN:w</title>
<path fill="none" stroke="#940100" stroke-width="2" d="M87,-12C118.516,-12 122.744,-36.7295 151.915,-38.8547"/>
<ellipse fill="#940100" stroke="#940100" stroke-width="2" cx="154.001" cy="-38.9289" rx="2" ry="2"/>
</g>
<!-- #anon:50:1 -->
<g id="node2" class="node"><title>#anon:50:1</title>
<polygon fill="#e8ea7a" stroke="none" points="9,-93 9,-115 104,-115 104,-93 9,-93"/>
<polygon fill="none" stroke="#616233" points="9,-93 9,-115 104,-115 104,-93 9,-93"/>
<text text-anchor="start" x="12.5" y="-100.3" font-family="Helvetica,sans-Serif" font-size="14.00" fill="#000000">constant/string</text>
<polygon fill="#828344" stroke="none" points="9,-76 9,-93 104,-93 104,-76 9,-76"/>
<polygon fill="none" stroke="#616233" points="9,-76 9,-93 104,-93 104,-76 9,-76"/>
<text text-anchor="start" x="68" y="-82" font-family="Helvetica,sans-Serif" font-size="10.00" fill="#ffffff">OUT ◉</text>
</g>
<!-- #anon:50:1&#45;&gt;splitter -->
<g id="edge1" class="edge"><title>#anon:50:1:OUT:e&#45;&gt;splitter:SEPARATOR:w</title>
<path fill="none" stroke="#88851e" stroke-width="2" d="M105,-84C129.144,-84 130.298,-60.0714 151.748,-57.2672"/>
<ellipse fill="#88851e" stroke="#88851e" stroke-width="2" cx="154.004" cy="-57.1255" rx="2" ry="2"/>
</g>
<!-- telegram -->
<g id="node5" class="node"><title>telegram</title>
<polygon fill="#f973e8" stroke="none" points="291,-92 291,-121 352,-121 352,-92 291,-92"/>
<polygon fill="none" stroke="#683061" points="291,-92 291,-121 352,-121 352,-92 291,-92"/>
<text text-anchor="start" x="294.5" y="-107.3" font-family="Helvetica,sans-Serif" font-size="14.00" fill="#000000">telegram</text>
<text text-anchor="start" x="298.5" y="-98.1" font-family="Helvetica,sans-Serif" font-size="8.00" fill="#000000">MyTelegram</text>
<polygon fill="#ba56ae" stroke="none" points="291,-75 291,-92 352,-92 352,-75 291,-75"/>
<polygon fill="none" stroke="#683061" points="291,-75 291,-92 352,-92 352,-75 291,-75"/>
<text text-anchor="start" x="294" y="-81" font-family="Helvetica,sans-Serif" font-size="10.00" fill="#ffffff">◎ LENGTH</text>
<polygon fill="#ba56ae" stroke="none" points="291,-58 291,-75 352,-75 352,-58 291,-58"/>
<polygon fill="none" stroke="#683061" points="291,-58 291,-75 352,-75 352,-58 291,-58"/>
<text text-anchor="start" x="294" y="-64" font-family="Helvetica,sans-Serif" font-size="10.00" fill="#ffffff">◎ IN</text>
<polygon fill="#8b4082" stroke="none" points="291,-41 291,-58 352,-58 352,-41 291,-41"/>
<polygon fill="none" stroke="#683061" points="291,-41 291,-58 352,-58 352,-41 291,-41"/>
<text text-anchor="start" x="316" y="-47" font-family="Helvetica,sans-Serif" font-size="10.00" fill="#ffffff">OUT ◉</text>
</g>
<!-- splitter&#45;&gt;telegram -->
<g id="edge4" class="edge"><title>splitter:OUT:e&#45;&gt;telegram:IN:w</title>
<path fill="none" stroke="#9aa96c" stroke-width="2" d="M239,-22C267.416,-22 260.865,-61.6447 285.729,-65.6711"/>
<ellipse fill="#9aa96c" stroke="#9aa96c" stroke-width="2" cx="288.006" cy="-65.8464" rx="2" ry="2"/>
</g>
<!-- #anon:52:1 -->
<g id="node4" class="node"><title>#anon:52:1</title>
<polygon fill="#e8ea7a" stroke="none" points="159,-137 159,-159 236,-159 236,-137 159,-137"/>
<polygon fill="none" stroke="#616233" points="159,-137 159,-159 236,-159 236,-137 159,-137"/>
<text text-anchor="start" x="162.5" y="-144.3" font-family="Helvetica,sans-Serif" font-size="14.00" fill="#000000">constant/int</text>
<polygon fill="#828344" stroke="none" points="159,-120 159,-137 236,-137 236,-120 159,-120"/>
<polygon fill="none" stroke="#616233" points="159,-120 159,-137 236,-137 236,-120 159,-120"/>
<text text-anchor="start" x="200" y="-126" font-family="Helvetica,sans-Serif" font-size="10.00" fill="#ffffff">OUT ◉</text>
</g>
<!-- #anon:52:1&#45;&gt;telegram -->
<g id="edge2" class="edge"><title>#anon:52:1:OUT:e&#45;&gt;telegram:LENGTH:w</title>
<path fill="none" stroke="#4dccf4" stroke-width="2" d="M237,-128C266.18,-128 260.071,-88.0283 285.943,-84.281"/>
<ellipse fill="#4dccf4" stroke="#4dccf4" stroke-width="2" cx="288.005" cy="-84.1382" rx="2" ry="2"/>
</g>
<!-- #anon:56:39 -->
<g id="node6" class="node"><title>#anon:56:39</title>
<polygon fill="#471ca4" stroke="none" points="404,-58 404,-80 458,-80 458,-58 404,-58"/>
<polygon fill="none" stroke="#1d0b45" points="404,-58 404,-80 458,-80 458,-58 404,-58"/>
<text text-anchor="start" x="407.5" y="-65.3" font-family="Helvetica,sans-Serif" font-size="14.00" fill="#ffffff">console</text>
<polygon fill="#35157b" stroke="none" points="404,-41 404,-58 458,-58 458,-41 404,-41"/>
<polygon fill="none" stroke="#1d0b45" points="404,-41 404,-58 458,-58 458,-41 404,-41"/>
<text text-anchor="start" x="407" y="-47" font-family="Helvetica,sans-Serif" font-size="10.00" fill="#ffffff">◎ IN</text>
</g>
<!-- telegram&#45;&gt;#anon:56:39 -->
<g id="edge5" class="edge"><title>telegram:OUT:e&#45;&gt;#anon:56:39:IN:w</title>
<path fill="none" stroke="#1941be" stroke-width="2" d="M353,-49C373.66,-49 379.914,-49 398.548,-49"/>
<ellipse fill="#1941be" stroke="#1941be" stroke-width="2" cx="401" cy="-49" rx="2" ry="2"/>
</g>
</g>
</svg>
