<?xml version="1.0" encoding="UTF-8" standalone="no"?>
<!DOCTYPE svg PUBLIC "-//W3C//DTD SVG 1.1//EN"
 "http://www.w3.org/Graphics/SVG/1.1/DTD/svg11.dtd">
<!-- Generated by graphviz version 2.36.0 (20140111.2315)
 -->
<!-- Title: fbp Pages: 1 -->
<svg width="838pt" height="240pt"
 viewBox="0.00 0.00 838.00 240.12" xmlns="http://www.w3.org/2000/svg" xmlns:xlink="http://www.w3.org/1999/xlink">
<g id="graph0" class="graph" transform="scale(1 1) rotate(0) translate(4 236.121)">
<title>fbp</title>
<polygon fill="white" stroke="none" points="-4,4 -4,-236.121 834,-236.121 834,4 -4,4"/>
<!-- red_tracker -->
<g id="node1" class="node"><title>red_tracker</title>
<polygon fill="#581526" stroke="none" points="128,-125.718 128,-154.718 208,-154.718 208,-125.718 128,-125.718"/>
<polygon fill="none" stroke="#24080f" points="128,-125.718 128,-154.718 208,-154.718 208,-125.718 128,-125.718"/>
<text text-anchor="start" x="133.5" y="-141.018" font-family="Helvetica,sans-Serif" font-size="14.00" fill="#ffffff">red_tracker</text>
<text text-anchor="start" x="154" y="-131.818" font-family="Helvetica,sans-Serif" font-size="8.00" fill="#ffffff">Tracker</text>
<polygon fill="#420f1c" stroke="none" points="128,-108.718 128,-125.718 208,-125.718 208,-108.718 128,-108.718"/>
<polygon fill="none" stroke="#24080f" points="128,-108.718 128,-125.718 208,-125.718 208,-108.718 128,-108.718"/>
<text text-anchor="start" x="131" y="-114.718" font-family="Helvetica,sans-Serif" font-size="10.00" fill="#ffffff">◎ WIN_SCORE</text>
<polygon fill="#420f1c" stroke="none" points="128,-91.7183 128,-108.718 208,-108.718 208,-91.7183 128,-91.7183"/>
<polygon fill="none" stroke="#24080f" points="128,-91.7183 128,-108.718 208,-108.718 208,-91.7183 128,-91.7183"/>
<text text-anchor="start" x="131" y="-97.7183" font-family="Helvetica,sans-Serif" font-size="10.00" fill="#ffffff">◎ RESET</text>
<polygon fill="#310b15" stroke="none" points="128,-74.7183 128,-91.7183 208,-91.7183 208,-74.7183 128,-74.7183"/>
<polygon fill="none" stroke="#24080f" points="128,-74.7183 128,-91.7183 208,-91.7183 208,-74.7183 128,-74.7183"/>
<text text-anchor="start" x="168" y="-80.7183" font-family="Helvetica,sans-Serif" font-size="10.00" fill="#ffffff">WON ◉</text>
</g>
<!-- red_won_output -->
<g id="node4" class="node"><title>red_won_output</title>
<polygon fill="#bdce5e" stroke="none" points="260,-38.7183 260,-67.7183 364,-67.7183 364,-38.7183 260,-38.7183"/>
<polygon fill="none" stroke="#4e5627" points="260,-38.7183 260,-67.7183 364,-67.7183 364,-38.7183 260,-38.7183"/>
<text text-anchor="start" x="263.5" y="-54.0183" font-family="Helvetica,sans-Serif" font-size="14.00" fill="#000000">red_won_output</text>
<text text-anchor="start" x="300" y="-44.8183" font-family="Helvetica,sans-Serif" font-size="8.00" fill="#000000">gtk/led</text>
<polygon fill="#8d9a46" stroke="none" points="260,-21.7183 260,-38.7183 364,-38.7183 364,-21.7183 260,-21.7183"/>
<polygon fill="none" stroke="#4e5627" points="260,-21.7183 260,-38.7183 364,-38.7183 364,-21.7183 260,-21.7183"/>
<text text-anchor="start" x="263" y="-27.7183" font-family="Helvetica,sans-Serif" font-size="10.00" fill="#000000">◎ IN</text>
</g>
<!-- red_tracker&#45;&gt;red_won_output -->
<g id="edge3" class="edge"><title>red_tracker:OUT_WON:e&#45;&gt;red_won_output:IN_IN:w</title>
<path fill="none" stroke="#a95a78" stroke-width="2" d="M209,-82.7183C239.866,-82.7183 227.897,-34.5706 254.747,-30.0567"/>
<ellipse fill="#a95a78" stroke="#a95a78" stroke-width="2" cx="257.006" cy="-29.877" rx="2" ry="2"/>
</g>
<!-- there_is_a_winner -->
<g id="node6" class="node"><title>there_is_a_winner</title>
<polygon fill="#184294" stroke="none" points="289,-165.718 289,-194.718 335,-194.718 335,-165.718 289,-165.718"/>
<polygon fill="none" stroke="#091b3e" points="289,-165.718 289,-194.718 335,-194.718 335,-165.718 289,-165.718"/>
<text text-anchor="start" x="296.5" y="-181.018" font-family="Helvetica,sans-Serif" font-size="14.00" fill="#ffffff">∨ Or</text>
<text text-anchor="start" x="292.5" y="-171.818" font-family="Helvetica,sans-Serif" font-size="8.00" fill="#ffffff">boolean/or</text>
<polygon fill="#12316f" stroke="none" points="289,-148.718 289,-165.718 335,-165.718 335,-148.718 289,-148.718"/>
<polygon fill="none" stroke="#091b3e" points="289,-148.718 289,-165.718 335,-165.718 335,-148.718 289,-148.718"/>
<text text-anchor="start" x="292" y="-154.718" font-family="Helvetica,sans-Serif" font-size="10.00" fill="#ffffff">◎ IN</text>
<polygon fill="#0d2453" stroke="none" points="289,-131.718 289,-148.718 335,-148.718 335,-131.718 289,-131.718"/>
<polygon fill="none" stroke="#091b3e" points="289,-131.718 289,-148.718 335,-148.718 335,-131.718 289,-131.718"/>
<text text-anchor="start" x="299" y="-137.718" font-family="Helvetica,sans-Serif" font-size="10.00" fill="#ffffff">OUT ◉</text>
</g>
<!-- red_tracker&#45;&gt;there_is_a_winner -->
<g id="edge5" class="edge"><title>red_tracker:OUT_WON:e&#45;&gt;there_is_a_winner:IN_IN:w</title>
<path fill="none" stroke="#4f2fd4" stroke-width="2" d="M209,-82.7183C255.699,-82.7183 240.844,-152.446 283.937,-156.531"/>
<ellipse fill="#4f2fd4" stroke="#4f2fd4" stroke-width="2" cx="286.002" cy="-156.626" rx="2" ry="2"/>
</g>
<!-- yellow_tracker -->
<g id="node2" class="node"><title>yellow_tracker</title>
<polygon fill="#581526" stroke="none" points="554,-153.718 554,-182.718 648,-182.718 648,-153.718 554,-153.718"/>
<polygon fill="none" stroke="#24080f" points="554,-153.718 554,-182.718 648,-182.718 648,-153.718 554,-153.718"/>
<text text-anchor="start" x="557.5" y="-169.018" font-family="Helvetica,sans-Serif" font-size="14.00" fill="#ffffff">yellow_tracker</text>
<text text-anchor="start" x="587" y="-159.818" font-family="Helvetica,sans-Serif" font-size="8.00" fill="#ffffff">Tracker</text>
<polygon fill="#420f1c" stroke="none" points="554,-136.718 554,-153.718 648,-153.718 648,-136.718 554,-136.718"/>
<polygon fill="none" stroke="#24080f" points="554,-136.718 554,-153.718 648,-153.718 648,-136.718 554,-136.718"/>
<text text-anchor="start" x="557" y="-142.718" font-family="Helvetica,sans-Serif" font-size="10.00" fill="#ffffff">◎ WIN_SCORE</text>
<polygon fill="#420f1c" stroke="none" points="554,-119.718 554,-136.718 648,-136.718 648,-119.718 554,-119.718"/>
<polygon fill="none" stroke="#24080f" points="554,-119.718 554,-136.718 648,-136.718 648,-119.718 554,-119.718"/>
<text text-anchor="start" x="557" y="-125.718" font-family="Helvetica,sans-Serif" font-size="10.00" fill="#ffffff">◎ RESET</text>
<polygon fill="#310b15" stroke="none" points="554,-102.718 554,-119.718 648,-119.718 648,-102.718 554,-102.718"/>
<polygon fill="none" stroke="#24080f" points="554,-102.718 554,-119.718 648,-119.718 648,-102.718 554,-102.718"/>
<text text-anchor="start" x="608" y="-108.718" font-family="Helvetica,sans-Serif" font-size="10.00" fill="#ffffff">WON ◉</text>
</g>
<!-- yellow_won_output -->
<g id="node5" class="node"><title>yellow_won_output</title>
<polygon fill="#bdce5e" stroke="none" points="700,-119.718 700,-148.718 822,-148.718 822,-119.718 700,-119.718"/>
<polygon fill="none" stroke="#4e5627" points="700,-119.718 700,-148.718 822,-148.718 822,-119.718 700,-119.718"/>
<text text-anchor="start" x="703.5" y="-135.018" font-family="Helvetica,sans-Serif" font-size="14.00" fill="#000000">yellow_won_output</text>
<text text-anchor="start" x="749" y="-125.818" font-family="Helvetica,sans-Serif" font-size="8.00" fill="#000000">gtk/led</text>
<polygon fill="#8d9a46" stroke="none" points="700,-102.718 700,-119.718 822,-119.718 822,-102.718 700,-102.718"/>
<polygon fill="none" stroke="#4e5627" points="700,-102.718 700,-119.718 822,-119.718 822,-102.718 700,-102.718"/>
<text text-anchor="start" x="703" y="-108.718" font-family="Helvetica,sans-Serif" font-size="10.00" fill="#000000">◎ IN</text>
</g>
<!-- yellow_tracker&#45;&gt;yellow_won_output -->
<g id="edge4" class="edge"><title>yellow_tracker:OUT_WON:e&#45;&gt;yellow_won_output:IN_IN:w</title>
<path fill="none" stroke="#754f2e" stroke-width="2" d="M649,-110.718C669.66,-110.718 675.914,-110.718 694.548,-110.718"/>
<ellipse fill="#754f2e" stroke="#754f2e" stroke-width="2" cx="697" cy="-110.718" rx="2" ry="2"/>
</g>
<!-- yellow_tracker&#45;&gt;there_is_a_winner -->
<g id="edge6" class="edge"><title>yellow_tracker:OUT_WON:e&#45;&gt;there_is_a_winner:IN_IN:w</title>
<path fill="none" stroke="#02389e" stroke-width="2" d="M649,-110.718C659.26,-110.718 645.182,-33.9425 546,-98.7183 512.676,-120.483 543.324,-158.954 510,-180.718 472.044,-205.507 450.743,-195.824 408,-180.718 372.987,-168.344 378.013,-140.592 343,-128.218 320.372,-120.221 306.266,-111.548 289,-128.218 281.022,-135.922 276.536,-151.964 284.03,-155.855"/>
<ellipse fill="#02389e" stroke="#02389e" stroke-width="2" cx="286.046" cy="-156.293" rx="2.00001" ry="2.00001"/>
</g>
<!-- win_score -->
<g id="node3" class="node"><title>win_score</title>
<polygon fill="#e8ea7a" stroke="none" points="8,-167.718 8,-196.718 76,-196.718 76,-167.718 8,-167.718"/>
<polygon fill="none" stroke="#616233" points="8,-167.718 8,-196.718 76,-196.718 76,-167.718 8,-167.718"/>
<text text-anchor="start" x="11.5" y="-183.018" font-family="Helvetica,sans-Serif" font-size="14.00" fill="#000000">win_score</text>
<text text-anchor="start" x="21.5" y="-173.818" font-family="Helvetica,sans-Serif" font-size="8.00" fill="#000000">constant/int</text>
<polygon fill="#828344" stroke="none" points="8,-150.718 8,-167.718 76,-167.718 76,-150.718 8,-150.718"/>
<polygon fill="none" stroke="#616233" points="8,-150.718 8,-167.718 76,-167.718 76,-150.718 8,-150.718"/>
<text text-anchor="start" x="40" y="-156.718" font-family="Helvetica,sans-Serif" font-size="10.00" fill="#ffffff">OUT ◉</text>
</g>
<!-- win_score&#45;&gt;red_tracker -->
<g id="edge1" class="edge"><title>win_score:OUT_OUT:e&#45;&gt;red_tracker:IN_WIN_SCORE:w</title>
<path fill="none" stroke="#6dc3ae" stroke-width="2" d="M77,-158.718C104.279,-158.718 98.9278,-121.777 122.893,-118.025"/>
<ellipse fill="#6dc3ae" stroke="#6dc3ae" stroke-width="2" cx="125.006" cy="-117.867" rx="2" ry="2"/>
</g>
<!-- win_score&#45;&gt;yellow_tracker -->
<g id="edge2" class="edge"><title>win_score:OUT_OUT:e&#45;&gt;yellow_tracker:IN_WIN_SCORE:w</title>
<path fill="none" stroke="#237da0" stroke-width="2" d="M77,-158.718C117.385,-158.718 211.991,-202.223 252,-207.718 365.621,-223.325 408.291,-255.715 510,-202.718 536.823,-188.742 522.75,-149.627 548.848,-145.99"/>
<ellipse fill="#237da0" stroke="#237da0" stroke-width="2" cx="551.004" cy="-145.849" rx="2" ry="2"/>
</g>
<!-- cheer_output -->
<g id="node7" class="node"><title>cheer_output</title>
<polygon fill="#bdce5e" stroke="none" points="416,-138.718 416,-167.718 502,-167.718 502,-138.718 416,-138.718"/>
<polygon fill="none" stroke="#4e5627" points="416,-138.718 416,-167.718 502,-167.718 502,-138.718 416,-138.718"/>
<text text-anchor="start" x="419.5" y="-154.018" font-family="Helvetica,sans-Serif" font-size="14.00" fill="#000000">cheer_output</text>
<text text-anchor="start" x="447" y="-144.818" font-family="Helvetica,sans-Serif" font-size="8.00" fill="#000000">gtk/led</text>
<polygon fill="#8d9a46" stroke="none" points="416,-121.718 416,-138.718 502,-138.718 502,-121.718 416,-121.718"/>
<polygon fill="none" stroke="#4e5627" points="416,-121.718 416,-138.718 502,-138.718 502,-121.718 416,-121.718"/>
<text text-anchor="start" x="419" y="-127.718" font-family="Helvetica,sans-Serif" font-size="10.00" fill="#000000">◎ IN</text>
</g>
<!-- there_is_a_winner&#45;&gt;cheer_output -->
<g id="edge7" class="edge"><title>there_is_a_winner:OUT_OUT:e&#45;&gt;cheer_output:IN_IN:w</title>
<path fill="none" stroke="#4468c6" stroke-width="2" d="M336,-139.718C370.009,-139.718 378.925,-130.484 410.974,-129.763"/>
<ellipse fill="#4468c6" stroke="#4468c6" stroke-width="2" cx="413" cy="-129.74" rx="2" ry="2"/>
</g>
<!-- cheer_timeout -->
<g id="node8" class="node"><title>cheer_timeout</title>
<polygon fill="#7f2fae" stroke="none" points="426,-65.7183 426,-94.7183 492,-94.7183 492,-65.7183 426,-65.7183"/>
<polygon fill="none" stroke="#351348" points="426,-65.7183 426,-94.7183 492,-94.7183 492,-65.7183 426,-65.7183"/>
<text text-anchor="start" x="430.5" y="-81.0183" font-family="Helvetica,sans-Serif" font-size="14.00" fill="#ffffff">🕐 Timer</text>
<text text-anchor="start" x="449.5" y="-71.8183" font-family="Helvetica,sans-Serif" font-size="8.00" fill="#ffffff">timer</text>
<polygon fill="#5f2382" stroke="none" points="426,-48.7183 426,-65.7183 492,-65.7183 492,-48.7183 426,-48.7183"/>
<polygon fill="none" stroke="#351348" points="426,-48.7183 426,-65.7183 492,-65.7183 492,-48.7183 426,-48.7183"/>
<text text-anchor="start" x="429" y="-54.7183" font-family="Helvetica,sans-Serif" font-size="10.00" fill="#ffffff">◎ ENABLED</text>
<polygon fill="#471a61" stroke="none" points="426,-31.7183 426,-48.7183 492,-48.7183 492,-31.7183 426,-31.7183"/>
<polygon fill="none" stroke="#351348" points="426,-31.7183 426,-48.7183 492,-48.7183 492,-31.7183 426,-31.7183"/>
<text text-anchor="start" x="456" y="-37.7183" font-family="Helvetica,sans-Serif" font-size="10.00" fill="#ffffff">OUT ◉</text>
</g>
<!-- there_is_a_winner&#45;&gt;cheer_timeout -->
<g id="edge8" class="edge"><title>there_is_a_winner:OUT_OUT:e&#45;&gt;cheer_timeout:IN_ENABLED:w</title>
<path fill="none" stroke="#0f954c" stroke-width="2" d="M336,-139.718C388.608,-139.718 371.907,-61.1953 420.724,-56.9011"/>
<ellipse fill="#0f954c" stroke="#0f954c" stroke-width="2" cx="423.002" cy="-56.8038" rx="2" ry="2"/>
</g>
<!-- cheer_timeout&#45;&gt;red_tracker -->
<g id="edge9" class="edge"><title>cheer_timeout:OUT_OUT:e&#45;&gt;red_tracker:IN_RESET:w</title>
<path fill="none" stroke="#f703e4" stroke-width="2" d="M493,-39.7183C504.761,-39.7183 503.015,10.3242 418,-28.2183 389.745,-41.0279 400.255,-67.9087 372,-80.7183 323.425,-102.74 304.845,-87.9215 252,-80.7183 235.546,-78.4755 232.454,-72.9611 216,-70.7183 177.247,-65.436 156.128,-43.5433 128,-70.7183 119.884,-78.5589 115.332,-94.8816 122.96,-98.8397"/>
<ellipse fill="#f703e4" stroke="#f703e4" stroke-width="2" cx="125.046" cy="-99.2933" rx="2.00001" ry="2.00001"/>
</g>
<!-- cheer_timeout&#45;&gt;yellow_tracker -->
<g id="edge10" class="edge"><title>cheer_timeout:OUT_OUT:e&#45;&gt;yellow_tracker:IN_RESET:w</title>
<path fill="none" stroke="#1c184f" stroke-width="2" d="M493,-39.7183C538.858,-39.7183 507.75,-122.304 548.797,-127.466"/>
<ellipse fill="#1c184f" stroke="#1c184f" stroke-width="2" cx="551.004" cy="-127.598" rx="2" ry="2"/>
</g>
<!-- reset -->
<g id="node9" class="node"><title>reset</title>
<polygon fill="#bdce5e" stroke="none" points="12,-67.7183 12,-96.7183 72,-96.7183 72,-67.7183 12,-67.7183"/>
<polygon fill="none" stroke="#4e5627" points="12,-67.7183 12,-96.7183 72,-96.7183 72,-67.7183 12,-67.7183"/>
<text text-anchor="start" x="26.5" y="-83.0183" font-family="Helvetica,sans-Serif" font-size="14.00" fill="#000000">reset</text>
<text text-anchor="start" x="15.5" y="-73.8183" font-family="Helvetica,sans-Serif" font-size="8.00" fill="#000000">gtk/pushbutton</text>
<polygon fill="#697334" stroke="none" points="12,-50.7183 12,-67.7183 72,-67.7183 72,-50.7183 12,-50.7183"/>
<polygon fill="none" stroke="#4e5627" points="12,-50.7183 12,-67.7183 72,-67.7183 72,-50.7183 12,-50.7183"/>
<text text-anchor="start" x="36" y="-56.7183" font-family="Helvetica,sans-Serif" font-size="10.00" fill="#ffffff">OUT ◉</text>
</g>
<!-- reset&#45;&gt;red_tracker -->
<g id="edge11" class="edge"><title>reset:OUT_OUT:e&#45;&gt;red_tracker:IN_RESET:w</title>
<path fill="none" stroke="#097748" stroke-width="2" d="M73,-58.7183C101.721,-58.7183 97.3738,-95.9646 122.995,-99.4565"/>
<ellipse fill="#097748" stroke="#097748" stroke-width="2" cx="125.004" cy="-99.5878" rx="2" ry="2"/>
</g>
<!-- reset&#45;&gt;yellow_tracker -->
<g id="edge12" class="edge"><title>reset:OUT_OUT:e&#45;&gt;yellow_tracker:IN_RESET:w</title>
<path fill="none" stroke="#47c946" stroke-width="2" d="M73,-58.7183C155.601,-58.7183 170.164,-19.9333 252,-8.7183 304.839,-1.47708 318.702,-6.78972 372,-8.7183 433.454,-10.942 460.445,17.6938 510,-18.7183 550.819,-48.7116 503.644,-123.479 548.955,-127.546"/>
<ellipse fill="#47c946" stroke="#47c946" stroke-width="2" cx="551.002" cy="-127.633" rx="2" ry="2"/>
</g>
</g>
</svg>
