<?xml version="1.0" encoding="UTF-8" standalone="no"?>
<!DOCTYPE svg PUBLIC "-//W3C//DTD SVG 1.1//EN"
 "http://www.w3.org/Graphics/SVG/1.1/DTD/svg11.dtd">
<!-- Generated by graphviz version 2.36.0 (20140111.2315)
 -->
<!-- Title: fbp Pages: 1 -->
<svg width="488pt" height="151pt"
 viewBox="0.00 0.00 488.00 151.00" xmlns="http://www.w3.org/2000/svg" xmlns:xlink="http://www.w3.org/1999/xlink">
<g id="graph0" class="graph" transform="scale(1 1) rotate(0) translate(4 147)">
<title>fbp</title>
<polygon fill="white" stroke="none" points="-4,4 -4,-147 484,-147 484,4 -4,4"/>
<!-- score -->
<g id="node1" class="node"><title>score</title>
<polygon fill="#254878" stroke="none" points="280,-99 280,-128 342,-128 342,-99 280,-99"/>
<polygon fill="none" stroke="#0f1e32" points="280,-99 280,-128 342,-128 342,-99 280,-99"/>
<text text-anchor="start" x="294" y="-114.3" font-family="Helvetica,sans-Serif" font-size="14.00" fill="#ffffff">score</text>
<text text-anchor="start" x="283.5" y="-105.1" font-family="Helvetica,sans-Serif" font-size="8.00" fill="#ffffff">int/accumulator</text>
<polygon fill="#1b365a" stroke="none" points="280,-82 280,-99 342,-99 342,-82 280,-82"/>
<polygon fill="none" stroke="#0f1e32" points="280,-82 280,-99 342,-99 342,-82 280,-82"/>
<text text-anchor="start" x="283" y="-88" font-family="Helvetica,sans-Serif" font-size="10.00" fill="#ffffff">◎ RESET</text>
<polygon fill="#1b365a" stroke="none" points="280,-65 280,-82 342,-82 342,-65 280,-65"/>
<polygon fill="none" stroke="#0f1e32" points="280,-65 280,-82 342,-82 342,-65 280,-65"/>
<text text-anchor="start" x="283" y="-71" font-family="Helvetica,sans-Serif" font-size="10.00" fill="#ffffff">◎ INC</text>
<polygon fill="#142843" stroke="none" points="280,-48 280,-65 342,-65 342,-48 280,-48"/>
<polygon fill="none" stroke="#0f1e32" points="280,-48 280,-65 342,-65 342,-48 280,-48"/>
<text text-anchor="start" x="306" y="-54" font-family="Helvetica,sans-Serif" font-size="10.00" fill="#ffffff">OUT ◉</text>
</g>
<!-- won -->
<g id="node2" class="node"><title>won</title>
<polygon fill="#254878" stroke="none" points="395,-110 395,-139 472,-139 472,-110 395,-110"/>
<polygon fill="none" stroke="#0f1e32" points="395,-110 395,-139 472,-139 472,-110 395,-110"/>
<text text-anchor="start" x="421" y="-125.3" font-family="Helvetica,sans-Serif" font-size="14.00" fill="#ffffff">won</text>
<text text-anchor="start" x="398.5" y="-116.1" font-family="Helvetica,sans-Serif" font-size="8.00" fill="#ffffff">int/greater&#45;or&#45;equal</text>
<polygon fill="#1b365a" stroke="none" points="395,-93 395,-110 472,-110 472,-93 395,-93"/>
<polygon fill="none" stroke="#0f1e32" points="395,-93 395,-110 472,-110 472,-93 395,-93"/>
<text text-anchor="start" x="398" y="-99" font-family="Helvetica,sans-Serif" font-size="10.00" fill="#ffffff">◎ IN</text>
<polygon fill="#142843" stroke="none" points="395,-76 395,-93 472,-93 472,-76 395,-76"/>
<polygon fill="none" stroke="#0f1e32" points="395,-76 395,-93 472,-93 472,-76 395,-76"/>
<text text-anchor="start" x="436" y="-82" font-family="Helvetica,sans-Serif" font-size="10.00" fill="#ffffff">OUT ◉</text>
</g>
<!-- score&#45;&gt;won -->
<g id="edge4" class="edge"><title>score:OUT_OUT:e&#45;&gt;won:IN_IN:w</title>
<path fill="none" stroke="#2e4fc5" stroke-width="2" d="M343,-56C371.812,-56 364.571,-96.8801 390.003,-100.713"/>
<ellipse fill="#2e4fc5" stroke="#2e4fc5" stroke-width="2" cx="392.005" cy="-100.857" rx="2" ry="2"/>
</g>
<!-- output -->
<g id="node5" class="node"><title>output</title>
<polygon fill="#bdce5e" stroke="none" points="411,-21 411,-50 456,-50 456,-21 411,-21"/>
<polygon fill="none" stroke="#4e5627" points="411,-21 411,-50 456,-50 456,-21 411,-21"/>
<text text-anchor="start" x="414.5" y="-36.3" font-family="Helvetica,sans-Serif" font-size="14.00" fill="#000000">output</text>
<text text-anchor="start" x="418.5" y="-27.1" font-family="Helvetica,sans-Serif" font-size="8.00" fill="#000000">gtk/label</text>
<polygon fill="#8d9a46" stroke="none" points="411,-4 411,-21 456,-21 456,-4 411,-4"/>
<polygon fill="none" stroke="#4e5627" points="411,-4 411,-21 456,-21 456,-4 411,-4"/>
<text text-anchor="start" x="414" y="-10" font-family="Helvetica,sans-Serif" font-size="10.00" fill="#000000">◎ IN</text>
</g>
<!-- score&#45;&gt;output -->
<g id="edge3" class="edge"><title>score:OUT_OUT:e&#45;&gt;output:IN_IN:w</title>
<path fill="none" stroke="#e3618e" stroke-width="2" d="M343,-56C377.233,-56 374.646,-15.3704 406.003,-12.1962"/>
<ellipse fill="#e3618e" stroke="#e3618e" stroke-width="2" cx="408.002" cy="-12.0981" rx="2" ry="2"/>
</g>
<!-- goal -->
<g id="node3" class="node"><title>goal</title>
<polygon fill="#bdce5e" stroke="none" points="8,-99 8,-128 68,-128 68,-99 8,-99"/>
<polygon fill="none" stroke="#4e5627" points="8,-99 8,-128 68,-128 68,-99 8,-99"/>
<text text-anchor="start" x="25" y="-114.3" font-family="Helvetica,sans-Serif" font-size="14.00" fill="#000000">goal</text>
<text text-anchor="start" x="11.5" y="-105.1" font-family="Helvetica,sans-Serif" font-size="8.00" fill="#000000">gtk/pushbutton</text>
<polygon fill="#697334" stroke="none" points="8,-82 8,-99 68,-99 68,-82 8,-82"/>
<polygon fill="none" stroke="#4e5627" points="8,-82 8,-99 68,-99 68,-82 8,-82"/>
<text text-anchor="start" x="32" y="-88" font-family="Helvetica,sans-Serif" font-size="10.00" fill="#ffffff">OUT ◉</text>
</g>
<!-- toggle -->
<g id="node4" class="node"><title>toggle</title>
<polygon fill="#bd648a" stroke="none" points="121,-99 121,-128 228,-128 228,-99 121,-99"/>
<polygon fill="none" stroke="#4e2a39" points="121,-99 121,-128 228,-128 228,-99 121,-99"/>
<text text-anchor="start" x="156" y="-114.3" font-family="Helvetica,sans-Serif" font-size="14.00" fill="#000000">toggle</text>
<text text-anchor="start" x="124.5" y="-105.1" font-family="Helvetica,sans-Serif" font-size="8.00" fill="#000000">converter/boolean&#45;to&#45;empty</text>
<polygon fill="#8d4b67" stroke="none" points="121,-82 121,-99 228,-99 228,-82 121,-82"/>
<polygon fill="none" stroke="#4e2a39" points="121,-82 121,-99 228,-99 228,-82 121,-82"/>
<text text-anchor="start" x="124" y="-88" font-family="Helvetica,sans-Serif" font-size="10.00" fill="#ffffff">◎ PULSE_IF_TRUE</text>
<polygon fill="#69384d" stroke="none" points="121,-65 121,-82 228,-82 228,-65 121,-65"/>
<polygon fill="none" stroke="#4e2a39" points="121,-65 121,-82 228,-82 228,-65 121,-65"/>
<text text-anchor="start" x="192" y="-71" font-family="Helvetica,sans-Serif" font-size="10.00" fill="#ffffff">OUT ◉</text>
</g>
<!-- goal&#45;&gt;toggle -->
<g id="edge1" class="edge"><title>goal:OUT_OUT:e&#45;&gt;toggle:IN_PULSE_IF_TRUE:w</title>
<path fill="none" stroke="#f949d4" stroke-width="2" d="M69,-90C90.25,-90 96.5586,-90 115.941,-90"/>
<ellipse fill="#f949d4" stroke="#f949d4" stroke-width="2" cx="118" cy="-90" rx="2" ry="2"/>
</g>
<!-- toggle&#45;&gt;score -->
<g id="edge2" class="edge"><title>toggle:OUT_OUT:e&#45;&gt;score:IN_INC:w</title>
<path fill="none" stroke="#fb2854" stroke-width="2" d="M229,-73C249.66,-73 255.914,-73 274.548,-73"/>
<ellipse fill="#fb2854" stroke="#fb2854" stroke-width="2" cx="277" cy="-73" rx="2" ry="2"/>
</g>
</g>
</svg>
