<?xml version="1.0" encoding="UTF-8" standalone="no"?>
<!DOCTYPE svg PUBLIC "-//W3C//DTD SVG 1.1//EN"
 "http://www.w3.org/Graphics/SVG/1.1/DTD/svg11.dtd">
<!-- Generated by graphviz version 2.36.0 (20140111.2315)
 -->
<!-- Title: fbp Pages: 1 -->
<svg width="844pt" height="143pt"
 viewBox="0.00 0.00 844.00 143.00" xmlns="http://www.w3.org/2000/svg" xmlns:xlink="http://www.w3.org/1999/xlink">
<g id="graph0" class="graph" transform="scale(1 1) rotate(0) translate(4 139)">
<title>fbp</title>
<polygon fill="white" stroke="none" points="-4,4 -4,-139 840,-139 840,4 -4,4"/>
<!-- #anon:24:1 -->
<g id="node1" class="node"><title>#anon:24:1</title>
<polygon fill="#e8ea7a" stroke="none" points="501,-109 501,-131 596,-131 596,-109 501,-109"/>
<polygon fill="none" stroke="#616233" points="501,-109 501,-131 596,-131 596,-109 501,-109"/>
<text text-anchor="start" x="504.5" y="-116.3" font-family="Helvetica,sans-Serif" font-size="14.00" fill="#000000">constant/string</text>
<polygon fill="#828344" stroke="none" points="501,-92 501,-109 596,-109 596,-92 501,-92"/>
<polygon fill="none" stroke="#616233" points="501,-92 501,-109 596,-109 596,-92 501,-92"/>
<text text-anchor="start" x="560" y="-98" font-family="Helvetica,sans-Serif" font-size="10.00" fill="#ffffff">OUT ◉</text>
</g>
<!-- text -->
<g id="node2" class="node"><title>text</title>
<polygon fill="#c1ee90" stroke="none" points="649,-64 649,-93 722,-93 722,-64 649,-64"/>
<polygon fill="none" stroke="#51633c" points="649,-64 649,-93 722,-93 722,-64 649,-64"/>
<text text-anchor="start" x="674.5" y="-79.3" font-family="Helvetica,sans-Serif" font-size="14.00" fill="#000000">text</text>
<text text-anchor="start" x="652.5" y="-70.1" font-family="Helvetica,sans-Serif" font-size="8.00" fill="#000000">string/concatenate</text>
<polygon fill="#90b26c" stroke="none" points="649,-47 649,-64 722,-64 722,-47 649,-47"/>
<polygon fill="none" stroke="#51633c" points="649,-47 649,-64 722,-64 722,-47 649,-47"/>
<text text-anchor="start" x="652" y="-53" font-family="Helvetica,sans-Serif" font-size="10.00" fill="#000000">◎ IN</text>
<polygon fill="#6c8551" stroke="none" points="649,-30 649,-47 722,-47 722,-30 649,-30"/>
<polygon fill="none" stroke="#51633c" points="649,-30 649,-47 722,-47 722,-30 649,-30"/>
<text text-anchor="start" x="686" y="-36" font-family="Helvetica,sans-Serif" font-size="10.00" fill="#ffffff">OUT ◉</text>
</g>
<!-- #anon:24:1&#45;&gt;text -->
<g id="edge1" class="edge"><title>#anon:24:1:OUT_OUT:e&#45;&gt;text:IN_IN:w</title>
<path fill="none" stroke="#7d4821" stroke-width="2" d="M597,-100C625.812,-100 618.571,-59.1199 644.003,-55.2874"/>
<ellipse fill="#7d4821" stroke="#7d4821" stroke-width="2" cx="646.005" cy="-55.1434" rx="2" ry="2"/>
</g>
<!-- #anon:27:16 -->
<g id="node7" class="node"><title>#anon:27:16</title>
<polygon fill="#471ca4" stroke="none" points="774,-47 774,-69 828,-69 828,-47 774,-47"/>
<polygon fill="none" stroke="#1d0b45" points="774,-47 774,-69 828,-69 828,-47 774,-47"/>
<text text-anchor="start" x="777.5" y="-54.3" font-family="Helvetica,sans-Serif" font-size="14.00" fill="#ffffff">console</text>
<polygon fill="#35157b" stroke="none" points="774,-30 774,-47 828,-47 828,-30 774,-30"/>
<polygon fill="none" stroke="#1d0b45" points="774,-30 774,-47 828,-47 828,-30 774,-30"/>
<text text-anchor="start" x="777" y="-36" font-family="Helvetica,sans-Serif" font-size="10.00" fill="#ffffff">◎ IN</text>
</g>
<!-- text&#45;&gt;#anon:27:16 -->
<g id="edge6" class="edge"><title>text:OUT_OUT:e&#45;&gt;#anon:27:16:IN_IN:w</title>
<path fill="none" stroke="#7d2200" stroke-width="2" d="M723,-38C743.66,-38 749.914,-38 768.548,-38"/>
<ellipse fill="#7d2200" stroke="#7d2200" stroke-width="2" cx="771" cy="-38" rx="2" ry="2"/>
</g>
<!-- #anon:25:1 -->
<g id="node3" class="node"><title>#anon:25:1</title>
<polygon fill="#4e2e10" stroke="none" points="8,-71 8,-93 68,-93 68,-71 8,-71"/>
<polygon fill="none" stroke="#201206" points="8,-71 8,-93 68,-93 68,-71 8,-71"/>
<text text-anchor="start" x="11.5" y="-78.3" font-family="Helvetica,sans-Serif" font-size="14.00" fill="#ffffff">app/argv</text>
<polygon fill="#2b1909" stroke="none" points="8,-54 8,-71 68,-71 68,-54 8,-54"/>
<polygon fill="none" stroke="#201206" points="8,-54 8,-71 68,-71 68,-54 8,-54"/>
<text text-anchor="start" x="32" y="-60" font-family="Helvetica,sans-Serif" font-size="10.00" fill="#ffffff">OUT ◉</text>
</g>
<!-- #anon:25:31 -->
<g id="node4" class="node"><title>#anon:25:31</title>
<polygon fill="#bd648a" stroke="none" points="121,-71 121,-93 256,-93 256,-71 121,-71"/>
<polygon fill="none" stroke="#4e2a39" points="121,-71 121,-93 256,-93 256,-71 121,-71"/>
<text text-anchor="start" x="124.5" y="-78.3" font-family="Helvetica,sans-Serif" font-size="14.00" fill="#000000">converter/string&#45;to&#45;int</text>
<polygon fill="#8d4b67" stroke="none" points="121,-54 121,-71 256,-71 256,-54 121,-54"/>
<polygon fill="none" stroke="#4e2a39" points="121,-54 121,-71 256,-71 256,-54 121,-54"/>
<text text-anchor="start" x="124" y="-60" font-family="Helvetica,sans-Serif" font-size="10.00" fill="#ffffff">◎ IN</text>
<polygon fill="#69384d" stroke="none" points="121,-37 121,-54 256,-54 256,-37 121,-37"/>
<polygon fill="none" stroke="#4e2a39" points="121,-37 121,-54 256,-54 256,-37 121,-37"/>
<text text-anchor="start" x="220" y="-43" font-family="Helvetica,sans-Serif" font-size="10.00" fill="#ffffff">OUT ◉</text>
</g>
<!-- #anon:25:1&#45;&gt;#anon:25:31 -->
<g id="edge2" class="edge"><title>#anon:25:1:OUT_OUT:e&#45;&gt;#anon:25:31:IN_IN:w</title>
<path fill="none" stroke="#29f302" stroke-width="2" d="M69,-62C90.25,-62 96.5586,-62 115.941,-62"/>
<ellipse fill="#29f302" stroke="#29f302" stroke-width="2" cx="118" cy="-62" rx="2" ry="2"/>
</g>
<!-- #anon:25:68 -->
<g id="node5" class="node"><title>#anon:25:68</title>
<polygon fill="#b747fe" stroke="none" points="308,-54 308,-76 448,-76 448,-54 308,-54"/>
<polygon fill="none" stroke="#4c1d6a" points="308,-54 308,-76 448,-76 448,-54 308,-54"/>
<text text-anchor="start" x="311.5" y="-61.3" font-family="Helvetica,sans-Serif" font-size="14.00" fill="#ffffff">platform/system&#45;clock</text>
<polygon fill="#8935be" stroke="none" points="308,-37 308,-54 448,-54 448,-37 308,-37"/>
<polygon fill="none" stroke="#4c1d6a" points="308,-37 308,-54 448,-54 448,-37 308,-37"/>
<text text-anchor="start" x="311" y="-43" font-family="Helvetica,sans-Serif" font-size="10.00" fill="#ffffff">◎ IN</text>
<polygon fill="#66278e" stroke="none" points="308,-20 308,-37 448,-37 448,-20 308,-20"/>
<polygon fill="none" stroke="#4c1d6a" points="308,-20 308,-37 448,-37 448,-20 308,-20"/>
<text text-anchor="start" x="412" y="-26" font-family="Helvetica,sans-Serif" font-size="10.00" fill="#ffffff">OUT ◉</text>
</g>
<!-- #anon:25:31&#45;&gt;#anon:25:68 -->
<g id="edge3" class="edge"><title>#anon:25:31:OUT_OUT:e&#45;&gt;#anon:25:68:IN_IN:w</title>
<path fill="none" stroke="#7f06ec" stroke-width="2" d="M257,-45C277.66,-45 283.914,-45 302.548,-45"/>
<ellipse fill="#7f06ec" stroke="#7f06ec" stroke-width="2" cx="305" cy="-45" rx="2" ry="2"/>
</g>
<!-- StrToInt -->
<g id="node6" class="node"><title>StrToInt</title>
<polygon fill="#bd648a" stroke="none" points="506,-37 506,-66 590,-66 590,-37 506,-37"/>
<polygon fill="none" stroke="#4e2a39" points="506,-37 506,-66 590,-66 590,-37 506,-37"/>
<text text-anchor="start" x="523.5" y="-52.3" font-family="Helvetica,sans-Serif" font-size="14.00" fill="#000000">StrToInt</text>
<text text-anchor="start" x="509.5" y="-43.1" font-family="Helvetica,sans-Serif" font-size="8.00" fill="#000000">converter/int&#45;to&#45;string</text>
<polygon fill="#8d4b67" stroke="none" points="506,-20 506,-37 590,-37 590,-20 506,-20"/>
<polygon fill="none" stroke="#4e2a39" points="506,-20 506,-37 590,-37 590,-20 506,-20"/>
<text text-anchor="start" x="509" y="-26" font-family="Helvetica,sans-Serif" font-size="10.00" fill="#ffffff">◎ IN</text>
<polygon fill="#69384d" stroke="none" points="506,-3 506,-20 590,-20 590,-3 506,-3"/>
<polygon fill="none" stroke="#4e2a39" points="506,-3 506,-20 590,-20 590,-3 506,-3"/>
<text text-anchor="start" x="554" y="-9" font-family="Helvetica,sans-Serif" font-size="10.00" fill="#ffffff">OUT ◉</text>
</g>
<!-- #anon:25:68&#45;&gt;StrToInt -->
<g id="edge4" class="edge"><title>#anon:25:68:OUT_OUT:e&#45;&gt;StrToInt:IN_IN:w</title>
<path fill="none" stroke="#d59308" stroke-width="2" d="M449,-28C472.431,-28 479.318,-28 500.81,-28"/>
<ellipse fill="#d59308" stroke="#d59308" stroke-width="2" cx="503" cy="-28" rx="2" ry="2"/>
</g>
<!-- StrToInt&#45;&gt;text -->
<g id="edge5" class="edge"><title>StrToInt:OUT_OUT:e&#45;&gt;text:IN_IN:w</title>
<path fill="none" stroke="#0b3022" stroke-width="2" d="M591,-11C621.503,-11 616.568,-50.9717 643.749,-54.719"/>
<ellipse fill="#0b3022" stroke="#0b3022" stroke-width="2" cx="646.004" cy="-54.8681" rx="2" ry="2"/>
</g>
</g>
</svg>
