<?xml version="1.0" encoding="UTF-8" standalone="no"?>
<!DOCTYPE svg PUBLIC "-//W3C//DTD SVG 1.1//EN"
 "http://www.w3.org/Graphics/SVG/1.1/DTD/svg11.dtd">
<!-- Generated by graphviz version 2.36.0 (20140111.2315)
 -->
<!-- Title: fbp Pages: 1 -->
<svg width="174pt" height="62pt"
 viewBox="0.00 0.00 174.00 62.00" xmlns="http://www.w3.org/2000/svg" xmlns:xlink="http://www.w3.org/1999/xlink">
<g id="graph0" class="graph" transform="scale(1 1) rotate(0) translate(4 58)">
<title>fbp</title>
<polygon fill="white" stroke="none" points="-4,4 -4,-58 170,-58 170,4 -4,4"/>
<!-- event -->
<g id="node1" class="node"><title>event</title>
<polygon fill="#feb5f2" stroke="none" points="9,-21 9,-50 68,-50 68,-21 9,-21"/>
<polygon fill="none" stroke="#6a4b65" points="9,-21 9,-50 68,-50 68,-21 9,-21"/>
<text text-anchor="start" x="21.5" y="-36.3" font-family="Helvetica,sans-Serif" font-size="14.00" fill="#000000">event</text>
<text text-anchor="start" x="12.5" y="-27.1" font-family="Helvetica,sans-Serif" font-size="8.00" fill="#000000">evdev/boolean</text>
<polygon fill="#8e6587" stroke="none" points="9,-4 9,-21 68,-21 68,-4 9,-4"/>
<polygon fill="none" stroke="#6a4b65" points="9,-4 9,-21 68,-21 68,-4 9,-4"/>
<text text-anchor="start" x="32" y="-10" font-family="Helvetica,sans-Serif" font-size="10.00" fill="#ffffff">OUT ◉</text>
</g>
<!-- state -->
<g id="node2" class="node"><title>state</title>
<polygon fill="#471ca4" stroke="none" points="121,-21 121,-50 158,-50 158,-21 121,-21"/>
<polygon fill="none" stroke="#1d0b45" points="121,-21 121,-50 158,-50 158,-21 121,-21"/>
<text text-anchor="start" x="124.5" y="-36.3" font-family="Helvetica,sans-Serif" font-size="14.00" fill="#ffffff">state</text>
<text text-anchor="start" x="125.5" y="-27.1" font-family="Helvetica,sans-Serif" font-size="8.00" fill="#ffffff">console</text>
<polygon fill="#35157b" stroke="none" points="121,-4 121,-21 158,-21 158,-4 121,-4"/>
<polygon fill="none" stroke="#1d0b45" points="121,-4 121,-21 158,-21 158,-4 121,-4"/>
<text text-anchor="start" x="124" y="-10" font-family="Helvetica,sans-Serif" font-size="10.00" fill="#ffffff">◎ IN</text>
</g>
<!-- event&#45;&gt;state -->
<g id="edge1" class="edge"><title>event:OUT_OUT:e&#45;&gt;state:IN_IN:w</title>
<path fill="none" stroke="#016c4e" stroke-width="2" d="M69,-12C90.25,-12 96.5586,-12 115.941,-12"/>
<ellipse fill="#016c4e" stroke="#016c4e" stroke-width="2" cx="118" cy="-12" rx="2" ry="2"/>
</g>
</g>
</svg>
