<?xml version="1.0" encoding="UTF-8" standalone="no"?>
<!DOCTYPE svg PUBLIC "-//W3C//DTD SVG 1.1//EN"
 "http://www.w3.org/Graphics/SVG/1.1/DTD/svg11.dtd">
<!-- Generated by graphviz version 2.36.0 (20140111.2315)
 -->
<!-- Title: fbp Pages: 1 -->
<svg width="762pt" height="1286pt"
 viewBox="0.00 0.00 762.00 1286.00" xmlns="http://www.w3.org/2000/svg" xmlns:xlink="http://www.w3.org/1999/xlink">
<g id="graph0" class="graph" transform="scale(1 1) rotate(0) translate(4 1282)">
<title>fbp</title>
<polygon fill="white" stroke="none" points="-4,4 -4,-1282 758,-1282 758,4 -4,4"/>
<!-- Username -->
<g id="node1" class="node"><title>Username</title>
<polygon fill="#4e2e10" stroke="none" points="9,-462 9,-491 80,-491 80,-462 9,-462"/>
<polygon fill="none" stroke="#201206" points="9,-462 9,-491 80,-491 80,-462 9,-462"/>
<text text-anchor="start" x="12.5" y="-477.3" font-family="Helvetica,sans-Serif" font-size="14.00" fill="#ffffff">Username</text>
<text text-anchor="start" x="28.5" y="-468.1" font-family="Helvetica,sans-Serif" font-size="8.00" fill="#ffffff">app/argv</text>
<polygon fill="#2b1909" stroke="none" points="9,-445 9,-462 80,-462 80,-445 9,-445"/>
<polygon fill="none" stroke="#201206" points="9,-445 9,-462 80,-462 80,-445 9,-445"/>
<text text-anchor="start" x="44" y="-451" font-family="Helvetica,sans-Serif" font-size="10.00" fill="#ffffff">OUT ◉</text>
</g>
<!-- Flowers -->
<g id="node6" class="node"><title>Flowers</title>
<polygon fill="#398b1a" stroke="none" points="132,-406 132,-435 218,-435 218,-406 132,-406"/>
<polygon fill="none" stroke="#173a0a" points="132,-406 132,-435 218,-435 218,-406 132,-406"/>
<text text-anchor="start" x="151" y="-421.3" font-family="Helvetica,sans-Serif" font-size="14.00" fill="#ffffff">Flowers</text>
<text text-anchor="start" x="136" y="-412.1" font-family="Helvetica,sans-Serif" font-size="8.00" fill="#ffffff">flower&#45;power/http&#45;get</text>
<polygon fill="#2a6813" stroke="none" points="132,-389 132,-406 218,-406 218,-389 132,-389"/>
<polygon fill="none" stroke="#173a0a" points="132,-389 132,-406 218,-406 218,-389 132,-389"/>
<text text-anchor="start" x="135" y="-395" font-family="Helvetica,sans-Serif" font-size="10.00" fill="#ffffff">◎ USERNAME</text>
<polygon fill="#2a6813" stroke="none" points="132,-372 132,-389 218,-389 218,-372 132,-372"/>
<polygon fill="none" stroke="#173a0a" points="132,-372 132,-389 218,-389 218,-372 132,-372"/>
<text text-anchor="start" x="135" y="-378" font-family="Helvetica,sans-Serif" font-size="10.00" fill="#ffffff">◎ PASSWORD</text>
<polygon fill="#2a6813" stroke="none" points="132,-355 132,-372 218,-372 218,-355 132,-355"/>
<polygon fill="none" stroke="#173a0a" points="132,-355 132,-372 218,-372 218,-355 132,-355"/>
<text text-anchor="start" x="135" y="-361" font-family="Helvetica,sans-Serif" font-size="10.00" fill="#ffffff">◎ GET</text>
<polygon fill="#1f4e0e" stroke="none" points="132,-338 132,-355 218,-355 218,-338 132,-338"/>
<polygon fill="none" stroke="#173a0a" points="132,-338 132,-355 218,-355 218,-338 132,-338"/>
<text text-anchor="start" x="182" y="-344" font-family="Helvetica,sans-Serif" font-size="10.00" fill="#ffffff">OUT ◉</text>
<polygon fill="#1f4e0e" stroke="none" points="132,-321 132,-338 218,-338 218,-321 132,-321"/>
<polygon fill="none" stroke="#173a0a" points="132,-321 132,-338 218,-338 218,-321 132,-321"/>
<text text-anchor="start" x="136" y="-327" font-family="Helvetica,sans-Serif" font-size="10.00" fill="#ffffff">DEVICE_INFO ◉</text>
</g>
<!-- Username&#45;&gt;Flowers -->
<g id="edge1" class="edge"><title>Username:OUT:e&#45;&gt;Flowers:USERNAME:w</title>
<path fill="none" stroke="#f14406" stroke-width="2" d="M81,-453C112.616,-453 99.2548,-402.625 127.006,-398.296"/>
<ellipse fill="#f14406" stroke="#f14406" stroke-width="2" cx="129.005" cy="-398.148" rx="2" ry="2"/>
</g>
<!-- Password -->
<g id="node2" class="node"><title>Password</title>
<polygon fill="#4e2e10" stroke="none" points="11,-390 11,-419 78,-419 78,-390 11,-390"/>
<polygon fill="none" stroke="#201206" points="11,-390 11,-419 78,-419 78,-390 11,-390"/>
<text text-anchor="start" x="14.5" y="-405.3" font-family="Helvetica,sans-Serif" font-size="14.00" fill="#ffffff">Password</text>
<text text-anchor="start" x="28.5" y="-396.1" font-family="Helvetica,sans-Serif" font-size="8.00" fill="#ffffff">app/argv</text>
<polygon fill="#2b1909" stroke="none" points="11,-373 11,-390 78,-390 78,-373 11,-373"/>
<polygon fill="none" stroke="#201206" points="11,-373 11,-390 78,-390 78,-373 11,-373"/>
<text text-anchor="start" x="42" y="-379" font-family="Helvetica,sans-Serif" font-size="10.00" fill="#ffffff">OUT ◉</text>
</g>
<!-- Password&#45;&gt;Flowers -->
<g id="edge2" class="edge"><title>Password:OUT:e&#45;&gt;Flowers:PASSWORD:w</title>
<path fill="none" stroke="#9d5122" stroke-width="2" d="M79,-381C100.667,-381 107.099,-381 126.861,-381"/>
<ellipse fill="#9d5122" stroke="#9d5122" stroke-width="2" cx="129" cy="-381" rx="2" ry="2"/>
</g>
<!-- PlantID -->
<g id="node3" class="node"><title>PlantID</title>
<polygon fill="#4e2e10" stroke="none" points="149,-792 149,-821 201,-821 201,-792 149,-792"/>
<polygon fill="none" stroke="#201206" points="149,-792 149,-821 201,-821 201,-792 149,-792"/>
<text text-anchor="start" x="152.5" y="-807.3" font-family="Helvetica,sans-Serif" font-size="14.00" fill="#ffffff">PlantID</text>
<text text-anchor="start" x="159" y="-798.1" font-family="Helvetica,sans-Serif" font-size="8.00" fill="#ffffff">app/argv</text>
<polygon fill="#2b1909" stroke="none" points="149,-775 149,-792 201,-792 201,-775 149,-775"/>
<polygon fill="none" stroke="#201206" points="149,-775 149,-792 201,-792 201,-775 149,-775"/>
<text text-anchor="start" x="165" y="-781" font-family="Helvetica,sans-Serif" font-size="10.00" fill="#ffffff">OUT ◉</text>
</g>
<!-- Filter -->
<g id="node7" class="node"><title>Filter</title>
<polygon fill="#398b1a" stroke="none" points="284,-791 284,-820 365,-820 365,-791 284,-791"/>
<polygon fill="none" stroke="#173a0a" points="284,-791 284,-820 365,-820 365,-791 284,-791"/>
<text text-anchor="start" x="309" y="-806.3" font-family="Helvetica,sans-Serif" font-size="14.00" fill="#ffffff">Filter</text>
<text text-anchor="start" x="287.5" y="-797.1" font-family="Helvetica,sans-Serif" font-size="8.00" fill="#ffffff">flower&#45;power/filter&#45;id</text>
<polygon fill="#2a6813" stroke="none" points="284,-774 284,-791 365,-791 365,-774 284,-774"/>
<polygon fill="none" stroke="#173a0a" points="284,-774 284,-791 365,-791 365,-774 284,-774"/>
<text text-anchor="start" x="287" y="-780" font-family="Helvetica,sans-Serif" font-size="10.00" fill="#ffffff">◎ ID</text>
<polygon fill="#2a6813" stroke="none" points="284,-757 284,-774 365,-774 365,-757 284,-757"/>
<polygon fill="none" stroke="#173a0a" points="284,-757 284,-774 365,-774 365,-757 284,-757"/>
<text text-anchor="start" x="287" y="-763" font-family="Helvetica,sans-Serif" font-size="10.00" fill="#ffffff">◎ IN</text>
<polygon fill="#1f4e0e" stroke="none" points="284,-740 284,-757 365,-757 365,-740 284,-740"/>
<polygon fill="none" stroke="#173a0a" points="284,-740 284,-757 365,-757 365,-740 284,-740"/>
<text text-anchor="start" x="329" y="-746" font-family="Helvetica,sans-Serif" font-size="10.00" fill="#ffffff">OUT ◉</text>
</g>
<!-- PlantID&#45;&gt;Filter -->
<g id="edge3" class="edge"><title>PlantID:OUT:e&#45;&gt;Filter:ID:w</title>
<path fill="none" stroke="#0be120" stroke-width="2" d="M202,-783C236.594,-783 246.256,-783 278.902,-783"/>
<ellipse fill="#0be120" stroke="#0be120" stroke-width="2" cx="281" cy="-783" rx="2" ry="2"/>
</g>
<!-- SensorID -->
<g id="node4" class="node"><title>SensorID</title>
<polygon fill="#4e2e10" stroke="none" points="143,-478 143,-507 207,-507 207,-478 143,-478"/>
<polygon fill="none" stroke="#201206" points="143,-478 143,-507 207,-507 207,-478 143,-478"/>
<text text-anchor="start" x="146.5" y="-493.3" font-family="Helvetica,sans-Serif" font-size="14.00" fill="#ffffff">SensorID</text>
<text text-anchor="start" x="159" y="-484.1" font-family="Helvetica,sans-Serif" font-size="8.00" fill="#ffffff">app/argv</text>
<polygon fill="#2b1909" stroke="none" points="143,-461 143,-478 207,-478 207,-461 143,-461"/>
<polygon fill="none" stroke="#201206" points="143,-461 143,-478 207,-478 207,-461 143,-461"/>
<text text-anchor="start" x="171" y="-467" font-family="Helvetica,sans-Serif" font-size="10.00" fill="#ffffff">OUT ◉</text>
</g>
<!-- FilterSensor -->
<g id="node9" class="node"><title>FilterSensor</title>
<polygon fill="#398b1a" stroke="none" points="270,-355 270,-384 378,-384 378,-355 270,-355"/>
<polygon fill="none" stroke="#173a0a" points="270,-355 270,-384 378,-384 378,-355 270,-355"/>
<text text-anchor="start" x="287.5" y="-370.3" font-family="Helvetica,sans-Serif" font-size="14.00" fill="#ffffff">FilterSensor</text>
<text text-anchor="start" x="273.5" y="-361.1" font-family="Helvetica,sans-Serif" font-size="8.00" fill="#ffffff">flower&#45;power/filter&#45;sensor&#45;id</text>
<polygon fill="#2a6813" stroke="none" points="270,-338 270,-355 378,-355 378,-338 270,-338"/>
<polygon fill="none" stroke="#173a0a" points="270,-338 270,-355 378,-355 378,-338 270,-338"/>
<text text-anchor="start" x="273" y="-344" font-family="Helvetica,sans-Serif" font-size="10.00" fill="#ffffff">◎ ID</text>
<polygon fill="#2a6813" stroke="none" points="270,-321 270,-338 378,-338 378,-321 270,-321"/>
<polygon fill="none" stroke="#173a0a" points="270,-321 270,-338 378,-338 378,-321 270,-321"/>
<text text-anchor="start" x="273" y="-327" font-family="Helvetica,sans-Serif" font-size="10.00" fill="#ffffff">◎ IN</text>
<polygon fill="#1f4e0e" stroke="none" points="270,-304 270,-321 378,-321 378,-304 270,-304"/>
<polygon fill="none" stroke="#173a0a" points="270,-304 270,-321 378,-321 378,-304 270,-304"/>
<text text-anchor="start" x="342" y="-310" font-family="Helvetica,sans-Serif" font-size="10.00" fill="#ffffff">OUT ◉</text>
</g>
<!-- SensorID&#45;&gt;FilterSensor -->
<g id="edge4" class="edge"><title>SensorID:OUT:e&#45;&gt;FilterSensor:ID:w</title>
<path fill="none" stroke="#f64d76" stroke-width="2" d="M208,-469C267.201,-469 211.135,-352.652 264.934,-347.198"/>
<ellipse fill="#f64d76" stroke="#f64d76" stroke-width="2" cx="267.002" cy="-347.097" rx="2" ry="2"/>
</g>
<!-- Timer -->
<g id="node5" class="node"><title>Timer</title>
<polygon fill="#7f2fae" stroke="none" points="12,-318 12,-347 76,-347 76,-318 12,-318"/>
<polygon fill="none" stroke="#351348" points="12,-318 12,-347 76,-347 76,-318 12,-318"/>
<text text-anchor="start" x="15.5" y="-333.3" font-family="Helvetica,sans-Serif" font-size="14.00" fill="#ffffff">🕐 Timer</text>
<text text-anchor="start" x="34.5" y="-324.1" font-family="Helvetica,sans-Serif" font-size="8.00" fill="#ffffff">timer</text>
<polygon fill="#471a61" stroke="none" points="12,-301 12,-318 76,-318 76,-301 12,-301"/>
<polygon fill="none" stroke="#351348" points="12,-301 12,-318 76,-318 76,-301 12,-301"/>
<text text-anchor="start" x="40" y="-307" font-family="Helvetica,sans-Serif" font-size="10.00" fill="#ffffff">OUT ◉</text>
</g>
<!-- Timer&#45;&gt;Flowers -->
<g id="edge5" class="edge"><title>Timer:OUT:e&#45;&gt;Flowers:GET:w</title>
<path fill="none" stroke="#114948" stroke-width="2" d="M77,-309C109.483,-309 98.1636,-358.459 126.882,-362.709"/>
<ellipse fill="#114948" stroke="#114948" stroke-width="2" cx="129.005" cy="-362.859" rx="2" ry="2"/>
</g>
<!-- Flowers&#45;&gt;Filter -->
<g id="edge6" class="edge"><title>Flowers:OUT:e&#45;&gt;Filter:IN:w</title>
<path fill="none" stroke="#75c566" stroke-width="2" d="M219,-346C311.811,-346 192.406,-752.815 279,-764.733"/>
<ellipse fill="#75c566" stroke="#75c566" stroke-width="2" cx="281.004" cy="-764.867" rx="2" ry="2"/>
</g>
<!-- Flowers&#45;&gt;FilterSensor -->
<g id="edge22" class="edge"><title>Flowers:DEVICE_INFO:e&#45;&gt;FilterSensor:IN:w</title>
<path fill="none" stroke="#155c91" stroke-width="2" d="M219,-329C239.66,-329 245.914,-329 264.548,-329"/>
<ellipse fill="#155c91" stroke="#155c91" stroke-width="2" cx="267" cy="-329" rx="2" ry="2"/>
</g>
<!-- Parser -->
<g id="node8" class="node"><title>Parser</title>
<polygon fill="#398b1a" stroke="none" points="447,-877 447,-906 551,-906 551,-877 447,-877"/>
<polygon fill="none" stroke="#173a0a" points="447,-877 447,-906 551,-906 551,-877 447,-877"/>
<text text-anchor="start" x="479" y="-892.3" font-family="Helvetica,sans-Serif" font-size="14.00" fill="#ffffff">Parser</text>
<text text-anchor="start" x="457.5" y="-883.1" font-family="Helvetica,sans-Serif" font-size="8.00" fill="#ffffff">flower&#45;power/get&#45;value</text>
<polygon fill="#2a6813" stroke="none" points="447,-860 447,-877 551,-877 551,-860 447,-860"/>
<polygon fill="none" stroke="#173a0a" points="447,-860 447,-877 551,-877 551,-860 447,-860"/>
<text text-anchor="start" x="450" y="-866" font-family="Helvetica,sans-Serif" font-size="10.00" fill="#ffffff">◎ IN</text>
<polygon fill="#1f4e0e" stroke="none" points="447,-843 447,-860 551,-860 551,-843 447,-843"/>
<polygon fill="none" stroke="#173a0a" points="447,-843 447,-860 551,-860 551,-843 447,-843"/>
<text text-anchor="start" x="526" y="-849" font-family="Helvetica,sans-Serif" font-size="10.00" fill="#ffffff">ID ◉</text>
<polygon fill="#1f4e0e" stroke="none" points="447,-826 447,-843 551,-843 551,-826 447,-826"/>
<polygon fill="none" stroke="#173a0a" points="447,-826 447,-843 551,-843 551,-826 447,-826"/>
<text text-anchor="start" x="478" y="-832" font-family="Helvetica,sans-Serif" font-size="10.00" fill="#ffffff">TIMESTAMP ◉</text>
<polygon fill="#1f4e0e" stroke="none" points="447,-809 447,-826 551,-826 551,-809 447,-809"/>
<polygon fill="none" stroke="#173a0a" points="447,-809 447,-826 551,-826 551,-809 447,-809"/>
<text text-anchor="start" x="478" y="-815" font-family="Helvetica,sans-Serif" font-size="10.00" fill="#ffffff">FERTILIZER ◉</text>
<polygon fill="#1f4e0e" stroke="none" points="447,-792 447,-809 551,-809 551,-792 447,-792"/>
<polygon fill="none" stroke="#173a0a" points="447,-792 447,-809 551,-809 551,-792 447,-792"/>
<text text-anchor="start" x="454" y="-798" font-family="Helvetica,sans-Serif" font-size="10.00" fill="#ffffff">FERTILIZER_MIN ◉</text>
<polygon fill="#1f4e0e" stroke="none" points="447,-775 447,-792 551,-792 551,-775 447,-775"/>
<polygon fill="none" stroke="#173a0a" points="447,-775 447,-792 551,-792 551,-775 447,-775"/>
<text text-anchor="start" x="451" y="-781" font-family="Helvetica,sans-Serif" font-size="10.00" fill="#ffffff">FERTILIZER_MAX ◉</text>
<polygon fill="#1f4e0e" stroke="none" points="447,-758 447,-775 551,-775 551,-758 447,-758"/>
<polygon fill="none" stroke="#173a0a" points="447,-758 447,-775 551,-775 551,-758 447,-758"/>
<text text-anchor="start" x="507" y="-764" font-family="Helvetica,sans-Serif" font-size="10.00" fill="#ffffff">LIGHT ◉</text>
<polygon fill="#1f4e0e" stroke="none" points="447,-741 447,-758 551,-758 551,-741 447,-741"/>
<polygon fill="none" stroke="#173a0a" points="447,-741 447,-758 551,-758 551,-741 447,-741"/>
<text text-anchor="start" x="483" y="-747" font-family="Helvetica,sans-Serif" font-size="10.00" fill="#ffffff">LIGHT_MIN ◉</text>
<polygon fill="#1f4e0e" stroke="none" points="447,-724 447,-741 551,-741 551,-724 447,-724"/>
<polygon fill="none" stroke="#173a0a" points="447,-724 447,-741 551,-741 551,-724 447,-724"/>
<text text-anchor="start" x="480" y="-730" font-family="Helvetica,sans-Serif" font-size="10.00" fill="#ffffff">LIGHT_MAX ◉</text>
<polygon fill="#1f4e0e" stroke="none" points="447,-707 447,-724 551,-724 551,-707 447,-707"/>
<polygon fill="none" stroke="#173a0a" points="447,-707 447,-724 551,-724 551,-707 447,-707"/>
<text text-anchor="start" x="500" y="-713" font-family="Helvetica,sans-Serif" font-size="10.00" fill="#ffffff">KELVIN ◉</text>
<polygon fill="#1f4e0e" stroke="none" points="447,-690 447,-707 551,-707 551,-690 447,-690"/>
<polygon fill="none" stroke="#173a0a" points="447,-690 447,-707 551,-707 551,-690 447,-690"/>
<text text-anchor="start" x="476" y="-696" font-family="Helvetica,sans-Serif" font-size="10.00" fill="#ffffff">KELVIN_MIN ◉</text>
<polygon fill="#1f4e0e" stroke="none" points="447,-673 447,-690 551,-690 551,-673 447,-673"/>
<polygon fill="none" stroke="#173a0a" points="447,-673 447,-690 551,-690 551,-673 447,-673"/>
<text text-anchor="start" x="473" y="-679" font-family="Helvetica,sans-Serif" font-size="10.00" fill="#ffffff">KELVIN_MAX ◉</text>
<polygon fill="#1f4e0e" stroke="none" points="447,-656 447,-673 551,-673 551,-656 447,-656"/>
<polygon fill="none" stroke="#173a0a" points="447,-656 447,-673 551,-673 551,-656 447,-656"/>
<text text-anchor="start" x="499" y="-662" font-family="Helvetica,sans-Serif" font-size="10.00" fill="#ffffff">WATER ◉</text>
<polygon fill="#1f4e0e" stroke="none" points="447,-639 447,-656 551,-656 551,-639 447,-639"/>
<polygon fill="none" stroke="#173a0a" points="447,-639 447,-656 551,-656 551,-639 447,-639"/>
<text text-anchor="start" x="475" y="-645" font-family="Helvetica,sans-Serif" font-size="10.00" fill="#ffffff">WATER_MIN ◉</text>
<polygon fill="#1f4e0e" stroke="none" points="447,-622 447,-639 551,-639 551,-622 447,-622"/>
<polygon fill="none" stroke="#173a0a" points="447,-622 447,-639 551,-639 551,-622 447,-622"/>
<text text-anchor="start" x="472" y="-628" font-family="Helvetica,sans-Serif" font-size="10.00" fill="#ffffff">WATER_MAX ◉</text>
</g>
<!-- Filter&#45;&gt;Parser -->
<g id="edge7" class="edge"><title>Filter:OUT:e&#45;&gt;Parser:IN:w</title>
<path fill="none" stroke="#9a0fba" stroke-width="2" d="M366,-748C429.084,-748 383.581,-863.857 442,-868.835"/>
<ellipse fill="#9a0fba" stroke="#9a0fba" stroke-width="2" cx="444.002" cy="-868.917" rx="2" ry="2"/>
</g>
<!-- Plant -->
<g id="node11" class="node"><title>Plant</title>
<polygon fill="#471ca4" stroke="none" points="664,-1245 664,-1274 702,-1274 702,-1245 664,-1245"/>
<polygon fill="none" stroke="#1d0b45" points="664,-1245 664,-1274 702,-1274 702,-1245 664,-1245"/>
<text text-anchor="start" x="667.5" y="-1260.3" font-family="Helvetica,sans-Serif" font-size="14.00" fill="#ffffff">Plant</text>
<text text-anchor="start" x="669" y="-1251.1" font-family="Helvetica,sans-Serif" font-size="8.00" fill="#ffffff">console</text>
<polygon fill="#35157b" stroke="none" points="664,-1228 664,-1245 702,-1245 702,-1228 664,-1228"/>
<polygon fill="none" stroke="#1d0b45" points="664,-1228 664,-1245 702,-1245 702,-1228 664,-1228"/>
<text text-anchor="start" x="667" y="-1234" font-family="Helvetica,sans-Serif" font-size="10.00" fill="#ffffff">◎ IN</text>
</g>
<!-- Parser&#45;&gt;Plant -->
<g id="edge8" class="edge"><title>Parser:ID:e&#45;&gt;Plant:IN:w</title>
<path fill="none" stroke="#a22be4" stroke-width="2" d="M552,-852C633.761,-852 561.099,-1151.02 612,-1215 626.366,-1233.06 637.158,-1235.73 658.824,-1235.98"/>
<ellipse fill="#a22be4" stroke="#a22be4" stroke-width="2" cx="661" cy="-1235.99" rx="2" ry="2"/>
</g>
<!-- Timestamp -->
<g id="node12" class="node"><title>Timestamp</title>
<polygon fill="#471ca4" stroke="none" points="645,-1173 645,-1202 721,-1202 721,-1173 645,-1173"/>
<polygon fill="none" stroke="#1d0b45" points="645,-1173 645,-1202 721,-1202 721,-1173 645,-1173"/>
<text text-anchor="start" x="648.5" y="-1188.3" font-family="Helvetica,sans-Serif" font-size="14.00" fill="#ffffff">Timestamp</text>
<text text-anchor="start" x="669" y="-1179.1" font-family="Helvetica,sans-Serif" font-size="8.00" fill="#ffffff">console</text>
<polygon fill="#35157b" stroke="none" points="645,-1156 645,-1173 721,-1173 721,-1156 645,-1156"/>
<polygon fill="none" stroke="#1d0b45" points="645,-1156 645,-1173 721,-1173 721,-1156 645,-1156"/>
<text text-anchor="start" x="648" y="-1162" font-family="Helvetica,sans-Serif" font-size="10.00" fill="#ffffff">◎ IN</text>
</g>
<!-- Parser&#45;&gt;Timestamp -->
<g id="edge9" class="edge"><title>Parser:TIMESTAMP:e&#45;&gt;Timestamp:IN:w</title>
<path fill="none" stroke="#5a406f" stroke-width="2" d="M552,-835C702.349,-835 496.268,-1157.61 639.655,-1163.91"/>
<ellipse fill="#5a406f" stroke="#5a406f" stroke-width="2" cx="642" cy="-1163.96" rx="2" ry="2"/>
</g>
<!-- FertilizerLevel -->
<g id="node13" class="node"><title>FertilizerLevel</title>
<polygon fill="#471ca4" stroke="none" points="637,-1101 637,-1130 729,-1130 729,-1101 637,-1101"/>
<polygon fill="none" stroke="#1d0b45" points="637,-1101 637,-1130 729,-1130 729,-1101 637,-1101"/>
<text text-anchor="start" x="640.5" y="-1116.3" font-family="Helvetica,sans-Serif" font-size="14.00" fill="#ffffff">FertilizerLevel</text>
<text text-anchor="start" x="669" y="-1107.1" font-family="Helvetica,sans-Serif" font-size="8.00" fill="#ffffff">console</text>
<polygon fill="#35157b" stroke="none" points="637,-1084 637,-1101 729,-1101 729,-1084 637,-1084"/>
<polygon fill="none" stroke="#1d0b45" points="637,-1084 637,-1101 729,-1101 729,-1084 637,-1084"/>
<text text-anchor="start" x="640" y="-1090" font-family="Helvetica,sans-Serif" font-size="10.00" fill="#ffffff">◎ IN</text>
</g>
<!-- Parser&#45;&gt;FertilizerLevel -->
<g id="edge10" class="edge"><title>Parser:FERTILIZER:e&#45;&gt;FertilizerLevel:IN:w</title>
<path fill="none" stroke="#ed1d38" stroke-width="2" d="M552,-818C678.004,-818 512.262,-1086.14 631.998,-1091.91"/>
<ellipse fill="#ed1d38" stroke="#ed1d38" stroke-width="2" cx="634.001" cy="-1091.95" rx="2" ry="2"/>
</g>
<!-- FertilizerMin -->
<g id="node14" class="node"><title>FertilizerMin</title>
<polygon fill="#471ca4" stroke="none" points="642,-1029 642,-1058 724,-1058 724,-1029 642,-1029"/>
<polygon fill="none" stroke="#1d0b45" points="642,-1029 642,-1058 724,-1058 724,-1029 642,-1029"/>
<text text-anchor="start" x="645.5" y="-1044.3" font-family="Helvetica,sans-Serif" font-size="14.00" fill="#ffffff">FertilizerMin</text>
<text text-anchor="start" x="669" y="-1035.1" font-family="Helvetica,sans-Serif" font-size="8.00" fill="#ffffff">console</text>
<polygon fill="#35157b" stroke="none" points="642,-1012 642,-1029 724,-1029 724,-1012 642,-1012"/>
<polygon fill="none" stroke="#1d0b45" points="642,-1012 642,-1029 724,-1029 724,-1012 642,-1012"/>
<text text-anchor="start" x="645" y="-1018" font-family="Helvetica,sans-Serif" font-size="10.00" fill="#ffffff">◎ IN</text>
</g>
<!-- Parser&#45;&gt;FertilizerMin -->
<g id="edge11" class="edge"><title>Parser:FERTILIZER_MIN:e&#45;&gt;FertilizerMin:IN:w</title>
<path fill="none" stroke="#994566" stroke-width="2" d="M552,-801C655.627,-801 539.206,-1014.05 636.816,-1019.88"/>
<ellipse fill="#994566" stroke="#994566" stroke-width="2" cx="639.001" cy="-1019.94" rx="2" ry="2"/>
</g>
<!-- FertilizerMax -->
<g id="node15" class="node"><title>FertilizerMax</title>
<polygon fill="#471ca4" stroke="none" points="640,-957 640,-986 726,-986 726,-957 640,-957"/>
<polygon fill="none" stroke="#1d0b45" points="640,-957 640,-986 726,-986 726,-957 640,-957"/>
<text text-anchor="start" x="643.5" y="-972.3" font-family="Helvetica,sans-Serif" font-size="14.00" fill="#ffffff">FertilizerMax</text>
<text text-anchor="start" x="669" y="-963.1" font-family="Helvetica,sans-Serif" font-size="8.00" fill="#ffffff">console</text>
<polygon fill="#35157b" stroke="none" points="640,-940 640,-957 726,-957 726,-940 640,-940"/>
<polygon fill="none" stroke="#1d0b45" points="640,-940 640,-957 726,-957 726,-940 640,-940"/>
<text text-anchor="start" x="643" y="-946" font-family="Helvetica,sans-Serif" font-size="10.00" fill="#ffffff">◎ IN</text>
</g>
<!-- Parser&#45;&gt;FertilizerMax -->
<g id="edge12" class="edge"><title>Parser:FERTILIZER_MAX:e&#45;&gt;FertilizerMax:IN:w</title>
<path fill="none" stroke="#94bdca" stroke-width="2" d="M552,-784C633.06,-784 559.183,-942.285 634.796,-947.85"/>
<ellipse fill="#94bdca" stroke="#94bdca" stroke-width="2" cx="637.001" cy="-947.929" rx="2" ry="2"/>
</g>
<!-- Sunlight -->
<g id="node16" class="node"><title>Sunlight</title>
<polygon fill="#471ca4" stroke="none" points="655,-885 655,-914 711,-914 711,-885 655,-885"/>
<polygon fill="none" stroke="#1d0b45" points="655,-885 655,-914 711,-914 711,-885 655,-885"/>
<text text-anchor="start" x="658.5" y="-900.3" font-family="Helvetica,sans-Serif" font-size="14.00" fill="#ffffff">Sunlight</text>
<text text-anchor="start" x="669" y="-891.1" font-family="Helvetica,sans-Serif" font-size="8.00" fill="#ffffff">console</text>
<polygon fill="#35157b" stroke="none" points="655,-868 655,-885 711,-885 711,-868 655,-868"/>
<polygon fill="none" stroke="#1d0b45" points="655,-868 655,-885 711,-885 711,-868 655,-868"/>
<text text-anchor="start" x="658" y="-874" font-family="Helvetica,sans-Serif" font-size="10.00" fill="#ffffff">◎ IN</text>
</g>
<!-- Parser&#45;&gt;Sunlight -->
<g id="edge13" class="edge"><title>Parser:LIGHT:e&#45;&gt;Sunlight:IN:w</title>
<path fill="none" stroke="#60c9f4" stroke-width="2" d="M552,-767C599.337,-767 576.35,-823.858 612,-855 626.612,-867.765 632.318,-874.946 649.818,-875.892"/>
<ellipse fill="#60c9f4" stroke="#60c9f4" stroke-width="2" cx="652.001" cy="-875.949" rx="2" ry="2"/>
</g>
<!-- SunlightMin -->
<g id="node17" class="node"><title>SunlightMin</title>
<polygon fill="#471ca4" stroke="none" points="644,-813 644,-842 723,-842 723,-813 644,-813"/>
<polygon fill="none" stroke="#1d0b45" points="644,-813 644,-842 723,-842 723,-813 644,-813"/>
<text text-anchor="start" x="647.5" y="-828.3" font-family="Helvetica,sans-Serif" font-size="14.00" fill="#ffffff">SunlightMin</text>
<text text-anchor="start" x="669.5" y="-819.1" font-family="Helvetica,sans-Serif" font-size="8.00" fill="#ffffff">console</text>
<polygon fill="#35157b" stroke="none" points="644,-796 644,-813 723,-813 723,-796 644,-796"/>
<polygon fill="none" stroke="#1d0b45" points="644,-796 644,-813 723,-813 723,-796 644,-796"/>
<text text-anchor="start" x="647" y="-802" font-family="Helvetica,sans-Serif" font-size="10.00" fill="#ffffff">◎ IN</text>
</g>
<!-- Parser&#45;&gt;SunlightMin -->
<g id="edge14" class="edge"><title>Parser:LIGHT_MIN:e&#45;&gt;SunlightMin:IN:w</title>
<path fill="none" stroke="#73815a" stroke-width="2" d="M552,-749C597.873,-749 595.905,-800.825 638.975,-803.861"/>
<ellipse fill="#73815a" stroke="#73815a" stroke-width="2" cx="641.001" cy="-803.931" rx="2" ry="2"/>
</g>
<!-- SunlightMax -->
<g id="node18" class="node"><title>SunlightMax</title>
<polygon fill="#471ca4" stroke="none" points="642,-741 642,-770 725,-770 725,-741 642,-741"/>
<polygon fill="none" stroke="#1d0b45" points="642,-741 642,-770 725,-770 725,-741 642,-741"/>
<text text-anchor="start" x="645.5" y="-756.3" font-family="Helvetica,sans-Serif" font-size="14.00" fill="#ffffff">SunlightMax</text>
<text text-anchor="start" x="669.5" y="-747.1" font-family="Helvetica,sans-Serif" font-size="8.00" fill="#ffffff">console</text>
<polygon fill="#35157b" stroke="none" points="642,-724 642,-741 725,-741 725,-724 642,-724"/>
<polygon fill="none" stroke="#1d0b45" points="642,-724 642,-741 725,-741 725,-724 642,-724"/>
<text text-anchor="start" x="645" y="-730" font-family="Helvetica,sans-Serif" font-size="10.00" fill="#ffffff">◎ IN</text>
</g>
<!-- Parser&#45;&gt;SunlightMax -->
<g id="edge15" class="edge"><title>Parser:LIGHT_MAX:e&#45;&gt;SunlightMax:IN:w</title>
<path fill="none" stroke="#e305ea" stroke-width="2" d="M552,-732C590.165,-732 600.712,-732 636.936,-732"/>
<ellipse fill="#e305ea" stroke="#e305ea" stroke-width="2" cx="639" cy="-732" rx="2" ry="2"/>
</g>
<!-- Temperature -->
<g id="node19" class="node"><title>Temperature</title>
<polygon fill="#471ca4" stroke="none" points="640,-669 640,-698 726,-698 726,-669 640,-669"/>
<polygon fill="none" stroke="#1d0b45" points="640,-669 640,-698 726,-698 726,-669 640,-669"/>
<text text-anchor="start" x="643.5" y="-684.3" font-family="Helvetica,sans-Serif" font-size="14.00" fill="#ffffff">Temperature</text>
<text text-anchor="start" x="669" y="-675.1" font-family="Helvetica,sans-Serif" font-size="8.00" fill="#ffffff">console</text>
<polygon fill="#35157b" stroke="none" points="640,-652 640,-669 726,-669 726,-652 640,-652"/>
<polygon fill="none" stroke="#1d0b45" points="640,-652 640,-669 726,-669 726,-652 640,-652"/>
<text text-anchor="start" x="643" y="-658" font-family="Helvetica,sans-Serif" font-size="10.00" fill="#ffffff">◎ IN</text>
</g>
<!-- Parser&#45;&gt;Temperature -->
<g id="edge16" class="edge"><title>Parser:KELVIN:e&#45;&gt;Temperature:IN:w</title>
<path fill="none" stroke="#3e5454" stroke-width="2" d="M552,-715C596.316,-715 593.486,-663.384 634.855,-660.158"/>
<ellipse fill="#3e5454" stroke="#3e5454" stroke-width="2" cx="637.001" cy="-660.076" rx="2" ry="2"/>
</g>
<!-- TemperatureMin -->
<g id="node20" class="node"><title>TemperatureMin</title>
<polygon fill="#471ca4" stroke="none" points="629,-597 629,-626 737,-626 737,-597 629,-597"/>
<polygon fill="none" stroke="#1d0b45" points="629,-597 629,-626 737,-626 737,-597 629,-597"/>
<text text-anchor="start" x="632.5" y="-612.3" font-family="Helvetica,sans-Serif" font-size="14.00" fill="#ffffff">TemperatureMin</text>
<text text-anchor="start" x="669" y="-603.1" font-family="Helvetica,sans-Serif" font-size="8.00" fill="#ffffff">console</text>
<polygon fill="#35157b" stroke="none" points="629,-580 629,-597 737,-597 737,-580 629,-580"/>
<polygon fill="none" stroke="#1d0b45" points="629,-580 629,-597 737,-597 737,-580 629,-580"/>
<text text-anchor="start" x="632" y="-586" font-family="Helvetica,sans-Serif" font-size="10.00" fill="#ffffff">◎ IN</text>
</g>
<!-- Parser&#45;&gt;TemperatureMin -->
<g id="edge17" class="edge"><title>Parser:KELVIN_MIN:e&#45;&gt;TemperatureMin:IN:w</title>
<path fill="none" stroke="#597efd" stroke-width="2" d="M552,-698C610.03,-698 570.529,-593.096 623.988,-588.178"/>
<ellipse fill="#597efd" stroke="#597efd" stroke-width="2" cx="626.002" cy="-588.089" rx="2" ry="2"/>
</g>
<!-- TemperatureMax -->
<g id="node21" class="node"><title>TemperatureMax</title>
<polygon fill="#471ca4" stroke="none" points="627,-525 627,-554 739,-554 739,-525 627,-525"/>
<polygon fill="none" stroke="#1d0b45" points="627,-525 627,-554 739,-554 739,-525 627,-525"/>
<text text-anchor="start" x="630.5" y="-540.3" font-family="Helvetica,sans-Serif" font-size="14.00" fill="#ffffff">TemperatureMax</text>
<text text-anchor="start" x="669" y="-531.1" font-family="Helvetica,sans-Serif" font-size="8.00" fill="#ffffff">console</text>
<polygon fill="#35157b" stroke="none" points="627,-508 627,-525 739,-525 739,-508 627,-508"/>
<polygon fill="none" stroke="#1d0b45" points="627,-508 627,-525 739,-525 739,-508 627,-508"/>
<text text-anchor="start" x="630" y="-514" font-family="Helvetica,sans-Serif" font-size="10.00" fill="#ffffff">◎ IN</text>
</g>
<!-- Parser&#45;&gt;TemperatureMax -->
<g id="edge18" class="edge"><title>Parser:KELVIN_MAX:e&#45;&gt;TemperatureMax:IN:w</title>
<path fill="none" stroke="#16465f" stroke-width="2" d="M552,-681C630.958,-681 548.627,-521.75 621.915,-516.151"/>
<ellipse fill="#16465f" stroke="#16465f" stroke-width="2" cx="624.001" cy="-516.074" rx="2" ry="2"/>
</g>
<!-- WaterLevel -->
<g id="node22" class="node"><title>WaterLevel</title>
<polygon fill="#471ca4" stroke="none" points="645,-453 645,-482 722,-482 722,-453 645,-453"/>
<polygon fill="none" stroke="#1d0b45" points="645,-453 645,-482 722,-482 722,-453 645,-453"/>
<text text-anchor="start" x="648.5" y="-468.3" font-family="Helvetica,sans-Serif" font-size="14.00" fill="#ffffff">WaterLevel</text>
<text text-anchor="start" x="669.5" y="-459.1" font-family="Helvetica,sans-Serif" font-size="8.00" fill="#ffffff">console</text>
<polygon fill="#35157b" stroke="none" points="645,-436 645,-453 722,-453 722,-436 645,-436"/>
<polygon fill="none" stroke="#1d0b45" points="645,-436 645,-453 722,-453 722,-436 645,-436"/>
<text text-anchor="start" x="648" y="-442" font-family="Helvetica,sans-Serif" font-size="10.00" fill="#ffffff">◎ IN</text>
</g>
<!-- Parser&#45;&gt;WaterLevel -->
<g id="edge19" class="edge"><title>Parser:WATER:e&#45;&gt;WaterLevel:IN:w</title>
<path fill="none" stroke="#923df2" stroke-width="2" d="M552,-664C656.534,-664 541.255,-449.975 639.779,-444.122"/>
<ellipse fill="#923df2" stroke="#923df2" stroke-width="2" cx="642.001" cy="-444.058" rx="2" ry="2"/>
</g>
<!-- WaterLevelMin -->
<g id="node23" class="node"><title>WaterLevelMin</title>
<polygon fill="#471ca4" stroke="none" points="634,-381 634,-410 733,-410 733,-381 634,-381"/>
<polygon fill="none" stroke="#1d0b45" points="634,-381 634,-410 733,-410 733,-381 634,-381"/>
<text text-anchor="start" x="637.5" y="-396.3" font-family="Helvetica,sans-Serif" font-size="14.00" fill="#ffffff">WaterLevelMin</text>
<text text-anchor="start" x="669.5" y="-387.1" font-family="Helvetica,sans-Serif" font-size="8.00" fill="#ffffff">console</text>
<polygon fill="#35157b" stroke="none" points="634,-364 634,-381 733,-381 733,-364 634,-364"/>
<polygon fill="none" stroke="#1d0b45" points="634,-364 634,-381 733,-381 733,-364 634,-364"/>
<text text-anchor="start" x="637" y="-370" font-family="Helvetica,sans-Serif" font-size="10.00" fill="#ffffff">◎ IN</text>
</g>
<!-- Parser&#45;&gt;WaterLevelMin -->
<g id="edge20" class="edge"><title>Parser:WATER_MIN:e&#45;&gt;WaterLevelMin:IN:w</title>
<path fill="none" stroke="#71d884" stroke-width="2" d="M552,-647C678.045,-647 509.286,-377.876 628.997,-372.095"/>
<ellipse fill="#71d884" stroke="#71d884" stroke-width="2" cx="631.001" cy="-372.047" rx="2" ry="2"/>
</g>
<!-- WaterLevelMax -->
<g id="node24" class="node"><title>WaterLevelMax</title>
<polygon fill="#471ca4" stroke="none" points="632,-309 632,-338 735,-338 735,-309 632,-309"/>
<polygon fill="none" stroke="#1d0b45" points="632,-309 632,-338 735,-338 735,-309 632,-309"/>
<text text-anchor="start" x="635.5" y="-324.3" font-family="Helvetica,sans-Serif" font-size="14.00" fill="#ffffff">WaterLevelMax</text>
<text text-anchor="start" x="669.5" y="-315.1" font-family="Helvetica,sans-Serif" font-size="8.00" fill="#ffffff">console</text>
<polygon fill="#35157b" stroke="none" points="632,-292 632,-309 735,-309 735,-292 632,-292"/>
<polygon fill="none" stroke="#1d0b45" points="632,-292 632,-309 735,-309 735,-292 632,-292"/>
<text text-anchor="start" x="635" y="-298" font-family="Helvetica,sans-Serif" font-size="10.00" fill="#ffffff">◎ IN</text>
</g>
<!-- Parser&#45;&gt;WaterLevelMax -->
<g id="edge21" class="edge"><title>Parser:WATER_MAX:e&#45;&gt;WaterLevelMax:IN:w</title>
<path fill="none" stroke="#e15c34" stroke-width="2" d="M552,-630C701.338,-630 484.502,-306.414 626.688,-300.094"/>
<ellipse fill="#e15c34" stroke="#e15c34" stroke-width="2" cx="629" cy="-300.044" rx="2" ry="2"/>
</g>
<!-- ParserSensor -->
<g id="node10" class="node"><title>ParserSensor</title>
<polygon fill="#398b1a" stroke="none" points="431,-199 431,-228 568,-228 568,-199 431,-199"/>
<polygon fill="none" stroke="#173a0a" points="431,-199 431,-228 568,-228 568,-199 431,-199"/>
<text text-anchor="start" x="458" y="-214.3" font-family="Helvetica,sans-Serif" font-size="14.00" fill="#ffffff">ParserSensor</text>
<text text-anchor="start" x="444.5" y="-205.1" font-family="Helvetica,sans-Serif" font-size="8.00" fill="#ffffff">flower&#45;power/get&#45;sensor&#45;value</text>
<polygon fill="#2a6813" stroke="none" points="431,-182 431,-199 568,-199 568,-182 431,-182"/>
<polygon fill="none" stroke="#173a0a" points="431,-182 431,-199 568,-199 568,-182 431,-182"/>
<text text-anchor="start" x="434" y="-188" font-family="Helvetica,sans-Serif" font-size="10.00" fill="#ffffff">◎ IN</text>
<polygon fill="#1f4e0e" stroke="none" points="431,-165 431,-182 568,-182 568,-165 431,-165"/>
<polygon fill="none" stroke="#173a0a" points="431,-165 431,-182 568,-182 568,-165 431,-165"/>
<text text-anchor="start" x="543" y="-171" font-family="Helvetica,sans-Serif" font-size="10.00" fill="#ffffff">ID ◉</text>
<polygon fill="#1f4e0e" stroke="none" points="431,-148 431,-165 568,-165 568,-148 431,-148"/>
<polygon fill="none" stroke="#173a0a" points="431,-148 431,-165 568,-165 568,-148 431,-148"/>
<text text-anchor="start" x="495" y="-154" font-family="Helvetica,sans-Serif" font-size="10.00" fill="#ffffff">TIMESTAMP ◉</text>
<polygon fill="#1f4e0e" stroke="none" points="431,-131 431,-148 568,-148 568,-131 431,-131"/>
<polygon fill="none" stroke="#173a0a" points="431,-131 431,-148 568,-148 568,-131 431,-131"/>
<text text-anchor="start" x="435" y="-137" font-family="Helvetica,sans-Serif" font-size="10.00" fill="#ffffff">BATTERY_END_OF_LIFE ◉</text>
<polygon fill="#1f4e0e" stroke="none" points="431,-114 431,-131 568,-131 568,-114 431,-114"/>
<polygon fill="none" stroke="#173a0a" points="431,-114 431,-131 568,-131 568,-114 431,-114"/>
<text text-anchor="start" x="471" y="-120" font-family="Helvetica,sans-Serif" font-size="10.00" fill="#ffffff">BATTERY_LEVEL ◉</text>
</g>
<!-- FilterSensor&#45;&gt;ParserSensor -->
<g id="edge23" class="edge"><title>FilterSensor:OUT:e&#45;&gt;ParserSensor:IN:w</title>
<path fill="none" stroke="#659016" stroke-width="2" d="M379,-312C435.878,-312 374.898,-197.067 425.791,-191.23"/>
<ellipse fill="#659016" stroke="#659016" stroke-width="2" cx="428.003" cy="-191.109" rx="2" ry="2"/>
</g>
<!-- Sensor -->
<g id="node25" class="node"><title>Sensor</title>
<polygon fill="#471ca4" stroke="none" points="658,-237 658,-266 708,-266 708,-237 658,-237"/>
<polygon fill="none" stroke="#1d0b45" points="658,-237 658,-266 708,-266 708,-237 658,-237"/>
<text text-anchor="start" x="661.5" y="-252.3" font-family="Helvetica,sans-Serif" font-size="14.00" fill="#ffffff">Sensor</text>
<text text-anchor="start" x="669" y="-243.1" font-family="Helvetica,sans-Serif" font-size="8.00" fill="#ffffff">console</text>
<polygon fill="#35157b" stroke="none" points="658,-220 658,-237 708,-237 708,-220 658,-220"/>
<polygon fill="none" stroke="#1d0b45" points="658,-220 658,-237 708,-237 708,-220 658,-220"/>
<text text-anchor="start" x="661" y="-226" font-family="Helvetica,sans-Serif" font-size="10.00" fill="#ffffff">◎ IN</text>
</g>
<!-- ParserSensor&#45;&gt;Sensor -->
<g id="edge24" class="edge"><title>ParserSensor:ID:e&#45;&gt;Sensor:IN:w</title>
<path fill="none" stroke="#88525c" stroke-width="2" d="M569,-174C593.09,-174 591.407,-194.499 612,-207 629.54,-217.648 634.285,-226.648 652.6,-227.861"/>
<ellipse fill="#88525c" stroke="#88525c" stroke-width="2" cx="655.001" cy="-227.937" rx="2" ry="2"/>
</g>
<!-- SensorTimestamp -->
<g id="node26" class="node"><title>SensorTimestamp</title>
<polygon fill="#471ca4" stroke="none" points="624,-165 624,-194 743,-194 743,-165 624,-165"/>
<polygon fill="none" stroke="#1d0b45" points="624,-165 624,-194 743,-194 743,-165 624,-165"/>
<text text-anchor="start" x="627.5" y="-180.3" font-family="Helvetica,sans-Serif" font-size="14.00" fill="#ffffff">SensorTimestamp</text>
<text text-anchor="start" x="669.5" y="-171.1" font-family="Helvetica,sans-Serif" font-size="8.00" fill="#ffffff">console</text>
<polygon fill="#35157b" stroke="none" points="624,-148 624,-165 743,-165 743,-148 624,-148"/>
<polygon fill="none" stroke="#1d0b45" points="624,-148 624,-165 743,-165 743,-148 624,-148"/>
<text text-anchor="start" x="627" y="-154" font-family="Helvetica,sans-Serif" font-size="10.00" fill="#ffffff">◎ IN</text>
</g>
<!-- ParserSensor&#45;&gt;SensorTimestamp -->
<g id="edge25" class="edge"><title>ParserSensor:TIMESTAMP:e&#45;&gt;SensorTimestamp:IN:w</title>
<path fill="none" stroke="#5fc1f0" stroke-width="2" d="M569,-156C591.594,-156 598.235,-156 618.959,-156"/>
<ellipse fill="#5fc1f0" stroke="#5fc1f0" stroke-width="2" cx="621" cy="-156" rx="2" ry="2"/>
</g>
<!-- SensorBatteryEOL -->
<g id="node27" class="node"><title>SensorBatteryEOL</title>
<polygon fill="#471ca4" stroke="none" points="623,-93 623,-122 744,-122 744,-93 623,-93"/>
<polygon fill="none" stroke="#1d0b45" points="623,-93 623,-122 744,-122 744,-93 623,-93"/>
<text text-anchor="start" x="626.5" y="-108.3" font-family="Helvetica,sans-Serif" font-size="14.00" fill="#ffffff">SensorBatteryEOL</text>
<text text-anchor="start" x="669.5" y="-99.1" font-family="Helvetica,sans-Serif" font-size="8.00" fill="#ffffff">console</text>
<polygon fill="#35157b" stroke="none" points="623,-76 623,-93 744,-93 744,-76 623,-76"/>
<polygon fill="none" stroke="#1d0b45" points="623,-76 623,-93 744,-93 744,-76 623,-76"/>
<text text-anchor="start" x="626" y="-82" font-family="Helvetica,sans-Serif" font-size="10.00" fill="#ffffff">◎ IN</text>
</g>
<!-- ParserSensor&#45;&gt;SensorBatteryEOL -->
<g id="edge26" class="edge"><title>ParserSensor:BATTERY_END_OF_LIFE:e&#45;&gt;SensorBatteryEOL:IN:w</title>
<path fill="none" stroke="#e60842" stroke-width="2" d="M569,-139C601.488,-139 589.243,-88.625 617.887,-84.2959"/>
<ellipse fill="#e60842" stroke="#e60842" stroke-width="2" cx="620.005" cy="-84.1436" rx="2" ry="2"/>
</g>
<!-- SensorBatteryLevel -->
<g id="node28" class="node"><title>SensorBatteryLevel</title>
<polygon fill="#471ca4" stroke="none" points="621,-21 621,-50 746,-50 746,-21 621,-21"/>
<polygon fill="none" stroke="#1d0b45" points="621,-21 621,-50 746,-50 746,-21 621,-21"/>
<text text-anchor="start" x="624.5" y="-36.3" font-family="Helvetica,sans-Serif" font-size="14.00" fill="#ffffff">SensorBatteryLevel</text>
<text text-anchor="start" x="669.5" y="-27.1" font-family="Helvetica,sans-Serif" font-size="8.00" fill="#ffffff">console</text>
<polygon fill="#35157b" stroke="none" points="621,-4 621,-21 746,-21 746,-4 621,-4"/>
<polygon fill="none" stroke="#1d0b45" points="621,-4 621,-21 746,-21 746,-4 621,-4"/>
<text text-anchor="start" x="624" y="-10" font-family="Helvetica,sans-Serif" font-size="10.00" fill="#ffffff">◎ IN</text>
</g>
<!-- ParserSensor&#45;&gt;SensorBatteryLevel -->
<g id="edge27" class="edge"><title>ParserSensor:BATTERY_LEVEL:e&#45;&gt;SensorBatteryLevel:IN:w</title>
<path fill="none" stroke="#b52a42" stroke-width="2" d="M569,-122C621.414,-122 569.134,-17.9334 615.823,-12.2422"/>
<ellipse fill="#b52a42" stroke="#b52a42" stroke-width="2" cx="618.003" cy="-12.1158" rx="2" ry="2"/>
</g>
</g>
</svg>
