<?xml version="1.0" encoding="UTF-8" standalone="no"?>
<!DOCTYPE svg PUBLIC "-//W3C//DTD SVG 1.1//EN"
 "http://www.w3.org/Graphics/SVG/1.1/DTD/svg11.dtd">
<!-- Generated by graphviz version 2.36.0 (20140111.2315)
 -->
<!-- Title: fbp Pages: 1 -->
<svg width="312pt" height="164pt"
 viewBox="0.00 0.00 312.00 164.00" xmlns="http://www.w3.org/2000/svg" xmlns:xlink="http://www.w3.org/1999/xlink">
<g id="graph0" class="graph" transform="scale(1 1) rotate(0) translate(4 160)">
<title>fbp</title>
<polygon fill="white" stroke="none" points="-4,4 -4,-160 308,-160 308,4 -4,4"/>
<!-- magnet -->
<g id="node1" class="node"><title>magnet</title>
<polygon fill="#5a1538" stroke="none" points="125,-95 125,-124 190,-124 190,-95 125,-95"/>
<polygon fill="none" stroke="#250817" points="125,-95 125,-124 190,-124 190,-95 125,-95"/>
<text text-anchor="start" x="134.5" y="-110.3" font-family="Helvetica,sans-Serif" font-size="14.00" fill="#ffffff">magnet</text>
<text text-anchor="start" x="138.5" y="-101.1" font-family="Helvetica,sans-Serif" font-size="8.00" fill="#ffffff">MyMagnet</text>
<polygon fill="#430f2a" stroke="none" points="125,-78 125,-95 190,-95 190,-78 125,-78"/>
<polygon fill="none" stroke="#250817" points="125,-78 125,-95 190,-95 190,-78 125,-78"/>
<text text-anchor="start" x="128" y="-84" font-family="Helvetica,sans-Serif" font-size="10.00" fill="#ffffff">◎ TRIGGER</text>
<polygon fill="#430f2a" stroke="none" points="125,-61 125,-78 190,-78 190,-61 125,-61"/>
<polygon fill="none" stroke="#250817" points="125,-61 125,-78 190,-78 190,-61 125,-61"/>
<text text-anchor="start" x="128" y="-67" font-family="Helvetica,sans-Serif" font-size="10.00" fill="#ffffff">◎ TICK</text>
<polygon fill="#320b1f" stroke="none" points="125,-44 125,-61 190,-61 190,-44 125,-44"/>
<polygon fill="none" stroke="#250817" points="125,-44 125,-61 190,-61 190,-44 125,-44"/>
<text text-anchor="start" x="142" y="-50" font-family="Helvetica,sans-Serif" font-size="10.00" fill="#ffffff">SCALE ◉</text>
<polygon fill="#320b1f" stroke="none" points="125,-27 125,-44 190,-44 190,-27 125,-27"/>
<polygon fill="none" stroke="#250817" points="125,-27 125,-44 190,-44 190,-27 125,-27"/>
<text text-anchor="start" x="154" y="-33" font-family="Helvetica,sans-Serif" font-size="10.00" fill="#ffffff">OUT ◉</text>
</g>
<!-- #anon:28:40 -->
<g id="node4" class="node"><title>#anon:28:40</title>
<polygon fill="#471ca4" stroke="none" points="242,-85 242,-107 296,-107 296,-85 242,-85"/>
<polygon fill="none" stroke="#1d0b45" points="242,-85 242,-107 296,-107 296,-85 242,-85"/>
<text text-anchor="start" x="245.5" y="-92.3" font-family="Helvetica,sans-Serif" font-size="14.00" fill="#ffffff">console</text>
<polygon fill="#35157b" stroke="none" points="242,-68 242,-85 296,-85 296,-68 242,-68"/>
<polygon fill="none" stroke="#1d0b45" points="242,-68 242,-85 296,-85 296,-68 242,-68"/>
<text text-anchor="start" x="245" y="-74" font-family="Helvetica,sans-Serif" font-size="10.00" fill="#ffffff">◎ IN</text>
</g>
<!-- magnet&#45;&gt;#anon:28:40 -->
<g id="edge2" class="edge"><title>magnet:OUT_SCALE:e&#45;&gt;#anon:28:40:IN_IN:w</title>
<path fill="none" stroke="#8fb0be" stroke-width="2" d="M191,-52C214.205,-52 216.186,-73.2699 236.904,-75.7625"/>
<ellipse fill="#8fb0be" stroke="#8fb0be" stroke-width="2" cx="239.003" cy="-75.8842" rx="2" ry="2"/>
</g>
<!-- #anon:29:36 -->
<g id="node5" class="node"><title>#anon:29:36</title>
<polygon fill="#471ca4" stroke="none" points="242,-20 242,-42 296,-42 296,-20 242,-20"/>
<polygon fill="none" stroke="#1d0b45" points="242,-20 242,-42 296,-42 296,-20 242,-20"/>
<text text-anchor="start" x="245.5" y="-27.3" font-family="Helvetica,sans-Serif" font-size="14.00" fill="#ffffff">console</text>
<polygon fill="#35157b" stroke="none" points="242,-3 242,-20 296,-20 296,-3 242,-3"/>
<polygon fill="none" stroke="#1d0b45" points="242,-3 242,-20 296,-20 296,-3 242,-3"/>
<text text-anchor="start" x="245" y="-9" font-family="Helvetica,sans-Serif" font-size="10.00" fill="#ffffff">◎ IN</text>
</g>
<!-- magnet&#45;&gt;#anon:29:36 -->
<g id="edge4" class="edge"><title>magnet:OUT_OUT:e&#45;&gt;#anon:29:36:IN_IN:w</title>
<path fill="none" stroke="#a09aee" stroke-width="2" d="M191,-35C214.205,-35 216.186,-13.7301 236.904,-11.2375"/>
<ellipse fill="#a09aee" stroke="#a09aee" stroke-width="2" cx="239.003" cy="-11.1158" rx="2" ry="2"/>
</g>
<!-- timer -->
<g id="node2" class="node"><title>timer</title>
<polygon fill="#7f2fae" stroke="none" points="8,-51 8,-80 72,-80 72,-51 8,-51"/>
<polygon fill="none" stroke="#351348" points="8,-51 8,-80 72,-80 72,-51 8,-51"/>
<text text-anchor="start" x="11.5" y="-66.3" font-family="Helvetica,sans-Serif" font-size="14.00" fill="#ffffff">🕐 Timer</text>
<text text-anchor="start" x="30.5" y="-57.1" font-family="Helvetica,sans-Serif" font-size="8.00" fill="#ffffff">timer</text>
<polygon fill="#471a61" stroke="none" points="8,-34 8,-51 72,-51 72,-34 8,-34"/>
<polygon fill="none" stroke="#351348" points="8,-34 8,-51 72,-51 72,-34 8,-34"/>
<text text-anchor="start" x="36" y="-40" font-family="Helvetica,sans-Serif" font-size="10.00" fill="#ffffff">OUT ◉</text>
</g>
<!-- timer&#45;&gt;magnet -->
<g id="edge3" class="edge"><title>timer:OUT_OUT:e&#45;&gt;magnet:IN_TICK:w</title>
<path fill="none" stroke="#52e986" stroke-width="2" d="M73,-42C97.1444,-42 98.2983,-65.9286 119.748,-68.7328"/>
<ellipse fill="#52e986" stroke="#52e986" stroke-width="2" cx="122.004" cy="-68.8745" rx="2" ry="2"/>
</g>
<!-- tick -->
<g id="node3" class="node"><title>tick</title>
<polygon fill="#e8ea7a" stroke="none" points="9,-123 9,-152 71,-152 71,-123 9,-123"/>
<polygon fill="none" stroke="#616233" points="9,-123 9,-152 71,-152 71,-123 9,-123"/>
<text text-anchor="start" x="29.5" y="-138.3" font-family="Helvetica,sans-Serif" font-size="14.00" fill="#000000">tick</text>
<text text-anchor="start" x="12.5" y="-129.1" font-family="Helvetica,sans-Serif" font-size="8.00" fill="#000000">constant/empty</text>
<polygon fill="#828344" stroke="none" points="9,-106 9,-123 71,-123 71,-106 9,-106"/>
<polygon fill="none" stroke="#616233" points="9,-106 9,-123 71,-123 71,-106 9,-106"/>
<text text-anchor="start" x="35" y="-112" font-family="Helvetica,sans-Serif" font-size="10.00" fill="#ffffff">OUT ◉</text>
</g>
<!-- tick&#45;&gt;magnet -->
<g id="edge1" class="edge"><title>tick:OUT_OUT:e&#45;&gt;magnet:IN_TRIGGER:w</title>
<path fill="none" stroke="#926dfa" stroke-width="2" d="M72,-114C96.6167,-114 97.89,-89.8724 119.954,-87.2334"/>
<ellipse fill="#926dfa" stroke="#926dfa" stroke-width="2" cx="122.003" cy="-87.1152" rx="2" ry="2"/>
</g>
</g>
</svg>
