<?xml version="1.0" encoding="UTF-8" standalone="no"?>
<!DOCTYPE svg PUBLIC "-//W3C//DTD SVG 1.1//EN"
 "http://www.w3.org/Graphics/SVG/1.1/DTD/svg11.dtd">
<!-- Generated by graphviz version 2.36.0 (20140111.2315)
 -->
<!-- Title: fbp Pages: 1 -->
<svg width="696pt" height="151pt"
 viewBox="0.00 0.00 696.00 151.00" xmlns="http://www.w3.org/2000/svg" xmlns:xlink="http://www.w3.org/1999/xlink">
<g id="graph0" class="graph" transform="scale(1 1) rotate(0) translate(4 147)">
<title>fbp</title>
<polygon fill="white" stroke="none" points="-4,4 -4,-147 692,-147 692,4 -4,4"/>
<!-- constant_duty_cycle_step -->
<g id="node1" class="node"><title>constant_duty_cycle_step</title>
<polygon fill="#e8ea7a" stroke="none" points="125,-110 125,-139 288,-139 288,-110 125,-110"/>
<polygon fill="none" stroke="#616233" points="125,-110 125,-139 288,-139 288,-110 125,-110"/>
<text text-anchor="start" x="128.5" y="-125.3" font-family="Helvetica,sans-Serif" font-size="14.00" fill="#000000">constant_duty_cycle_step</text>
<text text-anchor="start" x="182.5" y="-116.1" font-family="Helvetica,sans-Serif" font-size="8.00" fill="#000000">constant/float</text>
<polygon fill="#828344" stroke="none" points="125,-93 125,-110 288,-110 288,-93 125,-93"/>
<polygon fill="none" stroke="#616233" points="125,-93 125,-110 288,-110 288,-93 125,-93"/>
<text text-anchor="start" x="252" y="-99" font-family="Helvetica,sans-Serif" font-size="10.00" fill="#ffffff">OUT ◉</text>
</g>
<!-- mult -->
<g id="node4" class="node"><title>mult</title>
<polygon fill="#503fc2" stroke="none" points="340,-65 340,-94 410,-94 410,-65 340,-65"/>
<polygon fill="none" stroke="#211a51" points="340,-65 340,-94 410,-94 410,-65 340,-65"/>
<text text-anchor="start" x="361.5" y="-80.3" font-family="Helvetica,sans-Serif" font-size="14.00" fill="#ffffff">mult</text>
<text text-anchor="start" x="343.5" y="-71.1" font-family="Helvetica,sans-Serif" font-size="8.00" fill="#ffffff">float/multiplication</text>
<polygon fill="#3c2f91" stroke="none" points="340,-48 340,-65 410,-65 410,-48 340,-48"/>
<polygon fill="none" stroke="#211a51" points="340,-48 340,-65 410,-65 410,-48 340,-48"/>
<text text-anchor="start" x="343" y="-54" font-family="Helvetica,sans-Serif" font-size="10.00" fill="#ffffff">◎ OPERAND</text>
<polygon fill="#2d236c" stroke="none" points="340,-31 340,-48 410,-48 410,-31 340,-31"/>
<polygon fill="none" stroke="#211a51" points="340,-31 340,-48 410,-48 410,-31 340,-31"/>
<text text-anchor="start" x="374" y="-37" font-family="Helvetica,sans-Serif" font-size="10.00" fill="#ffffff">OUT ◉</text>
</g>
<!-- constant_duty_cycle_step&#45;&gt;mult -->
<g id="edge2" class="edge"><title>constant_duty_cycle_step:OUT_OUT:e&#45;&gt;mult:IN_OPERAND:w</title>
<path fill="none" stroke="#5978c3" stroke-width="2" d="M289,-101C317.379,-101 309.995,-60.4543 334.742,-56.3363"/>
<ellipse fill="#5978c3" stroke="#5978c3" stroke-width="2" cx="337.006" cy="-56.1575" rx="2" ry="2"/>
</g>
<!-- timer -->
<g id="node2" class="node"><title>timer</title>
<polygon fill="#7f2fae" stroke="none" points="8,-37 8,-66 72,-66 72,-37 8,-37"/>
<polygon fill="none" stroke="#351348" points="8,-37 8,-66 72,-66 72,-37 8,-37"/>
<text text-anchor="start" x="11.5" y="-52.3" font-family="Helvetica,sans-Serif" font-size="14.00" fill="#ffffff">🕐 Timer</text>
<text text-anchor="start" x="30.5" y="-43.1" font-family="Helvetica,sans-Serif" font-size="8.00" fill="#ffffff">timer</text>
<polygon fill="#471a61" stroke="none" points="8,-20 8,-37 72,-37 72,-20 8,-20"/>
<polygon fill="none" stroke="#351348" points="8,-20 8,-37 72,-37 72,-20 8,-20"/>
<text text-anchor="start" x="36" y="-26" font-family="Helvetica,sans-Serif" font-size="10.00" fill="#ffffff">OUT ◉</text>
</g>
<!-- wave -->
<g id="node3" class="node"><title>wave</title>
<polygon fill="#503fc2" stroke="none" points="144,-37 144,-66 268,-66 268,-37 144,-37"/>
<polygon fill="none" stroke="#211a51" points="144,-37 144,-66 268,-66 268,-37 144,-37"/>
<text text-anchor="start" x="190" y="-52.3" font-family="Helvetica,sans-Serif" font-size="14.00" fill="#ffffff">wave</text>
<text text-anchor="start" x="147.5" y="-43.1" font-family="Helvetica,sans-Serif" font-size="8.00" fill="#ffffff">float/wave&#45;generator&#45;trapezoidal</text>
<polygon fill="#3c2f91" stroke="none" points="144,-20 144,-37 268,-37 268,-20 144,-20"/>
<polygon fill="none" stroke="#211a51" points="144,-20 144,-37 268,-37 268,-20 144,-20"/>
<text text-anchor="start" x="147" y="-26" font-family="Helvetica,sans-Serif" font-size="10.00" fill="#ffffff">◎ TICK</text>
<polygon fill="#2d236c" stroke="none" points="144,-3 144,-20 268,-20 268,-3 144,-3"/>
<polygon fill="none" stroke="#211a51" points="144,-3 144,-20 268,-20 268,-3 144,-3"/>
<text text-anchor="start" x="232" y="-9" font-family="Helvetica,sans-Serif" font-size="10.00" fill="#ffffff">OUT ◉</text>
</g>
<!-- timer&#45;&gt;wave -->
<g id="edge1" class="edge"><title>timer:OUT_OUT:e&#45;&gt;wave:IN_TICK:w</title>
<path fill="none" stroke="#95b670" stroke-width="2" d="M73,-28C102.653,-28 111.108,-28 138.774,-28"/>
<ellipse fill="#95b670" stroke="#95b670" stroke-width="2" cx="141" cy="-28" rx="2" ry="2"/>
</g>
<!-- wave&#45;&gt;mult -->
<g id="edge3" class="edge"><title>wave:OUT_OUT:e&#45;&gt;mult:IN_OPERAND:w</title>
<path fill="none" stroke="#268130" stroke-width="2" d="M269,-11C304.54,-11 302.263,-52.553 334.848,-55.7994"/>
<ellipse fill="#268130" stroke="#268130" stroke-width="2" cx="337.002" cy="-55.9034" rx="2" ry="2"/>
</g>
<!-- conv -->
<g id="node5" class="node"><title>conv</title>
<polygon fill="#bd648a" stroke="none" points="462,-48 462,-77 542,-77 542,-48 462,-48"/>
<polygon fill="none" stroke="#4e2a39" points="462,-48 462,-77 542,-77 542,-48 462,-48"/>
<text text-anchor="start" x="487.5" y="-63.3" font-family="Helvetica,sans-Serif" font-size="14.00" fill="#000000">conv</text>
<text text-anchor="start" x="465.5" y="-54.1" font-family="Helvetica,sans-Serif" font-size="8.00" fill="#000000">converter/float&#45;to&#45;int</text>
<polygon fill="#8d4b67" stroke="none" points="462,-31 462,-48 542,-48 542,-31 462,-31"/>
<polygon fill="none" stroke="#4e2a39" points="462,-31 462,-48 542,-48 542,-31 462,-31"/>
<text text-anchor="start" x="465" y="-37" font-family="Helvetica,sans-Serif" font-size="10.00" fill="#ffffff">◎ IN</text>
<polygon fill="#69384d" stroke="none" points="462,-14 462,-31 542,-31 542,-14 462,-14"/>
<polygon fill="none" stroke="#4e2a39" points="462,-14 462,-31 542,-31 542,-14 462,-14"/>
<text text-anchor="start" x="506" y="-20" font-family="Helvetica,sans-Serif" font-size="10.00" fill="#ffffff">OUT ◉</text>
</g>
<!-- mult&#45;&gt;conv -->
<g id="edge4" class="edge"><title>mult:OUT_OUT:e&#45;&gt;conv:IN_IN:w</title>
<path fill="none" stroke="#ed00fc" stroke-width="2" d="M411,-39C431.66,-39 437.914,-39 456.548,-39"/>
<ellipse fill="#ed00fc" stroke="#ed00fc" stroke-width="2" cx="459" cy="-39" rx="2" ry="2"/>
</g>
<!-- led -->
<g id="node6" class="node"><title>led</title>
<polygon fill="#8b0178" stroke="none" points="594,-31 594,-60 680,-60 680,-31 594,-31"/>
<polygon fill="none" stroke="#3a0032" points="594,-31 594,-60 680,-60 680,-31 594,-31"/>
<text text-anchor="start" x="627.5" y="-46.3" font-family="Helvetica,sans-Serif" font-size="14.00" fill="#ffffff">led</text>
<text text-anchor="start" x="617" y="-37.1" font-family="Helvetica,sans-Serif" font-size="8.00" fill="#ffffff">LED_PWM</text>
<polygon fill="#68005a" stroke="none" points="594,-14 594,-31 680,-31 680,-14 594,-14"/>
<polygon fill="none" stroke="#3a0032" points="594,-14 594,-31 680,-31 680,-14 594,-14"/>
<text text-anchor="start" x="597" y="-20" font-family="Helvetica,sans-Serif" font-size="10.00" fill="#ffffff">◎ DUTY_CYCLE</text>
</g>
<!-- conv&#45;&gt;led -->
<g id="edge5" class="edge"><title>conv:OUT_OUT:e&#45;&gt;led:IN_DUTY_CYCLE:w</title>
<path fill="none" stroke="#057c61" stroke-width="2" d="M543,-22C563.66,-22 569.914,-22 588.548,-22"/>
<ellipse fill="#057c61" stroke="#057c61" stroke-width="2" cx="591" cy="-22" rx="2" ry="2"/>
</g>
</g>
</svg>
