<?xml version="1.0" encoding="UTF-8" standalone="no"?>
<!DOCTYPE svg PUBLIC "-//W3C//DTD SVG 1.1//EN"
 "http://www.w3.org/Graphics/SVG/1.1/DTD/svg11.dtd">
<!-- Generated by graphviz version 2.36.0 (20140111.2315)
 -->
<!-- Title: fbp Pages: 1 -->
<svg width="160pt" height="62pt"
 viewBox="0.00 0.00 160.00 62.00" xmlns="http://www.w3.org/2000/svg" xmlns:xlink="http://www.w3.org/1999/xlink">
<g id="graph0" class="graph" transform="scale(1 1) rotate(0) translate(4 58)">
<title>fbp</title>
<polygon fill="white" stroke="none" points="-4,4 -4,-58 156,-58 156,4 -4,4"/>
<!-- button -->
<g id="node1" class="node"><title>button</title>
<polygon fill="#a9679e" stroke="none" points="9,-21 9,-50 54,-50 54,-21 9,-21"/>
<polygon fill="none" stroke="#462a42" points="9,-21 9,-50 54,-50 54,-21 9,-21"/>
<text text-anchor="start" x="12.5" y="-36.3" font-family="Helvetica,sans-Serif" font-size="14.00" fill="#000000">button</text>
<text text-anchor="start" x="19.5" y="-27.1" font-family="Helvetica,sans-Serif" font-size="8.00" fill="#000000">Button</text>
<polygon fill="#5e3958" stroke="none" points="9,-4 9,-21 54,-21 54,-4 9,-4"/>
<polygon fill="none" stroke="#462a42" points="9,-4 9,-21 54,-21 54,-4 9,-4"/>
<text text-anchor="start" x="18" y="-10" font-family="Helvetica,sans-Serif" font-size="10.00" fill="#ffffff">OUT ◉</text>
</g>
<!-- relay -->
<g id="node2" class="node"><title>relay</title>
<polygon fill="#ab26a8" stroke="none" points="107,-21 107,-50 144,-50 144,-21 107,-21"/>
<polygon fill="none" stroke="#480f46" points="107,-21 107,-50 144,-50 144,-21 107,-21"/>
<text text-anchor="start" x="110.5" y="-36.3" font-family="Helvetica,sans-Serif" font-size="14.00" fill="#ffffff">relay</text>
<text text-anchor="start" x="115" y="-27.1" font-family="Helvetica,sans-Serif" font-size="8.00" fill="#ffffff">Relay</text>
<polygon fill="#801c7e" stroke="none" points="107,-4 107,-21 144,-21 144,-4 107,-4"/>
<polygon fill="none" stroke="#480f46" points="107,-4 107,-21 144,-21 144,-4 107,-4"/>
<text text-anchor="start" x="110" y="-10" font-family="Helvetica,sans-Serif" font-size="10.00" fill="#ffffff">◎ IN</text>
</g>
<!-- button&#45;&gt;relay -->
<g id="edge1" class="edge"><title>button:OUT_OUT:e&#45;&gt;relay:IN_IN:w</title>
<path fill="none" stroke="#470efc" stroke-width="2" d="M55,-12C76.25,-12 82.5586,-12 101.941,-12"/>
<ellipse fill="#470efc" stroke="#470efc" stroke-width="2" cx="104" cy="-12" rx="2" ry="2"/>
</g>
</g>
</svg>
