<?xml version="1.0" encoding="UTF-8" standalone="no"?>
<!DOCTYPE svg PUBLIC "-//W3C//DTD SVG 1.1//EN"
 "http://www.w3.org/Graphics/SVG/1.1/DTD/svg11.dtd">
<!-- Generated by graphviz version 2.36.0 (20140111.2315)
 -->
<!-- Title: fbp Pages: 1 -->
<svg width="722pt" height="151pt"
 viewBox="0.00 0.00 722.00 151.00" xmlns="http://www.w3.org/2000/svg" xmlns:xlink="http://www.w3.org/1999/xlink">
<g id="graph0" class="graph" transform="scale(1 1) rotate(0) translate(4 147)">
<title>fbp</title>
<polygon fill="white" stroke="none" points="-4,4 -4,-147 718,-147 718,4 -4,4"/>
<!-- const_celsius_symbol -->
<g id="node1" class="node"><title>const_celsius_symbol</title>
<polygon fill="#e8ea7a" stroke="none" points="340,-110 340,-139 480,-139 480,-110 340,-110"/>
<polygon fill="none" stroke="#616233" points="340,-110 340,-139 480,-139 480,-110 340,-110"/>
<text text-anchor="start" x="343.5" y="-125.3" font-family="Helvetica,sans-Serif" font-size="14.00" fill="#000000">const_celsius_symbol</text>
<text text-anchor="start" x="384" y="-116.1" font-family="Helvetica,sans-Serif" font-size="8.00" fill="#000000">constant/string</text>
<polygon fill="#828344" stroke="none" points="340,-93 340,-110 480,-110 480,-93 340,-93"/>
<polygon fill="none" stroke="#616233" points="340,-93 340,-110 480,-110 480,-93 340,-93"/>
<text text-anchor="start" x="444" y="-99" font-family="Helvetica,sans-Serif" font-size="10.00" fill="#ffffff">OUT ◉</text>
</g>
<!-- concat -->
<g id="node5" class="node"><title>concat</title>
<polygon fill="#c1ee90" stroke="none" points="533,-65 533,-94 606,-94 606,-65 533,-65"/>
<polygon fill="none" stroke="#51633c" points="533,-65 533,-94 606,-94 606,-65 533,-65"/>
<text text-anchor="start" x="549.5" y="-80.3" font-family="Helvetica,sans-Serif" font-size="14.00" fill="#000000">concat</text>
<text text-anchor="start" x="536.5" y="-71.1" font-family="Helvetica,sans-Serif" font-size="8.00" fill="#000000">string/concatenate</text>
<polygon fill="#90b26c" stroke="none" points="533,-48 533,-65 606,-65 606,-48 533,-48"/>
<polygon fill="none" stroke="#51633c" points="533,-48 533,-65 606,-65 606,-48 533,-48"/>
<text text-anchor="start" x="536" y="-54" font-family="Helvetica,sans-Serif" font-size="10.00" fill="#000000">◎ IN</text>
<polygon fill="#6c8551" stroke="none" points="533,-31 533,-48 606,-48 606,-31 533,-31"/>
<polygon fill="none" stroke="#51633c" points="533,-31 533,-48 606,-48 606,-31 533,-31"/>
<text text-anchor="start" x="570" y="-37" font-family="Helvetica,sans-Serif" font-size="10.00" fill="#ffffff">OUT ◉</text>
</g>
<!-- const_celsius_symbol&#45;&gt;concat -->
<g id="edge4" class="edge"><title>const_celsius_symbol:OUT_OUT:e&#45;&gt;concat:IN_IN:w</title>
<path fill="none" stroke="#d49384" stroke-width="2" d="M481,-101C509.812,-101 502.571,-60.1199 528.003,-56.2874"/>
<ellipse fill="#d49384" stroke="#d49384" stroke-width="2" cx="530.005" cy="-56.1434" rx="2" ry="2"/>
</g>
<!-- thermometer -->
<g id="node2" class="node"><title>thermometer</title>
<polygon fill="#72cdec" stroke="none" points="8,-54 8,-83 94,-83 94,-54 8,-54"/>
<polygon fill="none" stroke="#2f5563" points="8,-54 8,-83 94,-83 94,-54 8,-54"/>
<text text-anchor="start" x="11.5" y="-69.3" font-family="Helvetica,sans-Serif" font-size="14.00" fill="#000000">thermometer</text>
<text text-anchor="start" x="26" y="-60.1" font-family="Helvetica,sans-Serif" font-size="8.00" fill="#000000">Thermometer</text>
<polygon fill="#3f7284" stroke="none" points="8,-37 8,-54 94,-54 94,-37 8,-37"/>
<polygon fill="none" stroke="#2f5563" points="8,-37 8,-54 94,-54 94,-37 8,-37"/>
<text text-anchor="start" x="43" y="-43" font-family="Helvetica,sans-Serif" font-size="10.00" fill="#ffffff">KELVIN ◉</text>
</g>
<!-- #anon:27:43 -->
<g id="node3" class="node"><title>#anon:27:43</title>
<polygon fill="#8b33f6" stroke="none" points="147,-54 147,-76 288,-76 288,-54 147,-54"/>
<polygon fill="none" stroke="#3a1567" points="147,-54 147,-76 288,-76 288,-54 147,-54"/>
<text text-anchor="start" x="150.5" y="-61.3" font-family="Helvetica,sans-Serif" font-size="14.00" fill="#ffffff">temperature/converter</text>
<polygon fill="#6826b8" stroke="none" points="147,-37 147,-54 288,-54 288,-37 147,-37"/>
<polygon fill="none" stroke="#3a1567" points="147,-37 147,-54 288,-54 288,-37 147,-37"/>
<text text-anchor="start" x="150" y="-43" font-family="Helvetica,sans-Serif" font-size="10.00" fill="#ffffff">◎ KELVIN</text>
<polygon fill="#4e1c8a" stroke="none" points="147,-20 147,-37 288,-37 288,-20 147,-20"/>
<polygon fill="none" stroke="#3a1567" points="147,-20 147,-37 288,-37 288,-20 147,-20"/>
<text text-anchor="start" x="230" y="-26" font-family="Helvetica,sans-Serif" font-size="10.00" fill="#ffffff">CELSIUS ◉</text>
</g>
<!-- thermometer&#45;&gt;#anon:27:43 -->
<g id="edge1" class="edge"><title>thermometer:OUT_KELVIN:e&#45;&gt;#anon:27:43:IN_KELVIN:w</title>
<path fill="none" stroke="#61af06" stroke-width="2" d="M95,-45C116.25,-45 122.559,-45 141.941,-45"/>
<ellipse fill="#61af06" stroke="#61af06" stroke-width="2" cx="144" cy="-45" rx="2" ry="2"/>
</g>
<!-- converter -->
<g id="node4" class="node"><title>converter</title>
<polygon fill="#bd648a" stroke="none" points="365,-37 365,-66 456,-66 456,-37 365,-37"/>
<polygon fill="none" stroke="#4e2a39" points="365,-37 365,-66 456,-66 456,-37 365,-37"/>
<text text-anchor="start" x="382" y="-52.3" font-family="Helvetica,sans-Serif" font-size="14.00" fill="#000000">converter</text>
<text text-anchor="start" x="368.5" y="-43.1" font-family="Helvetica,sans-Serif" font-size="8.00" fill="#000000">converter/float&#45;to&#45;string</text>
<polygon fill="#8d4b67" stroke="none" points="365,-20 365,-37 456,-37 456,-20 365,-20"/>
<polygon fill="none" stroke="#4e2a39" points="365,-20 365,-37 456,-37 456,-20 365,-20"/>
<text text-anchor="start" x="368" y="-26" font-family="Helvetica,sans-Serif" font-size="10.00" fill="#ffffff">◎ IN</text>
<polygon fill="#69384d" stroke="none" points="365,-3 365,-20 456,-20 456,-3 365,-3"/>
<polygon fill="none" stroke="#4e2a39" points="365,-3 365,-20 456,-20 456,-3 365,-3"/>
<text text-anchor="start" x="420" y="-9" font-family="Helvetica,sans-Serif" font-size="10.00" fill="#ffffff">OUT ◉</text>
</g>
<!-- #anon:27:43&#45;&gt;converter -->
<g id="edge2" class="edge"><title>#anon:27:43:OUT_CELSIUS:e&#45;&gt;converter:IN_IN:w</title>
<path fill="none" stroke="#ea7b0e" stroke-width="2" d="M289,-28C320.901,-28 329.904,-28 359.838,-28"/>
<ellipse fill="#ea7b0e" stroke="#ea7b0e" stroke-width="2" cx="362" cy="-28" rx="2" ry="2"/>
</g>
<!-- converter&#45;&gt;concat -->
<g id="edge3" class="edge"><title>converter:OUT_OUT:e&#45;&gt;concat:IN_IN:w</title>
<path fill="none" stroke="#e771f8" stroke-width="2" d="M457,-11C494.355,-11 493.278,-52.553 527.63,-55.7994"/>
<ellipse fill="#e771f8" stroke="#e771f8" stroke-width="2" cx="530.002" cy="-55.9082" rx="2" ry="2"/>
</g>
<!-- screen -->
<g id="node6" class="node"><title>screen</title>
<polygon fill="#72d2de" stroke="none" points="658,-48 658,-77 706,-77 706,-48 658,-48"/>
<polygon fill="none" stroke="#2f575d" points="658,-48 658,-77 706,-77 706,-48 658,-48"/>
<text text-anchor="start" x="661.5" y="-63.3" font-family="Helvetica,sans-Serif" font-size="14.00" fill="#000000">screen</text>
<text text-anchor="start" x="663" y="-54.1" font-family="Helvetica,sans-Serif" font-size="8.00" fill="#000000">LCDString</text>
<polygon fill="#559da6" stroke="none" points="658,-31 658,-48 706,-48 706,-31 658,-31"/>
<polygon fill="none" stroke="#2f575d" points="658,-31 658,-48 706,-48 706,-31 658,-31"/>
<text text-anchor="start" x="661" y="-37" font-family="Helvetica,sans-Serif" font-size="10.00" fill="#000000">◎ IN</text>
</g>
<!-- concat&#45;&gt;screen -->
<g id="edge5" class="edge"><title>concat:OUT_OUT:e&#45;&gt;screen:IN_IN:w</title>
<path fill="none" stroke="#8ac586" stroke-width="2" d="M607,-39C627.66,-39 633.914,-39 652.548,-39"/>
<ellipse fill="#8ac586" stroke="#8ac586" stroke-width="2" cx="655" cy="-39" rx="2" ry="2"/>
</g>
</g>
</svg>
