<?xml version="1.0" encoding="UTF-8" standalone="no"?>
<!DOCTYPE svg PUBLIC "-//W3C//DTD SVG 1.1//EN"
 "http://www.w3.org/Graphics/SVG/1.1/DTD/svg11.dtd">
<!-- Generated by graphviz version 2.36.0 (20140111.2315)
 -->
<!-- Title: fbp Pages: 1 -->
<svg width="308pt" height="134pt"
 viewBox="0.00 0.00 308.00 134.00" xmlns="http://www.w3.org/2000/svg" xmlns:xlink="http://www.w3.org/1999/xlink">
<g id="graph0" class="graph" transform="scale(1 1) rotate(0) translate(4 130)">
<title>fbp</title>
<polygon fill="white" stroke="none" points="-4,4 -4,-130 304,-130 304,4 -4,4"/>
<!-- threshold -->
<g id="node1" class="node"><title>threshold</title>
<polygon fill="#e8ea7a" stroke="none" points="9,-93 9,-122 72,-122 72,-93 9,-93"/>
<polygon fill="none" stroke="#616233" points="9,-93 9,-122 72,-122 72,-93 9,-93"/>
<text text-anchor="start" x="12.5" y="-108.3" font-family="Helvetica,sans-Serif" font-size="14.00" fill="#000000">threshold</text>
<text text-anchor="start" x="20" y="-99.1" font-family="Helvetica,sans-Serif" font-size="8.00" fill="#000000">constant/int</text>
<polygon fill="#828344" stroke="none" points="9,-76 9,-93 72,-93 72,-76 9,-76"/>
<polygon fill="none" stroke="#616233" points="9,-76 9,-93 72,-93 72,-76 9,-76"/>
<text text-anchor="start" x="36" y="-82" font-family="Helvetica,sans-Serif" font-size="10.00" fill="#ffffff">OUT ◉</text>
</g>
<!-- compare -->
<g id="node3" class="node"><title>compare</title>
<polygon fill="#254878" stroke="none" points="125,-57 125,-86 202,-86 202,-57 125,-57"/>
<polygon fill="none" stroke="#0f1e32" points="125,-57 125,-86 202,-86 202,-57 125,-57"/>
<text text-anchor="start" x="136.5" y="-72.3" font-family="Helvetica,sans-Serif" font-size="14.00" fill="#ffffff">compare</text>
<text text-anchor="start" x="128.5" y="-63.1" font-family="Helvetica,sans-Serif" font-size="8.00" fill="#ffffff">int/greater&#45;or&#45;equal</text>
<polygon fill="#1b365a" stroke="none" points="125,-40 125,-57 202,-57 202,-40 125,-40"/>
<polygon fill="none" stroke="#0f1e32" points="125,-40 125,-57 202,-57 202,-40 125,-40"/>
<text text-anchor="start" x="128" y="-46" font-family="Helvetica,sans-Serif" font-size="10.00" fill="#ffffff">◎ IN</text>
<polygon fill="#142843" stroke="none" points="125,-23 125,-40 202,-40 202,-23 125,-23"/>
<polygon fill="none" stroke="#0f1e32" points="125,-23 125,-40 202,-40 202,-23 125,-23"/>
<text text-anchor="start" x="166" y="-29" font-family="Helvetica,sans-Serif" font-size="10.00" fill="#ffffff">OUT ◉</text>
</g>
<!-- threshold&#45;&gt;compare -->
<g id="edge2" class="edge"><title>threshold:OUT:e&#45;&gt;compare:IN:w</title>
<path fill="none" stroke="#44e07a" stroke-width="2" d="M73,-84C99.2276,-84 96.6498,-51.8298 119.727,-48.3112"/>
<ellipse fill="#44e07a" stroke="#44e07a" stroke-width="2" cx="122.005" cy="-48.1453" rx="2" ry="2"/>
</g>
<!-- sensor -->
<g id="node2" class="node"><title>sensor</title>
<polygon fill="#cb0674" stroke="none" points="12,-21 12,-50 68,-50 68,-21 12,-21"/>
<polygon fill="none" stroke="#550230" points="12,-21 12,-50 68,-50 68,-21 12,-21"/>
<text text-anchor="start" x="19.5" y="-36.3" font-family="Helvetica,sans-Serif" font-size="14.00" fill="#ffffff">sensor</text>
<text text-anchor="start" x="15.5" y="-27.1" font-family="Helvetica,sans-Serif" font-size="8.00" fill="#ffffff">SoundSensor</text>
<polygon fill="#720341" stroke="none" points="12,-4 12,-21 68,-21 68,-4 12,-4"/>
<polygon fill="none" stroke="#550230" points="12,-4 12,-21 68,-21 68,-4 12,-4"/>
<text text-anchor="start" x="32" y="-10" font-family="Helvetica,sans-Serif" font-size="10.00" fill="#ffffff">OUT ◉</text>
</g>
<!-- sensor&#45;&gt;compare -->
<g id="edge1" class="edge"><title>sensor:OUT:e&#45;&gt;compare:IN:w</title>
<path fill="none" stroke="#e9935e" stroke-width="2" d="M69,-12C96.7317,-12 95.049,-44.4366 119.793,-47.7309"/>
<ellipse fill="#e9935e" stroke="#e9935e" stroke-width="2" cx="122.004" cy="-47.8723" rx="2" ry="2"/>
</g>
<!-- led -->
<g id="node4" class="node"><title>led</title>
<polygon fill="#ca1178" stroke="none" points="259,-40 259,-69 288,-69 288,-40 259,-40"/>
<polygon fill="none" stroke="#540632" points="259,-40 259,-69 288,-69 288,-40 259,-40"/>
<text text-anchor="start" x="264" y="-55.3" font-family="Helvetica,sans-Serif" font-size="14.00" fill="#ffffff">led</text>
<text text-anchor="start" x="265.5" y="-46.1" font-family="Helvetica,sans-Serif" font-size="8.00" fill="#ffffff">LED</text>
<polygon fill="#970c5a" stroke="none" points="259,-23 259,-40 288,-40 288,-23 259,-23"/>
<polygon fill="none" stroke="#540632" points="259,-23 259,-40 288,-40 288,-23 259,-23"/>
<text text-anchor="start" x="262" y="-29" font-family="Helvetica,sans-Serif" font-size="10.00" fill="#ffffff">◎ IN</text>
</g>
<!-- compare&#45;&gt;led -->
<g id="edge3" class="edge"><title>compare:OUT:e&#45;&gt;led:IN:w</title>
<path fill="none" stroke="#1a2226" stroke-width="2" d="M203,-31C226.012,-31 232.776,-31 253.885,-31"/>
<ellipse fill="#1a2226" stroke="#1a2226" stroke-width="2" cx="256" cy="-31" rx="2" ry="2"/>
</g>
</g>
</svg>
