<?xml version="1.0" encoding="UTF-8" standalone="no"?>
<!DOCTYPE svg PUBLIC "-//W3C//DTD SVG 1.1//EN"
 "http://www.w3.org/Graphics/SVG/1.1/DTD/svg11.dtd">
<!-- Generated by graphviz version 2.36.0 (20140111.2315)
 -->
<!-- Title: fbp Pages: 1 -->
<svg width="1688pt" height="489pt"
 viewBox="0.00 0.00 1688.15 488.83" xmlns="http://www.w3.org/2000/svg" xmlns:xlink="http://www.w3.org/1999/xlink">
<g id="graph0" class="graph" transform="scale(1 1) rotate(0) translate(4 484.83)">
<title>fbp</title>
<polygon fill="white" stroke="none" points="-4,4 -4,-484.83 1684.15,-484.83 1684.15,4 -4,4"/>
<!-- false -->
<g id="node1" class="node"><title>false</title>
<polygon fill="#e8ea7a" stroke="none" points="8,-315.83 8,-344.83 76,-344.83 76,-315.83 8,-315.83"/>
<polygon fill="none" stroke="#616233" points="8,-315.83 8,-344.83 76,-344.83 76,-315.83 8,-315.83"/>
<text text-anchor="start" x="27.5" y="-331.13" font-family="Helvetica,sans-Serif" font-size="14.00" fill="#000000">false</text>
<text text-anchor="start" x="11.5" y="-321.93" font-family="Helvetica,sans-Serif" font-size="8.00" fill="#000000">constant/boolean</text>
<polygon fill="#828344" stroke="none" points="8,-298.83 8,-315.83 76,-315.83 76,-298.83 8,-298.83"/>
<polygon fill="none" stroke="#616233" points="8,-298.83 8,-315.83 76,-315.83 76,-298.83 8,-298.83"/>
<text text-anchor="start" x="40" y="-304.83" font-family="Helvetica,sans-Serif" font-size="10.00" fill="#ffffff">OUT ◉</text>
</g>
<!-- timer_mid_delay -->
<g id="node4" class="node"><title>timer_mid_delay</title>
<polygon fill="#7f2fae" stroke="none" points="128,-314.83 128,-343.83 194,-343.83 194,-314.83 128,-314.83"/>
<polygon fill="none" stroke="#351348" points="128,-314.83 128,-343.83 194,-343.83 194,-314.83 128,-314.83"/>
<text text-anchor="start" x="132.5" y="-330.13" font-family="Helvetica,sans-Serif" font-size="14.00" fill="#ffffff">🕐 Timer</text>
<text text-anchor="start" x="151.5" y="-320.93" font-family="Helvetica,sans-Serif" font-size="8.00" fill="#ffffff">timer</text>
<polygon fill="#5f2382" stroke="none" points="128,-297.83 128,-314.83 194,-314.83 194,-297.83 128,-297.83"/>
<polygon fill="none" stroke="#351348" points="128,-297.83 128,-314.83 194,-314.83 194,-297.83 128,-297.83"/>
<text text-anchor="start" x="131" y="-303.83" font-family="Helvetica,sans-Serif" font-size="10.00" fill="#ffffff">◎ ENABLED</text>
<polygon fill="#5f2382" stroke="none" points="128,-280.83 128,-297.83 194,-297.83 194,-280.83 128,-280.83"/>
<polygon fill="none" stroke="#351348" points="128,-280.83 128,-297.83 194,-297.83 194,-280.83 128,-280.83"/>
<text text-anchor="start" x="131" y="-286.83" font-family="Helvetica,sans-Serif" font-size="10.00" fill="#ffffff">◎ RESET</text>
<polygon fill="#471a61" stroke="none" points="128,-263.83 128,-280.83 194,-280.83 194,-263.83 128,-263.83"/>
<polygon fill="none" stroke="#351348" points="128,-263.83 128,-280.83 194,-280.83 194,-263.83 128,-263.83"/>
<text text-anchor="start" x="158" y="-269.83" font-family="Helvetica,sans-Serif" font-size="10.00" fill="#ffffff">OUT ◉</text>
</g>
<!-- false&#45;&gt;timer_mid_delay -->
<g id="edge2" class="edge"><title>false:OUT_OUT:e&#45;&gt;timer_mid_delay:IN_ENABLED:w</title>
<path fill="none" stroke="#1227f0" stroke-width="2" d="M77,-306.83C97.6597,-306.83 103.914,-306.83 122.548,-306.83"/>
<ellipse fill="#1227f0" stroke="#1227f0" stroke-width="2" cx="125" cy="-306.83" rx="2" ry="2"/>
</g>
<!-- timer_dec -->
<g id="node5" class="node"><title>timer_dec</title>
<polygon fill="#7f2fae" stroke="none" points="246,-227.83 246,-256.83 312,-256.83 312,-227.83 246,-227.83"/>
<polygon fill="none" stroke="#351348" points="246,-227.83 246,-256.83 312,-256.83 312,-227.83 246,-227.83"/>
<text text-anchor="start" x="250.5" y="-243.13" font-family="Helvetica,sans-Serif" font-size="14.00" fill="#ffffff">🕐 Timer</text>
<text text-anchor="start" x="269.5" y="-233.93" font-family="Helvetica,sans-Serif" font-size="8.00" fill="#ffffff">timer</text>
<polygon fill="#5f2382" stroke="none" points="246,-210.83 246,-227.83 312,-227.83 312,-210.83 246,-210.83"/>
<polygon fill="none" stroke="#351348" points="246,-210.83 246,-227.83 312,-227.83 312,-210.83 246,-210.83"/>
<text text-anchor="start" x="249" y="-216.83" font-family="Helvetica,sans-Serif" font-size="10.00" fill="#ffffff">◎ RESET</text>
<polygon fill="#5f2382" stroke="none" points="246,-193.83 246,-210.83 312,-210.83 312,-193.83 246,-193.83"/>
<polygon fill="none" stroke="#351348" points="246,-193.83 246,-210.83 312,-210.83 312,-193.83 246,-193.83"/>
<text text-anchor="start" x="249" y="-199.83" font-family="Helvetica,sans-Serif" font-size="10.00" fill="#ffffff">◎ ENABLED</text>
<polygon fill="#471a61" stroke="none" points="246,-176.83 246,-193.83 312,-193.83 312,-176.83 246,-176.83"/>
<polygon fill="none" stroke="#351348" points="246,-176.83 246,-193.83 312,-193.83 312,-176.83 246,-176.83"/>
<text text-anchor="start" x="276" y="-182.83" font-family="Helvetica,sans-Serif" font-size="10.00" fill="#ffffff">OUT ◉</text>
</g>
<!-- false&#45;&gt;timer_dec -->
<g id="edge11" class="edge"><title>false:OUT_OUT:e&#45;&gt;timer_dec:IN_ENABLED:w</title>
<path fill="none" stroke="#8325ec" stroke-width="2" d="M77,-306.83C108.38,-306.83 94.9202,-269.69 120,-250.83 166.574,-215.807 184.485,-202.458 240.873,-201.852"/>
<ellipse fill="#8325ec" stroke="#8325ec" stroke-width="2" cx="243" cy="-201.841" rx="2" ry="2"/>
</g>
<!-- timer_final_delay -->
<g id="node6" class="node"><title>timer_final_delay</title>
<polygon fill="#7f2fae" stroke="none" points="1588,-311.83 1588,-340.83 1654,-340.83 1654,-311.83 1588,-311.83"/>
<polygon fill="none" stroke="#351348" points="1588,-311.83 1588,-340.83 1654,-340.83 1654,-311.83 1588,-311.83"/>
<text text-anchor="start" x="1592.5" y="-327.13" font-family="Helvetica,sans-Serif" font-size="14.00" fill="#ffffff">🕐 Timer</text>
<text text-anchor="start" x="1611.5" y="-317.93" font-family="Helvetica,sans-Serif" font-size="8.00" fill="#ffffff">timer</text>
<polygon fill="#5f2382" stroke="none" points="1588,-294.83 1588,-311.83 1654,-311.83 1654,-294.83 1588,-294.83"/>
<polygon fill="none" stroke="#351348" points="1588,-294.83 1588,-311.83 1654,-311.83 1654,-294.83 1588,-294.83"/>
<text text-anchor="start" x="1591" y="-300.83" font-family="Helvetica,sans-Serif" font-size="10.00" fill="#ffffff">◎ ENABLED</text>
<polygon fill="#5f2382" stroke="none" points="1588,-277.83 1588,-294.83 1654,-294.83 1654,-277.83 1588,-277.83"/>
<polygon fill="none" stroke="#351348" points="1588,-277.83 1588,-294.83 1654,-294.83 1654,-277.83 1588,-277.83"/>
<text text-anchor="start" x="1591" y="-283.83" font-family="Helvetica,sans-Serif" font-size="10.00" fill="#ffffff">◎ RESET</text>
<polygon fill="#471a61" stroke="none" points="1588,-260.83 1588,-277.83 1654,-277.83 1654,-260.83 1588,-260.83"/>
<polygon fill="none" stroke="#351348" points="1588,-260.83 1588,-277.83 1654,-277.83 1654,-260.83 1588,-260.83"/>
<text text-anchor="start" x="1618" y="-266.83" font-family="Helvetica,sans-Serif" font-size="10.00" fill="#ffffff">OUT ◉</text>
</g>
<!-- false&#45;&gt;timer_final_delay -->
<g id="edge4" class="edge"><title>false:OUT_OUT:e&#45;&gt;timer_final_delay:IN_ENABLED:w</title>
<path fill="none" stroke="#cd9be2" stroke-width="2" d="M77,-306.83C105.974,-306.83 98.9968,-335.871 120,-355.83 184.907,-417.512 188.459,-480.83 278,-480.83 278,-480.83 278,-480.83 1278,-480.83 1411.8,-480.83 1432.98,-414.52 1544,-339.83 1563.47,-326.732 1562.3,-306.39 1582.89,-304.052"/>
<ellipse fill="#cd9be2" stroke="#cd9be2" stroke-width="2" cx="1585" cy="-303.938" rx="2" ry="2"/>
</g>
<!-- constant_max -->
<g id="node2" class="node"><title>constant_max</title>
<polygon fill="#e8ea7a" stroke="none" points="405,-419.83 405,-448.83 497,-448.83 497,-419.83 405,-419.83"/>
<polygon fill="none" stroke="#616233" points="405,-419.83 405,-448.83 497,-448.83 497,-419.83 405,-419.83"/>
<text text-anchor="start" x="408.5" y="-435.13" font-family="Helvetica,sans-Serif" font-size="14.00" fill="#000000">constant_max</text>
<text text-anchor="start" x="430.5" y="-425.93" font-family="Helvetica,sans-Serif" font-size="8.00" fill="#000000">constant/int</text>
<polygon fill="#828344" stroke="none" points="405,-402.83 405,-419.83 497,-419.83 497,-402.83 405,-402.83"/>
<polygon fill="none" stroke="#616233" points="405,-402.83 405,-419.83 497,-419.83 497,-402.83 405,-402.83"/>
<text text-anchor="start" x="461" y="-408.83" font-family="Helvetica,sans-Serif" font-size="10.00" fill="#ffffff">OUT ◉</text>
</g>
<!-- comp_max -->
<g id="node12" class="node"><title>comp_max</title>
<polygon fill="#254878" stroke="none" points="596,-371.83 596,-400.83 671,-400.83 671,-371.83 596,-371.83"/>
<polygon fill="none" stroke="#0f1e32" points="596,-371.83 596,-400.83 671,-400.83 671,-371.83 596,-371.83"/>
<text text-anchor="start" x="599.5" y="-387.13" font-family="Helvetica,sans-Serif" font-size="14.00" fill="#ffffff">comp_max</text>
<text text-anchor="start" x="618" y="-377.93" font-family="Helvetica,sans-Serif" font-size="8.00" fill="#ffffff">int/equal</text>
<polygon fill="#1b365a" stroke="none" points="596,-354.83 596,-371.83 671,-371.83 671,-354.83 596,-354.83"/>
<polygon fill="none" stroke="#0f1e32" points="596,-354.83 596,-371.83 671,-371.83 671,-354.83 596,-354.83"/>
<text text-anchor="start" x="599" y="-360.83" font-family="Helvetica,sans-Serif" font-size="10.00" fill="#ffffff">◎ IN</text>
<polygon fill="#142843" stroke="none" points="596,-337.83 596,-354.83 671,-354.83 671,-337.83 596,-337.83"/>
<polygon fill="none" stroke="#0f1e32" points="596,-337.83 596,-354.83 671,-354.83 671,-337.83 596,-337.83"/>
<text text-anchor="start" x="635" y="-343.83" font-family="Helvetica,sans-Serif" font-size="10.00" fill="#ffffff">OUT ◉</text>
</g>
<!-- constant_max&#45;&gt;comp_max -->
<g id="edge14" class="edge"><title>constant_max:OUT_OUT:e&#45;&gt;comp_max:IN_IN:w</title>
<path fill="none" stroke="#7666d1" stroke-width="2" d="M498,-410.83C521.286,-410.83 525.114,-400.126 546,-389.83 566.995,-379.48 569.85,-364.689 590.858,-362.991"/>
<ellipse fill="#7666d1" stroke="#7666d1" stroke-width="2" cx="593.002" cy="-362.908" rx="2" ry="2"/>
</g>
<!-- constant_min -->
<g id="node3" class="node"><title>constant_min</title>
<polygon fill="#e8ea7a" stroke="none" points="407,-116.83 407,-145.83 496,-145.83 496,-116.83 407,-116.83"/>
<polygon fill="none" stroke="#616233" points="407,-116.83 407,-145.83 496,-145.83 496,-116.83 407,-116.83"/>
<text text-anchor="start" x="410.5" y="-132.13" font-family="Helvetica,sans-Serif" font-size="14.00" fill="#000000">constant_min</text>
<text text-anchor="start" x="431" y="-122.93" font-family="Helvetica,sans-Serif" font-size="8.00" fill="#000000">constant/int</text>
<polygon fill="#828344" stroke="none" points="407,-99.8302 407,-116.83 496,-116.83 496,-99.8302 407,-99.8302"/>
<polygon fill="none" stroke="#616233" points="407,-99.8302 407,-116.83 496,-116.83 496,-99.8302 407,-99.8302"/>
<text text-anchor="start" x="460" y="-105.83" font-family="Helvetica,sans-Serif" font-size="10.00" fill="#ffffff">OUT ◉</text>
</g>
<!-- comp_min -->
<g id="node16" class="node"><title>comp_min</title>
<polygon fill="#254878" stroke="none" points="598,-116.83 598,-145.83 669,-145.83 669,-116.83 598,-116.83"/>
<polygon fill="none" stroke="#0f1e32" points="598,-116.83 598,-145.83 669,-145.83 669,-116.83 598,-116.83"/>
<text text-anchor="start" x="601.5" y="-132.13" font-family="Helvetica,sans-Serif" font-size="14.00" fill="#ffffff">comp_min</text>
<text text-anchor="start" x="618" y="-122.93" font-family="Helvetica,sans-Serif" font-size="8.00" fill="#ffffff">int/equal</text>
<polygon fill="#1b365a" stroke="none" points="598,-99.8302 598,-116.83 669,-116.83 669,-99.8302 598,-99.8302"/>
<polygon fill="none" stroke="#0f1e32" points="598,-99.8302 598,-116.83 669,-116.83 669,-99.8302 598,-99.8302"/>
<text text-anchor="start" x="601" y="-105.83" font-family="Helvetica,sans-Serif" font-size="10.00" fill="#ffffff">◎ IN</text>
<polygon fill="#142843" stroke="none" points="598,-82.8302 598,-99.8302 669,-99.8302 669,-82.8302 598,-82.8302"/>
<polygon fill="none" stroke="#0f1e32" points="598,-82.8302 598,-99.8302 669,-99.8302 669,-82.8302 598,-82.8302"/>
<text text-anchor="start" x="633" y="-88.8302" font-family="Helvetica,sans-Serif" font-size="10.00" fill="#ffffff">OUT ◉</text>
</g>
<!-- constant_min&#45;&gt;comp_min -->
<g id="edge21" class="edge"><title>constant_min:OUT_OUT:e&#45;&gt;comp_min:IN_IN:w</title>
<path fill="none" stroke="#463aa4" stroke-width="2" d="M497,-107.83C540.056,-107.83 551.829,-107.83 592.929,-107.83"/>
<ellipse fill="#463aa4" stroke="#463aa4" stroke-width="2" cx="595" cy="-107.83" rx="2" ry="2"/>
</g>
<!-- timer_mid_delay&#45;&gt;timer_dec -->
<g id="edge1" class="edge"><title>timer_mid_delay:OUT_OUT:e&#45;&gt;timer_dec:IN_RESET:w</title>
<path fill="none" stroke="#1f0366" stroke-width="2" d="M195,-271.83C225.559,-271.83 214.161,-224.591 240.786,-220.162"/>
<ellipse fill="#1f0366" stroke="#1f0366" stroke-width="2" cx="243.006" cy="-219.987" rx="2" ry="2"/>
</g>
<!-- acc -->
<g id="node8" class="node"><title>acc</title>
<polygon fill="#254878" stroke="none" points="420,-223.83 420,-252.83 482,-252.83 482,-223.83 420,-223.83"/>
<polygon fill="none" stroke="#0f1e32" points="420,-223.83 420,-252.83 482,-252.83 482,-223.83 420,-223.83"/>
<text text-anchor="start" x="440" y="-239.13" font-family="Helvetica,sans-Serif" font-size="14.00" fill="#ffffff">acc</text>
<text text-anchor="start" x="423.5" y="-229.93" font-family="Helvetica,sans-Serif" font-size="8.00" fill="#ffffff">int/accumulator</text>
<polygon fill="#1b365a" stroke="none" points="420,-206.83 420,-223.83 482,-223.83 482,-206.83 420,-206.83"/>
<polygon fill="none" stroke="#0f1e32" points="420,-206.83 420,-223.83 482,-223.83 482,-206.83 420,-206.83"/>
<text text-anchor="start" x="423" y="-212.83" font-family="Helvetica,sans-Serif" font-size="10.00" fill="#ffffff">◎ INC</text>
<polygon fill="#1b365a" stroke="none" points="420,-189.83 420,-206.83 482,-206.83 482,-189.83 420,-189.83"/>
<polygon fill="none" stroke="#0f1e32" points="420,-189.83 420,-206.83 482,-206.83 482,-189.83 420,-189.83"/>
<text text-anchor="start" x="423" y="-195.83" font-family="Helvetica,sans-Serif" font-size="10.00" fill="#ffffff">◎ DEC</text>
<polygon fill="#142843" stroke="none" points="420,-172.83 420,-189.83 482,-189.83 482,-172.83 420,-172.83"/>
<polygon fill="none" stroke="#0f1e32" points="420,-172.83 420,-189.83 482,-189.83 482,-172.83 420,-172.83"/>
<text text-anchor="start" x="446" y="-178.83" font-family="Helvetica,sans-Serif" font-size="10.00" fill="#ffffff">OUT ◉</text>
</g>
<!-- timer_dec&#45;&gt;acc -->
<g id="edge8" class="edge"><title>timer_dec:OUT_OUT:e&#45;&gt;acc:IN_DEC:w</title>
<path fill="none" stroke="#23c554" stroke-width="2" d="M313,-184.83C359.074,-184.83 370.856,-197.08 414.92,-197.797"/>
<ellipse fill="#23c554" stroke="#23c554" stroke-width="2" cx="417" cy="-197.814" rx="2" ry="2"/>
</g>
<!-- #anon:46:21 -->
<g id="node10" class="node"><title>#anon:46:21</title>
<polygon fill="#bd648a" stroke="none" points="365,-354.83 365,-376.83 538,-376.83 538,-354.83 365,-354.83"/>
<polygon fill="none" stroke="#4e2a39" points="365,-354.83 365,-376.83 538,-376.83 538,-354.83 365,-354.83"/>
<text text-anchor="start" x="368.5" y="-362.13" font-family="Helvetica,sans-Serif" font-size="14.00" fill="#000000">converter/empty&#45;to&#45;boolean</text>
<polygon fill="#8d4b67" stroke="none" points="365,-337.83 365,-354.83 538,-354.83 538,-337.83 365,-337.83"/>
<polygon fill="none" stroke="#4e2a39" points="365,-337.83 365,-354.83 538,-354.83 538,-337.83 365,-337.83"/>
<text text-anchor="start" x="368" y="-343.83" font-family="Helvetica,sans-Serif" font-size="10.00" fill="#ffffff">◎ IN</text>
<polygon fill="#69384d" stroke="none" points="365,-320.83 365,-337.83 538,-337.83 538,-320.83 365,-320.83"/>
<polygon fill="none" stroke="#4e2a39" points="365,-320.83 365,-337.83 538,-337.83 538,-320.83 365,-320.83"/>
<text text-anchor="start" x="502" y="-326.83" font-family="Helvetica,sans-Serif" font-size="10.00" fill="#ffffff">OUT ◉</text>
</g>
<!-- timer_dec&#45;&gt;#anon:46:21 -->
<g id="edge9" class="edge"><title>timer_dec:OUT_OUT:e&#45;&gt;#anon:46:21:IN_IN:w</title>
<path fill="none" stroke="#ec3908" stroke-width="2" d="M313,-184.83C386.594,-184.83 292.746,-339.603 359.799,-345.648"/>
<ellipse fill="#ec3908" stroke="#ec3908" stroke-width="2" cx="362.002" cy="-345.744" rx="2" ry="2"/>
</g>
<!-- timer_inc -->
<g id="node7" class="node"><title>timer_inc</title>
<polygon fill="#7f2fae" stroke="none" points="1244,-312.83 1244,-341.83 1310,-341.83 1310,-312.83 1244,-312.83"/>
<polygon fill="none" stroke="#351348" points="1244,-312.83 1244,-341.83 1310,-341.83 1310,-312.83 1244,-312.83"/>
<text text-anchor="start" x="1248.5" y="-328.13" font-family="Helvetica,sans-Serif" font-size="14.00" fill="#ffffff">🕐 Timer</text>
<text text-anchor="start" x="1267.5" y="-318.93" font-family="Helvetica,sans-Serif" font-size="8.00" fill="#ffffff">timer</text>
<polygon fill="#5f2382" stroke="none" points="1244,-295.83 1244,-312.83 1310,-312.83 1310,-295.83 1244,-295.83"/>
<polygon fill="none" stroke="#351348" points="1244,-295.83 1244,-312.83 1310,-312.83 1310,-295.83 1244,-295.83"/>
<text text-anchor="start" x="1247" y="-301.83" font-family="Helvetica,sans-Serif" font-size="10.00" fill="#ffffff">◎ RESET</text>
<polygon fill="#5f2382" stroke="none" points="1244,-278.83 1244,-295.83 1310,-295.83 1310,-278.83 1244,-278.83"/>
<polygon fill="none" stroke="#351348" points="1244,-278.83 1244,-295.83 1310,-295.83 1310,-278.83 1244,-278.83"/>
<text text-anchor="start" x="1247" y="-284.83" font-family="Helvetica,sans-Serif" font-size="10.00" fill="#ffffff">◎ ENABLED</text>
<polygon fill="#471a61" stroke="none" points="1244,-261.83 1244,-278.83 1310,-278.83 1310,-261.83 1244,-261.83"/>
<polygon fill="none" stroke="#351348" points="1244,-261.83 1244,-278.83 1310,-278.83 1310,-261.83 1244,-261.83"/>
<text text-anchor="start" x="1274" y="-267.83" font-family="Helvetica,sans-Serif" font-size="10.00" fill="#ffffff">OUT ◉</text>
</g>
<!-- timer_final_delay&#45;&gt;timer_inc -->
<g id="edge3" class="edge"><title>timer_final_delay:OUT_OUT:e&#45;&gt;timer_inc:IN_RESET:w</title>
<path fill="none" stroke="#5434f0" stroke-width="2" d="M1655,-268.83C1675.32,-268.83 1724.62,-181.895 1580,-256.83 1555.37,-269.595 1567.52,-293.111 1544,-307.83 1457.72,-361.827 1419.45,-336.581 1318,-344.83 1285.22,-347.496 1267.54,-367.794 1244,-344.83 1232.36,-333.481 1226.31,-309.459 1238.93,-305.414"/>
<ellipse fill="#5434f0" stroke="#5434f0" stroke-width="2" cx="1241.02" cy="-305.115" rx="2.00001" ry="2.00001"/>
</g>
<!-- timer_inc&#45;&gt;acc -->
<g id="edge5" class="edge"><title>timer_inc:OUT_OUT:e&#45;&gt;acc:IN_INC:w</title>
<path fill="none" stroke="#006c70" stroke-width="2" d="M1311,-269.83C1316.35,-269.83 1313.9,-261.5 1310,-257.83 1212.59,-166.085 1142.81,-250.83 1009,-250.83 814,-250.83 814,-250.83 814,-250.83 669.983,-250.83 634.013,-254.719 490,-255.83 458.89,-256.07 442.272,-277.552 420,-255.83 408.363,-244.481 402.306,-220.459 414.932,-216.414"/>
<ellipse fill="#006c70" stroke="#006c70" stroke-width="2" cx="417.02" cy="-216.115" rx="2.00001" ry="2.00001"/>
</g>
<!-- #anon:42:21 -->
<g id="node9" class="node"><title>#anon:42:21</title>
<polygon fill="#bd648a" stroke="none" points="1363,-272.83 1363,-294.83 1536,-294.83 1536,-272.83 1363,-272.83"/>
<polygon fill="none" stroke="#4e2a39" points="1363,-272.83 1363,-294.83 1536,-294.83 1536,-272.83 1363,-272.83"/>
<text text-anchor="start" x="1366.5" y="-280.13" font-family="Helvetica,sans-Serif" font-size="14.00" fill="#000000">converter/empty&#45;to&#45;boolean</text>
<polygon fill="#8d4b67" stroke="none" points="1363,-255.83 1363,-272.83 1536,-272.83 1536,-255.83 1363,-255.83"/>
<polygon fill="none" stroke="#4e2a39" points="1363,-255.83 1363,-272.83 1536,-272.83 1536,-255.83 1363,-255.83"/>
<text text-anchor="start" x="1366" y="-261.83" font-family="Helvetica,sans-Serif" font-size="10.00" fill="#ffffff">◎ IN</text>
<polygon fill="#69384d" stroke="none" points="1363,-238.83 1363,-255.83 1536,-255.83 1536,-238.83 1363,-238.83"/>
<polygon fill="none" stroke="#4e2a39" points="1363,-238.83 1363,-255.83 1536,-255.83 1536,-238.83 1363,-238.83"/>
<text text-anchor="start" x="1500" y="-244.83" font-family="Helvetica,sans-Serif" font-size="10.00" fill="#ffffff">OUT ◉</text>
</g>
<!-- timer_inc&#45;&gt;#anon:42:21 -->
<g id="edge6" class="edge"><title>timer_inc:OUT_OUT:e&#45;&gt;#anon:42:21:IN_IN:w</title>
<path fill="none" stroke="#38a992" stroke-width="2" d="M1311,-269.83C1332.4,-269.83 1338.44,-264.557 1357.92,-263.898"/>
<ellipse fill="#38a992" stroke="#38a992" stroke-width="2" cx="1360" cy="-263.863" rx="2" ry="2"/>
</g>
<!-- led -->
<g id="node11" class="node"><title>led</title>
<polygon fill="#8b0178" stroke="none" points="590,-189.83 590,-218.83 676,-218.83 676,-189.83 590,-189.83"/>
<polygon fill="none" stroke="#3a0032" points="590,-189.83 590,-218.83 676,-218.83 676,-189.83 590,-189.83"/>
<text text-anchor="start" x="623.5" y="-205.13" font-family="Helvetica,sans-Serif" font-size="14.00" fill="#ffffff">led</text>
<text text-anchor="start" x="613" y="-195.93" font-family="Helvetica,sans-Serif" font-size="8.00" fill="#ffffff">LED_PWM</text>
<polygon fill="#68005a" stroke="none" points="590,-172.83 590,-189.83 676,-189.83 676,-172.83 590,-172.83"/>
<polygon fill="none" stroke="#3a0032" points="590,-172.83 590,-189.83 676,-189.83 676,-172.83 590,-172.83"/>
<text text-anchor="start" x="593" y="-178.83" font-family="Helvetica,sans-Serif" font-size="10.00" fill="#ffffff">◎ DUTY_CYCLE</text>
</g>
<!-- acc&#45;&gt;led -->
<g id="edge12" class="edge"><title>acc:OUT_OUT:e&#45;&gt;led:IN_DUTY_CYCLE:w</title>
<path fill="none" stroke="#47130e" stroke-width="2" d="M483,-180.83C528.731,-180.83 541.168,-180.83 584.949,-180.83"/>
<ellipse fill="#47130e" stroke="#47130e" stroke-width="2" cx="587" cy="-180.83" rx="2" ry="2"/>
</g>
<!-- acc&#45;&gt;comp_max -->
<g id="edge13" class="edge"><title>acc:OUT_OUT:e&#45;&gt;comp_max:IN_IN:w</title>
<path fill="none" stroke="#147b65" stroke-width="2" d="M483,-180.83C529.098,-180.83 546.487,-352.322 590.903,-362.371"/>
<ellipse fill="#147b65" stroke="#147b65" stroke-width="2" cx="593.012" cy="-362.607" rx="2.00001" ry="2.00001"/>
</g>
<!-- acc&#45;&gt;comp_min -->
<g id="edge20" class="edge"><title>acc:OUT_OUT:e&#45;&gt;comp_min:IN_IN:w</title>
<path fill="none" stroke="#f31ece" stroke-width="2" d="M483,-180.83C512.658,-180.83 520.883,-174.601 546,-158.83 571.875,-142.583 565.636,-110.976 592.75,-108.049"/>
<ellipse fill="#f31ece" stroke="#f31ece" stroke-width="2" cx="595.003" cy="-107.933" rx="2" ry="2"/>
</g>
<!-- #anon:42:21&#45;&gt;timer_final_delay -->
<g id="edge7" class="edge"><title>#anon:42:21:OUT_OUT:e&#45;&gt;timer_final_delay:IN_ENABLED:w</title>
<path fill="none" stroke="#fe926a" stroke-width="2" d="M1537,-246.83C1569.25,-246.83 1554.7,-299.037 1582.93,-303.524"/>
<ellipse fill="#fe926a" stroke="#fe926a" stroke-width="2" cx="1585.01" cy="-303.68" rx="2" ry="2"/>
</g>
<!-- #anon:46:21&#45;&gt;timer_mid_delay -->
<g id="edge10" class="edge"><title>#anon:46:21:OUT_OUT:e&#45;&gt;timer_mid_delay:IN_ENABLED:w</title>
<path fill="none" stroke="#6c3932" stroke-width="2" d="M539,-328.83C544.352,-328.83 541.938,-320.454 538,-316.83 508.238,-289.445 396.257,-312.946 356,-316.83 286.591,-323.528 271.409,-340.133 202,-346.83 169.263,-349.989 151.545,-369.794 128,-346.83 116.363,-335.481 110.306,-311.459 122.932,-307.414"/>
<ellipse fill="#6c3932" stroke="#6c3932" stroke-width="2" cx="125.02" cy="-307.115" rx="2.00001" ry="2.00001"/>
</g>
<!-- #anon:53:31 -->
<g id="node13" class="node"><title>#anon:53:31</title>
<polygon fill="#bd648a" stroke="none" points="729,-354.83 729,-376.83 902,-376.83 902,-354.83 729,-354.83"/>
<polygon fill="none" stroke="#4e2a39" points="729,-354.83 729,-376.83 902,-376.83 902,-354.83 729,-354.83"/>
<text text-anchor="start" x="732.5" y="-362.13" font-family="Helvetica,sans-Serif" font-size="14.00" fill="#000000">converter/boolean&#45;to&#45;empty</text>
<polygon fill="#8d4b67" stroke="none" points="729,-337.83 729,-354.83 902,-354.83 902,-337.83 729,-337.83"/>
<polygon fill="none" stroke="#4e2a39" points="729,-337.83 729,-354.83 902,-354.83 902,-337.83 729,-337.83"/>
<text text-anchor="start" x="732" y="-343.83" font-family="Helvetica,sans-Serif" font-size="10.00" fill="#ffffff">◎ PULSE_IF_TRUE</text>
<polygon fill="#69384d" stroke="none" points="729,-320.83 729,-337.83 902,-337.83 902,-320.83 729,-320.83"/>
<polygon fill="none" stroke="#4e2a39" points="729,-320.83 729,-337.83 902,-337.83 902,-320.83 729,-320.83"/>
<text text-anchor="start" x="866" y="-326.83" font-family="Helvetica,sans-Serif" font-size="10.00" fill="#ffffff">OUT ◉</text>
</g>
<!-- comp_max&#45;&gt;#anon:53:31 -->
<g id="edge15" class="edge"><title>comp_max:OUT_OUT:e&#45;&gt;#anon:53:31:IN_PULSE_IF_TRUE:w</title>
<path fill="none" stroke="#0efc66" stroke-width="2" d="M672,-345.83C695.431,-345.83 702.318,-345.83 723.81,-345.83"/>
<ellipse fill="#0efc66" stroke="#0efc66" stroke-width="2" cx="726" cy="-345.83" rx="2" ry="2"/>
</g>
<!-- at_max -->
<g id="node14" class="node"><title>at_max</title>
<polygon fill="#bd648a" stroke="none" points="955,-333.83 955,-362.83 1062,-362.83 1062,-333.83 955,-333.83"/>
<polygon fill="none" stroke="#4e2a39" points="955,-333.83 955,-362.83 1062,-362.83 1062,-333.83 955,-333.83"/>
<text text-anchor="start" x="985.5" y="-349.13" font-family="Helvetica,sans-Serif" font-size="14.00" fill="#000000">at_max</text>
<text text-anchor="start" x="958.5" y="-339.93" font-family="Helvetica,sans-Serif" font-size="8.00" fill="#000000">converter/empty&#45;to&#45;boolean</text>
<polygon fill="#8d4b67" stroke="none" points="955,-316.83 955,-333.83 1062,-333.83 1062,-316.83 955,-316.83"/>
<polygon fill="none" stroke="#4e2a39" points="955,-316.83 955,-333.83 1062,-333.83 1062,-316.83 955,-316.83"/>
<text text-anchor="start" x="958" y="-322.83" font-family="Helvetica,sans-Serif" font-size="10.00" fill="#ffffff">◎ IN</text>
<polygon fill="#69384d" stroke="none" points="955,-299.83 955,-316.83 1062,-316.83 1062,-299.83 955,-299.83"/>
<polygon fill="none" stroke="#4e2a39" points="955,-299.83 955,-316.83 1062,-316.83 1062,-299.83 955,-299.83"/>
<text text-anchor="start" x="1026" y="-305.83" font-family="Helvetica,sans-Serif" font-size="10.00" fill="#ffffff">OUT ◉</text>
</g>
<!-- #anon:53:31&#45;&gt;at_max -->
<g id="edge16" class="edge"><title>#anon:53:31:OUT_OUT:e&#45;&gt;at_max:IN_IN:w</title>
<path fill="none" stroke="#519032" stroke-width="2" d="M903,-328.83C924.315,-328.83 930.506,-325.315 949.93,-324.875"/>
<ellipse fill="#519032" stroke="#519032" stroke-width="2" cx="952" cy="-324.852" rx="2" ry="2"/>
</g>
<!-- at_max&#45;&gt;timer_mid_delay -->
<g id="edge19" class="edge"><title>at_max:OUT_OUT:e&#45;&gt;timer_mid_delay:IN_RESET:w</title>
<path fill="none" stroke="#2c022a" stroke-width="2" d="M1063,-307.83C1068.13,-307.83 1065.75,-299.83 1062,-296.33 992.449,-231.434 729.126,-288.83 634,-288.83 450,-288.83 450,-288.83 450,-288.83 355.359,-288.83 331.284,-284.797 238,-268.83 221.744,-266.048 218.369,-261.845 202,-259.83 169.358,-255.812 151.653,-236.979 128,-259.83 119.884,-267.671 115.332,-283.994 122.96,-287.952"/>
<ellipse fill="#2c022a" stroke="#2c022a" stroke-width="2" cx="125.046" cy="-288.405" rx="2.00001" ry="2.00001"/>
</g>
<!-- #anon:54:18 -->
<g id="node15" class="node"><title>#anon:54:18</title>
<polygon fill="#184294" stroke="none" points="1114,-316.83 1114,-338.83 1192,-338.83 1192,-316.83 1114,-316.83"/>
<polygon fill="none" stroke="#091b3e" points="1114,-316.83 1114,-338.83 1192,-338.83 1192,-316.83 1114,-316.83"/>
<text text-anchor="start" x="1117.5" y="-324.13" font-family="Helvetica,sans-Serif" font-size="14.00" fill="#ffffff">boolean/not</text>
<polygon fill="#12316f" stroke="none" points="1114,-299.83 1114,-316.83 1192,-316.83 1192,-299.83 1114,-299.83"/>
<polygon fill="none" stroke="#091b3e" points="1114,-299.83 1114,-316.83 1192,-316.83 1192,-299.83 1114,-299.83"/>
<text text-anchor="start" x="1117" y="-305.83" font-family="Helvetica,sans-Serif" font-size="10.00" fill="#ffffff">◎ IN</text>
<polygon fill="#0d2453" stroke="none" points="1114,-282.83 1114,-299.83 1192,-299.83 1192,-282.83 1114,-282.83"/>
<polygon fill="none" stroke="#091b3e" points="1114,-282.83 1114,-299.83 1192,-299.83 1192,-282.83 1114,-282.83"/>
<text text-anchor="start" x="1156" y="-288.83" font-family="Helvetica,sans-Serif" font-size="10.00" fill="#ffffff">OUT ◉</text>
</g>
<!-- at_max&#45;&gt;#anon:54:18 -->
<g id="edge17" class="edge"><title>at_max:OUT_OUT:e&#45;&gt;#anon:54:18:IN_IN:w</title>
<path fill="none" stroke="#03429e" stroke-width="2" d="M1063,-307.83C1083.66,-307.83 1089.91,-307.83 1108.55,-307.83"/>
<ellipse fill="#03429e" stroke="#03429e" stroke-width="2" cx="1111" cy="-307.83" rx="2" ry="2"/>
</g>
<!-- #anon:54:18&#45;&gt;timer_inc -->
<g id="edge18" class="edge"><title>#anon:54:18:OUT_OUT:e&#45;&gt;timer_inc:IN_ENABLED:w</title>
<path fill="none" stroke="#007171" stroke-width="2" d="M1193,-290.83C1213.73,-290.83 1219.86,-287.373 1238.54,-286.887"/>
<ellipse fill="#007171" stroke="#007171" stroke-width="2" cx="1241" cy="-286.856" rx="2" ry="2"/>
</g>
<!-- #anon:59:31 -->
<g id="node17" class="node"><title>#anon:59:31</title>
<polygon fill="#bd648a" stroke="none" points="729,-125.83 729,-147.83 902,-147.83 902,-125.83 729,-125.83"/>
<polygon fill="none" stroke="#4e2a39" points="729,-125.83 729,-147.83 902,-147.83 902,-125.83 729,-125.83"/>
<text text-anchor="start" x="732.5" y="-133.13" font-family="Helvetica,sans-Serif" font-size="14.00" fill="#000000">converter/boolean&#45;to&#45;empty</text>
<polygon fill="#8d4b67" stroke="none" points="729,-108.83 729,-125.83 902,-125.83 902,-108.83 729,-108.83"/>
<polygon fill="none" stroke="#4e2a39" points="729,-108.83 729,-125.83 902,-125.83 902,-108.83 729,-108.83"/>
<text text-anchor="start" x="732" y="-114.83" font-family="Helvetica,sans-Serif" font-size="10.00" fill="#ffffff">◎ PULSE_IF_TRUE</text>
<polygon fill="#69384d" stroke="none" points="729,-91.8302 729,-108.83 902,-108.83 902,-91.8302 729,-91.8302"/>
<polygon fill="none" stroke="#4e2a39" points="729,-91.8302 729,-108.83 902,-108.83 902,-91.8302 729,-91.8302"/>
<text text-anchor="start" x="866" y="-97.8302" font-family="Helvetica,sans-Serif" font-size="10.00" fill="#ffffff">OUT ◉</text>
</g>
<!-- comp_min&#45;&gt;#anon:59:31 -->
<g id="edge22" class="edge"><title>comp_min:OUT_OUT:e&#45;&gt;#anon:59:31:IN_PULSE_IF_TRUE:w</title>
<path fill="none" stroke="#5344c1" stroke-width="2" d="M670,-90.8302C696.815,-90.8302 699.529,-114.257 723.896,-116.636"/>
<ellipse fill="#5344c1" stroke="#5344c1" stroke-width="2" cx="726.002" cy="-116.736" rx="2" ry="2"/>
</g>
<!-- at_min -->
<g id="node18" class="node"><title>at_min</title>
<polygon fill="#bd648a" stroke="none" points="955,-116.83 955,-145.83 1062,-145.83 1062,-116.83 955,-116.83"/>
<polygon fill="none" stroke="#4e2a39" points="955,-116.83 955,-145.83 1062,-145.83 1062,-116.83 955,-116.83"/>
<text text-anchor="start" x="987.5" y="-132.13" font-family="Helvetica,sans-Serif" font-size="14.00" fill="#000000">at_min</text>
<text text-anchor="start" x="958.5" y="-122.93" font-family="Helvetica,sans-Serif" font-size="8.00" fill="#000000">converter/empty&#45;to&#45;boolean</text>
<polygon fill="#8d4b67" stroke="none" points="955,-99.8302 955,-116.83 1062,-116.83 1062,-99.8302 955,-99.8302"/>
<polygon fill="none" stroke="#4e2a39" points="955,-99.8302 955,-116.83 1062,-116.83 1062,-99.8302 955,-99.8302"/>
<text text-anchor="start" x="958" y="-105.83" font-family="Helvetica,sans-Serif" font-size="10.00" fill="#ffffff">◎ IN</text>
<polygon fill="#69384d" stroke="none" points="955,-82.8302 955,-99.8302 1062,-99.8302 1062,-82.8302 955,-82.8302"/>
<polygon fill="none" stroke="#4e2a39" points="955,-82.8302 955,-99.8302 1062,-99.8302 1062,-82.8302 955,-82.8302"/>
<text text-anchor="start" x="1026" y="-88.8302" font-family="Helvetica,sans-Serif" font-size="10.00" fill="#ffffff">OUT ◉</text>
</g>
<!-- #anon:59:31&#45;&gt;at_min -->
<g id="edge23" class="edge"><title>#anon:59:31:OUT_OUT:e&#45;&gt;at_min:IN_IN:w</title>
<path fill="none" stroke="#78eb42" stroke-width="2" d="M903,-99.8302C924.51,-99.8302 930.347,-106.861 949.898,-107.74"/>
<ellipse fill="#78eb42" stroke="#78eb42" stroke-width="2" cx="952" cy="-107.786" rx="2" ry="2"/>
</g>
<!-- at_min&#45;&gt;timer_final_delay -->
<g id="edge26" class="edge"><title>at_min:OUT_OUT:e&#45;&gt;timer_final_delay:IN_RESET:w</title>
<path fill="none" stroke="#6ebd54" stroke-width="2" d="M1063,-90.8302C1087.09,-90.8302 1084.22,-113.532 1106,-123.83 1286.69,-209.27 1377.79,-114.812 1544,-225.83 1570,-243.199 1555.7,-281.965 1582.71,-285.562"/>
<ellipse fill="#6ebd54" stroke="#6ebd54" stroke-width="2" cx="1585" cy="-285.705" rx="2" ry="2"/>
</g>
<!-- #anon:60:18 -->
<g id="node19" class="node"><title>#anon:60:18</title>
<polygon fill="#184294" stroke="none" points="1114,-88.8302 1114,-110.83 1192,-110.83 1192,-88.8302 1114,-88.8302"/>
<polygon fill="none" stroke="#091b3e" points="1114,-88.8302 1114,-110.83 1192,-110.83 1192,-88.8302 1114,-88.8302"/>
<text text-anchor="start" x="1117.5" y="-96.1302" font-family="Helvetica,sans-Serif" font-size="14.00" fill="#ffffff">boolean/not</text>
<polygon fill="#12316f" stroke="none" points="1114,-71.8302 1114,-88.8302 1192,-88.8302 1192,-71.8302 1114,-71.8302"/>
<polygon fill="none" stroke="#091b3e" points="1114,-71.8302 1114,-88.8302 1192,-88.8302 1192,-71.8302 1114,-71.8302"/>
<text text-anchor="start" x="1117" y="-77.8302" font-family="Helvetica,sans-Serif" font-size="10.00" fill="#ffffff">◎ IN</text>
<polygon fill="#0d2453" stroke="none" points="1114,-54.8302 1114,-71.8302 1192,-71.8302 1192,-54.8302 1114,-54.8302"/>
<polygon fill="none" stroke="#091b3e" points="1114,-54.8302 1114,-71.8302 1192,-71.8302 1192,-54.8302 1114,-54.8302"/>
<text text-anchor="start" x="1156" y="-60.8302" font-family="Helvetica,sans-Serif" font-size="10.00" fill="#ffffff">OUT ◉</text>
</g>
<!-- at_min&#45;&gt;#anon:60:18 -->
<g id="edge24" class="edge"><title>at_min:OUT_OUT:e&#45;&gt;#anon:60:18:IN_IN:w</title>
<path fill="none" stroke="#2a39ee" stroke-width="2" d="M1063,-90.8302C1084.33,-90.8302 1089.61,-81.1623 1108.94,-79.9538"/>
<ellipse fill="#2a39ee" stroke="#2a39ee" stroke-width="2" cx="1111" cy="-79.8911" rx="2" ry="2"/>
</g>
<!-- #anon:60:18&#45;&gt;timer_dec -->
<g id="edge25" class="edge"><title>#anon:60:18:OUT_OUT:e&#45;&gt;timer_dec:IN_ENABLED:w</title>
<path fill="none" stroke="#a5aba4" stroke-width="2" d="M1193,-62.8302C1198.35,-62.8302 1195.94,-54.454 1192,-50.8302 1069.03,62.3223 983.111,-50.8302 816,-50.8302 632,-50.8302 632,-50.8302 632,-50.8302 508.294,-50.8302 470.102,-39.0413 356,-86.8302 254.745,-129.239 222.858,-193.205 240.761,-201.036"/>
<ellipse fill="#a5aba4" stroke="#a5aba4" stroke-width="2" cx="243.034" cy="-201.462" rx="2.00001" ry="2.00001"/>
</g>
</g>
</svg>
