<?xml version="1.0" encoding="UTF-8" standalone="no"?>
<!DOCTYPE svg PUBLIC "-//W3C//DTD SVG 1.1//EN"
 "http://www.w3.org/Graphics/SVG/1.1/DTD/svg11.dtd">
<!-- Generated by graphviz version 2.36.0 (20140111.2315)
 -->
<!-- Title: fbp Pages: 1 -->
<svg width="1306pt" height="507pt"
 viewBox="0.00 0.00 1306.21 507.02" xmlns="http://www.w3.org/2000/svg" xmlns:xlink="http://www.w3.org/1999/xlink">
<g id="graph0" class="graph" transform="scale(1 1) rotate(0) translate(4 503.02)">
<title>fbp</title>
<polygon fill="white" stroke="none" points="-4,4 -4,-503.02 1302.21,-503.02 1302.21,4 -4,4"/>
<!-- constant_duty_cycle_step -->
<g id="node1" class="node"><title>constant_duty_cycle_step</title>
<polygon fill="#e8ea7a" stroke="none" points="9,-315 9,-344 172,-344 172,-315 9,-315"/>
<polygon fill="none" stroke="#616233" points="9,-315 9,-344 172,-344 172,-315 9,-315"/>
<text text-anchor="start" x="12.5" y="-330.3" font-family="Helvetica,sans-Serif" font-size="14.00" fill="#000000">constant_duty_cycle_step</text>
<text text-anchor="start" x="70" y="-321.1" font-family="Helvetica,sans-Serif" font-size="8.00" fill="#000000">constant/int</text>
<polygon fill="#828344" stroke="none" points="9,-298 9,-315 172,-315 172,-298 9,-298"/>
<polygon fill="none" stroke="#616233" points="9,-298 9,-315 172,-315 172,-298 9,-298"/>
<text text-anchor="start" x="136" y="-304" font-family="Helvetica,sans-Serif" font-size="10.00" fill="#ffffff">OUT ◉</text>
</g>
<!-- mult -->
<g id="node12" class="node"><title>mult</title>
<polygon fill="#254878" stroke="none" points="228,-315 228,-344 297,-344 297,-315 228,-315"/>
<polygon fill="none" stroke="#0f1e32" points="228,-315 228,-344 297,-344 297,-315 228,-315"/>
<text text-anchor="start" x="249" y="-330.3" font-family="Helvetica,sans-Serif" font-size="14.00" fill="#ffffff">mult</text>
<text text-anchor="start" x="234.5" y="-321.1" font-family="Helvetica,sans-Serif" font-size="8.00" fill="#ffffff">int/multiplication</text>
<polygon fill="#1b365a" stroke="none" points="228,-298 228,-315 297,-315 297,-298 228,-298"/>
<polygon fill="none" stroke="#0f1e32" points="228,-298 228,-315 297,-315 297,-298 228,-298"/>
<text text-anchor="start" x="231" y="-304" font-family="Helvetica,sans-Serif" font-size="10.00" fill="#ffffff">◎ OPERAND</text>
<polygon fill="#142843" stroke="none" points="228,-281 228,-298 297,-298 297,-281 228,-281"/>
<polygon fill="none" stroke="#0f1e32" points="228,-281 228,-298 297,-298 297,-281 228,-281"/>
<text text-anchor="start" x="261" y="-287" font-family="Helvetica,sans-Serif" font-size="10.00" fill="#ffffff">OUT ◉</text>
</g>
<!-- constant_duty_cycle_step&#45;&gt;mult -->
<g id="edge14" class="edge"><title>constant_duty_cycle_step:OUT:e&#45;&gt;mult:OPERAND:w</title>
<path fill="none" stroke="#587ef0" stroke-width="2" d="M173,-306C195.594,-306 202.235,-306 222.959,-306"/>
<ellipse fill="#587ef0" stroke="#587ef0" stroke-width="2" cx="225" cy="-306" rx="2" ry="2"/>
</g>
<!-- false -->
<g id="node2" class="node"><title>false</title>
<polygon fill="#e8ea7a" stroke="none" points="598,-236 598,-265 666,-265 666,-236 598,-236"/>
<polygon fill="none" stroke="#616233" points="598,-236 598,-265 666,-265 666,-236 598,-236"/>
<text text-anchor="start" x="617.5" y="-251.3" font-family="Helvetica,sans-Serif" font-size="14.00" fill="#000000">false</text>
<text text-anchor="start" x="601.5" y="-242.1" font-family="Helvetica,sans-Serif" font-size="8.00" fill="#000000">constant/boolean</text>
<polygon fill="#828344" stroke="none" points="598,-219 598,-236 666,-236 666,-219 598,-219"/>
<polygon fill="none" stroke="#616233" points="598,-219 598,-236 666,-236 666,-219 598,-219"/>
<text text-anchor="start" x="630" y="-225" font-family="Helvetica,sans-Serif" font-size="10.00" fill="#ffffff">OUT ◉</text>
</g>
<!-- timer_mid_delay -->
<g id="node5" class="node"><title>timer_mid_delay</title>
<polygon fill="#7f2fae" stroke="none" points="744,-298 744,-327 810,-327 810,-298 744,-298"/>
<polygon fill="none" stroke="#351348" points="744,-298 744,-327 810,-327 810,-298 744,-298"/>
<text text-anchor="start" x="748.5" y="-313.3" font-family="Helvetica,sans-Serif" font-size="14.00" fill="#ffffff">🕐 Timer</text>
<text text-anchor="start" x="767.5" y="-304.1" font-family="Helvetica,sans-Serif" font-size="8.00" fill="#ffffff">timer</text>
<polygon fill="#5f2382" stroke="none" points="744,-281 744,-298 810,-298 810,-281 744,-281"/>
<polygon fill="none" stroke="#351348" points="744,-281 744,-298 810,-298 810,-281 744,-281"/>
<text text-anchor="start" x="747" y="-287" font-family="Helvetica,sans-Serif" font-size="10.00" fill="#ffffff">◎ ENABLED</text>
<polygon fill="#5f2382" stroke="none" points="744,-264 744,-281 810,-281 810,-264 744,-264"/>
<polygon fill="none" stroke="#351348" points="744,-264 744,-281 810,-281 810,-264 744,-264"/>
<text text-anchor="start" x="747" y="-270" font-family="Helvetica,sans-Serif" font-size="10.00" fill="#ffffff">◎ RESET</text>
<polygon fill="#471a61" stroke="none" points="744,-247 744,-264 810,-264 810,-247 744,-247"/>
<polygon fill="none" stroke="#351348" points="744,-247 744,-264 810,-264 810,-247 744,-247"/>
<text text-anchor="start" x="774" y="-253" font-family="Helvetica,sans-Serif" font-size="10.00" fill="#ffffff">OUT ◉</text>
</g>
<!-- false&#45;&gt;timer_mid_delay -->
<g id="edge2" class="edge"><title>false:OUT:e&#45;&gt;timer_mid_delay:ENABLED:w</title>
<path fill="none" stroke="#ce32a6" stroke-width="2" d="M667,-227C709.332,-227 699.883,-285.648 738.574,-289.772"/>
<ellipse fill="#ce32a6" stroke="#ce32a6" stroke-width="2" cx="741.003" cy="-289.897" rx="2" ry="2"/>
</g>
<!-- timer_dec -->
<g id="node6" class="node"><title>timer_dec</title>
<polygon fill="#7f2fae" stroke="none" points="868,-229 868,-258 934,-258 934,-229 868,-229"/>
<polygon fill="none" stroke="#351348" points="868,-229 868,-258 934,-258 934,-229 868,-229"/>
<text text-anchor="start" x="872.5" y="-244.3" font-family="Helvetica,sans-Serif" font-size="14.00" fill="#ffffff">🕐 Timer</text>
<text text-anchor="start" x="891.5" y="-235.1" font-family="Helvetica,sans-Serif" font-size="8.00" fill="#ffffff">timer</text>
<polygon fill="#5f2382" stroke="none" points="868,-212 868,-229 934,-229 934,-212 868,-212"/>
<polygon fill="none" stroke="#351348" points="868,-212 868,-229 934,-229 934,-212 868,-212"/>
<text text-anchor="start" x="871" y="-218" font-family="Helvetica,sans-Serif" font-size="10.00" fill="#ffffff">◎ RESET</text>
<polygon fill="#5f2382" stroke="none" points="868,-195 868,-212 934,-212 934,-195 868,-195"/>
<polygon fill="none" stroke="#351348" points="868,-195 868,-212 934,-212 934,-195 868,-195"/>
<text text-anchor="start" x="871" y="-201" font-family="Helvetica,sans-Serif" font-size="10.00" fill="#ffffff">◎ ENABLED</text>
<polygon fill="#471a61" stroke="none" points="868,-178 868,-195 934,-195 934,-178 868,-178"/>
<polygon fill="none" stroke="#351348" points="868,-178 868,-195 934,-195 934,-178 868,-178"/>
<text text-anchor="start" x="898" y="-184" font-family="Helvetica,sans-Serif" font-size="10.00" fill="#ffffff">OUT ◉</text>
</g>
<!-- false&#45;&gt;timer_dec -->
<g id="edge11" class="edge"><title>false:OUT:e&#45;&gt;timer_dec:ENABLED:w</title>
<path fill="none" stroke="#808ca8" stroke-width="2" d="M667,-227C755.128,-227 776.802,-203.744 862.853,-203.017"/>
<ellipse fill="#808ca8" stroke="#808ca8" stroke-width="2" cx="865" cy="-203.008" rx="2" ry="2"/>
</g>
<!-- timer_final_delay -->
<g id="node7" class="node"><title>timer_final_delay</title>
<polygon fill="#7f2fae" stroke="none" points="1212,-365 1212,-394 1278,-394 1278,-365 1212,-365"/>
<polygon fill="none" stroke="#351348" points="1212,-365 1212,-394 1278,-394 1278,-365 1212,-365"/>
<text text-anchor="start" x="1216.5" y="-380.3" font-family="Helvetica,sans-Serif" font-size="14.00" fill="#ffffff">🕐 Timer</text>
<text text-anchor="start" x="1235.5" y="-371.1" font-family="Helvetica,sans-Serif" font-size="8.00" fill="#ffffff">timer</text>
<polygon fill="#5f2382" stroke="none" points="1212,-348 1212,-365 1278,-365 1278,-348 1212,-348"/>
<polygon fill="none" stroke="#351348" points="1212,-348 1212,-365 1278,-365 1278,-348 1212,-348"/>
<text text-anchor="start" x="1215" y="-354" font-family="Helvetica,sans-Serif" font-size="10.00" fill="#ffffff">◎ ENABLED</text>
<polygon fill="#5f2382" stroke="none" points="1212,-331 1212,-348 1278,-348 1278,-331 1212,-331"/>
<polygon fill="none" stroke="#351348" points="1212,-331 1212,-348 1278,-348 1278,-331 1212,-331"/>
<text text-anchor="start" x="1215" y="-337" font-family="Helvetica,sans-Serif" font-size="10.00" fill="#ffffff">◎ RESET</text>
<polygon fill="#471a61" stroke="none" points="1212,-314 1212,-331 1278,-331 1278,-314 1212,-314"/>
<polygon fill="none" stroke="#351348" points="1212,-314 1212,-331 1278,-331 1278,-314 1212,-314"/>
<text text-anchor="start" x="1242" y="-320" font-family="Helvetica,sans-Serif" font-size="10.00" fill="#ffffff">OUT ◉</text>
</g>
<!-- false&#45;&gt;timer_final_delay -->
<g id="edge4" class="edge"><title>false:OUT:e&#45;&gt;timer_final_delay:ENABLED:w</title>
<path fill="none" stroke="#534eba" stroke-width="2" d="M667,-227C724.112,-227 681.248,-309.25 730,-339 820.147,-394.01 1096.89,-357.943 1206.84,-357.018"/>
<ellipse fill="#534eba" stroke="#534eba" stroke-width="2" cx="1209" cy="-357.009" rx="2" ry="2"/>
</g>
<!-- constant_max -->
<g id="node3" class="node"><title>constant_max</title>
<polygon fill="#e8ea7a" stroke="none" points="44,-117 44,-146 136,-146 136,-117 44,-117"/>
<polygon fill="none" stroke="#616233" points="44,-117 44,-146 136,-146 136,-117 44,-117"/>
<text text-anchor="start" x="47.5" y="-132.3" font-family="Helvetica,sans-Serif" font-size="14.00" fill="#000000">constant_max</text>
<text text-anchor="start" x="69.5" y="-123.1" font-family="Helvetica,sans-Serif" font-size="8.00" fill="#000000">constant/int</text>
<polygon fill="#828344" stroke="none" points="44,-100 44,-117 136,-117 136,-100 44,-100"/>
<polygon fill="none" stroke="#616233" points="44,-100 44,-117 136,-117 136,-100 44,-100"/>
<text text-anchor="start" x="100" y="-106" font-family="Helvetica,sans-Serif" font-size="10.00" fill="#ffffff">OUT ◉</text>
</g>
<!-- comp_max -->
<g id="node14" class="node"><title>comp_max</title>
<polygon fill="#254878" stroke="none" points="225,-126 225,-155 300,-155 300,-126 225,-126"/>
<polygon fill="none" stroke="#0f1e32" points="225,-126 225,-155 300,-155 300,-126 225,-126"/>
<text text-anchor="start" x="228.5" y="-141.3" font-family="Helvetica,sans-Serif" font-size="14.00" fill="#ffffff">comp_max</text>
<text text-anchor="start" x="247" y="-132.1" font-family="Helvetica,sans-Serif" font-size="8.00" fill="#ffffff">int/equal</text>
<polygon fill="#1b365a" stroke="none" points="225,-109 225,-126 300,-126 300,-109 225,-109"/>
<polygon fill="none" stroke="#0f1e32" points="225,-109 225,-126 300,-126 300,-109 225,-109"/>
<text text-anchor="start" x="228" y="-115" font-family="Helvetica,sans-Serif" font-size="10.00" fill="#ffffff">◎ IN</text>
<polygon fill="#142843" stroke="none" points="225,-92 225,-109 300,-109 300,-92 225,-92"/>
<polygon fill="none" stroke="#0f1e32" points="225,-92 225,-109 300,-109 300,-92 225,-92"/>
<text text-anchor="start" x="264" y="-98" font-family="Helvetica,sans-Serif" font-size="10.00" fill="#ffffff">OUT ◉</text>
</g>
<!-- constant_max&#45;&gt;comp_max -->
<g id="edge16" class="edge"><title>constant_max:OUT:e&#45;&gt;comp_max:IN:w</title>
<path fill="none" stroke="#db46b8" stroke-width="2" d="M137,-108C174.355,-108 184.359,-116.311 219.577,-116.96"/>
<ellipse fill="#db46b8" stroke="#db46b8" stroke-width="2" cx="222" cy="-116.982" rx="2" ry="2"/>
</g>
<!-- constant_min -->
<g id="node4" class="node"><title>constant_min</title>
<polygon fill="#e8ea7a" stroke="none" points="46,-37 46,-66 135,-66 135,-37 46,-37"/>
<polygon fill="none" stroke="#616233" points="46,-37 46,-66 135,-66 135,-37 46,-37"/>
<text text-anchor="start" x="49.5" y="-52.3" font-family="Helvetica,sans-Serif" font-size="14.00" fill="#000000">constant_min</text>
<text text-anchor="start" x="70" y="-43.1" font-family="Helvetica,sans-Serif" font-size="8.00" fill="#000000">constant/int</text>
<polygon fill="#828344" stroke="none" points="46,-20 46,-37 135,-37 135,-20 46,-20"/>
<polygon fill="none" stroke="#616233" points="46,-20 46,-37 135,-37 135,-20 46,-20"/>
<text text-anchor="start" x="99" y="-26" font-family="Helvetica,sans-Serif" font-size="10.00" fill="#ffffff">OUT ◉</text>
</g>
<!-- comp_min -->
<g id="node18" class="node"><title>comp_min</title>
<polygon fill="#254878" stroke="none" points="227,-37 227,-66 298,-66 298,-37 227,-37"/>
<polygon fill="none" stroke="#0f1e32" points="227,-37 227,-66 298,-66 298,-37 227,-37"/>
<text text-anchor="start" x="230.5" y="-52.3" font-family="Helvetica,sans-Serif" font-size="14.00" fill="#ffffff">comp_min</text>
<text text-anchor="start" x="247" y="-43.1" font-family="Helvetica,sans-Serif" font-size="8.00" fill="#ffffff">int/equal</text>
<polygon fill="#1b365a" stroke="none" points="227,-20 227,-37 298,-37 298,-20 227,-20"/>
<polygon fill="none" stroke="#0f1e32" points="227,-20 227,-37 298,-37 298,-20 227,-20"/>
<text text-anchor="start" x="230" y="-26" font-family="Helvetica,sans-Serif" font-size="10.00" fill="#ffffff">◎ IN</text>
<polygon fill="#142843" stroke="none" points="227,-3 227,-20 298,-20 298,-3 227,-3"/>
<polygon fill="none" stroke="#0f1e32" points="227,-3 227,-20 298,-20 298,-3 227,-3"/>
<text text-anchor="start" x="262" y="-9" font-family="Helvetica,sans-Serif" font-size="10.00" fill="#ffffff">OUT ◉</text>
</g>
<!-- constant_min&#45;&gt;comp_min -->
<g id="edge23" class="edge"><title>constant_min:OUT:e&#45;&gt;comp_min:IN:w</title>
<path fill="none" stroke="#2229ee" stroke-width="2" d="M136,-28C174.594,-28 185.26,-28 221.89,-28"/>
<ellipse fill="#2229ee" stroke="#2229ee" stroke-width="2" cx="224" cy="-28" rx="2" ry="2"/>
</g>
<!-- timer_mid_delay&#45;&gt;timer_dec -->
<g id="edge1" class="edge"><title>timer_mid_delay:OUT:e&#45;&gt;timer_dec:RESET:w</title>
<path fill="none" stroke="#6f440d" stroke-width="2" d="M811,-255C838.638,-255 838.029,-224.365 862.799,-221.254"/>
<ellipse fill="#6f440d" stroke="#6f440d" stroke-width="2" cx="865.004" cy="-221.121" rx="2" ry="2"/>
</g>
<!-- acc -->
<g id="node9" class="node"><title>acc</title>
<polygon fill="#254878" stroke="none" points="59,-223 59,-252 121,-252 121,-223 59,-223"/>
<polygon fill="none" stroke="#0f1e32" points="59,-223 59,-252 121,-252 121,-223 59,-223"/>
<text text-anchor="start" x="79" y="-238.3" font-family="Helvetica,sans-Serif" font-size="14.00" fill="#ffffff">acc</text>
<text text-anchor="start" x="62.5" y="-229.1" font-family="Helvetica,sans-Serif" font-size="8.00" fill="#ffffff">int/accumulator</text>
<polygon fill="#1b365a" stroke="none" points="59,-206 59,-223 121,-223 121,-206 59,-206"/>
<polygon fill="none" stroke="#0f1e32" points="59,-206 59,-223 121,-223 121,-206 59,-206"/>
<text text-anchor="start" x="62" y="-212" font-family="Helvetica,sans-Serif" font-size="10.00" fill="#ffffff">◎ INC</text>
<polygon fill="#1b365a" stroke="none" points="59,-189 59,-206 121,-206 121,-189 59,-189"/>
<polygon fill="none" stroke="#0f1e32" points="59,-189 59,-206 121,-206 121,-189 59,-189"/>
<text text-anchor="start" x="62" y="-195" font-family="Helvetica,sans-Serif" font-size="10.00" fill="#ffffff">◎ DEC</text>
<polygon fill="#142843" stroke="none" points="59,-172 59,-189 121,-189 121,-172 59,-172"/>
<polygon fill="none" stroke="#0f1e32" points="59,-172 59,-189 121,-189 121,-172 59,-172"/>
<text text-anchor="start" x="85" y="-178" font-family="Helvetica,sans-Serif" font-size="10.00" fill="#ffffff">OUT ◉</text>
</g>
<!-- timer_dec&#45;&gt;acc -->
<g id="edge8" class="edge"><title>timer_dec:OUT:e&#45;&gt;acc:DEC:w</title>
<path fill="none" stroke="#7a501e" stroke-width="2" d="M935,-186C940.352,-186 937.925,-177.638 934,-174 929.9,-170.199 134.59,-168.021 129,-168 97.8891,-167.884 81.3747,-146.384 59,-168 50.8843,-175.841 46.3315,-192.163 53.9598,-196.121"/>
<ellipse fill="#7a501e" stroke="#7a501e" stroke-width="2" cx="56.0457" cy="-196.575" rx="2.00001" ry="2.00001"/>
</g>
<!-- #anon:61:21 -->
<g id="node11" class="node"><title>#anon:61:21</title>
<polygon fill="#bd648a" stroke="none" points="987,-231 987,-253 1160,-253 1160,-231 987,-231"/>
<polygon fill="none" stroke="#4e2a39" points="987,-231 987,-253 1160,-253 1160,-231 987,-231"/>
<text text-anchor="start" x="990.5" y="-238.3" font-family="Helvetica,sans-Serif" font-size="14.00" fill="#000000">converter/empty&#45;to&#45;boolean</text>
<polygon fill="#8d4b67" stroke="none" points="987,-214 987,-231 1160,-231 1160,-214 987,-214"/>
<polygon fill="none" stroke="#4e2a39" points="987,-214 987,-231 1160,-231 1160,-214 987,-214"/>
<text text-anchor="start" x="990" y="-220" font-family="Helvetica,sans-Serif" font-size="10.00" fill="#ffffff">◎ IN</text>
<polygon fill="#69384d" stroke="none" points="987,-197 987,-214 1160,-214 1160,-197 987,-197"/>
<polygon fill="none" stroke="#4e2a39" points="987,-197 987,-214 1160,-214 1160,-197 987,-197"/>
<text text-anchor="start" x="1124" y="-203" font-family="Helvetica,sans-Serif" font-size="10.00" fill="#ffffff">OUT ◉</text>
</g>
<!-- timer_dec&#45;&gt;#anon:61:21 -->
<g id="edge9" class="edge"><title>timer_dec:OUT:e&#45;&gt;#anon:61:21:IN:w</title>
<path fill="none" stroke="#72ec50" stroke-width="2" d="M935,-186C961.228,-186 958.65,-218.17 981.727,-221.689"/>
<ellipse fill="#72ec50" stroke="#72ec50" stroke-width="2" cx="984.005" cy="-221.855" rx="2" ry="2"/>
</g>
<!-- timer_inc -->
<g id="node8" class="node"><title>timer_inc</title>
<polygon fill="#7f2fae" stroke="none" points="868,-451 868,-480 934,-480 934,-451 868,-451"/>
<polygon fill="none" stroke="#351348" points="868,-451 868,-480 934,-480 934,-451 868,-451"/>
<text text-anchor="start" x="872.5" y="-466.3" font-family="Helvetica,sans-Serif" font-size="14.00" fill="#ffffff">🕐 Timer</text>
<text text-anchor="start" x="891.5" y="-457.1" font-family="Helvetica,sans-Serif" font-size="8.00" fill="#ffffff">timer</text>
<polygon fill="#5f2382" stroke="none" points="868,-434 868,-451 934,-451 934,-434 868,-434"/>
<polygon fill="none" stroke="#351348" points="868,-434 868,-451 934,-451 934,-434 868,-434"/>
<text text-anchor="start" x="871" y="-440" font-family="Helvetica,sans-Serif" font-size="10.00" fill="#ffffff">◎ RESET</text>
<polygon fill="#5f2382" stroke="none" points="868,-417 868,-434 934,-434 934,-417 868,-417"/>
<polygon fill="none" stroke="#351348" points="868,-417 868,-434 934,-434 934,-417 868,-417"/>
<text text-anchor="start" x="871" y="-423" font-family="Helvetica,sans-Serif" font-size="10.00" fill="#ffffff">◎ ENABLED</text>
<polygon fill="#471a61" stroke="none" points="868,-400 868,-417 934,-417 934,-400 868,-400"/>
<polygon fill="none" stroke="#351348" points="868,-400 868,-417 934,-417 934,-400 868,-400"/>
<text text-anchor="start" x="898" y="-406" font-family="Helvetica,sans-Serif" font-size="10.00" fill="#ffffff">OUT ◉</text>
</g>
<!-- timer_final_delay&#45;&gt;timer_inc -->
<g id="edge3" class="edge"><title>timer_final_delay:OUT:e&#45;&gt;timer_inc:RESET:w</title>
<path fill="none" stroke="#cdb320" stroke-width="2" d="M1279,-322C1298.91,-322 1331.28,-291.266 1204,-310 1100.23,-325.274 1053.57,-305.253 978,-378 942.459,-412.214 982.144,-454.326 942,-483 915.237,-502.116 891.545,-505.964 868,-483 856.363,-471.65 850.306,-447.629 862.932,-443.584"/>
<ellipse fill="#cdb320" stroke="#cdb320" stroke-width="2" cx="865.02" cy="-443.284" rx="2.00001" ry="2.00001"/>
</g>
<!-- timer_inc&#45;&gt;acc -->
<g id="edge5" class="edge"><title>timer_inc:OUT:e&#45;&gt;acc:INC:w</title>
<path fill="none" stroke="#59f93a" stroke-width="2" d="M935,-408C940.352,-408 937.938,-399.624 934,-396 909.798,-373.731 892.889,-395.928 860,-396 759.11,-396.222 733.89,-397 633,-397 438,-397 438,-397 438,-397 337.745,-397 296.252,-417.09 216,-357 187.361,-335.556 207.929,-307.36 180,-285 136.747,-250.373 93.6827,-298.208 59,-255 48.8248,-242.324 41.5575,-219.401 53.9648,-215.555"/>
<ellipse fill="#59f93a" stroke="#59f93a" stroke-width="2" cx="56.0186" cy="-215.272" rx="2.00001" ry="2.00001"/>
</g>
<!-- #anon:57:21 -->
<g id="node10" class="node"><title>#anon:57:21</title>
<polygon fill="#bd648a" stroke="none" points="987,-425 987,-447 1160,-447 1160,-425 987,-425"/>
<polygon fill="none" stroke="#4e2a39" points="987,-425 987,-447 1160,-447 1160,-425 987,-425"/>
<text text-anchor="start" x="990.5" y="-432.3" font-family="Helvetica,sans-Serif" font-size="14.00" fill="#000000">converter/empty&#45;to&#45;boolean</text>
<polygon fill="#8d4b67" stroke="none" points="987,-408 987,-425 1160,-425 1160,-408 987,-408"/>
<polygon fill="none" stroke="#4e2a39" points="987,-408 987,-425 1160,-425 1160,-408 987,-408"/>
<text text-anchor="start" x="990" y="-414" font-family="Helvetica,sans-Serif" font-size="10.00" fill="#ffffff">◎ IN</text>
<polygon fill="#69384d" stroke="none" points="987,-391 987,-408 1160,-408 1160,-391 987,-391"/>
<polygon fill="none" stroke="#4e2a39" points="987,-391 987,-408 1160,-408 1160,-391 987,-391"/>
<text text-anchor="start" x="1124" y="-397" font-family="Helvetica,sans-Serif" font-size="10.00" fill="#ffffff">OUT ◉</text>
</g>
<!-- timer_inc&#45;&gt;#anon:57:21 -->
<g id="edge6" class="edge"><title>timer_inc:OUT:e&#45;&gt;#anon:57:21:IN:w</title>
<path fill="none" stroke="#3b00d6" stroke-width="2" d="M935,-408C956.51,-408 962.347,-415.031 981.898,-415.91"/>
<ellipse fill="#3b00d6" stroke="#3b00d6" stroke-width="2" cx="984" cy="-415.956" rx="2" ry="2"/>
</g>
<!-- acc&#45;&gt;mult -->
<g id="edge12" class="edge"><title>acc:OUT:e&#45;&gt;mult:OPERAND:w</title>
<path fill="none" stroke="#5641ae" stroke-width="2" d="M122,-180C193.472,-180 155.654,-301.126 222.857,-305.858"/>
<ellipse fill="#5641ae" stroke="#5641ae" stroke-width="2" cx="225.001" cy="-305.931" rx="2" ry="2"/>
</g>
<!-- acc&#45;&gt;comp_max -->
<g id="edge15" class="edge"><title>acc:OUT:e&#45;&gt;comp_max:IN:w</title>
<path fill="none" stroke="#6df42e" stroke-width="2" d="M122,-180C149.415,-180 156.696,-173.441 180,-159 201.723,-145.538 197.537,-119.996 219.851,-117.242"/>
<ellipse fill="#6df42e" stroke="#6df42e" stroke-width="2" cx="222.003" cy="-117.117" rx="2" ry="2"/>
</g>
<!-- acc&#45;&gt;comp_min -->
<g id="edge22" class="edge"><title>acc:OUT:e&#45;&gt;comp_min:IN:w</title>
<path fill="none" stroke="#d98c32" stroke-width="2" d="M122,-180C149.415,-180 160.709,-178.479 180,-159 222.404,-116.183 167.008,-32.0616 221.857,-28.1419"/>
<ellipse fill="#d98c32" stroke="#d98c32" stroke-width="2" cx="224.001" cy="-28.0685" rx="2" ry="2"/>
</g>
<!-- #anon:57:21&#45;&gt;timer_final_delay -->
<g id="edge7" class="edge"><title>#anon:57:21:OUT:e&#45;&gt;timer_final_delay:ENABLED:w</title>
<path fill="none" stroke="#604732" stroke-width="2" d="M1161,-399C1188.55,-399 1182.7,-361.157 1206.86,-357.314"/>
<ellipse fill="#604732" stroke="#604732" stroke-width="2" cx="1209.01" cy="-357.151" rx="2" ry="2"/>
</g>
<!-- #anon:61:21&#45;&gt;timer_mid_delay -->
<g id="edge10" class="edge"><title>#anon:61:21:OUT:e&#45;&gt;timer_mid_delay:ENABLED:w</title>
<path fill="none" stroke="#2a02f0" stroke-width="2" d="M1161,-205C1242.51,-205 1046.77,-149.24 978,-193 946.128,-213.282 968.534,-243.11 942,-270 898.998,-313.579 877.676,-316.321 818,-330 785.943,-337.348 767.545,-352.964 744,-330 732.363,-318.65 726.306,-294.629 738.932,-290.584"/>
<ellipse fill="#2a02f0" stroke="#2a02f0" stroke-width="2" cx="741.02" cy="-290.284" rx="2.00001" ry="2.00001"/>
</g>
<!-- led -->
<g id="node13" class="node"><title>led</title>
<polygon fill="#8b0178" stroke="none" points="396,-308 396,-337 482,-337 482,-308 396,-308"/>
<polygon fill="none" stroke="#3a0032" points="396,-308 396,-337 482,-337 482,-308 396,-308"/>
<text text-anchor="start" x="429.5" y="-323.3" font-family="Helvetica,sans-Serif" font-size="14.00" fill="#ffffff">led</text>
<text text-anchor="start" x="419" y="-314.1" font-family="Helvetica,sans-Serif" font-size="8.00" fill="#ffffff">LED_PWM</text>
<polygon fill="#68005a" stroke="none" points="396,-291 396,-308 482,-308 482,-291 396,-291"/>
<polygon fill="none" stroke="#3a0032" points="396,-291 396,-308 482,-308 482,-291 396,-291"/>
<text text-anchor="start" x="399" y="-297" font-family="Helvetica,sans-Serif" font-size="10.00" fill="#ffffff">◎ DUTY_CYCLE</text>
</g>
<!-- mult&#45;&gt;led -->
<g id="edge13" class="edge"><title>mult:OUT:e&#45;&gt;led:DUTY_CYCLE:w</title>
<path fill="none" stroke="#93d178" stroke-width="2" d="M298,-289C339.816,-289 350.894,-298.309 390.549,-298.964"/>
<ellipse fill="#93d178" stroke="#93d178" stroke-width="2" cx="393" cy="-298.984" rx="2" ry="2"/>
</g>
<!-- #anon:69:31 -->
<g id="node15" class="node"><title>#anon:69:31</title>
<polygon fill="#bd648a" stroke="none" points="353,-243 353,-265 526,-265 526,-243 353,-243"/>
<polygon fill="none" stroke="#4e2a39" points="353,-243 353,-265 526,-265 526,-243 353,-243"/>
<text text-anchor="start" x="356.5" y="-250.3" font-family="Helvetica,sans-Serif" font-size="14.00" fill="#000000">converter/boolean&#45;to&#45;empty</text>
<polygon fill="#8d4b67" stroke="none" points="353,-226 353,-243 526,-243 526,-226 353,-226"/>
<polygon fill="none" stroke="#4e2a39" points="353,-226 353,-243 526,-243 526,-226 353,-226"/>
<text text-anchor="start" x="356" y="-232" font-family="Helvetica,sans-Serif" font-size="10.00" fill="#ffffff">◎ PULSE_IF_TRUE</text>
<polygon fill="#69384d" stroke="none" points="353,-209 353,-226 526,-226 526,-209 353,-209"/>
<polygon fill="none" stroke="#4e2a39" points="353,-209 353,-226 526,-226 526,-209 353,-209"/>
<text text-anchor="start" x="490" y="-215" font-family="Helvetica,sans-Serif" font-size="10.00" fill="#ffffff">OUT ◉</text>
</g>
<!-- comp_max&#45;&gt;#anon:69:31 -->
<g id="edge17" class="edge"><title>comp_max:OUT:e&#45;&gt;#anon:69:31:PULSE_IF_TRUE:w</title>
<path fill="none" stroke="#45cbf0" stroke-width="2" d="M301,-100C363.23,-100 291.783,-227.792 347.747,-233.783"/>
<ellipse fill="#45cbf0" stroke="#45cbf0" stroke-width="2" cx="350.003" cy="-233.898" rx="2" ry="2"/>
</g>
<!-- at_max -->
<g id="node16" class="node"><title>at_max</title>
<polygon fill="#bd648a" stroke="none" points="579,-325 579,-354 686,-354 686,-325 579,-325"/>
<polygon fill="none" stroke="#4e2a39" points="579,-325 579,-354 686,-354 686,-325 579,-325"/>
<text text-anchor="start" x="609.5" y="-340.3" font-family="Helvetica,sans-Serif" font-size="14.00" fill="#000000">at_max</text>
<text text-anchor="start" x="582.5" y="-331.1" font-family="Helvetica,sans-Serif" font-size="8.00" fill="#000000">converter/empty&#45;to&#45;boolean</text>
<polygon fill="#8d4b67" stroke="none" points="579,-308 579,-325 686,-325 686,-308 579,-308"/>
<polygon fill="none" stroke="#4e2a39" points="579,-308 579,-325 686,-325 686,-308 579,-308"/>
<text text-anchor="start" x="582" y="-314" font-family="Helvetica,sans-Serif" font-size="10.00" fill="#ffffff">◎ IN</text>
<polygon fill="#69384d" stroke="none" points="579,-291 579,-308 686,-308 686,-291 579,-291"/>
<polygon fill="none" stroke="#4e2a39" points="579,-291 579,-308 686,-308 686,-291 579,-291"/>
<text text-anchor="start" x="650" y="-297" font-family="Helvetica,sans-Serif" font-size="10.00" fill="#ffffff">OUT ◉</text>
</g>
<!-- #anon:69:31&#45;&gt;at_max -->
<g id="edge18" class="edge"><title>#anon:69:31:OUT:e&#45;&gt;at_max:IN:w</title>
<path fill="none" stroke="#56c2ba" stroke-width="2" d="M527,-217C575.045,-217 531.233,-310.284 573.896,-315.75"/>
<ellipse fill="#56c2ba" stroke="#56c2ba" stroke-width="2" cx="576.004" cy="-315.878" rx="2" ry="2"/>
</g>
<!-- at_max&#45;&gt;timer_mid_delay -->
<g id="edge21" class="edge"><title>at_max:OUT:e&#45;&gt;timer_mid_delay:RESET:w</title>
<path fill="none" stroke="#272ea2" stroke-width="2" d="M687,-299C713.228,-299 715.225,-274.673 738.992,-272.202"/>
<ellipse fill="#272ea2" stroke="#272ea2" stroke-width="2" cx="741.003" cy="-272.101" rx="2" ry="2"/>
</g>
<!-- #anon:70:18 -->
<g id="node17" class="node"><title>#anon:70:18</title>
<polygon fill="#184294" stroke="none" points="738,-463 738,-485 816,-485 816,-463 738,-463"/>
<polygon fill="none" stroke="#091b3e" points="738,-463 738,-485 816,-485 816,-463 738,-463"/>
<text text-anchor="start" x="741.5" y="-470.3" font-family="Helvetica,sans-Serif" font-size="14.00" fill="#ffffff">boolean/not</text>
<polygon fill="#12316f" stroke="none" points="738,-446 738,-463 816,-463 816,-446 738,-446"/>
<polygon fill="none" stroke="#091b3e" points="738,-446 738,-463 816,-463 816,-446 738,-446"/>
<text text-anchor="start" x="741" y="-452" font-family="Helvetica,sans-Serif" font-size="10.00" fill="#ffffff">◎ IN</text>
<polygon fill="#0d2453" stroke="none" points="738,-429 738,-446 816,-446 816,-429 738,-429"/>
<polygon fill="none" stroke="#091b3e" points="738,-429 738,-446 816,-446 816,-429 738,-429"/>
<text text-anchor="start" x="780" y="-435" font-family="Helvetica,sans-Serif" font-size="10.00" fill="#ffffff">OUT ◉</text>
</g>
<!-- at_max&#45;&gt;#anon:70:18 -->
<g id="edge19" class="edge"><title>at_max:OUT:e&#45;&gt;#anon:70:18:IN:w</title>
<path fill="none" stroke="#b0680a" stroke-width="2" d="M687,-299C757.971,-299 668.254,-448.004 732.948,-453.825"/>
<ellipse fill="#b0680a" stroke="#b0680a" stroke-width="2" cx="735.002" cy="-453.914" rx="2" ry="2"/>
</g>
<!-- #anon:70:18&#45;&gt;timer_inc -->
<g id="edge20" class="edge"><title>#anon:70:18:OUT:e&#45;&gt;timer_inc:ENABLED:w</title>
<path fill="none" stroke="#ec4722" stroke-width="2" d="M817,-437C838.425,-437 843.538,-426.453 862.923,-425.135"/>
<ellipse fill="#ec4722" stroke="#ec4722" stroke-width="2" cx="865.001" cy="-425.066" rx="2" ry="2"/>
</g>
<!-- #anon:75:31 -->
<g id="node19" class="node"><title>#anon:75:31</title>
<polygon fill="#bd648a" stroke="none" points="353,-60 353,-82 526,-82 526,-60 353,-60"/>
<polygon fill="none" stroke="#4e2a39" points="353,-60 353,-82 526,-82 526,-60 353,-60"/>
<text text-anchor="start" x="356.5" y="-67.3" font-family="Helvetica,sans-Serif" font-size="14.00" fill="#000000">converter/boolean&#45;to&#45;empty</text>
<polygon fill="#8d4b67" stroke="none" points="353,-43 353,-60 526,-60 526,-43 353,-43"/>
<polygon fill="none" stroke="#4e2a39" points="353,-43 353,-60 526,-60 526,-43 353,-43"/>
<text text-anchor="start" x="356" y="-49" font-family="Helvetica,sans-Serif" font-size="10.00" fill="#ffffff">◎ PULSE_IF_TRUE</text>
<polygon fill="#69384d" stroke="none" points="353,-26 353,-43 526,-43 526,-26 353,-26"/>
<polygon fill="none" stroke="#4e2a39" points="353,-26 353,-43 526,-43 526,-26 353,-26"/>
<text text-anchor="start" x="490" y="-32" font-family="Helvetica,sans-Serif" font-size="10.00" fill="#ffffff">OUT ◉</text>
</g>
<!-- comp_min&#45;&gt;#anon:75:31 -->
<g id="edge24" class="edge"><title>comp_min:OUT:e&#45;&gt;#anon:75:31:PULSE_IF_TRUE:w</title>
<path fill="none" stroke="#6cb080" stroke-width="2" d="M299,-11C327.013,-11 323.009,-47.0406 347.77,-50.701"/>
<ellipse fill="#6cb080" stroke="#6cb080" stroke-width="2" cx="350.005" cy="-50.859" rx="2" ry="2"/>
</g>
<!-- at_min -->
<g id="node20" class="node"><title>at_min</title>
<polygon fill="#bd648a" stroke="none" points="579,-83 579,-112 686,-112 686,-83 579,-83"/>
<polygon fill="none" stroke="#4e2a39" points="579,-83 579,-112 686,-112 686,-83 579,-83"/>
<text text-anchor="start" x="611.5" y="-98.3" font-family="Helvetica,sans-Serif" font-size="14.00" fill="#000000">at_min</text>
<text text-anchor="start" x="582.5" y="-89.1" font-family="Helvetica,sans-Serif" font-size="8.00" fill="#000000">converter/empty&#45;to&#45;boolean</text>
<polygon fill="#8d4b67" stroke="none" points="579,-66 579,-83 686,-83 686,-66 579,-66"/>
<polygon fill="none" stroke="#4e2a39" points="579,-66 579,-83 686,-83 686,-66 579,-66"/>
<text text-anchor="start" x="582" y="-72" font-family="Helvetica,sans-Serif" font-size="10.00" fill="#ffffff">◎ IN</text>
<polygon fill="#69384d" stroke="none" points="579,-49 579,-66 686,-66 686,-49 579,-49"/>
<polygon fill="none" stroke="#4e2a39" points="579,-49 579,-66 686,-66 686,-49 579,-49"/>
<text text-anchor="start" x="650" y="-55" font-family="Helvetica,sans-Serif" font-size="10.00" fill="#ffffff">OUT ◉</text>
</g>
<!-- #anon:75:31&#45;&gt;at_min -->
<g id="edge25" class="edge"><title>#anon:75:31:OUT:e&#45;&gt;at_min:IN:w</title>
<path fill="none" stroke="#7fb9ca" stroke-width="2" d="M527,-34C554.344,-34 549.774,-70.0406 573.876,-73.701"/>
<ellipse fill="#7fb9ca" stroke="#7fb9ca" stroke-width="2" cx="576.005" cy="-73.8553" rx="2" ry="2"/>
</g>
<!-- at_min&#45;&gt;timer_final_delay -->
<g id="edge28" class="edge"><title>at_min:OUT:e&#45;&gt;timer_final_delay:RESET:w</title>
<path fill="none" stroke="#2751d2" stroke-width="2" d="M687,-57C908.104,-57 1014.3,-25.052 1168,-184 1216.72,-234.39 1142.51,-334.973 1206.98,-338.883"/>
<ellipse fill="#2751d2" stroke="#2751d2" stroke-width="2" cx="1209" cy="-338.942" rx="2" ry="2"/>
</g>
<!-- #anon:76:18 -->
<g id="node21" class="node"><title>#anon:76:18</title>
<polygon fill="#184294" stroke="none" points="738,-123 738,-145 816,-145 816,-123 738,-123"/>
<polygon fill="none" stroke="#091b3e" points="738,-123 738,-145 816,-145 816,-123 738,-123"/>
<text text-anchor="start" x="741.5" y="-130.3" font-family="Helvetica,sans-Serif" font-size="14.00" fill="#ffffff">boolean/not</text>
<polygon fill="#12316f" stroke="none" points="738,-106 738,-123 816,-123 816,-106 738,-106"/>
<polygon fill="none" stroke="#091b3e" points="738,-106 738,-123 816,-123 816,-106 738,-106"/>
<text text-anchor="start" x="741" y="-112" font-family="Helvetica,sans-Serif" font-size="10.00" fill="#ffffff">◎ IN</text>
<polygon fill="#0d2453" stroke="none" points="738,-89 738,-106 816,-106 816,-89 738,-89"/>
<polygon fill="none" stroke="#091b3e" points="738,-89 738,-106 816,-106 816,-89 738,-89"/>
<text text-anchor="start" x="780" y="-95" font-family="Helvetica,sans-Serif" font-size="10.00" fill="#ffffff">OUT ◉</text>
</g>
<!-- at_min&#45;&gt;#anon:76:18 -->
<g id="edge26" class="edge"><title>at_min:OUT:e&#45;&gt;#anon:76:18:IN:w</title>
<path fill="none" stroke="#6fab68" stroke-width="2" d="M687,-57C719.251,-57 704.702,-109.207 732.931,-113.693"/>
<ellipse fill="#6fab68" stroke="#6fab68" stroke-width="2" cx="735.006" cy="-113.85" rx="2" ry="2"/>
</g>
<!-- #anon:76:18&#45;&gt;timer_dec -->
<g id="edge27" class="edge"><title>#anon:76:18:OUT:e&#45;&gt;timer_dec:ENABLED:w</title>
<path fill="none" stroke="#3d5e20" stroke-width="2" d="M817,-97C867.665,-97 817.794,-197.282 862.961,-202.767"/>
<ellipse fill="#3d5e20" stroke="#3d5e20" stroke-width="2" cx="865.003" cy="-202.885" rx="2" ry="2"/>
</g>
</g>
</svg>
