<?xml version="1.0" encoding="UTF-8" standalone="no"?>
<!DOCTYPE svg PUBLIC "-//W3C//DTD SVG 1.1//EN"
 "http://www.w3.org/Graphics/SVG/1.1/DTD/svg11.dtd">
<!-- Generated by graphviz version 2.36.0 (20140111.2315)
 -->
<!-- Title: fbp Pages: 1 -->
<svg width="566pt" height="151pt"
 viewBox="0.00 0.00 566.00 151.00" xmlns="http://www.w3.org/2000/svg" xmlns:xlink="http://www.w3.org/1999/xlink">
<g id="graph0" class="graph" transform="scale(1 1) rotate(0) translate(4 147)">
<title>fbp</title>
<polygon fill="white" stroke="none" points="-4,4 -4,-147 562,-147 562,4 -4,4"/>
<!-- const_celsius_symbol -->
<g id="node1" class="node"><title>const_celsius_symbol</title>
<polygon fill="#e8ea7a" stroke="none" points="184,-110 184,-139 324,-139 324,-110 184,-110"/>
<polygon fill="none" stroke="#616233" points="184,-110 184,-139 324,-139 324,-110 184,-110"/>
<text text-anchor="start" x="187.5" y="-125.3" font-family="Helvetica,sans-Serif" font-size="14.00" fill="#000000">const_celsius_symbol</text>
<text text-anchor="start" x="228" y="-116.1" font-family="Helvetica,sans-Serif" font-size="8.00" fill="#000000">constant/string</text>
<polygon fill="#828344" stroke="none" points="184,-93 184,-110 324,-110 324,-93 184,-93"/>
<polygon fill="none" stroke="#616233" points="184,-93 184,-110 324,-110 324,-93 184,-93"/>
<text text-anchor="start" x="288" y="-99" font-family="Helvetica,sans-Serif" font-size="10.00" fill="#ffffff">OUT ◉</text>
</g>
<!-- concat -->
<g id="node4" class="node"><title>concat</title>
<polygon fill="#c1ee90" stroke="none" points="377,-65 377,-94 450,-94 450,-65 377,-65"/>
<polygon fill="none" stroke="#51633c" points="377,-65 377,-94 450,-94 450,-65 377,-65"/>
<text text-anchor="start" x="393.5" y="-80.3" font-family="Helvetica,sans-Serif" font-size="14.00" fill="#000000">concat</text>
<text text-anchor="start" x="380.5" y="-71.1" font-family="Helvetica,sans-Serif" font-size="8.00" fill="#000000">string/concatenate</text>
<polygon fill="#90b26c" stroke="none" points="377,-48 377,-65 450,-65 450,-48 377,-48"/>
<polygon fill="none" stroke="#51633c" points="377,-48 377,-65 450,-65 450,-48 377,-48"/>
<text text-anchor="start" x="380" y="-54" font-family="Helvetica,sans-Serif" font-size="10.00" fill="#000000">◎ IN</text>
<polygon fill="#6c8551" stroke="none" points="377,-31 377,-48 450,-48 450,-31 377,-31"/>
<polygon fill="none" stroke="#51633c" points="377,-31 377,-48 450,-48 450,-31 377,-31"/>
<text text-anchor="start" x="414" y="-37" font-family="Helvetica,sans-Serif" font-size="10.00" fill="#ffffff">OUT ◉</text>
</g>
<!-- const_celsius_symbol&#45;&gt;concat -->
<g id="edge3" class="edge"><title>const_celsius_symbol:OUT:e&#45;&gt;concat:IN:w</title>
<path fill="none" stroke="#459198" stroke-width="2" d="M325,-101C353.812,-101 346.571,-60.1199 372.003,-56.2874"/>
<ellipse fill="#459198" stroke="#459198" stroke-width="2" cx="374.005" cy="-56.1434" rx="2" ry="2"/>
</g>
<!-- temperatureSensor -->
<g id="node2" class="node"><title>temperatureSensor</title>
<polygon fill="#539d5a" stroke="none" points="8,-37 8,-66 132,-66 132,-37 8,-37"/>
<polygon fill="none" stroke="#224125" points="8,-37 8,-66 132,-66 132,-37 8,-37"/>
<text text-anchor="start" x="11.5" y="-52.3" font-family="Helvetica,sans-Serif" font-size="14.00" fill="#ffffff">temperatureSensor</text>
<text text-anchor="start" x="33.5" y="-43.1" font-family="Helvetica,sans-Serif" font-size="8.00" fill="#ffffff">TemperatureSensor</text>
<polygon fill="#2e5732" stroke="none" points="8,-20 8,-37 132,-37 132,-20 8,-20"/>
<polygon fill="none" stroke="#224125" points="8,-20 8,-37 132,-37 132,-20 8,-20"/>
<text text-anchor="start" x="74" y="-26" font-family="Helvetica,sans-Serif" font-size="10.00" fill="#ffffff">CELSIUS ◉</text>
</g>
<!-- converter -->
<g id="node3" class="node"><title>converter</title>
<polygon fill="#bd648a" stroke="none" points="209,-37 209,-66 300,-66 300,-37 209,-37"/>
<polygon fill="none" stroke="#4e2a39" points="209,-37 209,-66 300,-66 300,-37 209,-37"/>
<text text-anchor="start" x="226" y="-52.3" font-family="Helvetica,sans-Serif" font-size="14.00" fill="#000000">converter</text>
<text text-anchor="start" x="212.5" y="-43.1" font-family="Helvetica,sans-Serif" font-size="8.00" fill="#000000">converter/float&#45;to&#45;string</text>
<polygon fill="#8d4b67" stroke="none" points="209,-20 209,-37 300,-37 300,-20 209,-20"/>
<polygon fill="none" stroke="#4e2a39" points="209,-20 209,-37 300,-37 300,-20 209,-20"/>
<text text-anchor="start" x="212" y="-26" font-family="Helvetica,sans-Serif" font-size="10.00" fill="#ffffff">◎ IN</text>
<polygon fill="#69384d" stroke="none" points="209,-3 209,-20 300,-20 300,-3 209,-3"/>
<polygon fill="none" stroke="#4e2a39" points="209,-3 209,-20 300,-20 300,-3 209,-3"/>
<text text-anchor="start" x="264" y="-9" font-family="Helvetica,sans-Serif" font-size="10.00" fill="#ffffff">OUT ◉</text>
</g>
<!-- temperatureSensor&#45;&gt;converter -->
<g id="edge1" class="edge"><title>temperatureSensor:CELSIUS:e&#45;&gt;converter:IN:w</title>
<path fill="none" stroke="#8e3efc" stroke-width="2" d="M133,-28C164.901,-28 173.904,-28 203.838,-28"/>
<ellipse fill="#8e3efc" stroke="#8e3efc" stroke-width="2" cx="206" cy="-28" rx="2" ry="2"/>
</g>
<!-- converter&#45;&gt;concat -->
<g id="edge2" class="edge"><title>converter:OUT:e&#45;&gt;concat:IN:w</title>
<path fill="none" stroke="#3b64ae" stroke-width="2" d="M301,-11C338.355,-11 337.278,-52.553 371.63,-55.7994"/>
<ellipse fill="#3b64ae" stroke="#3b64ae" stroke-width="2" cx="374.002" cy="-55.9082" rx="2" ry="2"/>
</g>
<!-- screen -->
<g id="node5" class="node"><title>screen</title>
<polygon fill="#72d2de" stroke="none" points="502,-48 502,-77 550,-77 550,-48 502,-48"/>
<polygon fill="none" stroke="#2f575d" points="502,-48 502,-77 550,-77 550,-48 502,-48"/>
<text text-anchor="start" x="505.5" y="-63.3" font-family="Helvetica,sans-Serif" font-size="14.00" fill="#000000">screen</text>
<text text-anchor="start" x="507" y="-54.1" font-family="Helvetica,sans-Serif" font-size="8.00" fill="#000000">LCDString</text>
<polygon fill="#559da6" stroke="none" points="502,-31 502,-48 550,-48 550,-31 502,-31"/>
<polygon fill="none" stroke="#2f575d" points="502,-31 502,-48 550,-48 550,-31 502,-31"/>
<text text-anchor="start" x="505" y="-37" font-family="Helvetica,sans-Serif" font-size="10.00" fill="#000000">◎ IN</text>
</g>
<!-- concat&#45;&gt;screen -->
<g id="edge4" class="edge"><title>concat:OUT:e&#45;&gt;screen:IN:w</title>
<path fill="none" stroke="#5f2748" stroke-width="2" d="M451,-39C471.66,-39 477.914,-39 496.548,-39"/>
<ellipse fill="#5f2748" stroke="#5f2748" stroke-width="2" cx="499" cy="-39" rx="2" ry="2"/>
</g>
</g>
</svg>
