<?xml version="1.0" encoding="UTF-8" standalone="no"?>
<!DOCTYPE svg PUBLIC "-//W3C//DTD SVG 1.1//EN"
 "http://www.w3.org/Graphics/SVG/1.1/DTD/svg11.dtd">
<!-- Generated by graphviz version 2.36.0 (20140111.2315)
 -->
<!-- Title: fbp Pages: 1 -->
<svg width="226pt" height="62pt"
 viewBox="0.00 0.00 226.00 62.00" xmlns="http://www.w3.org/2000/svg" xmlns:xlink="http://www.w3.org/1999/xlink">
<g id="graph0" class="graph" transform="scale(1 1) rotate(0) translate(4 58)">
<title>fbp</title>
<polygon fill="white" stroke="none" points="-4,4 -4,-58 222,-58 222,4 -4,4"/>
<!-- socket_string -->
<g id="node1" class="node"><title>socket_string</title>
<polygon fill="#f5712e" stroke="none" points="8,-21 8,-50 104,-50 104,-21 8,-21"/>
<polygon fill="none" stroke="#662f12" points="8,-21 8,-50 104,-50 104,-21 8,-21"/>
<text text-anchor="start" x="16" y="-36.3" font-family="Helvetica,sans-Serif" font-size="14.00" fill="#000000">socket_string</text>
<text text-anchor="start" x="11.5" y="-27.1" font-family="Helvetica,sans-Serif" font-size="8.00" fill="#000000">unix&#45;socket/string&#45;reader</text>
<polygon fill="#893f19" stroke="none" points="8,-4 8,-21 104,-21 104,-4 8,-4"/>
<polygon fill="none" stroke="#662f12" points="8,-4 8,-21 104,-21 104,-4 8,-4"/>
<text text-anchor="start" x="68" y="-10" font-family="Helvetica,sans-Serif" font-size="10.00" fill="#ffffff">OUT ◉</text>
</g>
<!-- console -->
<g id="node2" class="node"><title>console</title>
<polygon fill="#471ca4" stroke="none" points="156,-21 156,-50 210,-50 210,-21 156,-21"/>
<polygon fill="none" stroke="#1d0b45" points="156,-21 156,-50 210,-50 210,-21 156,-21"/>
<text text-anchor="start" x="159.5" y="-36.3" font-family="Helvetica,sans-Serif" font-size="14.00" fill="#ffffff">console</text>
<text text-anchor="start" x="169" y="-27.1" font-family="Helvetica,sans-Serif" font-size="8.00" fill="#ffffff">console</text>
<polygon fill="#35157b" stroke="none" points="156,-4 156,-21 210,-21 210,-4 156,-4"/>
<polygon fill="none" stroke="#1d0b45" points="156,-4 156,-21 210,-21 210,-4 156,-4"/>
<text text-anchor="start" x="159" y="-10" font-family="Helvetica,sans-Serif" font-size="10.00" fill="#ffffff">◎ IN</text>
</g>
<!-- socket_string&#45;&gt;console -->
<g id="edge1" class="edge"><title>socket_string:OUT_OUT:e&#45;&gt;console:IN_IN:w</title>
<path fill="none" stroke="#a76958" stroke-width="2" d="M105,-12C125.66,-12 131.914,-12 150.548,-12"/>
<ellipse fill="#a76958" stroke="#a76958" stroke-width="2" cx="153" cy="-12" rx="2" ry="2"/>
</g>
</g>
</svg>
