<?xml version="1.0" encoding="UTF-8" standalone="no"?>
<!DOCTYPE svg PUBLIC "-//W3C//DTD SVG 1.1//EN"
 "http://www.w3.org/Graphics/SVG/1.1/DTD/svg11.dtd">
<!-- Generated by graphviz version 2.36.0 (20140111.2315)
 -->
<!-- Title: fbp Pages: 1 -->
<svg width="452pt" height="761pt"
 viewBox="0.00 0.00 452.00 761.00" xmlns="http://www.w3.org/2000/svg" xmlns:xlink="http://www.w3.org/1999/xlink">
<g id="graph0" class="graph" transform="scale(1 1) rotate(0) translate(4 757)">
<title>fbp</title>
<polygon fill="white" stroke="none" points="-4,4 -4,-757 448,-757 448,4 -4,4"/>
<!-- toggle -->
<g id="node1" class="node"><title>toggle</title>
<polygon fill="#bdce5e" stroke="none" points="29,-57 29,-86 73,-86 73,-57 29,-57"/>
<polygon fill="none" stroke="#4e5627" points="29,-57 29,-86 73,-86 73,-57 29,-57"/>
<text text-anchor="start" x="32.5" y="-72.3" font-family="Helvetica,sans-Serif" font-size="14.00" fill="#000000">toggle</text>
<text text-anchor="start" x="33.5" y="-63.1" font-family="Helvetica,sans-Serif" font-size="8.00" fill="#000000">gtk/toggle</text>
<polygon fill="#697334" stroke="none" points="29,-40 29,-57 73,-57 73,-40 29,-40"/>
<polygon fill="none" stroke="#4e5627" points="29,-40 29,-57 73,-57 73,-40 29,-40"/>
<text text-anchor="start" x="37" y="-46" font-family="Helvetica,sans-Serif" font-size="10.00" fill="#ffffff">OUT ◉</text>
</g>
<!-- toggle_output -->
<g id="node2" class="node"><title>toggle_output</title>
<polygon fill="#bdce5e" stroke="none" points="190,-93 190,-122 279,-122 279,-93 190,-93"/>
<polygon fill="none" stroke="#4e5627" points="190,-93 190,-122 279,-122 279,-93 190,-93"/>
<text text-anchor="start" x="193.5" y="-108.3" font-family="Helvetica,sans-Serif" font-size="14.00" fill="#000000">toggle_output</text>
<text text-anchor="start" x="219.5" y="-99.1" font-family="Helvetica,sans-Serif" font-size="8.00" fill="#000000">gtk/label</text>
<polygon fill="#8d9a46" stroke="none" points="190,-76 190,-93 279,-93 279,-76 190,-76"/>
<polygon fill="none" stroke="#4e5627" points="190,-76 190,-93 279,-93 279,-76 190,-76"/>
<text text-anchor="start" x="193" y="-82" font-family="Helvetica,sans-Serif" font-size="10.00" fill="#000000">◎ IN</text>
</g>
<!-- toggle&#45;&gt;toggle_output -->
<g id="edge1" class="edge"><title>toggle:OUT:e&#45;&gt;toggle_output:IN:w</title>
<path fill="none" stroke="#f45450" stroke-width="2" d="M74,-48C126.092,-48 134.978,-82.0582 184.707,-83.9207"/>
<ellipse fill="#f45450" stroke="#f45450" stroke-width="2" cx="187" cy="-83.963" rx="2" ry="2"/>
</g>
<!-- toggle_output2 -->
<g id="node3" class="node"><title>toggle_output2</title>
<polygon fill="#bdce5e" stroke="none" points="186,-21 186,-50 283,-50 283,-21 186,-21"/>
<polygon fill="none" stroke="#4e5627" points="186,-21 186,-50 283,-50 283,-21 186,-21"/>
<text text-anchor="start" x="189.5" y="-36.3" font-family="Helvetica,sans-Serif" font-size="14.00" fill="#000000">toggle_output2</text>
<text text-anchor="start" x="222.5" y="-27.1" font-family="Helvetica,sans-Serif" font-size="8.00" fill="#000000">gtk/led</text>
<polygon fill="#8d9a46" stroke="none" points="186,-4 186,-21 283,-21 283,-4 186,-4"/>
<polygon fill="none" stroke="#4e5627" points="186,-4 186,-21 283,-21 283,-4 186,-4"/>
<text text-anchor="start" x="189" y="-10" font-family="Helvetica,sans-Serif" font-size="10.00" fill="#000000">◎ IN</text>
</g>
<!-- toggle&#45;&gt;toggle_output2 -->
<g id="edge2" class="edge"><title>toggle:OUT:e&#45;&gt;toggle_output2:IN:w</title>
<path fill="none" stroke="#ca31b8" stroke-width="2" d="M74,-48C124.445,-48 132.706,-13.9418 180.844,-12.0793"/>
<ellipse fill="#ca31b8" stroke="#ca31b8" stroke-width="2" cx="183" cy="-12.0382" rx="2" ry="2"/>
</g>
<!-- slider -->
<g id="node4" class="node"><title>slider</title>
<polygon fill="#bdce5e" stroke="none" points="31,-165 31,-194 71,-194 71,-165 31,-165"/>
<polygon fill="none" stroke="#4e5627" points="31,-165 31,-194 71,-194 71,-165 31,-165"/>
<text text-anchor="start" x="34.5" y="-180.3" font-family="Helvetica,sans-Serif" font-size="14.00" fill="#000000">slider</text>
<text text-anchor="start" x="35" y="-171.1" font-family="Helvetica,sans-Serif" font-size="8.00" fill="#000000">gtk/slider</text>
<polygon fill="#697334" stroke="none" points="31,-148 31,-165 71,-165 71,-148 31,-148"/>
<polygon fill="none" stroke="#4e5627" points="31,-148 31,-165 71,-165 71,-148 31,-148"/>
<text text-anchor="start" x="35" y="-154" font-family="Helvetica,sans-Serif" font-size="10.00" fill="#ffffff">OUT ◉</text>
</g>
<!-- slider_output -->
<g id="node5" class="node"><title>slider_output</title>
<polygon fill="#bdce5e" stroke="none" points="192,-165 192,-194 277,-194 277,-165 192,-165"/>
<polygon fill="none" stroke="#4e5627" points="192,-165 192,-194 277,-194 277,-165 192,-165"/>
<text text-anchor="start" x="195.5" y="-180.3" font-family="Helvetica,sans-Serif" font-size="14.00" fill="#000000">slider_output</text>
<text text-anchor="start" x="219.5" y="-171.1" font-family="Helvetica,sans-Serif" font-size="8.00" fill="#000000">gtk/label</text>
<polygon fill="#8d9a46" stroke="none" points="192,-148 192,-165 277,-165 277,-148 192,-148"/>
<polygon fill="none" stroke="#4e5627" points="192,-148 192,-165 277,-165 277,-148 192,-148"/>
<text text-anchor="start" x="195" y="-154" font-family="Helvetica,sans-Serif" font-size="10.00" fill="#000000">◎ IN</text>
</g>
<!-- slider&#45;&gt;slider_output -->
<g id="edge3" class="edge"><title>slider:OUT:e&#45;&gt;slider_output:IN:w</title>
<path fill="none" stroke="#5288a2" stroke-width="2" d="M72,-156C123.443,-156 137.358,-156 186.749,-156"/>
<ellipse fill="#5288a2" stroke="#5288a2" stroke-width="2" cx="189" cy="-156" rx="2" ry="2"/>
</g>
<!-- spinbutton -->
<g id="node6" class="node"><title>spinbutton</title>
<polygon fill="#bdce5e" stroke="none" points="16,-237 16,-266 86,-266 86,-237 16,-237"/>
<polygon fill="none" stroke="#4e5627" points="16,-237 16,-266 86,-266 86,-237 16,-237"/>
<text text-anchor="start" x="19.5" y="-252.3" font-family="Helvetica,sans-Serif" font-size="14.00" fill="#000000">spinbutton</text>
<text text-anchor="start" x="26" y="-243.1" font-family="Helvetica,sans-Serif" font-size="8.00" fill="#000000">gtk/spinbutton</text>
<polygon fill="#697334" stroke="none" points="16,-220 16,-237 86,-237 86,-220 16,-220"/>
<polygon fill="none" stroke="#4e5627" points="16,-220 16,-237 86,-237 86,-220 16,-220"/>
<text text-anchor="start" x="50" y="-226" font-family="Helvetica,sans-Serif" font-size="10.00" fill="#ffffff">OUT ◉</text>
</g>
<!-- spinbutton_output -->
<g id="node7" class="node"><title>spinbutton_output</title>
<polygon fill="#bdce5e" stroke="none" points="177,-237 177,-266 292,-266 292,-237 177,-237"/>
<polygon fill="none" stroke="#4e5627" points="177,-237 177,-266 292,-266 292,-237 177,-237"/>
<text text-anchor="start" x="180.5" y="-252.3" font-family="Helvetica,sans-Serif" font-size="14.00" fill="#000000">spinbutton_output</text>
<text text-anchor="start" x="219.5" y="-243.1" font-family="Helvetica,sans-Serif" font-size="8.00" fill="#000000">gtk/label</text>
<polygon fill="#8d9a46" stroke="none" points="177,-220 177,-237 292,-237 292,-220 177,-220"/>
<polygon fill="none" stroke="#4e5627" points="177,-220 177,-237 292,-237 292,-220 177,-220"/>
<text text-anchor="start" x="180" y="-226" font-family="Helvetica,sans-Serif" font-size="10.00" fill="#000000">◎ IN</text>
</g>
<!-- spinbutton&#45;&gt;spinbutton_output -->
<g id="edge4" class="edge"><title>spinbutton:OUT:e&#45;&gt;spinbutton_output:IN:w</title>
<path fill="none" stroke="#6a1e4a" stroke-width="2" d="M87,-228C125.165,-228 135.712,-228 171.936,-228"/>
<ellipse fill="#6a1e4a" stroke="#6a1e4a" stroke-width="2" cx="174" cy="-228" rx="2" ry="2"/>
</g>
<!-- pwm_editor -->
<g id="node8" class="node"><title>pwm_editor</title>
<polygon fill="#bdce5e" stroke="none" points="8,-343 8,-372 94,-372 94,-343 8,-343"/>
<polygon fill="none" stroke="#4e5627" points="8,-343 8,-372 94,-372 94,-343 8,-343"/>
<text text-anchor="start" x="15.5" y="-358.3" font-family="Helvetica,sans-Serif" font-size="14.00" fill="#000000">pwm_editor</text>
<text text-anchor="start" x="24" y="-349.1" font-family="Helvetica,sans-Serif" font-size="8.00" fill="#000000">gtk/pwm&#45;editor</text>
<polygon fill="#697334" stroke="none" points="8,-326 8,-343 94,-343 94,-326 8,-326"/>
<polygon fill="none" stroke="#4e5627" points="8,-326 8,-343 94,-343 94,-326 8,-326"/>
<text text-anchor="start" x="32" y="-332" font-family="Helvetica,sans-Serif" font-size="10.00" fill="#ffffff">ENABLED ◉</text>
<polygon fill="#697334" stroke="none" points="8,-309 8,-326 94,-326 94,-309 8,-309"/>
<polygon fill="none" stroke="#4e5627" points="8,-309 8,-326 94,-326 94,-309 8,-309"/>
<text text-anchor="start" x="12" y="-315" font-family="Helvetica,sans-Serif" font-size="10.00" fill="#ffffff">DUTY_CYCLE ◉</text>
<polygon fill="#697334" stroke="none" points="8,-292 8,-309 94,-309 94,-292 8,-292"/>
<polygon fill="none" stroke="#4e5627" points="8,-292 8,-309 94,-309 94,-292 8,-292"/>
<text text-anchor="start" x="40" y="-298" font-family="Helvetica,sans-Serif" font-size="10.00" fill="#ffffff">PERIOD ◉</text>
</g>
<!-- pwm_viewer -->
<g id="node9" class="node"><title>pwm_viewer</title>
<polygon fill="#bdce5e" stroke="none" points="191,-343 191,-372 277,-372 277,-343 191,-343"/>
<polygon fill="none" stroke="#4e5627" points="191,-343 191,-372 277,-372 277,-343 191,-343"/>
<text text-anchor="start" x="196" y="-358.3" font-family="Helvetica,sans-Serif" font-size="14.00" fill="#000000">pwm_viewer</text>
<text text-anchor="start" x="205.5" y="-349.1" font-family="Helvetica,sans-Serif" font-size="8.00" fill="#000000">gtk/pwm&#45;viewer</text>
<polygon fill="#8d9a46" stroke="none" points="191,-326 191,-343 277,-343 277,-326 191,-326"/>
<polygon fill="none" stroke="#4e5627" points="191,-326 191,-343 277,-343 277,-326 191,-326"/>
<text text-anchor="start" x="194" y="-332" font-family="Helvetica,sans-Serif" font-size="10.00" fill="#000000">◎ ENABLED</text>
<polygon fill="#8d9a46" stroke="none" points="191,-309 191,-326 277,-326 277,-309 191,-309"/>
<polygon fill="none" stroke="#4e5627" points="191,-309 191,-326 277,-326 277,-309 191,-309"/>
<text text-anchor="start" x="194" y="-315" font-family="Helvetica,sans-Serif" font-size="10.00" fill="#000000">◎ DUTY_CYCLE</text>
<polygon fill="#8d9a46" stroke="none" points="191,-292 191,-309 277,-309 277,-292 191,-292"/>
<polygon fill="none" stroke="#4e5627" points="191,-292 191,-309 277,-309 277,-292 191,-292"/>
<text text-anchor="start" x="194" y="-298" font-family="Helvetica,sans-Serif" font-size="10.00" fill="#000000">◎ PERIOD</text>
</g>
<!-- pwm_editor&#45;&gt;pwm_viewer -->
<g id="edge5" class="edge"><title>pwm_editor:ENABLED:e&#45;&gt;pwm_viewer:ENABLED:w</title>
<path fill="none" stroke="#f6662e" stroke-width="2" d="M95,-335C135.738,-335 146.996,-335 185.662,-335"/>
<ellipse fill="#f6662e" stroke="#f6662e" stroke-width="2" cx="188" cy="-335" rx="2" ry="2"/>
</g>
<!-- pwm_editor&#45;&gt;pwm_viewer -->
<g id="edge6" class="edge"><title>pwm_editor:DUTY_CYCLE:e&#45;&gt;pwm_viewer:DUTY_CYCLE:w</title>
<path fill="none" stroke="#1da4da" stroke-width="2" d="M95,-317C135.738,-317 146.996,-317 185.662,-317"/>
<ellipse fill="#1da4da" stroke="#1da4da" stroke-width="2" cx="188" cy="-317" rx="2" ry="2"/>
</g>
<!-- pwm_editor&#45;&gt;pwm_viewer -->
<g id="edge7" class="edge"><title>pwm_editor:PERIOD:e&#45;&gt;pwm_viewer:PERIOD:w</title>
<path fill="none" stroke="#b13e64" stroke-width="2" d="M95,-300C135.738,-300 146.996,-300 185.662,-300"/>
<ellipse fill="#b13e64" stroke="#b13e64" stroke-width="2" cx="188" cy="-300" rx="2" ry="2"/>
</g>
<!-- byte_editor -->
<g id="node10" class="node"><title>byte_editor</title>
<polygon fill="#bdce5e" stroke="none" points="14,-415 14,-444 88,-444 88,-415 14,-415"/>
<polygon fill="none" stroke="#4e5627" points="14,-415 14,-444 88,-444 88,-415 14,-415"/>
<text text-anchor="start" x="17.5" y="-430.3" font-family="Helvetica,sans-Serif" font-size="14.00" fill="#000000">byte_editor</text>
<text text-anchor="start" x="25" y="-421.1" font-family="Helvetica,sans-Serif" font-size="8.00" fill="#000000">gtk/byte&#45;editor</text>
<polygon fill="#697334" stroke="none" points="14,-398 14,-415 88,-415 88,-398 14,-398"/>
<polygon fill="none" stroke="#4e5627" points="14,-398 14,-415 88,-415 88,-398 14,-398"/>
<text text-anchor="start" x="52" y="-404" font-family="Helvetica,sans-Serif" font-size="10.00" fill="#ffffff">OUT ◉</text>
</g>
<!-- byte_editor_output -->
<g id="node11" class="node"><title>byte_editor_output</title>
<polygon fill="#bdce5e" stroke="none" points="175,-415 175,-444 294,-444 294,-415 175,-415"/>
<polygon fill="none" stroke="#4e5627" points="175,-415 175,-444 294,-444 294,-415 175,-415"/>
<text text-anchor="start" x="178.5" y="-430.3" font-family="Helvetica,sans-Serif" font-size="14.00" fill="#000000">byte_editor_output</text>
<text text-anchor="start" x="219.5" y="-421.1" font-family="Helvetica,sans-Serif" font-size="8.00" fill="#000000">gtk/label</text>
<polygon fill="#8d9a46" stroke="none" points="175,-398 175,-415 294,-415 294,-398 175,-398"/>
<polygon fill="none" stroke="#4e5627" points="175,-398 175,-415 294,-415 294,-398 175,-398"/>
<text text-anchor="start" x="178" y="-404" font-family="Helvetica,sans-Serif" font-size="10.00" fill="#000000">◎ IN</text>
</g>
<!-- byte_editor&#45;&gt;byte_editor_output -->
<g id="edge8" class="edge"><title>byte_editor:OUT:e&#45;&gt;byte_editor_output:IN:w</title>
<path fill="none" stroke="#22545e" stroke-width="2" d="M89,-406C125.302,-406 135.441,-406 169.699,-406"/>
<ellipse fill="#22545e" stroke="#22545e" stroke-width="2" cx="172" cy="-406" rx="2" ry="2"/>
</g>
<!-- rgb_editor -->
<g id="node12" class="node"><title>rgb_editor</title>
<polygon fill="#bdce5e" stroke="none" points="17,-487 17,-516 85,-516 85,-487 17,-487"/>
<polygon fill="none" stroke="#4e5627" points="17,-487 17,-516 85,-516 85,-487 17,-487"/>
<text text-anchor="start" x="20.5" y="-502.3" font-family="Helvetica,sans-Serif" font-size="14.00" fill="#000000">rgb_editor</text>
<text text-anchor="start" x="26.5" y="-493.1" font-family="Helvetica,sans-Serif" font-size="8.00" fill="#000000">gtk/rgb&#45;editor</text>
<polygon fill="#697334" stroke="none" points="17,-470 17,-487 85,-487 85,-470 17,-470"/>
<polygon fill="none" stroke="#4e5627" points="17,-470 17,-487 85,-487 85,-470 17,-470"/>
<text text-anchor="start" x="49" y="-476" font-family="Helvetica,sans-Serif" font-size="10.00" fill="#ffffff">OUT ◉</text>
</g>
<!-- rgb_editor_output -->
<g id="node13" class="node"><title>rgb_editor_output</title>
<polygon fill="#bdce5e" stroke="none" points="178,-487 178,-516 291,-516 291,-487 178,-487"/>
<polygon fill="none" stroke="#4e5627" points="178,-487 178,-516 291,-516 291,-487 178,-487"/>
<text text-anchor="start" x="181.5" y="-502.3" font-family="Helvetica,sans-Serif" font-size="14.00" fill="#000000">rgb_editor_output</text>
<text text-anchor="start" x="222.5" y="-493.1" font-family="Helvetica,sans-Serif" font-size="8.00" fill="#000000">gtk/led</text>
<polygon fill="#8d9a46" stroke="none" points="178,-470 178,-487 291,-487 291,-470 178,-470"/>
<polygon fill="none" stroke="#4e5627" points="178,-470 178,-487 291,-487 291,-470 178,-470"/>
<text text-anchor="start" x="181" y="-476" font-family="Helvetica,sans-Serif" font-size="10.00" fill="#000000">◎ IN</text>
</g>
<!-- rgb_editor&#45;&gt;rgb_editor_output -->
<g id="edge9" class="edge"><title>rgb_editor:OUT:e&#45;&gt;rgb_editor_output:IN:w</title>
<path fill="none" stroke="#1a7b61" stroke-width="2" d="M86,-478C125.023,-478 135.807,-478 172.844,-478"/>
<ellipse fill="#1a7b61" stroke="#1a7b61" stroke-width="2" cx="175" cy="-478" rx="2" ry="2"/>
</g>
<!-- pushbutton -->
<g id="node14" class="node"><title>pushbutton</title>
<polygon fill="#bdce5e" stroke="none" points="14,-604 14,-633 88,-633 88,-604 14,-604"/>
<polygon fill="none" stroke="#4e5627" points="14,-604 14,-633 88,-633 88,-604 14,-604"/>
<text text-anchor="start" x="17.5" y="-619.3" font-family="Helvetica,sans-Serif" font-size="14.00" fill="#000000">pushbutton</text>
<text text-anchor="start" x="24.5" y="-610.1" font-family="Helvetica,sans-Serif" font-size="8.00" fill="#000000">gtk/pushbutton</text>
<polygon fill="#697334" stroke="none" points="14,-587 14,-604 88,-604 88,-587 14,-587"/>
<polygon fill="none" stroke="#4e5627" points="14,-587 14,-604 88,-604 88,-587 14,-587"/>
<text text-anchor="start" x="52" y="-593" font-family="Helvetica,sans-Serif" font-size="10.00" fill="#ffffff">OUT ◉</text>
<polygon fill="#697334" stroke="none" points="14,-570 14,-587 88,-587 88,-570 14,-570"/>
<polygon fill="none" stroke="#4e5627" points="14,-570 14,-587 88,-587 88,-570 14,-570"/>
<text text-anchor="start" x="24" y="-576" font-family="Helvetica,sans-Serif" font-size="10.00" fill="#ffffff">PRESSED ◉</text>
</g>
<!-- pushbutton_output -->
<g id="node15" class="node"><title>pushbutton_output</title>
<polygon fill="#bdce5e" stroke="none" points="175,-631 175,-660 294,-660 294,-631 175,-631"/>
<polygon fill="none" stroke="#4e5627" points="175,-631 175,-660 294,-660 294,-631 175,-631"/>
<text text-anchor="start" x="178.5" y="-646.3" font-family="Helvetica,sans-Serif" font-size="14.00" fill="#000000">pushbutton_output</text>
<text text-anchor="start" x="222.5" y="-637.1" font-family="Helvetica,sans-Serif" font-size="8.00" fill="#000000">gtk/led</text>
<polygon fill="#8d9a46" stroke="none" points="175,-614 175,-631 294,-631 294,-614 175,-614"/>
<polygon fill="none" stroke="#4e5627" points="175,-614 175,-631 294,-631 294,-614 175,-614"/>
<text text-anchor="start" x="178" y="-620" font-family="Helvetica,sans-Serif" font-size="10.00" fill="#000000">◎ IN</text>
</g>
<!-- pushbutton&#45;&gt;pushbutton_output -->
<g id="edge10" class="edge"><title>pushbutton:OUT:e&#45;&gt;pushbutton_output:IN:w</title>
<path fill="none" stroke="#490ff0" stroke-width="2" d="M89,-595C127.244,-595 133.918,-620.135 169.942,-621.902"/>
<ellipse fill="#490ff0" stroke="#490ff0" stroke-width="2" cx="172.001" cy="-621.952" rx="2" ry="2"/>
</g>
<!-- pushbutton_pressed_output -->
<g id="node16" class="node"><title>pushbutton_pressed_output</title>
<polygon fill="#bdce5e" stroke="none" points="147,-559 147,-588 322,-588 322,-559 147,-559"/>
<polygon fill="none" stroke="#4e5627" points="147,-559 147,-588 322,-588 322,-559 147,-559"/>
<text text-anchor="start" x="150.5" y="-574.3" font-family="Helvetica,sans-Serif" font-size="14.00" fill="#000000">pushbutton_pressed_output</text>
<text text-anchor="start" x="219.5" y="-565.1" font-family="Helvetica,sans-Serif" font-size="8.00" fill="#000000">gtk/label</text>
<polygon fill="#8d9a46" stroke="none" points="147,-542 147,-559 322,-559 322,-542 147,-542"/>
<polygon fill="none" stroke="#4e5627" points="147,-542 147,-559 322,-559 322,-542 147,-542"/>
<text text-anchor="start" x="150" y="-548" font-family="Helvetica,sans-Serif" font-size="10.00" fill="#000000">◎ IN</text>
</g>
<!-- pushbutton&#45;&gt;pushbutton_pressed_output -->
<g id="edge11" class="edge"><title>pushbutton:PRESSED:e&#45;&gt;pushbutton_pressed_output:IN:w</title>
<path fill="none" stroke="#022fee" stroke-width="2" d="M89,-578C115.792,-578 117.648,-552.772 141.907,-550.209"/>
<ellipse fill="#022fee" stroke="#022fee" stroke-width="2" cx="144.003" cy="-550.102" rx="2" ry="2"/>
</g>
<!-- timer -->
<g id="node17" class="node"><title>timer</title>
<polygon fill="#7f2fae" stroke="none" points="19,-720 19,-749 83,-749 83,-720 19,-720"/>
<polygon fill="none" stroke="#351348" points="19,-720 19,-749 83,-749 83,-720 19,-720"/>
<text text-anchor="start" x="22.5" y="-735.3" font-family="Helvetica,sans-Serif" font-size="14.00" fill="#ffffff">🕐 Timer</text>
<text text-anchor="start" x="41.5" y="-726.1" font-family="Helvetica,sans-Serif" font-size="8.00" fill="#ffffff">timer</text>
<polygon fill="#471a61" stroke="none" points="19,-703 19,-720 83,-720 83,-703 19,-703"/>
<polygon fill="none" stroke="#351348" points="19,-703 19,-720 83,-720 83,-703 19,-703"/>
<text text-anchor="start" x="47" y="-709" font-family="Helvetica,sans-Serif" font-size="10.00" fill="#ffffff">OUT ◉</text>
</g>
<!-- val -->
<g id="node18" class="node"><title>val</title>
<polygon fill="#254878" stroke="none" points="203,-720 203,-749 265,-749 265,-720 203,-720"/>
<polygon fill="none" stroke="#0f1e32" points="203,-720 203,-749 265,-749 265,-720 203,-720"/>
<text text-anchor="start" x="225" y="-735.3" font-family="Helvetica,sans-Serif" font-size="14.00" fill="#ffffff">val</text>
<text text-anchor="start" x="206.5" y="-726.1" font-family="Helvetica,sans-Serif" font-size="8.00" fill="#ffffff">int/accumulator</text>
<polygon fill="#1b365a" stroke="none" points="203,-703 203,-720 265,-720 265,-703 203,-703"/>
<polygon fill="none" stroke="#0f1e32" points="203,-703 203,-720 265,-720 265,-703 203,-703"/>
<text text-anchor="start" x="206" y="-709" font-family="Helvetica,sans-Serif" font-size="10.00" fill="#ffffff">◎ INC</text>
<polygon fill="#142843" stroke="none" points="203,-686 203,-703 265,-703 265,-686 203,-686"/>
<polygon fill="none" stroke="#0f1e32" points="203,-686 203,-703 265,-703 265,-686 203,-686"/>
<text text-anchor="start" x="229" y="-692" font-family="Helvetica,sans-Serif" font-size="10.00" fill="#ffffff">OUT ◉</text>
</g>
<!-- timer&#45;&gt;val -->
<g id="edge12" class="edge"><title>timer:OUT:e&#45;&gt;val:INC:w</title>
<path fill="none" stroke="#330fa8" stroke-width="2" d="M84,-711C135.01,-711 148.809,-711 197.785,-711"/>
<ellipse fill="#330fa8" stroke="#330fa8" stroke-width="2" cx="200" cy="-711" rx="2" ry="2"/>
</g>
<!-- led_7seg -->
<g id="node19" class="node"><title>led_7seg</title>
<polygon fill="#bdce5e" stroke="none" points="374,-703 374,-732 436,-732 436,-703 374,-703"/>
<polygon fill="none" stroke="#4e5627" points="374,-703 374,-732 436,-732 436,-703 374,-703"/>
<text text-anchor="start" x="377.5" y="-718.3" font-family="Helvetica,sans-Serif" font-size="14.00" fill="#000000">led_7seg</text>
<text text-anchor="start" x="383" y="-709.1" font-family="Helvetica,sans-Serif" font-size="8.00" fill="#000000">gtk/led&#45;7seg</text>
<polygon fill="#8d9a46" stroke="none" points="374,-686 374,-703 436,-703 436,-686 374,-686"/>
<polygon fill="none" stroke="#4e5627" points="374,-686 374,-703 436,-703 436,-686 374,-686"/>
<text text-anchor="start" x="377" y="-692" font-family="Helvetica,sans-Serif" font-size="10.00" fill="#000000">◎ VALUE</text>
</g>
<!-- val&#45;&gt;led_7seg -->
<g id="edge13" class="edge"><title>val:OUT:e&#45;&gt;led_7seg:VALUE:w</title>
<path fill="none" stroke="#5ac4ce" stroke-width="2" d="M266,-694C312.162,-694 324.717,-694 368.91,-694"/>
<ellipse fill="#5ac4ce" stroke="#5ac4ce" stroke-width="2" cx="371" cy="-694" rx="2" ry="2"/>
</g>
</g>
</svg>
