<?xml version="1.0" encoding="UTF-8" standalone="no"?>
<!DOCTYPE svg PUBLIC "-//W3C//DTD SVG 1.1//EN"
 "http://www.w3.org/Graphics/SVG/1.1/DTD/svg11.dtd">
<!-- Generated by graphviz version 2.36.0 (20140111.2315)
 -->
<!-- Title: fbp Pages: 1 -->
<svg width="480pt" height="1050pt"
 viewBox="0.00 0.00 480.00 1050.00" xmlns="http://www.w3.org/2000/svg" xmlns:xlink="http://www.w3.org/1999/xlink">
<g id="graph0" class="graph" transform="scale(1 1) rotate(0) translate(4 1046)">
<title>fbp</title>
<polygon fill="white" stroke="none" points="-4,4 -4,-1046 476,-1046 476,4 -4,4"/>
<!-- toggle -->
<g id="node1" class="node"><title>toggle</title>
<polygon fill="#bdce5e" stroke="none" points="43,-57 43,-86 87,-86 87,-57 43,-57"/>
<polygon fill="none" stroke="#4e5627" points="43,-57 43,-86 87,-86 87,-57 43,-57"/>
<text text-anchor="start" x="46.5" y="-72.3" font-family="Helvetica,sans-Serif" font-size="14.00" fill="#000000">toggle</text>
<text text-anchor="start" x="47.5" y="-63.1" font-family="Helvetica,sans-Serif" font-size="8.00" fill="#000000">gtk/toggle</text>
<polygon fill="#697334" stroke="none" points="43,-40 43,-57 87,-57 87,-40 43,-40"/>
<polygon fill="none" stroke="#4e5627" points="43,-40 43,-57 87,-57 87,-40 43,-40"/>
<text text-anchor="start" x="51" y="-46" font-family="Helvetica,sans-Serif" font-size="10.00" fill="#ffffff">OUT ◉</text>
</g>
<!-- toggle_output -->
<g id="node2" class="node"><title>toggle_output</title>
<polygon fill="#bdce5e" stroke="none" points="218,-93 218,-122 307,-122 307,-93 218,-93"/>
<polygon fill="none" stroke="#4e5627" points="218,-93 218,-122 307,-122 307,-93 218,-93"/>
<text text-anchor="start" x="221.5" y="-108.3" font-family="Helvetica,sans-Serif" font-size="14.00" fill="#000000">toggle_output</text>
<text text-anchor="start" x="247.5" y="-99.1" font-family="Helvetica,sans-Serif" font-size="8.00" fill="#000000">gtk/label</text>
<polygon fill="#8d9a46" stroke="none" points="218,-76 218,-93 307,-93 307,-76 218,-76"/>
<polygon fill="none" stroke="#4e5627" points="218,-76 218,-93 307,-93 307,-76 218,-76"/>
<text text-anchor="start" x="221" y="-82" font-family="Helvetica,sans-Serif" font-size="10.00" fill="#000000">◎ IN</text>
</g>
<!-- toggle&#45;&gt;toggle_output -->
<g id="edge1" class="edge"><title>toggle:OUT_OUT:e&#45;&gt;toggle_output:IN_IN:w</title>
<path fill="none" stroke="#f45450" stroke-width="2" d="M88,-48C146.129,-48 156.982,-82.3323 212.895,-83.9416"/>
<ellipse fill="#f45450" stroke="#f45450" stroke-width="2" cx="215" cy="-83.9715" rx="2" ry="2"/>
</g>
<!-- toggle_output2 -->
<g id="node3" class="node"><title>toggle_output2</title>
<polygon fill="#bdce5e" stroke="none" points="214,-21 214,-50 311,-50 311,-21 214,-21"/>
<polygon fill="none" stroke="#4e5627" points="214,-21 214,-50 311,-50 311,-21 214,-21"/>
<text text-anchor="start" x="217.5" y="-36.3" font-family="Helvetica,sans-Serif" font-size="14.00" fill="#000000">toggle_output2</text>
<text text-anchor="start" x="250.5" y="-27.1" font-family="Helvetica,sans-Serif" font-size="8.00" fill="#000000">gtk/led</text>
<polygon fill="#8d9a46" stroke="none" points="214,-4 214,-21 311,-21 311,-4 214,-4"/>
<polygon fill="none" stroke="#4e5627" points="214,-4 214,-21 311,-21 311,-4 214,-4"/>
<text text-anchor="start" x="217" y="-10" font-family="Helvetica,sans-Serif" font-size="10.00" fill="#000000">◎ IN</text>
</g>
<!-- toggle&#45;&gt;toggle_output2 -->
<g id="edge2" class="edge"><title>toggle:OUT_OUT:e&#45;&gt;toggle_output2:IN_IN:w</title>
<path fill="none" stroke="#ca31b8" stroke-width="2" d="M88,-48C144.346,-48 154.679,-13.8049 208.688,-12.0684"/>
<ellipse fill="#ca31b8" stroke="#ca31b8" stroke-width="2" cx="211" cy="-12.0318" rx="2" ry="2"/>
</g>
<!-- slider -->
<g id="node4" class="node"><title>slider</title>
<polygon fill="#bdce5e" stroke="none" points="45,-165 45,-194 85,-194 85,-165 45,-165"/>
<polygon fill="none" stroke="#4e5627" points="45,-165 45,-194 85,-194 85,-165 45,-165"/>
<text text-anchor="start" x="48.5" y="-180.3" font-family="Helvetica,sans-Serif" font-size="14.00" fill="#000000">slider</text>
<text text-anchor="start" x="49" y="-171.1" font-family="Helvetica,sans-Serif" font-size="8.00" fill="#000000">gtk/slider</text>
<polygon fill="#697334" stroke="none" points="45,-148 45,-165 85,-165 85,-148 45,-148"/>
<polygon fill="none" stroke="#4e5627" points="45,-148 45,-165 85,-165 85,-148 45,-148"/>
<text text-anchor="start" x="49" y="-154" font-family="Helvetica,sans-Serif" font-size="10.00" fill="#ffffff">OUT ◉</text>
</g>
<!-- slider_output -->
<g id="node5" class="node"><title>slider_output</title>
<polygon fill="#bdce5e" stroke="none" points="220,-165 220,-194 305,-194 305,-165 220,-165"/>
<polygon fill="none" stroke="#4e5627" points="220,-165 220,-194 305,-194 305,-165 220,-165"/>
<text text-anchor="start" x="223.5" y="-180.3" font-family="Helvetica,sans-Serif" font-size="14.00" fill="#000000">slider_output</text>
<text text-anchor="start" x="247.5" y="-171.1" font-family="Helvetica,sans-Serif" font-size="8.00" fill="#000000">gtk/label</text>
<polygon fill="#8d9a46" stroke="none" points="220,-148 220,-165 305,-165 305,-148 220,-148"/>
<polygon fill="none" stroke="#4e5627" points="220,-148 220,-165 305,-165 305,-148 220,-148"/>
<text text-anchor="start" x="223" y="-154" font-family="Helvetica,sans-Serif" font-size="10.00" fill="#000000">◎ IN</text>
</g>
<!-- slider&#45;&gt;slider_output -->
<g id="edge3" class="edge"><title>slider:OUT_OUT:e&#45;&gt;slider_output:IN_IN:w</title>
<path fill="none" stroke="#5288a2" stroke-width="2" d="M86,-156C143.726,-156 159.172,-156 214.916,-156"/>
<ellipse fill="#5288a2" stroke="#5288a2" stroke-width="2" cx="217" cy="-156" rx="2" ry="2"/>
</g>
<!-- spinbutton -->
<g id="node6" class="node"><title>spinbutton</title>
<polygon fill="#bdce5e" stroke="none" points="30,-237 30,-266 100,-266 100,-237 30,-237"/>
<polygon fill="none" stroke="#4e5627" points="30,-237 30,-266 100,-266 100,-237 30,-237"/>
<text text-anchor="start" x="33.5" y="-252.3" font-family="Helvetica,sans-Serif" font-size="14.00" fill="#000000">spinbutton</text>
<text text-anchor="start" x="40" y="-243.1" font-family="Helvetica,sans-Serif" font-size="8.00" fill="#000000">gtk/spinbutton</text>
<polygon fill="#697334" stroke="none" points="30,-220 30,-237 100,-237 100,-220 30,-220"/>
<polygon fill="none" stroke="#4e5627" points="30,-220 30,-237 100,-237 100,-220 30,-220"/>
<text text-anchor="start" x="64" y="-226" font-family="Helvetica,sans-Serif" font-size="10.00" fill="#ffffff">OUT ◉</text>
</g>
<!-- spinbutton_output -->
<g id="node7" class="node"><title>spinbutton_output</title>
<polygon fill="#bdce5e" stroke="none" points="205,-237 205,-266 320,-266 320,-237 205,-237"/>
<polygon fill="none" stroke="#4e5627" points="205,-237 205,-266 320,-266 320,-237 205,-237"/>
<text text-anchor="start" x="208.5" y="-252.3" font-family="Helvetica,sans-Serif" font-size="14.00" fill="#000000">spinbutton_output</text>
<text text-anchor="start" x="247.5" y="-243.1" font-family="Helvetica,sans-Serif" font-size="8.00" fill="#000000">gtk/label</text>
<polygon fill="#8d9a46" stroke="none" points="205,-220 205,-237 320,-237 320,-220 205,-220"/>
<polygon fill="none" stroke="#4e5627" points="205,-220 205,-237 320,-237 320,-220 205,-220"/>
<text text-anchor="start" x="208" y="-226" font-family="Helvetica,sans-Serif" font-size="10.00" fill="#000000">◎ IN</text>
</g>
<!-- spinbutton&#45;&gt;spinbutton_output -->
<g id="edge4" class="edge"><title>spinbutton:OUT_OUT:e&#45;&gt;spinbutton_output:IN_IN:w</title>
<path fill="none" stroke="#6a1e4a" stroke-width="2" d="M101,-228C145.347,-228 157.473,-228 199.807,-228"/>
<ellipse fill="#6a1e4a" stroke="#6a1e4a" stroke-width="2" cx="202" cy="-228" rx="2" ry="2"/>
</g>
<!-- pwm_editor -->
<g id="node8" class="node"><title>pwm_editor</title>
<polygon fill="#bdce5e" stroke="none" points="22,-343 22,-372 108,-372 108,-343 22,-343"/>
<polygon fill="none" stroke="#4e5627" points="22,-343 22,-372 108,-372 108,-343 22,-343"/>
<text text-anchor="start" x="29.5" y="-358.3" font-family="Helvetica,sans-Serif" font-size="14.00" fill="#000000">pwm_editor</text>
<text text-anchor="start" x="38" y="-349.1" font-family="Helvetica,sans-Serif" font-size="8.00" fill="#000000">gtk/pwm&#45;editor</text>
<polygon fill="#697334" stroke="none" points="22,-326 22,-343 108,-343 108,-326 22,-326"/>
<polygon fill="none" stroke="#4e5627" points="22,-326 22,-343 108,-343 108,-326 22,-326"/>
<text text-anchor="start" x="46" y="-332" font-family="Helvetica,sans-Serif" font-size="10.00" fill="#ffffff">ENABLED ◉</text>
<polygon fill="#697334" stroke="none" points="22,-309 22,-326 108,-326 108,-309 22,-309"/>
<polygon fill="none" stroke="#4e5627" points="22,-309 22,-326 108,-326 108,-309 22,-309"/>
<text text-anchor="start" x="26" y="-315" font-family="Helvetica,sans-Serif" font-size="10.00" fill="#ffffff">DUTY_CYCLE ◉</text>
<polygon fill="#697334" stroke="none" points="22,-292 22,-309 108,-309 108,-292 22,-292"/>
<polygon fill="none" stroke="#4e5627" points="22,-292 22,-309 108,-309 108,-292 22,-292"/>
<text text-anchor="start" x="54" y="-298" font-family="Helvetica,sans-Serif" font-size="10.00" fill="#ffffff">PERIOD ◉</text>
</g>
<!-- pwm_viewer -->
<g id="node9" class="node"><title>pwm_viewer</title>
<polygon fill="#bdce5e" stroke="none" points="219,-343 219,-372 305,-372 305,-343 219,-343"/>
<polygon fill="none" stroke="#4e5627" points="219,-343 219,-372 305,-372 305,-343 219,-343"/>
<text text-anchor="start" x="224" y="-358.3" font-family="Helvetica,sans-Serif" font-size="14.00" fill="#000000">pwm_viewer</text>
<text text-anchor="start" x="233.5" y="-349.1" font-family="Helvetica,sans-Serif" font-size="8.00" fill="#000000">gtk/pwm&#45;viewer</text>
<polygon fill="#8d9a46" stroke="none" points="219,-326 219,-343 305,-343 305,-326 219,-326"/>
<polygon fill="none" stroke="#4e5627" points="219,-326 219,-343 305,-343 305,-326 219,-326"/>
<text text-anchor="start" x="222" y="-332" font-family="Helvetica,sans-Serif" font-size="10.00" fill="#000000">◎ ENABLED</text>
<polygon fill="#8d9a46" stroke="none" points="219,-309 219,-326 305,-326 305,-309 219,-309"/>
<polygon fill="none" stroke="#4e5627" points="219,-309 219,-326 305,-326 305,-309 219,-309"/>
<text text-anchor="start" x="222" y="-315" font-family="Helvetica,sans-Serif" font-size="10.00" fill="#000000">◎ DUTY_CYCLE</text>
<polygon fill="#8d9a46" stroke="none" points="219,-292 219,-309 305,-309 305,-292 219,-292"/>
<polygon fill="none" stroke="#4e5627" points="219,-292 219,-309 305,-309 305,-292 219,-292"/>
<text text-anchor="start" x="222" y="-298" font-family="Helvetica,sans-Serif" font-size="10.00" fill="#000000">◎ PERIOD</text>
</g>
<!-- pwm_editor&#45;&gt;pwm_viewer -->
<g id="edge5" class="edge"><title>pwm_editor:OUT_ENABLED:e&#45;&gt;pwm_viewer:IN_ENABLED:w</title>
<path fill="none" stroke="#f6662e" stroke-width="2" d="M109,-335C156.025,-335 168.815,-335 213.834,-335"/>
<ellipse fill="#f6662e" stroke="#f6662e" stroke-width="2" cx="216" cy="-335" rx="2" ry="2"/>
</g>
<!-- pwm_editor&#45;&gt;pwm_viewer -->
<g id="edge6" class="edge"><title>pwm_editor:OUT_DUTY_CYCLE:e&#45;&gt;pwm_viewer:IN_DUTY_CYCLE:w</title>
<path fill="none" stroke="#1da4da" stroke-width="2" d="M109,-317C156.025,-317 168.815,-317 213.834,-317"/>
<ellipse fill="#1da4da" stroke="#1da4da" stroke-width="2" cx="216" cy="-317" rx="2" ry="2"/>
</g>
<!-- pwm_editor&#45;&gt;pwm_viewer -->
<g id="edge7" class="edge"><title>pwm_editor:OUT_PERIOD:e&#45;&gt;pwm_viewer:IN_PERIOD:w</title>
<path fill="none" stroke="#b13e64" stroke-width="2" d="M109,-300C156.025,-300 168.815,-300 213.834,-300"/>
<ellipse fill="#b13e64" stroke="#b13e64" stroke-width="2" cx="216" cy="-300" rx="2" ry="2"/>
</g>
<!-- byte_editor -->
<g id="node10" class="node"><title>byte_editor</title>
<polygon fill="#bdce5e" stroke="none" points="28,-415 28,-444 102,-444 102,-415 28,-415"/>
<polygon fill="none" stroke="#4e5627" points="28,-415 28,-444 102,-444 102,-415 28,-415"/>
<text text-anchor="start" x="31.5" y="-430.3" font-family="Helvetica,sans-Serif" font-size="14.00" fill="#000000">byte_editor</text>
<text text-anchor="start" x="39" y="-421.1" font-family="Helvetica,sans-Serif" font-size="8.00" fill="#000000">gtk/byte&#45;editor</text>
<polygon fill="#697334" stroke="none" points="28,-398 28,-415 102,-415 102,-398 28,-398"/>
<polygon fill="none" stroke="#4e5627" points="28,-398 28,-415 102,-415 102,-398 28,-398"/>
<text text-anchor="start" x="66" y="-404" font-family="Helvetica,sans-Serif" font-size="10.00" fill="#ffffff">OUT ◉</text>
</g>
<!-- byte_editor_output -->
<g id="node11" class="node"><title>byte_editor_output</title>
<polygon fill="#bdce5e" stroke="none" points="203,-415 203,-444 322,-444 322,-415 203,-415"/>
<polygon fill="none" stroke="#4e5627" points="203,-415 203,-444 322,-444 322,-415 203,-415"/>
<text text-anchor="start" x="206.5" y="-430.3" font-family="Helvetica,sans-Serif" font-size="14.00" fill="#000000">byte_editor_output</text>
<text text-anchor="start" x="247.5" y="-421.1" font-family="Helvetica,sans-Serif" font-size="8.00" fill="#000000">gtk/label</text>
<polygon fill="#8d9a46" stroke="none" points="203,-398 203,-415 322,-415 322,-398 203,-398"/>
<polygon fill="none" stroke="#4e5627" points="203,-398 203,-415 322,-415 322,-398 203,-398"/>
<text text-anchor="start" x="206" y="-404" font-family="Helvetica,sans-Serif" font-size="10.00" fill="#000000">◎ IN</text>
</g>
<!-- byte_editor&#45;&gt;byte_editor_output -->
<g id="edge8" class="edge"><title>byte_editor:OUT_OUT:e&#45;&gt;byte_editor_output:IN_IN:w</title>
<path fill="none" stroke="#22545e" stroke-width="2" d="M103,-406C145.625,-406 157.28,-406 197.97,-406"/>
<ellipse fill="#22545e" stroke="#22545e" stroke-width="2" cx="200" cy="-406" rx="2" ry="2"/>
</g>
<!-- rgb_editor -->
<g id="node12" class="node"><title>rgb_editor</title>
<polygon fill="#bdce5e" stroke="none" points="31,-487 31,-516 99,-516 99,-487 31,-487"/>
<polygon fill="none" stroke="#4e5627" points="31,-487 31,-516 99,-516 99,-487 31,-487"/>
<text text-anchor="start" x="34.5" y="-502.3" font-family="Helvetica,sans-Serif" font-size="14.00" fill="#000000">rgb_editor</text>
<text text-anchor="start" x="40.5" y="-493.1" font-family="Helvetica,sans-Serif" font-size="8.00" fill="#000000">gtk/rgb&#45;editor</text>
<polygon fill="#697334" stroke="none" points="31,-470 31,-487 99,-487 99,-470 31,-470"/>
<polygon fill="none" stroke="#4e5627" points="31,-470 31,-487 99,-487 99,-470 31,-470"/>
<text text-anchor="start" x="63" y="-476" font-family="Helvetica,sans-Serif" font-size="10.00" fill="#ffffff">OUT ◉</text>
</g>
<!-- rgb_editor_output -->
<g id="node13" class="node"><title>rgb_editor_output</title>
<polygon fill="#bdce5e" stroke="none" points="206,-487 206,-516 319,-516 319,-487 206,-487"/>
<polygon fill="none" stroke="#4e5627" points="206,-487 206,-516 319,-516 319,-487 206,-487"/>
<text text-anchor="start" x="209.5" y="-502.3" font-family="Helvetica,sans-Serif" font-size="14.00" fill="#000000">rgb_editor_output</text>
<text text-anchor="start" x="250.5" y="-493.1" font-family="Helvetica,sans-Serif" font-size="8.00" fill="#000000">gtk/led</text>
<polygon fill="#8d9a46" stroke="none" points="206,-470 206,-487 319,-487 319,-470 206,-470"/>
<polygon fill="none" stroke="#4e5627" points="206,-470 206,-487 319,-487 319,-470 206,-470"/>
<text text-anchor="start" x="209" y="-476" font-family="Helvetica,sans-Serif" font-size="10.00" fill="#000000">◎ IN</text>
</g>
<!-- rgb_editor&#45;&gt;rgb_editor_output -->
<g id="edge9" class="edge"><title>rgb_editor:OUT_OUT:e&#45;&gt;rgb_editor_output:IN_IN:w</title>
<path fill="none" stroke="#1a7b61" stroke-width="2" d="M100,-478C145.299,-478 157.62,-478 200.987,-478"/>
<ellipse fill="#1a7b61" stroke="#1a7b61" stroke-width="2" cx="203" cy="-478" rx="2" ry="2"/>
</g>
<!-- pushbutton -->
<g id="node14" class="node"><title>pushbutton</title>
<polygon fill="#bdce5e" stroke="none" points="28,-603 28,-632 102,-632 102,-603 28,-603"/>
<polygon fill="none" stroke="#4e5627" points="28,-603 28,-632 102,-632 102,-603 28,-603"/>
<text text-anchor="start" x="31.5" y="-618.3" font-family="Helvetica,sans-Serif" font-size="14.00" fill="#000000">pushbutton</text>
<text text-anchor="start" x="38.5" y="-609.1" font-family="Helvetica,sans-Serif" font-size="8.00" fill="#000000">gtk/pushbutton</text>
<polygon fill="#697334" stroke="none" points="28,-586 28,-603 102,-603 102,-586 28,-586"/>
<polygon fill="none" stroke="#4e5627" points="28,-586 28,-603 102,-603 102,-586 28,-586"/>
<text text-anchor="start" x="66" y="-592" font-family="Helvetica,sans-Serif" font-size="10.00" fill="#ffffff">OUT ◉</text>
<polygon fill="#697334" stroke="none" points="28,-569 28,-586 102,-586 102,-569 28,-569"/>
<polygon fill="none" stroke="#4e5627" points="28,-569 28,-586 102,-586 102,-569 28,-569"/>
<text text-anchor="start" x="38" y="-575" font-family="Helvetica,sans-Serif" font-size="10.00" fill="#ffffff">PRESSED ◉</text>
</g>
<!-- pushbutton_output -->
<g id="node15" class="node"><title>pushbutton_output</title>
<polygon fill="#bdce5e" stroke="none" points="203,-631 203,-660 322,-660 322,-631 203,-631"/>
<polygon fill="none" stroke="#4e5627" points="203,-631 203,-660 322,-660 322,-631 203,-631"/>
<text text-anchor="start" x="206.5" y="-646.3" font-family="Helvetica,sans-Serif" font-size="14.00" fill="#000000">pushbutton_output</text>
<text text-anchor="start" x="250.5" y="-637.1" font-family="Helvetica,sans-Serif" font-size="8.00" fill="#000000">gtk/led</text>
<polygon fill="#8d9a46" stroke="none" points="203,-614 203,-631 322,-631 322,-614 203,-614"/>
<polygon fill="none" stroke="#4e5627" points="203,-614 203,-631 322,-631 322,-614 203,-614"/>
<text text-anchor="start" x="206" y="-620" font-family="Helvetica,sans-Serif" font-size="10.00" fill="#000000">◎ IN</text>
</g>
<!-- pushbutton&#45;&gt;pushbutton_output -->
<g id="edge10" class="edge"><title>pushbutton:OUT_OUT:e&#45;&gt;pushbutton_output:IN_IN:w</title>
<path fill="none" stroke="#490ff0" stroke-width="2" d="M103,-594C147.297,-594 155.765,-620.277 197.823,-621.92"/>
<ellipse fill="#490ff0" stroke="#490ff0" stroke-width="2" cx="200" cy="-621.962" rx="2" ry="2"/>
</g>
<!-- pushbutton_pressed_output -->
<g id="node16" class="node"><title>pushbutton_pressed_output</title>
<polygon fill="#bdce5e" stroke="none" points="175,-559 175,-588 350,-588 350,-559 175,-559"/>
<polygon fill="none" stroke="#4e5627" points="175,-559 175,-588 350,-588 350,-559 175,-559"/>
<text text-anchor="start" x="178.5" y="-574.3" font-family="Helvetica,sans-Serif" font-size="14.00" fill="#000000">pushbutton_pressed_output</text>
<text text-anchor="start" x="247.5" y="-565.1" font-family="Helvetica,sans-Serif" font-size="8.00" fill="#000000">gtk/label</text>
<polygon fill="#8d9a46" stroke="none" points="175,-542 175,-559 350,-559 350,-542 175,-542"/>
<polygon fill="none" stroke="#4e5627" points="175,-542 175,-559 350,-559 350,-542 175,-542"/>
<text text-anchor="start" x="178" y="-548" font-family="Helvetica,sans-Serif" font-size="10.00" fill="#000000">◎ IN</text>
</g>
<!-- pushbutton&#45;&gt;pushbutton_pressed_output -->
<g id="edge11" class="edge"><title>pushbutton:OUT_PRESSED:e&#45;&gt;pushbutton_pressed_output:IN_IN:w</title>
<path fill="none" stroke="#022fee" stroke-width="2" d="M103,-577C135.31,-577 139.885,-552.27 169.811,-550.145"/>
<ellipse fill="#022fee" stroke="#022fee" stroke-width="2" cx="172.001" cy="-550.069" rx="2" ry="2"/>
</g>
<!-- timer -->
<g id="node17" class="node"><title>timer</title>
<polygon fill="#7f2fae" stroke="none" points="33,-720 33,-749 97,-749 97,-720 33,-720"/>
<polygon fill="none" stroke="#351348" points="33,-720 33,-749 97,-749 97,-720 33,-720"/>
<text text-anchor="start" x="36.5" y="-735.3" font-family="Helvetica,sans-Serif" font-size="14.00" fill="#ffffff">🕐 Timer</text>
<text text-anchor="start" x="55.5" y="-726.1" font-family="Helvetica,sans-Serif" font-size="8.00" fill="#ffffff">timer</text>
<polygon fill="#471a61" stroke="none" points="33,-703 33,-720 97,-720 97,-703 33,-703"/>
<polygon fill="none" stroke="#351348" points="33,-703 33,-720 97,-720 97,-703 33,-703"/>
<text text-anchor="start" x="61" y="-709" font-family="Helvetica,sans-Serif" font-size="10.00" fill="#ffffff">OUT ◉</text>
</g>
<!-- val -->
<g id="node18" class="node"><title>val</title>
<polygon fill="#254878" stroke="none" points="231,-720 231,-749 293,-749 293,-720 231,-720"/>
<polygon fill="none" stroke="#0f1e32" points="231,-720 231,-749 293,-749 293,-720 231,-720"/>
<text text-anchor="start" x="253" y="-735.3" font-family="Helvetica,sans-Serif" font-size="14.00" fill="#ffffff">val</text>
<text text-anchor="start" x="234.5" y="-726.1" font-family="Helvetica,sans-Serif" font-size="8.00" fill="#ffffff">int/accumulator</text>
<polygon fill="#1b365a" stroke="none" points="231,-703 231,-720 293,-720 293,-703 231,-703"/>
<polygon fill="none" stroke="#0f1e32" points="231,-703 231,-720 293,-720 293,-703 231,-703"/>
<text text-anchor="start" x="234" y="-709" font-family="Helvetica,sans-Serif" font-size="10.00" fill="#ffffff">◎ INC</text>
<polygon fill="#142843" stroke="none" points="231,-686 231,-703 293,-703 293,-686 231,-686"/>
<polygon fill="none" stroke="#0f1e32" points="231,-686 231,-703 293,-703 293,-686 231,-686"/>
<text text-anchor="start" x="257" y="-692" font-family="Helvetica,sans-Serif" font-size="10.00" fill="#ffffff">OUT ◉</text>
</g>
<!-- timer&#45;&gt;val -->
<g id="edge12" class="edge"><title>timer:OUT_OUT:e&#45;&gt;val:IN_INC:w</title>
<path fill="none" stroke="#330fa8" stroke-width="2" d="M98,-711C155.292,-711 170.622,-711 225.946,-711"/>
<ellipse fill="#330fa8" stroke="#330fa8" stroke-width="2" cx="228" cy="-711" rx="2" ry="2"/>
</g>
<!-- led_7seg -->
<g id="node19" class="node"><title>led_7seg</title>
<polygon fill="#bdce5e" stroke="none" points="402,-703 402,-732 464,-732 464,-703 402,-703"/>
<polygon fill="none" stroke="#4e5627" points="402,-703 402,-732 464,-732 464,-703 402,-703"/>
<text text-anchor="start" x="405.5" y="-718.3" font-family="Helvetica,sans-Serif" font-size="14.00" fill="#000000">led_7seg</text>
<text text-anchor="start" x="411" y="-709.1" font-family="Helvetica,sans-Serif" font-size="8.00" fill="#000000">gtk/led&#45;7seg</text>
<polygon fill="#8d9a46" stroke="none" points="402,-686 402,-703 464,-703 464,-686 402,-686"/>
<polygon fill="none" stroke="#4e5627" points="402,-686 402,-703 464,-703 464,-686 402,-686"/>
<text text-anchor="start" x="405" y="-692" font-family="Helvetica,sans-Serif" font-size="10.00" fill="#000000">◎ VALUE</text>
</g>
<!-- val&#45;&gt;led_7seg -->
<g id="edge13" class="edge"><title>val:OUT_OUT:e&#45;&gt;led_7seg:IN_VALUE:w</title>
<path fill="none" stroke="#5ac4ce" stroke-width="2" d="M294,-694C340.162,-694 352.717,-694 396.91,-694"/>
<ellipse fill="#5ac4ce" stroke="#5ac4ce" stroke-width="2" cx="399" cy="-694" rx="2" ry="2"/>
</g>
<!-- direction_vector -->
<g id="node20" class="node"><title>direction_vector</title>
<polygon fill="#bdce5e" stroke="none" points="14,-793 14,-822 117,-822 117,-793 14,-793"/>
<polygon fill="none" stroke="#4e5627" points="14,-793 14,-822 117,-822 117,-793 14,-793"/>
<text text-anchor="start" x="17.5" y="-808.3" font-family="Helvetica,sans-Serif" font-size="14.00" fill="#000000">direction_vector</text>
<text text-anchor="start" x="20" y="-799.1" font-family="Helvetica,sans-Serif" font-size="8.00" fill="#000000">gtk/direction&#45;vector&#45;editor</text>
<polygon fill="#697334" stroke="none" points="14,-776 14,-793 117,-793 117,-776 14,-776"/>
<polygon fill="none" stroke="#4e5627" points="14,-776 14,-793 117,-793 117,-776 14,-776"/>
<text text-anchor="start" x="81" y="-782" font-family="Helvetica,sans-Serif" font-size="10.00" fill="#ffffff">OUT ◉</text>
</g>
<!-- direction_vector_output -->
<g id="node21" class="node"><title>direction_vector_output</title>
<polygon fill="#bdce5e" stroke="none" points="188,-793 188,-822 336,-822 336,-793 188,-793"/>
<polygon fill="none" stroke="#4e5627" points="188,-793 188,-822 336,-822 336,-793 188,-793"/>
<text text-anchor="start" x="191.5" y="-808.3" font-family="Helvetica,sans-Serif" font-size="14.00" fill="#000000">direction_vector_output</text>
<text text-anchor="start" x="247" y="-799.1" font-family="Helvetica,sans-Serif" font-size="8.00" fill="#000000">gtk/label</text>
<polygon fill="#8d9a46" stroke="none" points="188,-776 188,-793 336,-793 336,-776 188,-776"/>
<polygon fill="none" stroke="#4e5627" points="188,-776 188,-793 336,-793 336,-776 188,-776"/>
<text text-anchor="start" x="191" y="-782" font-family="Helvetica,sans-Serif" font-size="10.00" fill="#000000">◎ IN</text>
</g>
<!-- direction_vector&#45;&gt;direction_vector_output -->
<g id="edge14" class="edge"><title>direction_vector:OUT_OUT:e&#45;&gt;direction_vector_output:IN_IN:w</title>
<path fill="none" stroke="#ef1b92" stroke-width="2" d="M118,-784C147.229,-784 155.564,-784 182.834,-784"/>
<ellipse fill="#ef1b92" stroke="#ef1b92" stroke-width="2" cx="185" cy="-784" rx="2" ry="2"/>
</g>
<!-- location_editor -->
<g id="node22" class="node"><title>location_editor</title>
<polygon fill="#bdce5e" stroke="none" points="18,-865 18,-894 113,-894 113,-865 18,-865"/>
<polygon fill="none" stroke="#4e5627" points="18,-865 18,-894 113,-894 113,-865 18,-865"/>
<text text-anchor="start" x="21.5" y="-880.3" font-family="Helvetica,sans-Serif" font-size="14.00" fill="#000000">location_editor</text>
<text text-anchor="start" x="33.5" y="-871.1" font-family="Helvetica,sans-Serif" font-size="8.00" fill="#000000">gtk/location&#45;editor</text>
<polygon fill="#697334" stroke="none" points="18,-848 18,-865 113,-865 113,-848 18,-848"/>
<polygon fill="none" stroke="#4e5627" points="18,-848 18,-865 113,-865 113,-848 18,-848"/>
<text text-anchor="start" x="77" y="-854" font-family="Helvetica,sans-Serif" font-size="10.00" fill="#ffffff">OUT ◉</text>
</g>
<!-- location_output -->
<g id="node23" class="node"><title>location_output</title>
<polygon fill="#bdce5e" stroke="none" points="213,-865 213,-894 312,-894 312,-865 213,-865"/>
<polygon fill="none" stroke="#4e5627" points="213,-865 213,-894 312,-894 312,-865 213,-865"/>
<text text-anchor="start" x="216.5" y="-880.3" font-family="Helvetica,sans-Serif" font-size="14.00" fill="#000000">location_output</text>
<text text-anchor="start" x="247.5" y="-871.1" font-family="Helvetica,sans-Serif" font-size="8.00" fill="#000000">gtk/label</text>
<polygon fill="#8d9a46" stroke="none" points="213,-848 213,-865 312,-865 312,-848 213,-848"/>
<polygon fill="none" stroke="#4e5627" points="213,-848 213,-865 312,-865 312,-848 213,-848"/>
<text text-anchor="start" x="216" y="-854" font-family="Helvetica,sans-Serif" font-size="10.00" fill="#000000">◎ IN</text>
</g>
<!-- location_editor&#45;&gt;location_output -->
<g id="edge15" class="edge"><title>location_editor:OUT_OUT:e&#45;&gt;location_output:IN_IN:w</title>
<path fill="none" stroke="#6c5c3c" stroke-width="2" d="M114,-856C156.024,-856 167.638,-856 207.525,-856"/>
<ellipse fill="#6c5c3c" stroke="#6c5c3c" stroke-width="2" cx="210" cy="-856" rx="2" ry="2"/>
</g>
<!-- float_editor -->
<g id="node24" class="node"><title>float_editor</title>
<polygon fill="#bdce5e" stroke="none" points="28,-937 28,-966 102,-966 102,-937 28,-937"/>
<polygon fill="none" stroke="#4e5627" points="28,-937 28,-966 102,-966 102,-937 28,-937"/>
<text text-anchor="start" x="31.5" y="-952.3" font-family="Helvetica,sans-Serif" font-size="14.00" fill="#000000">float_editor</text>
<text text-anchor="start" x="39" y="-943.1" font-family="Helvetica,sans-Serif" font-size="8.00" fill="#000000">gtk/float&#45;editor</text>
<polygon fill="#697334" stroke="none" points="28,-920 28,-937 102,-937 102,-920 28,-920"/>
<polygon fill="none" stroke="#4e5627" points="28,-920 28,-937 102,-937 102,-920 28,-920"/>
<text text-anchor="start" x="66" y="-926" font-family="Helvetica,sans-Serif" font-size="10.00" fill="#ffffff">OUT ◉</text>
</g>
<!-- float_output -->
<g id="node25" class="node"><title>float_output</title>
<polygon fill="#bdce5e" stroke="none" points="223,-937 223,-966 301,-966 301,-937 223,-937"/>
<polygon fill="none" stroke="#4e5627" points="223,-937 223,-966 301,-966 301,-937 223,-937"/>
<text text-anchor="start" x="226.5" y="-952.3" font-family="Helvetica,sans-Serif" font-size="14.00" fill="#000000">float_output</text>
<text text-anchor="start" x="247" y="-943.1" font-family="Helvetica,sans-Serif" font-size="8.00" fill="#000000">gtk/label</text>
<polygon fill="#8d9a46" stroke="none" points="223,-920 223,-937 301,-937 301,-920 223,-920"/>
<polygon fill="none" stroke="#4e5627" points="223,-920 223,-937 301,-937 301,-920 223,-920"/>
<text text-anchor="start" x="226" y="-926" font-family="Helvetica,sans-Serif" font-size="10.00" fill="#000000">◎ IN</text>
</g>
<!-- float_editor&#45;&gt;float_output -->
<g id="edge16" class="edge"><title>float_editor:OUT_OUT:e&#45;&gt;float_output:IN_IN:w</title>
<path fill="none" stroke="#6cf20c" stroke-width="2" d="M103,-928C154.443,-928 168.358,-928 217.749,-928"/>
<ellipse fill="#6cf20c" stroke="#6cf20c" stroke-width="2" cx="220" cy="-928" rx="2" ry="2"/>
</g>
<!-- timestamp_editor -->
<g id="node26" class="node"><title>timestamp_editor</title>
<polygon fill="#bdce5e" stroke="none" points="9,-1009 9,-1038 122,-1038 122,-1009 9,-1009"/>
<polygon fill="none" stroke="#4e5627" points="9,-1009 9,-1038 122,-1038 122,-1009 9,-1009"/>
<text text-anchor="start" x="12.5" y="-1024.3" font-family="Helvetica,sans-Serif" font-size="14.00" fill="#000000">timestamp_editor</text>
<text text-anchor="start" x="29" y="-1015.1" font-family="Helvetica,sans-Serif" font-size="8.00" fill="#000000">gtk/timestamp&#45;editor</text>
<polygon fill="#697334" stroke="none" points="9,-992 9,-1009 122,-1009 122,-992 9,-992"/>
<polygon fill="none" stroke="#4e5627" points="9,-992 9,-1009 122,-1009 122,-992 9,-992"/>
<text text-anchor="start" x="86" y="-998" font-family="Helvetica,sans-Serif" font-size="10.00" fill="#ffffff">OUT ◉</text>
</g>
<!-- timestamp -->
<g id="node27" class="node"><title>timestamp</title>
<polygon fill="#bdce5e" stroke="none" points="227,-1009 227,-1038 298,-1038 298,-1009 227,-1009"/>
<polygon fill="none" stroke="#4e5627" points="227,-1009 227,-1038 298,-1038 298,-1009 227,-1009"/>
<text text-anchor="start" x="230.5" y="-1024.3" font-family="Helvetica,sans-Serif" font-size="14.00" fill="#000000">timestamp</text>
<text text-anchor="start" x="247.5" y="-1015.1" font-family="Helvetica,sans-Serif" font-size="8.00" fill="#000000">gtk/label</text>
<polygon fill="#8d9a46" stroke="none" points="227,-992 227,-1009 298,-1009 298,-992 227,-992"/>
<polygon fill="none" stroke="#4e5627" points="227,-992 227,-1009 298,-1009 298,-992 227,-992"/>
<text text-anchor="start" x="230" y="-998" font-family="Helvetica,sans-Serif" font-size="10.00" fill="#000000">◎ IN</text>
</g>
<!-- timestamp_editor&#45;&gt;timestamp -->
<g id="edge17" class="edge"><title>timestamp_editor:OUT_OUT:e&#45;&gt;timestamp:IN_IN:w</title>
<path fill="none" stroke="#f40be6" stroke-width="2" d="M123,-1000C167.347,-1000 179.473,-1000 221.807,-1000"/>
<ellipse fill="#f40be6" stroke="#f40be6" stroke-width="2" cx="224" cy="-1000" rx="2" ry="2"/>
</g>
</g>
</svg>
