<?xml version="1.0" encoding="UTF-8" standalone="no"?>
<!DOCTYPE svg PUBLIC "-//W3C//DTD SVG 1.1//EN"
 "http://www.w3.org/Graphics/SVG/1.1/DTD/svg11.dtd">
<!-- Generated by graphviz version 2.36.0 (20140111.2315)
 -->
<!-- Title: fbp Pages: 1 -->
<svg width="472pt" height="184pt"
 viewBox="0.00 0.00 472.00 184.00" xmlns="http://www.w3.org/2000/svg" xmlns:xlink="http://www.w3.org/1999/xlink">
<g id="graph0" class="graph" transform="scale(1 1) rotate(0) translate(4 180)">
<title>fbp</title>
<polygon fill="white" stroke="none" points="-4,4 -4,-180 468,-180 468,4 -4,4"/>
<!-- light -->
<g id="node1" class="node"><title>light</title>
<polygon fill="#f6fdf8" stroke="none" points="134,-143 134,-172 176,-172 176,-143 134,-143"/>
<polygon fill="none" stroke="#676968" points="134,-143 134,-172 176,-172 176,-143 134,-143"/>
<text text-anchor="start" x="142.5" y="-158.3" font-family="Helvetica,sans-Serif" font-size="14.00" fill="#000000">light</text>
<text text-anchor="start" x="141" y="-149.1" font-family="Helvetica,sans-Serif" font-size="8.00" fill="#000000">MyLight</text>
<polygon fill="#b8bdba" stroke="none" points="134,-126 134,-143 176,-143 176,-126 134,-126"/>
<polygon fill="none" stroke="#676968" points="134,-126 134,-143 176,-143 176,-126 134,-126"/>
<text text-anchor="start" x="137" y="-132" font-family="Helvetica,sans-Serif" font-size="10.00" fill="#000000">◎ TICK</text>
<polygon fill="#8a8d8b" stroke="none" points="134,-109 134,-126 176,-126 176,-109 134,-109"/>
<polygon fill="none" stroke="#676968" points="134,-109 134,-126 176,-126 176,-109 134,-109"/>
<text text-anchor="start" x="140" y="-115" font-family="Helvetica,sans-Serif" font-size="10.00" fill="#000000">OUT ◉</text>
</g>
<!-- lux -->
<g id="node4" class="node"><title>lux</title>
<polygon fill="#bd648a" stroke="none" points="239,-126 239,-155 330,-155 330,-126 239,-126"/>
<polygon fill="none" stroke="#4e2a39" points="239,-126 239,-155 330,-155 330,-126 239,-126"/>
<text text-anchor="start" x="275.5" y="-141.3" font-family="Helvetica,sans-Serif" font-size="14.00" fill="#000000">lux</text>
<text text-anchor="start" x="242.5" y="-132.1" font-family="Helvetica,sans-Serif" font-size="8.00" fill="#000000">converter/float&#45;to&#45;string</text>
<polygon fill="#8d4b67" stroke="none" points="239,-109 239,-126 330,-126 330,-109 239,-109"/>
<polygon fill="none" stroke="#4e2a39" points="239,-109 239,-126 330,-126 330,-109 239,-109"/>
<text text-anchor="start" x="242" y="-115" font-family="Helvetica,sans-Serif" font-size="10.00" fill="#ffffff">◎ IN</text>
<polygon fill="#69384d" stroke="none" points="239,-92 239,-109 330,-109 330,-92 239,-92"/>
<polygon fill="none" stroke="#4e2a39" points="239,-92 239,-109 330,-109 330,-92 239,-92"/>
<text text-anchor="start" x="294" y="-98" font-family="Helvetica,sans-Serif" font-size="10.00" fill="#ffffff">OUT ◉</text>
</g>
<!-- light&#45;&gt;lux -->
<g id="edge2" class="edge"><title>light:OUT_OUT:e&#45;&gt;lux:IN_IN:w</title>
<path fill="none" stroke="#6d44d6" stroke-width="2" d="M177,-117C202.628,-117 210.087,-117 233.728,-117"/>
<ellipse fill="#6d44d6" stroke="#6d44d6" stroke-width="2" cx="236" cy="-117" rx="2" ry="2"/>
</g>
<!-- proximity -->
<g id="node2" class="node"><title>proximity</title>
<polygon fill="#2cd97a" stroke="none" points="124,-54 124,-83 186,-83 186,-54 124,-54"/>
<polygon fill="none" stroke="#125a33" points="124,-54 124,-83 186,-83 186,-54 124,-54"/>
<text text-anchor="start" x="127.5" y="-69.3" font-family="Helvetica,sans-Serif" font-size="14.00" fill="#000000">proximity</text>
<text text-anchor="start" x="133.5" y="-60.1" font-family="Helvetica,sans-Serif" font-size="8.00" fill="#000000">MyProximity</text>
<polygon fill="#21a25b" stroke="none" points="124,-37 124,-54 186,-54 186,-37 124,-37"/>
<polygon fill="none" stroke="#125a33" points="124,-37 124,-54 186,-54 186,-37 124,-37"/>
<text text-anchor="start" x="127" y="-43" font-family="Helvetica,sans-Serif" font-size="10.00" fill="#ffffff">◎ TICK</text>
<polygon fill="#187944" stroke="none" points="124,-20 124,-37 186,-37 186,-20 124,-20"/>
<polygon fill="none" stroke="#125a33" points="124,-20 124,-37 186,-37 186,-20 124,-20"/>
<text text-anchor="start" x="150" y="-26" font-family="Helvetica,sans-Serif" font-size="10.00" fill="#ffffff">OUT ◉</text>
</g>
<!-- distance -->
<g id="node5" class="node"><title>distance</title>
<polygon fill="#bd648a" stroke="none" points="239,-37 239,-66 330,-66 330,-37 239,-37"/>
<polygon fill="none" stroke="#4e2a39" points="239,-37 239,-66 330,-66 330,-37 239,-37"/>
<text text-anchor="start" x="259" y="-52.3" font-family="Helvetica,sans-Serif" font-size="14.00" fill="#000000">distance</text>
<text text-anchor="start" x="242.5" y="-43.1" font-family="Helvetica,sans-Serif" font-size="8.00" fill="#000000">converter/float&#45;to&#45;string</text>
<polygon fill="#8d4b67" stroke="none" points="239,-20 239,-37 330,-37 330,-20 239,-20"/>
<polygon fill="none" stroke="#4e2a39" points="239,-20 239,-37 330,-37 330,-20 239,-20"/>
<text text-anchor="start" x="242" y="-26" font-family="Helvetica,sans-Serif" font-size="10.00" fill="#ffffff">◎ IN</text>
<polygon fill="#69384d" stroke="none" points="239,-3 239,-20 330,-20 330,-3 239,-3"/>
<polygon fill="none" stroke="#4e2a39" points="239,-3 239,-20 330,-20 330,-3 239,-3"/>
<text text-anchor="start" x="294" y="-9" font-family="Helvetica,sans-Serif" font-size="10.00" fill="#ffffff">OUT ◉</text>
</g>
<!-- proximity&#45;&gt;distance -->
<g id="edge4" class="edge"><title>proximity:OUT_OUT:e&#45;&gt;distance:IN_IN:w</title>
<path fill="none" stroke="#481246" stroke-width="2" d="M187,-28C208.25,-28 214.559,-28 233.941,-28"/>
<ellipse fill="#481246" stroke="#481246" stroke-width="2" cx="236" cy="-28" rx="2" ry="2"/>
</g>
<!-- timer -->
<g id="node3" class="node"><title>timer</title>
<polygon fill="#7f2fae" stroke="none" points="8,-98 8,-127 72,-127 72,-98 8,-98"/>
<polygon fill="none" stroke="#351348" points="8,-98 8,-127 72,-127 72,-98 8,-98"/>
<text text-anchor="start" x="11.5" y="-113.3" font-family="Helvetica,sans-Serif" font-size="14.00" fill="#ffffff">🕐 Timer</text>
<text text-anchor="start" x="30.5" y="-104.1" font-family="Helvetica,sans-Serif" font-size="8.00" fill="#ffffff">timer</text>
<polygon fill="#471a61" stroke="none" points="8,-81 8,-98 72,-98 72,-81 8,-81"/>
<polygon fill="none" stroke="#351348" points="8,-81 8,-98 72,-98 72,-81 8,-81"/>
<text text-anchor="start" x="36" y="-87" font-family="Helvetica,sans-Serif" font-size="10.00" fill="#ffffff">OUT ◉</text>
</g>
<!-- timer&#45;&gt;light -->
<g id="edge1" class="edge"><title>timer:OUT_OUT:e&#45;&gt;light:IN_TICK:w</title>
<path fill="none" stroke="#1f91da" stroke-width="2" d="M73,-89C104.901,-89 100.166,-130.216 128.918,-133.758"/>
<ellipse fill="#1f91da" stroke="#1f91da" stroke-width="2" cx="131.004" cy="-133.882" rx="2" ry="2"/>
</g>
<!-- timer&#45;&gt;proximity -->
<g id="edge3" class="edge"><title>timer:OUT_OUT:e&#45;&gt;proximity:IN_TICK:w</title>
<path fill="none" stroke="#0be88e" stroke-width="2" d="M73,-89C101.098,-89 94.2331,-49.3553 118.78,-45.3289"/>
<ellipse fill="#0be88e" stroke="#0be88e" stroke-width="2" cx="121.006" cy="-45.1555" rx="2" ry="2"/>
</g>
<!-- concat -->
<g id="node6" class="node"><title>concat</title>
<polygon fill="#c1ee90" stroke="none" points="383,-64 383,-93 456,-93 456,-64 383,-64"/>
<polygon fill="none" stroke="#51633c" points="383,-64 383,-93 456,-93 456,-64 383,-64"/>
<text text-anchor="start" x="399.5" y="-79.3" font-family="Helvetica,sans-Serif" font-size="14.00" fill="#000000">concat</text>
<text text-anchor="start" x="386.5" y="-70.1" font-family="Helvetica,sans-Serif" font-size="8.00" fill="#000000">string/concatenate</text>
<polygon fill="#90b26c" stroke="none" points="383,-47 383,-64 456,-64 456,-47 383,-47"/>
<polygon fill="none" stroke="#51633c" points="383,-47 383,-64 456,-64 456,-47 383,-47"/>
<text text-anchor="start" x="386" y="-53" font-family="Helvetica,sans-Serif" font-size="10.00" fill="#000000">◎ IN</text>
<polygon fill="#6c8551" stroke="none" points="383,-30 383,-47 456,-47 456,-30 383,-30"/>
<polygon fill="none" stroke="#51633c" points="383,-30 383,-47 456,-47 456,-30 383,-30"/>
<text text-anchor="start" x="420" y="-36" font-family="Helvetica,sans-Serif" font-size="10.00" fill="#ffffff">OUT ◉</text>
</g>
<!-- lux&#45;&gt;concat -->
<g id="edge5" class="edge"><title>lux:OUT_OUT:e&#45;&gt;concat:IN_IN:w</title>
<path fill="none" stroke="#0c6a53" stroke-width="2" d="M331,-100C359.812,-100 352.571,-59.1199 378.003,-55.2874"/>
<ellipse fill="#0c6a53" stroke="#0c6a53" stroke-width="2" cx="380.005" cy="-55.1434" rx="2" ry="2"/>
</g>
<!-- distance&#45;&gt;concat -->
<g id="edge6" class="edge"><title>distance:OUT_OUT:e&#45;&gt;concat:IN_IN:w</title>
<path fill="none" stroke="#329336" stroke-width="2" d="M331,-11C359.416,-11 352.865,-50.6447 377.729,-54.6711"/>
<ellipse fill="#329336" stroke="#329336" stroke-width="2" cx="380.006" cy="-54.8464" rx="2" ry="2"/>
</g>
</g>
</svg>
