<?xml version="1.0" encoding="UTF-8" standalone="no"?>
<!DOCTYPE svg PUBLIC "-//W3C//DTD SVG 1.1//EN"
 "http://www.w3.org/Graphics/SVG/1.1/DTD/svg11.dtd">
<!-- Generated by graphviz version 2.36.0 (20140111.2315)
 -->
<!-- Title: fbp Pages: 1 -->
<svg width="388pt" height="86pt"
 viewBox="0.00 0.00 388.00 86.00" xmlns="http://www.w3.org/2000/svg" xmlns:xlink="http://www.w3.org/1999/xlink">
<g id="graph0" class="graph" transform="scale(1 1) rotate(0) translate(4 82)">
<title>fbp</title>
<polygon fill="white" stroke="none" points="-4,4 -4,-82 384,-82 384,4 -4,4"/>
<!-- amb_prox -->
<g id="node1" class="node"><title>amb_prox</title>
<polygon fill="#e444e2" stroke="none" points="9,-45 9,-74 114,-74 114,-45 9,-45"/>
<polygon fill="none" stroke="#601c5e" points="9,-45 9,-74 114,-74 114,-45 9,-45"/>
<text text-anchor="start" x="31" y="-60.3" font-family="Helvetica,sans-Serif" font-size="14.00" fill="#000000">amb_prox</text>
<text text-anchor="start" x="13" y="-51.1" font-family="Helvetica,sans-Serif" font-size="8.00" fill="#000000">ambient&#45;light&#45;and&#45;proximity</text>
<polygon fill="#80267e" stroke="none" points="9,-28 9,-45 114,-45 114,-28 9,-28"/>
<polygon fill="none" stroke="#601c5e" points="9,-28 9,-45 114,-45 114,-28 9,-28"/>
<text text-anchor="start" x="13" y="-34" font-family="Helvetica,sans-Serif" font-size="10.00" fill="#ffffff">SENSOR_STRING ◉</text>
</g>
<!-- convert -->
<g id="node3" class="node"><title>convert</title>
<polygon fill="#bd648a" stroke="none" points="167,-45 167,-74 258,-74 258,-45 167,-45"/>
<polygon fill="none" stroke="#4e2a39" points="167,-45 167,-74 258,-74 258,-45 167,-45"/>
<text text-anchor="start" x="190" y="-60.3" font-family="Helvetica,sans-Serif" font-size="14.00" fill="#000000">convert</text>
<text text-anchor="start" x="170.5" y="-51.1" font-family="Helvetica,sans-Serif" font-size="8.00" fill="#000000">converter/string&#45;to&#45;blob</text>
<polygon fill="#8d4b67" stroke="none" points="167,-28 167,-45 258,-45 258,-28 167,-28"/>
<polygon fill="none" stroke="#4e2a39" points="167,-28 167,-45 258,-45 258,-28 167,-28"/>
<text text-anchor="start" x="170" y="-34" font-family="Helvetica,sans-Serif" font-size="10.00" fill="#ffffff">◎ IN</text>
<polygon fill="#69384d" stroke="none" points="167,-11 167,-28 258,-28 258,-11 167,-11"/>
<polygon fill="none" stroke="#4e2a39" points="167,-11 167,-28 258,-28 258,-11 167,-11"/>
<text text-anchor="start" x="222" y="-17" font-family="Helvetica,sans-Serif" font-size="10.00" fill="#ffffff">OUT ◉</text>
</g>
<!-- amb_prox&#45;&gt;convert -->
<g id="edge1" class="edge"><title>amb_prox:OUT_SENSOR_STRING:e&#45;&gt;convert:IN_IN:w</title>
<path fill="none" stroke="#16795f" stroke-width="2" d="M115,-36C136.25,-36 142.559,-36 161.941,-36"/>
<ellipse fill="#16795f" stroke="#16795f" stroke-width="2" cx="164" cy="-36" rx="2" ry="2"/>
</g>
<!-- pub -->
<g id="node2" class="node"><title>pub</title>
<polygon fill="#00e49e" stroke="none" points="310,-37 310,-66 372,-66 372,-37 310,-37"/>
<polygon fill="none" stroke="#006042" points="310,-37 310,-66 372,-66 372,-37 310,-37"/>
<text text-anchor="start" x="329.5" y="-52.3" font-family="Helvetica,sans-Serif" font-size="14.00" fill="#000000">pub</text>
<text text-anchor="start" x="322.5" y="-43.1" font-family="Helvetica,sans-Serif" font-size="8.00" fill="#000000">mqtt/client</text>
<polygon fill="#00ab76" stroke="none" points="310,-20 310,-37 372,-37 372,-20 310,-20"/>
<polygon fill="none" stroke="#006042" points="310,-20 310,-37 372,-37 372,-20 310,-20"/>
<text text-anchor="start" x="313" y="-26" font-family="Helvetica,sans-Serif" font-size="10.00" fill="#ffffff">◎ DATA</text>
<polygon fill="#00ab76" stroke="none" points="310,-3 310,-20 372,-20 372,-3 310,-3"/>
<polygon fill="none" stroke="#006042" points="310,-3 310,-20 372,-20 372,-3 310,-3"/>
<text text-anchor="start" x="313" y="-9" font-family="Helvetica,sans-Serif" font-size="10.00" fill="#ffffff">◎ PUBLISH</text>
</g>
<!-- convert&#45;&gt;pub -->
<g id="edge2" class="edge"><title>convert:OUT_OUT:e&#45;&gt;pub:IN_DATA:w</title>
<path fill="none" stroke="#9c8b00" stroke-width="2" d="M259,-19C280.168,-19 285.746,-26.9102 304.966,-27.8989"/>
<ellipse fill="#9c8b00" stroke="#9c8b00" stroke-width="2" cx="307.001" cy="-27.9499" rx="2" ry="2"/>
</g>
<!-- convert&#45;&gt;pub -->
<g id="edge3" class="edge"><title>convert:OUT_OUT:e&#45;&gt;pub:IN_PUBLISH:w</title>
<path fill="none" stroke="#31b354" stroke-width="2" d="M259,-19C280.098,-19 285.803,-11.9688 304.977,-11.0898"/>
<ellipse fill="#31b354" stroke="#31b354" stroke-width="2" cx="307" cy="-11.0447" rx="2" ry="2"/>
</g>
</g>
</svg>
