<?xml version="1.0" encoding="UTF-8" standalone="no"?>
<!DOCTYPE svg PUBLIC "-//W3C//DTD SVG 1.1//EN"
 "http://www.w3.org/Graphics/SVG/1.1/DTD/svg11.dtd">
<!-- Generated by graphviz version 2.36.0 (20140111.2315)
 -->
<!-- Title: fbp Pages: 1 -->
<svg width="234pt" height="119pt"
 viewBox="0.00 0.00 234.00 119.00" xmlns="http://www.w3.org/2000/svg" xmlns:xlink="http://www.w3.org/1999/xlink">
<g id="graph0" class="graph" transform="scale(1 1) rotate(0) translate(4 115)">
<title>fbp</title>
<polygon fill="white" stroke="none" points="-4,4 -4,-115 230,-115 230,4 -4,4"/>
<!-- amb_prox -->
<g id="node1" class="node"><title>amb_prox</title>
<polygon fill="#e444e2" stroke="none" points="8,-61 8,-90 112,-90 112,-61 8,-61"/>
<polygon fill="none" stroke="#601c5e" points="8,-61 8,-90 112,-90 112,-61 8,-61"/>
<text text-anchor="start" x="29.5" y="-76.3" font-family="Helvetica,sans-Serif" font-size="14.00" fill="#000000">amb_prox</text>
<text text-anchor="start" x="11.5" y="-67.1" font-family="Helvetica,sans-Serif" font-size="8.00" fill="#000000">ambient&#45;light&#45;and&#45;proximity</text>
<polygon fill="#80267e" stroke="none" points="8,-44 8,-61 112,-61 112,-44 8,-44"/>
<polygon fill="none" stroke="#601c5e" points="8,-44 8,-61 112,-61 112,-44 8,-44"/>
<text text-anchor="start" x="78" y="-50" font-family="Helvetica,sans-Serif" font-size="10.00" fill="#ffffff">LUX ◉</text>
<polygon fill="#80267e" stroke="none" points="8,-27 8,-44 112,-44 112,-27 8,-27"/>
<polygon fill="none" stroke="#601c5e" points="8,-27 8,-44 112,-44 112,-27 8,-27"/>
<text text-anchor="start" x="42" y="-33" font-family="Helvetica,sans-Serif" font-size="10.00" fill="#ffffff">PROXIMITY ◉</text>
</g>
<!-- #anon:24:20 -->
<g id="node2" class="node"><title>#anon:24:20</title>
<polygon fill="#471ca4" stroke="none" points="164,-85 164,-107 218,-107 218,-85 164,-85"/>
<polygon fill="none" stroke="#1d0b45" points="164,-85 164,-107 218,-107 218,-85 164,-85"/>
<text text-anchor="start" x="167.5" y="-92.3" font-family="Helvetica,sans-Serif" font-size="14.00" fill="#ffffff">console</text>
<polygon fill="#35157b" stroke="none" points="164,-68 164,-85 218,-85 218,-68 164,-68"/>
<polygon fill="none" stroke="#1d0b45" points="164,-68 164,-85 218,-85 218,-68 164,-68"/>
<text text-anchor="start" x="167" y="-74" font-family="Helvetica,sans-Serif" font-size="10.00" fill="#ffffff">◎ IN</text>
</g>
<!-- amb_prox&#45;&gt;#anon:24:20 -->
<g id="edge1" class="edge"><title>amb_prox:OUT_LUX:e&#45;&gt;#anon:24:20:IN_IN:w</title>
<path fill="none" stroke="#268f8e" stroke-width="2" d="M113,-52C136.205,-52 138.186,-73.2699 158.904,-75.7625"/>
<ellipse fill="#268f8e" stroke="#268f8e" stroke-width="2" cx="161.003" cy="-75.8842" rx="2" ry="2"/>
</g>
<!-- #anon:25:26 -->
<g id="node3" class="node"><title>#anon:25:26</title>
<polygon fill="#471ca4" stroke="none" points="164,-20 164,-42 218,-42 218,-20 164,-20"/>
<polygon fill="none" stroke="#1d0b45" points="164,-20 164,-42 218,-42 218,-20 164,-20"/>
<text text-anchor="start" x="167.5" y="-27.3" font-family="Helvetica,sans-Serif" font-size="14.00" fill="#ffffff">console</text>
<polygon fill="#35157b" stroke="none" points="164,-3 164,-20 218,-20 218,-3 164,-3"/>
<polygon fill="none" stroke="#1d0b45" points="164,-3 164,-20 218,-20 218,-3 164,-3"/>
<text text-anchor="start" x="167" y="-9" font-family="Helvetica,sans-Serif" font-size="10.00" fill="#ffffff">◎ IN</text>
</g>
<!-- amb_prox&#45;&gt;#anon:25:26 -->
<g id="edge2" class="edge"><title>amb_prox:OUT_PROXIMITY:e&#45;&gt;#anon:25:26:IN_IN:w</title>
<path fill="none" stroke="#21460d" stroke-width="2" d="M113,-35C136.205,-35 138.186,-13.7301 158.904,-11.2375"/>
<ellipse fill="#21460d" stroke="#21460d" stroke-width="2" cx="161.003" cy="-11.1158" rx="2" ry="2"/>
</g>
</g>
</svg>
