<?xml version="1.0" encoding="UTF-8" standalone="no"?>
<!DOCTYPE svg PUBLIC "-//W3C//DTD SVG 1.1//EN"
 "http://www.w3.org/Graphics/SVG/1.1/DTD/svg11.dtd">
<!-- Generated by graphviz version 2.36.0 (20140111.2315)
 -->
<!-- Title: fbp Pages: 1 -->
<svg width="392pt" height="185pt"
 viewBox="0.00 0.00 392.00 185.00" xmlns="http://www.w3.org/2000/svg" xmlns:xlink="http://www.w3.org/1999/xlink">
<g id="graph0" class="graph" transform="scale(1 1) rotate(0) translate(4 181)">
<title>fbp</title>
<polygon fill="white" stroke="none" points="-4,4 -4,-181 388,-181 388,4 -4,4"/>
<!-- type -->
<g id="node1" class="node"><title>type</title>
<polygon fill="#4e2e10" stroke="none" points="11,-144 11,-173 67,-173 67,-144 11,-144"/>
<polygon fill="none" stroke="#201206" points="11,-144 11,-173 67,-173 67,-144 11,-144"/>
<text text-anchor="start" x="26" y="-159.3" font-family="Helvetica,sans-Serif" font-size="14.00" fill="#ffffff">type</text>
<text text-anchor="start" x="23" y="-150.1" font-family="Helvetica,sans-Serif" font-size="8.00" fill="#ffffff">app/argv</text>
<polygon fill="#2b1909" stroke="none" points="11,-127 11,-144 67,-144 67,-127 11,-127"/>
<polygon fill="none" stroke="#201206" points="11,-127 11,-144 67,-144 67,-127 11,-127"/>
<text text-anchor="start" x="31" y="-133" font-family="Helvetica,sans-Serif" font-size="10.00" fill="#ffffff">OUT ◉</text>
<polygon fill="#2b1909" stroke="none" points="11,-110 11,-127 67,-127 67,-110 11,-110"/>
<polygon fill="none" stroke="#201206" points="11,-110 11,-127 67,-127 67,-110 11,-110"/>
<text text-anchor="start" x="15" y="-116" font-family="Helvetica,sans-Serif" font-size="10.00" fill="#ffffff">ERROR ◉</text>
</g>
<!-- list -->
<g id="node2" class="node"><title>list</title>
<polygon fill="#ad639e" stroke="none" points="161,-55 161,-84 242,-84 242,-55 161,-55"/>
<polygon fill="none" stroke="#482942" points="161,-55 161,-84 242,-84 242,-55 161,-55"/>
<text text-anchor="start" x="193" y="-70.3" font-family="Helvetica,sans-Serif" font-size="14.00" fill="#ffffff">list</text>
<text text-anchor="start" x="164.5" y="-61.1" font-family="Helvetica,sans-Serif" font-size="8.00" fill="#ffffff">power&#45;supply/get&#45;list</text>
<polygon fill="#814a76" stroke="none" points="161,-38 161,-55 242,-55 242,-38 161,-38"/>
<polygon fill="none" stroke="#482942" points="161,-38 161,-55 242,-55 242,-38 161,-38"/>
<text text-anchor="start" x="164" y="-44" font-family="Helvetica,sans-Serif" font-size="10.00" fill="#ffffff">◎ TYPE</text>
<polygon fill="#814a76" stroke="none" points="161,-21 161,-38 242,-38 242,-21 161,-21"/>
<polygon fill="none" stroke="#482942" points="161,-21 161,-38 242,-38 242,-21 161,-21"/>
<text text-anchor="start" x="164" y="-27" font-family="Helvetica,sans-Serif" font-size="10.00" fill="#ffffff">◎ TRIGGER</text>
<polygon fill="#603758" stroke="none" points="161,-4 161,-21 242,-21 242,-4 161,-4"/>
<polygon fill="none" stroke="#482942" points="161,-4 161,-21 242,-21 242,-4 161,-4"/>
<text text-anchor="start" x="206" y="-10" font-family="Helvetica,sans-Serif" font-size="10.00" fill="#ffffff">OUT ◉</text>
</g>
<!-- type&#45;&gt;list -->
<g id="edge1" class="edge"><title>type:OUT_OUT:e&#45;&gt;list:IN_TYPE:w</title>
<path fill="none" stroke="#81abca" stroke-width="2" d="M68,-135C123.146,-135 104.442,-51.412 155.838,-47.1673"/>
<ellipse fill="#81abca" stroke="#81abca" stroke-width="2" cx="158.002" cy="-47.0804" rx="2" ry="2"/>
</g>
<!-- #anon:37:18 -->
<g id="node5" class="node"><title>#anon:37:18</title>
<polygon fill="#bd648a" stroke="none" points="122,-144 122,-166 280,-166 280,-144 122,-144"/>
<polygon fill="none" stroke="#4e2a39" points="122,-144 122,-166 280,-166 280,-144 122,-144"/>
<text text-anchor="start" x="125.5" y="-151.3" font-family="Helvetica,sans-Serif" font-size="14.00" fill="#000000">converter/empty&#45;to&#45;string</text>
<polygon fill="#8d4b67" stroke="none" points="122,-127 122,-144 280,-144 280,-127 122,-127"/>
<polygon fill="none" stroke="#4e2a39" points="122,-127 122,-144 280,-144 280,-127 122,-127"/>
<text text-anchor="start" x="125" y="-133" font-family="Helvetica,sans-Serif" font-size="10.00" fill="#ffffff">◎ IN</text>
<polygon fill="#69384d" stroke="none" points="122,-110 122,-127 280,-127 280,-110 122,-110"/>
<polygon fill="none" stroke="#4e2a39" points="122,-110 122,-127 280,-127 280,-110 122,-110"/>
<text text-anchor="start" x="244" y="-116" font-family="Helvetica,sans-Serif" font-size="10.00" fill="#ffffff">OUT ◉</text>
</g>
<!-- type&#45;&gt;#anon:37:18 -->
<g id="edge4" class="edge"><title>type:OUT_ERROR:e&#45;&gt;#anon:37:18:IN_IN:w</title>
<path fill="none" stroke="#c94462" stroke-width="2" d="M68,-118C91.2882,-118 95.7765,-133.066 116.862,-134.832"/>
<ellipse fill="#c94462" stroke="#c94462" stroke-width="2" cx="119.002" cy="-134.919" rx="2" ry="2"/>
</g>
<!-- Name -->
<g id="node4" class="node"><title>Name</title>
<polygon fill="#471ca4" stroke="none" points="332,-21 332,-50 376,-50 376,-21 332,-21"/>
<polygon fill="none" stroke="#1d0b45" points="332,-21 332,-50 376,-50 376,-21 332,-21"/>
<text text-anchor="start" x="335.5" y="-36.3" font-family="Helvetica,sans-Serif" font-size="14.00" fill="#ffffff">Name</text>
<text text-anchor="start" x="340" y="-27.1" font-family="Helvetica,sans-Serif" font-size="8.00" fill="#ffffff">console</text>
<polygon fill="#35157b" stroke="none" points="332,-4 332,-21 376,-21 376,-4 332,-4"/>
<polygon fill="none" stroke="#1d0b45" points="332,-4 332,-21 376,-21 376,-4 332,-4"/>
<text text-anchor="start" x="335" y="-10" font-family="Helvetica,sans-Serif" font-size="10.00" fill="#ffffff">◎ IN</text>
</g>
<!-- list&#45;&gt;Name -->
<g id="edge3" class="edge"><title>list:OUT_OUT:e&#45;&gt;Name:IN_IN:w</title>
<path fill="none" stroke="#952ab4" stroke-width="2" d="M243,-12C280.736,-12 291.165,-12 326.981,-12"/>
<ellipse fill="#952ab4" stroke="#952ab4" stroke-width="2" cx="329" cy="-12" rx="2" ry="2"/>
</g>
<!-- tick -->
<g id="node3" class="node"><title>tick</title>
<polygon fill="#e8ea7a" stroke="none" points="8,-38 8,-67 70,-67 70,-38 8,-38"/>
<polygon fill="none" stroke="#616233" points="8,-38 8,-67 70,-67 70,-38 8,-38"/>
<text text-anchor="start" x="28.5" y="-53.3" font-family="Helvetica,sans-Serif" font-size="14.00" fill="#000000">tick</text>
<text text-anchor="start" x="11.5" y="-44.1" font-family="Helvetica,sans-Serif" font-size="8.00" fill="#000000">constant/empty</text>
<polygon fill="#828344" stroke="none" points="8,-21 8,-38 70,-38 70,-21 8,-21"/>
<polygon fill="none" stroke="#616233" points="8,-21 8,-38 70,-38 70,-21 8,-21"/>
<text text-anchor="start" x="34" y="-27" font-family="Helvetica,sans-Serif" font-size="10.00" fill="#ffffff">OUT ◉</text>
</g>
<!-- tick&#45;&gt;list -->
<g id="edge2" class="edge"><title>tick:OUT_OUT:e&#45;&gt;list:IN_TRIGGER:w</title>
<path fill="none" stroke="#6c6936" stroke-width="2" d="M71,-29C109.165,-29 119.712,-29 155.936,-29"/>
<ellipse fill="#6c6936" stroke="#6c6936" stroke-width="2" cx="158" cy="-29" rx="2" ry="2"/>
</g>
<!-- Info -->
<g id="node6" class="node"><title>Info</title>
<polygon fill="#471ca4" stroke="none" points="337,-127 337,-156 372,-156 372,-127 337,-127"/>
<polygon fill="none" stroke="#1d0b45" points="337,-127 337,-156 372,-156 372,-127 337,-127"/>
<text text-anchor="start" x="343" y="-142.3" font-family="Helvetica,sans-Serif" font-size="14.00" fill="#ffffff">Info</text>
<text text-anchor="start" x="340.5" y="-133.1" font-family="Helvetica,sans-Serif" font-size="8.00" fill="#ffffff">console</text>
<polygon fill="#35157b" stroke="none" points="337,-110 337,-127 372,-127 372,-110 337,-110"/>
<polygon fill="none" stroke="#1d0b45" points="337,-110 337,-127 372,-127 372,-110 337,-110"/>
<text text-anchor="start" x="340" y="-116" font-family="Helvetica,sans-Serif" font-size="10.00" fill="#ffffff">◎ IN</text>
</g>
<!-- #anon:37:18&#45;&gt;Info -->
<g id="edge5" class="edge"><title>#anon:37:18:OUT_OUT:e&#45;&gt;Info:IN_IN:w</title>
<path fill="none" stroke="#0e8ada" stroke-width="2" d="M281,-118C304.012,-118 310.776,-118 331.885,-118"/>
<ellipse fill="#0e8ada" stroke="#0e8ada" stroke-width="2" cx="334" cy="-118" rx="2" ry="2"/>
</g>
</g>
</svg>
