<?xml version="1.0" encoding="UTF-8" standalone="no"?>
<!DOCTYPE svg PUBLIC "-//W3C//DTD SVG 1.1//EN"
 "http://www.w3.org/Graphics/SVG/1.1/DTD/svg11.dtd">
<!-- Generated by graphviz version 2.36.0 (20140111.2315)
 -->
<!-- Title: fbp Pages: 1 -->
<svg width="198pt" height="62pt"
 viewBox="0.00 0.00 198.00 62.00" xmlns="http://www.w3.org/2000/svg" xmlns:xlink="http://www.w3.org/1999/xlink">
<g id="graph0" class="graph" transform="scale(1 1) rotate(0) translate(4 58)">
<title>fbp</title>
<polygon fill="white" stroke="none" points="-4,4 -4,-58 194,-58 194,4 -4,4"/>
<!-- string -->
<g id="node1" class="node"><title>string</title>
<polygon fill="#22960c" stroke="none" points="8,-21 8,-50 76,-50 76,-21 8,-21"/>
<polygon fill="none" stroke="#0d3f04" points="8,-21 8,-50 76,-50 76,-21 8,-21"/>
<text text-anchor="start" x="25" y="-36.3" font-family="Helvetica,sans-Serif" font-size="14.00" fill="#ffffff">string</text>
<text text-anchor="start" x="11.5" y="-27.1" font-family="Helvetica,sans-Serif" font-size="8.00" fill="#ffffff">http&#45;server/string</text>
<polygon fill="#125406" stroke="none" points="8,-4 8,-21 76,-21 76,-4 8,-4"/>
<polygon fill="none" stroke="#0d3f04" points="8,-4 8,-21 76,-21 76,-4 8,-4"/>
<text text-anchor="start" x="40" y="-10" font-family="Helvetica,sans-Serif" font-size="10.00" fill="#ffffff">OUT ◉</text>
</g>
<!-- console -->
<g id="node2" class="node"><title>console</title>
<polygon fill="#471ca4" stroke="none" points="128,-21 128,-50 182,-50 182,-21 128,-21"/>
<polygon fill="none" stroke="#1d0b45" points="128,-21 128,-50 182,-50 182,-21 128,-21"/>
<text text-anchor="start" x="131.5" y="-36.3" font-family="Helvetica,sans-Serif" font-size="14.00" fill="#ffffff">console</text>
<text text-anchor="start" x="141" y="-27.1" font-family="Helvetica,sans-Serif" font-size="8.00" fill="#ffffff">console</text>
<polygon fill="#35157b" stroke="none" points="128,-4 128,-21 182,-21 182,-4 128,-4"/>
<polygon fill="none" stroke="#1d0b45" points="128,-4 128,-21 182,-21 182,-4 128,-4"/>
<text text-anchor="start" x="131" y="-10" font-family="Helvetica,sans-Serif" font-size="10.00" fill="#ffffff">◎ IN</text>
</g>
<!-- string&#45;&gt;console -->
<g id="edge1" class="edge"><title>string:OUT:e&#45;&gt;console:IN:w</title>
<path fill="none" stroke="#ef8c9a" stroke-width="2" d="M77,-12C97.6597,-12 103.914,-12 122.548,-12"/>
<ellipse fill="#ef8c9a" stroke="#ef8c9a" stroke-width="2" cx="125" cy="-12" rx="2" ry="2"/>
</g>
</g>
</svg>
